<?xml version="1.0" encoding="UTF-8"?>
<svg xmlns="http://www.w3.org/2000/svg" version="1.1" width="100" height="100" viewBox="0 0 100 100"><rect x="0" y="0" width="100" height="100" fill="#ffffff"/><g transform="scale(3.448)"><g transform="translate(0,0)"><path fill-rule="evenodd" d="M8 0L8 1L10 1L10 0ZM15 0L15 1L14 1L14 2L11 2L11 4L10 4L10 3L9 3L9 2L8 2L8 5L9 5L9 6L8 6L8 7L9 7L9 8L8 8L8 9L7 9L7 8L6 8L6 9L5 9L5 11L4 11L4 12L5 12L5 13L3 13L3 11L2 11L2 12L0 12L0 13L1 13L1 14L0 14L0 17L1 17L1 18L0 18L0 19L1 19L1 18L2 18L2 19L3 19L3 18L4 18L4 19L5 19L5 20L6 20L6 21L7 21L7 20L8 20L8 22L9 22L9 23L10 23L10 24L11 24L11 23L14 23L14 22L15 22L15 21L16 21L16 23L15 23L15 24L14 24L14 26L13 26L13 24L12 24L12 25L10 25L10 27L9 27L9 25L8 25L8 29L9 29L9 28L10 28L10 29L11 29L11 28L12 28L12 29L13 29L13 28L12 28L12 26L13 26L13 27L14 27L14 29L15 29L15 28L16 28L16 27L14 27L14 26L18 26L18 25L19 25L19 27L18 27L18 29L22 29L22 28L23 28L23 29L26 29L26 28L25 28L25 27L24 27L24 26L26 26L26 27L27 27L27 29L28 29L28 27L29 27L29 25L28 25L28 23L27 23L27 24L26 24L26 25L25 25L25 22L27 22L27 19L28 19L28 22L29 22L29 19L28 19L28 17L27 17L27 18L26 18L26 19L25 19L25 20L24 20L24 19L23 19L23 20L20 20L20 19L18 19L18 17L20 17L20 18L21 18L21 19L22 19L22 18L21 18L21 15L20 15L20 14L22 14L22 15L25 15L25 16L23 16L23 18L24 18L24 17L25 17L25 16L26 16L26 15L27 15L27 13L28 13L28 16L29 16L29 13L28 13L28 12L29 12L29 11L28 11L28 10L26 10L26 9L27 9L27 8L24 8L24 10L23 10L23 9L22 9L22 8L21 8L21 5L19 5L19 4L20 4L20 3L21 3L21 2L19 2L19 0ZM20 0L20 1L21 1L21 0ZM16 1L16 3L12 3L12 5L10 5L10 6L9 6L9 7L10 7L10 8L9 8L9 9L8 9L8 11L6 11L6 12L7 12L7 13L5 13L5 14L2 14L2 15L1 15L1 16L2 16L2 15L3 15L3 17L2 17L2 18L3 18L3 17L4 17L4 15L5 15L5 16L7 16L7 17L6 17L6 18L8 18L8 17L9 17L9 18L12 18L12 17L14 17L14 18L13 18L13 20L14 20L14 21L15 21L15 20L17 20L17 22L20 22L20 20L19 20L19 21L18 21L18 20L17 20L17 16L19 16L19 14L18 14L18 15L17 15L17 14L15 14L15 12L17 12L17 13L21 13L21 12L22 12L22 13L23 13L23 14L25 14L25 15L26 15L26 13L27 13L27 12L28 12L28 11L26 11L26 10L25 10L25 13L24 13L24 11L23 11L23 10L21 10L21 11L20 11L20 9L21 9L21 8L20 8L20 6L19 6L19 8L20 8L20 9L18 9L18 8L17 8L17 7L18 7L18 5L17 5L17 4L19 4L19 3L18 3L18 1ZM13 4L13 5L12 5L12 7L11 7L11 6L10 6L10 7L11 7L11 8L12 8L12 7L13 7L13 9L16 9L16 10L14 10L14 11L11 11L11 13L10 13L10 12L9 12L9 13L7 13L7 14L5 14L5 15L7 15L7 16L8 16L8 15L7 15L7 14L9 14L9 16L10 16L10 17L12 17L12 16L14 16L14 15L15 15L15 16L17 16L17 15L15 15L15 14L14 14L14 13L13 13L13 14L12 14L12 12L15 12L15 11L16 11L16 10L17 10L17 8L15 8L15 5L14 5L14 4ZM13 5L13 7L14 7L14 5ZM16 6L16 7L17 7L17 6ZM0 8L0 9L1 9L1 10L0 10L0 11L1 11L1 10L3 10L3 9L4 9L4 8ZM28 8L28 9L29 9L29 8ZM6 9L6 10L7 10L7 9ZM9 9L9 10L10 10L10 9ZM18 11L18 12L20 12L20 11ZM22 11L22 12L23 12L23 11ZM10 14L10 15L11 15L11 16L12 16L12 14ZM13 14L13 15L14 15L14 14ZM15 17L15 19L16 19L16 17ZM6 19L6 20L7 20L7 19ZM9 19L9 21L10 21L10 19ZM11 19L11 20L12 20L12 19ZM1 20L1 21L3 21L3 20ZM11 21L11 22L10 22L10 23L11 23L11 22L12 22L12 21ZM21 21L21 24L24 24L24 21ZM22 22L22 23L23 23L23 22ZM17 23L17 24L16 24L16 25L17 25L17 24L18 24L18 23ZM19 23L19 25L20 25L20 23ZM22 25L22 26L24 26L24 25ZM26 25L26 26L27 26L27 27L28 27L28 25ZM20 26L20 27L19 27L19 28L20 28L20 27L21 27L21 26ZM10 27L10 28L11 28L11 27ZM23 27L23 28L24 28L24 27ZM0 0L0 7L7 7L7 0ZM1 1L1 6L6 6L6 1ZM2 2L2 5L5 5L5 2ZM22 0L22 7L29 7L29 0ZM23 1L23 6L28 6L28 1ZM24 2L24 5L27 5L27 2ZM0 22L0 29L7 29L7 22ZM1 23L1 28L6 28L6 23ZM2 24L2 27L5 27L5 24Z" fill="#000000"/></g></g></svg>
