<?xml version="1.0" encoding="UTF-8"?>
<svg xmlns="http://www.w3.org/2000/svg" version="1.1" width="100" height="100" viewBox="0 0 100 100"><rect x="0" y="0" width="100" height="100" fill="#ffffff"/><g transform="scale(3.448)"><g transform="translate(0,0)"><path fill-rule="evenodd" d="M8 0L8 2L9 2L9 3L10 3L10 2L9 2L9 1L11 1L11 2L12 2L12 0ZM13 0L13 1L15 1L15 2L16 2L16 0ZM18 0L18 1L17 1L17 3L18 3L18 4L16 4L16 3L15 3L15 5L13 5L13 3L14 3L14 2L13 2L13 3L11 3L11 5L9 5L9 4L8 4L8 9L7 9L7 8L5 8L5 9L3 9L3 8L0 8L0 10L1 10L1 9L2 9L2 11L4 11L4 12L3 12L3 13L1 13L1 11L0 11L0 13L1 13L1 14L2 14L2 16L3 16L3 17L4 17L4 19L2 19L2 18L0 18L0 19L2 19L2 20L0 20L0 21L2 21L2 20L4 20L4 21L7 21L7 20L8 20L8 22L10 22L10 24L9 24L9 23L8 23L8 24L9 24L9 25L10 25L10 26L8 26L8 29L10 29L10 28L9 28L9 27L10 27L10 26L11 26L11 25L12 25L12 27L11 27L11 28L13 28L13 29L17 29L17 28L15 28L15 27L16 27L16 26L17 26L17 27L20 27L20 29L21 29L21 26L22 26L22 29L23 29L23 28L24 28L24 29L25 29L25 28L26 28L26 29L27 29L27 28L26 28L26 27L29 27L29 17L28 17L28 16L27 16L27 17L26 17L26 15L29 15L29 12L27 12L27 13L26 13L26 11L27 11L27 9L28 9L28 11L29 11L29 8L27 8L27 9L26 9L26 10L25 10L25 11L24 11L24 10L23 10L23 9L25 9L25 8L19 8L19 5L20 5L20 7L21 7L21 5L20 5L20 2L21 2L21 1L20 1L20 0ZM19 1L19 2L18 2L18 3L19 3L19 2L20 2L20 1ZM18 4L18 5L17 5L17 7L16 7L16 5L15 5L15 7L14 7L14 6L13 6L13 7L12 7L12 5L11 5L11 7L10 7L10 6L9 6L9 7L10 7L10 9L8 9L8 11L9 11L9 12L7 12L7 11L5 11L5 10L7 10L7 9L5 9L5 10L4 10L4 11L5 11L5 15L4 15L4 13L3 13L3 16L4 16L4 17L5 17L5 19L6 19L6 20L7 20L7 19L8 19L8 16L7 16L7 15L6 15L6 14L8 14L8 13L9 13L9 12L10 12L10 11L9 11L9 10L11 10L11 11L12 11L12 9L11 9L11 8L13 8L13 7L14 7L14 9L13 9L13 10L15 10L15 12L16 12L16 13L17 13L17 14L16 14L16 15L15 15L15 14L13 14L13 12L14 12L14 11L13 11L13 12L11 12L11 14L12 14L12 15L11 15L11 16L13 16L13 15L14 15L14 17L13 17L13 18L15 18L15 16L16 16L16 15L17 15L17 16L18 16L18 18L17 18L17 19L15 19L15 21L16 21L16 20L18 20L18 21L17 21L17 22L16 22L16 24L17 24L17 26L19 26L19 25L18 25L18 23L20 23L20 20L18 20L18 19L19 19L19 17L20 17L20 16L18 16L18 13L19 13L19 12L23 12L23 13L24 13L24 14L23 14L23 15L22 15L22 16L23 16L23 17L24 17L24 18L23 18L23 19L21 19L21 20L25 20L25 19L26 19L26 22L27 22L27 20L28 20L28 19L26 19L26 17L24 17L24 16L25 16L25 15L24 15L24 14L26 14L26 13L25 13L25 12L24 12L24 11L19 11L19 12L18 12L18 9L19 9L19 10L20 10L20 9L19 9L19 8L18 8L18 5L19 5L19 4ZM16 8L16 9L15 9L15 10L16 10L16 12L17 12L17 13L18 13L18 12L17 12L17 9L18 9L18 8ZM21 9L21 10L22 10L22 9ZM6 12L6 13L7 13L7 12ZM20 13L20 14L21 14L21 13ZM27 13L27 14L28 14L28 13ZM9 14L9 16L10 16L10 14ZM5 15L5 17L7 17L7 16L6 16L6 15ZM23 15L23 16L24 16L24 15ZM11 17L11 18L9 18L9 19L10 19L10 20L11 20L11 21L10 21L10 22L12 22L12 23L11 23L11 24L10 24L10 25L11 25L11 24L13 24L13 23L14 23L14 25L13 25L13 26L15 26L15 22L13 22L13 20L14 20L14 19L13 19L13 20L11 20L11 19L12 19L12 17ZM21 17L21 18L22 18L22 17ZM6 18L6 19L7 19L7 18ZM24 18L24 19L25 19L25 18ZM18 21L18 22L17 22L17 23L18 23L18 22L19 22L19 21ZM21 21L21 24L24 24L24 21ZM22 22L22 23L23 23L23 22ZM26 23L26 24L27 24L27 23ZM20 25L20 26L21 26L21 25ZM22 25L22 26L23 26L23 27L24 27L24 28L25 28L25 27L24 27L24 26L26 26L26 25ZM27 25L27 26L28 26L28 25ZM13 27L13 28L14 28L14 27ZM28 28L28 29L29 29L29 28ZM0 0L0 7L7 7L7 0ZM1 1L1 6L6 6L6 1ZM2 2L2 5L5 5L5 2ZM22 0L22 7L29 7L29 0ZM23 1L23 6L28 6L28 1ZM24 2L24 5L27 5L27 2ZM0 22L0 29L7 29L7 22ZM1 23L1 28L6 28L6 23ZM2 24L2 27L5 27L5 24Z" fill="#000000"/></g></g></svg>
