<?xml version="1.0" encoding="UTF-8"?>
<svg xmlns="http://www.w3.org/2000/svg" version="1.1" width="100" height="100" viewBox="0 0 100 100"><rect x="0" y="0" width="100" height="100" fill="#ffffff"/><g transform="scale(3.448)"><g transform="translate(0,0)"><path fill-rule="evenodd" d="M8 0L8 4L9 4L9 5L8 5L8 7L9 7L9 6L10 6L10 9L11 9L11 8L12 8L12 9L13 9L13 10L16 10L16 11L14 11L14 12L13 12L13 11L12 11L12 12L11 12L11 13L10 13L10 14L6 14L6 13L7 13L7 12L6 12L6 11L7 11L7 10L6 10L6 9L7 9L7 8L4 8L4 9L2 9L2 8L0 8L0 10L1 10L1 11L0 11L0 14L1 14L1 12L2 12L2 13L3 13L3 14L4 14L4 15L3 15L3 16L2 16L2 15L1 15L1 16L0 16L0 18L2 18L2 17L5 17L5 18L4 18L4 19L2 19L2 20L0 20L0 21L2 21L2 20L3 20L3 21L4 21L4 20L5 20L5 18L6 18L6 19L7 19L7 20L6 20L6 21L8 21L8 22L9 22L9 23L8 23L8 25L10 25L10 27L8 27L8 29L10 29L10 28L11 28L11 29L12 29L12 28L13 28L13 29L15 29L15 28L17 28L17 29L18 29L18 26L19 26L19 25L20 25L20 26L22 26L22 27L20 27L20 29L22 29L22 27L23 27L23 26L24 26L24 25L25 25L25 28L23 28L23 29L25 29L25 28L26 28L26 29L28 29L28 28L29 28L29 25L28 25L28 26L26 26L26 25L27 25L27 24L26 24L26 21L27 21L27 23L29 23L29 21L28 21L28 20L29 20L29 17L28 17L28 16L29 16L29 13L28 13L28 14L27 14L27 15L28 15L28 16L27 16L27 18L26 18L26 13L25 13L25 12L24 12L24 13L21 13L21 12L23 12L23 11L24 11L24 10L25 10L25 9L28 9L28 11L27 11L27 12L29 12L29 8L25 8L25 9L24 9L24 8L23 8L23 9L22 9L22 10L21 10L21 12L19 12L19 11L17 11L17 9L16 9L16 8L19 8L19 10L20 10L20 9L21 9L21 8L19 8L19 6L20 6L20 7L21 7L21 6L20 6L20 3L21 3L21 2L20 2L20 0L16 0L16 1L15 1L15 0L13 0L13 1L11 1L11 2L12 2L12 5L13 5L13 2L14 2L14 3L15 3L15 2L16 2L16 1L17 1L17 3L16 3L16 4L19 4L19 6L18 6L18 7L17 7L17 5L16 5L16 7L15 7L15 6L14 6L14 7L13 7L13 6L12 6L12 7L11 7L11 3L10 3L10 2L9 2L9 0ZM18 1L18 2L19 2L19 3L20 3L20 2L19 2L19 1ZM12 7L12 8L13 8L13 7ZM14 7L14 9L15 9L15 7ZM4 9L4 10L5 10L5 9ZM23 9L23 10L24 10L24 9ZM2 10L2 11L3 11L3 10ZM9 10L9 11L8 11L8 12L10 12L10 11L11 11L11 10ZM16 11L16 12L15 12L15 13L13 13L13 12L12 12L12 13L11 13L11 14L12 14L12 13L13 13L13 14L15 14L15 13L16 13L16 12L17 12L17 14L16 14L16 16L15 16L15 15L14 15L14 17L19 17L19 19L21 19L21 18L22 18L22 17L23 17L23 16L22 16L22 15L21 15L21 14L20 14L20 13L19 13L19 12L17 12L17 11ZM4 12L4 14L5 14L5 15L4 15L4 16L7 16L7 15L6 15L6 14L5 14L5 13L6 13L6 12ZM24 14L24 15L25 15L25 14ZM9 15L9 16L10 16L10 17L11 17L11 18L9 18L9 17L6 17L6 18L7 18L7 19L9 19L9 20L8 20L8 21L9 21L9 22L10 22L10 23L9 23L9 24L10 24L10 25L11 25L11 28L12 28L12 27L13 27L13 28L14 28L14 27L15 27L15 26L13 26L13 25L12 25L12 24L13 24L13 23L12 23L12 24L10 24L10 23L11 23L11 22L12 22L12 21L13 21L13 22L15 22L15 21L13 21L13 20L14 20L14 19L15 19L15 18L13 18L13 17L12 17L12 16L13 16L13 15L12 15L12 16L11 16L11 15ZM17 15L17 16L20 16L20 17L21 17L21 15ZM1 16L1 17L2 17L2 16ZM17 18L17 19L18 19L18 18ZM23 18L23 19L24 19L24 20L25 20L25 19L26 19L26 20L27 20L27 19L26 19L26 18L25 18L25 19L24 19L24 18ZM12 19L12 20L9 20L9 21L10 21L10 22L11 22L11 21L12 21L12 20L13 20L13 19ZM16 20L16 21L17 21L17 22L16 22L16 23L14 23L14 25L17 25L17 26L16 26L16 27L17 27L17 26L18 26L18 25L17 25L17 24L16 24L16 23L17 23L17 22L19 22L19 21L20 21L20 20ZM21 21L21 24L24 24L24 21ZM22 22L22 23L23 23L23 22ZM22 25L22 26L23 26L23 25ZM26 27L26 28L27 28L27 27ZM0 0L0 7L7 7L7 0ZM1 1L1 6L6 6L6 1ZM2 2L2 5L5 5L5 2ZM22 0L22 7L29 7L29 0ZM23 1L23 6L28 6L28 1ZM24 2L24 5L27 5L27 2ZM0 22L0 29L7 29L7 22ZM1 23L1 28L6 28L6 23ZM2 24L2 27L5 27L5 24Z" fill="#000000"/></g></g></svg>
