<?xml version="1.0" encoding="UTF-8"?>
<svg xmlns="http://www.w3.org/2000/svg" version="1.1" width="100" height="100" viewBox="0 0 100 100"><rect x="0" y="0" width="100" height="100" fill="#ffffff"/><g transform="scale(3.448)"><g transform="translate(0,0)"><path fill-rule="evenodd" d="M8 0L8 1L10 1L10 0ZM15 0L15 1L14 1L14 2L11 2L11 4L10 4L10 3L9 3L9 2L8 2L8 5L9 5L9 6L8 6L8 7L9 7L9 8L8 8L8 9L9 9L9 10L10 10L10 9L9 9L9 8L10 8L10 7L11 7L11 8L12 8L12 7L13 7L13 9L16 9L16 10L14 10L14 11L11 11L11 13L10 13L10 12L9 12L9 13L8 13L8 10L6 10L6 9L7 9L7 8L6 8L6 9L4 9L4 8L0 8L0 14L1 14L1 13L2 13L2 14L3 14L3 15L2 15L2 16L4 16L4 14L6 14L6 15L9 15L9 14L10 14L10 15L11 15L11 14L12 14L12 16L9 16L9 18L5 18L5 17L4 17L4 18L5 18L5 19L3 19L3 17L1 17L1 16L0 16L0 17L1 17L1 18L0 18L0 19L1 19L1 18L2 18L2 20L1 20L1 21L3 21L3 20L6 20L6 21L8 21L8 22L9 22L9 21L10 21L10 24L11 24L11 23L14 23L14 22L15 22L15 21L16 21L16 23L15 23L15 24L14 24L14 26L13 26L13 24L12 24L12 25L10 25L10 29L11 29L11 28L12 28L12 29L13 29L13 28L12 28L12 26L13 26L13 27L14 27L14 29L15 29L15 28L16 28L16 27L14 27L14 26L18 26L18 25L19 25L19 27L18 27L18 29L22 29L22 28L23 28L23 29L24 29L24 28L25 28L25 29L26 29L26 28L25 28L25 27L24 27L24 26L26 26L26 27L27 27L27 29L28 29L28 27L29 27L29 25L28 25L28 23L27 23L27 21L26 21L26 20L28 20L28 22L29 22L29 19L28 19L28 17L29 17L29 16L28 16L28 15L29 15L29 13L28 13L28 12L29 12L29 11L28 11L28 10L26 10L26 11L28 11L28 12L27 12L27 13L28 13L28 15L27 15L27 14L24 14L24 12L23 12L23 11L24 11L24 10L25 10L25 9L27 9L27 8L24 8L24 10L23 10L23 9L22 9L22 8L21 8L21 5L19 5L19 4L20 4L20 3L21 3L21 2L19 2L19 0ZM20 0L20 1L21 1L21 0ZM16 1L16 3L12 3L12 5L10 5L10 6L9 6L9 7L10 7L10 6L11 6L11 7L12 7L12 5L13 5L13 7L14 7L14 5L15 5L15 8L17 8L17 10L16 10L16 11L15 11L15 12L12 12L12 14L13 14L13 15L14 15L14 16L12 16L12 17L10 17L10 20L12 20L12 19L11 19L11 18L12 18L12 17L14 17L14 18L13 18L13 20L14 20L14 21L15 21L15 20L17 20L17 22L20 22L20 20L24 20L24 18L25 18L25 19L27 19L27 17L28 17L28 16L27 16L27 15L25 15L25 16L26 16L26 18L25 18L25 17L24 17L24 18L23 18L23 15L22 15L22 14L20 14L20 15L21 15L21 18L20 18L20 17L18 17L18 19L20 19L20 20L19 20L19 21L18 21L18 20L17 20L17 16L19 16L19 14L18 14L18 15L17 15L17 14L15 14L15 12L17 12L17 13L21 13L21 12L22 12L22 13L23 13L23 12L22 12L22 11L23 11L23 10L21 10L21 11L20 11L20 9L21 9L21 8L20 8L20 6L19 6L19 8L20 8L20 9L18 9L18 8L17 8L17 7L18 7L18 5L17 5L17 4L19 4L19 3L18 3L18 1ZM13 4L13 5L14 5L14 4ZM16 6L16 7L17 7L17 6ZM28 8L28 9L29 9L29 8ZM3 9L3 10L2 10L2 12L3 12L3 14L4 14L4 12L3 12L3 10L4 10L4 9ZM5 10L5 13L6 13L6 14L8 14L8 13L6 13L6 12L7 12L7 11L6 11L6 10ZM18 11L18 12L20 12L20 11ZM13 13L13 14L14 14L14 15L15 15L15 16L17 16L17 15L15 15L15 14L14 14L14 13ZM6 16L6 17L7 17L7 16ZM15 17L15 19L16 19L16 17ZM21 18L21 19L22 19L22 18ZM6 19L6 20L7 20L7 19ZM8 19L8 21L9 21L9 19ZM11 21L11 22L12 22L12 21ZM21 21L21 24L24 24L24 21ZM25 21L25 24L26 24L26 26L27 26L27 27L28 27L28 25L27 25L27 23L26 23L26 21ZM22 22L22 23L23 23L23 22ZM17 23L17 24L16 24L16 25L17 25L17 24L18 24L18 23ZM19 23L19 25L20 25L20 23ZM8 25L8 29L9 29L9 25ZM22 25L22 26L23 26L23 25ZM20 26L20 27L19 27L19 28L20 28L20 27L21 27L21 26ZM0 0L0 7L7 7L7 0ZM1 1L1 6L6 6L6 1ZM2 2L2 5L5 5L5 2ZM22 0L22 7L29 7L29 0ZM23 1L23 6L28 6L28 1ZM24 2L24 5L27 5L27 2ZM0 22L0 29L7 29L7 22ZM1 23L1 28L6 28L6 23ZM2 24L2 27L5 27L5 24Z" fill="#000000"/></g></g></svg>
