<?xml version="1.0" encoding="UTF-8"?>
<svg xmlns="http://www.w3.org/2000/svg" version="1.1" width="100" height="100" viewBox="0 0 100 100"><rect x="0" y="0" width="100" height="100" fill="#ffffff"/><g transform="scale(3.448)"><g transform="translate(0,0)"><path fill-rule="evenodd" d="M8 0L8 1L10 1L10 0ZM15 0L15 1L14 1L14 2L11 2L11 4L10 4L10 3L9 3L9 2L8 2L8 5L9 5L9 6L8 6L8 7L9 7L9 8L8 8L8 10L6 10L6 9L7 9L7 8L6 8L6 9L4 9L4 8L0 8L0 9L2 9L2 10L3 10L3 11L1 11L1 10L0 10L0 14L2 14L2 13L3 13L3 15L4 15L4 16L3 16L3 17L2 17L2 16L0 16L0 17L2 17L2 20L1 20L1 21L3 21L3 20L4 20L4 21L5 21L5 20L6 20L6 21L8 21L8 22L10 22L10 23L14 23L14 22L15 22L15 21L16 21L16 23L15 23L15 24L14 24L14 26L13 26L13 24L12 24L12 25L11 25L11 27L9 27L9 26L10 26L10 24L9 24L9 25L8 25L8 29L10 29L10 28L12 28L12 29L13 29L13 28L12 28L12 26L13 26L13 27L14 27L14 29L15 29L15 28L16 28L16 27L14 27L14 26L18 26L18 25L19 25L19 27L18 27L18 29L22 29L22 28L23 28L23 29L24 29L24 26L25 26L25 25L26 25L26 27L27 27L27 29L28 29L28 27L29 27L29 25L28 25L28 23L27 23L27 25L26 25L26 24L25 24L25 20L26 20L26 21L28 21L28 22L29 22L29 20L28 20L28 17L25 17L25 16L26 16L26 15L27 15L27 14L26 14L26 12L25 12L25 11L28 11L28 12L27 12L27 13L28 13L28 16L29 16L29 13L28 13L28 12L29 12L29 11L28 11L28 10L29 10L29 8L28 8L28 9L27 9L27 8L24 8L24 11L22 11L22 12L21 12L21 13L17 13L17 12L15 12L15 11L16 11L16 10L17 10L17 8L18 8L18 9L20 9L20 11L18 11L18 12L20 12L20 11L21 11L21 10L23 10L23 9L22 9L22 8L21 8L21 5L19 5L19 4L20 4L20 3L21 3L21 2L19 2L19 0ZM20 0L20 1L21 1L21 0ZM16 1L16 3L12 3L12 5L10 5L10 6L9 6L9 7L10 7L10 8L9 8L9 9L10 9L10 10L9 10L9 11L6 11L6 10L4 10L4 12L3 12L3 13L4 13L4 15L6 15L6 16L4 16L4 17L3 17L3 19L6 19L6 20L8 20L8 21L10 21L10 22L12 22L12 21L10 21L10 20L12 20L12 19L11 19L11 18L12 18L12 17L14 17L14 18L13 18L13 20L14 20L14 21L15 21L15 20L17 20L17 22L20 22L20 20L24 20L24 19L23 19L23 16L25 16L25 15L26 15L26 14L25 14L25 12L22 12L22 13L23 13L23 15L22 15L22 14L20 14L20 15L21 15L21 18L20 18L20 17L18 17L18 19L20 19L20 20L19 20L19 21L18 21L18 20L17 20L17 16L19 16L19 14L18 14L18 15L17 15L17 14L15 14L15 12L12 12L12 14L10 14L10 16L12 16L12 17L10 17L10 20L9 20L9 19L6 19L6 18L8 18L8 17L9 17L9 15L8 15L8 16L7 16L7 15L6 15L6 14L8 14L8 13L9 13L9 12L10 12L10 13L11 13L11 11L14 11L14 10L16 10L16 9L13 9L13 7L14 7L14 5L15 5L15 8L17 8L17 7L18 7L18 5L17 5L17 4L19 4L19 3L18 3L18 1ZM13 4L13 5L12 5L12 7L11 7L11 6L10 6L10 7L11 7L11 8L12 8L12 7L13 7L13 5L14 5L14 4ZM16 6L16 7L17 7L17 6ZM19 6L19 8L20 8L20 9L21 9L21 8L20 8L20 6ZM25 9L25 10L26 10L26 9ZM5 11L5 12L6 12L6 13L7 13L7 12L6 12L6 11ZM13 13L13 14L12 14L12 16L14 16L14 15L15 15L15 16L17 16L17 15L15 15L15 14L14 14L14 13ZM13 14L13 15L14 15L14 14ZM6 16L6 17L7 17L7 16ZM4 17L4 18L5 18L5 17ZM15 17L15 19L16 19L16 17ZM24 17L24 18L25 18L25 19L26 19L26 18L25 18L25 17ZM0 18L0 19L1 19L1 18ZM21 18L21 19L22 19L22 18ZM21 21L21 24L24 24L24 21ZM22 22L22 23L23 23L23 22ZM17 23L17 24L16 24L16 25L17 25L17 24L18 24L18 23ZM19 23L19 25L20 25L20 23ZM22 25L22 26L23 26L23 25ZM27 25L27 27L28 27L28 25ZM20 26L20 27L19 27L19 28L20 28L20 27L21 27L21 26ZM25 28L25 29L26 29L26 28ZM0 0L0 7L7 7L7 0ZM1 1L1 6L6 6L6 1ZM2 2L2 5L5 5L5 2ZM22 0L22 7L29 7L29 0ZM23 1L23 6L28 6L28 1ZM24 2L24 5L27 5L27 2ZM0 22L0 29L7 29L7 22ZM1 23L1 28L6 28L6 23ZM2 24L2 27L5 27L5 24Z" fill="#000000"/></g></g></svg>
