<?xml version="1.0" encoding="UTF-8"?>
<svg xmlns="http://www.w3.org/2000/svg" version="1.1" width="100" height="100" viewBox="0 0 100 100"><rect x="0" y="0" width="100" height="100" fill="#ffffff"/><g transform="scale(3.448)"><g transform="translate(0,0)"><path fill-rule="evenodd" d="M8 0L8 2L10 2L10 4L8 4L8 9L7 9L7 8L5 8L5 9L7 9L7 10L4 10L4 9L3 9L3 8L0 8L0 9L1 9L1 10L3 10L3 12L2 12L2 11L1 11L1 12L0 12L0 13L1 13L1 14L0 14L0 15L1 15L1 14L5 14L5 12L4 12L4 11L7 11L7 12L6 12L6 13L7 13L7 12L8 12L8 14L6 14L6 15L4 15L4 16L3 16L3 15L2 15L2 17L1 17L1 16L0 16L0 17L1 17L1 18L0 18L0 19L7 19L7 20L6 20L6 21L7 21L7 20L8 20L8 19L10 19L10 17L11 17L11 16L13 16L13 18L15 18L15 19L16 19L16 20L15 20L15 22L13 22L13 21L14 21L14 19L13 19L13 20L9 20L9 21L8 21L8 22L9 22L9 23L8 23L8 24L9 24L9 26L8 26L8 29L9 29L9 27L10 27L10 29L14 29L14 27L13 27L13 28L11 28L11 27L12 27L12 26L11 26L11 27L10 27L10 23L11 23L11 24L13 24L13 26L15 26L15 29L17 29L17 28L16 28L16 26L17 26L17 27L18 27L18 28L19 28L19 26L17 26L17 24L16 24L16 25L15 25L15 23L19 23L19 25L20 25L20 26L21 26L21 27L20 27L20 29L21 29L21 27L22 27L22 25L24 25L24 28L25 28L25 29L26 29L26 27L29 27L29 16L27 16L27 17L28 17L28 18L27 18L27 23L28 23L28 24L26 24L26 23L25 23L25 20L26 20L26 18L25 18L25 19L24 19L24 20L22 20L22 17L23 17L23 18L24 18L24 17L26 17L26 14L23 14L23 13L24 13L24 12L22 12L22 11L25 11L25 12L26 12L26 13L27 13L27 12L26 12L26 11L27 11L27 10L26 10L26 11L25 11L25 10L23 10L23 9L25 9L25 8L21 8L21 5L20 5L20 3L18 3L18 2L19 2L19 1L20 1L20 2L21 2L21 1L20 1L20 0L19 0L19 1L18 1L18 0L15 0L15 1L13 1L13 0L11 0L11 1L9 1L9 0ZM11 1L11 2L12 2L12 1ZM15 1L15 2L16 2L16 1ZM17 1L17 2L18 2L18 1ZM13 2L13 3L11 3L11 4L12 4L12 6L11 6L11 5L9 5L9 8L10 8L10 6L11 6L11 7L12 7L12 6L13 6L13 8L11 8L11 10L9 10L9 9L8 9L8 10L9 10L9 11L8 11L8 12L9 12L9 11L10 11L10 14L8 14L8 15L6 15L6 16L7 16L7 17L5 17L5 18L7 18L7 19L8 19L8 18L9 18L9 16L11 16L11 15L12 15L12 13L11 13L11 12L13 12L13 11L14 11L14 13L13 13L13 14L15 14L15 16L16 16L16 17L17 17L17 18L16 18L16 19L17 19L17 22L19 22L19 23L20 23L20 20L19 20L19 21L18 21L18 19L19 19L19 18L18 18L18 17L19 17L19 16L21 16L21 17L20 17L20 18L21 18L21 17L22 17L22 16L23 16L23 17L24 17L24 16L25 16L25 15L19 15L19 14L20 14L20 13L19 13L19 12L21 12L21 10L20 10L20 5L19 5L19 4L18 4L18 3L15 3L15 4L16 4L16 6L15 6L15 5L13 5L13 4L14 4L14 2ZM17 4L17 6L16 6L16 7L15 7L15 6L14 6L14 8L13 8L13 10L15 10L15 11L16 11L16 10L15 10L15 8L16 8L16 9L18 9L18 12L16 12L16 13L15 13L15 14L16 14L16 16L17 16L17 17L18 17L18 16L19 16L19 15L18 15L18 16L17 16L17 14L18 14L18 12L19 12L19 11L20 11L20 10L19 10L19 9L18 9L18 8L19 8L19 6L18 6L18 4ZM17 6L17 8L18 8L18 6ZM27 8L27 9L29 9L29 8ZM11 10L11 11L12 11L12 10ZM28 10L28 11L29 11L29 10ZM1 12L1 13L2 13L2 12ZM3 12L3 13L4 13L4 12ZM28 12L28 13L29 13L29 12ZM21 13L21 14L22 14L22 13ZM28 14L28 15L29 15L29 14ZM8 15L8 16L9 16L9 15ZM13 15L13 16L14 16L14 15ZM2 17L2 18L3 18L3 17ZM11 18L11 19L12 19L12 18ZM17 18L17 19L18 19L18 18ZM0 20L0 21L2 21L2 20ZM3 20L3 21L4 21L4 20ZM10 21L10 22L11 22L11 23L12 23L12 21ZM21 21L21 24L24 24L24 21ZM22 22L22 23L23 23L23 22ZM13 23L13 24L14 24L14 23ZM25 25L25 27L26 27L26 26L28 26L28 25ZM22 28L22 29L23 29L23 28ZM28 28L28 29L29 29L29 28ZM0 0L0 7L7 7L7 0ZM1 1L1 6L6 6L6 1ZM2 2L2 5L5 5L5 2ZM22 0L22 7L29 7L29 0ZM23 1L23 6L28 6L28 1ZM24 2L24 5L27 5L27 2ZM0 22L0 29L7 29L7 22ZM1 23L1 28L6 28L6 23ZM2 24L2 27L5 27L5 24Z" fill="#000000"/></g></g></svg>
