<?xml version="1.0" encoding="UTF-8"?>
<svg xmlns="http://www.w3.org/2000/svg" version="1.1" width="100" height="100" viewBox="0 0 100 100"><rect x="0" y="0" width="100" height="100" fill="#ffffff"/><g transform="scale(3.448)"><g transform="translate(0,0)"><path fill-rule="evenodd" d="M8 0L8 1L9 1L9 2L8 2L8 5L9 5L9 4L11 4L11 5L10 5L10 10L9 10L9 8L8 8L8 10L6 10L6 11L8 11L8 10L9 10L9 12L8 12L8 13L7 13L7 12L5 12L5 10L4 10L4 8L0 8L0 10L1 10L1 9L3 9L3 10L4 10L4 12L3 12L3 13L2 13L2 11L1 11L1 12L0 12L0 17L1 17L1 18L0 18L0 19L1 19L1 18L2 18L2 20L1 20L1 21L3 21L3 20L4 20L4 21L7 21L7 20L4 20L4 19L3 19L3 18L2 18L2 16L4 16L4 17L5 17L5 16L6 16L6 17L7 17L7 18L6 18L6 19L7 19L7 18L8 18L8 17L9 17L9 16L8 16L8 17L7 17L7 16L6 16L6 15L7 15L7 14L8 14L8 13L11 13L11 16L10 16L10 17L11 17L11 16L12 16L12 17L13 17L13 16L12 16L12 14L13 14L13 15L14 15L14 18L13 18L13 21L15 21L15 19L16 19L16 22L17 22L17 23L16 23L16 24L17 24L17 25L15 25L15 26L14 26L14 25L13 25L13 26L12 26L12 24L15 24L15 22L14 22L14 23L11 23L11 21L10 21L10 20L8 20L8 22L9 22L9 23L10 23L10 25L11 25L11 26L9 26L9 25L8 25L8 29L10 29L10 28L9 28L9 27L11 27L11 26L12 26L12 28L11 28L11 29L12 29L12 28L14 28L14 27L15 27L15 26L18 26L18 24L17 24L17 23L18 23L18 22L19 22L19 23L20 23L20 25L21 25L21 26L20 26L20 28L18 28L18 29L22 29L22 27L21 27L21 26L22 26L22 25L23 25L23 27L24 27L24 26L25 26L25 23L26 23L26 22L25 22L25 20L26 20L26 21L28 21L28 22L29 22L29 20L27 20L27 19L28 19L28 18L26 18L26 17L25 17L25 18L26 18L26 19L24 19L24 17L22 17L22 15L23 15L23 14L24 14L24 13L22 13L22 12L23 12L23 11L24 11L24 10L25 10L25 11L28 11L28 12L29 12L29 11L28 11L28 9L29 9L29 8L28 8L28 9L27 9L27 8L24 8L24 10L23 10L23 9L22 9L22 8L21 8L21 9L20 9L20 10L21 10L21 9L22 9L22 10L23 10L23 11L21 11L21 13L22 13L22 15L21 15L21 16L20 16L20 17L21 17L21 20L20 20L20 19L17 19L17 18L16 18L16 17L18 17L18 18L19 18L19 16L17 16L17 15L20 15L20 14L17 14L17 13L15 13L15 12L14 12L14 14L13 14L13 12L12 12L12 13L11 13L11 11L14 11L14 10L16 10L16 12L17 12L17 10L16 10L16 9L17 9L17 8L18 8L18 9L19 9L19 6L20 6L20 7L21 7L21 5L19 5L19 4L20 4L20 3L21 3L21 2L20 2L20 3L19 3L19 1L16 1L16 0L12 0L12 1L11 1L11 0L10 0L10 1L9 1L9 0ZM20 0L20 1L21 1L21 0ZM14 1L14 2L11 2L11 4L12 4L12 3L13 3L13 5L12 5L12 6L11 6L11 8L12 8L12 6L13 6L13 8L14 8L14 9L15 9L15 7L16 7L16 6L15 6L15 5L16 5L16 4L19 4L19 3L18 3L18 2L17 2L17 3L16 3L16 1ZM14 3L14 5L13 5L13 6L14 6L14 7L15 7L15 6L14 6L14 5L15 5L15 4L16 4L16 3ZM18 5L18 6L17 6L17 7L18 7L18 6L19 6L19 5ZM8 6L8 7L9 7L9 6ZM6 8L6 9L7 9L7 8ZM11 9L11 10L12 10L12 9ZM25 9L25 10L27 10L27 9ZM18 11L18 12L20 12L20 11ZM25 12L25 13L26 13L26 14L25 14L25 15L24 15L24 16L26 16L26 15L27 15L27 16L28 16L28 15L29 15L29 14L27 14L27 13L26 13L26 12ZM1 13L1 14L2 14L2 15L3 15L3 14L2 14L2 13ZM6 13L6 14L4 14L4 15L6 15L6 14L7 14L7 13ZM9 14L9 15L10 15L10 14ZM14 14L14 15L15 15L15 14ZM15 16L15 17L16 17L16 16ZM11 19L11 20L12 20L12 19ZM22 19L22 20L23 20L23 19ZM18 20L18 21L17 21L17 22L18 22L18 21L19 21L19 22L20 22L20 20ZM21 21L21 24L24 24L24 21ZM22 22L22 23L23 23L23 22ZM27 24L27 25L26 25L26 26L27 26L27 25L28 25L28 27L27 27L27 29L28 29L28 27L29 27L29 25L28 25L28 24ZM13 26L13 27L14 27L14 26ZM25 27L25 28L24 28L24 29L25 29L25 28L26 28L26 27ZM0 0L0 7L7 7L7 0ZM1 1L1 6L6 6L6 1ZM2 2L2 5L5 5L5 2ZM22 0L22 7L29 7L29 0ZM23 1L23 6L28 6L28 1ZM24 2L24 5L27 5L27 2ZM0 22L0 29L7 29L7 22ZM1 23L1 28L6 28L6 23ZM2 24L2 27L5 27L5 24Z" fill="#000000"/></g></g></svg>
