<?xml version="1.0" encoding="UTF-8"?>
<svg xmlns="http://www.w3.org/2000/svg" version="1.1" width="100" height="100" viewBox="0 0 100 100"><rect x="0" y="0" width="100" height="100" fill="#ffffff"/><g transform="scale(3.448)"><g transform="translate(0,0)"><path fill-rule="evenodd" d="M8 0L8 4L10 4L10 3L11 3L11 4L12 4L12 2L11 2L11 0ZM12 0L12 1L13 1L13 0ZM19 0L19 2L17 2L17 1L16 1L16 2L15 2L15 3L14 3L14 2L13 2L13 3L14 3L14 4L13 4L13 5L11 5L11 6L10 6L10 7L9 7L9 5L8 5L8 7L9 7L9 8L10 8L10 7L11 7L11 6L12 6L12 8L11 8L11 9L9 9L9 10L8 10L8 9L7 9L7 8L4 8L4 9L7 9L7 10L6 10L6 11L7 11L7 10L8 10L8 13L7 13L7 12L6 12L6 13L7 13L7 14L4 14L4 13L5 13L5 11L4 11L4 10L3 10L3 9L2 9L2 8L0 8L0 9L2 9L2 12L4 12L4 13L3 13L3 16L5 16L5 18L4 18L4 17L3 17L3 18L2 18L2 19L4 19L4 20L3 20L3 21L5 21L5 20L6 20L6 21L8 21L8 22L9 22L9 23L8 23L8 25L9 25L9 27L8 27L8 29L9 29L9 28L10 28L10 29L11 29L11 28L12 28L12 29L14 29L14 27L16 27L16 28L17 28L17 29L18 29L18 28L19 28L19 27L20 27L20 29L22 29L22 28L23 28L23 29L24 29L24 28L25 28L25 29L28 29L28 28L29 28L29 25L28 25L28 26L27 26L27 24L28 24L28 23L29 23L29 17L28 17L28 18L27 18L27 16L29 16L29 13L26 13L26 14L25 14L25 13L24 13L24 14L23 14L23 13L22 13L22 14L21 14L21 16L19 16L19 14L20 14L20 13L21 13L21 12L24 12L24 10L25 10L25 12L26 12L26 11L27 11L27 10L28 10L28 12L29 12L29 10L28 10L28 9L29 9L29 8L25 8L25 9L24 9L24 8L23 8L23 9L21 9L21 6L20 6L20 3L21 3L21 2L20 2L20 0ZM9 2L9 3L10 3L10 2ZM15 4L15 5L16 5L16 6L15 6L15 8L16 8L16 9L13 9L13 8L14 8L14 6L13 6L13 8L12 8L12 9L11 9L11 10L9 10L9 13L8 13L8 14L7 14L7 15L5 15L5 16L7 16L7 15L8 15L8 14L9 14L9 17L6 17L6 18L5 18L5 19L6 19L6 20L7 20L7 19L8 19L8 20L10 20L10 22L11 22L11 23L10 23L10 24L9 24L9 25L11 25L11 26L10 26L10 28L11 28L11 26L12 26L12 25L13 25L13 26L15 26L15 25L13 25L13 24L14 24L14 23L15 23L15 22L13 22L13 21L12 21L12 20L13 20L13 19L12 19L12 20L11 20L11 19L10 19L10 18L9 18L9 17L10 17L10 15L11 15L11 16L12 16L12 17L11 17L11 18L12 18L12 17L13 17L13 18L15 18L15 17L16 17L16 16L17 16L17 18L16 18L16 20L15 20L15 19L14 19L14 21L17 21L17 22L18 22L18 25L17 25L17 24L16 24L16 25L17 25L17 26L16 26L16 27L17 27L17 26L18 26L18 27L19 27L19 26L18 26L18 25L19 25L19 22L18 22L18 21L17 21L17 18L19 18L19 19L21 19L21 20L22 20L22 19L23 19L23 20L25 20L25 21L26 21L26 22L25 22L25 23L26 23L26 24L27 24L27 21L28 21L28 19L26 19L26 16L27 16L27 14L26 14L26 16L25 16L25 15L24 15L24 17L23 17L23 16L22 16L22 19L21 19L21 18L20 18L20 17L19 17L19 16L17 16L17 15L18 15L18 14L17 14L17 15L16 15L16 14L13 14L13 13L12 13L12 12L13 12L13 11L12 11L12 12L11 12L11 13L10 13L10 11L11 11L11 10L12 10L12 9L13 9L13 10L16 10L16 11L19 11L19 12L16 12L16 13L19 13L19 12L21 12L21 11L22 11L22 10L21 10L21 9L20 9L20 6L19 6L19 8L17 8L17 7L18 7L18 6L17 6L17 5L19 5L19 4L17 4L17 5L16 5L16 4ZM16 6L16 7L17 7L17 6ZM19 9L19 10L20 10L20 11L21 11L21 10L20 10L20 9ZM23 9L23 10L24 10L24 9ZM25 9L25 10L26 10L26 9ZM0 10L0 11L1 11L1 10ZM14 11L14 13L15 13L15 11ZM0 14L0 18L1 18L1 17L2 17L2 15L1 15L1 14ZM12 15L12 16L13 16L13 17L15 17L15 16L16 16L16 15L14 15L14 16L13 16L13 15ZM24 17L24 18L23 18L23 19L24 19L24 18L25 18L25 17ZM6 18L6 19L7 19L7 18ZM25 19L25 20L26 20L26 21L27 21L27 20L26 20L26 19ZM0 20L0 21L2 21L2 20ZM19 20L19 21L20 21L20 20ZM21 21L21 24L24 24L24 21ZM22 22L22 23L23 23L23 22ZM12 23L12 24L11 24L11 25L12 25L12 24L13 24L13 23ZM20 25L20 26L21 26L21 25ZM22 25L22 27L25 27L25 26L26 26L26 28L27 28L27 26L26 26L26 25ZM12 27L12 28L13 28L13 27ZM0 0L0 7L7 7L7 0ZM1 1L1 6L6 6L6 1ZM2 2L2 5L5 5L5 2ZM22 0L22 7L29 7L29 0ZM23 1L23 6L28 6L28 1ZM24 2L24 5L27 5L27 2ZM0 22L0 29L7 29L7 22ZM1 23L1 28L6 28L6 23ZM2 24L2 27L5 27L5 24Z" fill="#000000"/></g></g></svg>
