<?xml version="1.0" encoding="UTF-8"?>
<svg xmlns="http://www.w3.org/2000/svg" version="1.1" width="100" height="100" viewBox="0 0 100 100"><rect x="0" y="0" width="100" height="100" fill="#ffffff"/><g transform="scale(3.448)"><g transform="translate(0,0)"><path fill-rule="evenodd" d="M10 0L10 2L11 2L11 0ZM12 0L12 1L13 1L13 2L12 2L12 4L13 4L13 3L14 3L14 4L15 4L15 5L17 5L17 6L16 6L16 8L17 8L17 6L18 6L18 7L19 7L19 5L17 5L17 4L16 4L16 2L17 2L17 1L16 1L16 0ZM20 0L20 2L19 2L19 4L20 4L20 8L19 8L19 9L20 9L20 11L21 11L21 13L20 13L20 14L21 14L21 16L22 16L22 14L23 14L23 13L22 13L22 11L21 11L21 9L22 9L22 10L23 10L23 9L24 9L24 12L26 12L26 13L24 13L24 15L25 15L25 16L24 16L24 17L23 17L23 18L21 18L21 19L19 19L19 20L17 20L17 15L18 15L18 14L19 14L19 13L16 13L16 14L17 14L17 15L14 15L14 16L15 16L15 17L12 17L12 15L13 15L13 14L10 14L10 15L9 15L9 16L11 16L11 17L12 17L12 18L13 18L13 19L12 19L12 21L13 21L13 20L14 20L14 21L16 21L16 22L15 22L15 23L14 23L14 24L16 24L16 22L17 22L17 21L18 21L18 24L17 24L17 25L16 25L16 26L15 26L15 25L12 25L12 23L13 23L13 22L11 22L11 24L8 24L8 29L9 29L9 27L10 27L10 29L11 29L11 27L10 27L10 26L11 26L11 25L12 25L12 26L13 26L13 27L12 27L12 29L13 29L13 28L14 28L14 29L16 29L16 28L14 28L14 27L17 27L17 25L18 25L18 27L20 27L20 28L19 28L19 29L20 29L20 28L22 28L22 27L23 27L23 28L24 28L24 29L25 29L25 28L26 28L26 27L25 27L25 26L24 26L24 27L23 27L23 26L21 26L21 25L26 25L26 26L27 26L27 28L28 28L28 26L29 26L29 25L28 25L28 24L29 24L29 23L28 23L28 22L29 22L29 21L28 21L28 22L26 22L26 21L27 21L27 20L28 20L28 18L29 18L29 17L28 17L28 15L27 15L27 13L28 13L28 14L29 14L29 13L28 13L28 12L29 12L29 11L28 11L28 12L26 12L26 11L27 11L27 10L28 10L28 8L27 8L27 9L26 9L26 8L25 8L25 9L24 9L24 8L23 8L23 9L22 9L22 8L21 8L21 4L20 4L20 3L21 3L21 0ZM8 1L8 2L9 2L9 1ZM14 2L14 3L15 3L15 2ZM8 3L8 4L9 4L9 5L8 5L8 7L9 7L9 8L6 8L6 9L10 9L10 11L11 11L11 9L12 9L12 10L13 10L13 11L12 11L12 13L13 13L13 12L14 12L14 13L15 13L15 12L16 12L16 11L19 11L19 10L16 10L16 9L12 9L12 7L13 7L13 5L11 5L11 6L10 6L10 4L11 4L11 3ZM9 6L9 7L10 7L10 6ZM11 6L11 7L12 7L12 6ZM14 6L14 8L15 8L15 6ZM0 8L0 12L2 12L2 11L1 11L1 10L2 10L2 9L5 9L5 8ZM10 8L10 9L11 9L11 8ZM20 8L20 9L21 9L21 8ZM3 10L3 13L1 13L1 14L2 14L2 15L1 15L1 17L0 17L0 21L1 21L1 18L2 18L2 19L3 19L3 20L2 20L2 21L8 21L8 23L9 23L9 21L10 21L10 19L11 19L11 18L10 18L10 19L9 19L9 20L8 20L8 15L7 15L7 14L6 14L6 13L7 13L7 12L8 12L8 13L11 13L11 12L9 12L9 10L8 10L8 11L7 11L7 10L5 10L5 12L4 12L4 10ZM6 11L6 12L5 12L5 13L4 13L4 14L3 14L3 15L2 15L2 16L3 16L3 17L4 17L4 18L3 18L3 19L4 19L4 18L5 18L5 16L7 16L7 15L4 15L4 14L5 14L5 13L6 13L6 12L7 12L7 11ZM14 11L14 12L15 12L15 11ZM3 15L3 16L4 16L4 15ZM26 15L26 16L25 16L25 18L26 18L26 20L25 20L25 19L24 19L24 20L25 20L25 21L26 21L26 20L27 20L27 17L26 17L26 16L27 16L27 15ZM6 17L6 18L7 18L7 17ZM15 17L15 18L16 18L16 17ZM19 17L19 18L20 18L20 17ZM6 19L6 20L7 20L7 19ZM14 19L14 20L15 20L15 19ZM21 19L21 20L23 20L23 19ZM16 20L16 21L17 21L17 20ZM19 21L19 22L20 22L20 21ZM21 21L21 24L24 24L24 21ZM22 22L22 23L23 23L23 22ZM25 22L25 23L26 23L26 24L27 24L27 23L26 23L26 22ZM18 24L18 25L19 25L19 26L20 26L20 24ZM9 25L9 26L10 26L10 25ZM24 27L24 28L25 28L25 27ZM17 28L17 29L18 29L18 28ZM0 0L0 7L7 7L7 0ZM1 1L1 6L6 6L6 1ZM2 2L2 5L5 5L5 2ZM22 0L22 7L29 7L29 0ZM23 1L23 6L28 6L28 1ZM24 2L24 5L27 5L27 2ZM0 22L0 29L7 29L7 22ZM1 23L1 28L6 28L6 23ZM2 24L2 27L5 27L5 24Z" fill="#000000"/></g></g></svg>
