<?xml version="1.0" encoding="UTF-8"?>
<svg xmlns="http://www.w3.org/2000/svg" version="1.1" width="100" height="100" viewBox="0 0 100 100"><rect x="0" y="0" width="100" height="100" fill="#ffffff"/><g transform="scale(3.448)"><g transform="translate(0,0)"><path fill-rule="evenodd" d="M8 0L8 1L9 1L9 2L10 2L10 3L11 3L11 1L13 1L13 2L12 2L12 4L11 4L11 5L10 5L10 4L9 4L9 5L10 5L10 8L9 8L9 6L8 6L8 8L9 8L9 10L10 10L10 11L8 11L8 9L7 9L7 8L6 8L6 9L5 9L5 8L3 8L3 9L5 9L5 10L4 10L4 11L3 11L3 10L2 10L2 8L0 8L0 10L2 10L2 11L1 11L1 13L2 13L2 14L0 14L0 15L1 15L1 16L2 16L2 14L6 14L6 15L11 15L11 16L10 16L10 17L9 17L9 18L8 18L8 19L7 19L7 18L6 18L6 17L7 17L7 16L6 16L6 17L5 17L5 18L3 18L3 17L0 17L0 21L4 21L4 19L5 19L5 21L7 21L7 20L8 20L8 22L11 22L11 20L10 20L10 19L9 19L9 18L11 18L11 19L12 19L12 21L14 21L14 24L13 24L13 25L12 25L12 26L13 26L13 25L15 25L15 26L14 26L14 27L12 27L12 28L11 28L11 27L10 27L10 25L11 25L11 24L8 24L8 26L9 26L9 27L8 27L8 29L10 29L10 28L11 28L11 29L13 29L13 28L15 28L15 27L17 27L17 26L21 26L21 27L18 27L18 28L19 28L19 29L21 29L21 27L22 27L22 28L23 28L23 29L24 29L24 28L23 28L23 27L25 27L25 29L26 29L26 28L27 28L27 27L28 27L28 28L29 28L29 24L28 24L28 26L27 26L27 27L26 27L26 26L24 26L24 25L27 25L27 24L26 24L26 21L27 21L27 23L28 23L28 21L29 21L29 20L28 20L28 19L29 19L29 18L28 18L28 16L29 16L29 11L28 11L28 12L26 12L26 11L27 11L27 10L29 10L29 8L28 8L28 9L24 9L24 11L22 11L22 10L21 10L21 11L22 11L22 12L19 12L19 14L17 14L17 12L18 12L18 11L19 11L19 9L17 9L17 8L16 8L16 9L14 9L14 7L15 7L15 6L14 6L14 7L13 7L13 5L15 5L15 4L14 4L14 3L13 3L13 2L14 2L14 0L11 0L11 1L9 1L9 0ZM17 0L17 1L16 1L16 2L15 2L15 3L16 3L16 7L17 7L17 6L18 6L18 8L20 8L20 7L21 7L21 5L20 5L20 7L19 7L19 4L21 4L21 2L20 2L20 0L19 0L19 2L20 2L20 3L16 3L16 2L17 2L17 1L18 1L18 0ZM12 4L12 5L11 5L11 7L12 7L12 9L10 9L10 10L12 10L12 11L13 11L13 10L12 10L12 9L13 9L13 7L12 7L12 5L13 5L13 4ZM22 8L22 9L23 9L23 8ZM6 9L6 10L7 10L7 9ZM16 9L16 10L17 10L17 9ZM14 10L14 13L15 13L15 10ZM2 11L2 12L3 12L3 13L4 13L4 12L3 12L3 11ZM5 11L5 12L8 12L8 14L9 14L9 12L8 12L8 11ZM10 12L10 14L13 14L13 13L11 13L11 12ZM24 12L24 13L25 13L25 15L26 15L26 13L25 13L25 12ZM6 13L6 14L7 14L7 13ZM20 13L20 15L17 15L17 14L16 14L16 15L15 15L15 14L14 14L14 15L12 15L12 16L11 16L11 17L14 17L14 16L16 16L16 18L17 18L17 19L15 19L15 18L12 18L12 19L13 19L13 20L14 20L14 19L15 19L15 20L18 20L18 21L17 21L17 22L18 22L18 24L17 24L17 23L15 23L15 24L17 24L17 25L19 25L19 23L20 23L20 21L19 21L19 20L20 20L20 19L21 19L21 20L23 20L23 19L24 19L24 17L23 17L23 16L24 16L24 15L23 15L23 16L22 16L22 14L21 14L21 13ZM27 13L27 14L28 14L28 13ZM3 15L3 16L5 16L5 15ZM16 15L16 16L17 16L17 15ZM20 15L20 16L19 16L19 17L18 17L18 18L19 18L19 19L18 19L18 20L19 20L19 19L20 19L20 18L21 18L21 19L23 19L23 18L21 18L21 17L22 17L22 16L21 16L21 15ZM27 15L27 16L26 16L26 17L25 17L25 18L26 18L26 19L25 19L25 20L26 20L26 19L27 19L27 18L26 18L26 17L27 17L27 16L28 16L28 15ZM19 17L19 18L20 18L20 17ZM5 18L5 19L6 19L6 20L7 20L7 19L6 19L6 18ZM8 19L8 20L9 20L9 21L10 21L10 20L9 20L9 19ZM18 21L18 22L19 22L19 21ZM21 21L21 24L24 24L24 21ZM12 22L12 23L13 23L13 22ZM22 22L22 23L23 23L23 22ZM22 25L22 26L23 26L23 25ZM9 27L9 28L10 28L10 27ZM0 0L0 7L7 7L7 0ZM1 1L1 6L6 6L6 1ZM2 2L2 5L5 5L5 2ZM22 0L22 7L29 7L29 0ZM23 1L23 6L28 6L28 1ZM24 2L24 5L27 5L27 2ZM0 22L0 29L7 29L7 22ZM1 23L1 28L6 28L6 23ZM2 24L2 27L5 27L5 24Z" fill="#000000"/></g></g></svg>
