<?xml version="1.0" encoding="UTF-8"?>
<svg xmlns="http://www.w3.org/2000/svg" version="1.1" width="100" height="100" viewBox="0 0 100 100"><rect x="0" y="0" width="100" height="100" fill="#ffffff"/><g transform="scale(3.448)"><g transform="translate(0,0)"><path fill-rule="evenodd" d="M9 0L9 1L8 1L8 2L9 2L9 3L8 3L8 4L10 4L10 7L11 7L11 4L12 4L12 5L13 5L13 6L12 6L12 9L13 9L13 8L14 8L14 9L16 9L16 10L15 10L15 11L14 11L14 12L16 12L16 10L17 10L17 11L19 11L19 10L17 10L17 9L18 9L18 8L17 8L17 5L18 5L18 7L19 7L19 9L20 9L20 12L19 12L19 13L18 13L18 12L17 12L17 13L16 13L16 14L15 14L15 13L12 13L12 11L13 11L13 10L11 10L11 11L10 11L10 9L11 9L11 8L6 8L6 9L5 9L5 8L0 8L0 9L2 9L2 10L1 10L1 11L0 11L0 12L1 12L1 13L2 13L2 16L1 16L1 15L0 15L0 21L1 21L1 17L2 17L2 18L3 18L3 14L4 14L4 15L5 15L5 16L6 16L6 17L5 17L5 18L4 18L4 19L5 19L5 20L2 20L2 21L5 21L5 20L6 20L6 21L8 21L8 23L11 23L11 22L10 22L10 21L9 21L9 20L8 20L8 18L6 18L6 17L7 17L7 16L8 16L8 17L9 17L9 18L10 18L10 19L11 19L11 21L12 21L12 22L13 22L13 23L12 23L12 25L13 25L13 24L14 24L14 25L16 25L16 22L19 22L19 21L20 21L20 23L18 23L18 24L17 24L17 26L15 26L15 27L14 27L14 28L15 28L15 29L16 29L16 28L17 28L17 29L18 29L18 28L19 28L19 29L20 29L20 28L19 28L19 27L18 27L18 28L17 28L17 26L21 26L21 25L24 25L24 26L23 26L23 29L27 29L27 28L28 28L28 26L29 26L29 25L27 25L27 24L26 24L26 23L25 23L25 22L27 22L27 23L28 23L28 22L29 22L29 20L27 20L27 21L25 21L25 20L26 20L26 19L28 19L28 18L29 18L29 17L28 17L28 15L27 15L27 12L26 12L26 11L27 11L27 10L28 10L28 8L27 8L27 10L26 10L26 8L25 8L25 9L24 9L24 8L23 8L23 9L22 9L22 8L21 8L21 1L20 1L20 0L18 0L18 3L19 3L19 1L20 1L20 7L19 7L19 4L17 4L17 2L14 2L14 3L15 3L15 4L16 4L16 5L14 5L14 4L12 4L12 2L13 2L13 1L14 1L14 0L13 0L13 1L11 1L11 2L10 2L10 0ZM16 0L16 1L17 1L17 0ZM10 3L10 4L11 4L11 3ZM8 5L8 7L9 7L9 5ZM13 6L13 7L14 7L14 8L15 8L15 7L16 7L16 6L15 6L15 7L14 7L14 6ZM16 8L16 9L17 9L17 8ZM20 8L20 9L21 9L21 11L22 11L22 13L23 13L23 14L22 14L22 16L21 16L21 15L20 15L20 13L21 13L21 12L20 12L20 13L19 13L19 14L18 14L18 15L14 15L14 16L13 16L13 17L12 17L12 15L13 15L13 14L12 14L12 13L11 13L11 12L10 12L10 13L9 13L9 12L7 12L7 11L6 11L6 12L4 12L4 11L5 11L5 9L4 9L4 11L3 11L3 12L4 12L4 14L7 14L7 15L6 15L6 16L7 16L7 15L9 15L9 14L10 14L10 15L11 15L11 17L10 17L10 16L9 16L9 17L10 17L10 18L13 18L13 19L12 19L12 21L15 21L15 22L16 22L16 21L17 21L17 20L18 20L18 21L19 21L19 20L24 20L24 19L23 19L23 17L26 17L26 16L27 16L27 15L26 15L26 13L25 13L25 12L24 12L24 9L23 9L23 10L22 10L22 9L21 9L21 8ZM6 9L6 10L7 10L7 9ZM8 10L8 11L9 11L9 10ZM6 12L6 13L7 13L7 12ZM8 13L8 14L9 14L9 13ZM10 13L10 14L11 14L11 13ZM24 13L24 14L23 14L23 15L24 15L24 16L26 16L26 15L25 15L25 13ZM18 15L18 16L17 16L17 17L16 17L16 16L14 16L14 17L16 17L16 18L15 18L15 19L14 19L14 20L15 20L15 21L16 21L16 19L17 19L17 17L18 17L18 18L19 18L19 17L18 17L18 16L19 16L19 15ZM20 17L20 18L21 18L21 19L22 19L22 17ZM5 18L5 19L6 19L6 20L7 20L7 19L6 19L6 18ZM21 21L21 24L24 24L24 21ZM27 21L27 22L28 22L28 21ZM22 22L22 23L23 23L23 22ZM14 23L14 24L15 24L15 23ZM8 24L8 29L9 29L9 28L10 28L10 29L12 29L12 27L13 27L13 26L11 26L11 24ZM18 24L18 25L20 25L20 24ZM9 25L9 27L10 27L10 25ZM25 25L25 27L26 27L26 28L27 28L27 27L26 27L26 25ZM21 28L21 29L22 29L22 28ZM0 0L0 7L7 7L7 0ZM1 1L1 6L6 6L6 1ZM2 2L2 5L5 5L5 2ZM22 0L22 7L29 7L29 0ZM23 1L23 6L28 6L28 1ZM24 2L24 5L27 5L27 2ZM0 22L0 29L7 29L7 22ZM1 23L1 28L6 28L6 23ZM2 24L2 27L5 27L5 24Z" fill="#000000"/></g></g></svg>
