<?xml version="1.0" encoding="UTF-8"?>
<svg xmlns="http://www.w3.org/2000/svg" version="1.1" width="100" height="100" viewBox="0 0 100 100"><rect x="0" y="0" width="100" height="100" fill="#ffffff"/><g transform="scale(3.448)"><g transform="translate(0,0)"><path fill-rule="evenodd" d="M8 0L8 1L10 1L10 0ZM13 0L13 1L14 1L14 2L11 2L11 4L10 4L10 3L9 3L9 2L8 2L8 5L9 5L9 6L8 6L8 7L9 7L9 8L8 8L8 9L7 9L7 8L6 8L6 9L5 9L5 10L4 10L4 8L0 8L0 11L1 11L1 10L2 10L2 11L3 11L3 12L1 12L1 15L0 15L0 17L1 17L1 18L0 18L0 19L1 19L1 18L2 18L2 19L3 19L3 21L5 21L5 19L7 19L7 20L6 20L6 21L8 21L8 22L9 22L9 20L10 20L10 22L11 22L11 23L14 23L14 22L15 22L15 21L14 21L14 20L13 20L13 18L14 18L14 17L12 17L12 16L14 16L14 15L15 15L15 14L17 14L17 15L18 15L18 17L19 17L19 18L21 18L21 19L20 19L20 25L19 25L19 26L18 26L18 29L21 29L21 28L19 28L19 27L20 27L20 25L21 25L21 27L24 27L24 25L25 25L25 26L26 26L26 27L25 27L25 29L26 29L26 27L27 27L27 29L28 29L28 27L29 27L29 25L28 25L28 27L27 27L27 26L26 26L26 25L27 25L27 24L29 24L29 23L27 23L27 21L28 21L28 22L29 22L29 20L27 20L27 19L28 19L28 18L27 18L27 17L25 17L25 16L26 16L26 15L25 15L25 14L27 14L27 16L28 16L28 15L29 15L29 13L28 13L28 12L26 12L26 11L27 11L27 10L26 10L26 11L25 11L25 14L24 14L24 13L22 13L22 12L23 12L23 11L24 11L24 10L25 10L25 9L27 9L27 8L24 8L24 10L23 10L23 9L22 9L22 8L21 8L21 9L20 9L20 10L21 10L21 11L18 11L18 12L17 12L17 11L16 11L16 12L17 12L17 13L15 13L15 14L14 14L14 13L13 13L13 14L12 14L12 12L15 12L15 10L14 10L14 11L11 11L11 13L10 13L10 12L9 12L9 11L7 11L7 10L8 10L8 9L9 9L9 10L10 10L10 9L9 9L9 8L10 8L10 7L11 7L11 8L12 8L12 7L13 7L13 9L15 9L15 5L17 5L17 3L15 3L15 2L16 2L16 1L17 1L17 2L18 2L18 1L20 1L20 0L18 0L18 1L17 1L17 0L16 0L16 1L14 1L14 0ZM19 2L19 3L20 3L20 4L21 4L21 2ZM12 3L12 5L10 5L10 6L9 6L9 7L10 7L10 6L11 6L11 7L12 7L12 5L13 5L13 7L14 7L14 5L13 5L13 4L15 4L15 3ZM19 5L19 6L18 6L18 7L17 7L17 6L16 6L16 10L17 10L17 9L19 9L19 8L20 8L20 7L21 7L21 5ZM19 6L19 7L20 7L20 6ZM28 8L28 10L29 10L29 8ZM2 9L2 10L3 10L3 11L4 11L4 12L5 12L5 14L2 14L2 15L1 15L1 17L2 17L2 18L3 18L3 19L5 19L5 18L7 18L7 19L8 19L8 20L9 20L9 19L10 19L10 18L12 18L12 17L10 17L10 16L9 16L9 15L11 15L11 16L12 16L12 14L9 14L9 12L7 12L7 11L4 11L4 10L3 10L3 9ZM6 9L6 10L7 10L7 9ZM21 9L21 10L22 10L22 11L21 11L21 12L20 12L20 13L19 13L19 12L18 12L18 13L17 13L17 14L21 14L21 15L19 15L19 17L20 17L20 16L21 16L21 15L22 15L22 17L21 17L21 18L22 18L22 20L23 20L23 19L24 19L24 18L25 18L25 19L27 19L27 18L25 18L25 17L24 17L24 18L22 18L22 17L23 17L23 15L24 15L24 14L23 14L23 15L22 15L22 13L21 13L21 12L22 12L22 11L23 11L23 10L22 10L22 9ZM6 12L6 13L7 13L7 12ZM27 13L27 14L28 14L28 13ZM6 14L6 15L2 15L2 17L4 17L4 18L5 18L5 17L4 17L4 16L6 16L6 17L7 17L7 18L8 18L8 19L9 19L9 18L10 18L10 17L9 17L9 18L8 18L8 14ZM13 14L13 15L14 15L14 14ZM6 15L6 16L7 16L7 15ZM15 17L15 19L17 19L17 20L16 20L16 22L17 22L17 23L16 23L16 24L14 24L14 26L13 26L13 24L12 24L12 25L11 25L11 24L10 24L10 23L9 23L9 25L8 25L8 29L9 29L9 27L10 27L10 26L11 26L11 28L12 28L12 29L13 29L13 28L12 28L12 26L13 26L13 27L14 27L14 29L15 29L15 28L17 28L17 27L14 27L14 26L16 26L16 24L17 24L17 25L18 25L18 24L17 24L17 23L19 23L19 19L17 19L17 18L16 18L16 17ZM11 19L11 20L12 20L12 19ZM1 20L1 21L2 21L2 20ZM11 21L11 22L12 22L12 21ZM21 21L21 24L24 24L24 21ZM22 22L22 23L23 23L23 22ZM25 22L25 25L26 25L26 24L27 24L27 23L26 23L26 22ZM22 25L22 26L23 26L23 25ZM0 0L0 7L7 7L7 0ZM1 1L1 6L6 6L6 1ZM2 2L2 5L5 5L5 2ZM22 0L22 7L29 7L29 0ZM23 1L23 6L28 6L28 1ZM24 2L24 5L27 5L27 2ZM0 22L0 29L7 29L7 22ZM1 23L1 28L6 28L6 23ZM2 24L2 27L5 27L5 24Z" fill="#000000"/></g></g></svg>
