<?xml version="1.0" encoding="UTF-8"?>
<svg xmlns="http://www.w3.org/2000/svg" version="1.1" width="100" height="100" viewBox="0 0 100 100"><rect x="0" y="0" width="100" height="100" fill="#ffffff"/><g transform="scale(3.448)"><g transform="translate(0,0)"><path fill-rule="evenodd" d="M10 0L10 1L8 1L8 3L9 3L9 4L8 4L8 8L6 8L6 9L7 9L7 10L5 10L5 9L4 9L4 8L3 8L3 9L4 9L4 10L2 10L2 8L0 8L0 9L1 9L1 11L0 11L0 12L2 12L2 13L3 13L3 14L4 14L4 13L5 13L5 15L4 15L4 16L2 16L2 14L0 14L0 15L1 15L1 16L0 16L0 17L1 17L1 18L0 18L0 19L1 19L1 18L2 18L2 21L3 21L3 20L6 20L6 21L7 21L7 20L9 20L9 19L8 19L8 17L9 17L9 16L12 16L12 18L11 18L11 17L10 17L10 19L12 19L12 20L13 20L13 18L14 18L14 20L16 20L16 22L17 22L17 20L19 20L19 23L20 23L20 25L19 25L19 26L21 26L21 27L23 27L23 28L24 28L24 29L28 29L28 27L29 27L29 26L28 26L28 25L29 25L29 24L27 24L27 23L26 23L26 22L27 22L27 21L28 21L28 22L29 22L29 20L28 20L28 19L29 19L29 17L25 17L25 20L23 20L23 19L24 19L24 17L23 17L23 18L22 18L22 15L23 15L23 16L25 16L25 14L24 14L24 13L23 13L23 12L22 12L22 10L24 10L24 11L26 11L26 14L27 14L27 13L29 13L29 11L28 11L28 10L26 10L26 9L28 9L28 8L26 8L26 9L25 9L25 8L22 8L22 10L21 10L21 9L20 9L20 8L21 8L21 6L20 6L20 4L21 4L21 0L18 0L18 1L16 1L16 0L13 0L13 1L16 1L16 2L17 2L17 3L15 3L15 2L14 2L14 3L12 3L12 7L11 7L11 4L10 4L10 3L9 3L9 2L11 2L11 0ZM18 1L18 2L19 2L19 3L20 3L20 1ZM14 3L14 4L13 4L13 7L12 7L12 8L13 8L13 9L14 9L14 10L15 10L15 11L14 11L14 12L12 12L12 16L14 16L14 17L15 17L15 19L19 19L19 20L22 20L22 18L21 18L21 17L20 17L20 18L19 18L19 15L20 15L20 16L21 16L21 15L22 15L22 14L23 14L23 13L22 13L22 12L21 12L21 10L20 10L20 12L21 12L21 13L22 13L22 14L21 14L21 15L20 15L20 13L19 13L19 12L18 12L18 11L17 11L17 10L16 10L16 8L17 8L17 9L19 9L19 8L17 8L17 7L18 7L18 6L19 6L19 7L20 7L20 6L19 6L19 5L17 5L17 7L16 7L16 6L15 6L15 5L14 5L14 4L15 4L15 3ZM9 5L9 8L8 8L8 10L7 10L7 11L2 11L2 12L5 12L5 13L6 13L6 14L7 14L7 13L6 13L6 12L8 12L8 14L9 14L9 15L6 15L6 16L4 16L4 19L6 19L6 20L7 20L7 19L6 19L6 18L7 18L7 17L8 17L8 16L9 16L9 15L11 15L11 13L10 13L10 12L9 12L9 11L11 11L11 8L10 8L10 5ZM14 6L14 7L13 7L13 8L14 8L14 9L15 9L15 8L16 8L16 7L15 7L15 6ZM14 7L14 8L15 8L15 7ZM9 9L9 10L8 10L8 11L9 11L9 10L10 10L10 9ZM24 9L24 10L25 10L25 9ZM15 11L15 12L14 12L14 13L13 13L13 15L15 15L15 13L18 13L18 12L16 12L16 11ZM27 11L27 12L28 12L28 11ZM28 14L28 15L27 15L27 16L28 16L28 15L29 15L29 14ZM17 15L17 17L16 17L16 18L17 18L17 17L18 17L18 15ZM6 16L6 17L5 17L5 18L6 18L6 17L7 17L7 16ZM2 17L2 18L3 18L3 17ZM20 18L20 19L21 19L21 18ZM26 18L26 20L25 20L25 22L26 22L26 20L27 20L27 19L28 19L28 18ZM0 20L0 21L1 21L1 20ZM8 21L8 23L9 23L9 24L10 24L10 26L9 26L9 25L8 25L8 26L9 26L9 27L8 27L8 29L9 29L9 27L10 27L10 29L12 29L12 28L13 28L13 29L15 29L15 28L17 28L17 29L18 29L18 26L17 26L17 25L18 25L18 24L16 24L16 23L14 23L14 24L16 24L16 26L17 26L17 27L13 27L13 24L12 24L12 25L11 25L11 24L10 24L10 22L12 22L12 21ZM14 21L14 22L15 22L15 21ZM21 21L21 24L24 24L24 21ZM22 22L22 23L23 23L23 22ZM25 23L25 24L26 24L26 27L25 27L25 28L27 28L27 27L28 27L28 26L27 26L27 24L26 24L26 23ZM21 25L21 26L22 26L22 25ZM23 25L23 27L24 27L24 25ZM11 26L11 28L12 28L12 26ZM19 27L19 28L20 28L20 29L21 29L21 28L20 28L20 27ZM0 0L0 7L7 7L7 0ZM1 1L1 6L6 6L6 1ZM2 2L2 5L5 5L5 2ZM22 0L22 7L29 7L29 0ZM23 1L23 6L28 6L28 1ZM24 2L24 5L27 5L27 2ZM0 22L0 29L7 29L7 22ZM1 23L1 28L6 28L6 23ZM2 24L2 27L5 27L5 24Z" fill="#000000"/></g></g></svg>
