<?xml version="1.0" encoding="UTF-8"?>
<svg xmlns="http://www.w3.org/2000/svg" version="1.1" width="100" height="100" viewBox="0 0 100 100"><rect x="0" y="0" width="100" height="100" fill="#ffffff"/><g transform="scale(3.448)"><g transform="translate(0,0)"><path fill-rule="evenodd" d="M9 0L9 1L11 1L11 2L9 2L9 3L8 3L8 5L9 5L9 6L8 6L8 7L9 7L9 9L8 9L8 8L5 8L5 9L4 9L4 10L3 10L3 9L2 9L2 8L0 8L0 9L1 9L1 10L0 10L0 11L1 11L1 12L0 12L0 13L1 13L1 14L0 14L0 15L1 15L1 17L0 17L0 21L1 21L1 19L2 19L2 18L1 18L1 17L2 17L2 16L3 16L3 18L4 18L4 19L3 19L3 20L2 20L2 21L3 21L3 20L4 20L4 21L7 21L7 20L6 20L6 19L7 19L7 18L6 18L6 19L5 19L5 18L4 18L4 17L7 17L7 16L5 16L5 14L6 14L6 15L9 15L9 16L8 16L8 19L9 19L9 20L8 20L8 24L9 24L9 25L10 25L10 26L9 26L9 27L8 27L8 29L9 29L9 28L10 28L10 29L12 29L12 27L13 27L13 26L11 26L11 25L14 25L14 23L16 23L16 20L15 20L15 19L16 19L16 18L17 18L17 19L18 19L18 18L19 18L19 19L21 19L21 20L19 20L19 21L18 21L18 20L17 20L17 22L19 22L19 21L20 21L20 23L18 23L18 24L19 24L19 25L17 25L17 24L15 24L15 27L17 27L17 26L22 26L22 25L24 25L24 26L23 26L23 27L20 27L20 28L19 28L19 27L18 27L18 28L17 28L17 29L18 29L18 28L19 28L19 29L20 29L20 28L21 28L21 29L22 29L22 28L23 28L23 29L27 29L27 27L28 27L28 28L29 28L29 27L28 27L28 26L29 26L29 24L28 24L28 21L27 21L27 20L28 20L28 19L29 19L29 17L28 17L28 16L29 16L29 15L28 15L28 16L27 16L27 15L26 15L26 13L24 13L24 12L25 12L25 9L26 9L26 10L27 10L27 11L28 11L28 12L27 12L27 13L28 13L28 14L29 14L29 11L28 11L28 9L26 9L26 8L24 8L24 12L21 12L21 10L22 10L22 9L21 9L21 10L20 10L20 16L21 16L21 15L22 15L22 16L26 16L26 18L25 18L25 17L23 17L23 18L21 18L21 17L20 17L20 18L19 18L19 17L18 17L18 16L19 16L19 15L18 15L18 14L19 14L19 13L17 13L17 12L16 12L16 13L15 13L15 11L16 11L16 8L17 8L17 9L18 9L18 8L17 8L17 5L18 5L18 7L19 7L19 9L20 9L20 8L21 8L21 4L20 4L20 7L19 7L19 4L16 4L16 8L14 8L14 7L15 7L15 5L14 5L14 4L15 4L15 3L17 3L17 2L16 2L16 1L15 1L15 0L14 0L14 1L15 1L15 2L14 2L14 4L12 4L12 2L13 2L13 1L12 1L12 0ZM17 0L17 1L18 1L18 3L19 3L19 0ZM20 0L20 3L21 3L21 0ZM9 3L9 5L10 5L10 3ZM11 4L11 7L10 7L10 6L9 6L9 7L10 7L10 8L11 8L11 10L10 10L10 9L9 9L9 10L8 10L8 9L6 9L6 10L5 10L5 11L6 11L6 12L5 12L5 13L6 13L6 14L7 14L7 13L6 13L6 12L7 12L7 11L9 11L9 12L8 12L8 13L9 13L9 14L10 14L10 13L9 13L9 12L10 12L10 11L11 11L11 10L13 10L13 11L12 11L12 12L11 12L11 15L10 15L10 16L9 16L9 17L11 17L11 18L10 18L10 19L12 19L12 21L11 21L11 20L10 20L10 21L9 21L9 23L10 23L10 25L11 25L11 24L12 24L12 23L13 23L13 22L12 22L12 21L14 21L14 22L15 22L15 20L14 20L14 19L12 19L12 18L15 18L15 17L14 17L14 16L13 16L13 17L12 17L12 15L13 15L13 14L12 14L12 13L13 13L13 12L14 12L14 11L15 11L15 10L14 10L14 8L13 8L13 9L12 9L12 6L13 6L13 7L14 7L14 6L13 6L13 5L12 5L12 4ZM1 10L1 11L3 11L3 10ZM6 10L6 11L7 11L7 10ZM9 10L9 11L10 11L10 10ZM17 10L17 11L19 11L19 10ZM1 12L1 13L2 13L2 14L1 14L1 15L3 15L3 16L4 16L4 12L3 12L3 13L2 13L2 12ZM21 13L21 14L22 14L22 15L25 15L25 14L24 14L24 13L23 13L23 14L22 14L22 13ZM17 15L17 16L16 16L16 17L17 17L17 18L18 18L18 17L17 17L17 16L18 16L18 15ZM27 17L27 18L28 18L28 17ZM22 19L22 20L25 20L25 21L26 21L26 22L25 22L25 23L26 23L26 25L27 25L27 26L28 26L28 24L27 24L27 21L26 21L26 20L27 20L27 19L26 19L26 20L25 20L25 19ZM10 21L10 23L11 23L11 21ZM21 21L21 24L24 24L24 21ZM22 22L22 23L23 23L23 22ZM16 25L16 26L17 26L17 25ZM10 26L10 28L11 28L11 26ZM23 27L23 28L25 28L25 27ZM15 28L15 29L16 29L16 28ZM0 0L0 7L7 7L7 0ZM1 1L1 6L6 6L6 1ZM2 2L2 5L5 5L5 2ZM22 0L22 7L29 7L29 0ZM23 1L23 6L28 6L28 1ZM24 2L24 5L27 5L27 2ZM0 22L0 29L7 29L7 22ZM1 23L1 28L6 28L6 23ZM2 24L2 27L5 27L5 24Z" fill="#000000"/></g></g></svg>
