<?xml version="1.0" encoding="UTF-8"?>
<svg xmlns="http://www.w3.org/2000/svg" version="1.1" width="100" height="100" viewBox="0 0 100 100"><rect x="0" y="0" width="100" height="100" fill="#ffffff"/><g transform="scale(3.448)"><g transform="translate(0,0)"><path fill-rule="evenodd" d="M9 0L9 1L8 1L8 3L9 3L9 4L8 4L8 8L6 8L6 9L4 9L4 8L3 8L3 9L2 9L2 8L0 8L0 9L1 9L1 11L0 11L0 15L1 15L1 16L0 16L0 17L2 17L2 15L4 15L4 14L6 14L6 15L5 15L5 17L4 17L4 16L3 16L3 18L2 18L2 21L7 21L7 20L6 20L6 19L8 19L8 20L9 20L9 21L8 21L8 23L11 23L11 24L9 24L9 25L8 25L8 26L9 26L9 27L8 27L8 29L10 29L10 28L12 28L12 29L14 29L14 28L12 28L12 24L14 24L14 25L13 25L13 27L15 27L15 25L17 25L17 29L18 29L18 28L20 28L20 29L22 29L22 27L21 27L21 25L22 25L22 26L23 26L23 25L27 25L27 26L26 26L26 27L27 27L27 28L26 28L26 29L28 29L28 27L29 27L29 26L28 26L28 25L29 25L29 23L26 23L26 22L27 22L27 21L28 21L28 22L29 22L29 17L26 17L26 18L24 18L24 17L23 17L23 18L24 18L24 19L25 19L25 20L23 20L23 19L22 19L22 20L21 20L21 17L22 17L22 15L23 15L23 16L24 16L24 15L25 15L25 16L26 16L26 14L27 14L27 16L28 16L28 15L29 15L29 13L28 13L28 12L29 12L29 11L28 11L28 8L26 8L26 9L25 9L25 8L22 8L22 10L24 10L24 11L26 11L26 14L24 14L24 13L23 13L23 11L22 11L22 13L21 13L21 11L20 11L20 10L21 10L21 9L20 9L20 8L21 8L21 6L20 6L20 4L19 4L19 3L21 3L21 1L20 1L20 2L19 2L19 1L17 1L17 0L16 0L16 1L14 1L14 0L12 0L12 1L11 1L11 2L9 2L9 1L10 1L10 0ZM16 1L16 2L14 2L14 3L16 3L16 4L15 4L15 8L14 8L14 6L13 6L13 3L12 3L12 4L9 4L9 5L10 5L10 6L9 6L9 7L10 7L10 8L8 8L8 9L9 9L9 10L10 10L10 8L11 8L11 9L12 9L12 10L11 10L11 11L9 11L9 14L10 14L10 15L11 15L11 16L12 16L12 17L10 17L10 18L11 18L11 19L12 19L12 20L13 20L13 21L14 21L14 22L15 22L15 23L14 23L14 24L15 24L15 23L16 23L16 24L18 24L18 26L20 26L20 22L19 22L19 21L18 21L18 20L17 20L17 19L20 19L20 17L19 17L19 16L17 16L17 18L16 18L16 16L15 16L15 17L13 17L13 16L12 16L12 14L10 14L10 13L12 13L12 12L13 12L13 15L15 15L15 14L17 14L17 15L20 15L20 16L21 16L21 15L22 15L22 14L23 14L23 15L24 15L24 14L23 14L23 13L22 13L22 14L20 14L20 12L18 12L18 11L16 11L16 10L17 10L17 9L16 9L16 10L14 10L14 9L15 9L15 8L17 8L17 7L18 7L18 6L19 6L19 8L18 8L18 9L19 9L19 8L20 8L20 6L19 6L19 4L17 4L17 3L16 3L16 2L17 2L17 1ZM18 2L18 3L19 3L19 2ZM16 4L16 5L17 5L17 6L16 6L16 7L17 7L17 6L18 6L18 5L17 5L17 4ZM11 5L11 6L10 6L10 7L11 7L11 6L12 6L12 8L13 8L13 6L12 6L12 5ZM3 9L3 10L2 10L2 11L1 11L1 13L2 13L2 14L1 14L1 15L2 15L2 14L3 14L3 13L2 13L2 11L5 11L5 12L4 12L4 13L5 13L5 12L7 12L7 13L6 13L6 14L7 14L7 15L6 15L6 16L7 16L7 15L8 15L8 16L9 16L9 15L8 15L8 14L7 14L7 13L8 13L8 12L7 12L7 11L5 11L5 10L4 10L4 9ZM6 9L6 10L7 10L7 9ZM24 9L24 10L25 10L25 9ZM14 11L14 12L15 12L15 13L17 13L17 12L16 12L16 11ZM5 17L5 19L6 19L6 18L8 18L8 17ZM18 17L18 18L19 18L19 17ZM0 18L0 19L1 19L1 18ZM3 18L3 19L4 19L4 18ZM13 18L13 20L14 20L14 21L15 21L15 20L16 20L16 22L18 22L18 23L19 23L19 22L18 22L18 21L17 21L17 20L16 20L16 19L15 19L15 20L14 20L14 18ZM26 18L26 20L25 20L25 22L26 22L26 21L27 21L27 20L28 20L28 18ZM0 20L0 21L1 21L1 20ZM9 21L9 22L11 22L11 21ZM21 21L21 24L24 24L24 21ZM22 22L22 23L23 23L23 22ZM25 23L25 24L26 24L26 23ZM27 24L27 25L28 25L28 24ZM10 26L10 27L9 27L9 28L10 28L10 27L11 27L11 26ZM24 26L24 27L25 27L25 26ZM27 26L27 27L28 27L28 26ZM0 0L0 7L7 7L7 0ZM1 1L1 6L6 6L6 1ZM2 2L2 5L5 5L5 2ZM22 0L22 7L29 7L29 0ZM23 1L23 6L28 6L28 1ZM24 2L24 5L27 5L27 2ZM0 22L0 29L7 29L7 22ZM1 23L1 28L6 28L6 23ZM2 24L2 27L5 27L5 24Z" fill="#000000"/></g></g></svg>
