<?xml version="1.0" encoding="UTF-8"?>
<svg xmlns="http://www.w3.org/2000/svg" version="1.1" width="100" height="100" viewBox="0 0 100 100"><rect x="0" y="0" width="100" height="100" fill="#ffffff"/><g transform="scale(3.448)"><g transform="translate(0,0)"><path fill-rule="evenodd" d="M8 0L8 2L10 2L10 4L8 4L8 9L7 9L7 8L5 8L5 9L7 9L7 10L6 10L6 11L8 11L8 9L9 9L9 10L11 10L11 11L12 11L12 10L11 10L11 8L13 8L13 10L15 10L15 11L16 11L16 10L15 10L15 8L16 8L16 9L18 9L18 12L16 12L16 13L15 13L15 14L13 14L13 13L14 13L14 11L13 11L13 12L11 12L11 13L12 13L12 15L11 15L11 14L6 14L6 13L7 13L7 12L5 12L5 10L4 10L4 9L3 9L3 8L0 8L0 9L2 9L2 10L0 10L0 12L1 12L1 11L2 11L2 12L3 12L3 13L2 13L2 14L1 14L1 13L0 13L0 14L1 14L1 15L4 15L4 16L5 16L5 17L7 17L7 18L4 18L4 17L3 17L3 16L2 16L2 17L3 17L3 18L0 18L0 19L2 19L2 20L0 20L0 21L2 21L2 20L3 20L3 21L4 21L4 20L5 20L5 21L7 21L7 20L9 20L9 21L8 21L8 22L9 22L9 23L8 23L8 24L10 24L10 25L11 25L11 24L13 24L13 26L15 26L15 29L17 29L17 28L16 28L16 26L17 26L17 27L18 27L18 28L19 28L19 26L17 26L17 24L16 24L16 25L15 25L15 23L19 23L19 25L20 25L20 26L21 26L21 27L20 27L20 29L21 29L21 27L22 27L22 25L23 25L23 26L24 26L24 27L23 27L23 28L22 28L22 29L23 29L23 28L24 28L24 29L25 29L25 28L26 28L26 29L27 29L27 28L26 28L26 27L25 27L25 25L26 25L26 26L27 26L27 27L29 27L29 16L27 16L27 17L26 17L26 15L27 15L27 14L28 14L28 15L29 15L29 8L27 8L27 9L28 9L28 13L27 13L27 12L26 12L26 11L27 11L27 10L26 10L26 9L25 9L25 8L21 8L21 5L20 5L20 3L18 3L18 2L19 2L19 1L20 1L20 2L21 2L21 1L20 1L20 0L19 0L19 1L18 1L18 0L15 0L15 1L13 1L13 0L11 0L11 1L9 1L9 0ZM11 1L11 2L12 2L12 1ZM15 1L15 2L16 2L16 1ZM17 1L17 2L18 2L18 1ZM13 2L13 3L11 3L11 4L12 4L12 6L11 6L11 5L9 5L9 8L10 8L10 6L11 6L11 7L12 7L12 6L13 6L13 8L14 8L14 6L15 6L15 7L16 7L16 6L17 6L17 8L18 8L18 9L19 9L19 10L20 10L20 11L19 11L19 12L18 12L18 14L17 14L17 16L16 16L16 14L15 14L15 16L16 16L16 17L17 17L17 18L16 18L16 19L15 19L15 18L13 18L13 16L14 16L14 15L13 15L13 16L11 16L11 15L10 15L10 18L9 18L9 20L10 20L10 18L12 18L12 19L11 19L11 20L13 20L13 19L14 19L14 21L13 21L13 22L15 22L15 20L16 20L16 19L17 19L17 22L19 22L19 23L20 23L20 20L19 20L19 21L18 21L18 19L19 19L19 18L18 18L18 17L19 17L19 16L21 16L21 17L20 17L20 18L21 18L21 17L22 17L22 20L23 20L23 19L24 19L24 20L25 20L25 21L26 21L26 22L27 22L27 21L28 21L28 19L24 19L24 18L26 18L26 17L24 17L24 18L23 18L23 17L22 17L22 16L25 16L25 11L26 11L26 10L25 10L25 9L23 9L23 10L25 10L25 11L23 11L23 12L24 12L24 13L23 13L23 15L19 15L19 14L20 14L20 13L19 13L19 12L21 12L21 10L20 10L20 5L19 5L19 4L18 4L18 3L15 3L15 4L16 4L16 6L15 6L15 5L13 5L13 4L14 4L14 2ZM17 4L17 6L18 6L18 8L19 8L19 6L18 6L18 4ZM3 10L3 11L4 11L4 10ZM9 11L9 13L10 13L10 11ZM3 13L3 14L4 14L4 15L5 15L5 16L8 16L8 17L9 17L9 15L6 15L6 14L4 14L4 13ZM21 13L21 14L22 14L22 13ZM26 13L26 14L27 14L27 13ZM18 15L18 16L17 16L17 17L18 17L18 16L19 16L19 15ZM0 16L0 17L1 17L1 16ZM27 17L27 18L28 18L28 17ZM3 18L3 19L4 19L4 18ZM7 18L7 19L6 19L6 20L7 20L7 19L8 19L8 18ZM17 18L17 19L18 19L18 18ZM10 21L10 24L11 24L11 23L12 23L12 21ZM21 21L21 24L24 24L24 21ZM22 22L22 23L23 23L23 22ZM13 23L13 24L14 24L14 23ZM26 23L26 25L27 25L27 26L28 26L28 25L27 25L27 24L28 24L28 23ZM8 26L8 29L9 29L9 26ZM11 26L11 27L12 27L12 26ZM13 27L13 28L10 28L10 29L14 29L14 27ZM24 27L24 28L25 28L25 27ZM28 28L28 29L29 29L29 28ZM0 0L0 7L7 7L7 0ZM1 1L1 6L6 6L6 1ZM2 2L2 5L5 5L5 2ZM22 0L22 7L29 7L29 0ZM23 1L23 6L28 6L28 1ZM24 2L24 5L27 5L27 2ZM0 22L0 29L7 29L7 22ZM1 23L1 28L6 28L6 23ZM2 24L2 27L5 27L5 24Z" fill="#000000"/></g></g></svg>
