<?xml version="1.0" encoding="UTF-8"?>
<svg xmlns="http://www.w3.org/2000/svg" version="1.1" width="100" height="100" viewBox="0 0 100 100"><rect x="0" y="0" width="100" height="100" fill="#ffffff"/><g transform="scale(3.448)"><g transform="translate(0,0)"><path fill-rule="evenodd" d="M8 0L8 1L9 1L9 2L8 2L8 5L9 5L9 4L11 4L11 5L10 5L10 10L8 10L8 11L9 11L9 12L8 12L8 13L7 13L7 12L6 12L6 11L7 11L7 10L6 10L6 11L4 11L4 8L0 8L0 9L1 9L1 10L2 10L2 11L1 11L1 12L0 12L0 13L1 13L1 14L0 14L0 17L1 17L1 18L0 18L0 19L1 19L1 18L3 18L3 21L8 21L8 22L9 22L9 20L10 20L10 22L11 22L11 20L12 20L12 19L11 19L11 16L12 16L12 17L13 17L13 16L12 16L12 14L13 14L13 15L14 15L14 18L13 18L13 21L15 21L15 19L16 19L16 22L17 22L17 23L16 23L16 24L17 24L17 25L15 25L15 26L14 26L14 25L13 25L13 26L12 26L12 24L15 24L15 22L14 22L14 23L11 23L11 24L10 24L10 23L9 23L9 25L8 25L8 29L9 29L9 28L10 28L10 29L12 29L12 28L14 28L14 27L15 27L15 26L18 26L18 24L17 24L17 23L18 23L18 22L19 22L19 23L20 23L20 25L21 25L21 26L20 26L20 28L18 28L18 29L22 29L22 27L21 27L21 26L22 26L22 25L23 25L23 27L24 27L24 26L25 26L25 27L27 27L27 29L28 29L28 27L29 27L29 25L28 25L28 24L25 24L25 23L27 23L27 22L25 22L25 21L27 21L27 20L28 20L28 22L29 22L29 20L28 20L28 18L27 18L27 19L26 19L26 18L24 18L24 17L22 17L22 15L23 15L23 14L24 14L24 13L22 13L22 11L21 11L21 13L22 13L22 15L21 15L21 16L20 16L20 17L21 17L21 20L20 20L20 19L17 19L17 18L16 18L16 17L18 17L18 18L19 18L19 16L17 16L17 15L20 15L20 14L17 14L17 13L15 13L15 12L14 12L14 14L13 14L13 12L12 12L12 13L11 13L11 11L14 11L14 10L16 10L16 12L17 12L17 10L16 10L16 9L17 9L17 8L18 8L18 9L19 9L19 6L20 6L20 7L21 7L21 5L19 5L19 4L20 4L20 3L21 3L21 2L20 2L20 3L19 3L19 1L16 1L16 0L12 0L12 1L11 1L11 0L10 0L10 1L9 1L9 0ZM20 0L20 1L21 1L21 0ZM14 1L14 2L11 2L11 4L12 4L12 3L13 3L13 5L12 5L12 6L11 6L11 8L12 8L12 6L13 6L13 8L14 8L14 9L15 9L15 7L16 7L16 6L15 6L15 5L16 5L16 4L19 4L19 3L18 3L18 2L17 2L17 3L16 3L16 1ZM14 3L14 5L13 5L13 6L14 6L14 7L15 7L15 6L14 6L14 5L15 5L15 4L16 4L16 3ZM18 5L18 6L17 6L17 7L18 7L18 6L19 6L19 5ZM8 6L8 7L9 7L9 6ZM6 8L6 9L7 9L7 8ZM8 8L8 9L9 9L9 8ZM21 8L21 9L20 9L20 10L21 10L21 9L22 9L22 10L23 10L23 11L24 11L24 10L26 10L26 11L27 11L27 12L26 12L26 13L28 13L28 9L29 9L29 8L28 8L28 9L27 9L27 8L24 8L24 10L23 10L23 9L22 9L22 8ZM11 9L11 10L12 10L12 9ZM2 11L2 12L1 12L1 13L3 13L3 14L4 14L4 13L5 13L5 14L7 14L7 15L1 15L1 17L3 17L3 16L7 16L7 17L6 17L6 18L5 18L5 17L4 17L4 20L9 20L9 19L10 19L10 18L9 18L9 19L8 19L8 16L11 16L11 13L10 13L10 15L8 15L8 14L7 14L7 13L6 13L6 12L4 12L4 11ZM18 11L18 12L20 12L20 11ZM3 12L3 13L4 13L4 12ZM14 14L14 15L15 15L15 14ZM25 14L25 17L26 17L26 15L27 15L27 16L28 16L28 15L29 15L29 14ZM15 16L15 17L16 17L16 16ZM6 18L6 19L7 19L7 18ZM23 18L23 19L22 19L22 20L25 20L25 19L24 19L24 18ZM1 20L1 21L2 21L2 20ZM18 20L18 21L17 21L17 22L18 22L18 21L19 21L19 22L20 22L20 20ZM21 21L21 24L24 24L24 21ZM22 22L22 23L23 23L23 22ZM9 25L9 27L10 27L10 28L12 28L12 26L11 26L11 25ZM25 25L25 26L26 26L26 25ZM27 25L27 27L28 27L28 25ZM10 26L10 27L11 27L11 26ZM13 26L13 27L14 27L14 26ZM23 28L23 29L24 29L24 28ZM25 28L25 29L26 29L26 28ZM0 0L0 7L7 7L7 0ZM1 1L1 6L6 6L6 1ZM2 2L2 5L5 5L5 2ZM22 0L22 7L29 7L29 0ZM23 1L23 6L28 6L28 1ZM24 2L24 5L27 5L27 2ZM0 22L0 29L7 29L7 22ZM1 23L1 28L6 28L6 23ZM2 24L2 27L5 27L5 24Z" fill="#000000"/></g></g></svg>
