<?xml version="1.0" encoding="UTF-8"?>
<svg xmlns="http://www.w3.org/2000/svg" version="1.1" width="100" height="100" viewBox="0 0 100 100"><rect x="0" y="0" width="100" height="100" fill="#ffffff"/><g transform="scale(3.448)"><g transform="translate(0,0)"><path fill-rule="evenodd" d="M8 0L8 1L11 1L11 3L10 3L10 2L9 2L9 3L10 3L10 5L9 5L9 6L8 6L8 8L9 8L9 9L10 9L10 10L9 10L9 11L10 11L10 10L11 10L11 9L10 9L10 7L11 7L11 6L12 6L12 9L14 9L14 12L13 12L13 13L12 13L12 14L13 14L13 13L15 13L15 14L14 14L14 15L12 15L12 16L11 16L11 12L8 12L8 11L7 11L7 10L5 10L5 8L3 8L3 9L2 9L2 8L0 8L0 11L1 11L1 10L3 10L3 9L4 9L4 10L5 10L5 11L2 11L2 12L3 12L3 13L1 13L1 12L0 12L0 13L1 13L1 14L0 14L0 15L1 15L1 14L2 14L2 15L3 15L3 16L4 16L4 17L2 17L2 16L1 16L1 17L0 17L0 21L2 21L2 20L3 20L3 21L5 21L5 19L7 19L7 18L8 18L8 17L9 17L9 16L11 16L11 17L10 17L10 18L9 18L9 19L8 19L8 20L6 20L6 21L8 21L8 22L10 22L10 23L9 23L9 24L8 24L8 26L9 26L9 27L8 27L8 29L9 29L9 27L11 27L11 28L10 28L10 29L11 29L11 28L12 28L12 27L14 27L14 26L15 26L15 27L16 27L16 28L14 28L14 29L16 29L16 28L17 28L17 27L16 27L16 26L17 26L17 24L18 24L18 28L19 28L19 29L21 29L21 28L19 28L19 27L20 27L20 26L22 26L22 27L25 27L25 28L23 28L23 29L25 29L25 28L27 28L27 27L28 27L28 28L29 28L29 24L28 24L28 21L29 21L29 20L28 20L28 19L29 19L29 18L28 18L28 16L29 16L29 11L28 11L28 12L26 12L26 11L27 11L27 10L28 10L28 9L29 9L29 8L28 8L28 9L27 9L27 10L25 10L25 9L24 9L24 10L25 10L25 11L24 11L24 12L25 12L25 13L23 13L23 11L22 11L22 10L20 10L20 11L22 11L22 12L19 12L19 13L20 13L20 14L17 14L17 13L18 13L18 11L19 11L19 10L18 10L18 11L17 11L17 13L16 13L16 12L15 12L15 10L16 10L16 9L17 9L17 8L16 8L16 9L15 9L15 5L16 5L16 4L17 4L17 6L16 6L16 7L17 7L17 6L18 6L18 7L19 7L19 9L20 9L20 8L21 8L21 5L20 5L20 7L19 7L19 6L18 6L18 4L17 4L17 3L15 3L15 2L16 2L16 0L13 0L13 1L12 1L12 0ZM18 0L18 1L17 1L17 2L18 2L18 1L19 1L19 4L21 4L21 2L20 2L20 0ZM12 2L12 4L14 4L14 5L15 5L15 4L14 4L14 3L13 3L13 2ZM10 5L10 6L9 6L9 7L10 7L10 6L11 6L11 5ZM12 5L12 6L13 6L13 8L14 8L14 6L13 6L13 5ZM6 8L6 9L7 9L7 8ZM22 8L22 9L23 9L23 8ZM12 10L12 11L13 11L13 10ZM5 11L5 12L7 12L7 13L6 13L6 14L9 14L9 15L5 15L5 14L4 14L4 15L5 15L5 16L7 16L7 17L6 17L6 18L7 18L7 17L8 17L8 16L9 16L9 15L10 15L10 14L9 14L9 13L8 13L8 12L7 12L7 11ZM26 13L26 15L27 15L27 16L25 16L25 15L24 15L24 14L23 14L23 15L22 15L22 17L21 17L21 18L23 18L23 19L19 19L19 18L18 18L18 17L19 17L19 15L17 15L17 14L16 14L16 15L15 15L15 16L13 16L13 17L12 17L12 18L10 18L10 22L12 22L12 23L13 23L13 22L12 22L12 21L13 21L13 19L12 19L12 18L15 18L15 16L16 16L16 18L17 18L17 19L14 19L14 25L15 25L15 21L16 21L16 22L18 22L18 24L19 24L19 22L20 22L20 20L23 20L23 19L24 19L24 16L25 16L25 22L26 22L26 24L25 24L25 25L26 25L26 27L27 27L27 26L28 26L28 25L27 25L27 22L26 22L26 21L27 21L27 20L26 20L26 19L27 19L27 18L26 18L26 17L27 17L27 16L28 16L28 15L27 15L27 14L28 14L28 13ZM20 14L20 16L21 16L21 14ZM17 16L17 17L18 17L18 16ZM2 18L2 19L3 19L3 20L4 20L4 19L5 19L5 18ZM11 19L11 21L12 21L12 19ZM16 20L16 21L17 21L17 20ZM21 21L21 24L24 24L24 21ZM22 22L22 23L23 23L23 22ZM11 25L11 26L13 26L13 25ZM19 25L19 26L20 26L20 25ZM22 25L22 26L24 26L24 25ZM0 0L0 7L7 7L7 0ZM1 1L1 6L6 6L6 1ZM2 2L2 5L5 5L5 2ZM22 0L22 7L29 7L29 0ZM23 1L23 6L28 6L28 1ZM24 2L24 5L27 5L27 2ZM0 22L0 29L7 29L7 22ZM1 23L1 28L6 28L6 23ZM2 24L2 27L5 27L5 24Z" fill="#000000"/></g></g></svg>
