<?xml version="1.0" encoding="UTF-8"?>
<svg xmlns="http://www.w3.org/2000/svg" version="1.1" width="100" height="100" viewBox="0 0 100 100"><rect x="0" y="0" width="100" height="100" fill="#ffffff"/><g transform="scale(3.448)"><g transform="translate(0,0)"><path fill-rule="evenodd" d="M8 0L8 2L10 2L10 4L8 4L8 9L7 9L7 8L5 8L5 9L7 9L7 10L6 10L6 11L7 11L7 12L6 12L6 13L5 13L5 10L4 10L4 9L3 9L3 8L0 8L0 9L1 9L1 10L0 10L0 11L2 11L2 12L0 12L0 15L2 15L2 14L1 14L1 13L2 13L2 12L3 12L3 14L5 14L5 15L4 15L4 16L5 16L5 18L6 18L6 19L5 19L5 20L4 20L4 21L8 21L8 22L9 22L9 23L8 23L8 24L10 24L10 25L9 25L9 26L8 26L8 29L9 29L9 27L10 27L10 29L14 29L14 27L13 27L13 28L11 28L11 27L12 27L12 26L10 26L10 25L11 25L11 24L13 24L13 26L15 26L15 29L17 29L17 28L16 28L16 26L17 26L17 27L18 27L18 28L19 28L19 26L17 26L17 24L16 24L16 25L15 25L15 23L19 23L19 25L20 25L20 26L21 26L21 27L20 27L20 29L21 29L21 27L22 27L22 25L24 25L24 27L23 27L23 28L22 28L22 29L24 29L24 28L25 28L25 29L26 29L26 27L29 27L29 21L28 21L28 20L27 20L27 22L26 22L26 21L25 21L25 20L24 20L24 19L23 19L23 20L22 20L22 17L23 17L23 16L24 16L24 14L23 14L23 13L24 13L24 12L23 12L23 11L25 11L25 14L27 14L27 13L28 13L28 15L29 15L29 10L28 10L28 12L27 12L27 13L26 13L26 11L27 11L27 10L26 10L26 9L25 9L25 8L21 8L21 5L20 5L20 3L18 3L18 2L19 2L19 1L20 1L20 2L21 2L21 1L20 1L20 0L19 0L19 1L18 1L18 0L15 0L15 1L13 1L13 0L11 0L11 1L9 1L9 0ZM11 1L11 2L12 2L12 1ZM15 1L15 2L16 2L16 1ZM17 1L17 2L18 2L18 1ZM13 2L13 3L11 3L11 4L12 4L12 6L11 6L11 5L9 5L9 8L10 8L10 6L11 6L11 7L12 7L12 6L13 6L13 8L11 8L11 10L9 10L9 11L8 11L8 10L7 10L7 11L8 11L8 12L9 12L9 11L10 11L10 13L8 13L8 16L7 16L7 15L5 15L5 16L7 16L7 17L6 17L6 18L7 18L7 19L6 19L6 20L7 20L7 19L8 19L8 18L9 18L9 20L8 20L8 21L10 21L10 23L12 23L12 21L10 21L10 20L13 20L13 19L14 19L14 21L13 21L13 22L15 22L15 20L16 20L16 19L17 19L17 22L19 22L19 23L20 23L20 20L19 20L19 21L18 21L18 19L19 19L19 18L18 18L18 17L19 17L19 16L21 16L21 17L20 17L20 18L21 18L21 17L22 17L22 16L23 16L23 15L19 15L19 14L20 14L20 13L19 13L19 12L21 12L21 10L20 10L20 5L19 5L19 4L18 4L18 3L15 3L15 4L16 4L16 6L15 6L15 5L13 5L13 4L14 4L14 2ZM17 4L17 6L16 6L16 7L15 7L15 6L14 6L14 8L13 8L13 10L15 10L15 11L16 11L16 10L15 10L15 8L16 8L16 9L18 9L18 12L16 12L16 13L15 13L15 14L13 14L13 13L14 13L14 11L13 11L13 12L11 12L11 13L12 13L12 15L11 15L11 14L10 14L10 15L11 15L11 16L13 16L13 18L15 18L15 19L16 19L16 18L17 18L17 19L18 19L18 18L17 18L17 17L18 17L18 16L19 16L19 15L18 15L18 16L17 16L17 14L18 14L18 12L19 12L19 11L20 11L20 10L19 10L19 9L18 9L18 8L19 8L19 6L18 6L18 4ZM17 6L17 8L18 8L18 6ZM27 8L27 9L29 9L29 8ZM2 9L2 11L3 11L3 9ZM23 9L23 10L25 10L25 11L26 11L26 10L25 10L25 9ZM11 10L11 11L12 11L12 10ZM6 13L6 14L7 14L7 13ZM21 13L21 14L22 14L22 13ZM15 14L15 16L16 16L16 17L17 17L17 16L16 16L16 14ZM13 15L13 16L14 16L14 15ZM25 15L25 18L26 18L26 19L29 19L29 16L26 16L26 15ZM0 16L0 17L1 17L1 18L0 18L0 19L3 19L3 16ZM10 17L10 19L12 19L12 18L11 18L11 17ZM26 17L26 18L28 18L28 17ZM0 20L0 21L2 21L2 20ZM21 21L21 24L24 24L24 21ZM22 22L22 23L23 23L23 22ZM13 23L13 24L14 24L14 23ZM26 23L26 26L25 26L25 27L26 27L26 26L28 26L28 25L27 25L27 24L28 24L28 23ZM28 28L28 29L29 29L29 28ZM0 0L0 7L7 7L7 0ZM1 1L1 6L6 6L6 1ZM2 2L2 5L5 5L5 2ZM22 0L22 7L29 7L29 0ZM23 1L23 6L28 6L28 1ZM24 2L24 5L27 5L27 2ZM0 22L0 29L7 29L7 22ZM1 23L1 28L6 28L6 23ZM2 24L2 27L5 27L5 24Z" fill="#000000"/></g></g></svg>
