<?xml version="1.0" encoding="UTF-8"?>
<svg xmlns="http://www.w3.org/2000/svg" version="1.1" width="100" height="100" viewBox="0 0 100 100"><rect x="0" y="0" width="100" height="100" fill="#ffffff"/><g transform="scale(3.448)"><g transform="translate(0,0)"><path fill-rule="evenodd" d="M8 0L8 4L10 4L10 3L11 3L11 4L12 4L12 2L11 2L11 0ZM12 0L12 1L13 1L13 4L14 4L14 5L11 5L11 6L10 6L10 7L9 7L9 5L8 5L8 7L9 7L9 8L10 8L10 7L11 7L11 6L12 6L12 8L11 8L11 9L9 9L9 10L11 10L11 11L10 11L10 13L11 13L11 12L12 12L12 13L13 13L13 14L15 14L15 15L14 15L14 16L13 16L13 15L12 15L12 16L11 16L11 17L12 17L12 18L9 18L9 15L10 15L10 14L9 14L9 15L8 15L8 14L6 14L6 15L7 15L7 16L5 16L5 14L4 14L4 13L3 13L3 12L4 12L4 11L5 11L5 13L8 13L8 12L9 12L9 11L7 11L7 10L6 10L6 9L7 9L7 8L4 8L4 10L3 10L3 9L2 9L2 8L0 8L0 9L1 9L1 11L0 11L0 12L1 12L1 13L0 13L0 15L1 15L1 17L0 17L0 18L2 18L2 19L3 19L3 20L5 20L5 17L8 17L8 18L6 18L6 19L7 19L7 20L6 20L6 21L7 21L7 20L9 20L9 19L11 19L11 20L10 20L10 21L8 21L8 22L10 22L10 23L8 23L8 25L9 25L9 27L8 27L8 29L9 29L9 28L10 28L10 29L11 29L11 28L12 28L12 29L14 29L14 27L15 27L15 29L16 29L16 27L17 27L17 28L20 28L20 29L22 29L22 28L23 28L23 29L25 29L25 28L24 28L24 27L23 27L23 26L22 26L22 25L25 25L25 27L26 27L26 26L27 26L27 29L28 29L28 28L29 28L29 25L28 25L28 23L29 23L29 21L27 21L27 20L26 20L26 18L27 18L27 19L28 19L28 20L29 20L29 17L28 17L28 16L29 16L29 13L28 13L28 14L27 14L27 13L25 13L25 12L26 12L26 11L27 11L27 12L29 12L29 10L28 10L28 11L27 11L27 9L29 9L29 8L25 8L25 9L24 9L24 8L23 8L23 9L22 9L22 10L21 10L21 12L20 12L20 13L21 13L21 16L23 16L23 15L22 15L22 14L25 14L25 15L24 15L24 16L26 16L26 17L24 17L24 18L25 18L25 19L23 19L23 17L22 17L22 18L20 18L20 19L21 19L21 20L20 20L20 21L18 21L18 23L17 23L17 24L19 24L19 25L18 25L18 26L17 26L17 25L16 25L16 26L13 26L13 25L15 25L15 24L16 24L16 21L14 21L14 19L15 19L15 20L18 20L18 19L19 19L19 17L20 17L20 16L19 16L19 15L18 15L18 14L19 14L19 13L18 13L18 14L17 14L17 13L14 13L14 11L16 11L16 12L19 12L19 11L16 11L16 10L19 10L19 9L21 9L21 8L19 8L19 9L16 9L16 8L18 8L18 7L19 7L19 6L20 6L20 7L21 7L21 6L20 6L20 5L19 5L19 4L20 4L20 3L21 3L21 1L19 1L19 0L18 0L18 1L19 1L19 2L17 2L17 0L15 0L15 1L16 1L16 2L15 2L15 3L14 3L14 0ZM9 2L9 3L10 3L10 2ZM16 2L16 3L17 3L17 5L15 5L15 7L16 7L16 6L17 6L17 7L18 7L18 4L19 4L19 3L17 3L17 2ZM13 6L13 8L12 8L12 9L11 9L11 10L12 10L12 9L13 9L13 10L14 10L14 9L13 9L13 8L14 8L14 6ZM23 9L23 11L24 11L24 12L21 12L21 13L24 13L24 12L25 12L25 11L26 11L26 9L25 9L25 10L24 10L24 9ZM2 10L2 11L3 11L3 10ZM6 11L6 12L7 12L7 11ZM12 11L12 12L13 12L13 11ZM1 13L1 14L2 14L2 15L3 15L3 16L4 16L4 17L5 17L5 16L4 16L4 15L3 15L3 13ZM16 14L16 15L17 15L17 14ZM26 14L26 16L28 16L28 15L27 15L27 14ZM12 16L12 17L13 17L13 18L15 18L15 17L19 17L19 16L15 16L15 17L13 17L13 16ZM3 18L3 19L4 19L4 18ZM17 18L17 19L18 19L18 18ZM12 19L12 20L11 20L11 23L10 23L10 24L9 24L9 25L11 25L11 26L10 26L10 27L11 27L11 26L12 26L12 25L13 25L13 24L14 24L14 23L15 23L15 22L13 22L13 21L12 21L12 20L13 20L13 19ZM0 20L0 21L2 21L2 20ZM25 20L25 22L26 22L26 24L27 24L27 22L26 22L26 20ZM21 21L21 24L24 24L24 21ZM22 22L22 23L23 23L23 22ZM12 23L12 24L11 24L11 25L12 25L12 24L13 24L13 23ZM27 25L27 26L28 26L28 25ZM18 26L18 27L21 27L21 28L22 28L22 27L21 27L21 26ZM12 27L12 28L13 28L13 27ZM0 0L0 7L7 7L7 0ZM1 1L1 6L6 6L6 1ZM2 2L2 5L5 5L5 2ZM22 0L22 7L29 7L29 0ZM23 1L23 6L28 6L28 1ZM24 2L24 5L27 5L27 2ZM0 22L0 29L7 29L7 22ZM1 23L1 28L6 28L6 23ZM2 24L2 27L5 27L5 24Z" fill="#000000"/></g></g></svg>
