<?xml version="1.0" encoding="UTF-8"?>
<svg xmlns="http://www.w3.org/2000/svg" version="1.1" width="100" height="100" viewBox="0 0 100 100"><rect x="0" y="0" width="100" height="100" fill="#ffffff"/><g transform="scale(3.448)"><g transform="translate(0,0)"><path fill-rule="evenodd" d="M10 0L10 2L11 2L11 0ZM12 0L12 1L13 1L13 0ZM14 0L14 2L12 2L12 4L13 4L13 5L11 5L11 6L10 6L10 4L11 4L11 3L8 3L8 4L9 4L9 5L8 5L8 7L9 7L9 8L6 8L6 9L7 9L7 10L5 10L5 8L0 8L0 9L1 9L1 10L0 10L0 12L1 12L1 13L0 13L0 15L1 15L1 14L2 14L2 12L3 12L3 15L4 15L4 16L0 16L0 21L1 21L1 18L2 18L2 19L3 19L3 18L2 18L2 17L4 17L4 18L5 18L5 19L7 19L7 20L2 20L2 21L8 21L8 23L9 23L9 24L8 24L8 29L11 29L11 28L10 28L10 27L9 27L9 26L10 26L10 25L12 25L12 26L13 26L13 27L12 27L12 29L13 29L13 28L14 28L14 29L15 29L15 28L17 28L17 27L16 27L16 26L17 26L17 25L16 25L16 24L17 24L17 23L18 23L18 22L19 22L19 24L20 24L20 25L24 25L24 26L23 26L23 27L25 27L25 28L24 28L24 29L27 29L27 28L28 28L28 26L29 26L29 25L27 25L27 24L29 24L29 23L28 23L28 22L29 22L29 21L28 21L28 20L26 20L26 17L27 17L27 16L28 16L28 14L29 14L29 13L28 13L28 11L27 11L27 9L28 9L28 8L27 8L27 9L26 9L26 8L25 8L25 9L24 9L24 8L23 8L23 9L22 9L22 8L21 8L21 9L16 9L16 10L14 10L14 9L12 9L12 7L13 7L13 5L14 5L14 4L16 4L16 5L15 5L15 6L14 6L14 8L16 8L16 7L17 7L17 6L16 6L16 5L17 5L17 4L18 4L18 8L19 8L19 5L20 5L20 7L21 7L21 4L20 4L20 3L21 3L21 2L19 2L19 3L17 3L17 0L16 0L16 1L15 1L15 0ZM18 0L18 1L21 1L21 0ZM8 1L8 2L9 2L9 1ZM14 2L14 3L15 3L15 2ZM16 3L16 4L17 4L17 3ZM9 6L9 7L10 7L10 6ZM11 6L11 7L12 7L12 6ZM15 6L15 7L16 7L16 6ZM10 8L10 9L9 9L9 11L6 11L6 12L8 12L8 13L4 13L4 14L7 14L7 15L6 15L6 16L5 16L5 18L7 18L7 17L6 17L6 16L7 16L7 15L8 15L8 16L10 16L10 17L9 17L9 19L8 19L8 21L9 21L9 23L10 23L10 24L9 24L9 25L10 25L10 24L11 24L11 23L10 23L10 21L11 21L11 22L13 22L13 23L12 23L12 25L15 25L15 24L14 24L14 23L15 23L15 22L18 22L18 21L19 21L19 22L20 22L20 21L19 21L19 20L21 20L21 19L20 19L20 18L18 18L18 19L17 19L17 18L16 18L16 17L20 17L20 16L21 16L21 14L22 14L22 13L25 13L25 11L26 11L26 12L27 12L27 11L26 11L26 9L25 9L25 11L24 11L24 12L23 12L23 10L24 10L24 9L23 9L23 10L22 10L22 13L21 13L21 10L19 10L19 11L14 11L14 12L13 12L13 13L12 13L12 11L13 11L13 10L12 10L12 9L11 9L11 8ZM2 9L2 11L3 11L3 12L5 12L5 11L4 11L4 9ZM10 9L10 11L11 11L11 9ZM9 12L9 13L11 13L11 12ZM14 12L14 13L16 13L16 14L15 14L15 15L14 15L14 16L15 16L15 17L12 17L12 15L13 15L13 14L11 14L11 15L10 15L10 14L8 14L8 15L10 15L10 16L11 16L11 17L12 17L12 18L13 18L13 19L12 19L12 21L13 21L13 20L14 20L14 21L16 21L16 18L15 18L15 17L16 17L16 15L17 15L17 13L16 13L16 12ZM19 12L19 13L18 13L18 15L19 15L19 14L21 14L21 13L20 13L20 12ZM26 13L26 14L23 14L23 15L22 15L22 17L23 17L23 15L26 15L26 16L27 16L27 13ZM24 16L24 17L25 17L25 16ZM28 17L28 18L27 18L27 19L28 19L28 18L29 18L29 17ZM22 18L22 20L23 20L23 18ZM14 19L14 20L15 20L15 19ZM18 19L18 20L19 20L19 19ZM9 20L9 21L10 21L10 20ZM21 21L21 24L24 24L24 21ZM25 21L25 22L26 22L26 24L25 24L25 25L26 25L26 26L25 26L25 27L26 27L26 28L27 28L27 27L26 27L26 26L27 26L27 25L26 25L26 24L27 24L27 22L28 22L28 21ZM22 22L22 23L23 23L23 22ZM18 25L18 27L19 27L19 29L20 29L20 28L21 28L21 27L22 27L22 26L21 26L21 27L19 27L19 25ZM14 27L14 28L15 28L15 27ZM0 0L0 7L7 7L7 0ZM1 1L1 6L6 6L6 1ZM2 2L2 5L5 5L5 2ZM22 0L22 7L29 7L29 0ZM23 1L23 6L28 6L28 1ZM24 2L24 5L27 5L27 2ZM0 22L0 29L7 29L7 22ZM1 23L1 28L6 28L6 23ZM2 24L2 27L5 27L5 24Z" fill="#000000"/></g></g></svg>
