<?xml version="1.0" encoding="UTF-8"?>
<svg xmlns="http://www.w3.org/2000/svg" version="1.1" width="100" height="100" viewBox="0 0 100 100"><rect x="0" y="0" width="100" height="100" fill="#ffffff"/><g transform="scale(3.448)"><g transform="translate(0,0)"><path fill-rule="evenodd" d="M9 0L9 1L8 1L8 3L9 3L9 4L8 4L8 8L6 8L6 9L5 9L5 10L4 10L4 11L2 11L2 12L1 12L1 13L0 13L0 14L1 14L1 13L2 13L2 15L1 15L1 17L2 17L2 18L3 18L3 19L4 19L4 20L2 20L2 21L5 21L5 19L7 19L7 20L6 20L6 21L7 21L7 20L8 20L8 23L10 23L10 22L11 22L11 24L9 24L9 25L8 25L8 26L10 26L10 27L11 27L11 28L12 28L12 29L14 29L14 28L12 28L12 24L14 24L14 25L13 25L13 27L15 27L15 25L17 25L17 29L18 29L18 28L20 28L20 29L22 29L22 27L21 27L21 25L22 25L22 26L24 26L24 27L23 27L23 29L24 29L24 28L25 28L25 29L26 29L26 28L25 28L25 27L26 27L26 26L28 26L28 27L27 27L27 29L28 29L28 27L29 27L29 26L28 26L28 25L29 25L29 23L27 23L27 20L26 20L26 19L24 19L24 16L23 16L23 19L22 19L22 20L21 20L21 17L22 17L22 15L23 15L23 14L24 14L24 13L23 13L23 11L20 11L20 10L21 10L21 9L20 9L20 8L21 8L21 6L20 6L20 4L19 4L19 3L21 3L21 1L20 1L20 2L19 2L19 1L17 1L17 0L16 0L16 1L14 1L14 0L12 0L12 1L11 1L11 2L9 2L9 1L10 1L10 0ZM16 1L16 2L14 2L14 3L16 3L16 4L15 4L15 8L14 8L14 6L13 6L13 3L12 3L12 4L9 4L9 5L10 5L10 6L9 6L9 7L10 7L10 8L8 8L8 9L6 9L6 10L5 10L5 11L6 11L6 12L2 12L2 13L3 13L3 14L5 14L5 15L4 15L4 16L3 16L3 15L2 15L2 17L5 17L5 18L4 18L4 19L5 19L5 18L7 18L7 19L8 19L8 20L11 20L11 19L12 19L12 20L13 20L13 21L14 21L14 22L15 22L15 23L14 23L14 24L15 24L15 23L16 23L16 24L18 24L18 26L20 26L20 22L19 22L19 21L18 21L18 20L17 20L17 19L20 19L20 17L19 17L19 16L17 16L17 18L16 18L16 16L15 16L15 17L13 17L13 16L12 16L12 14L10 14L10 13L12 13L12 12L13 12L13 15L15 15L15 14L17 14L17 15L20 15L20 16L21 16L21 15L22 15L22 14L23 14L23 13L22 13L22 12L21 12L21 13L22 13L22 14L20 14L20 12L18 12L18 11L16 11L16 10L17 10L17 9L16 9L16 10L14 10L14 9L15 9L15 8L17 8L17 7L18 7L18 6L19 6L19 8L18 8L18 9L19 9L19 8L20 8L20 6L19 6L19 4L17 4L17 3L16 3L16 2L17 2L17 1ZM18 2L18 3L19 3L19 2ZM16 4L16 5L17 5L17 6L16 6L16 7L17 7L17 6L18 6L18 5L17 5L17 4ZM11 5L11 6L10 6L10 7L11 7L11 6L12 6L12 8L13 8L13 6L12 6L12 5ZM0 8L0 10L2 10L2 8ZM3 8L3 9L4 9L4 8ZM10 8L10 10L9 10L9 11L7 11L7 10L6 10L6 11L7 11L7 12L6 12L6 13L5 13L5 14L6 14L6 15L5 15L5 16L6 16L6 17L7 17L7 18L8 18L8 19L11 19L11 18L10 18L10 17L12 17L12 16L11 16L11 15L10 15L10 14L9 14L9 11L11 11L11 10L12 10L12 9L11 9L11 8ZM22 8L22 10L24 10L24 11L26 11L26 12L25 12L25 13L27 13L27 16L25 16L25 18L26 18L26 17L27 17L27 18L28 18L28 22L29 22L29 17L27 17L27 16L28 16L28 15L29 15L29 14L28 14L28 12L29 12L29 11L28 11L28 10L29 10L29 9L28 9L28 8L26 8L26 9L25 9L25 8ZM24 9L24 10L25 10L25 9ZM26 9L26 10L28 10L28 9ZM14 11L14 12L15 12L15 13L17 13L17 12L16 12L16 11ZM27 11L27 12L28 12L28 11ZM7 12L7 13L6 13L6 14L7 14L7 15L6 15L6 16L7 16L7 17L8 17L8 18L9 18L9 16L10 16L10 15L9 15L9 14L7 14L7 13L8 13L8 12ZM25 14L25 15L26 15L26 14ZM7 15L7 16L9 16L9 15ZM18 17L18 18L19 18L19 17ZM0 18L0 19L1 19L1 18ZM13 18L13 20L14 20L14 21L15 21L15 20L16 20L16 22L18 22L18 23L19 23L19 22L18 22L18 21L17 21L17 20L16 20L16 19L15 19L15 20L14 20L14 18ZM23 19L23 20L24 20L24 19ZM0 20L0 21L1 21L1 20ZM9 21L9 22L10 22L10 21ZM21 21L21 24L24 24L24 21ZM22 22L22 23L23 23L23 22ZM25 22L25 24L26 24L26 22ZM27 24L27 25L28 25L28 24ZM10 25L10 26L11 26L11 25ZM25 25L25 26L26 26L26 25ZM8 27L8 29L9 29L9 27ZM0 0L0 7L7 7L7 0ZM1 1L1 6L6 6L6 1ZM2 2L2 5L5 5L5 2ZM22 0L22 7L29 7L29 0ZM23 1L23 6L28 6L28 1ZM24 2L24 5L27 5L27 2ZM0 22L0 29L7 29L7 22ZM1 23L1 28L6 28L6 23ZM2 24L2 27L5 27L5 24Z" fill="#000000"/></g></g></svg>
