<?xml version="1.0" encoding="UTF-8"?>
<svg xmlns="http://www.w3.org/2000/svg" version="1.1" width="100" height="100" viewBox="0 0 100 100"><rect x="0" y="0" width="100" height="100" fill="#ffffff"/><g transform="scale(2.703)"><g transform="translate(0,0)"><path fill-rule="evenodd" d="M10 0L10 2L11 2L11 0ZM12 0L12 1L13 1L13 2L12 2L12 4L13 4L13 2L14 2L14 5L11 5L11 6L10 6L10 4L11 4L11 3L8 3L8 4L9 4L9 5L8 5L8 7L9 7L9 8L6 8L6 9L8 9L8 10L6 10L6 11L8 11L8 14L6 14L6 15L5 15L5 13L7 13L7 12L5 12L5 11L4 11L4 12L3 12L3 14L1 14L1 16L2 16L2 17L1 17L1 19L3 19L3 17L4 17L4 20L5 20L5 21L8 21L8 22L5 22L5 23L3 23L3 22L4 22L4 21L3 21L3 20L2 20L2 21L0 21L0 29L1 29L1 26L2 26L2 24L4 24L4 25L5 25L5 26L4 26L4 28L3 28L3 27L2 27L2 28L3 28L3 29L5 29L5 26L6 26L6 27L7 27L7 28L6 28L6 29L7 29L7 28L8 28L8 31L10 31L10 32L11 32L11 33L12 33L12 34L13 34L13 35L12 35L12 37L13 37L13 36L14 36L14 37L15 37L15 36L16 36L16 37L17 37L17 36L16 36L16 35L18 35L18 36L19 36L19 34L20 34L20 33L21 33L21 36L20 36L20 37L21 37L21 36L23 36L23 37L27 37L27 36L30 36L30 37L31 37L31 35L30 35L30 34L33 34L33 35L32 35L32 37L33 37L33 36L34 36L34 37L37 37L37 33L36 33L36 32L37 32L37 30L36 30L36 29L35 29L35 28L36 28L36 27L37 27L37 26L36 26L36 27L35 27L35 28L34 28L34 29L35 29L35 31L36 31L36 32L34 32L34 30L33 30L33 28L32 28L32 26L30 26L30 27L29 27L29 25L31 25L31 24L32 24L32 25L35 25L35 24L33 24L33 23L31 23L31 22L30 22L30 23L28 23L28 22L29 22L29 21L31 21L31 20L30 20L30 19L31 19L31 18L32 18L32 19L33 19L33 18L34 18L34 19L35 19L35 20L32 20L32 21L33 21L33 22L34 22L34 23L37 23L37 22L35 22L35 20L37 20L37 18L34 18L34 17L37 17L37 13L36 13L36 11L37 11L37 10L36 10L36 8L35 8L35 12L31 12L31 10L32 10L32 11L34 11L34 10L32 10L32 8L31 8L31 10L30 10L30 11L28 11L28 10L27 10L27 13L28 13L28 14L26 14L26 12L24 12L24 13L23 13L23 11L22 11L22 9L23 9L23 10L24 10L24 9L23 9L23 8L25 8L25 11L26 11L26 9L28 9L28 8L25 8L25 5L27 5L27 6L26 6L26 7L27 7L27 6L28 6L28 7L29 7L29 6L28 6L28 5L27 5L27 3L26 3L26 4L25 4L25 2L26 2L26 1L25 1L25 0L22 0L22 1L24 1L24 2L23 2L23 3L24 3L24 4L23 4L23 5L24 5L24 7L23 7L23 6L22 6L22 7L21 7L21 6L20 6L20 7L19 7L19 6L18 6L18 4L17 4L17 1L20 1L20 2L19 2L19 5L22 5L22 4L20 4L20 3L22 3L22 2L21 2L21 0L14 0L14 1L13 1L13 0ZM8 1L8 2L9 2L9 1ZM14 1L14 2L15 2L15 1ZM27 1L27 2L28 2L28 1ZM28 3L28 4L29 4L29 3ZM14 5L14 6L13 6L13 7L12 7L12 6L11 6L11 7L12 7L12 9L11 9L11 8L10 8L10 9L9 9L9 10L8 10L8 11L9 11L9 12L10 12L10 13L9 13L9 14L8 14L8 15L6 15L6 16L8 16L8 17L5 17L5 16L4 16L4 15L3 15L3 16L4 16L4 17L5 17L5 19L6 19L6 20L8 20L8 21L9 21L9 23L8 23L8 24L10 24L10 23L11 23L11 22L13 22L13 23L12 23L12 25L11 25L11 26L10 26L10 25L9 25L9 26L10 26L10 27L9 27L9 29L10 29L10 31L11 31L11 30L13 30L13 31L12 31L12 33L15 33L15 34L16 34L16 33L17 33L17 34L18 34L18 33L17 33L17 32L18 32L18 31L16 31L16 33L15 33L15 32L14 32L14 31L15 31L15 30L16 30L16 29L17 29L17 28L18 28L18 27L17 27L17 26L18 26L18 25L17 25L17 24L18 24L18 23L17 23L17 22L19 22L19 24L21 24L21 25L20 25L20 26L19 26L19 29L18 29L18 30L19 30L19 33L20 33L20 32L21 32L21 33L22 33L22 32L23 32L23 33L24 33L24 32L23 32L23 31L24 31L24 30L23 30L23 31L22 31L22 32L21 32L21 30L22 30L22 29L21 29L21 28L20 28L20 26L21 26L21 25L22 25L22 24L21 24L21 23L20 23L20 22L21 22L21 21L22 21L22 22L23 22L23 23L24 23L24 22L25 22L25 25L26 25L26 26L25 26L25 27L24 27L24 26L23 26L23 27L22 27L22 28L25 28L25 32L26 32L26 34L25 34L25 35L24 35L24 34L23 34L23 36L26 36L26 34L29 34L29 33L27 33L27 32L28 32L28 30L26 30L26 28L27 28L27 29L28 29L28 27L26 27L26 26L28 26L28 25L29 25L29 24L28 24L28 23L26 23L26 21L28 21L28 19L27 19L27 18L28 18L28 17L29 17L29 16L31 16L31 15L32 15L32 16L36 16L36 15L35 15L35 14L33 14L33 13L32 13L32 14L31 14L31 13L29 13L29 12L28 12L28 13L29 13L29 14L30 14L30 15L28 15L28 16L26 16L26 14L25 14L25 13L24 13L24 14L23 14L23 13L22 13L22 12L21 12L21 10L19 10L19 7L18 7L18 6L17 6L17 8L16 8L16 6L15 6L15 5ZM9 6L9 7L10 7L10 6ZM14 6L14 9L12 9L12 10L13 10L13 11L12 11L12 13L13 13L13 11L14 11L14 16L13 16L13 17L12 17L12 15L13 15L13 14L11 14L11 13L10 13L10 14L11 14L11 17L10 17L10 15L9 15L9 17L8 17L8 18L6 18L6 19L8 19L8 18L9 18L9 17L10 17L10 18L11 18L11 17L12 17L12 18L13 18L13 19L12 19L12 21L13 21L13 22L14 22L14 24L15 24L15 23L16 23L16 24L17 24L17 23L16 23L16 22L15 22L15 21L16 21L16 18L17 18L17 17L18 17L18 18L20 18L20 16L22 16L22 17L23 17L23 18L24 18L24 17L23 17L23 16L25 16L25 18L27 18L27 17L26 17L26 16L25 16L25 15L20 15L20 16L19 16L19 17L18 17L18 16L17 16L17 17L16 17L16 15L19 15L19 14L20 14L20 13L19 13L19 14L17 14L17 13L18 13L18 12L17 12L17 9L18 9L18 8L17 8L17 9L15 9L15 6ZM22 7L22 8L20 8L20 9L22 9L22 8L23 8L23 7ZM0 8L0 9L5 9L5 8ZM29 8L29 9L30 9L30 8ZM33 8L33 9L34 9L34 8ZM10 9L10 10L9 10L9 11L10 11L10 12L11 12L11 11L10 11L10 10L11 10L11 9ZM14 9L14 10L15 10L15 9ZM0 11L0 13L2 13L2 11ZM19 11L19 12L20 12L20 11ZM15 12L15 13L17 13L17 12ZM21 13L21 14L22 14L22 13ZM14 16L14 17L13 17L13 18L14 18L14 19L13 19L13 20L15 20L15 16ZM30 17L30 18L29 18L29 19L30 19L30 18L31 18L31 17ZM32 17L32 18L33 18L33 17ZM21 18L21 20L22 20L22 21L23 21L23 22L24 22L24 21L23 21L23 20L22 20L22 18ZM10 19L10 20L9 20L9 21L10 21L10 22L11 22L11 21L10 21L10 20L11 20L11 19ZM19 19L19 20L20 20L20 19ZM26 19L26 20L25 20L25 21L26 21L26 20L27 20L27 19ZM17 20L17 21L18 21L18 20ZM19 21L19 22L20 22L20 21ZM5 23L5 25L6 25L6 26L8 26L8 25L6 25L6 24L7 24L7 23ZM23 24L23 25L24 25L24 24ZM26 24L26 25L27 25L27 24ZM36 24L36 25L37 25L37 24ZM12 25L12 26L13 26L13 27L12 27L12 29L13 29L13 28L14 28L14 29L15 29L15 28L14 28L14 27L16 27L16 28L17 28L17 27L16 27L16 26L17 26L17 25L16 25L16 26L14 26L14 25ZM10 27L10 29L11 29L11 27ZM30 27L30 28L31 28L31 27ZM19 29L19 30L21 30L21 29ZM29 29L29 32L32 32L32 29ZM30 30L30 31L31 31L31 30ZM8 32L8 37L9 37L9 34L10 34L10 35L11 35L11 34L10 34L10 33L9 33L9 32ZM34 33L34 34L35 34L35 33ZM14 35L14 36L15 36L15 35ZM34 35L34 36L36 36L36 35ZM10 36L10 37L11 37L11 36ZM0 0L0 7L7 7L7 0ZM1 1L1 6L6 6L6 1ZM2 2L2 5L5 5L5 2ZM30 0L30 7L37 7L37 0ZM31 1L31 6L36 6L36 1ZM32 2L32 5L35 5L35 2ZM0 30L0 37L7 37L7 30ZM1 31L1 36L6 36L6 31ZM2 32L2 35L5 35L5 32Z" fill="#000000"/></g></g></svg>
