<?xml version="1.0" encoding="UTF-8"?>
<svg xmlns="http://www.w3.org/2000/svg" version="1.1" width="100" height="100" viewBox="0 0 100 100"><rect x="0" y="0" width="100" height="100" fill="#ffffff"/><g transform="scale(2.703)"><g transform="translate(0,0)"><path fill-rule="evenodd" d="M8 0L8 2L10 2L10 4L8 4L8 9L7 9L7 8L5 8L5 9L4 9L4 10L2 10L2 9L3 9L3 8L0 8L0 15L1 15L1 16L0 16L0 18L1 18L1 19L0 19L0 21L2 21L2 23L3 23L3 24L2 24L2 25L1 25L1 26L0 26L0 27L2 27L2 28L0 28L0 29L3 29L3 28L4 28L4 27L5 27L5 28L6 28L6 29L7 29L7 28L6 28L6 27L9 27L9 28L8 28L8 30L10 30L10 29L12 29L12 31L10 31L10 32L9 32L9 31L8 31L8 32L9 32L9 33L10 33L10 34L8 34L8 37L10 37L10 36L9 36L9 35L10 35L10 34L11 34L11 35L12 35L12 34L11 34L11 32L13 32L13 34L15 34L15 35L16 35L16 34L17 34L17 32L15 32L15 31L16 31L16 30L18 30L18 31L22 31L22 30L23 30L23 33L22 33L22 34L20 34L20 32L18 32L18 33L19 33L19 34L18 34L18 35L22 35L22 37L23 37L23 35L24 35L24 37L25 37L25 35L26 35L26 36L27 36L27 35L28 35L28 37L32 37L32 36L33 36L33 35L34 35L34 34L33 34L33 33L34 33L34 32L33 32L33 31L35 31L35 30L36 30L36 31L37 31L37 29L36 29L36 28L37 28L37 21L36 21L36 19L37 19L37 16L36 16L36 19L35 19L35 21L34 21L34 19L33 19L33 21L34 21L34 22L35 22L35 21L36 21L36 24L35 24L35 25L36 25L36 26L34 26L34 23L33 23L33 22L31 22L31 21L32 21L32 20L31 20L31 19L32 19L32 17L31 17L31 16L32 16L32 15L33 15L33 17L34 17L34 15L35 15L35 14L36 14L36 15L37 15L37 14L36 14L36 13L34 13L34 11L35 11L35 12L37 12L37 8L35 8L35 10L34 10L34 9L33 9L33 8L28 8L28 7L29 7L29 6L28 6L28 7L27 7L27 6L26 6L26 7L27 7L27 10L26 10L26 9L24 9L24 7L25 7L25 6L24 6L24 7L23 7L23 6L22 6L22 5L23 5L23 4L22 4L22 3L23 3L23 2L22 2L22 1L20 1L20 2L21 2L21 6L20 6L20 7L19 7L19 5L16 5L16 4L17 4L17 3L18 3L18 4L20 4L20 3L18 3L18 2L19 2L19 0L18 0L18 2L17 2L17 1L16 1L16 0L15 0L15 1L16 1L16 2L15 2L15 3L14 3L14 0L11 0L11 1L9 1L9 0ZM24 0L24 1L25 1L25 2L24 2L24 3L26 3L26 4L28 4L28 5L29 5L29 2L28 2L28 3L27 3L27 2L26 2L26 1L27 1L27 0ZM28 0L28 1L29 1L29 0ZM11 1L11 2L12 2L12 1ZM16 2L16 3L15 3L15 4L14 4L14 3L11 3L11 4L12 4L12 6L11 6L11 5L9 5L9 8L10 8L10 6L11 6L11 7L12 7L12 6L13 6L13 8L11 8L11 10L10 10L10 9L8 9L8 10L7 10L7 9L6 9L6 10L7 10L7 11L6 11L6 12L5 12L5 11L4 11L4 12L1 12L1 14L2 14L2 13L3 13L3 14L4 14L4 15L5 15L5 16L1 16L1 17L4 17L4 18L2 18L2 19L1 19L1 20L2 20L2 21L4 21L4 22L7 22L7 23L5 23L5 24L3 24L3 25L2 25L2 26L3 26L3 27L4 27L4 26L5 26L5 27L6 27L6 26L8 26L8 24L7 24L7 23L8 23L8 22L9 22L9 21L10 21L10 23L9 23L9 24L10 24L10 25L11 25L11 26L12 26L12 27L10 27L10 28L9 28L9 29L10 29L10 28L13 28L13 27L14 27L14 29L13 29L13 30L15 30L15 29L16 29L16 28L15 28L15 25L16 25L16 24L15 24L15 25L14 25L14 26L13 26L13 24L14 24L14 23L15 23L15 22L14 22L14 23L13 23L13 24L10 24L10 23L12 23L12 21L10 21L10 20L13 20L13 21L15 21L15 20L17 20L17 21L16 21L16 22L17 22L17 29L18 29L18 28L20 28L20 27L21 27L21 28L22 28L22 29L24 29L24 30L26 30L26 29L27 29L27 31L24 31L24 32L25 32L25 33L24 33L24 34L25 34L25 33L26 33L26 35L27 35L27 33L26 33L26 32L27 32L27 31L28 31L28 28L27 28L27 25L28 25L28 24L27 24L27 22L28 22L28 21L29 21L29 22L30 22L30 20L27 20L27 22L26 22L26 19L25 19L25 18L24 18L24 19L20 19L20 20L21 20L21 21L20 21L20 23L18 23L18 21L19 21L19 20L18 20L18 19L19 19L19 17L20 17L20 18L21 18L21 17L22 17L22 18L23 18L23 16L22 16L22 14L23 14L23 12L24 12L24 11L25 11L25 13L26 13L26 15L25 15L25 14L24 14L24 17L26 17L26 15L27 15L27 17L28 17L28 16L29 16L29 17L30 17L30 15L31 15L31 14L30 14L30 12L31 12L31 13L32 13L32 14L33 14L33 15L34 15L34 13L33 13L33 9L32 9L32 11L30 11L30 12L29 12L29 14L28 14L28 15L27 15L27 13L26 13L26 12L28 12L28 11L26 11L26 10L24 10L24 11L23 11L23 12L22 12L22 11L20 11L20 12L21 12L21 13L20 13L20 14L21 14L21 17L20 17L20 15L19 15L19 16L18 16L18 13L19 13L19 12L18 12L18 11L19 11L19 10L18 10L18 9L20 9L20 8L18 8L18 6L17 6L17 10L16 10L16 8L14 8L14 6L15 6L15 7L16 7L16 5L15 5L15 4L16 4L16 3L17 3L17 2ZM13 4L13 6L14 6L14 4ZM24 4L24 5L25 5L25 4ZM21 6L21 10L23 10L23 7L22 7L22 6ZM13 8L13 10L14 10L14 8ZM28 9L28 10L30 10L30 9ZM1 10L1 11L2 11L2 10ZM9 10L9 11L8 11L8 12L6 12L6 13L8 13L8 14L5 14L5 13L4 13L4 14L5 14L5 15L8 15L8 14L9 14L9 16L8 16L8 17L9 17L9 18L8 18L8 19L9 19L9 20L8 20L8 21L7 21L7 20L5 20L5 21L7 21L7 22L8 22L8 21L9 21L9 20L10 20L10 19L9 19L9 18L11 18L11 19L12 19L12 18L11 18L11 16L13 16L13 15L14 15L14 17L16 17L16 18L14 18L14 19L18 19L18 18L17 18L17 16L15 16L15 15L16 15L16 14L17 14L17 11L18 11L18 10L17 10L17 11L16 11L16 10L15 10L15 11L14 11L14 12L11 12L11 13L10 13L10 10ZM11 10L11 11L12 11L12 10ZM35 10L35 11L36 11L36 10ZM15 11L15 12L14 12L14 13L13 13L13 14L14 14L14 15L15 15L15 14L16 14L16 11ZM8 12L8 13L9 13L9 12ZM11 13L11 14L10 14L10 15L12 15L12 13ZM14 13L14 14L15 14L15 13ZM5 16L5 17L7 17L7 16ZM9 16L9 17L10 17L10 16ZM5 18L5 19L7 19L7 18ZM28 18L28 19L29 19L29 18ZM2 19L2 20L4 20L4 19ZM24 19L24 20L23 20L23 23L22 23L22 22L21 22L21 23L22 23L22 24L23 24L23 25L22 25L22 26L21 26L21 27L22 27L22 26L23 26L23 27L24 27L24 29L26 29L26 28L25 28L25 27L26 27L26 24L24 24L24 23L26 23L26 22L25 22L25 21L24 21L24 20L25 20L25 19ZM0 22L0 24L1 24L1 22ZM30 23L30 24L29 24L29 26L28 26L28 27L29 27L29 26L30 26L30 24L31 24L31 23ZM5 24L5 26L6 26L6 25L7 25L7 24ZM18 24L18 25L19 25L19 26L18 26L18 27L20 27L20 25L19 25L19 24ZM32 24L32 25L31 25L31 26L32 26L32 27L31 27L31 28L33 28L33 29L34 29L34 30L35 30L35 27L34 27L34 26L33 26L33 24ZM24 25L24 26L25 26L25 25ZM33 27L33 28L34 28L34 27ZM29 29L29 32L32 32L32 29ZM30 30L30 31L31 31L31 30ZM13 31L13 32L14 32L14 31ZM28 33L28 35L30 35L30 36L32 36L32 35L31 35L31 33L30 33L30 34L29 34L29 33ZM35 33L35 34L36 34L36 35L37 35L37 34L36 34L36 33ZM22 34L22 35L23 35L23 34ZM13 35L13 36L11 36L11 37L14 37L14 35ZM17 36L17 37L18 37L18 36ZM19 36L19 37L20 37L20 36ZM36 36L36 37L37 37L37 36ZM0 0L0 7L7 7L7 0ZM1 1L1 6L6 6L6 1ZM2 2L2 5L5 5L5 2ZM30 0L30 7L37 7L37 0ZM31 1L31 6L36 6L36 1ZM32 2L32 5L35 5L35 2ZM0 30L0 37L7 37L7 30ZM1 31L1 36L6 36L6 31ZM2 32L2 35L5 35L5 32Z" fill="#000000"/></g></g></svg>
