<?xml version="1.0" encoding="UTF-8"?>
<svg xmlns="http://www.w3.org/2000/svg" version="1.1" width="100" height="100" viewBox="0 0 100 100"><rect x="0" y="0" width="100" height="100" fill="#ffffff"/><g transform="scale(2.703)"><g transform="translate(0,0)"><path fill-rule="evenodd" d="M9 0L9 1L8 1L8 3L9 3L9 4L8 4L8 8L6 8L6 9L4 9L4 8L3 8L3 9L2 9L2 8L0 8L0 9L1 9L1 10L2 10L2 12L3 12L3 11L4 11L4 10L6 10L6 11L8 11L8 12L9 12L9 14L8 14L8 13L7 13L7 12L5 12L5 13L2 13L2 14L5 14L5 13L7 13L7 14L6 14L6 15L3 15L3 16L6 16L6 17L9 17L9 16L10 16L10 14L12 14L12 16L11 16L11 17L10 17L10 18L9 18L9 19L8 19L8 18L6 18L6 19L5 19L5 17L3 17L3 19L1 19L1 18L2 18L2 17L0 17L0 22L1 22L1 20L2 20L2 21L3 21L3 22L2 22L2 23L0 23L0 24L2 24L2 26L3 26L3 25L4 25L4 24L5 24L5 23L7 23L7 24L6 24L6 25L5 25L5 26L6 26L6 27L1 27L1 26L0 26L0 27L1 27L1 28L0 28L0 29L2 29L2 28L3 28L3 29L5 29L5 28L6 28L6 29L8 29L8 31L9 31L9 32L10 32L10 33L11 33L11 34L10 34L10 36L9 36L9 35L8 35L8 37L11 37L11 34L12 34L12 33L11 33L11 32L10 32L10 31L9 31L9 30L11 30L11 31L12 31L12 32L13 32L13 30L14 30L14 32L16 32L16 35L14 35L14 36L15 36L15 37L16 37L16 35L19 35L19 36L21 36L21 37L26 37L26 34L24 34L24 36L23 36L23 33L26 33L26 32L23 32L23 31L21 31L21 30L20 30L20 31L21 31L21 32L20 32L20 33L21 33L21 34L18 34L18 33L19 33L19 32L18 32L18 31L19 31L19 29L21 29L21 28L22 28L22 30L24 30L24 31L25 31L25 30L26 30L26 31L28 31L28 33L32 33L32 34L31 34L31 36L30 36L30 34L28 34L28 35L27 35L27 37L29 37L29 36L30 36L30 37L31 37L31 36L32 36L32 35L33 35L33 37L34 37L34 35L37 35L37 34L34 34L34 33L33 33L33 32L36 32L36 31L37 31L37 29L35 29L35 28L31 28L31 24L30 24L30 23L36 23L36 25L34 25L34 26L33 26L33 27L36 27L36 28L37 28L37 21L36 21L36 20L35 20L35 19L37 19L37 16L36 16L36 15L37 15L37 14L36 14L36 15L35 15L35 14L34 14L34 13L33 13L33 15L35 15L35 16L34 16L34 17L32 17L32 18L33 18L33 19L34 19L34 20L35 20L35 21L33 21L33 20L32 20L32 21L31 21L31 15L29 15L29 17L28 17L28 15L27 15L27 14L26 14L26 13L27 13L27 12L28 12L28 13L29 13L29 14L32 14L32 12L33 12L33 11L32 11L32 10L31 10L31 9L33 9L33 8L30 8L30 9L29 9L29 6L28 6L28 4L29 4L29 0L26 0L26 1L25 1L25 0L23 0L23 1L22 1L22 0L21 0L21 1L20 1L20 0L17 0L17 3L15 3L15 2L16 2L16 1L15 1L15 2L14 2L14 1L13 1L13 0L12 0L12 1L11 1L11 2L9 2L9 1L10 1L10 0ZM19 1L19 2L18 2L18 3L19 3L19 4L18 4L18 5L21 5L21 7L22 7L22 6L23 6L23 8L22 8L22 10L21 10L21 11L23 11L23 12L22 12L22 13L23 13L23 14L24 14L24 15L23 15L23 17L21 17L21 19L20 19L20 16L18 16L18 17L17 17L17 15L18 15L18 14L17 14L17 13L16 13L16 14L15 14L15 15L16 15L16 16L15 16L15 17L17 17L17 19L20 19L20 20L17 20L17 21L16 21L16 20L15 20L15 19L16 19L16 18L15 18L15 19L13 19L13 17L14 17L14 16L12 16L12 17L11 17L11 19L12 19L12 20L15 20L15 22L14 22L14 21L13 21L13 22L14 22L14 24L12 24L12 28L11 28L11 27L10 27L10 29L11 29L11 30L12 30L12 28L14 28L14 29L15 29L15 31L17 31L17 30L16 30L16 29L17 29L17 28L16 28L16 26L17 26L17 27L18 27L18 28L19 28L19 27L20 27L20 26L21 26L21 27L22 27L22 28L23 28L23 26L25 26L25 27L26 27L26 30L27 30L27 28L28 28L28 27L29 27L29 28L30 28L30 27L29 27L29 25L27 25L27 24L28 24L28 23L30 23L30 22L26 22L26 23L27 23L27 24L25 24L25 23L24 23L24 21L25 21L25 20L26 20L26 21L27 21L27 20L28 20L28 21L30 21L30 18L28 18L28 17L26 17L26 16L25 16L25 15L26 15L26 14L24 14L24 11L26 11L26 10L27 10L27 11L30 11L30 12L31 12L31 11L30 11L30 10L29 10L29 9L28 9L28 6L27 6L27 7L26 7L26 6L25 6L25 5L27 5L27 4L28 4L28 3L27 3L27 1L26 1L26 2L25 2L25 1L24 1L24 2L23 2L23 3L22 3L22 1L21 1L21 3L19 3L19 2L20 2L20 1ZM13 2L13 3L12 3L12 4L9 4L9 5L10 5L10 6L9 6L9 7L10 7L10 8L8 8L8 9L6 9L6 10L9 10L9 12L10 12L10 8L11 8L11 9L12 9L12 10L11 10L11 13L12 13L12 12L13 12L13 15L14 15L14 13L15 13L15 11L16 11L16 10L15 10L15 9L14 9L14 5L16 5L16 4L14 4L14 5L13 5L13 3L14 3L14 2ZM24 2L24 3L23 3L23 5L25 5L25 4L27 4L27 3L25 3L25 2ZM24 3L24 4L25 4L25 3ZM11 5L11 6L10 6L10 7L11 7L11 6L12 6L12 8L13 8L13 6L12 6L12 5ZM15 6L15 8L17 8L17 9L19 9L19 10L17 10L17 12L18 12L18 13L20 13L20 14L19 14L19 15L21 15L21 13L20 13L20 11L19 11L19 10L20 10L20 9L21 9L21 8L20 8L20 9L19 9L19 8L17 8L17 7L18 7L18 6L17 6L17 7L16 7L16 6ZM19 6L19 7L20 7L20 6ZM24 6L24 7L25 7L25 6ZM23 8L23 9L24 9L24 10L25 10L25 9L27 9L27 8L25 8L25 9L24 9L24 8ZM34 8L34 9L36 9L36 10L35 10L35 13L36 13L36 12L37 12L37 9L36 9L36 8ZM13 11L13 12L14 12L14 11ZM18 11L18 12L19 12L19 11ZM0 13L0 15L1 15L1 16L2 16L2 15L1 15L1 13ZM6 15L6 16L7 16L7 15ZM23 17L23 18L22 18L22 19L21 19L21 22L22 22L22 23L20 23L20 22L19 22L19 21L17 21L17 23L16 23L16 24L14 24L14 25L13 25L13 27L15 27L15 26L14 26L14 25L17 25L17 26L18 26L18 27L19 27L19 26L20 26L20 24L21 24L21 26L22 26L22 24L24 24L24 25L25 25L25 26L26 26L26 27L27 27L27 26L26 26L26 25L25 25L25 24L24 24L24 23L23 23L23 22L22 22L22 20L23 20L23 21L24 21L24 20L25 20L25 19L23 19L23 18L25 18L25 17ZM34 17L34 19L35 19L35 18L36 18L36 17ZM26 18L26 20L27 20L27 18ZM4 19L4 20L3 20L3 21L6 21L6 22L7 22L7 23L8 23L8 25L6 25L6 26L7 26L7 27L6 27L6 28L8 28L8 29L9 29L9 27L8 27L8 26L9 26L9 24L10 24L10 23L8 23L8 22L9 22L9 21L10 21L10 22L11 22L11 20L9 20L9 21L8 21L8 19L6 19L6 20L5 20L5 19ZM6 20L6 21L7 21L7 22L8 22L8 21L7 21L7 20ZM32 21L32 22L33 22L33 21ZM3 22L3 24L4 24L4 22ZM17 23L17 24L19 24L19 23ZM10 25L10 26L11 26L11 25ZM18 25L18 26L19 26L19 25ZM15 28L15 29L16 29L16 28ZM24 29L24 30L25 30L25 29ZM29 29L29 32L32 32L32 29ZM33 29L33 31L34 31L34 30L35 30L35 29ZM30 30L30 31L31 31L31 30ZM17 32L17 33L18 33L18 32ZM22 32L22 33L23 33L23 32ZM8 33L8 34L9 34L9 33ZM14 33L14 34L15 34L15 33ZM21 34L21 35L22 35L22 34ZM33 34L33 35L34 35L34 34ZM12 36L12 37L13 37L13 36ZM35 36L35 37L37 37L37 36ZM0 0L0 7L7 7L7 0ZM1 1L1 6L6 6L6 1ZM2 2L2 5L5 5L5 2ZM30 0L30 7L37 7L37 0ZM31 1L31 6L36 6L36 1ZM32 2L32 5L35 5L35 2ZM0 30L0 37L7 37L7 30ZM1 31L1 36L6 36L6 31ZM2 32L2 35L5 35L5 32Z" fill="#000000"/></g></g></svg>
