<?xml version="1.0" encoding="UTF-8"?>
<svg xmlns="http://www.w3.org/2000/svg" version="1.1" width="100" height="100" viewBox="0 0 100 100"><rect x="0" y="0" width="100" height="100" fill="#ffffff"/><g transform="scale(1.754)"><g transform="translate(0,0)"><path fill-rule="evenodd" d="M9 0L9 1L8 1L8 2L9 2L9 3L8 3L8 4L9 4L9 5L8 5L8 7L9 7L9 6L10 6L10 8L6 8L6 9L5 9L5 8L0 8L0 10L4 10L4 9L5 9L5 11L3 11L3 12L2 12L2 11L0 11L0 12L2 12L2 13L0 13L0 14L2 14L2 13L5 13L5 14L3 14L3 15L0 15L0 17L1 17L1 16L3 16L3 15L5 15L5 16L4 16L4 17L2 17L2 18L1 18L1 19L0 19L0 22L1 22L1 23L0 23L0 26L2 26L2 28L1 28L1 27L0 27L0 28L1 28L1 30L0 30L0 33L1 33L1 32L2 32L2 33L4 33L4 34L5 34L5 36L3 36L3 35L2 35L2 34L0 34L0 35L2 35L2 36L1 36L1 37L0 37L0 41L1 41L1 40L2 40L2 41L4 41L4 40L3 40L3 39L5 39L5 41L7 41L7 40L6 40L6 39L7 39L7 38L6 38L6 37L9 37L9 38L8 38L8 40L9 40L9 39L11 39L11 41L12 41L12 43L14 43L14 44L15 44L15 45L14 45L14 47L15 47L15 45L17 45L17 48L15 48L15 50L14 50L14 48L13 48L13 49L12 49L12 50L10 50L10 48L11 48L11 47L12 47L12 45L13 45L13 44L12 44L12 45L11 45L11 46L10 46L10 44L11 44L11 42L9 42L9 41L8 41L8 42L4 42L4 44L3 44L3 45L5 45L5 47L3 47L3 46L2 46L2 47L1 47L1 46L0 46L0 48L5 48L5 47L7 47L7 48L6 48L6 49L7 49L7 48L8 48L8 51L9 51L9 50L10 50L10 52L8 52L8 57L10 57L10 56L9 56L9 53L11 53L11 54L10 54L10 55L11 55L11 56L15 56L15 57L17 57L17 53L20 53L20 52L24 52L24 53L21 53L21 55L22 55L22 56L18 56L18 57L22 57L22 56L23 56L23 57L24 57L24 55L22 55L22 54L24 54L24 53L25 53L25 54L27 54L27 55L28 55L28 54L30 54L30 53L31 53L31 52L33 52L33 51L38 51L38 52L42 52L42 54L43 54L43 55L40 55L40 54L38 54L38 53L37 53L37 52L35 52L35 54L32 54L32 55L34 55L34 56L30 56L30 55L29 55L29 56L30 56L30 57L35 57L35 56L36 56L36 57L37 57L37 56L36 56L36 55L35 55L35 54L38 54L38 57L40 57L40 56L41 56L41 57L42 57L42 56L45 56L45 57L48 57L48 56L46 56L46 55L47 55L47 54L43 54L43 52L42 52L42 51L40 51L40 50L41 50L41 49L39 49L39 50L38 50L38 49L37 49L37 48L41 48L41 47L40 47L40 46L43 46L43 47L44 47L44 48L43 48L43 49L42 49L42 50L43 50L43 51L44 51L44 52L45 52L45 51L44 51L44 50L43 50L43 49L44 49L44 48L46 48L46 49L47 49L47 50L46 50L46 53L53 53L53 52L56 52L56 53L57 53L57 52L56 52L56 50L57 50L57 49L56 49L56 48L55 48L55 45L56 45L56 46L57 46L57 45L56 45L56 41L55 41L55 42L53 42L53 44L55 44L55 45L54 45L54 46L53 46L53 47L52 47L52 48L48 48L48 47L50 47L50 46L51 46L51 45L52 45L52 43L50 43L50 42L51 42L51 41L54 41L54 40L55 40L55 39L57 39L57 37L56 37L56 38L55 38L55 37L53 37L53 40L51 40L51 39L50 39L50 37L51 37L51 35L50 35L50 34L49 34L49 35L47 35L47 34L46 34L46 35L42 35L42 34L44 34L44 32L45 32L45 33L47 33L47 32L48 32L48 31L49 31L49 33L51 33L51 32L50 32L50 31L52 31L52 33L53 33L53 34L52 34L52 36L56 36L56 34L57 34L57 33L56 33L56 34L55 34L55 30L57 30L57 27L56 27L56 26L57 26L57 24L56 24L56 22L57 22L57 19L56 19L56 18L57 18L57 15L56 15L56 18L55 18L55 17L54 17L54 18L55 18L55 19L53 19L53 17L52 17L52 19L51 19L51 18L50 18L50 17L51 17L51 16L53 16L53 15L51 15L51 14L52 14L52 13L51 13L51 12L53 12L53 11L54 11L54 12L55 12L55 11L56 11L56 10L57 10L57 9L56 9L56 8L55 8L55 9L56 9L56 10L55 10L55 11L54 11L54 10L53 10L53 11L50 11L50 8L49 8L49 9L48 9L48 10L49 10L49 11L48 11L48 12L49 12L49 13L48 13L48 15L47 15L47 14L46 14L46 13L47 13L47 12L46 12L46 11L47 11L47 10L46 10L46 9L47 9L47 8L48 8L48 7L49 7L49 6L48 6L48 7L47 7L47 5L48 5L48 0L46 0L46 1L45 1L45 2L44 2L44 0L41 0L41 1L40 1L40 0L39 0L39 1L38 1L38 0L35 0L35 1L34 1L34 0L27 0L27 1L25 1L25 0L24 0L24 1L25 1L25 2L27 2L27 3L29 3L29 2L28 2L28 1L31 1L31 2L30 2L30 3L31 3L31 4L26 4L26 3L23 3L23 4L22 4L22 3L21 3L21 1L20 1L20 0L19 0L19 1L18 1L18 0L17 0L17 1L14 1L14 0ZM22 0L22 1L23 1L23 0ZM12 1L12 2L10 2L10 3L9 3L9 4L10 4L10 6L11 6L11 7L12 7L12 6L13 6L13 7L14 7L14 9L15 9L15 10L16 10L16 11L15 11L15 12L17 12L17 13L13 13L13 12L14 12L14 11L13 11L13 8L12 8L12 11L11 11L11 10L10 10L10 11L9 11L9 12L12 12L12 14L8 14L8 13L6 13L6 12L7 12L7 11L8 11L8 9L6 9L6 10L7 10L7 11L6 11L6 12L5 12L5 13L6 13L6 14L5 14L5 15L6 15L6 16L5 16L5 17L6 17L6 18L3 18L3 19L4 19L4 20L3 20L3 21L2 21L2 19L1 19L1 21L2 21L2 23L4 23L4 24L5 24L5 25L3 25L3 24L1 24L1 25L3 25L3 26L5 26L5 25L6 25L6 26L8 26L8 25L9 25L9 27L10 27L10 26L12 26L12 27L11 27L11 29L12 29L12 30L10 30L10 28L9 28L9 31L8 31L8 32L7 32L7 31L6 31L6 32L5 32L5 31L3 31L3 30L4 30L4 29L3 29L3 30L2 30L2 32L5 32L5 33L6 33L6 34L7 34L7 35L6 35L6 36L5 36L5 37L6 37L6 36L8 36L8 35L9 35L9 34L8 34L8 33L9 33L9 31L10 31L10 33L13 33L13 34L14 34L14 33L16 33L16 34L19 34L19 33L20 33L20 34L21 34L21 33L20 33L20 32L19 32L19 31L18 31L18 29L19 29L19 26L20 26L20 31L22 31L22 33L23 33L23 34L22 34L22 35L23 35L23 36L19 36L19 37L17 37L17 35L16 35L16 36L15 36L15 35L13 35L13 36L9 36L9 37L11 37L11 38L12 38L12 37L13 37L13 36L14 36L14 40L13 40L13 42L14 42L14 43L15 43L15 44L16 44L16 43L18 43L18 42L19 42L19 45L20 45L20 46L21 46L21 45L22 45L22 47L24 47L24 45L25 45L25 46L26 46L26 45L27 45L27 47L26 47L26 48L29 48L29 47L30 47L30 48L32 48L32 49L31 49L31 51L33 51L33 50L32 50L32 49L33 49L33 48L34 48L34 50L35 50L35 49L36 49L36 48L37 48L37 47L38 47L38 46L39 46L39 45L41 45L41 44L42 44L42 45L43 45L43 46L44 46L44 45L45 45L45 44L44 44L44 43L46 43L46 42L47 42L47 44L46 44L46 46L47 46L47 45L48 45L48 46L49 46L49 45L51 45L51 44L50 44L50 43L49 43L49 42L48 42L48 40L49 40L49 41L51 41L51 40L50 40L50 39L48 39L48 38L47 38L47 37L48 37L48 36L47 36L47 35L46 35L46 36L44 36L44 37L43 37L43 36L42 36L42 35L41 35L41 34L42 34L42 33L43 33L43 32L42 32L42 31L46 31L46 32L47 32L47 31L46 31L46 30L48 30L48 29L46 29L46 30L42 30L42 31L41 31L41 29L43 29L43 28L44 28L44 29L45 29L45 28L44 28L44 27L43 27L43 26L42 26L42 25L41 25L41 24L40 24L40 23L42 23L42 24L43 24L43 25L44 25L44 26L45 26L45 27L46 27L46 26L48 26L48 25L49 25L49 24L51 24L51 25L50 25L50 26L52 26L52 25L53 25L53 27L55 27L55 26L56 26L56 25L55 25L55 24L54 24L54 25L53 25L53 23L50 23L50 22L52 22L52 21L53 21L53 20L50 20L50 18L48 18L48 17L50 17L50 16L51 16L51 15L50 15L50 14L51 14L51 13L50 13L50 14L49 14L49 15L50 15L50 16L46 16L46 14L45 14L45 12L44 12L44 15L45 15L45 16L44 16L44 17L43 17L43 18L42 18L42 16L39 16L39 15L38 15L38 14L40 14L40 15L43 15L43 14L41 14L41 12L42 12L42 11L46 11L46 10L45 10L45 8L40 8L40 6L39 6L39 8L40 8L40 9L38 9L38 5L41 5L41 4L43 4L43 5L42 5L42 6L41 6L41 7L42 7L42 6L43 6L43 7L44 7L44 6L45 6L45 7L46 7L46 8L47 8L47 7L46 7L46 6L45 6L45 5L47 5L47 3L46 3L46 4L45 4L45 3L44 3L44 2L43 2L43 1L42 1L42 2L41 2L41 3L39 3L39 2L38 2L38 1L37 1L37 2L34 2L34 1L33 1L33 2L31 2L31 3L32 3L32 4L33 4L33 5L32 5L32 6L31 6L31 7L32 7L32 8L31 8L31 9L32 9L32 10L30 10L30 9L25 9L25 8L26 8L26 4L25 4L25 8L24 8L24 6L23 6L23 5L24 5L24 4L23 4L23 5L22 5L22 6L21 6L21 8L22 8L22 9L23 9L23 12L24 12L24 13L22 13L22 12L21 12L21 11L22 11L22 10L21 10L21 9L18 9L18 8L19 8L19 7L20 7L20 5L19 5L19 4L21 4L21 3L19 3L19 4L18 4L18 5L17 5L17 2L16 2L16 3L14 3L14 2L13 2L13 1ZM46 1L46 2L47 2L47 1ZM12 2L12 3L11 3L11 6L12 6L12 3L13 3L13 5L16 5L16 4L14 4L14 3L13 3L13 2ZM37 2L37 3L36 3L36 4L37 4L37 5L38 5L38 4L37 4L37 3L38 3L38 2ZM42 2L42 3L43 3L43 4L44 4L44 5L45 5L45 4L44 4L44 3L43 3L43 2ZM27 5L27 8L30 8L30 5ZM14 6L14 7L15 7L15 9L17 9L17 10L18 10L18 11L17 11L17 12L18 12L18 13L17 13L17 16L15 16L15 17L14 17L14 16L13 16L13 17L12 17L12 18L10 18L10 17L11 17L11 16L12 16L12 15L14 15L14 14L12 14L12 15L10 15L10 17L9 17L9 15L8 15L8 14L6 14L6 15L8 15L8 17L7 17L7 16L6 16L6 17L7 17L7 18L6 18L6 19L5 19L5 21L4 21L4 23L5 23L5 24L6 24L6 25L7 25L7 24L6 24L6 23L7 23L7 22L8 22L8 23L9 23L9 21L10 21L10 20L9 20L9 21L7 21L7 20L8 20L8 18L10 18L10 19L11 19L11 22L10 22L10 24L12 24L12 26L13 26L13 25L17 25L17 26L15 26L15 29L18 29L18 28L16 28L16 27L18 27L18 25L22 25L22 26L21 26L21 27L22 27L22 26L23 26L23 29L24 29L24 30L25 30L25 31L24 31L24 32L25 32L25 31L26 31L26 34L25 34L25 33L24 33L24 34L25 34L25 35L24 35L24 36L23 36L23 37L19 37L19 38L18 38L18 41L22 41L22 43L21 43L21 42L20 42L20 45L21 45L21 44L22 44L22 45L23 45L23 44L25 44L25 45L26 45L26 44L27 44L27 45L29 45L29 44L28 44L28 43L31 43L31 44L30 44L30 45L32 45L32 46L33 46L33 45L32 45L32 44L34 44L34 45L35 45L35 47L34 47L34 48L36 48L36 47L37 47L37 46L38 46L38 45L39 45L39 44L41 44L41 43L42 43L42 44L43 44L43 45L44 45L44 44L43 44L43 43L44 43L44 42L43 42L43 39L42 39L42 42L41 42L41 43L40 43L40 40L41 40L41 39L40 39L40 38L41 38L41 37L40 37L40 38L38 38L38 37L39 37L39 35L40 35L40 36L41 36L41 35L40 35L40 34L39 34L39 35L38 35L38 33L37 33L37 32L38 32L38 29L39 29L39 30L40 30L40 29L39 29L39 28L42 28L42 26L41 26L41 27L40 27L40 26L37 26L37 25L38 25L38 19L39 19L39 20L42 20L42 22L43 22L43 24L45 24L45 26L46 26L46 25L47 25L47 24L49 24L49 22L50 22L50 20L49 20L49 21L47 21L47 22L45 22L45 23L44 23L44 22L43 22L43 21L44 21L44 20L45 20L45 21L46 21L46 19L47 19L47 18L46 18L46 16L45 16L45 19L44 19L44 18L43 18L43 19L40 19L40 18L41 18L41 17L40 17L40 18L38 18L38 15L37 15L37 14L38 14L38 13L39 13L39 11L40 11L40 12L41 12L41 11L40 11L40 10L41 10L41 9L40 9L40 10L36 10L36 11L37 11L37 12L34 12L34 9L33 9L33 11L32 11L32 12L33 12L33 13L37 13L37 14L36 14L36 15L37 15L37 16L35 16L35 15L33 15L33 16L35 16L35 17L36 17L36 19L35 19L35 18L34 18L34 17L33 17L33 19L34 19L34 21L35 21L35 20L36 20L36 21L37 21L37 22L36 22L36 23L37 23L37 24L36 24L36 27L35 27L35 28L34 28L34 26L35 26L35 22L33 22L33 23L34 23L34 24L31 24L31 25L30 25L30 26L29 26L29 25L27 25L27 26L26 26L26 25L24 25L24 23L23 23L23 25L22 25L22 22L24 22L24 21L25 21L25 22L26 22L26 23L25 23L25 24L29 24L29 23L30 23L30 22L31 22L31 21L32 21L32 18L31 18L31 17L32 17L32 14L30 14L30 13L29 13L29 14L28 14L28 12L30 12L30 10L29 10L29 11L27 11L27 10L26 10L26 11L25 11L25 9L24 9L24 8L23 8L23 6L22 6L22 8L23 8L23 9L24 9L24 12L25 12L25 13L24 13L24 14L25 14L25 16L26 16L26 17L24 17L24 16L23 16L23 15L22 15L22 13L21 13L21 12L20 12L20 13L19 13L19 10L18 10L18 9L17 9L17 8L16 8L16 7L17 7L17 6L16 6L16 7L15 7L15 6ZM18 6L18 7L19 7L19 6ZM28 6L28 7L29 7L29 6ZM32 6L32 7L33 7L33 6ZM34 6L34 8L35 8L35 9L37 9L37 8L36 8L36 7L37 7L37 6L36 6L36 7L35 7L35 6ZM10 8L10 9L11 9L11 8ZM51 8L51 9L52 9L52 8ZM53 8L53 9L54 9L54 8ZM42 9L42 10L43 10L43 9ZM26 11L26 12L27 12L27 11ZM56 12L56 14L57 14L57 12ZM20 13L20 14L21 14L21 13ZM53 13L53 14L54 14L54 13ZM26 14L26 16L27 16L27 17L26 17L26 18L24 18L24 17L23 17L23 16L22 16L22 17L23 17L23 19L22 19L22 18L21 18L21 16L20 16L20 19L22 19L22 21L24 21L24 19L25 19L25 21L26 21L26 20L28 20L28 23L29 23L29 20L28 20L28 18L27 18L27 17L28 17L28 16L29 16L29 17L31 17L31 16L29 16L29 15L30 15L30 14L29 14L29 15L28 15L28 14ZM27 15L27 16L28 16L28 15ZM54 15L54 16L55 16L55 15ZM13 17L13 19L12 19L12 21L14 21L14 22L13 22L13 23L12 23L12 22L11 22L11 23L12 23L12 24L13 24L13 23L14 23L14 22L16 22L16 21L17 21L17 25L18 25L18 22L20 22L20 23L19 23L19 24L21 24L21 20L20 20L20 21L17 21L17 20L19 20L19 19L17 19L17 20L16 20L16 21L15 21L15 18L14 18L14 17ZM16 17L16 18L17 18L17 17ZM18 17L18 18L19 18L19 17ZM29 18L29 19L31 19L31 18ZM6 19L6 20L7 20L7 19ZM13 19L13 20L14 20L14 19ZM36 19L36 20L37 20L37 19ZM55 19L55 20L54 20L54 21L55 21L55 20L56 20L56 19ZM5 21L5 23L6 23L6 22L7 22L7 21ZM39 21L39 22L40 22L40 21ZM15 23L15 24L16 24L16 23ZM46 23L46 24L47 24L47 23ZM39 24L39 25L40 25L40 24ZM23 25L23 26L24 26L24 25ZM31 25L31 26L32 26L32 25ZM33 25L33 26L34 26L34 25ZM54 25L54 26L55 26L55 25ZM25 26L25 27L24 27L24 29L26 29L26 28L25 28L25 27L26 27L26 26ZM3 27L3 28L4 28L4 27ZM5 27L5 30L8 30L8 27ZM12 27L12 28L13 28L13 30L12 30L12 31L11 31L11 32L12 32L12 31L14 31L14 32L15 32L15 30L14 30L14 28L13 28L13 27ZM27 27L27 30L30 30L30 27ZM36 27L36 28L37 28L37 29L38 29L38 28L37 28L37 27ZM47 27L47 28L48 28L48 27ZM49 27L49 30L52 30L52 27ZM6 28L6 29L7 29L7 28ZM21 28L21 29L22 29L22 28ZM28 28L28 29L29 29L29 28ZM32 28L32 31L29 31L29 33L28 33L28 34L29 34L29 35L28 35L28 36L27 36L27 35L26 35L26 36L25 36L25 38L26 38L26 39L25 39L25 40L24 40L24 39L23 39L23 38L24 38L24 37L23 37L23 38L22 38L22 39L21 39L21 40L22 40L22 41L23 41L23 43L25 43L25 44L26 44L26 43L27 43L27 42L26 42L26 41L28 41L28 42L31 42L31 43L34 43L34 44L35 44L35 43L36 43L36 44L37 44L37 43L36 43L36 40L37 40L37 42L39 42L39 40L40 40L40 39L38 39L38 38L37 38L37 39L36 39L36 40L35 40L35 39L34 39L34 40L33 40L33 38L36 38L36 36L37 36L37 35L36 35L36 32L37 32L37 31L36 31L36 32L35 32L35 31L34 31L34 30L35 30L35 29L33 29L33 28ZM50 28L50 29L51 29L51 28ZM53 28L53 31L54 31L54 29L55 29L55 28ZM22 30L22 31L23 31L23 30ZM16 31L16 33L19 33L19 32L18 32L18 31ZM27 31L27 32L28 32L28 31ZM32 31L32 32L30 32L30 33L29 33L29 34L30 34L30 35L29 35L29 36L30 36L30 37L32 37L32 38L33 38L33 37L34 37L34 36L33 36L33 37L32 37L32 35L35 35L35 34L34 34L34 33L35 33L35 32L34 32L34 31ZM39 31L39 32L41 32L41 31ZM56 31L56 32L57 32L57 31ZM6 32L6 33L7 33L7 32ZM32 32L32 34L31 34L31 35L32 35L32 34L33 34L33 32ZM53 32L53 33L54 33L54 32ZM10 34L10 35L12 35L12 34ZM53 34L53 35L54 35L54 34ZM49 35L49 37L50 37L50 35ZM2 36L2 37L1 37L1 38L2 38L2 39L3 39L3 38L2 38L2 37L3 37L3 36ZM26 36L26 38L28 38L28 37L27 37L27 36ZM46 36L46 37L47 37L47 36ZM15 37L15 38L16 38L16 37ZM42 37L42 38L43 38L43 37ZM44 37L44 38L45 38L45 39L44 39L44 40L45 40L45 42L46 42L46 39L47 39L47 40L48 40L48 39L47 39L47 38L45 38L45 37ZM19 38L19 39L20 39L20 38ZM29 38L29 40L28 40L28 39L26 39L26 40L28 40L28 41L31 41L31 42L32 42L32 41L31 41L31 40L32 40L32 39L31 39L31 38ZM15 39L15 40L14 40L14 42L15 42L15 43L16 43L16 41L17 41L17 40L16 40L16 39ZM24 41L24 42L25 42L25 41ZM33 41L33 42L34 42L34 41ZM0 42L0 43L2 43L2 42ZM42 42L42 43L43 43L43 42ZM5 43L5 45L6 45L6 46L7 46L7 47L8 47L8 46L9 46L9 48L10 48L10 46L9 46L9 44L10 44L10 43L9 43L9 44L8 44L8 46L7 46L7 45L6 45L6 44L7 44L7 43ZM17 44L17 45L18 45L18 44ZM30 46L30 47L31 47L31 46ZM32 47L32 48L33 48L33 47ZM46 47L46 48L47 48L47 49L48 49L48 48L47 48L47 47ZM19 48L19 49L18 49L18 51L16 51L16 53L15 53L15 52L14 52L14 51L11 51L11 52L13 52L13 53L12 53L12 54L13 54L13 53L15 53L15 54L14 54L14 55L15 55L15 56L16 56L16 55L15 55L15 54L16 54L16 53L17 53L17 52L19 52L19 51L20 51L20 50L21 50L21 51L22 51L22 50L21 50L21 49L23 49L23 48L21 48L21 49L20 49L20 48ZM24 48L24 49L25 49L25 48ZM53 48L53 50L56 50L56 49L54 49L54 48ZM16 49L16 50L17 50L17 49ZM19 49L19 50L20 50L20 49ZM27 49L27 52L30 52L30 49ZM49 49L49 52L52 52L52 49ZM25 50L25 52L26 52L26 50ZM28 50L28 51L29 51L29 50ZM50 50L50 51L51 51L51 50ZM47 51L47 52L48 52L48 51ZM54 53L54 54L55 54L55 53ZM18 54L18 55L20 55L20 54ZM48 54L48 55L50 55L50 54ZM51 55L51 56L50 56L50 57L51 57L51 56L52 56L52 55ZM53 55L53 56L55 56L55 57L56 57L56 56L55 56L55 55ZM0 0L0 7L7 7L7 0ZM1 1L1 6L6 6L6 1ZM2 2L2 5L5 5L5 2ZM50 0L50 7L57 7L57 0ZM51 1L51 6L56 6L56 1ZM52 2L52 5L55 5L55 2ZM0 50L0 57L7 57L7 50ZM1 51L1 56L6 56L6 51ZM2 52L2 55L5 55L5 52Z" fill="#000000"/></g></g></svg>
