<?xml version="1.0" encoding="UTF-8"?>
<svg xmlns="http://www.w3.org/2000/svg" version="1.1" width="100" height="100" viewBox="0 0 100 100"><rect x="0" y="0" width="100" height="100" fill="#ffffff"/><g transform="scale(1.887)"><g transform="translate(0,0)"><path fill-rule="evenodd" d="M8 0L8 4L9 4L9 5L8 5L8 7L9 7L9 8L10 8L10 9L8 9L8 10L10 10L10 9L11 9L11 12L10 12L10 14L11 14L11 15L13 15L13 17L12 17L12 19L14 19L14 21L13 21L13 20L11 20L11 18L10 18L10 17L8 17L8 16L10 16L10 15L8 15L8 14L6 14L6 15L4 15L4 13L8 13L8 12L9 12L9 11L7 11L7 10L6 10L6 11L5 11L5 10L4 10L4 9L7 9L7 8L4 8L4 9L3 9L3 10L2 10L2 11L3 11L3 16L5 16L5 17L8 17L8 19L7 19L7 18L6 18L6 19L7 19L7 20L5 20L5 21L4 21L4 22L2 22L2 21L3 21L3 19L2 19L2 18L1 18L1 17L2 17L2 15L1 15L1 14L2 14L2 13L1 13L1 14L0 14L0 15L1 15L1 16L0 16L0 22L2 22L2 23L5 23L5 24L4 24L4 26L3 26L3 27L2 27L2 25L3 25L3 24L1 24L1 25L0 25L0 28L3 28L3 30L0 30L0 31L2 31L2 32L1 32L1 35L2 35L2 34L3 34L3 35L4 35L4 37L1 37L1 38L3 38L3 39L1 39L1 40L2 40L2 41L3 41L3 43L2 43L2 42L1 42L1 41L0 41L0 43L1 43L1 44L3 44L3 45L4 45L4 44L3 44L3 43L8 43L8 44L6 44L6 45L8 45L8 46L9 46L9 47L8 47L8 49L9 49L9 51L8 51L8 53L14 53L14 52L15 52L15 53L17 53L17 51L16 51L16 50L13 50L13 49L17 49L17 50L18 50L18 49L19 49L19 50L20 50L20 51L21 51L21 52L23 52L23 53L25 53L25 52L26 52L26 53L27 53L27 52L26 52L26 50L27 50L27 51L28 51L28 50L27 50L27 49L29 49L29 52L31 52L31 53L33 53L33 51L34 51L34 52L35 52L35 53L37 53L37 52L38 52L38 53L39 53L39 52L40 52L40 51L43 51L43 52L44 52L44 49L47 49L47 50L48 50L48 49L50 49L50 47L51 47L51 46L50 46L50 43L51 43L51 42L52 42L52 43L53 43L53 36L52 36L52 40L51 40L51 41L50 41L50 39L51 39L51 37L50 37L50 36L49 36L49 35L48 35L48 36L49 36L49 37L48 37L48 38L46 38L46 39L48 39L48 38L49 38L49 41L47 41L47 42L46 42L46 40L45 40L45 39L44 39L44 38L43 38L43 37L46 37L46 35L47 35L47 34L49 34L49 33L50 33L50 28L49 28L49 27L50 27L50 26L51 26L51 25L52 25L52 27L51 27L51 28L52 28L52 27L53 27L53 24L52 24L52 23L53 23L53 17L52 17L52 16L53 16L53 13L52 13L52 12L53 12L53 10L52 10L52 9L53 9L53 8L49 8L49 9L48 9L48 8L47 8L47 11L46 11L46 10L45 10L45 9L44 9L44 10L43 10L43 8L42 8L42 9L41 9L41 10L40 10L40 11L41 11L41 12L42 12L42 11L46 11L46 13L41 13L41 14L40 14L40 12L39 12L39 11L36 11L36 12L34 12L34 11L32 11L32 10L33 10L33 8L34 8L34 9L35 9L35 10L37 10L37 9L38 9L38 10L39 10L39 9L40 9L40 7L41 7L41 6L40 6L40 5L39 5L39 4L38 4L38 2L39 2L39 3L40 3L40 4L41 4L41 5L42 5L42 7L43 7L43 3L44 3L44 4L45 4L45 3L44 3L44 1L43 1L43 0L38 0L38 1L36 1L36 2L35 2L35 1L34 1L34 2L33 2L33 1L32 1L32 0L30 0L30 1L31 1L31 2L32 2L32 3L33 3L33 4L34 4L34 3L35 3L35 4L36 4L36 5L32 5L32 4L30 4L30 2L28 2L28 4L27 4L27 3L26 3L26 1L27 1L27 0L23 0L23 2L25 2L25 3L22 3L22 2L21 2L21 1L22 1L22 0L19 0L19 2L21 2L21 3L20 3L20 5L18 5L18 4L17 4L17 2L12 2L12 1L14 1L14 0L11 0L11 2L10 2L10 1L9 1L9 0ZM17 0L17 1L18 1L18 0ZM28 0L28 1L29 1L29 0ZM39 1L39 2L40 2L40 3L41 3L41 2L42 2L42 3L43 3L43 2L42 2L42 1L41 1L41 2L40 2L40 1ZM9 2L9 3L10 3L10 5L11 5L11 7L12 7L12 6L13 6L13 8L11 8L11 9L12 9L12 10L14 10L14 12L13 12L13 13L11 13L11 14L15 14L15 15L14 15L14 16L15 16L15 15L16 15L16 16L17 16L17 17L15 17L15 18L14 18L14 19L15 19L15 18L16 18L16 20L15 20L15 21L14 21L14 22L15 22L15 21L16 21L16 23L17 23L17 21L16 21L16 20L17 20L17 19L18 19L18 20L19 20L19 19L20 19L20 21L18 21L18 23L19 23L19 25L18 25L18 24L17 24L17 25L15 25L15 24L14 24L14 23L13 23L13 24L12 24L12 23L11 23L11 22L10 22L10 21L11 21L11 20L10 20L10 21L8 21L8 20L7 20L7 21L6 21L6 22L7 22L7 23L6 23L6 24L7 24L7 23L8 23L8 22L9 22L9 25L10 25L10 28L9 28L9 32L8 32L8 33L5 33L5 31L6 31L6 32L7 32L7 31L6 31L6 30L7 30L7 29L6 29L6 30L4 30L4 32L2 32L2 33L3 33L3 34L4 34L4 35L6 35L6 36L5 36L5 39L6 39L6 40L5 40L5 41L4 41L4 42L10 42L10 43L9 43L9 44L10 44L10 46L12 46L12 47L13 47L13 46L12 46L12 44L13 44L13 45L14 45L14 46L15 46L15 47L16 47L16 48L17 48L17 49L18 49L18 48L19 48L19 49L21 49L21 51L22 51L22 49L24 49L24 50L23 50L23 51L24 51L24 50L26 50L26 49L24 49L24 45L23 45L23 44L22 44L22 42L21 42L21 43L20 43L20 42L19 42L19 41L23 41L23 39L22 39L22 40L20 40L20 38L19 38L19 37L18 37L18 36L20 36L20 37L21 37L21 35L22 35L22 33L24 33L24 35L25 35L25 37L24 37L24 40L25 40L25 41L24 41L24 43L25 43L25 41L26 41L26 44L28 44L28 43L27 43L27 42L29 42L29 41L30 41L30 40L31 40L31 42L30 42L30 43L31 43L31 42L32 42L32 40L33 40L33 41L34 41L34 43L36 43L36 40L35 40L35 41L34 41L34 40L33 40L33 39L37 39L37 38L38 38L38 36L39 36L39 39L38 39L38 41L37 41L37 44L38 44L38 45L36 45L36 46L35 46L35 45L34 45L34 44L33 44L33 49L32 49L32 47L30 47L30 44L29 44L29 47L30 47L30 49L31 49L31 50L30 50L30 51L31 51L31 52L32 52L32 51L31 51L31 50L33 50L33 49L34 49L34 51L35 51L35 52L37 52L37 51L38 51L38 52L39 52L39 51L40 51L40 50L41 50L41 47L40 47L40 48L39 48L39 51L38 51L38 50L37 50L37 49L36 49L36 48L35 48L35 47L36 47L36 46L37 46L37 47L38 47L38 45L39 45L39 46L40 46L40 45L41 45L41 43L40 43L40 44L39 44L39 43L38 43L38 41L39 41L39 42L40 42L40 41L41 41L41 40L42 40L42 41L43 41L43 40L42 40L42 39L41 39L41 35L42 35L42 37L43 37L43 34L45 34L45 35L46 35L46 33L43 33L43 32L42 32L42 31L40 31L40 32L39 32L39 31L37 31L37 30L38 30L38 28L39 28L39 27L38 27L38 28L37 28L37 30L35 30L35 29L34 29L34 28L33 28L33 29L32 29L32 31L33 31L33 33L32 33L32 32L31 32L31 31L30 31L30 29L31 29L31 28L32 28L32 27L33 27L33 26L34 26L34 27L37 27L37 26L38 26L38 25L39 25L39 26L40 26L40 25L41 25L41 24L42 24L42 25L43 25L43 26L44 26L44 25L43 25L43 24L42 24L42 23L41 23L41 24L40 24L40 25L39 25L39 23L40 23L40 22L41 22L41 21L42 21L42 20L44 20L44 21L45 21L45 20L46 20L46 23L47 23L47 24L48 24L48 22L49 22L49 23L50 23L50 25L51 25L51 23L52 23L52 22L50 22L50 21L52 21L52 17L51 17L51 15L50 15L50 16L49 16L49 17L48 17L48 15L49 15L49 14L52 14L52 13L51 13L51 11L52 11L52 10L51 10L51 11L50 11L50 10L48 10L48 11L47 11L47 12L48 12L48 11L49 11L49 14L47 14L47 13L46 13L46 15L44 15L44 14L43 14L43 16L44 16L44 17L43 17L43 18L44 18L44 19L41 19L41 18L40 18L40 17L41 17L41 16L40 16L40 15L39 15L39 16L38 16L38 13L39 13L39 12L37 12L37 14L35 14L35 13L34 13L34 12L33 12L33 14L32 14L32 13L31 13L31 16L29 16L29 15L30 15L30 13L28 13L28 14L26 14L26 13L25 13L25 11L26 11L26 12L27 12L27 10L28 10L28 9L27 9L27 10L25 10L25 9L24 9L24 8L23 8L23 7L24 7L24 4L23 4L23 7L22 7L22 6L21 6L21 7L20 7L20 6L19 6L19 7L20 7L20 8L19 8L19 9L18 9L18 8L17 8L17 9L14 9L14 6L13 6L13 5L12 5L12 4L13 4L13 3L12 3L12 2L11 2L11 3L10 3L10 2ZM14 3L14 5L15 5L15 8L16 8L16 6L17 6L17 7L18 7L18 6L17 6L17 4L16 4L16 3ZM21 3L21 4L22 4L22 3ZM25 3L25 4L26 4L26 3ZM36 3L36 4L37 4L37 8L38 8L38 9L39 9L39 7L40 7L40 6L39 6L39 7L38 7L38 4L37 4L37 3ZM15 4L15 5L16 5L16 4ZM29 4L29 5L30 5L30 6L29 6L29 7L30 7L30 8L29 8L29 11L30 11L30 12L31 12L31 11L30 11L30 9L31 9L31 10L32 10L32 8L31 8L31 7L32 7L32 5L30 5L30 4ZM25 5L25 8L28 8L28 5ZM9 6L9 7L10 7L10 6ZM26 6L26 7L27 7L27 6ZM30 6L30 7L31 7L31 6ZM33 6L33 7L34 7L34 6ZM35 6L35 8L36 8L36 6ZM44 6L44 8L45 8L45 6ZM0 8L0 9L2 9L2 8ZM21 8L21 9L19 9L19 11L17 11L17 10L15 10L15 12L14 12L14 13L15 13L15 14L16 14L16 15L17 15L17 14L18 14L18 15L21 15L21 17L20 17L20 16L18 16L18 17L17 17L17 18L18 18L18 19L19 19L19 18L21 18L21 17L22 17L22 19L21 19L21 21L20 21L20 22L19 22L19 23L20 23L20 22L21 22L21 23L22 23L22 24L21 24L21 25L19 25L19 26L20 26L20 27L22 27L22 28L21 28L21 29L20 29L20 28L18 28L18 29L17 29L17 28L16 28L16 27L17 27L17 26L18 26L18 25L17 25L17 26L15 26L15 25L13 25L13 28L14 28L14 29L10 29L10 31L11 31L11 32L9 32L9 34L11 34L11 35L10 35L10 36L9 36L9 35L8 35L8 34L6 34L6 35L8 35L8 38L6 38L6 39L7 39L7 40L6 40L6 41L7 41L7 40L8 40L8 41L9 41L9 37L10 37L10 38L11 38L11 39L12 39L12 40L11 40L11 42L12 42L12 43L11 43L11 44L12 44L12 43L14 43L14 44L16 44L16 45L19 45L19 46L20 46L20 47L21 47L21 48L22 48L22 46L23 46L23 45L22 45L22 44L21 44L21 45L19 45L19 44L18 44L18 41L19 41L19 40L18 40L18 37L17 37L17 36L18 36L18 34L17 34L17 35L15 35L15 33L17 33L17 32L14 32L14 31L13 31L13 30L14 30L14 29L15 29L15 28L16 28L16 29L17 29L17 30L15 30L15 31L18 31L18 33L19 33L19 34L21 34L21 33L19 33L19 31L18 31L18 29L20 29L20 31L21 31L21 32L22 32L22 31L21 31L21 30L23 30L23 32L24 32L24 33L25 33L25 35L26 35L26 33L27 33L27 32L29 32L29 34L27 34L27 35L28 35L28 36L26 36L26 37L25 37L25 39L26 39L26 41L27 41L27 40L29 40L29 39L27 39L27 38L26 38L26 37L28 37L28 36L29 36L29 37L30 37L30 39L31 39L31 40L32 40L32 39L31 39L31 38L33 38L33 36L35 36L35 37L36 37L36 38L37 38L37 36L38 36L38 34L39 34L39 36L40 36L40 34L43 34L43 33L40 33L40 34L39 34L39 33L38 33L38 34L37 34L37 35L36 35L36 34L35 34L35 35L34 35L34 34L31 34L31 32L30 32L30 31L28 31L28 30L29 30L29 28L31 28L31 27L32 27L32 26L33 26L33 25L35 25L35 26L37 26L37 23L36 23L36 22L35 22L35 23L33 23L33 20L34 20L34 21L38 21L38 23L39 23L39 21L40 21L40 18L39 18L39 17L40 17L40 16L39 16L39 17L38 17L38 16L37 16L37 15L35 15L35 16L34 16L34 14L33 14L33 15L32 15L32 17L33 17L33 16L34 16L34 17L35 17L35 19L31 19L31 17L30 17L30 18L29 18L29 16L27 16L27 17L28 17L28 18L27 18L27 20L28 20L28 19L29 19L29 20L30 20L30 19L31 19L31 21L30 21L30 23L29 23L29 22L28 22L28 24L26 24L26 22L27 22L27 21L25 21L25 20L26 20L26 15L25 15L25 13L24 13L24 14L23 14L23 13L22 13L22 12L21 12L21 11L25 11L25 10L24 10L24 9L22 9L22 8ZM21 9L21 10L20 10L20 11L21 11L21 10L22 10L22 9ZM0 10L0 12L1 12L1 10ZM3 10L3 11L4 11L4 12L5 12L5 11L4 11L4 10ZM6 11L6 12L7 12L7 11ZM15 12L15 13L16 13L16 14L17 14L17 13L16 13L16 12ZM19 12L19 14L20 14L20 13L21 13L21 12ZM21 14L21 15L22 15L22 17L23 17L23 20L22 20L22 21L21 21L21 22L22 22L22 23L23 23L23 22L22 22L22 21L23 21L23 20L25 20L25 19L24 19L24 17L25 17L25 15L24 15L24 16L23 16L23 15L22 15L22 14ZM28 14L28 15L29 15L29 14ZM41 14L41 15L42 15L42 14ZM6 15L6 16L7 16L7 15ZM3 17L3 18L4 18L4 19L5 19L5 18L4 18L4 17ZM18 17L18 18L19 18L19 17ZM36 17L36 19L35 19L35 20L36 20L36 19L37 19L37 20L38 20L38 19L39 19L39 18L38 18L38 17ZM44 17L44 18L45 18L45 19L46 19L46 20L47 20L47 22L48 22L48 21L49 21L49 18L50 18L50 19L51 19L51 18L50 18L50 17L49 17L49 18L47 18L47 19L46 19L46 18L45 18L45 17ZM37 18L37 19L38 19L38 18ZM31 21L31 22L32 22L32 21ZM43 22L43 23L44 23L44 24L45 24L45 22ZM10 23L10 24L11 24L11 28L12 28L12 24L11 24L11 23ZM24 23L24 24L25 24L25 23ZM30 23L30 24L29 24L29 25L31 25L31 26L30 26L30 27L31 27L31 26L32 26L32 24L31 24L31 23ZM35 23L35 24L36 24L36 23ZM22 24L22 25L21 25L21 26L22 26L22 25L23 25L23 27L24 27L24 25L23 25L23 24ZM5 25L5 28L8 28L8 25ZM25 25L25 28L28 28L28 25ZM45 25L45 28L48 28L48 25ZM6 26L6 27L7 27L7 26ZM14 26L14 28L15 28L15 26ZM26 26L26 27L27 27L27 26ZM46 26L46 27L47 27L47 26ZM40 27L40 29L39 29L39 30L40 30L40 29L42 29L42 28L43 28L43 31L44 31L44 27ZM22 28L22 29L23 29L23 28ZM24 29L24 30L25 30L25 31L27 31L27 29ZM45 29L45 32L47 32L47 31L46 31L46 29ZM47 29L47 30L48 30L48 29ZM52 29L52 32L51 32L51 33L52 33L52 34L51 34L51 35L53 35L53 33L52 33L52 32L53 32L53 29ZM12 31L12 32L11 32L11 34L12 34L12 36L10 36L10 37L11 37L11 38L12 38L12 37L14 37L14 38L16 38L16 39L17 39L17 37L16 37L16 36L15 36L15 37L14 37L14 35L13 35L13 34L14 34L14 33L13 33L13 31ZM36 31L36 32L35 32L35 33L37 33L37 31ZM48 31L48 32L49 32L49 31ZM25 32L25 33L26 33L26 32ZM4 33L4 34L5 34L5 33ZM12 33L12 34L13 34L13 33ZM29 34L29 35L30 35L30 37L31 37L31 34ZM6 36L6 37L7 37L7 36ZM22 36L22 37L23 37L23 36ZM3 39L3 40L4 40L4 39ZM13 39L13 40L12 40L12 42L13 42L13 41L15 41L15 42L16 42L16 44L17 44L17 41L18 41L18 40L17 40L17 41L15 41L15 40L14 40L14 39ZM44 40L44 42L43 42L43 43L42 43L42 45L43 45L43 48L44 48L44 45L43 45L43 43L46 43L46 44L48 44L48 42L47 42L47 43L46 43L46 42L45 42L45 40ZM49 42L49 43L50 43L50 42ZM25 45L25 48L28 48L28 45ZM31 45L31 46L32 46L32 45ZM45 45L45 48L48 48L48 45ZM52 45L52 48L51 48L51 49L52 49L52 50L53 50L53 49L52 49L52 48L53 48L53 45ZM16 46L16 47L18 47L18 46ZM26 46L26 47L27 47L27 46ZM46 46L46 47L47 47L47 46ZM9 47L9 48L10 48L10 50L11 50L11 51L9 51L9 52L11 52L11 51L12 51L12 52L13 52L13 51L12 51L12 50L11 50L11 49L12 49L12 48L11 48L11 47ZM34 48L34 49L35 49L35 48ZM35 50L35 51L36 51L36 50ZM45 50L45 51L46 51L46 53L50 53L50 51L51 51L51 53L52 53L52 52L53 52L53 51L51 51L51 50L50 50L50 51L49 51L49 52L47 52L47 51L46 51L46 50ZM18 52L18 53L20 53L20 52ZM41 52L41 53L42 53L42 52ZM0 0L0 7L7 7L7 0ZM1 1L1 6L6 6L6 1ZM2 2L2 5L5 5L5 2ZM46 0L46 7L53 7L53 0ZM47 1L47 6L52 6L52 1ZM48 2L48 5L51 5L51 2ZM0 46L0 53L7 53L7 46ZM1 47L1 52L6 52L6 47ZM2 48L2 51L5 51L5 48Z" fill="#000000"/></g></g></svg>
