<?xml version="1.0" encoding="UTF-8"?>
<svg xmlns="http://www.w3.org/2000/svg" version="1.1" width="100" height="100" viewBox="0 0 100 100"><rect x="0" y="0" width="100" height="100" fill="#ffffff"/><g transform="scale(1.887)"><g transform="translate(0,0)"><path fill-rule="evenodd" d="M9 0L9 1L8 1L8 2L9 2L9 3L8 3L8 4L9 4L9 5L8 5L8 7L9 7L9 8L6 8L6 9L7 9L7 10L4 10L4 11L3 11L3 9L5 9L5 8L0 8L0 9L1 9L1 10L0 10L0 12L1 12L1 10L2 10L2 11L3 11L3 12L4 12L4 13L7 13L7 14L2 14L2 15L0 15L0 18L1 18L1 19L0 19L0 20L1 20L1 21L2 21L2 22L3 22L3 23L4 23L4 24L3 24L3 25L2 25L2 26L1 26L1 25L0 25L0 26L1 26L1 27L0 27L0 28L1 28L1 29L0 29L0 30L1 30L1 31L0 31L0 32L1 32L1 31L4 31L4 32L2 32L2 33L3 33L3 35L8 35L8 36L9 36L9 35L8 35L8 34L9 34L9 32L8 32L8 33L7 33L7 32L5 32L5 31L4 31L4 29L7 29L7 30L6 30L6 31L9 31L9 30L8 30L8 29L10 29L10 30L11 30L11 31L10 31L10 37L9 37L9 38L8 38L8 37L7 37L7 36L2 36L2 35L1 35L1 34L0 34L0 35L1 35L1 36L2 36L2 37L1 37L1 38L0 38L0 40L1 40L1 41L0 41L0 43L1 43L1 44L3 44L3 45L4 45L4 44L3 44L3 43L8 43L8 44L6 44L6 45L8 45L8 47L10 47L10 48L12 48L12 49L11 49L11 51L12 51L12 52L11 52L11 53L12 53L12 52L13 52L13 53L14 53L14 52L16 52L16 53L17 53L17 52L18 52L18 53L19 53L19 50L18 50L18 49L21 49L21 50L20 50L20 51L21 51L21 52L20 52L20 53L22 53L22 51L21 51L21 50L23 50L23 51L24 51L24 49L25 49L25 52L23 52L23 53L26 53L26 49L27 49L27 51L28 51L28 52L27 52L27 53L28 53L28 52L29 52L29 50L30 50L30 51L32 51L32 52L33 52L33 53L34 53L34 52L33 52L33 51L35 51L35 53L38 53L38 51L39 51L39 53L40 53L40 52L41 52L41 53L42 53L42 52L43 52L43 53L49 53L49 52L50 52L50 53L51 53L51 52L52 52L52 51L53 51L53 49L51 49L51 48L50 48L50 47L51 47L51 46L53 46L53 45L52 45L52 44L53 44L53 43L52 43L52 44L50 44L50 43L51 43L51 42L50 42L50 43L49 43L49 44L48 44L48 42L49 42L49 41L47 41L47 43L42 43L42 44L41 44L41 43L40 43L40 42L43 42L43 41L42 41L42 39L41 39L41 38L43 38L43 40L44 40L44 42L45 42L45 39L44 39L44 38L46 38L46 37L42 37L42 36L48 36L48 35L49 35L49 34L51 34L51 35L52 35L52 36L50 36L50 37L51 37L51 38L49 38L49 37L48 37L48 39L46 39L46 40L50 40L50 41L51 41L51 40L50 40L50 39L51 39L51 38L53 38L53 35L52 35L52 34L53 34L53 33L51 33L51 32L50 32L50 30L53 30L53 29L52 29L52 28L53 28L53 27L51 27L51 28L50 28L50 30L49 30L49 27L50 27L50 26L49 26L49 24L50 24L50 25L51 25L51 26L53 26L53 23L51 23L51 24L50 24L50 23L49 23L49 24L48 24L48 21L49 21L49 22L50 22L50 21L52 21L52 22L53 22L53 20L47 20L47 22L45 22L45 24L44 24L44 23L43 23L43 24L44 24L44 25L42 25L42 23L41 23L41 25L39 25L39 24L40 24L40 23L39 23L39 22L40 22L40 21L39 21L39 22L38 22L38 21L37 21L37 20L36 20L36 19L38 19L38 20L42 20L42 21L41 21L41 22L43 22L43 19L44 19L44 17L45 17L45 19L47 19L47 18L46 18L46 16L48 16L48 17L50 17L50 19L51 19L51 18L53 18L53 17L51 17L51 16L52 16L52 14L53 14L53 13L51 13L51 12L52 12L52 11L51 11L51 10L50 10L50 11L51 11L51 12L48 12L48 11L49 11L49 9L50 9L50 8L49 8L49 9L48 9L48 8L47 8L47 9L48 9L48 10L46 10L46 8L45 8L45 6L44 6L44 8L43 8L43 3L44 3L44 4L45 4L45 3L44 3L44 1L43 1L43 0L40 0L40 1L39 1L39 3L41 3L41 1L42 1L42 2L43 2L43 3L42 3L42 4L41 4L41 5L42 5L42 7L41 7L41 6L40 6L40 7L39 7L39 6L38 6L38 2L37 2L37 1L38 1L38 0L37 0L37 1L36 1L36 2L37 2L37 3L36 3L36 5L34 5L34 4L35 4L35 3L34 3L34 2L35 2L35 1L34 1L34 0L32 0L32 1L33 1L33 2L32 2L32 3L33 3L33 4L32 4L32 5L31 5L31 2L30 2L30 5L29 5L29 4L27 4L27 3L26 3L26 2L28 2L28 1L29 1L29 0L27 0L27 1L26 1L26 2L25 2L25 0L23 0L23 2L22 2L22 1L21 1L21 3L20 3L20 4L19 4L19 2L17 2L17 6L16 6L16 5L15 5L15 4L14 4L14 3L16 3L16 0L14 0L14 1L13 1L13 0L11 0L11 1L10 1L10 0ZM17 0L17 1L18 1L18 0ZM30 0L30 1L31 1L31 0ZM12 1L12 4L11 4L11 3L10 3L10 4L11 4L11 7L10 7L10 5L9 5L9 7L10 7L10 8L11 8L11 9L8 9L8 10L11 10L11 11L10 11L10 13L13 13L13 8L14 8L14 9L16 9L16 12L19 12L19 11L17 11L17 10L20 10L20 11L21 11L21 13L20 13L20 14L21 14L21 15L19 15L19 14L18 14L18 15L19 15L19 17L18 17L18 16L17 16L17 17L16 17L16 16L15 16L15 15L17 15L17 13L15 13L15 10L14 10L14 13L15 13L15 15L14 15L14 16L10 16L10 17L6 17L6 16L9 16L9 15L10 15L10 14L8 14L8 15L2 15L2 16L1 16L1 17L2 17L2 16L5 16L5 18L4 18L4 17L3 17L3 18L2 18L2 19L1 19L1 20L2 20L2 19L3 19L3 20L4 20L4 21L3 21L3 22L4 22L4 23L6 23L6 24L8 24L8 22L7 22L7 21L6 21L6 22L4 22L4 21L5 21L5 20L4 20L4 19L5 19L5 18L7 18L7 19L6 19L6 20L7 20L7 19L8 19L8 18L9 18L9 20L8 20L8 21L10 21L10 22L9 22L9 24L10 24L10 25L9 25L9 26L10 26L10 27L9 27L9 28L10 28L10 29L12 29L12 31L14 31L14 32L11 32L11 37L10 37L10 38L9 38L9 40L8 40L8 39L5 39L5 41L4 41L4 40L2 40L2 41L3 41L3 42L2 42L2 43L3 43L3 42L7 42L7 41L6 41L6 40L8 40L8 41L9 41L9 40L10 40L10 42L9 42L9 44L8 44L8 45L9 45L9 46L10 46L10 47L11 47L11 46L12 46L12 47L13 47L13 46L12 46L12 45L11 45L11 46L10 46L10 45L9 45L9 44L10 44L10 42L11 42L11 40L10 40L10 38L12 38L12 43L11 43L11 44L12 44L12 43L13 43L13 42L15 42L15 41L16 41L16 42L17 42L17 44L18 44L18 42L19 42L19 44L21 44L21 45L16 45L16 46L15 46L15 47L18 47L18 46L19 46L19 48L21 48L21 47L20 47L20 46L22 46L22 45L23 45L23 46L24 46L24 45L23 45L23 44L25 44L25 43L24 43L24 42L26 42L26 44L29 44L29 46L30 46L30 47L29 47L29 48L30 48L30 49L31 49L31 48L32 48L32 49L33 49L33 50L35 50L35 51L36 51L36 50L37 50L37 51L38 51L38 50L39 50L39 51L43 51L43 50L44 50L44 52L47 52L47 51L45 51L45 50L44 50L44 46L40 46L40 47L41 47L41 48L40 48L40 50L39 50L39 48L37 48L37 47L38 47L38 46L39 46L39 45L38 45L38 44L39 44L39 43L38 43L38 42L39 42L39 41L38 41L38 40L40 40L40 41L41 41L41 40L40 40L40 38L41 38L41 36L42 36L42 35L41 35L41 36L40 36L40 38L39 38L39 33L38 33L38 38L39 38L39 39L38 39L38 40L37 40L37 39L34 39L34 38L36 38L36 37L35 37L35 36L37 36L37 35L36 35L36 34L37 34L37 33L35 33L35 32L34 32L34 30L35 30L35 29L34 29L34 30L32 30L32 29L33 29L33 28L32 28L32 27L33 27L33 25L34 25L34 26L35 26L35 25L34 25L34 24L35 24L35 23L36 23L36 24L39 24L39 23L38 23L38 22L37 22L37 21L34 21L34 22L33 22L33 20L30 20L30 19L34 19L34 20L35 20L35 19L36 19L36 18L37 18L37 17L38 17L38 19L39 19L39 17L41 17L41 16L43 16L43 17L44 17L44 16L46 16L46 15L44 15L44 14L47 14L47 13L43 13L43 12L47 12L47 11L43 11L43 10L41 10L41 9L42 9L42 8L39 8L39 7L38 7L38 6L37 6L37 7L36 7L36 6L35 6L35 7L34 7L34 5L32 5L32 6L31 6L31 5L30 5L30 6L29 6L29 10L28 10L28 12L27 12L27 9L24 9L24 4L26 4L26 3L21 3L21 4L20 4L20 5L19 5L19 4L18 4L18 5L19 5L19 7L18 7L18 6L17 6L17 7L16 7L16 6L15 6L15 5L14 5L14 4L13 4L13 1ZM12 4L12 7L13 7L13 4ZM22 4L22 8L23 8L23 4ZM39 4L39 5L40 5L40 4ZM25 5L25 8L28 8L28 5ZM14 6L14 8L15 8L15 6ZM20 6L20 7L19 7L19 8L18 8L18 9L21 9L21 11L22 11L22 12L26 12L26 11L22 11L22 10L24 10L24 9L21 9L21 8L20 8L20 7L21 7L21 6ZM26 6L26 7L27 7L27 6ZM30 6L30 8L31 8L31 9L30 9L30 10L29 10L29 11L30 11L30 12L28 12L28 13L30 13L30 14L29 14L29 15L28 15L28 17L27 17L27 16L26 16L26 15L24 15L24 16L26 16L26 18L25 18L25 17L24 17L24 18L23 18L23 17L21 17L21 16L23 16L23 15L21 15L21 16L20 16L20 17L21 17L21 18L23 18L23 21L21 21L21 20L22 20L22 19L21 19L21 20L20 20L20 19L18 19L18 17L17 17L17 18L16 18L16 17L15 17L15 19L14 19L14 18L13 18L13 17L12 17L12 18L10 18L10 21L11 21L11 22L10 22L10 23L11 23L11 26L12 26L12 28L13 28L13 29L14 29L14 30L15 30L15 31L16 31L16 33L15 33L15 34L14 34L14 33L12 33L12 37L14 37L14 38L13 38L13 39L14 39L14 40L13 40L13 41L15 41L15 40L16 40L16 41L17 41L17 42L18 42L18 41L22 41L22 42L24 42L24 41L26 41L26 42L27 42L27 43L28 43L28 39L29 39L29 40L30 40L30 41L29 41L29 42L30 42L30 43L31 43L31 44L30 44L30 46L31 46L31 47L30 47L30 48L31 48L31 47L32 47L32 48L33 48L33 49L35 49L35 47L36 47L36 45L37 45L37 46L38 46L38 45L37 45L37 44L34 44L34 43L36 43L36 42L38 42L38 41L37 41L37 40L36 40L36 42L32 42L32 39L30 39L30 38L31 38L31 37L30 37L30 36L33 36L33 38L34 38L34 35L35 35L35 34L34 34L34 32L33 32L33 31L32 31L32 30L31 30L31 29L30 29L30 30L29 30L29 26L30 26L30 27L32 27L32 24L34 24L34 23L35 23L35 22L34 22L34 23L33 23L33 22L32 22L32 21L30 21L30 22L29 22L29 23L30 23L30 24L31 24L31 25L29 25L29 24L26 24L26 22L25 22L25 21L27 21L27 22L28 22L28 20L29 20L29 19L28 19L28 18L29 18L29 15L30 15L30 14L32 14L32 13L31 13L31 12L33 12L33 15L32 15L32 16L31 16L31 17L30 17L30 18L34 18L34 19L35 19L35 18L36 18L36 17L37 17L37 16L35 16L35 15L37 15L37 14L38 14L38 17L39 17L39 15L40 15L40 14L38 14L38 13L39 13L39 11L37 11L37 10L38 10L38 9L39 9L39 10L40 10L40 9L39 9L39 8L38 8L38 9L37 9L37 8L36 8L36 7L35 7L35 8L34 8L34 7L33 7L33 6L32 6L32 7L31 7L31 6ZM16 8L16 9L17 9L17 8ZM32 8L32 11L34 11L34 10L35 10L35 9L34 9L34 10L33 10L33 8ZM51 8L51 9L52 9L52 8ZM11 9L11 10L12 10L12 9ZM44 9L44 10L45 10L45 9ZM30 10L30 11L31 11L31 10ZM5 11L5 12L7 12L7 13L8 13L8 12L7 12L7 11ZM36 11L36 12L37 12L37 11ZM40 11L40 12L41 12L41 11ZM42 11L42 12L43 12L43 11ZM0 13L0 14L1 14L1 13ZM22 13L22 14L23 14L23 13ZM24 13L24 14L26 14L26 13ZM34 13L34 14L35 14L35 13ZM41 13L41 15L42 15L42 14L43 14L43 13ZM12 14L12 15L13 15L13 14ZM48 15L48 16L49 16L49 15ZM50 15L50 16L51 16L51 15ZM32 16L32 17L33 17L33 16ZM34 17L34 18L35 18L35 17ZM12 18L12 19L13 19L13 20L14 20L14 21L13 21L13 22L14 22L14 21L15 21L15 22L17 22L17 23L16 23L16 24L15 24L15 25L13 25L13 24L14 24L14 23L13 23L13 24L12 24L12 26L14 26L14 29L15 29L15 25L16 25L16 27L17 27L17 25L18 25L18 26L19 26L19 29L18 29L18 28L17 28L17 29L16 29L16 31L18 31L18 32L17 32L17 33L16 33L16 34L15 34L15 35L16 35L16 36L17 36L17 37L16 37L16 38L17 38L17 39L16 39L16 40L17 40L17 41L18 41L18 38L19 38L19 40L20 40L20 38L22 38L22 39L23 39L23 40L22 40L22 41L23 41L23 40L24 40L24 38L26 38L26 37L28 37L28 38L27 38L27 39L28 39L28 38L30 38L30 37L29 37L29 36L30 36L30 35L29 35L29 32L30 32L30 31L31 31L31 30L30 30L30 31L28 31L28 35L27 35L27 34L26 34L26 33L27 33L27 32L26 32L26 33L24 33L24 32L25 32L25 31L27 31L27 30L28 30L28 29L27 29L27 30L25 30L25 29L24 29L24 30L23 30L23 32L22 32L22 33L24 33L24 34L21 34L21 33L18 33L18 32L21 32L21 31L22 31L22 29L23 29L23 28L24 28L24 27L23 27L23 26L24 26L24 25L23 25L23 24L24 24L24 23L25 23L25 22L23 22L23 23L21 23L21 21L20 21L20 20L19 20L19 21L18 21L18 22L17 22L17 21L15 21L15 20L14 20L14 19L13 19L13 18ZM24 18L24 19L25 19L25 18ZM26 18L26 20L27 20L27 18ZM41 18L41 19L43 19L43 18ZM17 19L17 20L18 20L18 19ZM11 20L11 21L12 21L12 20ZM44 20L44 21L45 21L45 20ZM19 21L19 22L18 22L18 23L20 23L20 21ZM0 22L0 24L1 24L1 22ZM6 22L6 23L7 23L7 22ZM11 22L11 23L12 23L12 22ZM30 22L30 23L31 23L31 22ZM36 22L36 23L37 23L37 22ZM46 23L46 24L47 24L47 23ZM16 24L16 25L17 25L17 24ZM18 24L18 25L21 25L21 26L20 26L20 27L22 27L22 26L23 26L23 25L21 25L21 24ZM51 24L51 25L52 25L52 24ZM5 25L5 28L8 28L8 25ZM25 25L25 28L28 28L28 25ZM38 25L38 26L39 26L39 25ZM45 25L45 28L48 28L48 25ZM2 26L2 27L3 27L3 26ZM6 26L6 27L7 27L7 26ZM26 26L26 27L27 27L27 26ZM40 26L40 27L43 27L43 28L44 28L44 27L43 27L43 26ZM46 26L46 27L47 27L47 26ZM34 27L34 28L37 28L37 27ZM38 27L38 30L39 30L39 29L42 29L42 28L39 28L39 27ZM2 28L2 29L1 29L1 30L3 30L3 28ZM20 28L20 29L19 29L19 30L18 30L18 29L17 29L17 30L18 30L18 31L19 31L19 30L20 30L20 31L21 31L21 30L20 30L20 29L21 29L21 28ZM44 29L44 30L40 30L40 31L42 31L42 32L40 32L40 33L46 33L46 31L47 31L47 32L48 32L48 31L49 31L49 30L48 30L48 29L47 29L47 30L45 30L45 29ZM44 30L44 31L43 31L43 32L45 32L45 30ZM36 31L36 32L39 32L39 31ZM4 32L4 33L5 33L5 34L7 34L7 33L5 33L5 32ZM32 32L32 33L33 33L33 32ZM49 32L49 33L50 33L50 32ZM16 34L16 35L17 35L17 34ZM18 34L18 37L17 37L17 38L18 38L18 37L19 37L19 34ZM24 34L24 35L26 35L26 34ZM45 34L45 35L47 35L47 34ZM13 35L13 36L14 36L14 37L15 37L15 36L14 36L14 35ZM21 35L21 36L20 36L20 37L21 37L21 36L22 36L22 35ZM23 36L23 37L22 37L22 38L24 38L24 37L26 37L26 36ZM5 37L5 38L7 38L7 37ZM1 38L1 39L3 39L3 38ZM25 39L25 40L26 40L26 41L27 41L27 40L26 40L26 39ZM33 39L33 41L35 41L35 40L34 40L34 39ZM52 40L52 42L53 42L53 40ZM20 42L20 43L21 43L21 42ZM14 43L14 45L15 45L15 43ZM31 44L31 45L32 45L32 46L33 46L33 48L34 48L34 46L35 46L35 45L34 45L34 46L33 46L33 44ZM40 44L40 45L41 45L41 44ZM42 44L42 45L44 45L44 44ZM49 44L49 46L50 46L50 44ZM25 45L25 48L28 48L28 45ZM45 45L45 48L48 48L48 45ZM26 46L26 47L27 47L27 46ZM46 46L46 47L47 47L47 46ZM8 48L8 53L9 53L9 51L10 51L10 50L9 50L9 48ZM13 48L13 49L16 49L16 50L17 50L17 49L18 49L18 48L17 48L17 49L16 49L16 48ZM22 48L22 49L24 49L24 48ZM36 48L36 49L37 49L37 48ZM41 48L41 50L43 50L43 48ZM49 48L49 49L48 49L48 50L49 50L49 51L50 51L50 52L51 52L51 51L52 51L52 50L51 50L51 51L50 51L50 50L49 50L49 49L50 49L50 48ZM28 49L28 50L29 50L29 49ZM46 49L46 50L47 50L47 49ZM12 50L12 51L13 51L13 52L14 52L14 51L15 51L15 50L14 50L14 51L13 51L13 50ZM16 51L16 52L17 52L17 51ZM0 0L0 7L7 7L7 0ZM1 1L1 6L6 6L6 1ZM2 2L2 5L5 5L5 2ZM46 0L46 7L53 7L53 0ZM47 1L47 6L52 6L52 1ZM48 2L48 5L51 5L51 2ZM0 46L0 53L7 53L7 46ZM1 47L1 52L6 52L6 47ZM2 48L2 51L5 51L5 48Z" fill="#000000"/></g></g></svg>
