<?xml version="1.0" encoding="UTF-8"?>
<svg xmlns="http://www.w3.org/2000/svg" version="1.1" width="100" height="100" viewBox="0 0 100 100"><rect x="0" y="0" width="100" height="100" fill="#ffffff"/><g transform="scale(1.754)"><g transform="translate(0,0)"><path fill-rule="evenodd" d="M17 0L17 1L12 1L12 2L11 2L11 1L8 1L8 2L10 2L10 3L8 3L8 4L10 4L10 3L12 3L12 2L14 2L14 3L13 3L13 5L16 5L16 4L14 4L14 3L16 3L16 2L17 2L17 5L18 5L18 4L19 4L19 5L20 5L20 7L19 7L19 6L18 6L18 7L19 7L19 8L18 8L18 9L17 9L17 8L16 8L16 7L17 7L17 6L16 6L16 7L15 7L15 6L14 6L14 7L13 7L13 6L12 6L12 5L10 5L10 7L9 7L9 5L8 5L8 7L9 7L9 8L6 8L6 9L5 9L5 8L0 8L0 10L1 10L1 12L0 12L0 13L1 13L1 14L0 14L0 15L1 15L1 14L2 14L2 16L0 16L0 19L1 19L1 17L2 17L2 16L3 16L3 18L2 18L2 21L1 21L1 20L0 20L0 21L1 21L1 22L0 22L0 24L1 24L1 25L0 25L0 27L1 27L1 25L3 25L3 26L2 26L2 28L0 28L0 30L3 30L3 31L2 31L2 32L0 32L0 35L1 35L1 36L2 36L2 37L0 37L0 38L1 38L1 39L2 39L2 40L1 40L1 42L0 42L0 44L1 44L1 45L0 45L0 48L5 48L5 47L7 47L7 48L6 48L6 49L8 49L8 51L10 51L10 52L8 52L8 57L10 57L10 56L11 56L11 57L12 57L12 56L11 56L11 55L13 55L13 54L11 54L11 53L12 53L12 51L13 51L13 53L14 53L14 51L15 51L15 53L16 53L16 54L14 54L14 57L17 57L17 53L20 53L20 52L24 52L24 53L21 53L21 55L22 55L22 54L24 54L24 53L25 53L25 54L27 54L27 56L28 56L28 57L29 57L29 56L30 56L30 57L35 57L35 56L36 56L36 57L37 57L37 56L36 56L36 55L35 55L35 54L38 54L38 57L40 57L40 56L41 56L41 57L43 57L43 56L45 56L45 57L48 57L48 56L46 56L46 55L47 55L47 54L43 54L43 52L42 52L42 51L40 51L40 50L41 50L41 49L39 49L39 50L38 50L38 49L37 49L37 48L41 48L41 47L40 47L40 46L43 46L43 47L44 47L44 48L43 48L43 49L42 49L42 50L43 50L43 51L44 51L44 52L45 52L45 51L44 51L44 50L43 50L43 49L44 49L44 48L46 48L46 49L47 49L47 50L46 50L46 53L53 53L53 52L56 52L56 50L53 50L53 48L54 48L54 49L56 49L56 48L55 48L55 47L54 47L54 46L55 46L55 45L56 45L56 46L57 46L57 45L56 45L56 41L55 41L55 42L53 42L53 44L55 44L55 45L54 45L54 46L52 46L52 48L51 48L51 47L50 47L50 45L49 45L49 44L48 44L48 43L50 43L50 44L52 44L52 43L50 43L50 42L51 42L51 41L54 41L54 40L55 40L55 39L57 39L57 36L56 36L56 34L55 34L55 31L54 31L54 30L57 30L57 27L56 27L56 26L57 26L57 24L56 24L56 22L57 22L57 19L56 19L56 17L57 17L57 15L56 15L56 17L55 17L55 13L53 13L53 15L51 15L51 14L52 14L52 13L51 13L51 12L53 12L53 11L54 11L54 12L55 12L55 11L56 11L56 10L57 10L57 9L56 9L56 8L55 8L55 9L56 9L56 10L55 10L55 11L54 11L54 10L53 10L53 11L52 11L52 8L51 8L51 11L50 11L50 8L49 8L49 9L48 9L48 10L49 10L49 11L48 11L48 12L49 12L49 13L48 13L48 15L47 15L47 14L46 14L46 13L47 13L47 12L46 12L46 11L47 11L47 10L46 10L46 9L47 9L47 8L48 8L48 7L49 7L49 6L48 6L48 7L47 7L47 5L48 5L48 0L46 0L46 1L45 1L45 2L44 2L44 0L41 0L41 2L39 2L39 1L40 1L40 0L39 0L39 1L38 1L38 0L35 0L35 1L34 1L34 0L27 0L27 1L25 1L25 0L24 0L24 1L25 1L25 2L27 2L27 3L29 3L29 2L28 2L28 1L31 1L31 2L30 2L30 3L31 3L31 4L26 4L26 3L23 3L23 4L22 4L22 3L21 3L21 2L22 2L22 1L23 1L23 0L22 0L22 1L20 1L20 0L19 0L19 1L18 1L18 0ZM33 1L33 2L31 2L31 3L32 3L32 4L31 4L31 5L32 5L32 6L31 6L31 7L32 7L32 8L31 8L31 9L32 9L32 10L30 10L30 9L25 9L25 8L26 8L26 4L25 4L25 8L24 8L24 6L23 6L23 5L24 5L24 4L23 4L23 5L22 5L22 6L21 6L21 7L22 7L22 6L23 6L23 8L22 8L22 9L23 9L23 12L24 12L24 13L22 13L22 12L21 12L21 11L22 11L22 10L21 10L21 9L18 9L18 10L17 10L17 9L15 9L15 7L14 7L14 9L15 9L15 10L16 10L16 11L15 11L15 12L17 12L17 13L13 13L13 12L14 12L14 11L13 11L13 10L12 10L12 9L11 9L11 10L10 10L10 12L9 12L9 11L8 11L8 10L7 10L7 9L6 9L6 10L5 10L5 9L4 9L4 10L2 10L2 13L3 13L3 12L4 12L4 13L5 13L5 14L4 14L4 15L3 15L3 16L7 16L7 17L5 17L5 18L4 18L4 20L5 20L5 22L1 22L1 23L2 23L2 24L3 24L3 23L4 23L4 24L7 24L7 25L6 25L6 26L9 26L9 27L12 27L12 28L10 28L10 29L9 29L9 31L11 31L11 30L12 30L12 31L13 31L13 32L12 32L12 33L13 33L13 34L12 34L12 35L13 35L13 34L14 34L14 37L16 37L16 38L13 38L13 37L12 37L12 39L10 39L10 38L11 38L11 37L10 37L10 38L9 38L9 40L10 40L10 41L4 41L4 40L8 40L8 38L7 38L7 37L8 37L8 36L9 36L9 35L6 35L6 34L7 34L7 33L6 33L6 32L8 32L8 31L6 31L6 32L5 32L5 31L4 31L4 32L5 32L5 33L6 33L6 34L5 34L5 35L6 35L6 36L7 36L7 37L4 37L4 36L3 36L3 35L4 35L4 33L3 33L3 32L2 32L2 33L1 33L1 35L2 35L2 36L3 36L3 37L2 37L2 39L3 39L3 42L2 42L2 46L1 46L1 47L2 47L2 46L3 46L3 47L5 47L5 46L10 46L10 47L11 47L11 48L12 48L12 49L11 49L11 50L10 50L10 51L11 51L11 50L12 50L12 49L13 49L13 47L14 47L14 48L17 48L17 45L18 45L18 44L17 44L17 45L13 45L13 44L12 44L12 45L11 45L11 46L10 46L10 45L9 45L9 44L8 44L8 45L6 45L6 44L7 44L7 43L12 43L12 39L13 39L13 42L14 42L14 44L16 44L16 43L18 43L18 42L19 42L19 45L20 45L20 46L21 46L21 45L22 45L22 47L24 47L24 45L25 45L25 46L26 46L26 45L27 45L27 47L26 47L26 48L29 48L29 47L30 47L30 48L32 48L32 49L31 49L31 51L33 51L33 52L31 52L31 53L30 53L30 54L28 54L28 56L29 56L29 55L30 55L30 56L34 56L34 55L32 55L32 54L35 54L35 52L37 52L37 53L38 53L38 54L40 54L40 55L41 55L41 56L43 56L43 54L42 54L42 52L38 52L38 51L33 51L33 50L32 50L32 49L33 49L33 48L34 48L34 50L35 50L35 49L36 49L36 48L37 48L37 47L38 47L38 46L39 46L39 45L41 45L41 44L42 44L42 45L43 45L43 46L44 46L44 45L46 45L46 46L47 46L47 45L48 45L48 46L49 46L49 45L48 45L48 44L47 44L47 43L48 43L48 40L49 40L49 41L51 41L51 40L53 40L53 37L55 37L55 38L56 38L56 37L55 37L55 36L52 36L52 34L53 34L53 35L54 35L54 34L53 34L53 33L52 33L52 32L53 32L53 31L51 31L51 33L49 33L49 32L50 32L50 31L48 31L48 32L47 32L47 31L46 31L46 30L47 30L47 29L46 29L46 30L42 30L42 31L41 31L41 29L43 29L43 28L44 28L44 29L45 29L45 28L44 28L44 27L43 27L43 26L42 26L42 25L41 25L41 24L40 24L40 23L42 23L42 24L43 24L43 25L44 25L44 26L45 26L45 27L46 27L46 26L47 26L47 27L48 27L48 25L49 25L49 24L50 24L50 26L53 26L53 27L55 27L55 26L56 26L56 25L55 25L55 24L54 24L54 25L53 25L53 24L52 24L52 25L51 25L51 24L50 24L50 22L52 22L52 21L53 21L53 20L50 20L50 18L51 18L51 19L52 19L52 17L53 17L53 19L55 19L55 18L54 18L54 17L53 17L53 16L51 16L51 15L50 15L50 14L51 14L51 13L50 13L50 14L49 14L49 15L50 15L50 16L46 16L46 14L45 14L45 12L44 12L44 15L45 15L45 16L44 16L44 17L43 17L43 18L42 18L42 16L40 16L40 15L43 15L43 14L41 14L41 12L42 12L42 11L46 11L46 10L45 10L45 8L40 8L40 6L39 6L39 8L40 8L40 9L38 9L38 5L41 5L41 4L43 4L43 5L42 5L42 6L41 6L41 7L42 7L42 6L43 6L43 7L44 7L44 6L45 6L45 7L46 7L46 8L47 8L47 7L46 7L46 6L45 6L45 5L47 5L47 3L46 3L46 4L45 4L45 3L44 3L44 2L43 2L43 1L42 1L42 2L41 2L41 3L39 3L39 2L38 2L38 1L37 1L37 2L34 2L34 1ZM46 1L46 2L47 2L47 1ZM37 2L37 3L36 3L36 4L37 4L37 5L38 5L38 4L37 4L37 3L38 3L38 2ZM42 2L42 3L43 3L43 4L44 4L44 5L45 5L45 4L44 4L44 3L43 3L43 2ZM19 3L19 4L21 4L21 3ZM27 5L27 8L30 8L30 5ZM11 6L11 7L12 7L12 6ZM28 6L28 7L29 7L29 6ZM32 6L32 7L33 7L33 6ZM34 6L34 8L35 8L35 9L37 9L37 8L36 8L36 7L37 7L37 6L36 6L36 7L35 7L35 6ZM9 8L9 9L10 9L10 8ZM23 8L23 9L24 9L24 10L25 10L25 9L24 9L24 8ZM53 8L53 9L54 9L54 8ZM33 9L33 11L32 11L32 12L33 12L33 13L37 13L37 14L36 14L36 15L37 15L37 14L38 14L38 16L35 16L35 14L33 14L33 16L35 16L35 17L36 17L36 19L35 19L35 18L34 18L34 17L33 17L33 19L34 19L34 21L35 21L35 20L36 20L36 21L37 21L37 22L36 22L36 23L38 23L38 19L39 19L39 20L42 20L42 22L43 22L43 24L45 24L45 26L46 26L46 25L47 25L47 24L49 24L49 22L50 22L50 20L49 20L49 21L47 21L47 22L45 22L45 23L44 23L44 22L43 22L43 21L44 21L44 20L45 20L45 21L46 21L46 19L47 19L47 18L46 18L46 16L45 16L45 19L44 19L44 18L43 18L43 19L40 19L40 18L41 18L41 17L40 17L40 18L38 18L38 16L39 16L39 15L40 15L40 14L38 14L38 13L39 13L39 11L40 11L40 12L41 12L41 11L40 11L40 10L36 10L36 11L37 11L37 12L34 12L34 9ZM42 9L42 10L43 10L43 9ZM6 10L6 11L5 11L5 13L7 13L7 12L6 12L6 11L7 11L7 10ZM11 10L11 12L10 12L10 13L9 13L9 14L8 14L8 15L7 15L7 14L5 14L5 15L7 15L7 16L8 16L8 15L9 15L9 14L10 14L10 16L11 16L11 18L10 18L10 19L9 19L9 21L8 21L8 18L9 18L9 17L7 17L7 18L6 18L6 19L7 19L7 20L6 20L6 21L8 21L8 22L10 22L10 20L11 20L11 18L12 18L12 21L11 21L11 22L12 22L12 23L11 23L11 25L12 25L12 27L13 27L13 29L14 29L14 28L15 28L15 29L18 29L18 31L16 31L16 33L15 33L15 32L14 32L14 34L15 34L15 36L16 36L16 35L17 35L17 37L19 37L19 38L18 38L18 41L22 41L22 43L21 43L21 42L20 42L20 45L21 45L21 44L22 44L22 45L23 45L23 44L25 44L25 45L26 45L26 44L27 44L27 45L29 45L29 44L28 44L28 43L31 43L31 44L30 44L30 45L32 45L32 46L33 46L33 45L34 45L34 44L35 44L35 46L34 46L34 48L36 48L36 47L37 47L37 46L38 46L38 45L39 45L39 44L41 44L41 43L42 43L42 44L43 44L43 45L44 45L44 44L46 44L46 43L47 43L47 42L46 42L46 39L47 39L47 40L48 40L48 39L50 39L50 40L51 40L51 39L50 39L50 37L51 37L51 35L50 35L50 34L49 34L49 35L47 35L47 34L46 34L46 35L42 35L42 34L44 34L44 32L45 32L45 33L47 33L47 32L46 32L46 31L42 31L42 32L43 32L43 33L42 33L42 34L41 34L41 35L40 35L40 34L39 34L39 35L38 35L38 33L39 33L39 32L41 32L41 31L39 31L39 32L38 32L38 29L39 29L39 30L40 30L40 29L39 29L39 28L42 28L42 26L41 26L41 27L40 27L40 24L39 24L39 26L37 26L37 25L38 25L38 24L36 24L36 27L35 27L35 32L34 32L34 31L32 31L32 28L34 28L34 26L35 26L35 22L31 22L31 21L32 21L32 20L31 20L31 19L32 19L32 18L31 18L31 17L32 17L32 14L30 14L30 13L29 13L29 14L28 14L28 12L30 12L30 10L29 10L29 11L27 11L27 10L26 10L26 11L24 11L24 12L25 12L25 13L24 13L24 14L25 14L25 16L26 16L26 17L24 17L24 16L23 16L23 17L22 17L22 16L21 16L21 15L22 15L22 13L21 13L21 12L20 12L20 13L19 13L19 10L18 10L18 11L17 11L17 12L18 12L18 13L17 13L17 16L15 16L15 17L14 17L14 16L13 16L13 15L14 15L14 14L13 14L13 13L12 13L12 12L13 12L13 11L12 11L12 10ZM26 11L26 12L27 12L27 11ZM56 12L56 14L57 14L57 12ZM10 13L10 14L11 14L11 15L13 15L13 14L11 14L11 13ZM20 13L20 14L21 14L21 13ZM26 14L26 16L27 16L27 17L26 17L26 18L24 18L24 17L23 17L23 19L22 19L22 18L21 18L21 16L20 16L20 19L22 19L22 21L24 21L24 22L22 22L22 25L18 25L18 22L20 22L20 23L19 23L19 24L21 24L21 20L20 20L20 21L17 21L17 20L19 20L19 19L17 19L17 20L16 20L16 21L15 21L15 18L14 18L14 17L13 17L13 16L12 16L12 18L13 18L13 19L14 19L14 20L13 20L13 21L12 21L12 22L13 22L13 21L14 21L14 22L16 22L16 21L17 21L17 25L15 25L15 26L17 26L17 25L18 25L18 27L16 27L16 28L18 28L18 29L19 29L19 28L20 28L20 31L22 31L22 33L23 33L23 34L22 34L22 35L23 35L23 36L19 36L19 37L23 37L23 38L22 38L22 41L23 41L23 43L25 43L25 44L26 44L26 43L27 43L27 42L26 42L26 41L28 41L28 42L31 42L31 43L36 43L36 44L37 44L37 43L36 43L36 40L40 40L40 43L41 43L41 42L42 42L42 43L43 43L43 44L44 44L44 43L46 43L46 42L45 42L45 40L44 40L44 39L45 39L45 38L47 38L47 39L48 39L48 38L47 38L47 37L48 37L48 36L47 36L47 35L46 35L46 36L44 36L44 37L43 37L43 36L42 36L42 35L41 35L41 36L40 36L40 35L39 35L39 37L38 37L38 38L37 38L37 39L36 39L36 40L35 40L35 39L34 39L34 40L33 40L33 38L36 38L36 36L37 36L37 35L36 35L36 32L37 32L37 33L38 33L38 32L37 32L37 31L36 31L36 32L35 32L35 33L34 33L34 34L35 34L35 35L33 35L33 36L32 36L32 34L33 34L33 32L32 32L32 31L29 31L29 33L28 33L28 34L29 34L29 35L28 35L28 36L27 36L27 35L26 35L26 36L25 36L25 38L26 38L26 39L25 39L25 40L24 40L24 39L23 39L23 38L24 38L24 37L23 37L23 36L24 36L24 35L25 35L25 34L26 34L26 31L25 31L25 30L24 30L24 29L26 29L26 28L25 28L25 27L26 27L26 26L27 26L27 25L29 25L29 26L30 26L30 25L31 25L31 26L32 26L32 25L31 25L31 24L34 24L34 23L31 23L31 22L30 22L30 23L29 23L29 20L28 20L28 18L27 18L27 17L28 17L28 16L29 16L29 17L31 17L31 15L30 15L30 14L29 14L29 15L28 15L28 14ZM27 15L27 16L28 16L28 15ZM50 16L50 17L48 17L48 18L50 18L50 17L51 17L51 16ZM16 17L16 18L17 18L17 17ZM18 17L18 18L19 18L19 17ZM29 18L29 19L30 19L30 18ZM24 19L24 21L25 21L25 22L26 22L26 23L25 23L25 24L29 24L29 23L28 23L28 20L26 20L26 21L25 21L25 19ZM36 19L36 20L37 20L37 19ZM54 20L54 21L55 21L55 20ZM39 21L39 22L40 22L40 21ZM5 22L5 23L7 23L7 22ZM9 23L9 26L10 26L10 23ZM12 23L12 24L13 24L13 27L14 27L14 23ZM15 23L15 24L16 24L16 23ZM23 23L23 25L22 25L22 26L21 26L21 27L22 27L22 26L23 26L23 29L24 29L24 27L25 27L25 26L26 26L26 25L24 25L24 23ZM46 23L46 24L47 24L47 23ZM4 25L4 26L5 26L5 25ZM23 25L23 26L24 26L24 25ZM33 25L33 26L34 26L34 25ZM54 25L54 26L55 26L55 25ZM5 27L5 30L8 30L8 27ZM27 27L27 30L30 30L30 27ZM36 27L36 28L37 28L37 29L38 29L38 28L37 28L37 27ZM49 27L49 30L52 30L52 27ZM2 28L2 29L4 29L4 28ZM6 28L6 29L7 29L7 28ZM21 28L21 29L22 29L22 28ZM28 28L28 29L29 29L29 28ZM50 28L50 29L51 29L51 28ZM53 28L53 30L54 30L54 29L55 29L55 28ZM10 29L10 30L11 30L11 29ZM13 30L13 31L15 31L15 30ZM22 30L22 31L23 31L23 30ZM18 31L18 32L19 32L19 33L16 33L16 34L19 34L19 33L20 33L20 34L21 34L21 33L20 33L20 32L19 32L19 31ZM24 31L24 32L25 32L25 31ZM27 31L27 32L28 32L28 31ZM56 31L56 32L57 32L57 31ZM10 32L10 33L9 33L9 34L10 34L10 35L11 35L11 34L10 34L10 33L11 33L11 32ZM30 32L30 33L29 33L29 34L30 34L30 35L29 35L29 36L31 36L31 38L29 38L29 39L31 39L31 40L28 40L28 39L26 39L26 40L28 40L28 41L31 41L31 42L32 42L32 41L31 41L31 40L32 40L32 38L33 38L33 37L34 37L34 36L33 36L33 37L32 37L32 36L31 36L31 34L32 34L32 32ZM24 33L24 34L25 34L25 33ZM49 35L49 37L50 37L50 35ZM26 36L26 38L28 38L28 37L27 37L27 36ZM46 36L46 37L47 37L47 36ZM3 37L3 39L5 39L5 38L4 38L4 37ZM40 37L40 38L38 38L38 39L40 39L40 40L41 40L41 39L40 39L40 38L41 38L41 37ZM42 37L42 38L43 38L43 37ZM44 37L44 38L45 38L45 37ZM6 38L6 39L7 39L7 38ZM19 38L19 39L20 39L20 38ZM14 39L14 40L15 40L15 43L16 43L16 41L17 41L17 40L16 40L16 39ZM42 39L42 40L43 40L43 39ZM10 41L10 42L11 42L11 41ZM24 41L24 42L25 42L25 41ZM33 41L33 42L34 42L34 41ZM37 41L37 42L39 42L39 41ZM42 41L42 42L43 42L43 43L44 43L44 42L43 42L43 41ZM3 42L3 43L4 43L4 44L6 44L6 43L7 43L7 42L6 42L6 43L5 43L5 42ZM32 44L32 45L33 45L33 44ZM12 45L12 46L13 46L13 45ZM14 46L14 47L15 47L15 46ZM30 46L30 47L31 47L31 46ZM8 47L8 49L10 49L10 48L9 48L9 47ZM32 47L32 48L33 48L33 47ZM46 47L46 48L47 48L47 49L48 49L48 48L50 48L50 47L48 47L48 48L47 48L47 47ZM19 48L19 49L18 49L18 51L16 51L16 53L17 53L17 52L19 52L19 51L20 51L20 50L21 50L21 51L22 51L22 50L21 50L21 49L23 49L23 48L21 48L21 49L20 49L20 48ZM24 48L24 49L25 49L25 48ZM16 49L16 50L17 50L17 49ZM19 49L19 50L20 50L20 49ZM27 49L27 52L30 52L30 49ZM49 49L49 52L52 52L52 49ZM13 50L13 51L14 51L14 50ZM25 50L25 52L26 52L26 50ZM28 50L28 51L29 51L29 50ZM50 50L50 51L51 51L51 50ZM47 51L47 52L48 52L48 51ZM9 53L9 56L10 56L10 55L11 55L11 54L10 54L10 53ZM31 53L31 54L32 54L32 53ZM54 53L54 54L55 54L55 53ZM18 54L18 55L20 55L20 54ZM48 54L48 55L50 55L50 54ZM15 55L15 56L16 56L16 55ZM23 55L23 57L24 57L24 55ZM51 55L51 56L50 56L50 57L51 57L51 56L52 56L52 55ZM53 55L53 56L55 56L55 57L56 57L56 56L55 56L55 55ZM18 56L18 57L22 57L22 56ZM0 0L0 7L7 7L7 0ZM1 1L1 6L6 6L6 1ZM2 2L2 5L5 5L5 2ZM50 0L50 7L57 7L57 0ZM51 1L51 6L56 6L56 1ZM52 2L52 5L55 5L55 2ZM0 50L0 57L7 57L7 50ZM1 51L1 56L6 56L6 51ZM2 52L2 55L5 55L5 52Z" fill="#000000"/></g></g></svg>
