<?xml version="1.0" encoding="UTF-8"?>
<svg xmlns="http://www.w3.org/2000/svg" version="1.1" width="100" height="100" viewBox="0 0 100 100"><rect x="0" y="0" width="100" height="100" fill="#ffffff"/><g transform="scale(1.754)"><g transform="translate(0,0)"><path fill-rule="evenodd" d="M8 0L8 4L9 4L9 2L10 2L10 1L11 1L11 3L10 3L10 5L12 5L12 7L11 7L11 6L10 6L10 7L9 7L9 5L8 5L8 7L9 7L9 9L10 9L10 10L9 10L9 11L8 11L8 12L5 12L5 10L6 10L6 11L7 11L7 10L6 10L6 9L7 9L7 8L4 8L4 9L3 9L3 11L1 11L1 10L2 10L2 8L0 8L0 11L1 11L1 12L2 12L2 13L0 13L0 18L1 18L1 14L3 14L3 12L4 12L4 13L8 13L8 14L9 14L9 17L10 17L10 18L11 18L11 19L12 19L12 16L13 16L13 15L14 15L14 14L16 14L16 17L17 17L17 18L18 18L18 17L19 17L19 16L20 16L20 18L19 18L19 19L17 19L17 21L15 21L15 20L16 20L16 18L15 18L15 20L14 20L14 19L13 19L13 21L14 21L14 22L15 22L15 23L14 23L14 25L13 25L13 24L12 24L12 23L13 23L13 22L12 22L12 21L11 21L11 22L9 22L9 21L10 21L10 20L9 20L9 21L8 21L8 20L6 20L6 19L8 19L8 18L6 18L6 17L8 17L8 16L6 16L6 15L7 15L7 14L6 14L6 15L5 15L5 14L4 14L4 16L2 16L2 17L4 17L4 19L3 19L3 18L2 18L2 19L0 19L0 21L1 21L1 20L2 20L2 22L5 22L5 23L4 23L4 24L3 24L3 26L2 26L2 27L0 27L0 28L1 28L1 30L0 30L0 34L1 34L1 35L0 35L0 37L1 37L1 38L3 38L3 39L2 39L2 40L3 40L3 41L2 41L2 42L1 42L1 41L0 41L0 44L1 44L1 45L0 45L0 48L5 48L5 47L8 47L8 48L9 48L9 47L10 47L10 50L9 50L9 49L8 49L8 50L9 50L9 51L8 51L8 53L9 53L9 54L10 54L10 56L11 56L11 57L12 57L12 54L15 54L15 55L13 55L13 57L15 57L15 55L16 55L16 54L17 54L17 56L16 56L16 57L17 57L17 56L18 56L18 57L19 57L19 55L20 55L20 54L21 54L21 55L24 55L24 56L23 56L23 57L24 57L24 56L25 56L25 57L27 57L27 56L28 56L28 57L29 57L29 56L28 56L28 55L30 55L30 57L31 57L31 54L30 54L30 53L31 53L31 50L32 50L32 49L33 49L33 47L34 47L34 45L35 45L35 46L37 46L37 44L39 44L39 45L38 45L38 47L36 47L36 49L35 49L35 50L37 50L37 51L34 51L34 50L33 50L33 51L32 51L32 54L33 54L33 55L34 55L34 52L35 52L35 55L36 55L36 57L38 57L38 56L40 56L40 55L41 55L41 57L42 57L42 55L43 55L43 57L45 57L45 56L46 56L46 57L48 57L48 56L49 56L49 57L50 57L50 56L49 56L49 55L50 55L50 54L52 54L52 55L51 55L51 57L52 57L52 56L53 56L53 55L55 55L55 54L57 54L57 52L56 52L56 50L57 50L57 48L56 48L56 49L55 49L55 48L54 48L54 49L55 49L55 53L54 53L54 54L52 54L52 53L53 53L53 48L51 48L51 47L50 47L50 46L52 46L52 44L53 44L53 42L52 42L52 41L54 41L54 40L53 40L53 38L55 38L55 39L57 39L57 38L56 38L56 37L53 37L53 38L52 38L52 36L51 36L51 35L50 35L50 34L52 34L52 33L53 33L53 35L54 35L54 34L55 34L55 36L56 36L56 34L57 34L57 31L56 31L56 32L53 32L53 27L55 27L55 28L57 28L57 27L56 27L56 25L54 25L54 24L53 24L53 25L54 25L54 26L52 26L52 25L51 25L51 24L52 24L52 22L55 22L55 24L56 24L56 22L55 22L55 21L54 21L54 20L53 20L53 21L52 21L52 19L51 19L51 18L53 18L53 19L55 19L55 20L57 20L57 19L56 19L56 18L57 18L57 17L56 17L56 16L57 16L57 15L56 15L56 16L53 16L53 17L52 17L52 15L53 15L53 14L56 14L56 12L55 12L55 13L53 13L53 14L52 14L52 15L51 15L51 13L52 13L52 11L53 11L53 12L54 12L54 11L56 11L56 9L57 9L57 8L53 8L53 9L55 9L55 10L54 10L54 11L53 11L53 10L51 10L51 9L52 9L52 8L51 8L51 9L50 9L50 10L51 10L51 11L49 11L49 9L48 9L48 10L47 10L47 11L43 11L43 10L45 10L45 8L46 8L46 9L47 9L47 5L48 5L48 0L44 0L44 3L42 3L42 1L43 1L43 0L41 0L41 3L40 3L40 1L39 1L39 0L38 0L38 1L37 1L37 0L35 0L35 1L33 1L33 2L34 2L34 4L33 4L33 5L32 5L32 2L31 2L31 3L30 3L30 2L29 2L29 3L28 3L28 2L27 2L27 3L28 3L28 4L26 4L26 3L25 3L25 2L22 2L22 3L21 3L21 2L19 2L19 1L18 1L18 0L17 0L17 1L16 1L16 0L13 0L13 1L12 1L12 0L10 0L10 1L9 1L9 0ZM20 0L20 1L23 1L23 0ZM24 0L24 1L27 1L27 0ZM28 0L28 1L31 1L31 0ZM13 1L13 2L12 2L12 3L14 3L14 4L12 4L12 5L16 5L16 6L15 6L15 7L14 7L14 6L13 6L13 7L12 7L12 8L11 8L11 7L10 7L10 8L11 8L11 9L12 9L12 8L13 8L13 10L15 10L15 9L16 9L16 10L17 10L17 9L18 9L18 11L17 11L17 13L16 13L16 11L15 11L15 12L14 12L14 11L13 11L13 12L12 12L12 13L11 13L11 12L10 12L10 14L12 14L12 15L13 15L13 13L16 13L16 14L17 14L17 16L19 16L19 14L20 14L20 13L21 13L21 15L22 15L22 14L24 14L24 13L25 13L25 14L26 14L26 17L25 17L25 16L24 16L24 17L23 17L23 16L21 16L21 18L20 18L20 19L23 19L23 18L24 18L24 17L25 17L25 19L24 19L24 20L21 20L21 22L20 22L20 23L19 23L19 21L20 21L20 20L19 20L19 21L17 21L17 22L16 22L16 23L15 23L15 25L14 25L14 26L15 26L15 25L16 25L16 27L18 27L18 26L19 26L19 27L20 27L20 28L18 28L18 29L16 29L16 28L15 28L15 29L16 29L16 30L13 30L13 29L11 29L11 28L12 28L12 27L13 27L13 25L12 25L12 24L11 24L11 26L10 26L10 25L9 25L9 24L8 24L8 26L9 26L9 31L8 31L8 32L7 32L7 31L6 31L6 32L7 32L7 33L6 33L6 34L8 34L8 35L5 35L5 31L4 31L4 32L3 32L3 31L1 31L1 33L2 33L2 34L3 34L3 35L2 35L2 36L4 36L4 35L5 35L5 36L8 36L8 37L4 37L4 41L3 41L3 42L2 42L2 43L1 43L1 44L2 44L2 43L3 43L3 42L4 42L4 41L5 41L5 42L7 42L7 43L4 43L4 44L7 44L7 43L8 43L8 44L9 44L9 43L10 43L10 45L9 45L9 46L10 46L10 45L11 45L11 43L10 43L10 42L12 42L12 43L15 43L15 44L14 44L14 45L13 45L13 44L12 44L12 45L13 45L13 46L12 46L12 47L11 47L11 49L12 49L12 47L13 47L13 49L14 49L14 50L16 50L16 51L18 51L18 50L19 50L19 51L20 51L20 49L21 49L21 51L22 51L22 53L21 53L21 54L22 54L22 53L24 53L24 54L25 54L25 56L27 56L27 54L28 54L28 53L26 53L26 48L28 48L28 46L30 46L30 47L29 47L29 48L30 48L30 47L31 47L31 49L32 49L32 47L33 47L33 45L32 45L32 44L31 44L31 45L30 45L30 44L29 44L29 45L28 45L28 44L27 44L27 45L26 45L26 43L27 43L27 42L28 42L28 43L33 43L33 44L34 44L34 42L36 42L36 43L35 43L35 44L36 44L36 43L37 43L37 42L36 42L36 39L37 39L37 41L38 41L38 37L39 37L39 36L40 36L40 37L41 37L41 38L42 38L42 37L44 37L44 38L43 38L43 39L42 39L42 40L41 40L41 39L39 39L39 42L41 42L41 43L40 43L40 45L39 45L39 46L40 46L40 45L41 45L41 43L42 43L42 45L44 45L44 46L46 46L46 47L47 47L47 49L46 49L46 50L44 50L44 51L43 51L43 52L44 52L44 51L45 51L45 52L47 52L47 51L48 51L48 50L47 50L47 49L48 49L48 47L49 47L49 48L50 48L50 47L49 47L49 45L51 45L51 44L50 44L50 43L52 43L52 42L51 42L51 41L52 41L52 38L50 38L50 37L51 37L51 36L50 36L50 35L47 35L47 34L49 34L49 33L51 33L51 32L52 32L52 31L51 31L51 32L50 32L50 31L49 31L49 32L48 32L48 28L47 28L47 27L48 27L48 25L49 25L49 26L50 26L50 24L51 24L51 23L50 23L50 17L51 17L51 15L50 15L50 13L51 13L51 12L49 12L49 11L48 11L48 12L47 12L47 13L46 13L46 12L45 12L45 14L44 14L44 12L43 12L43 11L42 11L42 12L43 12L43 14L44 14L44 15L45 15L45 18L44 18L44 19L45 19L45 18L46 18L46 19L47 19L47 18L48 18L48 17L49 17L49 20L45 20L45 21L46 21L46 23L47 23L47 25L46 25L46 24L45 24L45 27L46 27L46 28L45 28L45 29L44 29L44 27L43 27L43 28L42 28L42 25L41 25L41 24L42 24L42 23L40 23L40 22L42 22L42 20L43 20L43 21L44 21L44 20L43 20L43 19L40 19L40 21L39 21L39 22L38 22L38 20L39 20L39 19L38 19L38 20L37 20L37 21L36 21L36 19L37 19L37 18L38 18L38 13L39 13L39 12L40 12L40 14L41 14L41 11L39 11L39 12L37 12L37 13L34 13L34 12L33 12L33 13L34 13L34 14L36 14L36 15L37 15L37 18L36 18L36 17L35 17L35 15L34 15L34 17L33 17L33 18L32 18L32 20L31 20L31 18L28 18L28 17L27 17L27 15L29 15L29 13L30 13L30 17L32 17L32 16L33 16L33 14L32 14L32 16L31 16L31 12L32 12L32 11L33 11L33 10L36 10L36 11L37 11L37 9L35 9L35 8L36 8L36 6L37 6L37 8L38 8L38 9L41 9L41 10L42 10L42 8L41 8L41 7L42 7L42 6L43 6L43 7L44 7L44 6L43 6L43 5L42 5L42 6L41 6L41 7L40 7L40 5L41 5L41 4L40 4L40 3L39 3L39 1L38 1L38 3L36 3L36 4L34 4L34 6L33 6L33 7L32 7L32 6L31 6L31 7L32 7L32 8L34 8L34 9L33 9L33 10L32 10L32 9L31 9L31 12L30 12L30 9L28 9L28 10L27 10L27 11L26 11L26 10L24 10L24 9L26 9L26 6L25 6L25 7L24 7L24 6L23 6L23 5L24 5L24 4L25 4L25 3L23 3L23 5L22 5L22 4L21 4L21 3L19 3L19 2L17 2L17 4L16 4L16 3L14 3L14 2L16 2L16 1ZM45 1L45 2L47 2L47 1ZM44 3L44 5L45 5L45 7L46 7L46 5L47 5L47 3L46 3L46 5L45 5L45 3ZM17 4L17 5L18 5L18 4ZM38 4L38 5L37 5L37 6L38 6L38 8L39 8L39 6L38 6L38 5L40 5L40 4ZM19 5L19 6L18 6L18 7L17 7L17 6L16 6L16 7L15 7L15 8L14 8L14 7L13 7L13 8L14 8L14 9L15 9L15 8L16 8L16 9L17 9L17 8L18 8L18 9L19 9L19 10L21 10L21 9L19 9L19 8L23 8L23 9L22 9L22 10L23 10L23 9L24 9L24 7L23 7L23 6L22 6L22 5L21 5L21 6L20 6L20 5ZM27 5L27 8L30 8L30 5ZM19 6L19 7L20 7L20 6ZM21 6L21 7L22 7L22 6ZM28 6L28 7L29 7L29 6ZM34 6L34 7L35 7L35 6ZM48 6L48 8L49 8L49 6ZM4 9L4 10L5 10L5 9ZM10 10L10 11L12 11L12 10ZM28 10L28 11L27 11L27 12L28 12L28 11L29 11L29 10ZM20 11L20 12L18 12L18 13L17 13L17 14L19 14L19 13L20 13L20 12L21 12L21 13L24 13L24 11L23 11L23 12L22 12L22 11ZM25 11L25 12L26 12L26 11ZM48 13L48 14L47 14L47 15L48 15L48 14L49 14L49 13ZM39 15L39 16L40 16L40 17L41 17L41 18L42 18L42 16L43 16L43 17L44 17L44 16L43 16L43 15ZM49 15L49 17L50 17L50 15ZM4 16L4 17L5 17L5 16ZM10 16L10 17L11 17L11 16ZM14 16L14 17L13 17L13 18L14 18L14 17L15 17L15 16ZM22 17L22 18L23 18L23 17ZM26 17L26 18L27 18L27 17ZM53 17L53 18L54 18L54 17ZM55 17L55 18L56 18L56 17ZM33 18L33 19L34 19L34 18ZM35 18L35 19L36 19L36 18ZM2 19L2 20L3 20L3 21L5 21L5 22L7 22L7 21L6 21L6 20L5 20L5 19L4 19L4 20L3 20L3 19ZM24 20L24 21L22 21L22 22L21 22L21 24L23 24L23 25L19 25L19 24L18 24L18 22L17 22L17 24L16 24L16 25L17 25L17 26L18 26L18 25L19 25L19 26L21 26L21 27L22 27L22 28L23 28L23 29L24 29L24 30L23 30L23 31L20 31L20 30L22 30L22 29L21 29L21 28L20 28L20 30L19 30L19 29L18 29L18 30L16 30L16 31L18 31L18 32L15 32L15 31L14 31L14 32L15 32L15 33L14 33L14 34L13 34L13 33L12 33L12 34L13 34L13 37L12 37L12 36L9 36L9 37L11 37L11 39L12 39L12 42L14 42L14 40L16 40L16 41L17 41L17 40L18 40L18 41L19 41L19 42L20 42L20 44L18 44L18 45L17 45L17 44L16 44L16 45L15 45L15 46L14 46L14 47L15 47L15 46L16 46L16 49L17 49L17 50L18 50L18 49L20 49L20 48L21 48L21 49L22 49L22 50L25 50L25 49L24 49L24 48L23 48L23 49L22 49L22 47L24 47L24 46L25 46L25 48L26 48L26 47L27 47L27 46L28 46L28 45L27 45L27 46L26 46L26 45L24 45L24 46L21 46L21 45L23 45L23 44L25 44L25 43L24 43L24 42L26 42L26 41L32 41L32 42L33 42L33 41L34 41L34 40L35 40L35 39L34 39L34 37L33 37L33 36L32 36L32 37L31 37L31 38L32 38L32 39L30 39L30 40L29 40L29 38L30 38L30 36L29 36L29 35L30 35L30 34L31 34L31 31L32 31L32 35L34 35L34 36L36 36L36 38L37 38L37 36L39 36L39 35L41 35L41 36L42 36L42 35L43 35L43 36L44 36L44 37L45 37L45 39L44 39L44 40L43 40L43 41L42 41L42 43L44 43L44 45L45 45L45 44L46 44L46 45L47 45L47 43L48 43L48 45L49 45L49 43L50 43L50 42L49 42L49 41L51 41L51 39L50 39L50 38L49 38L49 37L50 37L50 36L48 36L48 37L47 37L47 35L43 35L43 33L42 33L42 35L41 35L41 34L40 34L40 31L41 31L41 32L42 32L42 31L43 31L43 32L44 32L44 34L46 34L46 33L47 33L47 31L43 31L43 29L41 29L41 30L40 30L40 31L39 31L39 33L38 33L38 30L39 30L39 29L40 29L40 27L41 27L41 26L40 26L40 25L39 25L39 24L38 24L38 22L37 22L37 23L36 23L36 22L35 22L35 24L34 24L34 25L33 25L33 26L32 26L32 25L30 25L30 26L29 26L29 25L28 25L28 23L29 23L29 24L31 24L31 23L32 23L32 21L33 21L33 23L34 23L34 21L35 21L35 20L32 20L32 21L31 21L31 20L29 20L29 22L26 22L26 23L25 23L25 22L24 22L24 21L26 21L26 20ZM47 21L47 22L49 22L49 21ZM0 22L0 24L1 24L1 22ZM8 22L8 23L9 23L9 22ZM11 22L11 23L12 23L12 22ZM29 22L29 23L30 23L30 22ZM44 22L44 23L45 23L45 22ZM6 23L6 24L5 24L5 25L4 25L4 26L7 26L7 25L6 25L6 24L7 24L7 23ZM23 23L23 24L24 24L24 25L23 25L23 28L24 28L24 29L25 29L25 30L26 30L26 29L25 29L25 28L24 28L24 27L26 27L26 25L25 25L25 24L24 24L24 23ZM17 24L17 25L18 25L18 24ZM35 24L35 26L36 26L36 27L35 27L35 28L34 28L34 27L33 27L33 28L34 28L34 30L32 30L32 28L31 28L31 30L32 30L32 31L34 31L34 30L35 30L35 33L34 33L34 32L33 32L33 34L34 34L34 35L35 35L35 34L36 34L36 35L37 35L37 34L38 34L38 35L39 35L39 34L38 34L38 33L37 33L37 34L36 34L36 31L37 31L37 30L38 30L38 29L39 29L39 28L38 28L38 29L37 29L37 30L35 30L35 28L36 28L36 27L37 27L37 26L36 26L36 24ZM0 25L0 26L1 26L1 25ZM24 25L24 26L25 26L25 25ZM27 25L27 26L28 26L28 25ZM43 25L43 26L44 26L44 25ZM11 26L11 27L10 27L10 28L11 28L11 27L12 27L12 26ZM3 27L3 29L4 29L4 27ZM5 27L5 30L8 30L8 27ZM27 27L27 30L30 30L30 27ZM49 27L49 30L52 30L52 27ZM6 28L6 29L7 29L7 28ZM28 28L28 29L29 29L29 28ZM46 28L46 29L47 29L47 28ZM50 28L50 29L51 29L51 28ZM10 29L10 30L11 30L11 31L10 31L10 32L11 32L11 31L12 31L12 32L13 32L13 30L11 30L11 29ZM54 29L54 31L55 31L55 29ZM18 30L18 31L19 31L19 30ZM41 30L41 31L42 31L42 30ZM24 31L24 32L20 32L20 33L15 33L15 34L14 34L14 36L15 36L15 34L16 34L16 35L17 35L17 36L16 36L16 37L13 37L13 40L14 40L14 39L16 39L16 38L18 38L18 40L19 40L19 41L23 41L23 42L21 42L21 43L22 43L22 44L23 44L23 42L24 42L24 41L25 41L25 40L26 40L26 39L28 39L28 38L29 38L29 36L28 36L28 37L27 37L27 35L26 35L26 39L25 39L25 38L24 38L24 37L23 37L23 35L22 35L22 37L17 37L17 36L19 36L19 34L20 34L20 33L21 33L21 34L22 34L22 33L23 33L23 34L24 34L24 33L25 33L25 32L26 32L26 34L28 34L28 35L29 35L29 33L30 33L30 32L29 32L29 31L27 31L27 32L26 32L26 31ZM2 32L2 33L3 33L3 34L4 34L4 33L3 33L3 32ZM28 32L28 33L29 33L29 32ZM45 32L45 33L46 33L46 32ZM8 33L8 34L9 34L9 35L10 35L10 34L11 34L11 33L10 33L10 34L9 34L9 33ZM24 35L24 36L25 36L25 35ZM22 37L22 38L20 38L20 39L19 39L19 40L21 40L21 39L22 39L22 40L24 40L24 39L23 39L23 37ZM46 37L46 39L47 39L47 40L45 40L45 42L44 42L44 43L47 43L47 42L48 42L48 43L49 43L49 42L48 42L48 39L49 39L49 40L50 40L50 39L49 39L49 38L48 38L48 39L47 39L47 37ZM5 38L5 39L7 39L7 40L6 40L6 41L7 41L7 40L8 40L8 42L9 42L9 41L10 41L10 39L8 39L8 38ZM0 39L0 40L1 40L1 39ZM32 39L32 40L33 40L33 39ZM55 40L55 41L56 41L56 42L55 42L55 44L56 44L56 45L54 45L54 47L55 47L55 46L56 46L56 45L57 45L57 44L56 44L56 42L57 42L57 40ZM15 42L15 43L18 43L18 42ZM20 44L20 45L19 45L19 46L17 46L17 45L16 45L16 46L17 46L17 48L19 48L19 46L20 46L20 45L21 45L21 44ZM1 45L1 47L2 47L2 45ZM5 45L5 46L3 46L3 47L5 47L5 46L8 46L8 45ZM31 45L31 46L32 46L32 45ZM47 46L47 47L48 47L48 46ZM40 47L40 49L39 49L39 50L40 50L40 49L41 49L41 50L42 50L42 49L44 49L44 47L43 47L43 48L41 48L41 47ZM6 48L6 49L7 49L7 48ZM27 49L27 52L30 52L30 49ZM37 49L37 50L38 50L38 49ZM49 49L49 52L52 52L52 49ZM11 50L11 51L13 51L13 50ZM28 50L28 51L29 51L29 50ZM50 50L50 51L51 51L51 50ZM14 51L14 53L17 53L17 54L18 54L18 55L19 55L19 53L20 53L20 52L19 52L19 53L17 53L17 52L15 52L15 51ZM33 51L33 52L34 52L34 51ZM37 51L37 52L38 52L38 51ZM40 51L40 54L42 54L42 51ZM9 52L9 53L10 53L10 54L12 54L12 53L13 53L13 52L11 52L11 53L10 53L10 52ZM24 52L24 53L25 53L25 52ZM37 53L37 56L38 56L38 53ZM46 53L46 55L47 55L47 54L48 54L48 55L49 55L49 53ZM8 55L8 57L9 57L9 55ZM34 56L34 57L35 57L35 56ZM56 56L56 57L57 57L57 56ZM0 0L0 7L7 7L7 0ZM1 1L1 6L6 6L6 1ZM2 2L2 5L5 5L5 2ZM50 0L50 7L57 7L57 0ZM51 1L51 6L56 6L56 1ZM52 2L52 5L55 5L55 2ZM0 50L0 57L7 57L7 50ZM1 51L1 56L6 56L6 51ZM2 52L2 55L5 55L5 52Z" fill="#000000"/></g></g></svg>
