<?xml version="1.0" encoding="UTF-8"?>
<svg xmlns="http://www.w3.org/2000/svg" version="1.1" width="100" height="100" viewBox="0 0 100 100"><rect x="0" y="0" width="100" height="100" fill="#ffffff"/><g transform="scale(1.754)"><g transform="translate(0,0)"><path fill-rule="evenodd" d="M9 0L9 1L8 1L8 2L9 2L9 3L8 3L8 4L9 4L9 5L8 5L8 7L9 7L9 6L10 6L10 8L6 8L6 9L5 9L5 8L0 8L0 10L1 10L1 11L2 11L2 10L3 10L3 12L4 12L4 11L9 11L9 10L10 10L10 11L11 11L11 10L10 10L10 8L11 8L11 5L10 5L10 4L11 4L11 0ZM12 0L12 1L13 1L13 2L12 2L12 4L13 4L13 5L12 5L12 8L13 8L13 9L12 9L12 10L13 10L13 11L12 11L12 12L11 12L11 13L10 13L10 12L9 12L9 13L10 13L10 14L8 14L8 13L7 13L7 12L5 12L5 13L3 13L3 14L4 14L4 15L2 15L2 13L1 13L1 12L0 12L0 14L1 14L1 15L0 15L0 16L2 16L2 17L1 17L1 18L0 18L0 20L1 20L1 18L3 18L3 19L2 19L2 21L0 21L0 23L1 23L1 22L2 22L2 23L3 23L3 25L4 25L4 32L3 32L3 33L2 33L2 32L0 32L0 33L1 33L1 34L0 34L0 36L1 36L1 38L0 38L0 39L2 39L2 40L0 40L0 41L1 41L1 42L0 42L0 43L1 43L1 42L2 42L2 44L1 44L1 45L0 45L0 48L5 48L5 47L7 47L7 48L6 48L6 49L8 49L8 51L9 51L9 50L10 50L10 51L11 51L11 52L14 52L14 54L13 54L13 55L12 55L12 53L11 53L11 54L10 54L10 53L9 53L9 52L8 52L8 57L9 57L9 55L11 55L11 56L10 56L10 57L12 57L12 56L13 56L13 57L22 57L22 56L23 56L23 57L24 57L24 55L22 55L22 54L24 54L24 53L25 53L25 56L26 56L26 55L28 55L28 54L30 54L30 53L32 53L32 54L31 54L31 55L32 55L32 54L33 54L33 53L32 53L32 52L33 52L33 51L37 51L37 52L35 52L35 54L34 54L34 56L30 56L30 55L29 55L29 56L30 56L30 57L35 57L35 54L37 54L37 55L40 55L40 56L39 56L39 57L40 57L40 56L41 56L41 57L43 57L43 56L45 56L45 55L46 55L46 56L47 56L47 54L43 54L43 51L44 51L44 52L45 52L45 53L49 53L49 54L48 54L48 55L49 55L49 57L51 57L51 56L52 56L52 55L51 55L51 53L53 53L53 56L55 56L55 57L56 57L56 56L55 56L55 55L54 55L54 52L56 52L56 53L57 53L57 52L56 52L56 50L57 50L57 49L56 49L56 48L55 48L55 45L54 45L54 46L53 46L53 47L52 47L52 48L48 48L48 47L50 47L50 46L51 46L51 45L52 45L52 44L51 44L51 43L52 43L52 41L55 41L55 39L57 39L57 37L56 37L56 38L55 38L55 37L54 37L54 36L56 36L56 34L57 34L57 33L56 33L56 34L55 34L55 30L57 30L57 29L56 29L56 26L57 26L57 23L56 23L56 22L57 22L57 19L56 19L56 18L57 18L57 15L56 15L56 18L55 18L55 17L54 17L54 18L55 18L55 19L53 19L53 18L50 18L50 20L49 20L49 19L48 19L48 20L49 20L49 21L47 21L47 22L45 22L45 23L44 23L44 22L43 22L43 21L44 21L44 20L45 20L45 21L46 21L46 19L47 19L47 18L46 18L46 16L47 16L47 17L48 17L48 18L49 18L49 17L48 17L48 16L50 16L50 17L51 17L51 16L53 16L53 15L51 15L51 14L52 14L52 13L51 13L51 12L53 12L53 11L54 11L54 12L55 12L55 13L56 13L56 14L57 14L57 13L56 13L56 10L57 10L57 9L56 9L56 8L55 8L55 11L54 11L54 10L53 10L53 11L51 11L51 12L49 12L49 11L50 11L50 8L49 8L49 9L48 9L48 10L49 10L49 11L48 11L48 12L49 12L49 13L48 13L48 15L47 15L47 14L46 14L46 13L47 13L47 12L46 12L46 11L47 11L47 10L46 10L46 7L47 7L47 8L48 8L48 7L49 7L49 6L48 6L48 7L47 7L47 5L48 5L48 0L45 0L45 1L47 1L47 2L44 2L44 0L41 0L41 2L39 2L39 1L40 1L40 0L39 0L39 1L38 1L38 0L35 0L35 1L34 1L34 0L29 0L29 1L28 1L28 2L27 2L27 1L25 1L25 0L24 0L24 1L25 1L25 2L27 2L27 3L29 3L29 1L31 1L31 2L30 2L30 3L33 3L33 4L34 4L34 3L33 3L33 1L34 1L34 2L37 2L37 3L36 3L36 4L37 4L37 5L38 5L38 7L39 7L39 6L40 6L40 8L37 8L37 6L36 6L36 8L35 8L35 9L36 9L36 8L37 8L37 9L39 9L39 10L37 10L37 12L34 12L34 11L32 11L32 12L33 12L33 13L32 13L32 15L31 15L31 14L30 14L30 13L29 13L29 14L28 14L28 12L30 12L30 10L32 10L32 9L31 9L31 8L32 8L32 7L33 7L33 8L34 8L34 7L35 7L35 5L33 5L33 6L32 6L32 7L31 7L31 5L32 5L32 4L26 4L26 3L23 3L23 2L22 2L22 1L23 1L23 0L22 0L22 1L20 1L20 0L19 0L19 1L18 1L18 0L17 0L17 1L14 1L14 0ZM37 1L37 2L38 2L38 1ZM42 1L42 2L41 2L41 3L39 3L39 4L38 4L38 5L41 5L41 8L40 8L40 9L41 9L41 10L40 10L40 11L39 11L39 13L38 13L38 14L37 14L37 13L36 13L36 15L35 15L35 16L33 16L33 15L32 15L32 17L31 17L31 16L30 16L30 14L29 14L29 15L28 15L28 14L26 14L26 16L25 16L25 14L24 14L24 13L25 13L25 12L24 12L24 9L25 9L25 11L26 11L26 12L27 12L27 11L29 11L29 10L30 10L30 9L25 9L25 8L26 8L26 4L25 4L25 8L24 8L24 6L23 6L23 5L24 5L24 4L23 4L23 3L22 3L22 4L23 4L23 5L22 5L22 6L21 6L21 8L22 8L22 9L18 9L18 5L19 5L19 7L20 7L20 5L19 5L19 4L21 4L21 3L19 3L19 4L18 4L18 5L17 5L17 2L16 2L16 3L14 3L14 2L13 2L13 3L14 3L14 4L16 4L16 5L14 5L14 6L13 6L13 7L14 7L14 10L16 10L16 11L15 11L15 12L17 12L17 13L13 13L13 14L15 14L15 16L14 16L14 17L13 17L13 16L12 16L12 17L13 17L13 18L12 18L12 19L11 19L11 20L12 20L12 21L14 21L14 22L13 22L13 23L10 23L10 22L9 22L9 21L8 21L8 20L7 20L7 19L6 19L6 18L8 18L8 19L9 19L9 20L10 20L10 17L11 17L11 15L12 15L12 14L11 14L11 15L9 15L9 16L10 16L10 17L9 17L9 18L8 18L8 17L5 17L5 18L4 18L4 17L3 17L3 18L4 18L4 19L5 19L5 20L7 20L7 21L2 21L2 22L7 22L7 21L8 21L8 23L9 23L9 24L10 24L10 26L11 26L11 24L12 24L12 25L13 25L13 26L12 26L12 28L13 28L13 30L14 30L14 29L15 29L15 33L16 33L16 34L19 34L19 33L20 33L20 34L21 34L21 33L20 33L20 32L19 32L19 31L18 31L18 29L19 29L19 28L20 28L20 31L22 31L22 33L23 33L23 34L22 34L22 35L23 35L23 36L19 36L19 37L17 37L17 35L16 35L16 36L15 36L15 34L14 34L14 36L15 36L15 37L16 37L16 38L14 38L14 37L13 37L13 36L12 36L12 35L13 35L13 32L12 32L12 31L11 31L11 30L10 30L10 28L11 28L11 27L10 27L10 28L9 28L9 30L10 30L10 31L9 31L9 32L8 32L8 31L6 31L6 32L4 32L4 34L3 34L3 35L2 35L2 37L3 37L3 38L2 38L2 39L3 39L3 38L4 38L4 40L2 40L2 42L3 42L3 41L4 41L4 42L5 42L5 43L4 43L4 44L3 44L3 47L5 47L5 44L8 44L8 42L7 42L7 41L6 41L6 40L8 40L8 41L9 41L9 43L10 43L10 44L9 44L9 45L11 45L11 46L10 46L10 47L9 47L9 46L7 46L7 45L6 45L6 46L7 46L7 47L8 47L8 48L9 48L9 49L10 49L10 48L11 48L11 49L14 49L14 50L15 50L15 49L14 49L14 48L17 48L17 45L18 45L18 44L17 44L17 43L18 43L18 42L19 42L19 45L20 45L20 46L21 46L21 45L22 45L22 47L24 47L24 45L25 45L25 46L26 46L26 45L27 45L27 47L26 47L26 48L29 48L29 47L30 47L30 48L32 48L32 49L31 49L31 51L33 51L33 50L32 50L32 49L33 49L33 48L34 48L34 50L35 50L35 49L36 49L36 48L37 48L37 49L38 49L38 50L39 50L39 49L41 49L41 50L40 50L40 51L43 51L43 50L44 50L44 51L46 51L46 52L48 52L48 51L46 51L46 50L47 50L47 49L48 49L48 48L47 48L47 47L46 47L46 48L44 48L44 47L45 47L45 45L46 45L46 46L47 46L47 45L48 45L48 46L49 46L49 45L51 45L51 44L50 44L50 43L51 43L51 42L50 42L50 43L49 43L49 41L51 41L51 40L53 40L53 39L51 39L51 38L53 38L53 37L51 37L51 36L52 36L52 34L54 34L54 32L53 32L53 33L52 33L52 31L50 31L50 32L51 32L51 34L50 34L50 35L49 35L49 31L48 31L48 32L47 32L47 31L46 31L46 30L48 30L48 29L46 29L46 30L45 30L45 28L44 28L44 26L45 26L45 27L46 27L46 26L48 26L48 25L49 25L49 24L51 24L51 25L50 25L50 26L52 26L52 25L53 25L53 27L55 27L55 26L54 26L54 25L56 25L56 24L53 24L53 23L55 23L55 22L54 22L54 21L55 21L55 20L56 20L56 19L55 19L55 20L50 20L50 22L49 22L49 24L47 24L47 23L46 23L46 24L47 24L47 25L46 25L46 26L45 26L45 24L44 24L44 23L43 23L43 22L42 22L42 20L43 20L43 18L44 18L44 19L45 19L45 16L46 16L46 14L45 14L45 16L44 16L44 17L43 17L43 18L42 18L42 16L40 16L40 15L43 15L43 14L44 14L44 13L45 13L45 12L44 12L44 11L43 11L43 10L42 10L42 9L44 9L44 10L45 10L45 11L46 11L46 10L45 10L45 8L42 8L42 6L43 6L43 7L44 7L44 6L45 6L45 7L46 7L46 5L47 5L47 3L44 3L44 2L43 2L43 1ZM42 2L42 3L43 3L43 4L42 4L42 5L43 5L43 4L44 4L44 5L45 5L45 4L44 4L44 3L43 3L43 2ZM27 5L27 8L30 8L30 5ZM14 6L14 7L15 7L15 9L17 9L17 8L16 8L16 7L17 7L17 6L16 6L16 7L15 7L15 6ZM22 6L22 7L23 7L23 6ZM28 6L28 7L29 7L29 6ZM33 6L33 7L34 7L34 6ZM23 8L23 9L22 9L22 11L21 11L21 12L20 12L20 13L19 13L19 10L18 10L18 11L17 11L17 12L18 12L18 13L17 13L17 16L15 16L15 17L14 17L14 18L15 18L15 21L16 21L16 22L15 22L15 23L16 23L16 25L17 25L17 21L20 21L20 20L21 20L21 24L18 24L18 25L22 25L22 26L20 26L20 28L21 28L21 29L22 29L22 28L21 28L21 27L22 27L22 26L23 26L23 25L22 25L22 22L24 22L24 21L25 21L25 22L26 22L26 23L25 23L25 24L29 24L29 23L30 23L30 24L31 24L31 25L30 25L30 26L29 26L29 25L27 25L27 26L26 26L26 25L24 25L24 28L23 28L23 29L24 29L24 30L25 30L25 31L24 31L24 32L25 32L25 31L26 31L26 34L25 34L25 33L24 33L24 34L25 34L25 35L24 35L24 36L23 36L23 37L19 37L19 38L20 38L20 39L18 39L18 38L17 38L17 39L18 39L18 41L22 41L22 43L21 43L21 42L20 42L20 43L21 43L21 44L20 44L20 45L21 45L21 44L22 44L22 45L23 45L23 41L24 41L24 42L25 42L25 41L24 41L24 40L25 40L25 39L26 39L26 38L25 38L25 36L26 36L26 35L27 35L27 36L28 36L28 35L29 35L29 39L30 39L30 40L28 40L28 39L27 39L27 40L28 40L28 41L26 41L26 42L27 42L27 43L26 43L26 44L25 44L25 43L24 43L24 44L25 44L25 45L26 45L26 44L27 44L27 45L29 45L29 44L28 44L28 43L31 43L31 42L32 42L32 41L31 41L31 40L32 40L32 39L31 39L31 37L32 37L32 36L31 36L31 34L32 34L32 35L33 35L33 37L35 37L35 36L34 36L34 35L35 35L35 34L34 34L34 33L35 33L35 32L36 32L36 35L37 35L37 36L36 36L36 38L34 38L34 39L33 39L33 40L34 40L34 39L35 39L35 41L37 41L37 40L36 40L36 39L40 39L40 40L39 40L39 42L36 42L36 43L37 43L37 44L35 44L35 43L34 43L34 44L35 44L35 45L37 45L37 46L36 46L36 47L35 47L35 46L34 46L34 45L33 45L33 46L34 46L34 48L36 48L36 47L37 47L37 48L41 48L41 47L40 47L40 46L38 46L38 45L39 45L39 43L40 43L40 44L41 44L41 46L44 46L44 44L45 44L45 43L47 43L47 42L46 42L46 40L45 40L45 39L42 39L42 42L41 42L41 43L40 43L40 40L41 40L41 39L40 39L40 38L43 38L43 37L44 37L44 38L45 38L45 37L44 37L44 36L45 36L45 35L42 35L42 34L44 34L44 32L45 32L45 33L47 33L47 32L46 32L46 31L45 31L45 30L44 30L44 28L43 28L43 29L41 29L41 31L39 31L39 32L38 32L38 29L39 29L39 30L40 30L40 29L39 29L39 28L42 28L42 27L41 27L41 25L40 25L40 24L41 24L41 23L40 23L40 24L39 24L39 22L40 22L40 21L39 21L39 22L38 22L38 21L37 21L37 20L36 20L36 19L38 19L38 20L42 20L42 19L40 19L40 18L41 18L41 17L40 17L40 18L38 18L38 16L39 16L39 14L38 14L38 16L35 16L35 17L36 17L36 19L35 19L35 18L34 18L34 17L33 17L33 19L32 19L32 18L31 18L31 17L29 17L29 16L28 16L28 15L27 15L27 16L26 16L26 17L27 17L27 18L28 18L28 19L27 19L27 20L25 20L25 19L24 19L24 21L22 21L22 19L23 19L23 17L24 17L24 18L25 18L25 17L24 17L24 16L23 16L23 15L22 15L22 13L24 13L24 12L23 12L23 9L24 9L24 8ZM51 8L51 9L52 9L52 8ZM53 8L53 9L54 9L54 8ZM1 9L1 10L2 10L2 9ZM4 9L4 10L5 10L5 9ZM6 9L6 10L9 10L9 9ZM33 9L33 10L34 10L34 9ZM26 10L26 11L27 11L27 10ZM35 10L35 11L36 11L36 10ZM41 10L41 11L42 11L42 12L41 12L41 14L43 14L43 11L42 11L42 10ZM13 11L13 12L14 12L14 11ZM21 12L21 13L20 13L20 14L21 14L21 13L22 13L22 12ZM5 13L5 15L6 15L6 16L8 16L8 14L7 14L7 13ZM33 13L33 14L35 14L35 13ZM50 13L50 14L49 14L49 15L50 15L50 14L51 14L51 13ZM53 13L53 14L54 14L54 13ZM6 14L6 15L7 15L7 14ZM54 15L54 16L55 16L55 15ZM20 16L20 19L22 19L22 18L21 18L21 16ZM22 16L22 17L23 17L23 16ZM27 16L27 17L28 17L28 16ZM16 17L16 18L17 18L17 17ZM18 17L18 18L19 18L19 17ZM30 18L30 19L31 19L31 20L32 20L32 21L31 21L31 22L30 22L30 23L31 23L31 24L34 24L34 23L31 23L31 22L35 22L35 25L36 25L36 22L37 22L37 26L36 26L36 27L37 27L37 26L39 26L39 25L38 25L38 22L37 22L37 21L36 21L36 20L35 20L35 19L33 19L33 20L32 20L32 19L31 19L31 18ZM12 19L12 20L14 20L14 19ZM17 19L17 20L16 20L16 21L17 21L17 20L19 20L19 19ZM28 20L28 22L27 22L27 23L29 23L29 20ZM51 21L51 22L50 22L50 23L52 23L52 21ZM18 22L18 23L20 23L20 22ZM5 23L5 26L7 26L7 25L8 25L8 26L9 26L9 25L8 25L8 24L7 24L7 23ZM23 23L23 24L24 24L24 23ZM42 23L42 24L43 24L43 23ZM0 24L0 25L1 25L1 26L2 26L2 27L3 27L3 26L2 26L2 25L1 25L1 24ZM6 24L6 25L7 25L7 24ZM13 24L13 25L15 25L15 24ZM31 25L31 26L32 26L32 25ZM33 25L33 26L34 26L34 28L35 28L35 26L34 26L34 25ZM42 25L42 26L43 26L43 25ZM13 26L13 27L14 27L14 28L15 28L15 29L18 29L18 28L16 28L16 27L14 27L14 26ZM17 26L17 27L18 27L18 26ZM25 26L25 27L26 27L26 26ZM0 27L0 28L1 28L1 27ZM5 27L5 30L8 30L8 27ZM27 27L27 30L30 30L30 27ZM47 27L47 28L48 28L48 27ZM49 27L49 30L52 30L52 27ZM6 28L6 29L7 29L7 28ZM24 28L24 29L26 29L26 28ZM28 28L28 29L29 29L29 28ZM31 28L31 31L30 31L30 32L29 32L29 33L28 33L28 34L29 34L29 35L30 35L30 34L29 34L29 33L30 33L30 32L32 32L32 34L33 34L33 32L32 32L32 31L33 31L33 30L35 30L35 29L33 29L33 28ZM37 28L37 29L38 29L38 28ZM50 28L50 29L51 29L51 28ZM53 28L53 31L54 31L54 29L55 29L55 28ZM0 29L0 31L1 31L1 30L2 30L2 31L3 31L3 30L2 30L2 29ZM32 29L32 30L33 30L33 29ZM22 30L22 31L23 31L23 30ZM42 30L42 31L41 31L41 32L39 32L39 33L38 33L38 32L37 32L37 31L36 31L36 32L37 32L37 33L38 33L38 38L40 38L40 37L43 37L43 36L42 36L42 35L41 35L41 34L42 34L42 33L43 33L43 32L42 32L42 31L44 31L44 30ZM10 31L10 32L11 32L11 31ZM16 31L16 33L19 33L19 32L18 32L18 31ZM27 31L27 32L28 32L28 31ZM34 31L34 32L35 32L35 31ZM56 31L56 32L57 32L57 31ZM6 32L6 33L7 33L7 32ZM9 33L9 34L11 34L11 35L12 35L12 34L11 34L11 33ZM4 34L4 38L5 38L5 40L6 40L6 39L7 39L7 38L8 38L8 39L9 39L9 40L11 40L11 39L12 39L12 38L13 38L13 37L12 37L12 36L10 36L10 35L8 35L8 34L6 34L6 35L7 35L7 36L5 36L5 34ZM39 34L39 35L40 35L40 36L41 36L41 35L40 35L40 34ZM46 34L46 37L47 37L47 38L46 38L46 39L47 39L47 40L48 40L48 41L49 41L49 40L51 40L51 39L49 39L49 35L47 35L47 34ZM50 35L50 36L51 36L51 35ZM7 36L7 37L5 37L5 38L7 38L7 37L8 37L8 38L9 38L9 39L10 39L10 38L11 38L11 37L10 37L10 36L9 36L9 37L8 37L8 36ZM47 36L47 37L48 37L48 36ZM23 37L23 38L24 38L24 37ZM27 37L27 38L28 38L28 37ZM50 37L50 38L51 38L51 37ZM47 38L47 39L48 39L48 40L49 40L49 39L48 39L48 38ZM14 39L14 40L15 40L15 41L12 41L12 43L13 43L13 44L14 44L14 45L12 45L12 44L11 44L11 45L12 45L12 48L14 48L14 47L13 47L13 46L15 46L15 45L17 45L17 44L15 44L15 43L16 43L16 42L15 42L15 41L17 41L17 40L16 40L16 39ZM23 39L23 40L22 40L22 41L23 41L23 40L24 40L24 39ZM43 40L43 42L42 42L42 43L41 43L41 44L42 44L42 45L43 45L43 44L44 44L44 43L45 43L45 40ZM5 41L5 42L6 42L6 43L7 43L7 42L6 42L6 41ZM28 41L28 42L31 42L31 41ZM33 41L33 42L34 42L34 41ZM56 41L56 42L53 42L53 44L55 44L55 43L56 43L56 42L57 42L57 41ZM10 42L10 43L11 43L11 42ZM13 42L13 43L15 43L15 42ZM32 43L32 44L33 44L33 43ZM42 43L42 44L43 44L43 43ZM30 44L30 47L32 47L32 48L33 48L33 47L32 47L32 46L31 46L31 44ZM56 44L56 46L57 46L57 44ZM1 46L1 47L2 47L2 46ZM37 46L37 47L38 47L38 46ZM19 48L19 49L18 49L18 51L16 51L16 53L15 53L15 54L16 54L16 53L17 53L17 56L21 56L21 53L24 53L24 52L20 52L20 53L17 53L17 52L19 52L19 51L20 51L20 50L21 50L21 51L22 51L22 50L21 50L21 49L23 49L23 48L21 48L21 49L20 49L20 48ZM24 48L24 49L25 49L25 48ZM43 48L43 49L42 49L42 50L43 50L43 49L44 49L44 48ZM46 48L46 49L47 49L47 48ZM53 48L53 51L55 51L55 50L56 50L56 49L55 49L55 50L54 50L54 48ZM16 49L16 50L17 50L17 49ZM19 49L19 50L20 50L20 49ZM27 49L27 52L30 52L30 49ZM49 49L49 52L52 52L52 49ZM12 50L12 51L13 51L13 50ZM25 50L25 52L26 52L26 50ZM28 50L28 51L29 51L29 50ZM50 50L50 51L51 51L51 50ZM38 51L38 54L40 54L40 55L41 55L41 56L42 56L42 55L43 55L43 54L41 54L41 53L42 53L42 52L39 52L39 51ZM18 54L18 55L20 55L20 54ZM49 54L49 55L50 55L50 56L51 56L51 55L50 55L50 54ZM15 55L15 56L16 56L16 55ZM36 56L36 57L37 57L37 56ZM0 0L0 7L7 7L7 0ZM1 1L1 6L6 6L6 1ZM2 2L2 5L5 5L5 2ZM50 0L50 7L57 7L57 0ZM51 1L51 6L56 6L56 1ZM52 2L52 5L55 5L55 2ZM0 50L0 57L7 57L7 50ZM1 51L1 56L6 56L6 51ZM2 52L2 55L5 55L5 52Z" fill="#000000"/></g></g></svg>
