<?xml version="1.0" encoding="UTF-8"?>
<svg xmlns="http://www.w3.org/2000/svg" version="1.1" width="100" height="100" viewBox="0 0 100 100"><rect x="0" y="0" width="100" height="100" fill="#ffffff"/><g transform="scale(1.754)"><g transform="translate(0,0)"><path fill-rule="evenodd" d="M8 0L8 4L9 4L9 2L10 2L10 1L11 1L11 3L10 3L10 5L8 5L8 7L9 7L9 9L7 9L7 8L4 8L4 9L3 9L3 11L1 11L1 10L2 10L2 8L0 8L0 11L1 11L1 12L2 12L2 13L0 13L0 17L2 17L2 16L1 16L1 15L4 15L4 16L3 16L3 18L2 18L2 19L0 19L0 20L1 20L1 21L2 21L2 22L4 22L4 24L3 24L3 26L2 26L2 27L0 27L0 28L1 28L1 30L0 30L0 31L1 31L1 30L4 30L4 32L3 32L3 31L2 31L2 32L1 32L1 33L0 33L0 34L1 34L1 33L3 33L3 34L2 34L2 38L3 38L3 39L2 39L2 40L3 40L3 41L2 41L2 42L1 42L1 41L0 41L0 44L1 44L1 45L0 45L0 48L5 48L5 47L7 47L7 48L6 48L6 49L8 49L8 50L9 50L9 51L8 51L8 53L9 53L9 55L8 55L8 57L10 57L10 56L9 56L9 55L10 55L10 53L11 53L11 54L12 54L12 55L11 55L11 56L12 56L12 57L14 57L14 56L15 56L15 55L16 55L16 54L17 54L17 56L16 56L16 57L17 57L17 56L18 56L18 57L19 57L19 55L20 55L20 54L21 54L21 55L24 55L24 56L23 56L23 57L24 57L24 56L25 56L25 57L28 57L28 55L30 55L30 57L31 57L31 54L32 54L32 53L33 53L33 55L34 55L34 52L35 52L35 55L36 55L36 57L38 57L38 56L40 56L40 55L41 55L41 57L42 57L42 55L43 55L43 57L45 57L45 56L46 56L46 57L48 57L48 56L49 56L49 57L50 57L50 56L49 56L49 55L50 55L50 54L52 54L52 55L51 55L51 57L52 57L52 56L53 56L53 55L55 55L55 54L57 54L57 51L56 51L56 50L57 50L57 48L56 48L56 50L55 50L55 52L56 52L56 53L54 53L54 54L52 54L52 53L53 53L53 48L54 48L54 47L53 47L53 46L52 46L52 44L53 44L53 42L52 42L52 41L54 41L54 40L53 40L53 38L55 38L55 39L57 39L57 38L56 38L56 37L57 37L57 36L56 36L56 34L57 34L57 31L56 31L56 32L53 32L53 31L54 31L54 29L53 29L53 27L55 27L55 28L57 28L57 27L56 27L56 25L54 25L54 24L53 24L53 25L54 25L54 26L51 26L51 25L52 25L52 22L55 22L55 24L56 24L56 22L55 22L55 21L54 21L54 20L53 20L53 21L52 21L52 19L51 19L51 18L53 18L53 19L55 19L55 20L56 20L56 21L57 21L57 20L56 20L56 18L57 18L57 17L56 17L56 16L57 16L57 15L56 15L56 16L54 16L54 18L53 18L53 17L52 17L52 15L54 15L54 13L53 13L53 14L52 14L52 15L51 15L51 13L52 13L52 10L51 10L51 9L52 9L52 8L51 8L51 9L50 9L50 11L49 11L49 9L48 9L48 10L47 10L47 11L43 11L43 10L45 10L45 8L46 8L46 9L47 9L47 5L48 5L48 0L44 0L44 3L42 3L42 1L43 1L43 0L41 0L41 3L40 3L40 1L39 1L39 0L38 0L38 1L37 1L37 0L35 0L35 1L33 1L33 2L32 2L32 3L30 3L30 2L29 2L29 3L28 3L28 2L27 2L27 3L28 3L28 4L26 4L26 3L25 3L25 2L22 2L22 3L21 3L21 2L19 2L19 1L18 1L18 0L17 0L17 1L16 1L16 0L13 0L13 1L12 1L12 0L10 0L10 1L9 1L9 0ZM20 0L20 1L23 1L23 0ZM24 0L24 1L27 1L27 0ZM28 0L28 1L31 1L31 0ZM13 1L13 2L12 2L12 6L11 6L11 5L10 5L10 6L9 6L9 7L10 7L10 6L11 6L11 8L12 8L12 9L13 9L13 10L11 10L11 11L10 11L10 10L7 10L7 9L4 9L4 11L5 11L5 12L8 12L8 13L4 13L4 12L3 12L3 14L5 14L5 15L6 15L6 16L8 16L8 17L6 17L6 18L8 18L8 19L4 19L4 18L3 18L3 19L4 19L4 20L3 20L3 21L4 21L4 22L7 22L7 21L6 21L6 20L8 20L8 21L9 21L9 22L8 22L8 23L6 23L6 24L8 24L8 25L9 25L9 24L10 24L10 22L11 22L11 23L12 23L12 21L13 21L13 22L14 22L14 21L13 21L13 19L14 19L14 20L15 20L15 21L17 21L17 22L16 22L16 23L15 23L15 24L14 24L14 23L13 23L13 26L14 26L14 27L12 27L12 25L11 25L11 26L10 26L10 27L9 27L9 31L6 31L6 32L9 32L9 34L10 34L10 35L8 35L8 37L4 37L4 41L3 41L3 42L2 42L2 43L1 43L1 44L2 44L2 43L3 43L3 42L5 42L5 46L4 46L4 44L3 44L3 47L5 47L5 46L7 46L7 47L9 47L9 48L8 48L8 49L9 49L9 50L10 50L10 47L9 47L9 46L7 46L7 45L8 45L8 44L9 44L9 45L10 45L10 46L11 46L11 45L10 45L10 44L11 44L11 41L9 41L9 42L8 42L8 40L7 40L7 39L5 39L5 38L8 38L8 39L9 39L9 38L10 38L10 39L11 39L11 37L12 37L12 39L13 39L13 40L12 40L12 41L14 41L14 42L12 42L12 43L14 43L14 44L12 44L12 45L14 45L14 46L12 46L12 47L11 47L11 49L12 49L12 47L13 47L13 49L14 49L14 50L16 50L16 51L18 51L18 50L19 50L19 51L20 51L20 49L21 49L21 51L22 51L22 53L21 53L21 54L22 54L22 53L24 53L24 54L25 54L25 56L27 56L27 54L28 54L28 53L26 53L26 48L28 48L28 46L30 46L30 47L29 47L29 48L30 48L30 47L31 47L31 49L32 49L32 50L31 50L31 51L33 51L33 52L34 52L34 51L37 51L37 52L38 52L38 51L37 51L37 50L38 50L38 49L37 49L37 50L35 50L35 49L36 49L36 47L38 47L38 45L39 45L39 46L40 46L40 45L41 45L41 43L42 43L42 45L44 45L44 46L46 46L46 47L47 47L47 49L46 49L46 50L44 50L44 51L43 51L43 52L44 52L44 51L45 51L45 52L47 52L47 51L48 51L48 50L47 50L47 49L48 49L48 47L49 47L49 48L50 48L50 47L51 47L51 46L50 46L50 45L51 45L51 44L50 44L50 43L52 43L52 42L51 42L51 41L52 41L52 38L53 38L53 37L56 37L56 36L55 36L55 34L54 34L54 35L53 35L53 33L52 33L52 34L50 34L50 35L47 35L47 34L49 34L49 33L51 33L51 32L52 32L52 31L51 31L51 32L50 32L50 31L49 31L49 32L48 32L48 25L49 25L49 26L50 26L50 25L51 25L51 24L49 24L49 23L50 23L50 17L51 17L51 15L50 15L50 13L51 13L51 12L49 12L49 11L48 11L48 12L47 12L47 13L46 13L46 12L45 12L45 14L44 14L44 12L43 12L43 11L42 11L42 12L43 12L43 14L44 14L44 15L45 15L45 18L44 18L44 19L45 19L45 18L46 18L46 19L47 19L47 18L48 18L48 17L49 17L49 20L45 20L45 21L46 21L46 23L47 23L47 25L46 25L46 24L45 24L45 27L46 27L46 28L45 28L45 29L44 29L44 27L43 27L43 28L42 28L42 25L41 25L41 24L42 24L42 23L40 23L40 22L42 22L42 20L43 20L43 21L44 21L44 20L43 20L43 19L40 19L40 21L39 21L39 22L38 22L38 20L39 20L39 19L38 19L38 20L37 20L37 21L36 21L36 19L37 19L37 18L38 18L38 13L39 13L39 12L40 12L40 14L41 14L41 11L39 11L39 12L37 12L37 13L34 13L34 12L33 12L33 13L34 13L34 14L36 14L36 15L37 15L37 18L36 18L36 17L35 17L35 15L34 15L34 17L33 17L33 18L32 18L32 19L31 19L31 18L30 18L30 19L29 19L29 18L28 18L28 17L27 17L27 15L29 15L29 13L30 13L30 15L31 15L31 12L32 12L32 11L33 11L33 10L36 10L36 11L37 11L37 9L35 9L35 8L36 8L36 6L37 6L37 8L38 8L38 9L41 9L41 10L42 10L42 8L41 8L41 7L42 7L42 6L43 6L43 7L44 7L44 6L43 6L43 5L42 5L42 6L41 6L41 7L40 7L40 5L41 5L41 4L40 4L40 3L39 3L39 1L38 1L38 3L36 3L36 4L34 4L34 2L33 2L33 3L32 3L32 4L31 4L31 5L32 5L32 6L31 6L31 7L32 7L32 8L34 8L34 9L33 9L33 10L32 10L32 9L31 9L31 12L30 12L30 9L28 9L28 10L27 10L27 11L26 11L26 10L24 10L24 9L26 9L26 6L25 6L25 7L24 7L24 6L23 6L23 5L24 5L24 4L25 4L25 3L23 3L23 5L22 5L22 4L21 4L21 3L19 3L19 2L17 2L17 4L16 4L16 3L14 3L14 2L16 2L16 1ZM45 1L45 2L47 2L47 1ZM13 3L13 4L14 4L14 3ZM44 3L44 5L45 5L45 7L46 7L46 5L47 5L47 3L46 3L46 5L45 5L45 3ZM17 4L17 5L18 5L18 4ZM32 4L32 5L33 5L33 6L32 6L32 7L33 7L33 6L34 6L34 7L35 7L35 6L34 6L34 4ZM38 4L38 5L37 5L37 6L38 6L38 8L39 8L39 6L38 6L38 5L40 5L40 4ZM13 5L13 6L12 6L12 7L13 7L13 8L14 8L14 9L15 9L15 10L13 10L13 11L14 11L14 12L15 12L15 11L16 11L16 13L13 13L13 15L12 15L12 14L10 14L10 13L12 13L12 12L10 12L10 11L9 11L9 14L6 14L6 15L9 15L9 17L10 17L10 18L11 18L11 19L12 19L12 16L13 16L13 15L14 15L14 14L16 14L16 17L17 17L17 18L18 18L18 17L19 17L19 16L20 16L20 18L19 18L19 19L17 19L17 21L19 21L19 23L20 23L20 22L21 22L21 24L23 24L23 25L19 25L19 24L18 24L18 22L17 22L17 24L16 24L16 25L14 25L14 26L15 26L15 28L16 28L16 29L14 29L14 28L11 28L11 27L10 27L10 30L11 30L11 31L10 31L10 32L11 32L11 31L12 31L12 32L13 32L13 30L11 30L11 29L14 29L14 30L16 30L16 31L18 31L18 32L15 32L15 31L14 31L14 32L15 32L15 33L14 33L14 34L13 34L13 33L12 33L12 34L13 34L13 37L16 37L16 36L17 36L17 37L22 37L22 38L20 38L20 39L19 39L19 40L18 40L18 38L16 38L16 39L14 39L14 38L13 38L13 39L14 39L14 41L15 41L15 40L16 40L16 41L17 41L17 40L18 40L18 41L19 41L19 42L20 42L20 44L18 44L18 45L17 45L17 44L16 44L16 45L15 45L15 44L14 44L14 45L15 45L15 46L14 46L14 47L15 47L15 46L16 46L16 49L17 49L17 50L18 50L18 49L20 49L20 48L21 48L21 49L22 49L22 50L25 50L25 49L24 49L24 48L23 48L23 49L22 49L22 47L24 47L24 46L25 46L25 48L26 48L26 47L27 47L27 46L28 46L28 45L29 45L29 44L30 44L30 45L31 45L31 46L32 46L32 45L33 45L33 46L34 46L34 47L35 47L35 46L37 46L37 44L39 44L39 45L40 45L40 43L41 43L41 42L39 42L39 39L41 39L41 40L42 40L42 39L43 39L43 38L44 38L44 37L45 37L45 39L44 39L44 40L43 40L43 41L42 41L42 43L44 43L44 45L47 45L47 43L48 43L48 44L49 44L49 43L50 43L50 42L49 42L49 41L51 41L51 39L50 39L50 38L52 38L52 36L51 36L51 35L50 35L50 36L48 36L48 37L47 37L47 35L43 35L43 33L42 33L42 35L41 35L41 34L40 34L40 31L41 31L41 32L42 32L42 31L43 31L43 32L44 32L44 34L46 34L46 33L47 33L47 31L43 31L43 29L41 29L41 30L40 30L40 31L39 31L39 33L38 33L38 30L39 30L39 29L40 29L40 27L41 27L41 26L40 26L40 25L39 25L39 24L38 24L38 22L37 22L37 23L36 23L36 22L35 22L35 24L34 24L34 25L33 25L33 26L32 26L32 25L30 25L30 26L29 26L29 25L28 25L28 23L29 23L29 24L31 24L31 23L32 23L32 21L33 21L33 23L34 23L34 21L35 21L35 20L33 20L33 19L34 19L34 18L33 18L33 19L32 19L32 21L31 21L31 20L29 20L29 22L26 22L26 23L25 23L25 22L24 22L24 21L26 21L26 20L24 20L24 19L25 19L25 17L26 17L26 18L27 18L27 17L26 17L26 14L25 14L25 13L24 13L24 11L23 11L23 12L22 12L22 11L20 11L20 12L18 12L18 13L17 13L17 11L18 11L18 9L19 9L19 10L21 10L21 9L19 9L19 8L23 8L23 9L22 9L22 10L23 10L23 9L24 9L24 7L23 7L23 6L22 6L22 5L21 5L21 6L20 6L20 5L19 5L19 6L18 6L18 7L17 7L17 6L16 6L16 5ZM27 5L27 8L30 8L30 5ZM13 6L13 7L14 7L14 8L15 8L15 9L16 9L16 10L17 10L17 9L18 9L18 8L17 8L17 9L16 9L16 8L15 8L15 7L16 7L16 6L15 6L15 7L14 7L14 6ZM19 6L19 7L20 7L20 6ZM21 6L21 7L22 7L22 6ZM28 6L28 7L29 7L29 6ZM48 6L48 8L49 8L49 6ZM53 8L53 9L55 9L55 10L54 10L54 11L53 11L53 12L54 12L54 11L56 11L56 9L57 9L57 8ZM5 10L5 11L7 11L7 10ZM28 10L28 11L27 11L27 12L28 12L28 11L29 11L29 10ZM25 11L25 12L26 12L26 11ZM20 12L20 13L19 13L19 14L17 14L17 13L16 13L16 14L17 14L17 16L19 16L19 14L20 14L20 13L21 13L21 18L20 18L20 19L23 19L23 18L24 18L24 17L25 17L25 16L24 16L24 17L23 17L23 16L22 16L22 14L24 14L24 13L21 13L21 12ZM55 12L55 14L56 14L56 12ZM48 13L48 14L47 14L47 15L48 15L48 14L49 14L49 13ZM32 14L32 16L31 16L31 17L32 17L32 16L33 16L33 14ZM39 15L39 16L40 16L40 17L41 17L41 18L42 18L42 16L43 16L43 17L44 17L44 16L43 16L43 15ZM49 15L49 17L50 17L50 15ZM4 16L4 17L5 17L5 16ZM10 16L10 17L11 17L11 16ZM14 16L14 17L13 17L13 18L14 18L14 17L15 17L15 16ZM29 16L29 17L30 17L30 16ZM22 17L22 18L23 18L23 17ZM15 18L15 20L16 20L16 18ZM35 18L35 19L36 19L36 18ZM4 20L4 21L5 21L5 20ZM9 20L9 21L10 21L10 20ZM19 20L19 21L20 21L20 20ZM21 20L21 22L22 22L22 21L24 21L24 20ZM47 21L47 22L49 22L49 21ZM0 22L0 24L1 24L1 22ZM29 22L29 23L30 23L30 22ZM44 22L44 23L45 23L45 22ZM8 23L8 24L9 24L9 23ZM23 23L23 24L24 24L24 25L23 25L23 28L22 28L22 27L21 27L21 26L19 26L19 25L18 25L18 24L17 24L17 25L16 25L16 27L18 27L18 26L19 26L19 27L20 27L20 28L18 28L18 29L16 29L16 30L18 30L18 31L19 31L19 30L20 30L20 31L23 31L23 30L24 30L24 29L25 29L25 30L26 30L26 29L25 29L25 28L24 28L24 27L26 27L26 25L25 25L25 24L24 24L24 23ZM4 24L4 25L5 25L5 24ZM35 24L35 26L36 26L36 27L33 27L33 28L36 28L36 27L37 27L37 26L36 26L36 24ZM0 25L0 26L1 26L1 25ZM6 25L6 26L7 26L7 25ZM17 25L17 26L18 26L18 25ZM24 25L24 26L25 26L25 25ZM27 25L27 26L28 26L28 25ZM43 25L43 26L44 26L44 25ZM3 27L3 28L2 28L2 29L4 29L4 27ZM5 27L5 30L8 30L8 27ZM27 27L27 30L30 30L30 27ZM49 27L49 30L52 30L52 27ZM6 28L6 29L7 29L7 28ZM20 28L20 30L22 30L22 29L21 29L21 28ZM23 28L23 29L24 29L24 28ZM28 28L28 29L29 29L29 28ZM31 28L31 30L32 30L32 31L31 31L31 34L30 34L30 35L29 35L29 33L30 33L30 32L29 32L29 31L27 31L27 32L26 32L26 31L24 31L24 32L20 32L20 33L15 33L15 34L14 34L14 36L15 36L15 34L16 34L16 35L17 35L17 36L19 36L19 34L20 34L20 33L21 33L21 34L22 34L22 33L23 33L23 34L24 34L24 33L25 33L25 32L26 32L26 34L28 34L28 35L29 35L29 36L28 36L28 37L27 37L27 35L26 35L26 39L25 39L25 38L24 38L24 37L23 37L23 35L22 35L22 37L23 37L23 39L24 39L24 40L22 40L22 39L21 39L21 40L19 40L19 41L23 41L23 42L21 42L21 43L22 43L22 44L23 44L23 45L21 45L21 44L20 44L20 45L19 45L19 46L17 46L17 45L16 45L16 46L17 46L17 48L19 48L19 46L20 46L20 45L21 45L21 46L24 46L24 45L26 45L26 46L27 46L27 45L28 45L28 44L27 44L27 45L26 45L26 43L27 43L27 42L28 42L28 43L34 43L34 46L35 46L35 44L36 44L36 43L37 43L37 42L36 42L36 39L37 39L37 41L38 41L38 37L39 37L39 36L40 36L40 37L41 37L41 38L42 38L42 37L44 37L44 36L43 36L43 35L42 35L42 36L41 36L41 35L39 35L39 34L38 34L38 33L37 33L37 34L36 34L36 31L37 31L37 30L38 30L38 29L39 29L39 28L38 28L38 29L37 29L37 30L35 30L35 29L34 29L34 30L35 30L35 33L34 33L34 32L33 32L33 34L34 34L34 35L33 35L33 37L34 37L34 39L35 39L35 40L34 40L34 41L33 41L33 42L32 42L32 41L26 41L26 42L24 42L24 41L25 41L25 40L26 40L26 39L28 39L28 38L29 38L29 40L30 40L30 39L32 39L32 40L33 40L33 39L32 39L32 37L31 37L31 38L30 38L30 37L29 37L29 36L31 36L31 35L32 35L32 31L33 31L33 30L32 30L32 28ZM46 28L46 29L47 29L47 28ZM50 28L50 29L51 29L51 28ZM18 29L18 30L19 30L19 29ZM41 30L41 31L42 31L42 30ZM4 32L4 35L3 35L3 36L4 36L4 35L5 35L5 36L7 36L7 35L5 35L5 32ZM28 32L28 33L29 33L29 32ZM45 32L45 33L46 33L46 32ZM6 33L6 34L7 34L7 33ZM10 33L10 34L11 34L11 33ZM35 34L35 35L34 35L34 36L36 36L36 38L37 38L37 36L39 36L39 35L38 35L38 34L37 34L37 35L36 35L36 34ZM0 35L0 36L1 36L1 35ZM24 35L24 36L25 36L25 35ZM9 36L9 37L11 37L11 36ZM50 36L50 37L49 37L49 38L48 38L48 39L47 39L47 37L46 37L46 39L47 39L47 40L45 40L45 42L44 42L44 43L47 43L47 42L48 42L48 39L49 39L49 40L50 40L50 39L49 39L49 38L50 38L50 37L51 37L51 36ZM0 37L0 38L1 38L1 37ZM0 39L0 40L1 40L1 39ZM5 40L5 41L7 41L7 40ZM55 40L55 41L56 41L56 42L55 42L55 44L56 44L56 45L55 45L55 46L56 46L56 45L57 45L57 44L56 44L56 42L57 42L57 40ZM6 42L6 43L7 43L7 44L6 44L6 45L7 45L7 44L8 44L8 43L7 43L7 42ZM15 42L15 43L18 43L18 42ZM23 42L23 44L25 44L25 43L24 43L24 42ZM34 42L34 43L36 43L36 42ZM9 43L9 44L10 44L10 43ZM31 44L31 45L32 45L32 44ZM1 45L1 47L2 47L2 45ZM48 45L48 46L47 46L47 47L48 47L48 46L49 46L49 47L50 47L50 46L49 46L49 45ZM32 47L32 49L33 49L33 47ZM40 47L40 49L39 49L39 50L40 50L40 49L41 49L41 50L42 50L42 49L44 49L44 47L43 47L43 48L41 48L41 47ZM27 49L27 52L30 52L30 49ZM49 49L49 52L52 52L52 49ZM11 50L11 51L13 51L13 50ZM28 50L28 51L29 51L29 50ZM33 50L33 51L34 51L34 50ZM50 50L50 51L51 51L51 50ZM14 51L14 53L17 53L17 54L18 54L18 55L19 55L19 53L20 53L20 52L19 52L19 53L17 53L17 52L15 52L15 51ZM40 51L40 54L42 54L42 51ZM9 52L9 53L10 53L10 52ZM11 52L11 53L12 53L12 52ZM24 52L24 53L25 53L25 52ZM30 53L30 54L31 54L31 53ZM37 53L37 56L38 56L38 53ZM46 53L46 55L47 55L47 54L48 54L48 55L49 55L49 53ZM34 56L34 57L35 57L35 56ZM56 56L56 57L57 57L57 56ZM0 0L0 7L7 7L7 0ZM1 1L1 6L6 6L6 1ZM2 2L2 5L5 5L5 2ZM50 0L50 7L57 7L57 0ZM51 1L51 6L56 6L56 1ZM52 2L52 5L55 5L55 2ZM0 50L0 57L7 57L7 50ZM1 51L1 56L6 56L6 51ZM2 52L2 55L5 55L5 52Z" fill="#000000"/></g></g></svg>
