<?xml version="1.0" encoding="UTF-8"?>
<svg xmlns="http://www.w3.org/2000/svg" version="1.1" width="100" height="100" viewBox="0 0 100 100"><rect x="0" y="0" width="100" height="100" fill="#ffffff"/><g transform="scale(1.887)"><g transform="translate(0,0)"><path fill-rule="evenodd" d="M8 0L8 4L10 4L10 5L8 5L8 7L9 7L9 6L10 6L10 7L11 7L11 6L12 6L12 7L13 7L13 6L14 6L14 7L15 7L15 5L16 5L16 4L17 4L17 6L16 6L16 8L11 8L11 10L10 10L10 8L9 8L9 10L8 10L8 9L7 9L7 8L4 8L4 11L3 11L3 9L2 9L2 8L0 8L0 9L1 9L1 10L0 10L0 17L1 17L1 18L0 18L0 20L1 20L1 19L2 19L2 18L3 18L3 20L2 20L2 21L3 21L3 20L4 20L4 19L5 19L5 20L6 20L6 21L4 21L4 27L3 27L3 23L2 23L2 22L1 22L1 23L0 23L0 25L2 25L2 27L0 27L0 28L2 28L2 29L4 29L4 35L3 35L3 37L4 37L4 39L0 39L0 41L1 41L1 40L2 40L2 42L0 42L0 43L1 43L1 44L3 44L3 45L4 45L4 44L3 44L3 43L9 43L9 42L8 42L8 41L7 41L7 40L6 40L6 41L7 41L7 42L5 42L5 41L3 41L3 40L4 40L4 39L5 39L5 38L6 38L6 39L7 39L7 38L6 38L6 37L7 37L7 36L5 36L5 37L4 37L4 35L7 35L7 34L10 34L10 35L8 35L8 40L10 40L10 41L11 41L11 42L10 42L10 43L11 43L11 42L12 42L12 44L11 44L11 45L9 45L9 44L6 44L6 45L8 45L8 46L9 46L9 47L8 47L8 49L9 49L9 47L11 47L11 48L13 48L13 47L14 47L14 45L15 45L15 44L16 44L16 45L19 45L19 46L20 46L20 47L21 47L21 48L22 48L22 47L21 47L21 46L23 46L23 45L24 45L24 50L25 50L25 51L23 51L23 49L22 49L22 51L21 51L21 49L19 49L19 48L18 48L18 47L17 47L17 46L16 46L16 47L15 47L15 48L14 48L14 49L11 49L11 50L10 50L10 51L11 51L11 50L12 50L12 53L17 53L17 50L15 50L15 49L17 49L17 48L18 48L18 49L19 49L19 50L20 50L20 51L21 51L21 52L23 52L23 53L25 53L25 52L26 52L26 53L27 53L27 52L26 52L26 51L28 51L28 50L27 50L27 49L29 49L29 51L30 51L30 50L31 50L31 52L29 52L29 53L33 53L33 52L35 52L35 53L37 53L37 52L38 52L38 53L40 53L40 51L41 51L41 53L43 53L43 52L44 52L44 49L47 49L47 50L48 50L48 49L50 49L50 47L51 47L51 46L50 46L50 43L51 43L51 42L52 42L52 44L51 44L51 45L52 45L52 48L51 48L51 49L52 49L52 50L53 50L53 49L52 49L52 48L53 48L53 45L52 45L52 44L53 44L53 36L52 36L52 40L51 40L51 41L50 41L50 39L51 39L51 37L50 37L50 36L49 36L49 35L48 35L48 36L49 36L49 37L48 37L48 38L46 38L46 39L48 39L48 38L49 38L49 41L47 41L47 42L46 42L46 40L45 40L45 39L44 39L44 38L43 38L43 37L46 37L46 35L47 35L47 34L49 34L49 33L50 33L50 28L49 28L49 27L51 27L51 28L52 28L52 27L53 27L53 24L52 24L52 23L53 23L53 17L52 17L52 16L53 16L53 13L52 13L52 12L53 12L53 10L52 10L52 9L53 9L53 8L49 8L49 9L48 9L48 8L47 8L47 9L48 9L48 10L47 10L47 11L46 11L46 10L45 10L45 9L44 9L44 10L43 10L43 8L42 8L42 9L41 9L41 12L42 12L42 11L46 11L46 13L40 13L40 11L39 11L39 9L38 9L38 10L37 10L37 5L36 5L36 8L35 8L35 5L34 5L34 4L35 4L35 1L34 1L34 4L32 4L32 5L33 5L33 6L32 6L32 7L31 7L31 6L30 6L30 5L31 5L31 3L33 3L33 1L32 1L32 0L30 0L30 1L31 1L31 3L30 3L30 2L28 2L28 4L27 4L27 3L26 3L26 4L25 4L25 3L22 3L22 2L21 2L21 1L23 1L23 2L26 2L26 1L27 1L27 0L19 0L19 3L20 3L20 5L19 5L19 6L18 6L18 4L17 4L17 3L16 3L16 2L17 2L17 1L16 1L16 2L13 2L13 1L11 1L11 0L10 0L10 3L9 3L9 0ZM28 0L28 1L29 1L29 0ZM38 0L38 1L36 1L36 3L37 3L37 4L38 4L38 5L39 5L39 6L38 6L38 7L39 7L39 8L40 8L40 7L41 7L41 6L40 6L40 5L39 5L39 4L38 4L38 3L37 3L37 2L39 2L39 3L40 3L40 4L41 4L41 5L42 5L42 7L43 7L43 3L44 3L44 4L45 4L45 3L44 3L44 1L43 1L43 0L41 0L41 1L40 1L40 0ZM41 1L41 2L40 2L40 3L41 3L41 2L42 2L42 3L43 3L43 2L42 2L42 1ZM11 2L11 3L10 3L10 4L11 4L11 5L12 5L12 6L13 6L13 3L12 3L12 2ZM20 2L20 3L21 3L21 4L22 4L22 3L21 3L21 2ZM14 3L14 5L15 5L15 4L16 4L16 3ZM29 3L29 5L30 5L30 3ZM23 4L23 5L21 5L21 7L20 7L20 6L19 6L19 7L18 7L18 6L17 6L17 9L12 9L12 11L13 11L13 10L14 10L14 12L12 12L12 13L11 13L11 12L8 12L8 11L6 11L6 10L7 10L7 9L6 9L6 10L5 10L5 11L4 11L4 12L2 12L2 11L1 11L1 14L2 14L2 15L5 15L5 13L6 13L6 14L7 14L7 15L6 15L6 16L5 16L5 17L6 17L6 18L5 18L5 19L6 19L6 20L8 20L8 21L6 21L6 22L5 22L5 24L7 24L7 23L6 23L6 22L8 22L8 23L9 23L9 24L10 24L10 25L9 25L9 29L8 29L8 30L9 30L9 29L11 29L11 27L10 27L10 26L14 26L14 28L13 28L13 27L12 27L12 29L14 29L14 30L17 30L17 31L14 31L14 32L17 32L17 33L15 33L15 34L17 34L17 33L18 33L18 36L17 36L17 35L16 35L16 36L15 36L15 37L14 37L14 35L12 35L12 37L9 37L9 38L12 38L12 42L13 42L13 44L12 44L12 45L13 45L13 44L14 44L14 42L13 42L13 41L15 41L15 43L16 43L16 42L17 42L17 41L18 41L18 44L19 44L19 45L21 45L21 44L22 44L22 45L23 45L23 44L22 44L22 41L24 41L24 43L26 43L26 44L28 44L28 43L27 43L27 41L26 41L26 39L25 39L25 41L24 41L24 40L22 40L22 39L23 39L23 38L25 38L25 37L26 37L26 38L27 38L27 39L29 39L29 40L28 40L28 42L29 42L29 41L30 41L30 40L31 40L31 42L30 42L30 43L31 43L31 42L32 42L32 40L33 40L33 41L34 41L34 43L36 43L36 40L35 40L35 41L34 41L34 40L33 40L33 39L38 39L38 37L37 37L37 38L35 38L35 37L34 37L34 36L33 36L33 38L32 38L32 40L31 40L31 39L30 39L30 36L28 36L28 35L27 35L27 34L28 34L28 32L27 32L27 33L26 33L26 32L25 32L25 33L24 33L24 35L25 35L25 36L24 36L24 37L23 37L23 36L22 36L22 37L23 37L23 38L22 38L22 39L21 39L21 40L20 40L20 38L19 38L19 37L18 37L18 36L20 36L20 37L21 37L21 35L22 35L22 33L23 33L23 32L24 32L24 31L22 31L22 30L21 30L21 31L20 31L20 29L21 29L21 28L22 28L22 29L24 29L24 30L25 30L25 31L30 31L30 32L31 32L31 34L29 34L29 35L31 35L31 36L32 36L32 35L31 35L31 34L34 34L34 35L35 35L35 36L38 36L38 35L39 35L39 34L40 34L40 36L39 36L39 40L37 40L37 41L39 41L39 42L40 42L40 41L41 41L41 40L42 40L42 41L43 41L43 40L42 40L42 38L41 38L41 37L42 37L42 36L43 36L43 34L45 34L45 35L46 35L46 33L43 33L43 32L42 32L42 31L40 31L40 32L39 32L39 31L38 31L38 29L39 29L39 30L40 30L40 29L41 29L41 28L43 28L43 31L44 31L44 27L40 27L40 28L37 28L37 29L36 29L36 30L35 30L35 29L34 29L34 28L35 28L35 27L37 27L37 26L38 26L38 25L39 25L39 26L40 26L40 25L41 25L41 24L42 24L42 25L43 25L43 26L44 26L44 25L43 25L43 24L42 24L42 23L41 23L41 21L43 21L43 20L44 20L44 21L45 21L45 20L46 20L46 23L47 23L47 24L48 24L48 22L49 22L49 23L50 23L50 25L51 25L51 27L52 27L52 25L51 25L51 23L52 23L52 22L50 22L50 21L52 21L52 17L51 17L51 15L50 15L50 16L49 16L49 17L48 17L48 15L49 15L49 14L52 14L52 13L51 13L51 11L52 11L52 10L51 10L51 11L50 11L50 10L49 10L49 14L47 14L47 13L46 13L46 15L44 15L44 14L43 14L43 16L44 16L44 17L43 17L43 18L44 18L44 19L43 19L43 20L41 20L41 19L40 19L40 20L39 20L39 19L38 19L38 20L37 20L37 22L36 22L36 21L34 21L34 20L33 20L33 22L31 22L31 23L30 23L30 20L31 20L31 19L35 19L35 17L34 17L34 16L35 16L35 15L38 15L38 17L39 17L39 18L41 18L41 16L40 16L40 17L39 17L39 15L38 15L38 13L37 13L37 14L35 14L35 12L34 12L34 11L37 11L37 10L35 10L35 9L34 9L34 8L33 8L33 10L32 10L32 8L31 8L31 7L30 7L30 6L29 6L29 7L30 7L30 8L29 8L29 11L30 11L30 12L27 12L27 10L28 10L28 9L27 9L27 10L25 10L25 9L24 9L24 8L23 8L23 7L24 7L24 4ZM25 5L25 8L28 8L28 5ZM22 6L22 7L21 7L21 9L19 9L19 8L20 8L20 7L19 7L19 8L18 8L18 9L17 9L17 10L16 10L16 13L15 13L15 12L14 12L14 13L15 13L15 14L16 14L16 15L15 15L15 16L13 16L13 14L10 14L10 13L8 13L8 15L9 15L9 14L10 14L10 16L9 16L9 17L7 17L7 16L6 16L6 17L7 17L7 18L6 18L6 19L7 19L7 18L9 18L9 19L10 19L10 20L9 20L9 21L8 21L8 22L9 22L9 23L10 23L10 24L11 24L11 25L13 25L13 22L14 22L14 21L15 21L15 23L14 23L14 25L17 25L17 23L20 23L20 22L21 22L21 21L22 21L22 22L23 22L23 25L22 25L22 24L21 24L21 25L19 25L19 24L18 24L18 25L19 25L19 26L20 26L20 27L22 27L22 28L24 28L24 29L25 29L25 30L26 30L26 29L27 29L27 30L29 30L29 29L30 29L30 31L31 31L31 32L32 32L32 33L33 33L33 31L34 31L34 30L33 30L33 28L34 28L34 26L33 26L33 25L35 25L35 26L37 26L37 25L38 25L38 22L39 22L39 20L38 20L38 22L37 22L37 23L36 23L36 24L35 24L35 23L31 23L31 24L32 24L32 26L31 26L31 25L29 25L29 24L30 24L30 23L29 23L29 22L28 22L28 24L26 24L26 23L27 23L27 21L25 21L25 20L26 20L26 16L25 16L25 17L24 17L24 18L22 18L22 16L24 16L24 15L25 15L25 13L27 13L27 14L28 14L28 15L29 15L29 16L27 16L27 20L30 20L30 19L31 19L31 17L30 17L30 18L29 18L29 16L31 16L31 14L32 14L32 17L33 17L33 16L34 16L34 14L33 14L33 11L32 11L32 10L31 10L31 9L30 9L30 11L32 11L32 12L30 12L30 14L28 14L28 13L27 13L27 12L26 12L26 11L25 11L25 10L24 10L24 9L22 9L22 7L23 7L23 6ZM26 6L26 7L27 7L27 6ZM33 6L33 7L34 7L34 6ZM39 6L39 7L40 7L40 6ZM44 6L44 8L45 8L45 6ZM18 9L18 10L17 10L17 11L19 11L19 14L18 14L18 16L17 16L17 15L16 15L16 16L17 16L17 17L14 17L14 19L13 19L13 21L12 21L12 20L10 20L10 21L9 21L9 22L13 22L13 21L14 21L14 19L15 19L15 21L16 21L16 23L17 23L17 21L16 21L16 18L17 18L17 19L18 19L18 20L20 20L20 21L18 21L18 22L20 22L20 21L21 21L21 19L22 19L22 18L19 18L19 17L21 17L21 16L22 16L22 14L21 14L21 15L19 15L19 14L20 14L20 13L21 13L21 12L22 12L22 13L23 13L23 12L25 12L25 11L24 11L24 10L23 10L23 11L20 11L20 10L19 10L19 9ZM21 9L21 10L22 10L22 9ZM9 10L9 11L10 11L10 10ZM38 11L38 12L39 12L39 11ZM47 11L47 12L48 12L48 11ZM6 12L6 13L7 13L7 12ZM2 13L2 14L3 14L3 13ZM16 13L16 14L17 14L17 13ZM39 13L39 14L40 14L40 13ZM41 14L41 15L42 15L42 14ZM11 15L11 16L12 16L12 17L11 17L11 19L12 19L12 18L13 18L13 16L12 16L12 15ZM2 16L2 17L3 17L3 18L4 18L4 17L3 17L3 16ZM18 16L18 17L17 17L17 18L18 18L18 19L19 19L19 18L18 18L18 17L19 17L19 16ZM36 17L36 19L37 19L37 17ZM44 17L44 18L45 18L45 19L46 19L46 20L47 20L47 22L48 22L48 21L49 21L49 18L50 18L50 19L51 19L51 18L50 18L50 17L49 17L49 18L47 18L47 19L46 19L46 18L45 18L45 17ZM23 19L23 20L22 20L22 21L23 21L23 22L25 22L25 23L24 23L24 24L25 24L25 23L26 23L26 22L25 22L25 21L24 21L24 20L25 20L25 19ZM43 22L43 23L44 23L44 24L45 24L45 22ZM39 24L39 25L40 25L40 24ZM5 25L5 28L8 28L8 25ZM21 25L21 26L22 26L22 25ZM23 25L23 27L24 27L24 25ZM25 25L25 28L28 28L28 25ZM45 25L45 28L48 28L48 25ZM6 26L6 27L7 27L7 26ZM15 26L15 28L14 28L14 29L15 29L15 28L16 28L16 29L17 29L17 30L18 30L18 31L19 31L19 30L18 30L18 29L20 29L20 28L18 28L18 29L17 29L17 28L16 28L16 26ZM26 26L26 27L27 27L27 26ZM30 26L30 28L31 28L31 26ZM32 26L32 27L33 27L33 26ZM46 26L46 27L47 27L47 26ZM2 27L2 28L3 28L3 27ZM6 29L6 30L7 30L7 29ZM31 29L31 30L32 30L32 29ZM45 29L45 32L47 32L47 31L46 31L46 29ZM47 29L47 30L48 30L48 29ZM52 29L52 32L51 32L51 33L52 33L52 34L51 34L51 35L53 35L53 33L52 33L52 32L53 32L53 29ZM12 30L12 31L11 31L11 32L12 32L12 33L10 33L10 31L9 31L9 32L8 32L8 31L6 31L6 32L7 32L7 33L5 33L5 34L7 34L7 33L10 33L10 34L13 34L13 30ZM36 30L36 32L35 32L35 33L37 33L37 30ZM0 31L0 32L2 32L2 34L1 34L1 36L2 36L2 34L3 34L3 32L2 32L2 31ZM21 31L21 33L19 33L19 32L18 32L18 33L19 33L19 34L20 34L20 35L21 35L21 33L22 33L22 31ZM48 31L48 32L49 32L49 31ZM25 33L25 35L26 35L26 33ZM38 33L38 34L39 34L39 33ZM40 33L40 34L43 34L43 33ZM35 34L35 35L36 35L36 34ZM10 35L10 36L11 36L11 35ZM16 36L16 37L17 37L17 39L16 39L16 38L14 38L14 37L13 37L13 39L14 39L14 40L15 40L15 41L17 41L17 40L18 40L18 41L19 41L19 42L20 42L20 44L21 44L21 41L22 41L22 40L21 40L21 41L20 41L20 40L18 40L18 37L17 37L17 36ZM26 36L26 37L28 37L28 36ZM0 37L0 38L2 38L2 37ZM10 39L10 40L11 40L11 39ZM44 40L44 42L43 42L43 43L42 43L42 44L41 44L41 43L40 43L40 45L39 45L39 47L38 47L38 48L37 48L37 49L36 49L36 48L35 48L35 46L36 46L36 47L37 47L37 46L38 46L38 44L39 44L39 43L38 43L38 44L37 44L37 45L34 45L34 44L33 44L33 45L32 45L32 46L31 46L31 47L30 47L30 45L31 45L31 44L29 44L29 47L30 47L30 49L31 49L31 50L33 50L33 49L34 49L34 51L35 51L35 52L36 52L36 51L38 51L38 52L39 52L39 51L40 51L40 50L41 50L41 45L43 45L43 48L44 48L44 45L43 45L43 43L46 43L46 44L48 44L48 42L47 42L47 43L46 43L46 42L45 42L45 40ZM25 41L25 42L26 42L26 41ZM2 42L2 43L3 43L3 42ZM49 42L49 43L50 43L50 42ZM25 45L25 48L28 48L28 45ZM45 45L45 48L48 48L48 45ZM12 46L12 47L13 47L13 46ZM26 46L26 47L27 47L27 46ZM46 46L46 47L47 47L47 46ZM16 47L16 48L17 48L17 47ZM32 47L32 49L33 49L33 47ZM39 47L39 48L40 48L40 47ZM34 48L34 49L35 49L35 48ZM25 49L25 50L26 50L26 49ZM37 49L37 50L38 50L38 51L39 51L39 49ZM35 50L35 51L36 51L36 50ZM45 50L45 51L46 51L46 53L50 53L50 51L51 51L51 53L52 53L52 52L53 52L53 51L51 51L51 50L50 50L50 51L49 51L49 52L47 52L47 51L46 51L46 50ZM8 51L8 53L9 53L9 51ZM14 51L14 52L15 52L15 51ZM18 52L18 53L20 53L20 52ZM0 0L0 7L7 7L7 0ZM1 1L1 6L6 6L6 1ZM2 2L2 5L5 5L5 2ZM46 0L46 7L53 7L53 0ZM47 1L47 6L52 6L52 1ZM48 2L48 5L51 5L51 2ZM0 46L0 53L7 53L7 46ZM1 47L1 52L6 52L6 47ZM2 48L2 51L5 51L5 48Z" fill="#000000"/></g></g></svg>
