<?xml version="1.0" encoding="UTF-8"?>
<svg xmlns="http://www.w3.org/2000/svg" version="1.1" width="100" height="100" viewBox="0 0 100 100"><rect x="0" y="0" width="100" height="100" fill="#ffffff"/><g transform="scale(1.754)"><g transform="translate(0,0)"><path fill-rule="evenodd" d="M10 0L10 1L8 1L8 2L10 2L10 1L11 1L11 0ZM12 0L12 2L14 2L14 3L12 3L12 4L13 4L13 5L16 5L16 4L14 4L14 3L16 3L16 2L17 2L17 5L18 5L18 4L19 4L19 5L20 5L20 7L19 7L19 6L18 6L18 7L19 7L19 8L18 8L18 9L17 9L17 8L16 8L16 7L17 7L17 6L16 6L16 7L15 7L15 6L14 6L14 7L13 7L13 6L12 6L12 7L11 7L11 5L10 5L10 4L9 4L9 3L8 3L8 4L9 4L9 5L8 5L8 7L9 7L9 6L10 6L10 9L9 9L9 8L6 8L6 9L8 9L8 10L10 10L10 9L11 9L11 11L9 11L9 13L10 13L10 15L7 15L7 14L8 14L8 13L7 13L7 12L8 12L8 11L7 11L7 10L6 10L6 11L7 11L7 12L6 12L6 13L5 13L5 11L4 11L4 13L5 13L5 14L1 14L1 13L3 13L3 12L1 12L1 13L0 13L0 17L1 17L1 18L0 18L0 21L1 21L1 20L2 20L2 19L3 19L3 20L4 20L4 19L3 19L3 18L4 18L4 17L5 17L5 16L4 16L4 17L1 17L1 15L5 15L5 14L6 14L6 15L7 15L7 16L6 16L6 17L7 17L7 18L6 18L6 19L8 19L8 21L10 21L10 22L9 22L9 23L8 23L8 22L4 22L4 21L2 21L2 22L0 22L0 24L2 24L2 25L3 25L3 26L4 26L4 27L3 27L3 28L0 28L0 30L1 30L1 31L3 31L3 32L4 32L4 31L7 31L7 32L6 32L6 33L7 33L7 34L6 34L6 35L7 35L7 34L10 34L10 35L8 35L8 36L5 36L5 35L4 35L4 34L5 34L5 33L4 33L4 34L3 34L3 33L2 33L2 34L1 34L1 32L0 32L0 34L1 34L1 35L2 35L2 34L3 34L3 35L4 35L4 36L0 36L0 41L1 41L1 40L3 40L3 43L2 43L2 42L1 42L1 43L0 43L0 48L5 48L5 47L7 47L7 48L6 48L6 49L8 49L8 51L10 51L10 52L11 52L11 53L9 53L9 52L8 52L8 57L13 57L13 55L14 55L14 56L15 56L15 57L17 57L17 53L20 53L20 52L24 52L24 53L21 53L21 54L24 54L24 53L25 53L25 54L27 54L27 57L28 57L28 56L30 56L30 57L35 57L35 56L36 56L36 57L37 57L37 56L36 56L36 55L35 55L35 54L38 54L38 57L40 57L40 56L41 56L41 57L43 57L43 56L45 56L45 57L48 57L48 56L46 56L46 55L47 55L47 54L43 54L43 52L42 52L42 51L40 51L40 50L41 50L41 49L39 49L39 50L38 50L38 49L37 49L37 48L41 48L41 47L40 47L40 46L43 46L43 45L44 45L44 46L45 46L45 47L44 47L44 48L43 48L43 49L42 49L42 50L43 50L43 51L44 51L44 52L45 52L45 51L44 51L44 50L43 50L43 49L44 49L44 48L46 48L46 49L47 49L47 50L46 50L46 51L48 51L48 52L46 52L46 53L53 53L53 52L55 52L55 53L54 53L54 54L55 54L55 53L56 53L56 52L57 52L57 51L56 51L56 48L55 48L55 46L53 46L53 47L54 47L54 48L55 48L55 50L53 50L53 48L52 48L52 46L51 46L51 47L50 47L50 45L51 45L51 44L52 44L52 43L50 43L50 42L51 42L51 41L54 41L54 40L55 40L55 39L57 39L57 37L56 37L56 34L55 34L55 30L57 30L57 27L56 27L56 26L57 26L57 24L56 24L56 22L57 22L57 21L56 21L56 18L55 18L55 14L54 14L54 13L53 13L53 14L54 14L54 15L51 15L51 14L52 14L52 13L51 13L51 12L53 12L53 11L54 11L54 12L55 12L55 11L56 11L56 10L57 10L57 9L56 9L56 8L55 8L55 9L56 9L56 10L55 10L55 11L54 11L54 10L52 10L52 8L51 8L51 10L50 10L50 8L49 8L49 6L48 6L48 8L49 8L49 9L48 9L48 10L50 10L50 11L48 11L48 12L49 12L49 13L48 13L48 15L47 15L47 14L46 14L46 13L47 13L47 12L46 12L46 11L47 11L47 10L46 10L46 9L47 9L47 8L46 8L46 7L47 7L47 5L48 5L48 0L45 0L45 2L44 2L44 0L41 0L41 2L39 2L39 1L40 1L40 0L39 0L39 1L38 1L38 0L35 0L35 1L34 1L34 0L27 0L27 1L25 1L25 0L24 0L24 1L25 1L25 2L27 2L27 3L29 3L29 2L28 2L28 1L31 1L31 2L30 2L30 3L31 3L31 4L26 4L26 3L23 3L23 2L22 2L22 1L23 1L23 0L22 0L22 1L20 1L20 0L19 0L19 1L18 1L18 0L17 0L17 1L13 1L13 0ZM33 1L33 3L32 3L32 4L31 4L31 7L32 7L32 8L31 8L31 9L32 9L32 10L30 10L30 9L25 9L25 8L26 8L26 4L25 4L25 8L24 8L24 6L23 6L23 5L24 5L24 4L23 4L23 3L22 3L22 4L23 4L23 5L21 5L21 8L22 8L22 9L23 9L23 12L24 12L24 13L22 13L22 12L21 12L21 11L22 11L22 10L21 10L21 9L18 9L18 10L17 10L17 9L15 9L15 7L14 7L14 9L15 9L15 10L16 10L16 11L15 11L15 12L17 12L17 13L13 13L13 12L14 12L14 11L13 11L13 12L12 12L12 11L11 11L11 12L12 12L12 14L11 14L11 15L10 15L10 16L9 16L9 17L8 17L8 16L7 16L7 17L8 17L8 18L10 18L10 20L12 20L12 21L14 21L14 22L13 22L13 23L11 23L11 24L13 24L13 23L14 23L14 22L16 22L16 21L17 21L17 25L15 25L15 24L16 24L16 23L15 23L15 24L14 24L14 25L13 25L13 26L14 26L14 25L15 25L15 26L17 26L17 25L18 25L18 27L16 27L16 28L18 28L18 29L15 29L15 30L14 30L14 29L13 29L13 28L15 28L15 27L13 27L13 28L11 28L11 27L12 27L12 25L10 25L10 24L9 24L9 25L10 25L10 26L9 26L9 28L10 28L10 29L11 29L11 30L9 30L9 31L8 31L8 32L7 32L7 33L8 33L8 32L9 32L9 33L11 33L11 35L12 35L12 34L13 34L13 35L14 35L14 36L13 36L13 37L12 37L12 36L11 36L11 37L10 37L10 36L8 36L8 37L6 37L6 38L8 38L8 37L9 37L9 39L6 39L6 40L5 40L5 39L3 39L3 38L5 38L5 37L3 37L3 38L2 38L2 37L1 37L1 38L2 38L2 39L3 39L3 40L4 40L4 41L6 41L6 42L7 42L7 43L6 43L6 44L4 44L4 43L5 43L5 42L4 42L4 43L3 43L3 44L2 44L2 43L1 43L1 44L2 44L2 45L1 45L1 47L2 47L2 45L3 45L3 47L5 47L5 46L7 46L7 47L8 47L8 46L9 46L9 45L12 45L12 46L11 46L11 47L10 47L10 48L9 48L9 49L11 49L11 52L12 52L12 53L13 53L13 54L11 54L11 56L12 56L12 55L13 55L13 54L16 54L16 53L17 53L17 52L19 52L19 51L20 51L20 50L21 50L21 51L22 51L22 50L21 50L21 49L23 49L23 48L21 48L21 49L20 49L20 48L19 48L19 49L18 49L18 51L16 51L16 53L15 53L15 49L14 49L14 53L13 53L13 52L12 52L12 51L13 51L13 48L17 48L17 45L18 45L18 44L17 44L17 45L15 45L15 47L14 47L14 44L16 44L16 43L18 43L18 42L19 42L19 45L20 45L20 46L21 46L21 45L22 45L22 47L24 47L24 45L25 45L25 46L26 46L26 45L27 45L27 47L26 47L26 48L29 48L29 47L30 47L30 48L32 48L32 49L31 49L31 51L32 51L32 54L35 54L35 52L37 52L37 53L38 53L38 54L40 54L40 55L41 55L41 56L43 56L43 54L42 54L42 52L38 52L38 51L33 51L33 50L32 50L32 49L33 49L33 48L34 48L34 50L35 50L35 49L36 49L36 48L37 48L37 47L38 47L38 46L39 46L39 45L41 45L41 44L42 44L42 45L43 45L43 44L44 44L44 45L46 45L46 46L47 46L47 47L46 47L46 48L47 48L47 49L48 49L48 48L50 48L50 47L48 47L48 45L49 45L49 44L50 44L50 43L49 43L49 42L48 42L48 40L49 40L49 41L51 41L51 40L53 40L53 37L55 37L55 38L56 38L56 37L55 37L55 36L52 36L52 34L53 34L53 35L54 35L54 34L53 34L53 33L52 33L52 32L53 32L53 31L54 31L54 30L55 30L55 28L53 28L53 29L54 29L54 30L53 30L53 31L51 31L51 33L49 33L49 32L50 32L50 31L48 31L48 32L47 32L47 31L46 31L46 30L48 30L48 28L47 28L47 29L46 29L46 30L45 30L45 28L44 28L44 27L43 27L43 26L42 26L42 25L41 25L41 24L40 24L40 23L42 23L42 24L43 24L43 25L44 25L44 26L45 26L45 27L46 27L46 26L48 26L48 25L49 25L49 24L48 24L48 23L46 23L46 24L47 24L47 25L46 25L46 26L45 26L45 24L43 24L43 22L44 22L44 23L45 23L45 22L48 22L48 21L49 21L49 20L50 20L50 22L49 22L49 23L50 23L50 22L52 22L52 21L53 21L53 20L50 20L50 18L51 18L51 19L52 19L52 17L53 17L53 19L55 19L55 18L54 18L54 16L51 16L51 15L50 15L50 14L51 14L51 13L50 13L50 14L49 14L49 15L50 15L50 16L46 16L46 14L45 14L45 12L44 12L44 11L46 11L46 10L45 10L45 8L43 8L43 7L44 7L44 6L45 6L45 7L46 7L46 5L47 5L47 3L44 3L44 2L43 2L43 1L42 1L42 2L41 2L41 3L39 3L39 2L38 2L38 1L37 1L37 2L34 2L34 1ZM46 1L46 2L47 2L47 1ZM37 2L37 3L36 3L36 4L37 4L37 5L38 5L38 9L40 9L40 10L41 10L41 9L40 9L40 8L41 8L41 5L43 5L43 4L44 4L44 5L45 5L45 4L44 4L44 3L43 3L43 4L41 4L41 5L38 5L38 4L37 4L37 3L38 3L38 2ZM19 3L19 4L21 4L21 3ZM32 4L32 5L33 5L33 4ZM27 5L27 8L30 8L30 5ZM22 6L22 8L23 8L23 9L24 9L24 10L25 10L25 9L24 9L24 8L23 8L23 6ZM28 6L28 7L29 7L29 6ZM32 6L32 7L33 7L33 6ZM34 6L34 8L35 8L35 9L37 9L37 8L36 8L36 7L37 7L37 6L36 6L36 7L35 7L35 6ZM39 6L39 8L40 8L40 6ZM42 6L42 7L43 7L43 6ZM0 8L0 9L3 9L3 10L1 10L1 11L3 11L3 10L4 10L4 9L5 9L5 8ZM11 8L11 9L12 9L12 8ZM42 8L42 10L43 10L43 8ZM53 8L53 9L54 9L54 8ZM33 9L33 11L32 11L32 12L33 12L33 13L37 13L37 14L36 14L36 15L37 15L37 14L38 14L38 16L35 16L35 14L33 14L33 16L35 16L35 17L36 17L36 19L35 19L35 18L34 18L34 17L33 17L33 19L32 19L32 18L31 18L31 17L32 17L32 14L30 14L30 13L29 13L29 14L28 14L28 12L30 12L30 10L29 10L29 11L27 11L27 10L26 10L26 11L24 11L24 12L25 12L25 13L24 13L24 14L25 14L25 16L26 16L26 17L24 17L24 16L23 16L23 17L22 17L22 15L21 15L21 14L22 14L22 13L21 13L21 12L20 12L20 13L19 13L19 11L21 11L21 10L18 10L18 11L17 11L17 12L18 12L18 13L17 13L17 16L15 16L15 17L14 17L14 16L13 16L13 15L14 15L14 14L12 14L12 16L10 16L10 18L11 18L11 17L12 17L12 19L13 19L13 20L14 20L14 19L13 19L13 17L14 17L14 18L15 18L15 21L16 21L16 20L17 20L17 21L20 21L20 20L21 20L21 24L19 24L19 23L20 23L20 22L18 22L18 25L22 25L22 26L21 26L21 27L22 27L22 26L23 26L23 29L24 29L24 30L25 30L25 31L24 31L24 32L25 32L25 31L26 31L26 34L25 34L25 33L24 33L24 34L25 34L25 35L24 35L24 36L23 36L23 35L22 35L22 34L23 34L23 33L22 33L22 31L23 31L23 30L22 30L22 31L20 31L20 26L19 26L19 29L18 29L18 31L16 31L16 33L14 33L14 32L15 32L15 31L14 31L14 32L13 32L13 31L12 31L12 30L11 30L11 31L9 31L9 32L13 32L13 34L15 34L15 36L14 36L14 37L13 37L13 39L14 39L14 40L13 40L13 41L12 41L12 40L11 40L11 41L10 41L10 39L11 39L11 38L10 38L10 39L9 39L9 41L10 41L10 42L9 42L9 43L10 43L10 44L12 44L12 45L13 45L13 44L12 44L12 43L13 43L13 41L15 41L15 43L16 43L16 41L17 41L17 40L16 40L16 39L14 39L14 38L16 38L16 37L15 37L15 36L16 36L16 35L17 35L17 37L19 37L19 38L18 38L18 41L22 41L22 43L21 43L21 42L20 42L20 45L21 45L21 44L22 44L22 45L23 45L23 41L22 41L22 40L21 40L21 39L22 39L22 38L23 38L23 39L24 39L24 40L25 40L25 39L26 39L26 40L28 40L28 41L26 41L26 42L27 42L27 43L26 43L26 44L25 44L25 45L26 45L26 44L27 44L27 45L29 45L29 44L28 44L28 43L31 43L31 44L30 44L30 45L32 45L32 46L33 46L33 47L32 47L32 48L33 48L33 47L34 47L34 48L36 48L36 47L37 47L37 46L38 46L38 45L39 45L39 44L41 44L41 43L42 43L42 44L43 44L43 43L44 43L44 44L45 44L45 43L44 43L44 42L43 42L43 41L42 41L42 42L41 42L41 43L40 43L40 40L41 40L41 39L40 39L40 38L41 38L41 37L40 37L40 38L38 38L38 37L39 37L39 35L40 35L40 36L41 36L41 35L42 35L42 36L43 36L43 37L42 37L42 38L43 38L43 37L44 37L44 38L45 38L45 39L44 39L44 40L45 40L45 42L46 42L46 43L47 43L47 44L48 44L48 43L47 43L47 42L46 42L46 39L47 39L47 40L48 40L48 39L50 39L50 40L51 40L51 39L50 39L50 37L51 37L51 35L50 35L50 34L49 34L49 35L47 35L47 34L46 34L46 37L47 37L47 38L45 38L45 37L44 37L44 36L45 36L45 35L42 35L42 34L44 34L44 32L45 32L45 33L47 33L47 32L46 32L46 31L42 31L42 30L44 30L44 28L43 28L43 29L41 29L41 31L39 31L39 32L38 32L38 29L39 29L39 30L40 30L40 29L39 29L39 28L42 28L42 26L41 26L41 27L40 27L40 26L37 26L37 25L38 25L38 19L39 19L39 20L41 20L41 21L42 21L42 22L43 22L43 21L44 21L44 20L45 20L45 21L47 21L47 18L46 18L46 16L45 16L45 15L44 15L44 14L43 14L43 13L44 13L44 12L43 12L43 11L42 11L42 12L41 12L41 11L40 11L40 12L41 12L41 14L43 14L43 15L40 15L40 14L38 14L38 13L39 13L39 10L36 10L36 11L37 11L37 12L34 12L34 9ZM26 11L26 12L27 12L27 11ZM56 12L56 14L57 14L57 12ZM6 13L6 14L7 14L7 13ZM20 13L20 14L21 14L21 13ZM26 14L26 16L27 16L27 17L26 17L26 18L24 18L24 17L23 17L23 19L22 19L22 18L21 18L21 16L20 16L20 19L22 19L22 21L24 21L24 22L22 22L22 25L23 25L23 26L24 26L24 25L26 25L26 26L25 26L25 27L24 27L24 29L26 29L26 28L25 28L25 27L26 27L26 26L27 26L27 25L29 25L29 26L30 26L30 25L31 25L31 26L32 26L32 25L31 25L31 24L34 24L34 23L32 23L32 22L35 22L35 26L34 26L34 25L33 25L33 26L34 26L34 27L36 27L36 28L37 28L37 29L38 29L38 28L37 28L37 27L36 27L36 24L37 24L37 23L36 23L36 22L37 22L37 21L36 21L36 20L37 20L37 19L36 19L36 20L35 20L35 21L34 21L34 19L33 19L33 20L32 20L32 21L31 21L31 22L30 22L30 23L29 23L29 20L28 20L28 18L27 18L27 17L28 17L28 16L29 16L29 17L30 17L30 14L29 14L29 15L28 15L28 14ZM27 15L27 16L28 16L28 15ZM39 15L39 16L38 16L38 18L40 18L40 19L43 19L43 18L44 18L44 19L45 19L45 16L44 16L44 17L43 17L43 18L42 18L42 16L40 16L40 15ZM56 15L56 17L57 17L57 15ZM12 16L12 17L13 17L13 16ZM50 16L50 17L48 17L48 18L50 18L50 17L51 17L51 16ZM16 17L16 18L17 18L17 17ZM18 17L18 18L19 18L19 17ZM40 17L40 18L41 18L41 17ZM29 18L29 19L30 19L30 18ZM17 19L17 20L19 20L19 19ZM24 19L24 21L25 21L25 22L26 22L26 23L25 23L25 24L29 24L29 23L28 23L28 20L26 20L26 21L25 21L25 19ZM5 20L5 21L7 21L7 20ZM54 20L54 21L55 21L55 20ZM39 21L39 22L40 22L40 21ZM3 22L3 24L4 24L4 25L5 25L5 26L7 26L7 25L8 25L8 23L4 23L4 22ZM23 23L23 25L24 25L24 23ZM6 24L6 25L7 25L7 24ZM39 24L39 25L40 25L40 24ZM51 24L51 25L50 25L50 26L51 26L51 25L52 25L52 26L53 26L53 27L55 27L55 26L56 26L56 25L55 25L55 24L54 24L54 25L53 25L53 24ZM54 25L54 26L55 26L55 25ZM0 26L0 27L1 27L1 26ZM5 27L5 30L8 30L8 27ZM27 27L27 30L30 30L30 27ZM49 27L49 30L52 30L52 27ZM3 28L3 30L4 30L4 28ZM6 28L6 29L7 29L7 28ZM21 28L21 29L22 29L22 28ZM28 28L28 29L29 29L29 28ZM32 28L32 31L29 31L29 33L28 33L28 34L29 34L29 35L28 35L28 36L27 36L27 35L26 35L26 36L25 36L25 38L26 38L26 39L28 39L28 40L31 40L31 41L28 41L28 42L31 42L31 43L36 43L36 44L37 44L37 43L36 43L36 40L37 40L37 42L39 42L39 40L40 40L40 39L38 39L38 38L37 38L37 39L36 39L36 40L35 40L35 39L34 39L34 40L33 40L33 39L32 39L32 40L31 40L31 39L29 39L29 35L30 35L30 34L29 34L29 33L30 33L30 32L32 32L32 34L31 34L31 35L32 35L32 34L33 34L33 32L32 32L32 31L34 31L34 32L35 32L35 33L34 33L34 34L35 34L35 35L33 35L33 36L32 36L32 37L33 37L33 38L36 38L36 36L37 36L37 35L36 35L36 32L37 32L37 33L38 33L38 35L39 35L39 34L40 34L40 35L41 35L41 34L42 34L42 33L43 33L43 32L42 32L42 31L41 31L41 32L39 32L39 33L38 33L38 32L37 32L37 31L36 31L36 32L35 32L35 28ZM50 28L50 29L51 29L51 28ZM1 29L1 30L2 30L2 29ZM18 31L18 32L19 32L19 33L16 33L16 34L19 34L19 33L20 33L20 34L21 34L21 33L20 33L20 32L19 32L19 31ZM27 31L27 32L28 32L28 31ZM56 31L56 32L57 32L57 31ZM49 35L49 37L50 37L50 35ZM19 36L19 37L23 37L23 38L24 38L24 37L23 37L23 36ZM26 36L26 38L28 38L28 37L27 37L27 36ZM30 36L30 38L31 38L31 36ZM33 36L33 37L34 37L34 36ZM47 36L47 37L48 37L48 36ZM19 38L19 39L20 39L20 38ZM47 38L47 39L48 39L48 38ZM37 39L37 40L38 40L38 39ZM42 39L42 40L43 40L43 39ZM6 40L6 41L8 41L8 40ZM11 41L11 43L12 43L12 41ZM24 41L24 43L25 43L25 41ZM31 41L31 42L32 42L32 41ZM33 41L33 42L34 42L34 41ZM55 41L55 42L53 42L53 44L55 44L55 45L56 45L56 46L57 46L57 45L56 45L56 41ZM42 42L42 43L43 43L43 42ZM3 44L3 45L4 45L4 46L5 46L5 45L4 45L4 44ZM6 44L6 45L7 45L7 46L8 46L8 45L9 45L9 44ZM32 44L32 45L33 45L33 44ZM34 44L34 46L35 46L35 44ZM12 46L12 47L11 47L11 48L13 48L13 46ZM30 46L30 47L31 47L31 46ZM47 47L47 48L48 48L48 47ZM24 48L24 49L25 49L25 48ZM16 49L16 50L17 50L17 49ZM19 49L19 50L20 50L20 49ZM27 49L27 52L30 52L30 49ZM49 49L49 52L52 52L52 49ZM25 50L25 52L26 52L26 50ZM28 50L28 51L29 51L29 50ZM50 50L50 51L51 51L51 50ZM30 53L30 54L28 54L28 55L30 55L30 56L34 56L34 55L31 55L31 53ZM18 54L18 55L20 55L20 54ZM48 54L48 55L50 55L50 54ZM9 55L9 56L10 56L10 55ZM15 55L15 56L16 56L16 55ZM22 55L22 56L18 56L18 57L22 57L22 56L23 56L23 57L24 57L24 55ZM51 55L51 56L50 56L50 57L51 57L51 56L52 56L52 55ZM53 55L53 56L55 56L55 57L56 57L56 56L55 56L55 55ZM0 0L0 7L7 7L7 0ZM1 1L1 6L6 6L6 1ZM2 2L2 5L5 5L5 2ZM50 0L50 7L57 7L57 0ZM51 1L51 6L56 6L56 1ZM52 2L52 5L55 5L55 2ZM0 50L0 57L7 57L7 50ZM1 51L1 56L6 56L6 51ZM2 52L2 55L5 55L5 52Z" fill="#000000"/></g></g></svg>
