<?xml version="1.0" encoding="UTF-8"?>
<svg xmlns="http://www.w3.org/2000/svg" version="1.1" width="100" height="100" viewBox="0 0 100 100"><rect x="0" y="0" width="100" height="100" fill="#ffffff"/><g transform="scale(1.754)"><g transform="translate(0,0)"><path fill-rule="evenodd" d="M8 0L8 1L11 1L11 0ZM12 0L12 2L9 2L9 3L11 3L11 4L10 4L10 5L11 5L11 6L10 6L10 7L9 7L9 6L8 6L8 8L10 8L10 7L11 7L11 8L12 8L12 7L13 7L13 9L14 9L14 8L15 8L15 9L16 9L16 10L14 10L14 11L13 11L13 10L12 10L12 9L10 9L10 10L12 10L12 11L10 11L10 15L8 15L8 16L6 16L6 15L7 15L7 14L8 14L8 12L5 12L5 13L7 13L7 14L5 14L5 16L6 16L6 17L8 17L8 18L9 18L9 19L7 19L7 18L6 18L6 19L7 19L7 20L5 20L5 18L3 18L3 17L4 17L4 15L2 15L2 14L3 14L3 13L4 13L4 11L5 11L5 8L3 8L3 9L2 9L2 8L0 8L0 9L2 9L2 10L1 10L1 11L0 11L0 12L1 12L1 15L2 15L2 16L1 16L1 17L2 17L2 18L3 18L3 19L1 19L1 20L0 20L0 21L1 21L1 20L4 20L4 21L8 21L8 23L7 23L7 22L6 22L6 23L7 23L7 24L6 24L6 25L7 25L7 24L12 24L12 23L9 23L9 21L8 21L8 20L9 20L9 19L12 19L12 18L13 18L13 17L14 17L14 18L15 18L15 19L16 19L16 22L18 22L18 24L17 24L17 23L16 23L16 24L14 24L14 22L15 22L15 20L14 20L14 19L13 19L13 20L12 20L12 21L11 21L11 22L13 22L13 26L11 26L11 25L8 25L8 26L5 26L5 24L4 24L4 23L5 23L5 22L4 22L4 23L2 23L2 24L1 24L1 25L0 25L0 28L2 28L2 27L3 27L3 30L2 30L2 29L1 29L1 30L0 30L0 32L2 32L2 33L3 33L3 31L9 31L9 29L11 29L11 28L12 28L12 27L13 27L13 29L12 29L12 30L11 30L11 31L10 31L10 32L5 32L5 33L4 33L4 34L2 34L2 35L1 35L1 33L0 33L0 35L1 35L1 38L2 38L2 40L3 40L3 41L5 41L5 42L4 42L4 43L2 43L2 41L1 41L1 40L0 40L0 41L1 41L1 45L0 45L0 48L5 48L5 47L7 47L7 48L6 48L6 49L7 49L7 48L8 48L8 46L5 46L5 45L4 45L4 46L5 46L5 47L3 47L3 44L4 44L4 43L5 43L5 44L6 44L6 45L8 45L8 44L6 44L6 43L7 43L7 42L6 42L6 41L7 41L7 40L8 40L8 39L9 39L9 40L10 40L10 41L9 41L9 42L8 42L8 43L9 43L9 42L10 42L10 41L12 41L12 42L15 42L15 43L17 43L17 41L20 41L20 40L21 40L21 42L19 42L19 45L18 45L18 44L17 44L17 45L16 45L16 44L15 44L15 46L14 46L14 48L13 48L13 47L12 47L12 48L13 48L13 49L10 49L10 48L11 48L11 47L10 47L10 46L9 46L9 49L8 49L8 50L9 50L9 52L8 52L8 54L9 54L9 55L8 55L8 57L9 57L9 56L10 56L10 57L11 57L11 56L12 56L12 55L13 55L13 54L14 54L14 55L15 55L15 52L14 52L14 51L16 51L16 52L18 52L18 53L19 53L19 55L20 55L20 54L21 54L21 53L22 53L22 52L20 52L20 51L23 51L23 52L24 52L24 53L23 53L23 54L22 54L22 55L21 55L21 56L18 56L18 57L24 57L24 56L25 56L25 57L26 57L26 55L27 55L27 56L28 56L28 57L32 57L32 56L34 56L34 57L35 57L35 56L36 56L36 57L41 57L41 55L42 55L42 54L43 54L43 53L42 53L42 52L41 52L41 53L39 53L39 49L41 49L41 50L40 50L40 51L42 51L42 50L44 50L44 51L46 51L46 52L44 52L44 53L45 53L45 54L48 54L48 55L47 55L47 57L48 57L48 55L49 55L49 54L48 54L48 53L50 53L50 54L52 54L52 55L53 55L53 56L52 56L52 57L53 57L53 56L57 56L57 54L54 54L54 52L56 52L56 53L57 53L57 51L54 51L54 52L53 52L53 49L55 49L55 48L56 48L56 47L57 47L57 46L54 46L54 45L53 45L53 44L57 44L57 38L56 38L56 43L55 43L55 42L54 42L54 40L55 40L55 39L54 39L54 37L53 37L53 38L52 38L52 37L51 37L51 36L52 36L52 35L53 35L53 36L55 36L55 35L57 35L57 33L56 33L56 34L55 34L55 29L54 29L54 28L56 28L56 32L57 32L57 27L53 27L53 26L52 26L52 25L53 25L53 24L51 24L51 23L50 23L50 26L49 26L49 25L48 25L48 24L47 24L47 23L49 23L49 22L51 22L51 21L47 21L47 20L45 20L45 21L44 21L44 22L43 22L43 19L46 19L46 18L47 18L47 17L48 17L48 19L49 19L49 20L50 20L50 17L48 17L48 16L49 16L49 15L50 15L50 16L52 16L52 15L53 15L53 17L51 17L51 18L52 18L52 22L54 22L54 26L55 26L55 25L57 25L57 24L55 24L55 23L57 23L57 22L56 22L56 20L55 20L55 17L56 17L56 16L55 16L55 14L54 14L54 15L53 15L53 14L52 14L52 15L51 15L51 11L52 11L52 10L53 10L53 9L52 9L52 10L51 10L51 8L50 8L50 9L46 9L46 8L47 8L47 5L48 5L48 0L42 0L42 1L44 1L44 2L42 2L42 3L43 3L43 4L42 4L42 5L41 5L41 6L40 6L40 8L39 8L39 4L41 4L41 3L40 3L40 2L39 2L39 4L37 4L37 3L38 3L38 1L40 1L40 0L38 0L38 1L37 1L37 0L36 0L36 1L35 1L35 0L33 0L33 1L32 1L32 0L30 0L30 1L31 1L31 2L30 2L30 3L31 3L31 4L29 4L29 3L28 3L28 2L26 2L26 3L27 3L27 4L25 4L25 3L24 3L24 4L25 4L25 6L24 6L24 5L23 5L23 2L22 2L22 1L21 1L21 0L20 0L20 1L21 1L21 2L20 2L20 3L18 3L18 1L17 1L17 0L16 0L16 2L15 2L15 0ZM23 0L23 1L28 1L28 0ZM13 1L13 3L15 3L15 4L12 4L12 5L15 5L15 7L16 7L16 6L17 6L17 8L16 8L16 9L18 9L18 10L17 10L17 11L18 11L18 12L16 12L16 11L14 11L14 12L16 12L16 16L17 16L17 18L16 18L16 17L15 17L15 18L16 18L16 19L19 19L19 20L20 20L20 22L19 22L19 23L22 23L22 22L23 22L23 23L24 23L24 21L22 21L22 22L21 22L21 20L22 20L22 19L20 19L20 18L23 18L23 17L25 17L25 18L24 18L24 19L23 19L23 20L24 20L24 19L25 19L25 18L26 18L26 19L27 19L27 20L28 20L28 19L27 19L27 16L25 16L25 15L29 15L29 14L30 14L30 12L29 12L29 11L31 11L31 16L30 16L30 17L29 17L29 16L28 16L28 17L29 17L29 20L31 20L31 21L34 21L34 20L35 20L35 22L37 22L37 23L35 23L35 24L37 24L37 25L38 25L38 24L39 24L39 23L40 23L40 24L41 24L41 26L42 26L42 29L41 29L41 27L38 27L38 26L37 26L37 27L35 27L35 26L36 26L36 25L33 25L33 26L32 26L32 25L31 25L31 26L32 26L32 27L31 27L31 28L35 28L35 30L34 30L34 31L32 31L32 30L33 30L33 29L31 29L31 31L30 31L30 33L29 33L29 31L28 31L28 33L27 33L27 34L26 34L26 32L27 32L27 31L26 31L26 30L25 30L25 32L23 32L23 31L24 31L24 29L26 29L26 28L25 28L25 27L24 27L24 29L23 29L23 30L22 30L22 28L23 28L23 26L24 26L24 25L25 25L25 26L26 26L26 24L27 24L27 25L28 25L28 26L29 26L29 25L30 25L30 23L31 23L31 22L30 22L30 23L28 23L28 24L27 24L27 23L25 23L25 24L23 24L23 26L19 26L19 25L21 25L21 24L19 24L19 25L18 25L18 26L17 26L17 24L16 24L16 25L15 25L15 26L17 26L17 27L18 27L18 26L19 26L19 29L20 29L20 31L21 31L21 32L23 32L23 33L21 33L21 34L20 34L20 35L21 35L21 36L23 36L23 35L21 35L21 34L24 34L24 35L25 35L25 36L28 36L28 35L27 35L27 34L28 34L28 33L29 33L29 35L31 35L31 39L29 39L29 38L30 38L30 36L29 36L29 38L28 38L28 40L27 40L27 38L25 38L25 37L24 37L24 38L23 38L23 39L21 39L21 38L19 38L19 37L20 37L20 36L19 36L19 33L17 33L17 31L16 31L16 30L15 30L15 31L16 31L16 32L11 32L11 33L12 33L12 34L11 34L11 35L12 35L12 36L11 36L11 37L10 37L10 38L9 38L9 34L10 34L10 33L8 33L8 36L7 36L7 35L6 35L6 34L7 34L7 33L5 33L5 34L4 34L4 35L5 35L5 36L3 36L3 37L2 37L2 38L3 38L3 40L5 40L5 39L6 39L6 40L7 40L7 39L6 39L6 38L7 38L7 37L8 37L8 38L9 38L9 39L11 39L11 40L12 40L12 39L11 39L11 37L13 37L13 38L14 38L14 39L15 39L15 37L13 37L13 35L12 35L12 34L14 34L14 36L16 36L16 35L15 35L15 34L16 34L16 33L17 33L17 38L16 38L16 40L15 40L15 42L16 42L16 40L17 40L17 39L18 39L18 40L20 40L20 39L21 39L21 40L22 40L22 42L23 42L23 39L24 39L24 41L25 41L25 39L26 39L26 43L27 43L27 44L23 44L23 43L22 43L22 44L23 44L23 45L25 45L25 46L26 46L26 47L24 47L24 46L22 46L22 47L21 47L21 48L20 48L20 49L18 49L18 45L17 45L17 48L16 48L16 49L15 49L15 48L14 48L14 49L15 49L15 50L16 50L16 51L17 51L17 49L18 49L18 50L20 50L20 49L21 49L21 50L22 50L22 48L23 48L23 49L26 49L26 48L27 48L27 47L28 47L28 48L29 48L29 47L28 47L28 46L27 46L27 44L28 44L28 45L29 45L29 46L30 46L30 45L29 45L29 43L30 43L30 42L28 42L28 40L29 40L29 41L30 41L30 40L32 40L32 41L31 41L31 43L32 43L32 44L31 44L31 45L32 45L32 47L30 47L30 48L32 48L32 47L34 47L34 46L33 46L33 43L36 43L36 41L35 41L35 42L32 42L32 41L33 41L33 40L34 40L34 39L35 39L35 38L36 38L36 37L35 37L35 36L34 36L34 35L33 35L33 36L34 36L34 39L33 39L33 37L32 37L32 34L33 34L33 32L35 32L35 31L38 31L38 30L41 30L41 31L43 31L43 34L41 34L41 33L42 33L42 32L41 32L41 33L39 33L39 34L38 34L38 35L36 35L36 34L37 34L37 33L38 33L38 32L37 32L37 33L35 33L35 35L36 35L36 36L37 36L37 39L36 39L36 40L37 40L37 39L38 39L38 36L39 36L39 37L40 37L40 36L42 36L42 35L44 35L44 34L46 34L46 32L47 32L47 34L49 34L49 32L50 32L50 33L53 33L53 34L54 34L54 35L55 35L55 34L54 34L54 32L53 32L53 31L54 31L54 30L53 30L53 31L52 31L52 32L51 32L51 31L48 31L48 30L46 30L46 29L45 29L45 30L42 30L42 29L43 29L43 28L47 28L47 29L48 29L48 27L47 27L47 24L46 24L46 23L45 23L45 24L46 24L46 25L45 25L45 26L44 26L44 27L43 27L43 26L42 26L42 24L43 24L43 22L42 22L42 23L41 23L41 22L40 22L40 19L41 19L41 20L42 20L42 19L43 19L43 18L42 18L42 15L44 15L44 16L45 16L45 15L46 15L46 17L47 17L47 15L48 15L48 13L49 13L49 14L50 14L50 10L49 10L49 11L47 11L47 12L46 12L46 11L45 11L45 12L46 12L46 13L44 13L44 10L46 10L46 9L45 9L45 7L46 7L46 5L47 5L47 3L45 3L45 4L43 4L43 5L42 5L42 6L41 6L41 7L42 7L42 6L43 6L43 8L44 8L44 9L43 9L43 10L42 10L42 8L41 8L41 10L42 10L42 11L43 11L43 14L41 14L41 13L42 13L42 12L41 12L41 11L39 11L39 10L38 10L38 9L39 9L39 8L38 8L38 9L36 9L36 8L37 8L37 7L38 7L38 5L37 5L37 4L36 4L36 3L37 3L37 2L35 2L35 4L33 4L33 5L34 5L34 6L33 6L33 8L35 8L35 10L36 10L36 12L34 12L34 9L32 9L32 8L31 8L31 10L29 10L29 9L27 9L27 10L26 10L26 9L25 9L25 7L26 7L26 6L25 6L25 7L24 7L24 6L23 6L23 5L20 5L20 4L18 4L18 6L17 6L17 5L16 5L16 3L15 3L15 2L14 2L14 1ZM46 1L46 2L47 2L47 1ZM32 2L32 3L34 3L34 2ZM21 3L21 4L22 4L22 3ZM35 4L35 6L34 6L34 7L35 7L35 8L36 8L36 7L37 7L37 6L36 6L36 4ZM19 5L19 6L18 6L18 7L19 7L19 8L18 8L18 9L19 9L19 8L20 8L20 10L19 10L19 13L18 13L18 14L17 14L17 16L18 16L18 17L19 17L19 18L20 18L20 17L22 17L22 15L23 15L23 16L24 16L24 15L23 15L23 14L25 14L25 13L23 13L23 12L26 12L26 11L25 11L25 9L24 9L24 7L23 7L23 6L22 6L22 7L23 7L23 8L21 8L21 6L20 6L20 5ZM27 5L27 8L30 8L30 5ZM11 6L11 7L12 7L12 6ZM13 6L13 7L14 7L14 6ZM19 6L19 7L20 7L20 6ZM28 6L28 7L29 7L29 6ZM31 6L31 7L32 7L32 6ZM35 6L35 7L36 7L36 6ZM44 6L44 7L45 7L45 6ZM48 6L48 8L49 8L49 6ZM6 8L6 9L7 9L7 10L6 10L6 11L7 11L7 10L8 10L8 11L9 11L9 10L8 10L8 9L7 9L7 8ZM56 8L56 9L57 9L57 8ZM21 9L21 10L20 10L20 13L19 13L19 14L20 14L20 13L21 13L21 10L22 10L22 11L23 11L23 10L24 10L24 9ZM2 10L2 11L1 11L1 12L2 12L2 11L4 11L4 10ZM31 10L31 11L32 11L32 14L33 14L33 15L34 15L34 16L32 16L32 17L34 17L34 18L37 18L37 19L38 19L38 20L36 20L36 19L35 19L35 20L36 20L36 21L37 21L37 22L39 22L39 21L38 21L38 20L39 20L39 19L40 19L40 18L39 18L39 19L38 19L38 17L40 17L40 16L39 16L39 13L41 13L41 12L39 12L39 11L38 11L38 10L37 10L37 12L36 12L36 14L37 14L37 15L38 15L38 16L36 16L36 15L35 15L35 14L34 14L34 12L33 12L33 11L32 11L32 10ZM55 10L55 11L53 11L53 12L52 12L52 13L54 13L54 12L55 12L55 11L57 11L57 10ZM11 12L11 14L12 14L12 15L11 15L11 17L9 17L9 16L8 16L8 17L9 17L9 18L12 18L12 16L15 16L15 14L14 14L14 13L13 13L13 14L12 14L12 12ZM27 12L27 13L26 13L26 14L27 14L27 13L29 13L29 12ZM37 12L37 14L38 14L38 13L39 13L39 12ZM47 12L47 13L48 13L48 12ZM56 12L56 13L57 13L57 12ZM22 13L22 14L23 14L23 13ZM13 14L13 15L14 15L14 14ZM20 15L20 16L21 16L21 15ZM34 16L34 17L36 17L36 16ZM30 17L30 19L31 19L31 20L34 20L34 19L31 19L31 17ZM53 17L53 18L54 18L54 17ZM56 18L56 19L57 19L57 18ZM53 19L53 21L55 21L55 20L54 20L54 19ZM13 20L13 22L14 22L14 20ZM25 20L25 22L26 22L26 20ZM2 21L2 22L3 22L3 21ZM27 21L27 22L29 22L29 21ZM32 22L32 24L34 24L34 22ZM28 24L28 25L29 25L29 24ZM1 25L1 27L2 27L2 25ZM3 25L3 26L4 26L4 25ZM39 25L39 26L40 26L40 25ZM9 26L9 27L11 27L11 26ZM33 26L33 27L34 27L34 26ZM5 27L5 30L8 30L8 27ZM14 27L14 29L15 29L15 28L16 28L16 27ZM20 27L20 28L21 28L21 27ZM27 27L27 30L30 30L30 27ZM37 27L37 28L36 28L36 29L37 29L37 30L38 30L38 29L37 29L37 28L38 28L38 27ZM49 27L49 30L52 30L52 27ZM6 28L6 29L7 29L7 28ZM28 28L28 29L29 29L29 28ZM39 28L39 29L40 29L40 28ZM50 28L50 29L51 29L51 28ZM17 29L17 30L18 30L18 29ZM12 30L12 31L14 31L14 30ZM18 31L18 32L19 32L19 31ZM31 31L31 33L32 33L32 31ZM45 31L45 32L46 32L46 31ZM47 31L47 32L48 32L48 31ZM14 33L14 34L15 34L15 33ZM24 33L24 34L25 34L25 35L26 35L26 34L25 34L25 33ZM39 34L39 36L40 36L40 34ZM51 34L51 35L52 35L52 34ZM45 35L45 37L44 37L44 36L43 36L43 37L44 37L44 40L43 40L43 42L39 42L39 40L38 40L38 41L37 41L37 45L38 45L38 44L40 44L40 43L41 43L41 44L42 44L42 45L43 45L43 46L42 46L42 47L41 47L41 46L37 46L37 47L36 47L36 46L35 46L35 49L34 49L34 48L33 48L33 51L32 51L32 52L31 52L31 54L32 54L32 55L34 55L34 54L33 54L33 53L35 53L35 54L36 54L36 56L37 56L37 54L36 54L36 52L37 52L37 53L38 53L38 56L40 56L40 55L39 55L39 53L38 53L38 52L37 52L37 50L38 50L38 49L37 49L37 50L35 50L35 49L36 49L36 48L37 48L37 47L38 47L38 48L41 48L41 49L42 49L42 47L43 47L43 48L44 48L44 47L45 47L45 48L46 48L46 49L45 49L45 50L46 50L46 51L47 51L47 52L46 52L46 53L48 53L48 51L47 51L47 48L50 48L50 47L48 47L48 46L49 46L49 45L48 45L48 44L49 44L49 43L50 43L50 46L51 46L51 47L52 47L52 48L54 48L54 46L53 46L53 47L52 47L52 46L51 46L51 45L52 45L52 44L53 44L53 43L54 43L54 42L52 42L52 43L50 43L50 42L49 42L49 41L50 41L50 40L49 40L49 39L52 39L52 38L50 38L50 35L47 35L47 36L49 36L49 37L48 37L48 38L47 38L47 37L46 37L46 35ZM5 36L5 37L3 37L3 38L6 38L6 37L7 37L7 36ZM18 36L18 37L19 37L19 36ZM56 36L56 37L57 37L57 36ZM18 38L18 39L19 39L19 38ZM41 38L41 39L40 39L40 41L41 41L41 40L42 40L42 39L43 39L43 38ZM45 38L45 39L46 39L46 38ZM48 38L48 39L47 39L47 40L44 40L44 42L43 42L43 43L42 43L42 44L44 44L44 43L46 43L46 42L47 42L47 41L48 41L48 39L49 39L49 38ZM32 39L32 40L33 40L33 39ZM51 40L51 41L52 41L52 40ZM45 41L45 42L46 42L46 41ZM5 42L5 43L6 43L6 42ZM27 42L27 43L28 43L28 42ZM48 42L48 43L47 43L47 44L48 44L48 43L49 43L49 42ZM10 43L10 44L9 44L9 45L11 45L11 43ZM12 43L12 44L13 44L13 45L12 45L12 46L13 46L13 45L14 45L14 44L13 44L13 43ZM34 44L34 45L35 45L35 44ZM19 45L19 47L20 47L20 45ZM46 45L46 46L45 46L45 47L46 47L46 48L47 48L47 46L48 46L48 45ZM1 46L1 47L2 47L2 46ZM9 49L9 50L10 50L10 51L11 51L11 52L10 52L10 53L9 53L9 54L10 54L10 55L11 55L11 54L13 54L13 53L11 53L11 52L13 52L13 51L14 51L14 50L10 50L10 49ZM27 49L27 52L30 52L30 49ZM31 49L31 50L32 50L32 49ZM49 49L49 52L52 52L52 49ZM56 49L56 50L57 50L57 49ZM25 50L25 52L26 52L26 50ZM28 50L28 51L29 51L29 50ZM50 50L50 51L51 51L51 50ZM33 51L33 52L32 52L32 53L33 53L33 52L35 52L35 51ZM19 52L19 53L20 53L20 52ZM10 53L10 54L11 54L11 53ZM16 53L16 55L18 55L18 54L17 54L17 53ZM25 53L25 54L26 54L26 53ZM27 53L27 54L29 54L29 56L30 56L30 54L29 54L29 53ZM41 53L41 54L42 54L42 53ZM23 54L23 56L24 56L24 54ZM50 55L50 56L49 56L49 57L51 57L51 55ZM14 56L14 57L15 57L15 56ZM42 56L42 57L44 57L44 56ZM45 56L45 57L46 57L46 56ZM0 0L0 7L7 7L7 0ZM1 1L1 6L6 6L6 1ZM2 2L2 5L5 5L5 2ZM50 0L50 7L57 7L57 0ZM51 1L51 6L56 6L56 1ZM52 2L52 5L55 5L55 2ZM0 50L0 57L7 57L7 50ZM1 51L1 56L6 56L6 51ZM2 52L2 55L5 55L5 52Z" fill="#000000"/></g></g></svg>
