<?xml version="1.0" encoding="UTF-8"?>
<svg xmlns="http://www.w3.org/2000/svg" version="1.1" width="100" height="100" viewBox="0 0 100 100"><rect x="0" y="0" width="100" height="100" fill="#ffffff"/><g transform="scale(1.887)"><g transform="translate(0,0)"><path fill-rule="evenodd" d="M8 0L8 1L10 1L10 3L9 3L9 2L8 2L8 5L9 5L9 6L8 6L8 7L9 7L9 8L8 8L8 9L7 9L7 8L6 8L6 9L7 9L7 10L5 10L5 12L6 12L6 13L7 13L7 14L6 14L6 15L7 15L7 16L5 16L5 15L4 15L4 16L3 16L3 15L1 15L1 11L0 11L0 15L1 15L1 16L3 16L3 17L4 17L4 18L3 18L3 19L2 19L2 17L0 17L0 20L1 20L1 19L2 19L2 22L1 22L1 21L0 21L0 22L1 22L1 23L0 23L0 26L1 26L1 27L0 27L0 28L1 28L1 29L3 29L3 30L5 30L5 31L3 31L3 32L5 32L5 33L3 33L3 34L2 34L2 33L1 33L1 32L2 32L2 31L1 31L1 30L0 30L0 33L1 33L1 34L0 34L0 36L1 36L1 37L0 37L0 38L1 38L1 41L0 41L0 43L1 43L1 44L3 44L3 45L4 45L4 44L3 44L3 43L8 43L8 46L9 46L9 43L10 43L10 45L12 45L12 44L13 44L13 47L12 47L12 46L11 46L11 47L12 47L12 48L13 48L13 49L14 49L14 50L15 50L15 49L14 49L14 47L16 47L16 45L15 45L15 44L13 44L13 43L15 43L15 42L14 42L14 40L15 40L15 41L16 41L16 42L18 42L18 43L17 43L17 45L18 45L18 43L19 43L19 42L20 42L20 43L21 43L21 44L20 44L20 45L22 45L22 46L21 46L21 47L23 47L23 48L24 48L24 49L22 49L22 48L20 48L20 47L19 47L19 48L18 48L18 49L17 49L17 48L16 48L16 49L17 49L17 50L16 50L16 51L14 51L14 52L12 52L12 51L13 51L13 50L10 50L10 51L9 51L9 49L10 49L10 47L9 47L9 49L8 49L8 53L9 53L9 52L10 52L10 53L11 53L11 52L12 52L12 53L14 53L14 52L15 52L15 53L18 53L18 52L19 52L19 51L21 51L21 52L22 52L22 51L24 51L24 49L25 49L25 50L26 50L26 51L25 51L25 53L27 53L27 52L26 52L26 51L27 51L27 49L30 49L30 48L29 48L29 44L30 44L30 47L31 47L31 50L32 50L32 51L28 51L28 52L32 52L32 53L33 53L33 52L34 52L34 51L33 51L33 50L34 50L34 49L35 49L35 50L37 50L37 53L40 53L40 52L41 52L41 50L39 50L39 49L40 49L40 48L37 48L37 47L38 47L38 45L37 45L37 47L36 47L36 46L34 46L34 45L32 45L32 43L35 43L35 45L36 45L36 44L39 44L39 47L42 47L42 48L41 48L41 49L43 49L43 48L44 48L44 49L48 49L48 50L47 50L47 52L46 52L46 53L47 53L47 52L50 52L50 51L51 51L51 53L52 53L52 50L53 50L53 49L52 49L52 50L50 50L50 49L51 49L51 48L53 48L53 47L52 47L52 46L53 46L53 44L52 44L52 43L51 43L51 42L52 42L52 41L53 41L53 40L51 40L51 42L50 42L50 41L49 41L49 40L50 40L50 39L53 39L53 36L52 36L52 35L51 35L51 34L53 34L53 32L52 32L52 31L50 31L50 30L51 30L51 29L49 29L49 22L50 22L50 23L52 23L52 22L53 22L53 21L52 21L52 22L50 22L50 21L51 21L51 20L52 20L52 19L51 19L51 17L52 17L52 15L53 15L53 13L52 13L52 15L51 15L51 14L50 14L50 13L51 13L51 12L50 12L50 11L47 11L47 10L48 10L48 9L51 9L51 8L48 8L48 9L47 9L47 10L46 10L46 8L44 8L44 9L41 9L41 5L39 5L39 4L38 4L38 2L43 2L43 3L42 3L42 7L43 7L43 3L44 3L44 4L45 4L45 3L44 3L44 1L43 1L43 0L41 0L41 1L38 1L38 0L37 0L37 1L38 1L38 2L36 2L36 1L34 1L34 0L32 0L32 3L35 3L35 5L38 5L38 9L36 9L36 8L37 8L37 6L36 6L36 8L35 8L35 10L34 10L34 9L33 9L33 10L32 10L32 9L31 9L31 8L32 8L32 7L33 7L33 6L34 6L34 7L35 7L35 6L34 6L34 4L31 4L31 5L30 5L30 3L29 3L29 2L31 2L31 0L30 0L30 1L29 1L29 0L27 0L27 1L29 1L29 2L27 2L27 3L26 3L26 2L25 2L25 3L26 3L26 4L21 4L21 3L20 3L20 4L19 4L19 3L18 3L18 2L19 2L19 1L16 1L16 0L13 0L13 2L11 2L11 0ZM22 0L22 1L25 1L25 0ZM14 1L14 2L13 2L13 3L12 3L12 4L11 4L11 5L10 5L10 4L9 4L9 5L10 5L10 6L9 6L9 7L10 7L10 6L11 6L11 7L12 7L12 11L11 11L11 13L10 13L10 14L11 14L11 15L8 15L8 16L11 16L11 17L10 17L10 19L9 19L9 18L8 18L8 17L5 17L5 16L4 16L4 17L5 17L5 18L4 18L4 19L3 19L3 20L4 20L4 19L5 19L5 18L7 18L7 19L6 19L6 20L5 20L5 21L6 21L6 22L4 22L4 21L3 21L3 23L4 23L4 24L9 24L9 28L10 28L10 27L11 27L11 29L12 29L12 26L11 26L11 24L9 24L9 23L12 23L12 24L13 24L13 23L14 23L14 21L15 21L15 24L14 24L14 26L13 26L13 27L14 27L14 28L15 28L15 30L16 30L16 31L17 31L17 32L16 32L16 34L15 34L15 32L14 32L14 33L11 33L11 31L13 31L13 30L10 30L10 32L9 32L9 31L8 31L8 30L7 30L7 29L6 29L6 30L7 30L7 31L6 31L6 32L7 32L7 33L5 33L5 34L4 34L4 35L2 35L2 34L1 34L1 36L2 36L2 39L3 39L3 41L1 41L1 42L2 42L2 43L3 43L3 41L4 41L4 42L7 42L7 41L5 41L5 40L7 40L7 39L5 39L5 40L4 40L4 39L3 39L3 37L4 37L4 38L7 38L7 37L8 37L8 36L7 36L7 35L8 35L8 34L9 34L9 35L11 35L11 36L10 36L10 37L9 37L9 39L8 39L8 41L9 41L9 42L10 42L10 40L9 40L9 39L10 39L10 37L11 37L11 41L12 41L12 38L13 38L13 40L14 40L14 38L15 38L15 39L16 39L16 40L18 40L18 41L20 41L20 42L21 42L21 43L22 43L22 44L23 44L23 43L24 43L24 42L23 42L23 40L24 40L24 41L25 41L25 40L26 40L26 38L28 38L28 41L29 41L29 37L30 37L30 38L31 38L31 39L32 39L32 40L33 40L33 41L31 41L31 40L30 40L30 42L28 42L28 44L29 44L29 43L30 43L30 42L33 42L33 41L34 41L34 40L36 40L36 41L35 41L35 42L36 42L36 43L37 43L37 37L39 37L39 38L40 38L40 39L39 39L39 40L38 40L38 42L40 42L40 43L39 43L39 44L40 44L40 43L42 43L42 44L41 44L41 45L40 45L40 46L41 46L41 45L42 45L42 44L43 44L43 43L44 43L44 44L46 44L46 43L47 43L47 44L48 44L48 43L50 43L50 42L49 42L49 41L48 41L48 43L47 43L47 42L43 42L43 41L45 41L45 40L46 40L46 41L47 41L47 40L46 40L46 39L45 39L45 38L47 38L47 39L50 39L50 36L51 36L51 35L50 35L50 34L46 34L46 35L45 35L45 34L44 34L44 35L43 35L43 34L41 34L41 35L40 35L40 34L39 34L39 33L40 33L40 31L41 31L41 33L42 33L42 31L44 31L44 33L45 33L45 31L48 31L48 33L49 33L49 29L43 29L43 28L44 28L44 26L43 26L43 25L44 25L44 24L46 24L46 22L47 22L47 23L48 23L48 22L49 22L49 21L50 21L50 18L48 18L48 17L49 17L49 15L50 15L50 17L51 17L51 15L50 15L50 14L49 14L49 13L46 13L46 14L45 14L45 15L40 15L40 13L41 13L41 14L44 14L44 13L43 13L43 11L39 11L39 9L40 9L40 10L41 10L41 9L40 9L40 6L39 6L39 9L38 9L38 11L37 11L37 10L35 10L35 12L34 12L34 13L33 13L33 12L31 12L31 11L30 11L30 8L31 8L31 7L32 7L32 5L31 5L31 7L30 7L30 6L29 6L29 7L30 7L30 8L29 8L29 10L27 10L27 9L24 9L24 8L23 8L23 9L24 9L24 10L21 10L21 9L20 9L20 8L19 8L19 7L20 7L20 6L21 6L21 8L22 8L22 5L20 5L20 6L19 6L19 7L18 7L18 6L17 6L17 7L16 7L16 5L18 5L18 4L17 4L17 2L16 2L16 1ZM20 1L20 2L21 2L21 1ZM33 1L33 2L34 2L34 1ZM14 2L14 3L13 3L13 4L12 4L12 5L11 5L11 6L12 6L12 7L13 7L13 6L14 6L14 8L13 8L13 11L12 11L12 12L13 12L13 13L11 13L11 14L13 14L13 15L14 15L14 12L13 12L13 11L15 11L15 16L14 16L14 17L13 17L13 16L12 16L12 15L11 15L11 16L12 16L12 18L11 18L11 20L9 20L9 19L8 19L8 20L6 20L6 21L7 21L7 22L6 22L6 23L9 23L9 22L8 22L8 21L10 21L10 22L13 22L13 19L14 19L14 18L15 18L15 17L16 17L16 18L17 18L17 22L16 22L16 25L17 25L17 27L15 27L15 28L16 28L16 30L17 30L17 31L18 31L18 30L19 30L19 29L18 29L18 28L19 28L19 27L21 27L21 24L22 24L22 23L25 23L25 22L23 22L23 20L21 20L21 19L20 19L20 20L19 20L19 22L18 22L18 18L20 18L20 16L19 16L19 15L18 15L18 16L17 16L17 14L16 14L16 13L19 13L19 14L20 14L20 15L23 15L23 13L25 13L25 14L24 14L24 16L23 16L23 17L22 17L22 16L21 16L21 18L23 18L23 17L25 17L25 20L26 20L26 21L27 21L27 24L23 24L23 25L22 25L22 27L24 27L24 28L23 28L23 30L28 30L28 31L29 31L29 33L26 33L26 34L25 34L25 35L24 35L24 32L26 32L26 31L24 31L24 32L23 32L23 31L22 31L22 32L21 32L21 30L22 30L22 28L21 28L21 30L20 30L20 33L21 33L21 35L22 35L22 36L23 36L23 37L21 37L21 36L20 36L20 35L19 35L19 36L18 36L18 38L19 38L19 39L18 39L18 40L19 40L19 39L20 39L20 40L21 40L21 41L22 41L22 40L21 40L21 38L24 38L24 39L25 39L25 37L26 37L26 35L27 35L27 36L29 36L29 35L27 35L27 34L31 34L31 35L30 35L30 37L31 37L31 36L33 36L33 37L32 37L32 38L33 38L33 40L34 40L34 38L33 38L33 37L37 37L37 36L39 36L39 37L40 37L40 36L39 36L39 34L38 34L38 33L39 33L39 31L40 31L40 30L38 30L38 33L37 33L37 34L38 34L38 35L37 35L37 36L36 36L36 34L34 34L34 33L36 33L36 32L37 32L37 31L36 31L36 30L37 30L37 29L38 29L38 28L43 28L43 26L42 26L42 27L41 27L41 25L42 25L42 24L43 24L43 21L47 21L47 22L48 22L48 20L49 20L49 19L47 19L47 17L48 17L48 14L47 14L47 15L46 15L46 16L47 16L47 17L46 17L46 18L45 18L45 19L44 19L44 18L43 18L43 19L40 19L40 18L42 18L42 17L40 17L40 15L39 15L39 13L37 13L37 11L36 11L36 12L35 12L35 13L37 13L37 16L38 16L38 15L39 15L39 17L40 17L40 18L38 18L38 17L35 17L35 15L36 15L36 14L35 14L35 15L33 15L33 13L32 13L32 14L30 14L30 13L31 13L31 12L30 12L30 13L29 13L29 14L28 14L28 12L29 12L29 11L28 11L28 12L27 12L27 15L28 15L28 16L27 16L27 17L25 17L25 15L26 15L26 13L25 13L25 12L24 12L24 11L25 11L25 10L24 10L24 11L23 11L23 13L21 13L21 12L22 12L22 11L21 11L21 12L20 12L20 11L18 11L18 12L17 12L17 11L16 11L16 7L15 7L15 6L14 6L14 5L13 5L13 4L14 4L14 3L15 3L15 2ZM23 2L23 3L24 3L24 2ZM27 3L27 4L29 4L29 3ZM15 4L15 5L16 5L16 4ZM12 5L12 6L13 6L13 5ZM23 5L23 7L24 7L24 5ZM25 5L25 8L28 8L28 5ZM26 6L26 7L27 7L27 6ZM44 6L44 7L45 7L45 6ZM0 8L0 9L3 9L3 11L2 11L2 14L3 14L3 11L4 11L4 8ZM14 8L14 9L15 9L15 8ZM52 8L52 9L53 9L53 8ZM9 9L9 10L7 10L7 11L6 11L6 12L7 12L7 11L9 11L9 12L10 12L10 11L9 11L9 10L11 10L11 9ZM17 9L17 10L18 10L18 9ZM44 9L44 12L45 12L45 11L46 11L46 10L45 10L45 9ZM26 10L26 11L27 11L27 10ZM51 10L51 11L52 11L52 12L53 12L53 11L52 11L52 10ZM29 14L29 16L32 16L32 15L30 15L30 14ZM18 16L18 17L19 17L19 16ZM33 16L33 18L32 18L32 17L28 17L28 19L27 19L27 18L26 18L26 19L27 19L27 21L28 21L28 23L29 23L29 29L28 29L28 30L30 30L30 33L34 33L34 32L33 32L33 31L32 31L32 32L31 32L31 30L34 30L34 28L33 28L33 29L32 29L32 28L30 28L30 27L35 27L35 29L37 29L37 27L38 27L38 26L37 26L37 25L38 25L38 24L39 24L39 27L40 27L40 25L41 25L41 23L40 23L40 24L39 24L39 23L37 23L37 22L36 22L36 21L38 21L38 22L39 22L39 21L40 21L40 22L41 22L41 21L42 21L42 20L41 20L41 21L40 21L40 19L39 19L39 20L36 20L36 21L35 21L35 19L36 19L36 18L35 18L35 19L34 19L34 16ZM12 18L12 19L13 19L13 18ZM15 19L15 20L16 20L16 19ZM29 19L29 20L28 20L28 21L29 21L29 20L30 20L30 19ZM31 19L31 21L30 21L30 23L31 23L31 21L32 21L32 19ZM43 19L43 20L44 20L44 19ZM46 19L46 20L47 20L47 19ZM11 20L11 21L12 21L12 20ZM20 21L20 22L21 22L21 21ZM33 21L33 22L32 22L32 24L31 24L31 26L33 26L33 25L32 25L32 24L33 24L33 23L34 23L34 25L37 25L37 23L35 23L35 22L34 22L34 21ZM44 22L44 23L45 23L45 22ZM1 23L1 25L3 25L3 26L4 26L4 25L3 25L3 24L2 24L2 23ZM18 23L18 24L17 24L17 25L18 25L18 24L19 24L19 23ZM20 23L20 24L21 24L21 23ZM50 24L50 27L51 27L51 28L53 28L53 24L52 24L52 26L51 26L51 24ZM5 25L5 28L8 28L8 25ZM19 25L19 26L18 26L18 27L19 27L19 26L20 26L20 25ZM25 25L25 28L28 28L28 25ZM45 25L45 28L48 28L48 25ZM6 26L6 27L7 27L7 26ZM26 26L26 27L27 27L27 26ZM35 26L35 27L36 27L36 26ZM46 26L46 27L47 27L47 26ZM1 27L1 28L3 28L3 27ZM41 29L41 30L42 30L42 29ZM44 30L44 31L45 31L45 30ZM7 31L7 32L8 32L8 33L9 33L9 32L8 32L8 31ZM35 31L35 32L36 32L36 31ZM46 32L46 33L47 33L47 32ZM17 33L17 35L18 35L18 33ZM5 34L5 36L6 36L6 37L7 37L7 36L6 36L6 35L7 35L7 34ZM11 34L11 35L13 35L13 36L11 36L11 37L14 37L14 36L15 36L15 37L17 37L17 36L15 36L15 35L14 35L14 34ZM22 34L22 35L23 35L23 36L24 36L24 37L25 37L25 36L24 36L24 35L23 35L23 34ZM32 34L32 35L33 35L33 36L34 36L34 34ZM41 35L41 36L42 36L42 37L43 37L43 38L41 38L41 39L40 39L40 40L42 40L42 41L41 41L41 42L42 42L42 41L43 41L43 40L45 40L45 39L43 39L43 38L44 38L44 37L43 37L43 36L42 36L42 35ZM44 35L44 36L45 36L45 35ZM47 35L47 36L50 36L50 35ZM19 36L19 38L20 38L20 36ZM47 37L47 38L48 38L48 37ZM51 37L51 38L52 38L52 37ZM35 38L35 39L36 39L36 38ZM42 39L42 40L43 40L43 39ZM12 42L12 43L11 43L11 44L12 44L12 43L13 43L13 42ZM25 42L25 43L27 43L27 42ZM6 44L6 45L7 45L7 44ZM14 45L14 46L15 46L15 45ZM23 45L23 47L24 47L24 45ZM25 45L25 48L28 48L28 45ZM31 45L31 47L32 47L32 45ZM45 45L45 48L48 48L48 45ZM49 45L49 46L50 46L50 47L49 47L49 49L50 49L50 48L51 48L51 46L50 46L50 45ZM26 46L26 47L27 47L27 46ZM43 46L43 47L44 47L44 46ZM46 46L46 47L47 47L47 46ZM34 47L34 48L35 48L35 49L36 49L36 47ZM32 48L32 50L33 50L33 48ZM19 49L19 50L18 50L18 51L19 51L19 50L20 50L20 49ZM21 49L21 50L22 50L22 49ZM37 49L37 50L38 50L38 49ZM42 50L42 51L43 51L43 53L44 53L44 51L43 51L43 50ZM48 50L48 51L49 51L49 50ZM10 51L10 52L11 52L11 51ZM16 51L16 52L17 52L17 51ZM35 51L35 52L36 52L36 51ZM38 51L38 52L39 52L39 51ZM0 0L0 7L7 7L7 0ZM1 1L1 6L6 6L6 1ZM2 2L2 5L5 5L5 2ZM46 0L46 7L53 7L53 0ZM47 1L47 6L52 6L52 1ZM48 2L48 5L51 5L51 2ZM0 46L0 53L7 53L7 46ZM1 47L1 52L6 52L6 47ZM2 48L2 51L5 51L5 48Z" fill="#000000"/></g></g></svg>
