<?xml version="1.0" encoding="UTF-8"?>
<svg xmlns="http://www.w3.org/2000/svg" version="1.1" width="100" height="100" viewBox="0 0 100 100"><rect x="0" y="0" width="100" height="100" fill="#ffffff"/><g transform="scale(1.754)"><g transform="translate(0,0)"><path fill-rule="evenodd" d="M8 0L8 1L9 1L9 0ZM10 0L10 1L11 1L11 2L10 2L10 3L11 3L11 2L12 2L12 0ZM13 0L13 1L15 1L15 0ZM16 0L16 2L13 2L13 3L12 3L12 4L10 4L10 5L11 5L11 6L10 6L10 7L9 7L9 6L8 6L8 8L9 8L9 9L10 9L10 10L11 10L11 11L14 11L14 12L15 12L15 13L13 13L13 12L10 12L10 13L9 13L9 12L8 12L8 11L9 11L9 10L6 10L6 11L4 11L4 10L5 10L5 8L3 8L3 9L2 9L2 8L0 8L0 9L2 9L2 11L1 11L1 12L0 12L0 14L1 14L1 15L0 15L0 16L1 16L1 15L2 15L2 16L4 16L4 17L7 17L7 18L6 18L6 19L5 19L5 18L4 18L4 19L3 19L3 18L2 18L2 19L1 19L1 17L0 17L0 19L1 19L1 20L0 20L0 24L1 24L1 27L0 27L0 28L1 28L1 29L0 29L0 32L1 32L1 34L2 34L2 33L4 33L4 31L7 31L7 32L6 32L6 33L5 33L5 35L4 35L4 34L3 34L3 35L2 35L2 36L3 36L3 37L1 37L1 35L0 35L0 37L1 37L1 38L0 38L0 39L1 39L1 40L0 40L0 41L1 41L1 40L2 40L2 39L4 39L4 40L3 40L3 42L4 42L4 43L3 43L3 45L4 45L4 46L5 46L5 47L3 47L3 46L2 46L2 45L1 45L1 46L0 46L0 48L5 48L5 47L7 47L7 46L5 46L5 45L7 45L7 44L4 44L4 43L5 43L5 41L4 41L4 40L5 40L5 38L4 38L4 37L5 37L5 35L7 35L7 36L6 36L6 37L7 37L7 38L6 38L6 39L7 39L7 38L9 38L9 39L8 39L8 40L10 40L10 42L9 42L9 41L7 41L7 40L6 40L6 41L7 41L7 42L6 42L6 43L7 43L7 42L9 42L9 43L11 43L11 44L13 44L13 45L14 45L14 44L13 44L13 43L15 43L15 46L14 46L14 47L15 47L15 49L16 49L16 48L17 48L17 47L15 47L15 46L18 46L18 49L17 49L17 51L16 51L16 50L14 50L14 49L12 49L12 48L13 48L13 46L12 46L12 47L10 47L10 46L11 46L11 45L10 45L10 44L8 44L8 45L10 45L10 46L9 46L9 47L8 47L8 48L6 48L6 49L8 49L8 50L9 50L9 49L8 49L8 48L11 48L11 49L10 49L10 51L9 51L9 52L8 52L8 54L9 54L9 55L8 55L8 57L9 57L9 55L10 55L10 57L12 57L12 56L13 56L13 55L14 55L14 56L15 56L15 57L16 57L16 56L17 56L17 57L19 57L19 56L20 56L20 57L24 57L24 54L20 54L20 55L19 55L19 54L18 54L18 53L21 53L21 52L20 52L20 51L21 51L21 49L20 49L20 48L21 48L21 47L22 47L22 46L23 46L23 47L24 47L24 48L26 48L26 50L25 50L25 49L23 49L23 48L22 48L22 50L23 50L23 53L25 53L25 54L27 54L27 55L26 55L26 56L25 56L25 57L26 57L26 56L27 56L27 55L29 55L29 56L28 56L28 57L29 57L29 56L30 56L30 57L31 57L31 56L32 56L32 57L34 57L34 56L35 56L35 55L36 55L36 54L38 54L38 53L39 53L39 55L37 55L37 56L36 56L36 57L38 57L38 56L39 56L39 57L44 57L44 56L43 56L43 55L42 55L42 54L43 54L43 51L41 51L41 49L42 49L42 50L46 50L46 49L45 49L45 47L46 47L46 48L47 48L47 51L46 51L46 52L44 52L44 53L45 53L45 56L46 56L46 57L47 57L47 55L50 55L50 57L51 57L51 55L50 55L50 54L52 54L52 55L53 55L53 56L52 56L52 57L53 57L53 56L57 56L57 54L55 54L55 55L53 55L53 52L55 52L55 53L57 53L57 52L56 52L56 51L53 51L53 49L54 49L54 50L55 50L55 49L54 49L54 48L55 48L55 46L54 46L54 47L52 47L52 46L53 46L53 44L55 44L55 45L57 45L57 38L56 38L56 37L57 37L57 36L56 36L56 35L57 35L57 33L56 33L56 31L57 31L57 27L53 27L53 26L51 26L51 25L50 25L50 26L49 26L49 25L48 25L48 24L51 24L51 23L52 23L52 22L53 22L53 23L54 23L54 24L52 24L52 25L54 25L54 26L55 26L55 25L56 25L56 24L57 24L57 22L56 22L56 21L54 21L54 22L53 22L53 20L55 20L55 19L54 19L54 18L55 18L55 15L56 15L56 13L57 13L57 12L56 12L56 11L57 11L57 10L56 10L56 9L57 9L57 8L56 8L56 9L55 9L55 11L53 11L53 9L52 9L52 10L51 10L51 8L50 8L50 9L48 9L48 10L47 10L47 8L48 8L48 7L49 7L49 6L48 6L48 7L47 7L47 5L48 5L48 0L44 0L44 2L42 2L42 1L43 1L43 0L42 0L42 1L41 1L41 0L38 0L38 1L37 1L37 0L36 0L36 1L35 1L35 0L33 0L33 2L30 2L30 3L31 3L31 4L29 4L29 3L28 3L28 2L29 2L29 0L28 0L28 1L27 1L27 0L23 0L23 1L27 1L27 3L26 3L26 2L25 2L25 3L23 3L23 2L22 2L22 1L21 1L21 0L20 0L20 1L21 1L21 2L20 2L20 4L19 4L19 1L17 1L17 0ZM30 0L30 1L31 1L31 0ZM38 1L38 2L35 2L35 4L34 4L34 2L33 2L33 5L32 5L32 6L31 6L31 8L32 8L32 9L33 9L33 12L34 12L34 14L35 14L35 13L36 13L36 15L33 15L33 17L31 17L31 21L32 21L32 22L28 22L28 21L26 21L26 20L25 20L25 21L24 21L24 19L25 19L25 18L27 18L27 20L28 20L28 19L30 19L30 16L29 16L29 17L28 17L28 15L30 15L30 14L31 14L31 12L32 12L32 10L30 10L30 9L29 9L29 10L26 10L26 8L24 8L24 5L23 5L23 7L22 7L22 5L21 5L21 4L22 4L22 3L21 3L21 4L20 4L20 5L19 5L19 4L16 4L16 5L19 5L19 9L18 9L18 6L17 6L17 7L16 7L16 6L15 6L15 4L14 4L14 6L13 6L13 9L15 9L15 8L16 8L16 9L17 9L17 10L16 10L16 11L17 11L17 12L16 12L16 14L15 14L15 15L14 15L14 14L13 14L13 13L11 13L11 15L10 15L10 14L9 14L9 15L10 15L10 16L11 16L11 17L10 17L10 18L9 18L9 19L8 19L8 18L7 18L7 19L6 19L6 20L5 20L5 19L4 19L4 20L5 20L5 23L4 23L4 21L3 21L3 20L2 20L2 21L1 21L1 23L3 23L3 24L4 24L4 25L5 25L5 26L8 26L8 25L9 25L9 24L8 24L8 23L6 23L6 22L8 22L8 20L9 20L9 21L11 21L11 20L14 20L14 21L15 21L15 20L16 20L16 19L17 19L17 20L19 20L19 21L16 21L16 22L20 22L20 21L21 21L21 22L23 22L23 21L24 21L24 23L23 23L23 24L24 24L24 25L23 25L23 27L25 27L25 26L26 26L26 25L25 25L25 23L27 23L27 26L28 26L28 24L29 24L29 23L31 23L31 24L30 24L30 25L29 25L29 26L30 26L30 25L32 25L32 26L31 26L31 27L32 27L32 28L31 28L31 30L32 30L32 28L33 28L33 29L35 29L35 31L34 31L34 30L33 30L33 31L32 31L32 32L31 32L31 31L30 31L30 32L28 32L28 33L25 33L25 32L24 32L24 31L26 31L26 32L27 32L27 31L26 31L26 30L24 30L24 31L23 31L23 30L21 30L21 29L20 29L20 30L19 30L19 31L18 31L18 32L23 32L23 33L21 33L21 34L20 34L20 35L21 35L21 37L18 37L18 34L19 34L19 33L17 33L17 32L15 32L15 31L16 31L16 30L15 30L15 28L16 28L16 26L18 26L18 27L17 27L17 29L19 29L19 28L21 28L21 27L19 27L19 25L21 25L21 23L18 23L18 24L19 24L19 25L17 25L17 23L16 23L16 24L15 24L15 25L14 25L14 26L12 26L12 24L14 24L14 23L12 23L12 22L13 22L13 21L12 21L12 22L11 22L11 23L10 23L10 22L9 22L9 23L10 23L10 24L11 24L11 26L9 26L9 27L11 27L11 28L12 28L12 29L13 29L13 28L12 28L12 27L14 27L14 26L15 26L15 28L14 28L14 31L13 31L13 30L11 30L11 29L10 29L10 28L9 28L9 29L10 29L10 30L9 30L9 31L8 31L8 34L9 34L9 35L8 35L8 37L9 37L9 35L10 35L10 34L11 34L11 36L13 36L13 35L14 35L14 37L15 37L15 40L13 40L13 39L14 39L14 38L11 38L11 37L10 37L10 39L12 39L12 40L11 40L11 43L12 43L12 40L13 40L13 42L14 42L14 41L15 41L15 40L16 40L16 38L18 38L18 39L17 39L17 40L18 40L18 39L19 39L19 38L22 38L22 39L20 39L20 41L18 41L18 42L21 42L21 46L20 46L20 47L21 47L21 46L22 46L22 45L23 45L23 46L24 46L24 45L25 45L25 46L26 46L26 48L27 48L27 47L29 47L29 48L31 48L31 49L32 49L32 51L31 51L31 52L32 52L32 51L33 51L33 50L34 50L34 51L35 51L35 52L33 52L33 53L35 53L35 54L32 54L32 53L27 53L27 54L30 54L30 56L31 56L31 54L32 54L32 55L35 55L35 54L36 54L36 52L37 52L37 51L38 51L38 49L37 49L37 51L35 51L35 49L32 49L32 47L29 47L29 46L30 46L30 44L31 44L31 43L30 43L30 42L31 42L31 41L32 41L32 42L33 42L33 43L32 43L32 45L31 45L31 46L32 46L32 45L34 45L34 44L37 44L37 45L35 45L35 46L37 46L37 47L34 47L34 46L33 46L33 47L34 47L34 48L37 48L37 47L39 47L39 50L40 50L40 48L41 48L41 46L40 46L40 47L39 47L39 46L37 46L37 45L38 45L38 44L39 44L39 45L40 45L40 44L39 44L39 41L38 41L38 36L39 36L39 37L40 37L40 36L41 36L41 35L44 35L44 34L42 34L42 33L45 33L45 32L46 32L46 33L47 33L47 34L48 34L48 35L46 35L46 34L45 34L45 35L46 35L46 36L45 36L45 37L44 37L44 36L42 36L42 37L44 37L44 40L43 40L43 42L40 42L40 43L41 43L41 44L42 44L42 45L45 45L45 46L46 46L46 43L47 43L47 42L46 42L46 41L47 41L47 40L46 40L46 41L44 41L44 40L45 40L45 39L48 39L48 40L49 40L49 41L48 41L48 44L47 44L47 46L48 46L48 45L50 45L50 44L51 44L51 45L52 45L52 44L53 44L53 43L54 43L54 42L55 42L55 43L56 43L56 38L55 38L55 41L54 41L54 40L53 40L53 41L54 41L54 42L53 42L53 43L52 43L52 44L51 44L51 43L50 43L50 42L49 42L49 41L50 41L50 40L51 40L51 37L50 37L50 40L49 40L49 39L48 39L48 38L47 38L47 36L48 36L48 35L49 35L49 36L50 36L50 35L49 35L49 33L50 33L50 34L51 34L51 35L52 35L52 39L53 39L53 37L56 37L56 36L54 36L54 33L53 33L53 31L52 31L52 32L51 32L51 31L50 31L50 32L49 32L49 31L48 31L48 30L46 30L46 29L44 29L44 31L43 31L43 30L42 30L42 29L43 29L43 28L47 28L47 26L48 26L48 25L47 25L47 24L48 24L48 22L47 22L47 24L46 24L46 23L45 23L45 24L46 24L46 25L45 25L45 27L43 27L43 26L44 26L44 25L43 25L43 26L42 26L42 25L41 25L41 26L40 26L40 25L39 25L39 24L38 24L38 23L40 23L40 24L41 24L41 22L42 22L42 24L44 24L44 23L43 23L43 22L44 22L44 21L45 21L45 20L47 20L47 21L51 21L51 22L49 22L49 23L51 23L51 22L52 22L52 19L53 19L53 18L52 18L52 19L51 19L51 17L53 17L53 15L54 15L54 14L55 14L55 13L56 13L56 12L54 12L54 14L53 14L53 13L52 13L52 12L53 12L53 11L51 11L51 10L48 10L48 11L49 11L49 12L48 12L48 13L47 13L47 12L46 12L46 9L45 9L45 8L47 8L47 7L46 7L46 6L45 6L45 5L47 5L47 3L46 3L46 4L43 4L43 3L42 3L42 2L41 2L41 1L40 1L40 3L41 3L41 4L39 4L39 3L38 3L38 2L39 2L39 1ZM46 1L46 2L47 2L47 1ZM36 3L36 4L35 4L35 6L34 6L34 7L35 7L35 6L36 6L36 8L34 8L34 10L35 10L35 9L36 9L36 8L37 8L37 9L38 9L38 10L37 10L37 12L36 12L36 11L34 11L34 12L36 12L36 13L37 13L37 12L40 12L40 13L38 13L38 14L37 14L37 15L39 15L39 16L36 16L36 17L34 17L34 18L32 18L32 20L34 20L34 21L33 21L33 22L32 22L32 23L33 23L33 26L32 26L32 27L33 27L33 28L36 28L36 31L35 31L35 32L36 32L36 34L35 34L35 33L34 33L34 32L33 32L33 33L31 33L31 32L30 32L30 33L28 33L28 34L27 34L27 35L28 35L28 37L30 37L30 36L31 36L31 34L33 34L33 35L32 35L32 38L28 38L28 42L27 42L27 39L26 39L26 42L25 42L25 41L23 41L23 43L22 43L22 44L23 44L23 43L24 43L24 44L26 44L26 43L28 43L28 42L30 42L30 41L31 41L31 40L32 40L32 41L33 41L33 39L32 39L32 38L34 38L34 36L35 36L35 37L36 37L36 38L35 38L35 39L34 39L34 40L36 40L36 41L34 41L34 43L33 43L33 44L34 44L34 43L37 43L37 42L36 42L36 41L37 41L37 40L36 40L36 39L37 39L37 36L38 36L38 35L39 35L39 36L40 36L40 34L41 34L41 29L42 29L42 27L41 27L41 29L40 29L40 33L39 33L39 30L38 30L38 29L37 29L37 28L38 28L38 27L40 27L40 26L39 26L39 25L38 25L38 24L37 24L37 22L39 22L39 21L38 21L38 19L37 19L37 18L38 18L38 17L39 17L39 19L40 19L40 22L41 22L41 20L42 20L42 22L43 22L43 20L42 20L42 18L43 18L43 17L46 17L46 18L44 18L44 19L46 19L46 18L47 18L47 19L48 19L48 20L50 20L50 18L49 18L49 17L46 17L46 15L45 15L45 14L44 14L44 13L46 13L46 12L45 12L45 11L44 11L44 10L45 10L45 9L44 9L44 8L43 8L43 6L42 6L42 5L43 5L43 4L41 4L41 6L40 6L40 7L39 7L39 4L38 4L38 3ZM25 4L25 7L26 7L26 4ZM36 4L36 6L37 6L37 7L38 7L38 5L37 5L37 4ZM20 5L20 7L21 7L21 8L20 8L20 11L21 11L21 10L22 10L22 11L23 11L23 12L26 12L26 11L25 11L25 9L24 9L24 8L22 8L22 7L21 7L21 5ZM27 5L27 8L30 8L30 5ZM11 6L11 7L12 7L12 6ZM14 6L14 8L15 8L15 6ZM28 6L28 7L29 7L29 6ZM32 6L32 8L33 8L33 6ZM41 6L41 10L40 10L40 11L43 11L43 12L44 12L44 11L43 11L43 10L42 10L42 6ZM44 6L44 7L45 7L45 6ZM6 8L6 9L7 9L7 8ZM10 8L10 9L11 9L11 10L12 10L12 9L11 9L11 8ZM38 8L38 9L39 9L39 8ZM3 9L3 10L4 10L4 9ZM22 9L22 10L24 10L24 9ZM14 10L14 11L15 11L15 10ZM17 10L17 11L18 11L18 12L17 12L17 14L16 14L16 15L15 15L15 16L14 16L14 15L12 15L12 16L13 16L13 17L12 17L12 18L13 18L13 19L14 19L14 20L15 20L15 19L16 19L16 18L17 18L17 16L18 16L18 17L19 17L19 18L18 18L18 19L19 19L19 18L20 18L20 19L21 19L21 18L20 18L20 17L22 17L22 16L23 16L23 14L22 14L22 16L20 16L20 15L21 15L21 13L20 13L20 12L19 12L19 10ZM38 10L38 11L39 11L39 10ZM6 11L6 12L4 12L4 13L6 13L6 14L5 14L5 15L4 15L4 16L7 16L7 17L8 17L8 15L6 15L6 14L7 14L7 13L8 13L8 12L7 12L7 11ZM1 12L1 14L2 14L2 15L3 15L3 12ZM6 12L6 13L7 13L7 12ZM27 12L27 13L29 13L29 14L30 14L30 12ZM41 12L41 13L40 13L40 14L39 14L39 15L40 15L40 16L39 16L39 17L40 17L40 18L41 18L41 15L44 15L44 16L45 16L45 15L44 15L44 14L41 14L41 13L42 13L42 12ZM19 13L19 15L20 15L20 13ZM24 13L24 14L25 14L25 13ZM32 13L32 14L33 14L33 13ZM48 13L48 15L47 15L47 16L50 16L50 15L51 15L51 13L50 13L50 14L49 14L49 13ZM40 14L40 15L41 15L41 14ZM52 14L52 15L53 15L53 14ZM25 15L25 16L27 16L27 15ZM13 17L13 18L14 18L14 17ZM15 17L15 18L16 18L16 17ZM23 17L23 19L24 19L24 18L25 18L25 17ZM34 18L34 20L35 20L35 22L37 22L37 21L36 21L36 20L37 20L37 19L36 19L36 20L35 20L35 18ZM48 18L48 19L49 19L49 18ZM56 18L56 20L57 20L57 18ZM7 19L7 20L6 20L6 21L7 21L7 20L8 20L8 19ZM21 20L21 21L23 21L23 20ZM2 21L2 22L3 22L3 21ZM25 21L25 22L26 22L26 21ZM54 22L54 23L55 23L55 22ZM5 23L5 25L8 25L8 24L6 24L6 23ZM34 23L34 25L35 25L35 23ZM54 24L54 25L55 25L55 24ZM2 25L2 27L1 27L1 28L3 28L3 29L4 29L4 28L3 28L3 27L4 27L4 26L3 26L3 25ZM15 25L15 26L16 26L16 25ZM24 25L24 26L25 26L25 25ZM36 26L36 27L38 27L38 26ZM5 27L5 30L8 30L8 27ZM27 27L27 30L30 30L30 27ZM49 27L49 30L52 30L52 27ZM6 28L6 29L7 29L7 28ZM22 28L22 29L26 29L26 28ZM28 28L28 29L29 29L29 28ZM50 28L50 29L51 29L51 28ZM54 28L54 29L53 29L53 30L55 30L55 28ZM1 29L1 31L2 31L2 32L3 32L3 31L4 31L4 30L3 30L3 31L2 31L2 29ZM20 30L20 31L21 31L21 30ZM37 30L37 31L36 31L36 32L38 32L38 30ZM9 31L9 34L10 34L10 31ZM42 31L42 32L43 32L43 31ZM47 31L47 32L48 32L48 31ZM50 32L50 33L51 33L51 34L52 34L52 35L53 35L53 33L51 33L51 32ZM6 33L6 34L7 34L7 33ZM11 33L11 34L13 34L13 33ZM14 33L14 34L15 34L15 35L16 35L16 37L17 37L17 33L16 33L16 34L15 34L15 33ZM24 33L24 34L23 34L23 36L22 36L22 38L23 38L23 39L24 39L24 40L25 40L25 38L26 38L26 37L27 37L27 36L26 36L26 34L25 34L25 33ZM33 33L33 34L34 34L34 33ZM55 33L55 34L56 34L56 33ZM21 34L21 35L22 35L22 34ZM24 34L24 35L25 35L25 34ZM3 35L3 36L4 36L4 35ZM29 35L29 36L30 36L30 35ZM33 35L33 36L34 36L34 35ZM36 35L36 36L37 36L37 35ZM23 36L23 38L24 38L24 36ZM45 37L45 38L46 38L46 37ZM41 38L41 39L40 39L40 41L41 41L41 40L42 40L42 39L43 39L43 38ZM29 39L29 41L30 41L30 40L31 40L31 39ZM21 40L21 42L22 42L22 40ZM51 41L51 42L52 42L52 41ZM43 42L43 43L42 43L42 44L44 44L44 43L46 43L46 42ZM1 43L1 44L2 44L2 43ZM16 43L16 45L18 45L18 44L17 44L17 43ZM49 43L49 44L50 44L50 43ZM27 44L27 46L29 46L29 45L28 45L28 44ZM1 46L1 47L2 47L2 46ZM42 46L42 49L44 49L44 46ZM56 46L56 47L57 47L57 46ZM47 47L47 48L50 48L50 47ZM51 47L51 48L52 48L52 47ZM56 48L56 50L57 50L57 48ZM18 49L18 51L17 51L17 52L16 52L16 51L14 51L14 55L15 55L15 52L16 52L16 55L17 55L17 56L19 56L19 55L17 55L17 53L18 53L18 52L19 52L19 50L20 50L20 49ZM27 49L27 52L30 52L30 49ZM49 49L49 52L52 52L52 49ZM11 50L11 52L13 52L13 50ZM28 50L28 51L29 51L29 50ZM50 50L50 51L51 51L51 50ZM25 51L25 52L26 52L26 51ZM39 51L39 53L41 53L41 54L42 54L42 53L41 53L41 51ZM47 51L47 53L48 53L48 54L49 54L49 53L48 53L48 51ZM11 53L11 54L10 54L10 55L11 55L11 56L12 56L12 54L13 54L13 53ZM46 54L46 55L47 55L47 54ZM22 55L22 56L23 56L23 55ZM41 55L41 56L42 56L42 55ZM0 0L0 7L7 7L7 0ZM1 1L1 6L6 6L6 1ZM2 2L2 5L5 5L5 2ZM50 0L50 7L57 7L57 0ZM51 1L51 6L56 6L56 1ZM52 2L52 5L55 5L55 2ZM0 50L0 57L7 57L7 50ZM1 51L1 56L6 56L6 51ZM2 52L2 55L5 55L5 52Z" fill="#000000"/></g></g></svg>
