<?xml version="1.0" encoding="UTF-8"?>
<svg xmlns="http://www.w3.org/2000/svg" version="1.1" width="100" height="100" viewBox="0 0 100 100"><rect x="0" y="0" width="100" height="100" fill="#ffffff"/><g transform="scale(1.754)"><g transform="translate(0,0)"><path fill-rule="evenodd" d="M9 0L9 1L8 1L8 3L9 3L9 1L10 1L10 0ZM12 0L12 1L13 1L13 2L12 2L12 3L11 3L11 2L10 2L10 3L11 3L11 5L9 5L9 4L8 4L8 8L6 8L6 9L4 9L4 8L3 8L3 10L2 10L2 8L0 8L0 9L1 9L1 11L2 11L2 12L0 12L0 13L2 13L2 15L1 15L1 14L0 14L0 16L2 16L2 15L3 15L3 14L4 14L4 12L5 12L5 15L9 15L9 13L11 13L11 12L12 12L12 9L11 9L11 8L10 8L10 7L11 7L11 5L14 5L14 4L13 4L13 3L14 3L14 1L15 1L15 2L16 2L16 3L15 3L15 6L14 6L14 7L15 7L15 6L16 6L16 7L17 7L17 9L18 9L18 10L16 10L16 9L13 9L13 11L14 11L14 13L12 13L12 14L10 14L10 16L5 16L5 18L4 18L4 17L3 17L3 18L4 18L4 19L5 19L5 23L4 23L4 20L3 20L3 19L1 19L1 17L0 17L0 20L1 20L1 21L2 21L2 20L3 20L3 25L2 25L2 26L1 26L1 28L2 28L2 29L1 29L1 31L4 31L4 32L3 32L3 33L4 33L4 34L3 34L3 35L4 35L4 36L2 36L2 37L0 37L0 41L2 41L2 42L3 42L3 39L4 39L4 38L6 38L6 39L7 39L7 38L6 38L6 37L8 37L8 39L9 39L9 40L8 40L8 41L9 41L9 42L8 42L8 43L7 43L7 42L6 42L6 41L7 41L7 40L5 40L5 41L4 41L4 43L3 43L3 44L2 44L2 43L0 43L0 44L2 44L2 47L1 47L1 45L0 45L0 48L5 48L5 47L7 47L7 46L8 46L8 48L6 48L6 49L8 49L8 51L10 51L10 53L8 53L8 54L9 54L9 55L8 55L8 57L11 57L11 56L12 56L12 55L14 55L14 56L15 56L15 57L16 57L16 56L17 56L17 57L19 57L19 56L20 56L20 57L21 57L21 55L17 55L17 54L19 54L19 53L21 53L21 54L22 54L22 57L23 57L23 56L24 56L24 55L25 55L25 54L26 54L26 56L27 56L27 57L28 57L28 56L27 56L27 54L28 54L28 55L29 55L29 56L30 56L30 57L31 57L31 56L30 56L30 55L35 55L35 54L36 54L36 53L38 53L38 54L39 54L39 53L40 53L40 52L42 52L42 51L41 51L41 49L43 49L43 48L44 48L44 49L45 49L45 50L43 50L43 55L42 55L42 53L41 53L41 54L40 54L40 55L38 55L38 57L39 57L39 56L40 56L40 57L43 57L43 56L47 56L47 55L48 55L48 56L50 56L50 57L54 57L54 56L53 56L53 54L51 54L51 56L50 56L50 53L53 53L53 52L54 52L54 50L55 50L55 51L56 51L56 48L57 48L57 45L56 45L56 44L55 44L55 45L54 45L54 44L53 44L53 43L57 43L57 42L56 42L56 41L57 41L57 40L56 40L56 39L57 39L57 34L56 34L56 31L57 31L57 30L56 30L56 29L57 29L57 28L55 28L55 30L53 30L53 27L54 27L54 25L55 25L55 27L56 27L56 26L57 26L57 21L56 21L56 23L55 23L55 22L53 22L53 23L52 23L52 21L54 21L54 19L55 19L55 20L57 20L57 17L55 17L55 16L57 16L57 15L56 15L56 14L57 14L57 9L56 9L56 8L54 8L54 9L53 9L53 8L50 8L50 9L51 9L51 10L48 10L48 11L47 11L47 10L46 10L46 9L43 9L43 8L45 8L45 6L46 6L46 7L47 7L47 9L48 9L48 7L49 7L49 6L48 6L48 7L47 7L47 5L48 5L48 0L46 0L46 1L47 1L47 2L46 2L46 3L45 3L45 2L44 2L44 1L45 1L45 0L44 0L44 1L43 1L43 0L41 0L41 1L39 1L39 0L34 0L34 1L38 1L38 2L44 2L44 3L45 3L45 5L44 5L44 4L43 4L43 3L41 3L41 5L40 5L40 4L39 4L39 3L37 3L37 4L38 4L38 5L36 5L36 8L35 8L35 5L34 5L34 4L33 4L33 5L34 5L34 7L33 7L33 6L32 6L32 7L33 7L33 8L31 8L31 0L29 0L29 1L27 1L27 0L26 0L26 1L25 1L25 0L24 0L24 1L22 1L22 0L19 0L19 1L18 1L18 0L14 0L14 1L13 1L13 0ZM16 1L16 2L17 2L17 3L16 3L16 4L17 4L17 7L18 7L18 5L19 5L19 8L21 8L21 9L20 9L20 11L19 11L19 10L18 10L18 11L16 11L16 10L15 10L15 11L16 11L16 12L15 12L15 13L14 13L14 14L12 14L12 15L15 15L15 17L14 17L14 16L12 16L12 17L11 17L11 16L10 16L10 18L9 18L9 17L8 17L8 18L9 18L9 19L8 19L8 21L6 21L6 22L11 22L11 23L10 23L10 24L9 24L9 23L5 23L5 25L6 25L6 26L9 26L9 28L10 28L10 29L9 29L9 31L8 31L8 32L7 32L7 31L5 31L5 32L4 32L4 33L5 33L5 35L6 35L6 36L8 36L8 37L9 37L9 39L10 39L10 38L11 38L11 40L10 40L10 41L11 41L11 40L13 40L13 42L12 42L12 43L14 43L14 44L13 44L13 45L14 45L14 46L13 46L13 48L14 48L14 49L12 49L12 50L14 50L14 49L17 49L17 50L15 50L15 51L14 51L14 53L10 53L10 54L11 54L11 55L12 55L12 54L14 54L14 53L15 53L15 51L16 51L16 54L17 54L17 52L20 52L20 50L21 50L21 53L23 53L23 54L25 54L25 53L26 53L26 54L27 54L27 53L26 53L26 52L25 52L25 51L24 51L24 50L26 50L26 49L25 49L25 48L24 48L24 49L22 49L22 50L21 50L21 47L23 47L23 46L25 46L25 47L27 47L27 48L28 48L28 47L27 47L27 46L29 46L29 48L30 48L30 46L31 46L31 47L32 47L32 48L31 48L31 49L32 49L32 50L31 50L31 52L32 52L32 50L33 50L33 49L32 49L32 48L35 48L35 47L33 47L33 46L32 46L32 45L33 45L33 44L32 44L32 43L33 43L33 42L34 42L34 44L35 44L35 45L34 45L34 46L38 46L38 47L37 47L37 49L35 49L35 50L34 50L34 51L33 51L33 52L34 52L34 53L33 53L33 54L35 54L35 50L36 50L36 51L37 51L37 52L39 52L39 51L38 51L38 50L39 50L39 49L40 49L40 48L39 48L39 49L38 49L38 47L39 47L39 45L40 45L40 47L42 47L42 48L43 48L43 44L44 44L44 46L45 46L45 47L44 47L44 48L45 48L45 49L47 49L47 50L45 50L45 53L46 53L46 54L44 54L44 55L47 55L47 54L48 54L48 53L46 53L46 51L48 51L48 48L47 48L47 47L46 47L46 46L48 46L48 45L47 45L47 44L48 44L48 43L47 43L47 41L49 41L49 42L51 42L51 43L53 43L53 42L54 42L54 41L55 41L55 38L54 38L54 37L55 37L55 35L56 35L56 34L55 34L55 33L54 33L54 34L53 34L53 32L55 32L55 31L53 31L53 32L52 32L52 31L51 31L51 32L48 32L48 31L47 31L47 30L48 30L48 29L46 29L46 28L45 28L45 29L44 29L44 28L42 28L42 27L45 27L45 25L47 25L47 26L46 26L46 27L48 27L48 26L49 26L49 24L47 24L47 23L48 23L48 22L50 22L50 24L51 24L51 25L50 25L50 26L52 26L52 24L51 24L51 20L50 20L50 19L51 19L51 18L53 18L53 19L52 19L52 20L53 20L53 19L54 19L54 18L55 18L55 17L54 17L54 16L55 16L55 15L53 15L53 16L52 16L52 15L50 15L50 14L51 14L51 13L50 13L50 14L49 14L49 12L47 12L47 11L46 11L46 10L45 10L45 11L44 11L44 12L45 12L45 13L48 13L48 14L49 14L49 15L47 15L47 14L46 14L46 15L45 15L45 17L44 17L44 15L43 15L43 13L41 13L41 14L40 14L40 15L41 15L41 14L42 14L42 16L43 16L43 17L42 17L42 20L41 20L41 18L38 18L38 16L39 16L39 17L41 17L41 16L39 16L39 15L38 15L38 14L39 14L39 13L40 13L40 12L39 12L39 9L40 9L40 11L41 11L41 12L43 12L43 9L42 9L42 10L41 10L41 9L40 9L40 8L43 8L43 7L44 7L44 6L43 6L43 7L42 7L42 5L41 5L41 7L40 7L40 6L39 6L39 5L38 5L38 6L37 6L37 9L38 9L38 10L35 10L35 9L34 9L34 8L33 8L33 9L34 9L34 10L35 10L35 11L34 11L34 12L33 12L33 10L31 10L31 9L29 9L29 10L28 10L28 11L29 11L29 12L31 12L31 11L32 11L32 12L33 12L33 13L32 13L32 15L33 15L33 14L34 14L34 13L35 13L35 12L36 12L36 11L37 11L37 12L38 12L38 14L37 14L37 13L36 13L36 15L34 15L34 16L33 16L33 17L34 17L34 19L33 19L33 18L32 18L32 19L31 19L31 15L30 15L30 14L31 14L31 13L30 13L30 14L28 14L28 15L27 15L27 13L28 13L28 12L26 12L26 11L27 11L27 9L26 9L26 4L25 4L25 2L24 2L24 5L23 5L23 9L24 9L24 10L21 10L21 9L22 9L22 8L21 8L21 7L22 7L22 6L21 6L21 7L20 7L20 5L19 5L19 4L21 4L21 5L22 5L22 4L23 4L23 3L22 3L22 1L21 1L21 3L19 3L19 2L18 2L18 1ZM27 2L27 4L29 4L29 2ZM33 2L33 3L35 3L35 4L36 4L36 2ZM21 3L21 4L22 4L22 3ZM46 3L46 5L47 5L47 3ZM24 5L24 8L25 8L25 5ZM27 5L27 8L30 8L30 5ZM9 6L9 7L10 7L10 6ZM12 6L12 8L13 8L13 6ZM28 6L28 7L29 7L29 6ZM38 6L38 7L39 7L39 8L40 8L40 7L39 7L39 6ZM8 8L8 9L10 9L10 8ZM6 9L6 10L4 10L4 11L3 11L3 12L4 12L4 11L5 11L5 12L7 12L7 11L8 11L8 13L6 13L6 14L8 14L8 13L9 13L9 12L11 12L11 10L10 10L10 11L8 11L8 10L7 10L7 9ZM25 9L25 10L24 10L24 11L26 11L26 9ZM52 9L52 10L51 10L51 11L50 11L50 12L51 12L51 11L53 11L53 13L55 13L55 11L56 11L56 10L54 10L54 11L53 11L53 9ZM6 10L6 11L7 11L7 10ZM29 10L29 11L30 11L30 10ZM18 11L18 12L17 12L17 13L16 13L16 14L18 14L18 15L19 15L19 14L20 14L20 18L19 18L19 16L17 16L17 15L16 15L16 17L15 17L15 18L16 18L16 17L17 17L17 19L18 19L18 18L19 18L19 20L18 20L18 21L19 21L19 20L22 20L22 22L21 22L21 21L20 21L20 22L17 22L17 24L18 24L18 26L17 26L17 25L15 25L15 24L16 24L16 21L17 21L17 20L16 20L16 19L14 19L14 17L12 17L12 19L11 19L11 20L12 20L12 21L11 21L11 22L13 22L13 24L12 24L12 25L11 25L11 24L10 24L10 25L11 25L11 27L10 27L10 28L13 28L13 26L14 26L14 29L12 29L12 30L11 30L11 29L10 29L10 31L12 31L12 30L13 30L13 32L15 32L15 34L16 34L16 35L14 35L14 36L13 36L13 34L12 34L12 32L11 32L11 33L10 33L10 34L11 34L11 35L12 35L12 36L10 36L10 35L8 35L8 36L10 36L10 37L11 37L11 38L12 38L12 39L14 39L14 38L15 38L15 37L14 37L14 36L16 36L16 37L17 37L17 39L16 39L16 40L15 40L15 41L14 41L14 42L16 42L16 43L15 43L15 44L14 44L14 45L15 45L15 44L19 44L19 43L18 43L18 42L20 42L20 43L21 43L21 41L19 41L19 40L20 40L20 38L19 38L19 37L21 37L21 36L22 36L22 37L23 37L23 34L24 34L24 32L23 32L23 31L25 31L25 34L26 34L26 33L27 33L27 34L28 34L28 35L25 35L25 36L24 36L24 38L22 38L22 39L21 39L21 40L23 40L23 39L24 39L24 40L25 40L25 39L26 39L26 40L27 40L27 41L26 41L26 42L28 42L28 41L31 41L31 42L29 42L29 43L27 43L27 44L29 44L29 43L32 43L32 41L31 41L31 40L32 40L32 39L31 39L31 38L32 38L32 37L33 37L33 36L34 36L34 35L36 35L36 37L34 37L34 38L36 38L36 41L35 41L35 40L34 40L34 39L33 39L33 40L34 40L34 41L35 41L35 43L37 43L37 44L36 44L36 45L39 45L39 44L40 44L40 45L41 45L41 44L42 44L42 42L41 42L41 44L40 44L40 42L39 42L39 41L38 41L38 40L37 40L37 39L39 39L39 38L38 38L38 37L44 37L44 38L45 38L45 37L46 37L46 38L47 38L47 39L44 39L44 40L42 40L42 39L41 39L41 38L40 38L40 40L42 40L42 41L43 41L43 42L44 42L44 44L47 44L47 43L45 43L45 42L46 42L46 41L47 41L47 39L48 39L48 40L49 40L49 41L53 41L53 40L49 40L49 39L50 39L50 37L52 37L52 38L51 38L51 39L53 39L53 37L54 37L54 36L53 36L53 34L50 34L50 35L49 35L49 33L48 33L48 32L47 32L47 31L46 31L46 29L45 29L45 30L44 30L44 31L43 31L43 32L40 32L40 33L39 33L39 32L36 32L36 33L35 33L35 31L36 31L36 30L37 30L37 31L39 31L39 30L40 30L40 31L42 31L42 29L38 29L38 28L41 28L41 26L42 26L42 25L43 25L43 23L40 23L40 21L41 21L41 20L40 20L40 19L39 19L39 23L38 23L38 22L37 22L37 20L38 20L38 19L36 19L36 18L35 18L35 19L34 19L34 20L33 20L33 19L32 19L32 20L31 20L31 19L30 19L30 18L28 18L28 19L27 19L27 20L24 20L24 19L23 19L23 17L24 17L24 16L25 16L25 18L27 18L27 17L26 17L26 16L25 16L25 15L26 15L26 12L25 12L25 15L24 15L24 14L23 14L23 13L24 13L24 12L22 12L22 16L23 16L23 17L21 17L21 14L20 14L20 13L19 13L19 14L18 14L18 12L19 12L19 11ZM20 11L20 12L21 12L21 11ZM45 11L45 12L46 12L46 11ZM23 15L23 16L24 16L24 15ZM36 15L36 16L35 16L35 17L37 17L37 16L38 16L38 15ZM46 15L46 16L47 16L47 15ZM49 15L49 17L50 17L50 18L51 18L51 17L52 17L52 16L51 16L51 17L50 17L50 15ZM29 16L29 17L30 17L30 16ZM6 17L6 18L5 18L5 19L6 19L6 20L7 20L7 19L6 19L6 18L7 18L7 17ZM47 17L47 19L45 19L45 18L44 18L44 19L43 19L43 22L44 22L44 23L45 23L45 24L44 24L44 25L45 25L45 24L46 24L46 23L47 23L47 22L46 22L46 23L45 23L45 22L44 22L44 20L46 20L46 21L48 21L48 20L49 20L49 21L50 21L50 20L49 20L49 18L48 18L48 17ZM53 17L53 18L54 18L54 17ZM21 18L21 19L22 19L22 20L23 20L23 21L24 21L24 22L25 22L25 23L21 23L21 22L20 22L20 23L18 23L18 24L20 24L20 25L19 25L19 26L20 26L20 29L18 29L18 28L19 28L19 27L16 27L16 26L15 26L15 25L14 25L14 24L15 24L15 21L14 21L14 24L13 24L13 25L14 25L14 26L15 26L15 27L16 27L16 28L15 28L15 29L14 29L14 31L15 31L15 32L16 32L16 34L17 34L17 33L18 33L18 30L19 30L19 34L18 34L18 35L19 35L19 36L21 36L21 35L22 35L22 34L21 34L21 33L22 33L22 32L21 32L21 30L20 30L20 29L21 29L21 26L22 26L22 27L23 27L23 29L22 29L22 31L23 31L23 29L24 29L24 30L26 30L26 29L25 29L25 28L26 28L26 26L28 26L28 25L26 25L26 26L25 26L25 23L26 23L26 22L27 22L27 24L28 24L28 22L27 22L27 21L28 21L28 20L29 20L29 23L30 23L30 24L31 24L31 25L29 25L29 26L31 26L31 27L35 27L35 26L36 26L36 27L37 27L37 28L38 28L38 27L37 27L37 26L39 26L39 27L40 27L40 26L41 26L41 25L40 25L40 23L39 23L39 25L36 25L36 24L35 24L35 23L36 23L36 22L35 22L35 21L33 21L33 20L32 20L32 21L30 21L30 20L29 20L29 19L28 19L28 20L27 20L27 21L26 21L26 22L25 22L25 21L24 21L24 20L23 20L23 19L22 19L22 18ZM12 19L12 20L14 20L14 19ZM35 19L35 20L36 20L36 19ZM0 22L0 23L2 23L2 22ZM32 22L32 25L31 25L31 26L32 26L32 25L33 25L33 26L35 26L35 24L34 24L34 23L35 23L35 22ZM54 23L54 24L55 24L55 25L56 25L56 24L55 24L55 23ZM0 24L0 25L1 25L1 24ZM6 24L6 25L9 25L9 24ZM22 24L22 25L23 25L23 26L24 26L24 28L25 28L25 26L24 26L24 24ZM33 24L33 25L34 25L34 24ZM39 25L39 26L40 26L40 25ZM3 26L3 27L2 27L2 28L3 28L3 27L4 27L4 26ZM5 27L5 30L8 30L8 27ZM27 27L27 30L30 30L30 27ZM49 27L49 30L52 30L52 27ZM6 28L6 29L7 29L7 28ZM16 28L16 29L17 29L17 30L15 30L15 31L16 31L16 32L17 32L17 30L18 30L18 29L17 29L17 28ZM28 28L28 29L29 29L29 28ZM31 28L31 29L32 29L32 28ZM33 28L33 31L34 31L34 30L35 30L35 28ZM50 28L50 29L51 29L51 28ZM2 29L2 30L4 30L4 29ZM37 29L37 30L38 30L38 29ZM27 31L27 33L28 33L28 34L29 34L29 33L33 33L33 35L31 35L31 34L30 34L30 35L28 35L28 36L27 36L27 37L26 37L26 36L25 36L25 38L24 38L24 39L25 39L25 38L26 38L26 39L27 39L27 40L28 40L28 39L29 39L29 40L31 40L31 39L30 39L30 38L31 38L31 37L30 37L30 36L33 36L33 35L34 35L34 34L35 34L35 33L34 33L34 32L32 32L32 31L31 31L31 32L30 32L30 31L29 31L29 32L28 32L28 31ZM45 31L45 32L44 32L44 33L45 33L45 32L46 32L46 31ZM6 32L6 33L7 33L7 34L6 34L6 35L7 35L7 34L8 34L8 33L9 33L9 32L8 32L8 33L7 33L7 32ZM20 32L20 33L21 33L21 32ZM51 32L51 33L52 33L52 32ZM0 33L0 34L2 34L2 33ZM37 33L37 35L39 35L39 36L40 36L40 35L41 35L41 34L42 34L42 36L47 36L47 38L48 38L48 36L47 36L47 35L48 35L48 34L47 34L47 33L46 33L46 34L45 34L45 35L43 35L43 33L41 33L41 34L39 34L39 33ZM46 34L46 35L47 35L47 34ZM0 35L0 36L1 36L1 35ZM16 35L16 36L17 36L17 35ZM50 35L50 36L52 36L52 37L53 37L53 36L52 36L52 35ZM12 36L12 37L13 37L13 38L14 38L14 37L13 37L13 36ZM28 36L28 37L29 37L29 38L30 38L30 37L29 37L29 36ZM2 37L2 38L1 38L1 39L3 39L3 37ZM36 37L36 38L37 38L37 37ZM18 38L18 39L17 39L17 41L16 41L16 42L17 42L17 41L18 41L18 40L19 40L19 38ZM45 40L45 41L44 41L44 42L45 42L45 41L46 41L46 40ZM22 41L22 45L24 45L24 44L23 44L23 41ZM36 41L36 42L37 42L37 41ZM9 42L9 43L10 43L10 45L9 45L9 44L7 44L7 43L6 43L6 44L7 44L7 45L6 45L6 46L7 46L7 45L8 45L8 46L10 46L10 45L11 45L11 43L10 43L10 42ZM24 42L24 43L25 43L25 42ZM38 42L38 43L39 43L39 42ZM4 43L4 46L3 46L3 47L5 47L5 43ZM49 43L49 47L50 47L50 48L52 48L52 47L50 47L50 45L51 45L51 46L54 46L54 45L51 45L51 44L50 44L50 43ZM20 44L20 45L19 45L19 46L18 46L18 45L17 45L17 46L16 46L16 47L17 47L17 49L18 49L18 51L19 51L19 50L20 50L20 49L19 49L19 48L18 48L18 47L21 47L21 46L20 46L20 45L21 45L21 44ZM25 44L25 46L27 46L27 45L26 45L26 44ZM30 44L30 45L29 45L29 46L30 46L30 45L32 45L32 44ZM45 45L45 46L46 46L46 45ZM14 46L14 47L15 47L15 46ZM55 46L55 47L54 47L54 48L53 48L53 49L54 49L54 48L56 48L56 46ZM9 47L9 48L8 48L8 49L9 49L9 50L10 50L10 51L11 51L11 52L13 52L13 51L11 51L11 48L10 48L10 47ZM45 47L45 48L46 48L46 47ZM9 48L9 49L10 49L10 48ZM27 49L27 52L30 52L30 49ZM37 49L37 50L38 50L38 49ZM49 49L49 52L52 52L52 49ZM22 50L22 51L23 51L23 50ZM28 50L28 51L29 51L29 50ZM50 50L50 51L51 51L51 50ZM23 52L23 53L25 53L25 52ZM55 52L55 53L54 53L54 55L55 55L55 54L56 54L56 55L57 55L57 52ZM29 53L29 54L31 54L31 53ZM36 55L36 56L33 56L33 57L37 57L37 55ZM40 55L40 56L41 56L41 55ZM55 56L55 57L56 57L56 56ZM0 0L0 7L7 7L7 0ZM1 1L1 6L6 6L6 1ZM2 2L2 5L5 5L5 2ZM50 0L50 7L57 7L57 0ZM51 1L51 6L56 6L56 1ZM52 2L52 5L55 5L55 2ZM0 50L0 57L7 57L7 50ZM1 51L1 56L6 56L6 51ZM2 52L2 55L5 55L5 52Z" fill="#000000"/></g></g></svg>
