<?xml version="1.0" encoding="UTF-8"?>
<svg xmlns="http://www.w3.org/2000/svg" version="1.1" width="100" height="100" viewBox="0 0 100 100"><rect x="0" y="0" width="100" height="100" fill="#ffffff"/><g transform="scale(1.754)"><g transform="translate(0,0)"><path fill-rule="evenodd" d="M10 0L10 1L8 1L8 3L9 3L9 4L8 4L8 8L6 8L6 9L5 9L5 10L3 10L3 11L4 11L4 12L6 12L6 13L3 13L3 12L2 12L2 11L1 11L1 12L2 12L2 13L3 13L3 15L4 15L4 16L5 16L5 17L4 17L4 18L3 18L3 19L2 19L2 18L1 18L1 19L0 19L0 22L1 22L1 23L0 23L0 24L2 24L2 25L1 25L1 26L0 26L0 27L2 27L2 28L1 28L1 29L0 29L0 30L1 30L1 29L2 29L2 31L0 31L0 32L2 32L2 31L3 31L3 33L4 33L4 32L6 32L6 33L5 33L5 36L6 36L6 37L8 37L8 40L6 40L6 41L5 41L5 39L7 39L7 38L5 38L5 39L4 39L4 38L3 38L3 37L4 37L4 36L2 36L2 38L1 38L1 37L0 37L0 38L1 38L1 39L0 39L0 42L1 42L1 41L2 41L2 42L3 42L3 43L4 43L4 44L2 44L2 45L3 45L3 46L2 46L2 47L1 47L1 46L0 46L0 48L5 48L5 47L7 47L7 46L11 46L11 49L12 49L12 44L10 44L10 42L11 42L11 40L12 40L12 42L13 42L13 44L19 44L19 43L18 43L18 42L20 42L20 43L21 43L21 41L19 41L19 40L20 40L20 38L19 38L19 37L21 37L21 36L22 36L22 37L23 37L23 34L24 34L24 32L23 32L23 31L25 31L25 34L26 34L26 33L27 33L27 34L28 34L28 35L25 35L25 36L24 36L24 38L22 38L22 39L21 39L21 40L23 40L23 39L24 39L24 40L25 40L25 39L26 39L26 40L27 40L27 41L26 41L26 42L28 42L28 41L31 41L31 42L29 42L29 43L27 43L27 44L29 44L29 43L32 43L32 44L30 44L30 45L29 45L29 46L27 46L27 45L26 45L26 44L25 44L25 46L23 46L23 47L21 47L21 46L20 46L20 45L21 45L21 44L20 44L20 45L19 45L19 46L18 46L18 45L17 45L17 46L16 46L16 47L17 47L17 49L15 49L15 50L13 50L13 51L12 51L12 50L11 50L11 52L12 52L12 53L11 53L11 54L12 54L12 57L16 57L16 56L17 56L17 57L19 57L19 56L20 56L20 57L21 57L21 55L23 55L23 56L22 56L22 57L23 57L23 56L24 56L24 55L25 55L25 54L26 54L26 56L28 56L28 55L29 55L29 56L30 56L30 57L31 57L31 56L30 56L30 55L31 55L31 54L29 54L29 53L31 53L31 52L32 52L32 53L34 53L34 52L32 52L32 51L34 51L34 50L35 50L35 54L33 54L33 55L35 55L35 54L36 54L36 53L38 53L38 54L39 54L39 53L40 53L40 52L43 52L43 55L41 55L41 54L42 54L42 53L41 53L41 54L40 54L40 55L38 55L38 57L39 57L39 56L40 56L40 57L43 57L43 56L47 56L47 55L48 55L48 56L50 56L50 57L54 57L54 56L53 56L53 54L51 54L51 56L50 56L50 53L53 53L53 52L54 52L54 50L55 50L55 51L56 51L56 48L57 48L57 45L56 45L56 44L55 44L55 45L54 45L54 44L53 44L53 43L57 43L57 42L56 42L56 41L57 41L57 40L56 40L56 39L57 39L57 34L56 34L56 31L57 31L57 30L56 30L56 29L57 29L57 28L55 28L55 30L53 30L53 27L54 27L54 25L55 25L55 27L56 27L56 26L57 26L57 21L56 21L56 23L55 23L55 22L53 22L53 23L52 23L52 21L54 21L54 19L55 19L55 20L57 20L57 17L55 17L55 16L57 16L57 15L56 15L56 14L57 14L57 9L56 9L56 8L54 8L54 9L53 9L53 8L50 8L50 9L51 9L51 10L48 10L48 11L47 11L47 10L46 10L46 9L43 9L43 8L45 8L45 6L46 6L46 7L47 7L47 9L48 9L48 7L49 7L49 6L48 6L48 7L47 7L47 5L48 5L48 0L46 0L46 1L47 1L47 2L46 2L46 3L45 3L45 2L44 2L44 1L45 1L45 0L44 0L44 1L43 1L43 0L41 0L41 1L39 1L39 0L34 0L34 1L38 1L38 2L41 2L41 5L40 5L40 4L39 4L39 3L37 3L37 4L38 4L38 5L36 5L36 8L35 8L35 5L34 5L34 4L32 4L32 3L35 3L35 4L36 4L36 2L31 2L31 0L29 0L29 1L27 1L27 0L26 0L26 1L25 1L25 0L24 0L24 1L22 1L22 0L19 0L19 1L18 1L18 0L14 0L14 1L13 1L13 0ZM12 1L12 2L11 2L11 8L10 8L10 9L9 9L9 8L8 8L8 9L6 9L6 10L8 10L8 9L9 9L9 10L10 10L10 12L13 12L13 13L12 13L12 14L11 14L11 13L10 13L10 14L11 14L11 15L9 15L9 13L8 13L8 12L7 12L7 11L6 11L6 12L7 12L7 13L6 13L6 14L4 14L4 15L5 15L5 16L7 16L7 17L6 17L6 18L7 18L7 17L8 17L8 19L6 19L6 20L4 20L4 21L6 21L6 22L7 22L7 21L8 21L8 22L9 22L9 23L6 23L6 24L8 24L8 26L10 26L10 27L9 27L9 29L10 29L10 28L11 28L11 26L12 26L12 25L13 25L13 27L12 27L12 30L10 30L10 32L8 32L8 33L6 33L6 34L7 34L7 35L6 35L6 36L7 36L7 35L9 35L9 36L8 36L8 37L9 37L9 38L10 38L10 36L12 36L12 37L11 37L11 39L12 39L12 40L14 40L14 41L13 41L13 42L14 42L14 43L16 43L16 42L17 42L17 41L18 41L18 39L17 39L17 37L16 37L16 36L17 36L17 35L16 35L16 34L17 34L17 33L18 33L18 30L19 30L19 34L18 34L18 35L19 35L19 36L21 36L21 35L22 35L22 34L21 34L21 33L22 33L22 32L21 32L21 30L20 30L20 29L21 29L21 26L22 26L22 27L23 27L23 29L22 29L22 31L23 31L23 29L24 29L24 30L26 30L26 29L25 29L25 28L26 28L26 26L28 26L28 25L26 25L26 26L25 26L25 23L26 23L26 22L27 22L27 24L28 24L28 22L27 22L27 21L28 21L28 20L29 20L29 23L30 23L30 24L31 24L31 25L29 25L29 26L31 26L31 27L34 27L34 28L33 28L33 29L34 29L34 31L35 31L35 33L34 33L34 32L32 32L32 31L31 31L31 32L30 32L30 31L29 31L29 32L28 32L28 31L27 31L27 33L28 33L28 34L29 34L29 33L33 33L33 35L34 35L34 36L33 36L33 37L31 37L31 38L33 38L33 39L32 39L32 40L31 40L31 39L30 39L30 37L28 37L28 36L31 36L31 34L30 34L30 35L28 35L28 36L27 36L27 37L26 37L26 36L25 36L25 38L24 38L24 39L25 39L25 38L26 38L26 39L27 39L27 40L28 40L28 39L30 39L30 40L31 40L31 41L32 41L32 43L33 43L33 42L34 42L34 43L35 43L35 44L34 44L34 45L33 45L33 44L32 44L32 45L30 45L30 46L29 46L29 48L30 48L30 46L31 46L31 47L32 47L32 48L31 48L31 49L32 49L32 50L31 50L31 51L32 51L32 50L33 50L33 49L32 49L32 48L35 48L35 46L38 46L38 47L37 47L37 49L35 49L35 50L36 50L36 51L37 51L37 52L39 52L39 51L38 51L38 50L39 50L39 49L40 49L40 48L39 48L39 49L38 49L38 47L39 47L39 46L40 46L40 47L42 47L42 48L43 48L43 49L41 49L41 51L43 51L43 50L45 50L45 51L46 51L46 52L45 52L45 54L44 54L44 55L45 55L45 54L46 54L46 55L47 55L47 54L48 54L48 53L47 53L47 51L48 51L48 48L47 48L47 47L46 47L46 46L48 46L48 45L46 45L46 43L47 43L47 44L48 44L48 43L47 43L47 41L49 41L49 42L51 42L51 43L53 43L53 42L54 42L54 41L55 41L55 38L54 38L54 37L55 37L55 35L56 35L56 34L55 34L55 33L54 33L54 34L53 34L53 32L55 32L55 31L53 31L53 32L52 32L52 31L51 31L51 32L48 32L48 31L47 31L47 30L48 30L48 29L46 29L46 28L45 28L45 29L44 29L44 28L42 28L42 27L45 27L45 25L47 25L47 26L46 26L46 27L48 27L48 26L49 26L49 24L47 24L47 23L48 23L48 22L50 22L50 24L51 24L51 25L50 25L50 26L52 26L52 24L51 24L51 20L50 20L50 19L51 19L51 18L53 18L53 19L52 19L52 20L53 20L53 19L54 19L54 18L55 18L55 17L54 17L54 16L55 16L55 15L53 15L53 16L52 16L52 15L50 15L50 14L51 14L51 13L50 13L50 14L49 14L49 12L47 12L47 11L46 11L46 10L45 10L45 11L44 11L44 12L45 12L45 13L48 13L48 14L49 14L49 15L47 15L47 14L46 14L46 15L45 15L45 14L44 14L44 15L43 15L43 13L41 13L41 14L40 14L40 15L41 15L41 14L42 14L42 16L43 16L43 17L42 17L42 20L41 20L41 18L38 18L38 16L39 16L39 17L41 17L41 16L39 16L39 15L38 15L38 14L39 14L39 13L40 13L40 12L39 12L39 11L40 11L40 10L41 10L41 12L43 12L43 9L42 9L42 10L41 10L41 9L40 9L40 8L43 8L43 7L44 7L44 6L43 6L43 7L42 7L42 5L41 5L41 7L40 7L40 6L39 6L39 5L38 5L38 6L37 6L37 9L38 9L38 10L35 10L35 9L34 9L34 8L33 8L33 7L34 7L34 5L33 5L33 7L32 7L32 5L31 5L31 8L33 8L33 9L34 9L34 10L35 10L35 11L34 11L34 12L33 12L33 10L31 10L31 9L29 9L29 10L28 10L28 11L29 11L29 12L31 12L31 11L32 11L32 12L33 12L33 13L32 13L32 15L33 15L33 13L35 13L35 12L36 12L36 11L37 11L37 12L38 12L38 14L37 14L37 13L36 13L36 15L35 15L35 14L34 14L34 16L33 16L33 17L34 17L34 19L33 19L33 18L32 18L32 19L33 19L33 20L31 20L31 21L30 21L30 20L29 20L29 19L30 19L30 18L31 18L31 17L30 17L30 16L29 16L29 15L30 15L30 14L31 14L31 13L30 13L30 14L28 14L28 15L27 15L27 13L28 13L28 12L26 12L26 11L27 11L27 9L26 9L26 4L25 4L25 2L24 2L24 5L23 5L23 9L24 9L24 10L21 10L21 9L22 9L22 8L21 8L21 7L22 7L22 6L21 6L21 7L20 7L20 5L19 5L19 4L21 4L21 5L22 5L22 4L23 4L23 3L22 3L22 1L21 1L21 3L19 3L19 2L18 2L18 1L16 1L16 2L15 2L15 1L14 1L14 3L12 3L12 2L13 2L13 1ZM9 2L9 3L10 3L10 2ZM16 2L16 3L15 3L15 6L14 6L14 7L15 7L15 6L16 6L16 7L17 7L17 9L18 9L18 10L16 10L16 9L13 9L13 11L14 11L14 13L13 13L13 14L14 14L14 13L15 13L15 12L16 12L16 11L18 11L18 12L17 12L17 13L16 13L16 14L18 14L18 15L19 15L19 14L20 14L20 18L19 18L19 16L17 16L17 15L16 15L16 17L15 17L15 15L11 15L11 16L10 16L10 17L9 17L9 18L10 18L10 19L9 19L9 22L11 22L11 23L12 23L12 24L14 24L14 25L15 25L15 26L14 26L14 28L16 28L16 29L17 29L17 30L13 30L13 31L16 31L16 32L15 32L15 34L16 34L16 32L17 32L17 30L18 30L18 29L20 29L20 26L19 26L19 25L20 25L20 24L18 24L18 23L20 23L20 22L21 22L21 23L25 23L25 22L26 22L26 21L27 21L27 20L28 20L28 19L29 19L29 18L30 18L30 17L29 17L29 18L28 18L28 19L27 19L27 20L24 20L24 19L23 19L23 17L24 17L24 16L25 16L25 18L27 18L27 17L26 17L26 16L25 16L25 15L26 15L26 12L25 12L25 15L24 15L24 14L23 14L23 13L24 13L24 12L22 12L22 16L23 16L23 17L21 17L21 14L20 14L20 13L19 13L19 14L18 14L18 12L19 12L19 11L18 11L18 10L20 10L20 9L21 9L21 8L19 8L19 5L18 5L18 7L17 7L17 4L16 4L16 3L17 3L17 2ZM27 2L27 4L29 4L29 2ZM43 2L43 4L44 4L44 5L45 5L45 3L44 3L44 2ZM21 3L21 4L22 4L22 3ZM46 3L46 5L47 5L47 3ZM13 4L13 5L14 5L14 4ZM9 5L9 7L10 7L10 5ZM24 5L24 8L25 8L25 5ZM27 5L27 8L30 8L30 5ZM12 6L12 8L11 8L11 9L12 9L12 8L13 8L13 6ZM28 6L28 7L29 7L29 6ZM38 6L38 7L39 7L39 8L40 8L40 7L39 7L39 6ZM0 8L0 10L2 10L2 8ZM3 8L3 9L4 9L4 8ZM25 9L25 10L24 10L24 11L26 11L26 9ZM52 9L52 10L51 10L51 11L50 11L50 12L51 12L51 11L53 11L53 13L55 13L55 11L56 11L56 10L54 10L54 11L53 11L53 9ZM15 10L15 11L16 11L16 10ZM29 10L29 11L30 11L30 10ZM20 11L20 12L21 12L21 11ZM45 11L45 12L46 12L46 11ZM0 13L0 16L1 16L1 17L2 17L2 16L1 16L1 13ZM6 14L6 15L7 15L7 16L8 16L8 15L7 15L7 14ZM23 15L23 16L24 16L24 15ZM36 15L36 16L35 16L35 17L37 17L37 16L38 16L38 15ZM44 15L44 17L45 17L45 15ZM46 15L46 16L47 16L47 15ZM49 15L49 17L50 17L50 18L51 18L51 17L52 17L52 16L51 16L51 17L50 17L50 15ZM13 16L13 17L12 17L12 18L11 18L11 19L13 19L13 20L14 20L14 19L16 19L16 20L17 20L17 21L16 21L16 24L15 24L15 25L17 25L17 26L18 26L18 24L17 24L17 22L20 22L20 21L21 21L21 22L22 22L22 20L23 20L23 21L24 21L24 22L25 22L25 21L24 21L24 20L23 20L23 19L22 19L22 18L21 18L21 19L22 19L22 20L19 20L19 18L18 18L18 19L17 19L17 17L16 17L16 18L15 18L15 17L14 17L14 16ZM13 17L13 19L14 19L14 17ZM47 17L47 19L45 19L45 18L44 18L44 19L43 19L43 20L42 20L42 21L43 21L43 22L44 22L44 23L45 23L45 24L44 24L44 25L45 25L45 24L46 24L46 23L47 23L47 22L46 22L46 23L45 23L45 22L44 22L44 20L46 20L46 21L48 21L48 20L49 20L49 21L50 21L50 20L49 20L49 18L48 18L48 17ZM53 17L53 18L54 18L54 17ZM35 18L35 19L34 19L34 20L33 20L33 21L35 21L35 22L32 22L32 21L31 21L31 22L32 22L32 25L31 25L31 26L32 26L32 25L33 25L33 26L36 26L36 27L35 27L35 28L34 28L34 29L35 29L35 31L36 31L36 30L37 30L37 31L39 31L39 30L40 30L40 31L42 31L42 29L38 29L38 28L41 28L41 26L42 26L42 25L43 25L43 23L40 23L40 21L41 21L41 20L40 20L40 19L39 19L39 23L38 23L38 22L37 22L37 20L38 20L38 19L36 19L36 18ZM1 19L1 20L2 20L2 24L3 24L3 25L2 25L2 26L3 26L3 28L2 28L2 29L3 29L3 31L4 31L4 26L5 26L5 25L4 25L4 23L3 23L3 20L2 20L2 19ZM35 19L35 20L36 20L36 19ZM6 20L6 21L7 21L7 20ZM10 20L10 21L11 21L11 22L12 22L12 23L14 23L14 22L15 22L15 21L14 21L14 22L13 22L13 21L11 21L11 20ZM18 20L18 21L19 21L19 20ZM35 22L35 23L34 23L34 24L33 24L33 25L34 25L34 24L35 24L35 25L36 25L36 26L39 26L39 27L40 27L40 26L41 26L41 25L40 25L40 23L39 23L39 25L36 25L36 24L35 24L35 23L36 23L36 22ZM54 23L54 24L55 24L55 25L56 25L56 24L55 24L55 23ZM10 24L10 25L11 25L11 24ZM22 24L22 25L23 25L23 26L24 26L24 28L25 28L25 26L24 26L24 24ZM3 25L3 26L4 26L4 25ZM6 25L6 26L7 26L7 25ZM39 25L39 26L40 26L40 25ZM15 26L15 27L16 27L16 28L17 28L17 29L18 29L18 28L19 28L19 27L16 27L16 26ZM5 27L5 30L8 30L8 27ZM27 27L27 30L30 30L30 27ZM37 27L37 28L38 28L38 27ZM49 27L49 30L52 30L52 27ZM6 28L6 29L7 29L7 28ZM28 28L28 29L29 29L29 28ZM31 28L31 29L32 29L32 28ZM50 28L50 29L51 29L51 28ZM37 29L37 30L38 30L38 29ZM45 29L45 31L44 31L44 30L43 30L43 32L40 32L40 33L39 33L39 32L36 32L36 33L35 33L35 34L34 34L34 35L36 35L36 37L34 37L34 38L36 38L36 41L35 41L35 40L34 40L34 39L33 39L33 40L34 40L34 41L35 41L35 43L37 43L37 44L36 44L36 45L39 45L39 44L40 44L40 45L41 45L41 44L42 44L42 42L41 42L41 44L40 44L40 42L39 42L39 41L37 41L37 39L39 39L39 38L38 38L38 37L41 37L41 36L42 36L42 37L44 37L44 38L47 38L47 39L44 39L44 40L42 40L42 38L40 38L40 40L42 40L42 41L43 41L43 42L44 42L44 44L43 44L43 48L44 48L44 49L45 49L45 50L47 50L47 49L45 49L45 48L46 48L46 47L45 47L45 48L44 48L44 46L46 46L46 45L44 45L44 44L45 44L45 42L46 42L46 41L47 41L47 39L48 39L48 40L49 40L49 41L53 41L53 40L49 40L49 39L50 39L50 37L52 37L52 38L51 38L51 39L53 39L53 37L54 37L54 36L53 36L53 34L50 34L50 35L49 35L49 33L48 33L48 32L47 32L47 31L46 31L46 29ZM6 31L6 32L7 32L7 31ZM45 31L45 32L44 32L44 33L45 33L45 32L46 32L46 31ZM10 32L10 33L8 33L8 34L10 34L10 35L12 35L12 36L13 36L13 34L14 34L14 32L13 32L13 33L12 33L12 32ZM20 32L20 33L21 33L21 32ZM51 32L51 33L52 33L52 32ZM0 33L0 36L1 36L1 35L4 35L4 34L1 34L1 33ZM10 33L10 34L12 34L12 33ZM37 33L37 35L39 35L39 36L40 36L40 35L41 35L41 34L42 34L42 36L45 36L45 35L46 35L46 36L47 36L47 38L48 38L48 36L47 36L47 35L48 35L48 34L47 34L47 33L46 33L46 34L45 34L45 35L43 35L43 33L41 33L41 34L39 34L39 33ZM46 34L46 35L47 35L47 34ZM14 35L14 37L13 37L13 38L12 38L12 39L13 39L13 38L14 38L14 39L15 39L15 36L16 36L16 35ZM50 35L50 36L52 36L52 37L53 37L53 36L52 36L52 35ZM36 37L36 38L37 38L37 37ZM2 39L2 41L4 41L4 40L3 40L3 39ZM9 39L9 40L8 40L8 41L9 41L9 42L10 42L10 41L9 41L9 40L10 40L10 39ZM16 39L16 40L15 40L15 42L16 42L16 41L17 41L17 39ZM45 40L45 41L44 41L44 42L45 42L45 41L46 41L46 40ZM6 41L6 42L5 42L5 43L6 43L6 44L7 44L7 45L6 45L6 46L7 46L7 45L10 45L10 44L7 44L7 43L6 43L6 42L7 42L7 41ZM22 41L22 45L24 45L24 44L23 44L23 41ZM36 41L36 42L37 42L37 41ZM24 42L24 43L25 43L25 42ZM38 42L38 43L39 43L39 42ZM0 43L0 44L1 44L1 43ZM49 43L49 47L50 47L50 48L52 48L52 47L50 47L50 45L51 45L51 46L54 46L54 45L51 45L51 44L50 44L50 43ZM4 44L4 46L3 46L3 47L5 47L5 44ZM13 45L13 48L14 48L14 47L15 47L15 45ZM32 45L32 46L33 46L33 45ZM25 46L25 47L27 47L27 48L28 48L28 47L27 47L27 46ZM55 46L55 47L54 47L54 48L53 48L53 49L54 49L54 48L56 48L56 46ZM8 47L8 48L9 48L9 47ZM18 47L18 48L19 48L19 49L20 49L20 50L19 50L19 51L18 51L18 49L17 49L17 50L15 50L15 51L16 51L16 54L17 54L17 55L21 55L21 53L23 53L23 54L25 54L25 53L26 53L26 54L27 54L27 55L28 55L28 54L27 54L27 53L26 53L26 52L25 52L25 51L24 51L24 50L26 50L26 49L25 49L25 48L24 48L24 49L22 49L22 50L21 50L21 47ZM6 48L6 49L7 49L7 48ZM8 49L8 51L9 51L9 50L10 50L10 49ZM27 49L27 52L30 52L30 49ZM37 49L37 50L38 50L38 49ZM49 49L49 52L52 52L52 49ZM20 50L20 52L17 52L17 54L19 54L19 53L21 53L21 52L23 52L23 53L25 53L25 52L23 52L23 50L22 50L22 51L21 51L21 50ZM28 50L28 51L29 51L29 50ZM50 50L50 51L51 51L51 50ZM13 51L13 54L15 54L15 53L14 53L14 51ZM55 52L55 53L54 53L54 55L55 55L55 54L56 54L56 55L57 55L57 52ZM8 53L8 54L10 54L10 53ZM8 55L8 57L11 57L11 55L10 55L10 56L9 56L9 55ZM13 55L13 56L14 56L14 55ZM36 55L36 56L33 56L33 57L37 57L37 55ZM40 55L40 56L41 56L41 55ZM55 56L55 57L56 57L56 56ZM0 0L0 7L7 7L7 0ZM1 1L1 6L6 6L6 1ZM2 2L2 5L5 5L5 2ZM50 0L50 7L57 7L57 0ZM51 1L51 6L56 6L56 1ZM52 2L52 5L55 5L55 2ZM0 50L0 57L7 57L7 50ZM1 51L1 56L6 56L6 51ZM2 52L2 55L5 55L5 52Z" fill="#000000"/></g></g></svg>
