<?xml version="1.0" encoding="UTF-8"?>
<svg xmlns="http://www.w3.org/2000/svg" version="1.1" width="100" height="100" viewBox="0 0 100 100"><rect x="0" y="0" width="100" height="100" fill="#ffffff"/><g transform="scale(1.754)"><g transform="translate(0,0)"><path fill-rule="evenodd" d="M9 0L9 1L8 1L8 3L9 3L9 4L8 4L8 8L6 8L6 9L8 9L8 8L9 8L9 6L10 6L10 10L9 10L9 11L10 11L10 13L7 13L7 12L5 12L5 11L8 11L8 10L5 10L5 9L4 9L4 8L3 8L3 9L2 9L2 8L0 8L0 10L2 10L2 11L1 11L1 12L3 12L3 13L4 13L4 14L2 14L2 13L1 13L1 14L0 14L0 16L1 16L1 14L2 14L2 15L5 15L5 14L6 14L6 15L7 15L7 16L2 16L2 17L0 17L0 19L1 19L1 18L2 18L2 20L0 20L0 24L1 24L1 26L2 26L2 25L3 25L3 26L4 26L4 27L0 27L0 28L2 28L2 29L4 29L4 32L3 32L3 31L2 31L2 30L1 30L1 29L0 29L0 30L1 30L1 31L2 31L2 32L1 32L1 33L2 33L2 34L3 34L3 33L4 33L4 32L5 32L5 33L7 33L7 34L6 34L6 35L7 35L7 36L5 36L5 35L2 35L2 36L5 36L5 38L4 38L4 37L1 37L1 38L0 38L0 39L1 39L1 40L2 40L2 42L0 42L0 43L3 43L3 42L5 42L5 39L7 39L7 38L6 38L6 37L7 37L7 36L8 36L8 39L11 39L11 40L8 40L8 42L6 42L6 43L4 43L4 46L5 46L5 47L3 47L3 46L2 46L2 47L1 47L1 45L0 45L0 48L5 48L5 47L7 47L7 48L6 48L6 49L7 49L7 48L9 48L9 49L8 49L8 51L9 51L9 53L8 53L8 54L9 54L9 53L10 53L10 57L11 57L11 52L10 52L10 51L12 51L12 53L13 53L13 50L14 50L14 49L13 49L13 48L15 48L15 46L14 46L14 45L15 45L15 44L19 44L19 43L18 43L18 42L20 42L20 43L21 43L21 41L19 41L19 40L20 40L20 38L19 38L19 37L21 37L21 38L22 38L22 39L21 39L21 40L23 40L23 41L22 41L22 45L23 45L23 46L24 46L24 47L21 47L21 50L20 50L20 49L19 49L19 48L18 48L18 47L20 47L20 46L18 46L18 45L17 45L17 46L16 46L16 48L17 48L17 49L15 49L15 50L17 50L17 49L18 49L18 51L19 51L19 50L20 50L20 52L17 52L17 53L18 53L18 54L16 54L16 51L15 51L15 53L14 53L14 54L12 54L12 55L13 55L13 56L12 56L12 57L14 57L14 55L15 55L15 56L17 56L17 57L21 57L21 56L22 56L22 57L24 57L24 55L25 55L25 56L26 56L26 55L27 55L27 54L28 54L28 56L27 56L27 57L28 57L28 56L30 56L30 57L31 57L31 56L32 56L32 55L33 55L33 57L37 57L37 55L38 55L38 54L39 54L39 53L40 53L40 52L42 52L42 49L41 49L41 47L40 47L40 45L41 45L41 44L42 44L42 43L41 43L41 41L38 41L38 40L39 40L39 38L38 38L38 37L41 37L41 38L40 38L40 40L42 40L42 41L44 41L44 42L43 42L43 43L44 43L44 44L43 44L43 47L42 47L42 48L43 48L43 49L46 49L46 50L45 50L45 51L44 51L44 50L43 50L43 55L44 55L44 56L45 56L45 55L46 55L46 57L49 57L49 56L50 56L50 57L53 57L53 55L55 55L55 54L56 54L56 55L57 55L57 53L56 53L56 52L55 52L55 54L54 54L54 52L53 52L53 50L54 50L54 51L56 51L56 50L57 50L57 49L56 49L56 47L57 47L57 42L56 42L56 41L57 41L57 40L56 40L56 39L57 39L57 33L56 33L56 32L53 32L53 34L51 34L51 33L52 33L52 32L51 32L51 33L50 33L50 35L49 35L49 33L48 33L48 32L50 32L50 31L53 31L53 27L54 27L54 23L55 23L55 25L56 25L56 26L55 26L55 30L54 30L54 31L55 31L55 30L56 30L56 31L57 31L57 30L56 30L56 26L57 26L57 25L56 25L56 24L57 24L57 18L56 18L56 17L57 17L57 15L55 15L55 17L54 17L54 18L55 18L55 19L56 19L56 20L55 20L55 21L56 21L56 23L55 23L55 22L53 22L53 24L51 24L51 23L52 23L52 21L54 21L54 19L53 19L53 17L52 17L52 16L54 16L54 14L57 14L57 9L56 9L56 8L54 8L54 9L53 9L53 8L50 8L50 9L53 9L53 11L52 11L52 10L50 10L50 11L49 11L49 12L50 12L50 13L49 13L49 14L48 14L48 13L45 13L45 12L46 12L46 11L47 11L47 10L48 10L48 8L47 8L47 5L48 5L48 0L46 0L46 1L47 1L47 2L46 2L46 3L47 3L47 5L46 5L46 4L45 4L45 5L44 5L44 4L43 4L43 3L41 3L41 4L42 4L42 9L41 9L41 8L40 8L40 9L39 9L39 10L40 10L40 11L39 11L39 14L38 14L38 12L36 12L36 10L35 10L35 9L37 9L37 10L38 10L38 9L37 9L37 8L36 8L36 7L37 7L37 5L36 5L36 7L35 7L35 5L34 5L34 4L36 4L36 2L35 2L35 3L34 3L34 2L33 2L33 1L32 1L32 0L28 0L28 2L29 2L29 4L27 4L27 0L26 0L26 2L25 2L25 0L24 0L24 1L22 1L22 0L19 0L19 1L18 1L18 0L12 0L12 1L11 1L11 2L10 2L10 0ZM34 0L34 1L38 1L38 2L37 2L37 3L38 3L38 2L39 2L39 0ZM40 0L40 2L41 2L41 1L42 1L42 2L44 2L44 3L45 3L45 2L44 2L44 1L45 1L45 0ZM12 1L12 2L13 2L13 1ZM14 1L14 3L13 3L13 4L14 4L14 5L13 5L13 8L14 8L14 9L15 9L15 10L16 10L16 12L15 12L15 13L14 13L14 11L11 11L11 10L10 10L10 11L11 11L11 12L13 12L13 13L11 13L11 14L10 14L10 15L9 15L9 16L10 16L10 20L8 20L8 19L4 19L4 18L5 18L5 17L4 17L4 18L3 18L3 20L5 20L5 21L3 21L3 23L1 23L1 24L3 24L3 25L4 25L4 26L7 26L7 25L4 25L4 22L5 22L5 23L6 23L6 24L7 24L7 23L6 23L6 22L10 22L10 23L11 23L11 22L10 22L10 20L11 20L11 21L12 21L12 22L13 22L13 21L12 21L12 20L14 20L14 19L16 19L16 20L17 20L17 21L16 21L16 24L14 24L14 23L13 23L13 25L15 25L15 26L14 26L14 27L13 27L13 28L14 28L14 27L15 27L15 29L12 29L12 31L10 31L10 30L11 30L11 28L12 28L12 26L11 26L11 24L10 24L10 25L9 25L9 26L10 26L10 29L9 29L9 31L8 31L8 32L7 32L7 31L5 31L5 32L7 32L7 33L8 33L8 34L10 34L10 33L11 33L11 32L13 32L13 30L14 30L14 31L15 31L15 32L14 32L14 33L15 33L15 32L16 32L16 34L15 34L15 35L16 35L16 36L13 36L13 37L11 37L11 36L12 36L12 35L14 35L14 34L12 34L12 35L11 35L11 36L10 36L10 35L9 35L9 38L11 38L11 39L13 39L13 40L11 40L11 41L10 41L10 42L11 42L11 43L10 43L10 44L9 44L9 43L6 43L6 44L7 44L7 45L5 45L5 46L8 46L8 47L9 47L9 48L10 48L10 49L9 49L9 50L10 50L10 49L12 49L12 48L10 48L10 47L9 47L9 45L11 45L11 47L14 47L14 46L13 46L13 45L14 45L14 44L15 44L15 43L17 43L17 42L18 42L18 40L17 40L17 41L16 41L16 39L17 39L17 37L16 37L16 36L18 36L18 35L16 35L16 34L17 34L17 33L18 33L18 30L20 30L20 31L21 31L21 30L20 30L20 29L21 29L21 26L22 26L22 27L23 27L23 25L22 25L22 24L21 24L21 23L23 23L23 24L24 24L24 26L25 26L25 27L24 27L24 29L22 29L22 31L24 31L24 34L23 34L23 35L22 35L22 36L21 36L21 33L22 33L22 32L21 32L21 33L20 33L20 32L19 32L19 36L21 36L21 37L22 37L22 38L24 38L24 39L23 39L23 40L24 40L24 41L23 41L23 42L25 42L25 44L24 44L24 43L23 43L23 44L24 44L24 46L25 46L25 47L24 47L24 49L22 49L22 50L21 50L21 51L22 51L22 50L23 50L23 52L22 52L22 53L23 53L23 54L21 54L21 53L19 53L19 54L18 54L18 56L19 56L19 55L22 55L22 56L23 56L23 54L25 54L25 55L26 55L26 54L27 54L27 53L26 53L26 52L25 52L25 51L26 51L26 50L25 50L25 48L26 48L26 47L27 47L27 48L29 48L29 47L30 47L30 46L29 46L29 44L27 44L27 43L28 43L28 42L30 42L30 41L28 41L28 42L26 42L26 41L27 41L27 40L28 40L28 39L30 39L30 38L31 38L31 36L35 36L35 37L36 37L36 38L34 38L34 37L33 37L33 38L32 38L32 40L31 40L31 41L32 41L32 43L34 43L34 44L32 44L32 45L31 45L31 47L32 47L32 48L33 48L33 49L34 49L34 47L32 47L32 46L33 46L33 45L34 45L34 46L38 46L38 47L37 47L37 49L36 49L36 48L35 48L35 50L32 50L32 49L31 49L31 53L29 53L29 54L31 54L31 53L32 53L32 52L33 52L33 54L34 54L34 55L35 55L35 56L36 56L36 55L37 55L37 54L38 54L38 52L39 52L39 51L40 51L40 50L41 50L41 49L40 49L40 50L39 50L39 49L38 49L38 48L39 48L39 45L36 45L36 42L37 42L37 41L36 41L36 40L35 40L35 43L34 43L34 39L36 39L36 38L37 38L37 39L38 39L38 38L37 38L37 37L38 37L38 36L40 36L40 35L41 35L41 33L38 33L38 32L39 32L39 31L40 31L40 32L41 32L41 31L40 31L40 30L41 30L41 29L42 29L42 35L43 35L43 36L45 36L45 38L44 38L44 37L42 37L42 36L41 36L41 37L42 37L42 40L44 40L44 39L46 39L46 40L45 40L45 41L46 41L46 43L47 43L47 41L48 41L48 39L51 39L51 40L52 40L52 39L53 39L53 41L49 41L49 42L48 42L48 43L49 43L49 44L48 44L48 45L46 45L46 46L45 46L45 47L44 47L44 48L45 48L45 47L46 47L46 49L47 49L47 50L46 50L46 51L45 51L45 52L46 52L46 51L48 51L48 48L47 48L47 47L46 47L46 46L48 46L48 45L49 45L49 47L50 47L50 45L51 45L51 46L52 46L52 47L51 47L51 48L52 48L52 47L53 47L53 45L52 45L52 44L50 44L50 43L49 43L49 42L51 42L51 43L53 43L53 44L54 44L54 46L55 46L55 47L54 47L54 48L53 48L53 49L54 49L54 50L56 50L56 49L54 49L54 48L55 48L55 47L56 47L56 45L55 45L55 43L53 43L53 42L54 42L54 41L55 41L55 38L56 38L56 34L55 34L55 33L54 33L54 34L53 34L53 35L54 35L54 36L52 36L52 35L50 35L50 37L48 37L48 36L49 36L49 35L48 35L48 34L47 34L47 32L48 32L48 31L47 31L47 30L48 30L48 29L46 29L46 28L45 28L45 29L46 29L46 31L47 31L47 32L44 32L44 33L43 33L43 31L44 31L44 28L42 28L42 27L45 27L45 25L46 25L46 24L47 24L47 25L48 25L48 26L46 26L46 27L48 27L48 26L49 26L49 23L48 23L48 22L50 22L50 23L51 23L51 21L52 21L52 20L53 20L53 19L52 19L52 20L50 20L50 19L51 19L51 18L50 18L50 16L49 16L49 15L50 15L50 14L51 14L51 13L50 13L50 14L49 14L49 15L47 15L47 14L46 14L46 15L45 15L45 17L46 17L46 18L45 18L45 20L44 20L44 22L43 22L43 17L44 17L44 14L45 14L45 13L44 13L44 14L43 14L43 13L41 13L41 14L42 14L42 15L41 15L41 16L40 16L40 15L39 15L39 16L40 16L40 17L39 17L39 18L38 18L38 16L37 16L37 17L35 17L35 16L34 16L34 18L33 18L33 19L28 19L28 18L29 18L29 17L30 17L30 18L31 18L31 17L32 17L32 16L33 16L33 15L34 15L34 13L35 13L35 15L36 15L36 14L37 14L37 15L38 15L38 14L37 14L37 13L35 13L35 10L34 10L34 9L35 9L35 7L34 7L34 6L33 6L33 5L31 5L31 8L33 8L33 10L31 10L31 9L30 9L30 10L29 10L29 9L26 9L26 4L25 4L25 2L24 2L24 5L22 5L22 6L21 6L21 7L20 7L20 5L19 5L19 4L21 4L21 3L19 3L19 2L18 2L18 1L16 1L16 2L15 2L15 1ZM9 2L9 3L10 3L10 4L9 4L9 5L10 5L10 6L11 6L11 7L12 7L12 6L11 6L11 5L10 5L10 4L11 4L11 3L10 3L10 2ZM16 2L16 3L15 3L15 5L14 5L14 7L15 7L15 6L16 6L16 7L17 7L17 9L18 9L18 10L17 10L17 11L18 11L18 12L17 12L17 13L16 13L16 14L15 14L15 15L16 15L16 17L15 17L15 16L14 16L14 18L12 18L12 19L14 19L14 18L16 18L16 17L17 17L17 19L19 19L19 20L18 20L18 23L20 23L20 22L23 22L23 23L25 23L25 26L26 26L26 28L25 28L25 29L26 29L26 30L25 30L25 31L26 31L26 33L25 33L25 34L28 34L28 35L25 35L25 36L24 36L24 38L25 38L25 39L24 39L24 40L25 40L25 39L26 39L26 40L27 40L27 39L26 39L26 38L27 38L27 36L28 36L28 37L29 37L29 38L30 38L30 37L29 37L29 36L28 36L28 35L30 35L30 34L31 34L31 35L32 35L32 34L31 34L31 33L32 33L32 32L35 32L35 34L34 34L34 33L33 33L33 34L34 34L34 35L35 35L35 34L36 34L36 37L37 37L37 36L38 36L38 35L39 35L39 34L38 34L38 35L37 35L37 34L36 34L36 33L37 33L37 32L38 32L38 31L39 31L39 29L40 29L40 28L41 28L41 26L42 26L42 25L43 25L43 26L44 26L44 25L45 25L45 24L46 24L46 23L47 23L47 24L48 24L48 23L47 23L47 22L44 22L44 23L45 23L45 24L44 24L44 25L43 25L43 24L41 24L41 23L40 23L40 21L41 21L41 22L42 22L42 19L41 19L41 17L40 17L40 19L38 19L38 18L36 18L36 20L35 20L35 19L34 19L34 21L35 21L35 22L34 22L34 23L33 23L33 22L31 22L31 23L32 23L32 25L31 25L31 26L30 26L30 25L29 25L29 23L30 23L30 22L29 22L29 20L28 20L28 21L27 21L27 20L24 20L24 19L23 19L23 17L24 17L24 16L25 16L25 17L26 17L26 16L25 16L25 15L26 15L26 14L27 14L27 15L28 15L28 14L30 14L30 15L31 15L31 14L30 14L30 13L31 13L31 12L29 12L29 11L28 11L28 10L27 10L27 11L26 11L26 9L25 9L25 10L24 10L24 8L25 8L25 5L24 5L24 8L23 8L23 6L22 6L22 7L21 7L21 8L18 8L18 7L19 7L19 6L18 6L18 7L17 7L17 4L16 4L16 3L17 3L17 2ZM22 2L22 4L23 4L23 2ZM30 2L30 3L31 3L31 2ZM32 3L32 4L34 4L34 3ZM38 4L38 7L39 7L39 6L40 6L40 7L41 7L41 5L40 5L40 4ZM27 5L27 8L30 8L30 5ZM28 6L28 7L29 7L29 6ZM32 6L32 7L33 7L33 6ZM43 6L43 9L42 9L42 11L41 11L41 12L43 12L43 10L45 10L45 9L46 9L46 10L47 10L47 8L44 8L44 6ZM45 6L45 7L46 7L46 6ZM48 6L48 7L49 7L49 6ZM11 8L11 9L12 9L12 8ZM15 8L15 9L16 9L16 8ZM21 8L21 9L20 9L20 12L21 12L21 13L20 13L20 15L18 15L18 14L19 14L19 12L18 12L18 14L17 14L17 16L19 16L19 18L20 18L20 15L22 15L22 12L24 12L24 15L25 15L25 12L26 12L26 13L28 13L28 12L26 12L26 11L25 11L25 12L24 12L24 10L22 10L22 8ZM3 9L3 11L4 11L4 9ZM55 9L55 10L54 10L54 11L53 11L53 14L54 14L54 13L55 13L55 12L56 12L56 9ZM18 10L18 11L19 11L19 10ZM33 11L33 12L32 12L32 14L33 14L33 12L34 12L34 11ZM44 11L44 12L45 12L45 11ZM6 13L6 14L7 14L7 13ZM13 13L13 14L12 14L12 15L10 15L10 16L12 16L12 15L14 15L14 13ZM46 15L46 16L47 16L47 17L48 17L48 16L47 16L47 15ZM21 16L21 17L23 17L23 16ZM30 16L30 17L31 17L31 16ZM42 16L42 17L43 17L43 16ZM6 17L6 18L9 18L9 17ZM21 18L21 20L19 20L19 22L20 22L20 21L22 21L22 18ZM25 18L25 19L27 19L27 18ZM40 19L40 20L41 20L41 19ZM47 19L47 20L45 20L45 21L48 21L48 19ZM6 20L6 21L8 21L8 20ZM23 20L23 21L24 21L24 22L25 22L25 23L26 23L26 22L27 22L27 23L29 23L29 22L27 22L27 21L26 21L26 22L25 22L25 21L24 21L24 20ZM30 20L30 21L32 21L32 20ZM49 20L49 21L50 21L50 20ZM1 21L1 22L2 22L2 21ZM14 21L14 22L15 22L15 21ZM37 21L37 22L38 22L38 23L37 23L37 24L38 24L38 23L39 23L39 25L37 25L37 26L39 26L39 28L38 28L38 27L37 27L37 28L38 28L38 29L37 29L37 30L38 30L38 29L39 29L39 28L40 28L40 26L41 26L41 25L40 25L40 23L39 23L39 21ZM35 22L35 23L34 23L34 24L35 24L35 23L36 23L36 22ZM18 24L18 25L16 25L16 27L20 27L20 26L19 26L19 25L20 25L20 24ZM50 24L50 26L53 26L53 25L51 25L51 24ZM26 25L26 26L27 26L27 25ZM28 25L28 26L29 26L29 25ZM32 25L32 26L31 26L31 27L33 27L33 31L34 31L34 30L35 30L35 32L36 32L36 29L34 29L34 27L33 27L33 25ZM39 25L39 26L40 26L40 25ZM5 27L5 30L8 30L8 27ZM27 27L27 30L30 30L30 27ZM49 27L49 30L52 30L52 27ZM6 28L6 29L7 29L7 28ZM16 28L16 29L17 29L17 30L15 30L15 31L16 31L16 32L17 32L17 30L18 30L18 29L20 29L20 28L18 28L18 29L17 29L17 28ZM28 28L28 29L29 29L29 28ZM50 28L50 29L51 29L51 28ZM27 31L27 33L28 33L28 34L29 34L29 33L31 33L31 32L32 32L32 31L31 31L31 32L30 32L30 31ZM2 32L2 33L3 33L3 32ZM8 32L8 33L10 33L10 32ZM0 34L0 35L1 35L1 34ZM43 34L43 35L45 35L45 36L46 36L46 38L47 38L47 36L48 36L48 35L47 35L47 34ZM46 35L46 36L47 36L47 35ZM22 36L22 37L23 37L23 36ZM25 36L25 38L26 38L26 36ZM13 37L13 38L14 38L14 37ZM50 37L50 38L51 38L51 39L52 39L52 38L53 38L53 39L54 39L54 37L52 37L52 38L51 38L51 37ZM2 38L2 40L3 40L3 41L4 41L4 40L3 40L3 39L4 39L4 38ZM6 40L6 41L7 41L7 40ZM14 40L14 43L15 43L15 40ZM46 40L46 41L47 41L47 40ZM11 41L11 42L13 42L13 41ZM38 42L38 43L40 43L40 44L41 44L41 43L40 43L40 42ZM44 42L44 43L45 43L45 42ZM11 43L11 45L12 45L12 44L13 44L13 43ZM20 44L20 45L21 45L21 44ZM25 44L25 46L27 46L27 47L28 47L28 46L27 46L27 45L26 45L26 44ZM44 44L44 45L45 45L45 44ZM27 49L27 52L30 52L30 49ZM37 49L37 50L36 50L36 51L35 51L35 52L34 52L34 51L33 51L33 52L34 52L34 53L35 53L35 54L36 54L36 53L37 53L37 51L39 51L39 50L38 50L38 49ZM49 49L49 52L52 52L52 49ZM24 50L24 51L25 51L25 50ZM28 50L28 51L29 51L29 50ZM50 50L50 51L51 51L51 50ZM23 52L23 53L25 53L25 52ZM41 53L41 54L40 54L40 55L41 55L41 56L40 56L40 57L43 57L43 56L42 56L42 55L41 55L41 54L42 54L42 53ZM45 53L45 54L44 54L44 55L45 55L45 54L46 54L46 55L48 55L48 54L47 54L47 53ZM49 53L49 54L50 54L50 56L51 56L51 54L53 54L53 53ZM8 55L8 57L9 57L9 55ZM30 55L30 56L31 56L31 55ZM54 56L54 57L56 57L56 56ZM0 0L0 7L7 7L7 0ZM1 1L1 6L6 6L6 1ZM2 2L2 5L5 5L5 2ZM50 0L50 7L57 7L57 0ZM51 1L51 6L56 6L56 1ZM52 2L52 5L55 5L55 2ZM0 50L0 57L7 57L7 50ZM1 51L1 56L6 56L6 51ZM2 52L2 55L5 55L5 52Z" fill="#000000"/></g></g></svg>
