<?xml version="1.0" encoding="UTF-8"?>
<svg xmlns="http://www.w3.org/2000/svg" version="1.1" width="100" height="100" viewBox="0 0 100 100"><rect x="0" y="0" width="100" height="100" fill="#ffffff"/><g transform="scale(1.754)"><g transform="translate(0,0)"><path fill-rule="evenodd" d="M11 0L11 1L10 1L10 3L8 3L8 4L10 4L10 3L12 3L12 4L14 4L14 5L13 5L13 6L12 6L12 5L10 5L10 7L9 7L9 5L8 5L8 7L9 7L9 8L6 8L6 9L8 9L8 11L7 11L7 10L5 10L5 8L0 8L0 12L1 12L1 10L2 10L2 12L3 12L3 14L4 14L4 15L3 15L3 16L0 16L0 17L1 17L1 18L0 18L0 22L1 22L1 24L0 24L0 26L2 26L2 24L3 24L3 27L2 27L2 28L1 28L1 29L0 29L0 30L1 30L1 32L3 32L3 35L2 35L2 36L3 36L3 37L2 37L2 39L1 39L1 40L4 40L4 39L8 39L8 40L6 40L6 41L7 41L7 42L3 42L3 41L2 41L2 42L1 42L1 43L0 43L0 48L5 48L5 47L7 47L7 48L6 48L6 49L8 49L8 51L9 51L9 50L10 50L10 52L11 52L11 50L12 50L12 52L14 52L14 51L15 51L15 53L11 53L11 54L9 54L9 52L8 52L8 57L11 57L11 56L12 56L12 55L13 55L13 56L14 56L14 55L16 55L16 56L15 56L15 57L22 57L22 55L21 55L21 56L17 56L17 53L20 53L20 52L24 52L24 53L21 53L21 54L24 54L24 53L25 53L25 56L26 56L26 55L28 55L28 54L30 54L30 53L31 53L31 55L32 55L32 52L33 52L33 51L37 51L37 52L35 52L35 54L34 54L34 56L30 56L30 55L29 55L29 56L30 56L30 57L35 57L35 54L37 54L37 55L40 55L40 56L39 56L39 57L40 57L40 56L41 56L41 55L40 55L40 54L38 54L38 51L39 51L39 52L42 52L42 53L41 53L41 54L43 54L43 55L42 55L42 56L45 56L45 54L43 54L43 51L44 51L44 52L45 52L45 51L44 51L44 50L43 50L43 49L44 49L44 48L46 48L46 49L47 49L47 50L46 50L46 52L47 52L47 53L49 53L49 54L48 54L48 55L49 55L49 56L50 56L50 57L51 57L51 56L52 56L52 55L51 55L51 56L50 56L50 55L49 55L49 54L51 54L51 53L53 53L53 56L55 56L55 57L56 57L56 56L55 56L55 55L54 55L54 53L53 53L53 52L56 52L56 53L57 53L57 52L56 52L56 50L57 50L57 47L56 47L56 46L57 46L57 44L56 44L56 45L54 45L54 46L53 46L53 47L52 47L52 48L48 48L48 47L50 47L50 46L51 46L51 45L52 45L52 44L55 44L55 43L56 43L56 42L57 42L57 41L56 41L56 42L53 42L53 43L50 43L50 42L51 42L51 41L55 41L55 39L57 39L57 37L56 37L56 38L55 38L55 37L54 37L54 36L56 36L56 34L57 34L57 33L56 33L56 32L55 32L55 29L56 29L56 30L57 30L57 29L56 29L56 26L57 26L57 23L56 23L56 22L57 22L57 19L56 19L56 18L57 18L57 17L56 17L56 18L55 18L55 19L54 19L54 20L55 20L55 21L54 21L54 22L55 22L55 23L53 23L53 24L56 24L56 25L54 25L54 26L55 26L55 27L53 27L53 25L52 25L52 26L50 26L50 25L51 25L51 24L49 24L49 22L50 22L50 23L52 23L52 22L50 22L50 20L53 20L53 18L50 18L50 20L49 20L49 19L48 19L48 20L49 20L49 21L47 21L47 22L46 22L46 23L44 23L44 22L43 22L43 21L44 21L44 20L45 20L45 21L46 21L46 20L47 20L47 18L46 18L46 16L47 16L47 17L48 17L48 18L49 18L49 17L48 17L48 16L50 16L50 17L51 17L51 16L53 16L53 15L51 15L51 14L52 14L52 13L51 13L51 12L53 12L53 11L54 11L54 12L55 12L55 14L57 14L57 13L56 13L56 10L57 10L57 9L56 9L56 8L55 8L55 11L54 11L54 10L53 10L53 11L50 11L50 8L49 8L49 9L48 9L48 10L49 10L49 11L48 11L48 12L49 12L49 13L48 13L48 15L47 15L47 14L46 14L46 13L47 13L47 12L46 12L46 11L47 11L47 10L46 10L46 7L47 7L47 8L48 8L48 7L49 7L49 6L48 6L48 7L47 7L47 5L48 5L48 0L46 0L46 1L47 1L47 2L44 2L44 0L41 0L41 2L39 2L39 1L40 1L40 0L39 0L39 1L38 1L38 0L35 0L35 1L34 1L34 0L29 0L29 1L28 1L28 2L27 2L27 1L25 1L25 0L24 0L24 1L25 1L25 2L27 2L27 3L29 3L29 1L31 1L31 2L30 2L30 3L33 3L33 4L34 4L34 3L33 3L33 1L34 1L34 2L37 2L37 3L36 3L36 4L37 4L37 5L38 5L38 7L37 7L37 6L36 6L36 8L35 8L35 9L36 9L36 8L38 8L38 7L39 7L39 6L40 6L40 8L39 8L39 10L37 10L37 12L34 12L34 11L32 11L32 12L33 12L33 13L32 13L32 15L31 15L31 14L30 14L30 13L29 13L29 14L28 14L28 12L30 12L30 10L32 10L32 9L31 9L31 8L32 8L32 7L33 7L33 8L34 8L34 7L35 7L35 5L33 5L33 6L32 6L32 4L26 4L26 3L23 3L23 2L22 2L22 1L23 1L23 0L22 0L22 1L20 1L20 0L19 0L19 3L18 3L18 0L17 0L17 1L15 1L15 3L16 3L16 2L17 2L17 4L19 4L19 5L18 5L18 9L22 9L22 11L21 11L21 12L22 12L22 13L21 13L21 15L20 15L20 12L19 12L19 10L18 10L18 11L17 11L17 12L15 12L15 11L16 11L16 10L14 10L14 7L15 7L15 9L17 9L17 8L16 8L16 7L17 7L17 6L16 6L16 7L15 7L15 6L14 6L14 5L16 5L16 4L14 4L14 0L13 0L13 3L12 3L12 2L11 2L11 1L12 1L12 0ZM8 1L8 2L9 2L9 1ZM37 1L37 2L38 2L38 1ZM42 1L42 2L41 2L41 3L39 3L39 4L38 4L38 5L41 5L41 8L40 8L40 10L39 10L39 13L38 13L38 14L37 14L37 13L36 13L36 15L35 15L35 13L33 13L33 15L32 15L32 17L31 17L31 18L30 18L30 19L31 19L31 18L32 18L32 21L33 21L33 22L35 22L35 25L36 25L36 22L37 22L37 26L36 26L36 27L37 27L37 26L39 26L39 25L38 25L38 22L39 22L39 24L40 24L40 25L41 25L41 27L42 27L42 28L39 28L39 29L38 29L38 28L37 28L37 29L38 29L38 32L37 32L37 31L36 31L36 32L35 32L35 29L34 29L34 27L35 27L35 26L34 26L34 25L33 25L33 26L34 26L34 27L33 27L33 28L31 28L31 31L30 31L30 32L29 32L29 33L28 33L28 34L29 34L29 35L28 35L28 36L27 36L27 35L25 35L25 34L26 34L26 31L25 31L25 30L24 30L24 29L26 29L26 28L25 28L25 27L26 27L26 26L27 26L27 25L29 25L29 26L30 26L30 25L31 25L31 26L32 26L32 25L31 25L31 24L34 24L34 23L32 23L32 22L30 22L30 23L29 23L29 20L28 20L28 22L27 22L27 23L29 23L29 24L25 24L25 23L26 23L26 22L25 22L25 21L24 21L24 19L25 19L25 20L27 20L27 19L28 19L28 18L27 18L27 17L28 17L28 16L29 16L29 15L30 15L30 14L29 14L29 15L28 15L28 14L26 14L26 16L25 16L25 14L24 14L24 13L25 13L25 12L24 12L24 9L25 9L25 11L26 11L26 12L27 12L27 11L29 11L29 10L30 10L30 9L25 9L25 8L26 8L26 4L25 4L25 8L24 8L24 6L23 6L23 5L24 5L24 4L23 4L23 3L22 3L22 4L21 4L21 3L19 3L19 4L21 4L21 5L22 5L22 6L21 6L21 7L22 7L22 6L23 6L23 8L22 8L22 9L23 9L23 12L24 12L24 13L22 13L22 15L23 15L23 16L22 16L22 17L23 17L23 18L21 18L21 16L20 16L20 19L21 19L21 20L20 20L20 21L18 21L18 22L17 22L17 25L16 25L16 23L14 23L14 22L16 22L16 21L17 21L17 20L16 20L16 21L15 21L15 18L14 18L14 17L15 17L15 16L16 16L16 15L17 15L17 13L18 13L18 12L17 12L17 13L13 13L13 12L14 12L14 11L13 11L13 10L12 10L12 6L11 6L11 7L10 7L10 8L9 8L9 11L10 11L10 10L12 10L12 13L13 13L13 14L15 14L15 16L14 16L14 17L13 17L13 16L12 16L12 14L11 14L11 15L10 15L10 13L11 13L11 12L8 12L8 13L5 13L5 12L7 12L7 11L5 11L5 10L4 10L4 9L2 9L2 10L4 10L4 11L3 11L3 12L4 12L4 14L5 14L5 15L4 15L4 18L1 18L1 20L2 20L2 21L1 21L1 22L2 22L2 23L3 23L3 24L4 24L4 23L5 23L5 25L4 25L4 26L8 26L8 25L6 25L6 24L7 24L7 23L6 23L6 22L7 22L7 21L9 21L9 20L8 20L8 19L6 19L6 18L9 18L9 17L6 17L6 16L7 16L7 15L6 15L6 14L9 14L9 15L10 15L10 18L11 18L11 20L10 20L10 21L11 21L11 22L9 22L9 23L8 23L8 24L10 24L10 23L12 23L12 21L11 21L11 20L13 20L13 21L14 21L14 22L13 22L13 23L14 23L14 24L15 24L15 27L13 27L13 26L12 26L12 29L11 29L11 25L12 25L12 24L11 24L11 25L10 25L10 26L9 26L9 29L10 29L10 30L12 30L12 32L11 32L11 31L10 31L10 32L7 32L7 31L6 31L6 32L7 32L7 33L6 33L6 34L5 34L5 36L7 36L7 37L4 37L4 38L9 38L9 37L10 37L10 39L9 39L9 40L8 40L8 41L9 41L9 42L8 42L8 43L9 43L9 44L7 44L7 43L4 43L4 45L3 45L3 47L5 47L5 46L8 46L8 47L9 47L9 44L10 44L10 46L11 46L11 45L12 45L12 47L10 47L10 48L9 48L9 49L10 49L10 50L11 50L11 49L10 49L10 48L12 48L12 49L13 49L13 48L14 48L14 47L15 47L15 48L16 48L16 47L15 47L15 46L17 46L17 45L18 45L18 44L17 44L17 43L18 43L18 42L21 42L21 43L19 43L19 45L20 45L20 46L19 46L19 47L20 47L20 46L21 46L21 45L22 45L22 47L24 47L24 45L25 45L25 46L26 46L26 45L27 45L27 47L26 47L26 48L29 48L29 47L30 47L30 48L32 48L32 49L31 49L31 52L32 52L32 51L33 51L33 50L32 50L32 49L33 49L33 48L34 48L34 50L35 50L35 49L36 49L36 48L37 48L37 49L38 49L38 50L39 50L39 49L41 49L41 50L40 50L40 51L43 51L43 50L42 50L42 49L43 49L43 48L44 48L44 47L45 47L45 45L46 45L46 46L47 46L47 45L48 45L48 46L49 46L49 45L51 45L51 44L50 44L50 43L49 43L49 42L48 42L48 41L51 41L51 40L53 40L53 39L51 39L51 38L53 38L53 37L51 37L51 36L52 36L52 34L53 34L53 35L55 35L55 34L56 34L56 33L55 33L55 34L54 34L54 32L53 32L53 33L52 33L52 31L50 31L50 32L51 32L51 34L50 34L50 35L49 35L49 31L48 31L48 32L47 32L47 31L46 31L46 30L48 30L48 29L46 29L46 30L45 30L45 28L44 28L44 27L46 27L46 26L48 26L48 25L49 25L49 24L48 24L48 22L47 22L47 23L46 23L46 24L47 24L47 25L46 25L46 26L45 26L45 24L44 24L44 23L43 23L43 22L42 22L42 20L43 20L43 18L44 18L44 19L45 19L45 20L46 20L46 19L45 19L45 16L46 16L46 14L45 14L45 12L44 12L44 11L43 11L43 10L42 10L42 9L41 9L41 8L42 8L42 6L43 6L43 7L44 7L44 6L45 6L45 7L46 7L46 6L45 6L45 5L47 5L47 3L44 3L44 2L43 2L43 1ZM42 2L42 3L43 3L43 4L42 4L42 5L43 5L43 4L44 4L44 5L45 5L45 4L44 4L44 3L43 3L43 2ZM22 4L22 5L23 5L23 4ZM19 5L19 7L20 7L20 5ZM27 5L27 8L30 8L30 5ZM13 6L13 7L14 7L14 6ZM28 6L28 7L29 7L29 6ZM31 6L31 7L32 7L32 6ZM33 6L33 7L34 7L34 6ZM10 8L10 9L11 9L11 8ZM23 8L23 9L24 9L24 8ZM43 8L43 9L44 9L44 10L45 10L45 11L46 11L46 10L45 10L45 8ZM51 8L51 9L52 9L52 8ZM53 8L53 9L54 9L54 8ZM33 9L33 10L34 10L34 9ZM26 10L26 11L27 11L27 10ZM35 10L35 11L36 11L36 10ZM41 10L41 11L42 11L42 12L41 12L41 14L44 14L44 13L43 13L43 11L42 11L42 10ZM49 11L49 12L50 12L50 11ZM0 13L0 15L1 15L1 13ZM50 13L50 14L49 14L49 15L50 15L50 14L51 14L51 13ZM53 13L53 14L54 14L54 13ZM38 14L38 16L35 16L35 15L33 15L33 16L35 16L35 17L36 17L36 19L35 19L35 18L34 18L34 17L33 17L33 19L35 19L35 20L36 20L36 21L37 21L37 22L38 22L38 21L37 21L37 20L36 20L36 19L38 19L38 20L42 20L42 19L40 19L40 18L41 18L41 17L40 17L40 18L38 18L38 16L39 16L39 14ZM27 15L27 16L26 16L26 17L27 17L27 16L28 16L28 15ZM40 15L40 16L42 16L42 18L43 18L43 17L44 17L44 16L45 16L45 15ZM54 15L54 16L55 16L55 15ZM56 15L56 16L57 16L57 15ZM23 16L23 17L24 17L24 18L25 18L25 19L26 19L26 18L25 18L25 17L24 17L24 16ZM16 17L16 18L17 18L17 17ZM18 17L18 18L19 18L19 17ZM4 18L4 21L2 21L2 22L4 22L4 21L5 21L5 22L6 22L6 21L7 21L7 20L6 20L6 19L5 19L5 18ZM13 19L13 20L14 20L14 19ZM22 19L22 20L21 20L21 23L22 23L22 22L24 22L24 21L22 21L22 20L23 20L23 19ZM55 19L55 20L56 20L56 19ZM5 20L5 21L6 21L6 20ZM39 21L39 22L40 22L40 21ZM18 22L18 23L20 23L20 22ZM23 23L23 24L24 24L24 23ZM30 23L30 24L31 24L31 23ZM40 23L40 24L41 24L41 25L42 25L42 26L44 26L44 25L42 25L42 24L43 24L43 23ZM18 24L18 25L22 25L22 26L20 26L20 29L18 29L18 28L16 28L16 27L15 27L15 29L12 29L12 30L14 30L14 31L15 31L15 29L18 29L18 31L17 31L17 32L16 32L16 33L15 33L15 35L14 35L14 33L13 33L13 35L14 35L14 36L12 36L12 35L11 35L11 34L10 34L10 35L11 35L11 36L12 36L12 38L11 38L11 39L10 39L10 40L9 40L9 41L14 41L14 39L15 39L15 41L17 41L17 40L16 40L16 39L15 39L15 38L16 38L16 37L15 37L15 36L16 36L16 35L19 35L19 36L17 36L17 37L19 37L19 38L20 38L20 39L18 39L18 38L17 38L17 39L18 39L18 41L22 41L22 43L21 43L21 44L20 44L20 45L21 45L21 44L22 44L22 45L23 45L23 41L24 41L24 44L25 44L25 45L26 45L26 44L27 44L27 45L29 45L29 44L28 44L28 43L31 43L31 42L32 42L32 41L31 41L31 40L32 40L32 38L31 38L31 37L32 37L32 36L33 36L33 37L35 37L35 36L34 36L34 35L35 35L35 34L34 34L34 33L35 33L35 32L34 32L34 30L33 30L33 29L32 29L32 30L33 30L33 31L32 31L32 32L30 32L30 33L29 33L29 34L30 34L30 35L29 35L29 36L31 36L31 37L30 37L30 38L29 38L29 40L28 40L28 39L27 39L27 40L28 40L28 41L26 41L26 42L27 42L27 43L26 43L26 44L25 44L25 41L24 41L24 40L25 40L25 39L26 39L26 38L28 38L28 37L26 37L26 38L25 38L25 35L24 35L24 36L23 36L23 37L22 37L22 35L23 35L23 33L22 33L22 31L23 31L23 30L22 30L22 31L21 31L21 30L20 30L20 29L22 29L22 28L21 28L21 27L22 27L22 26L23 26L23 27L25 27L25 26L26 26L26 25L24 25L24 26L23 26L23 25L22 25L22 24ZM17 26L17 27L18 27L18 26ZM3 27L3 28L4 28L4 27ZM5 27L5 30L8 30L8 27ZM27 27L27 30L30 30L30 27ZM47 27L47 28L48 28L48 27ZM49 27L49 30L52 30L52 27ZM6 28L6 29L7 29L7 28ZM23 28L23 29L24 29L24 28ZM28 28L28 29L29 29L29 28ZM43 28L43 29L41 29L41 31L39 31L39 32L38 32L38 33L37 33L37 32L36 32L36 35L37 35L37 36L36 36L36 38L34 38L34 39L33 39L33 40L34 40L34 39L35 39L35 41L37 41L37 40L36 40L36 39L40 39L40 40L39 40L39 41L40 41L40 40L41 40L41 39L40 39L40 38L43 38L43 37L44 37L44 38L45 38L45 39L42 39L42 42L41 42L41 43L40 43L40 42L36 42L36 43L37 43L37 44L35 44L35 45L37 45L37 46L36 46L36 47L35 47L35 46L34 46L34 44L33 44L33 43L32 43L32 44L33 44L33 46L34 46L34 48L36 48L36 47L37 47L37 48L41 48L41 47L40 47L40 46L38 46L38 45L39 45L39 43L40 43L40 44L41 44L41 46L43 46L43 45L44 45L44 44L46 44L46 45L47 45L47 44L46 44L46 43L47 43L47 42L46 42L46 40L45 40L45 39L47 39L47 40L51 40L51 39L49 39L49 35L47 35L47 34L46 34L46 35L42 35L42 34L44 34L44 32L45 32L45 33L47 33L47 32L46 32L46 31L45 31L45 30L44 30L44 28ZM50 28L50 29L51 29L51 28ZM53 28L53 31L54 31L54 29L55 29L55 28ZM1 29L1 30L2 30L2 29ZM39 29L39 30L40 30L40 29ZM42 30L42 31L41 31L41 32L39 32L39 33L38 33L38 38L40 38L40 37L43 37L43 36L42 36L42 35L41 35L41 34L42 34L42 33L43 33L43 32L42 32L42 31L44 31L44 30ZM4 31L4 32L5 32L5 31ZM18 31L18 32L19 32L19 33L16 33L16 34L19 34L19 33L20 33L20 34L21 34L21 35L22 35L22 34L21 34L21 33L20 33L20 32L19 32L19 31ZM24 31L24 32L25 32L25 31ZM27 31L27 32L28 32L28 31ZM10 32L10 33L11 33L11 32ZM32 32L32 34L31 34L31 36L32 36L32 34L33 34L33 32ZM7 33L7 34L6 34L6 35L7 35L7 36L8 36L8 37L9 37L9 35L8 35L8 33ZM24 33L24 34L25 34L25 33ZM0 34L0 36L1 36L1 34ZM39 34L39 35L40 35L40 36L41 36L41 35L40 35L40 34ZM3 35L3 36L4 36L4 35ZM50 35L50 36L51 36L51 35ZM19 36L19 37L21 37L21 36ZM44 36L44 37L45 37L45 38L47 38L47 39L48 39L48 38L47 38L47 37L48 37L48 36ZM13 37L13 38L12 38L12 39L11 39L11 40L13 40L13 38L14 38L14 37ZM23 37L23 38L24 38L24 37ZM50 37L50 38L51 38L51 37ZM23 39L23 40L22 40L22 41L23 41L23 40L24 40L24 39ZM43 40L43 41L44 41L44 42L42 42L42 43L41 43L41 44L42 44L42 45L43 45L43 44L44 44L44 43L45 43L45 40ZM28 41L28 42L31 42L31 41ZM33 41L33 42L34 42L34 41ZM9 42L9 43L10 43L10 44L11 44L11 43L13 43L13 45L14 45L14 44L15 44L15 45L17 45L17 44L15 44L15 43L16 43L16 42L15 42L15 43L14 43L14 42ZM1 43L1 44L3 44L3 43ZM42 43L42 44L43 44L43 43ZM5 44L5 45L4 45L4 46L5 46L5 45L7 45L7 44ZM30 44L30 47L32 47L32 48L33 48L33 47L32 47L32 46L31 46L31 44ZM1 45L1 47L2 47L2 45ZM37 46L37 47L38 47L38 46ZM46 47L46 48L47 48L47 49L48 49L48 48L47 48L47 47ZM55 47L55 48L56 48L56 47ZM19 48L19 49L18 49L18 50L19 50L19 51L20 51L20 50L21 50L21 49L23 49L23 48L21 48L21 49L20 49L20 48ZM24 48L24 49L25 49L25 48ZM53 48L53 49L54 49L54 48ZM16 49L16 50L17 50L17 49ZM19 49L19 50L20 50L20 49ZM27 49L27 52L30 52L30 49ZM49 49L49 52L52 52L52 49ZM55 49L55 50L56 50L56 49ZM13 50L13 51L14 51L14 50ZM22 50L22 51L23 51L23 50ZM25 50L25 52L26 52L26 50ZM28 50L28 51L29 51L29 50ZM50 50L50 51L51 51L51 50ZM53 50L53 51L54 51L54 50ZM16 51L16 53L15 53L15 54L16 54L16 53L17 53L17 51ZM47 51L47 52L48 52L48 51ZM11 54L11 55L10 55L10 56L11 56L11 55L12 55L12 54ZM18 54L18 55L20 55L20 54ZM46 54L46 56L47 56L47 54ZM23 55L23 57L24 57L24 55ZM36 56L36 57L37 57L37 56ZM0 0L0 7L7 7L7 0ZM1 1L1 6L6 6L6 1ZM2 2L2 5L5 5L5 2ZM50 0L50 7L57 7L57 0ZM51 1L51 6L56 6L56 1ZM52 2L52 5L55 5L55 2ZM0 50L0 57L7 57L7 50ZM1 51L1 56L6 56L6 51ZM2 52L2 55L5 55L5 52Z" fill="#000000"/></g></g></svg>
