<?xml version="1.0" encoding="UTF-8"?>
<svg xmlns="http://www.w3.org/2000/svg" version="1.1" width="100" height="100" viewBox="0 0 100 100"><rect x="0" y="0" width="100" height="100" fill="#ffffff"/><g transform="scale(1.754)"><g transform="translate(0,0)"><path fill-rule="evenodd" d="M8 0L8 4L9 4L9 5L8 5L8 7L9 7L9 9L11 9L11 8L12 8L12 9L13 9L13 8L14 8L14 10L13 10L13 11L12 11L12 10L11 10L11 11L12 11L12 12L11 12L11 13L10 13L10 11L9 11L9 10L8 10L8 9L7 9L7 8L4 8L4 9L2 9L2 8L0 8L0 10L1 10L1 9L2 9L2 12L1 12L1 13L0 13L0 14L3 14L3 11L4 11L4 12L5 12L5 13L7 13L7 12L9 12L9 13L8 13L8 14L11 14L11 15L7 15L7 14L5 14L5 15L3 15L3 16L1 16L1 15L0 15L0 18L2 18L2 19L3 19L3 16L6 16L6 17L7 17L7 18L5 18L5 19L4 19L4 20L2 20L2 21L1 21L1 20L0 20L0 28L1 28L1 24L2 24L2 26L3 26L3 27L2 27L2 28L3 28L3 27L4 27L4 30L2 30L2 29L0 29L0 31L2 31L2 33L3 33L3 35L2 35L2 36L1 36L1 38L0 38L0 40L1 40L1 42L0 42L0 43L3 43L3 44L4 44L4 42L5 42L5 45L3 45L3 46L2 46L2 45L1 45L1 44L0 44L0 48L5 48L5 47L7 47L7 48L6 48L6 49L7 49L7 48L9 48L9 49L8 49L8 50L9 50L9 49L11 49L11 52L12 52L12 50L13 50L13 49L12 49L12 48L13 48L13 46L15 46L15 47L14 47L14 48L15 48L15 47L16 47L16 45L17 45L17 46L19 46L19 45L20 45L20 47L19 47L19 48L16 48L16 49L17 49L17 50L18 50L18 49L20 49L20 51L19 51L19 52L17 52L17 51L16 51L16 50L14 50L14 51L13 51L13 53L11 53L11 55L8 55L8 57L11 57L11 55L12 55L12 57L13 57L13 55L14 55L14 54L13 54L13 53L15 53L15 55L16 55L16 54L17 54L17 56L16 56L16 57L19 57L19 55L20 55L20 54L21 54L21 53L22 53L22 55L21 55L21 56L23 56L23 57L24 57L24 56L25 56L25 57L27 57L27 56L26 56L26 55L30 55L30 57L31 57L31 54L30 54L30 53L32 53L32 54L34 54L34 52L35 52L35 56L34 56L34 57L35 57L35 56L36 56L36 57L39 57L39 56L37 56L37 55L41 55L41 56L42 56L42 55L43 55L43 57L46 57L46 56L45 56L45 54L46 54L46 52L45 52L45 51L44 51L44 50L46 50L46 49L47 49L47 50L48 50L48 51L47 51L47 53L51 53L51 54L52 54L52 55L51 55L51 57L52 57L52 56L53 56L53 54L54 54L54 55L55 55L55 54L57 54L57 53L56 53L56 49L55 49L55 48L54 48L54 49L53 49L53 48L49 48L49 47L50 47L50 46L49 46L49 47L48 47L48 49L47 49L47 47L46 47L46 46L45 46L45 43L46 43L46 44L49 44L49 45L51 45L51 46L52 46L52 47L53 47L53 46L52 46L52 45L51 45L51 44L52 44L52 43L53 43L53 42L52 42L52 41L55 41L55 43L56 43L56 41L57 41L57 40L53 40L53 39L52 39L52 37L53 37L53 38L55 38L55 39L57 39L57 38L56 38L56 37L57 37L57 36L56 36L56 33L57 33L57 32L56 32L56 33L55 33L55 32L54 32L54 34L53 34L53 35L55 35L55 37L54 37L54 36L52 36L52 37L51 37L51 35L50 35L50 34L47 34L47 35L50 35L50 36L48 36L48 37L47 37L47 39L46 39L46 35L43 35L43 33L42 33L42 35L41 35L41 34L40 34L40 31L41 31L41 32L42 32L42 31L43 31L43 32L44 32L44 34L46 34L46 33L47 33L47 31L45 31L45 28L46 28L46 29L48 29L48 32L50 32L50 31L54 31L54 30L56 30L56 29L57 29L57 28L56 28L56 26L55 26L55 25L56 25L56 24L57 24L57 23L56 23L56 22L55 22L55 21L54 21L54 22L52 22L52 15L53 15L53 16L54 16L54 15L55 15L55 14L54 14L54 13L53 13L53 14L52 14L52 15L51 15L51 13L52 13L52 11L53 11L53 12L54 12L54 11L55 11L55 12L56 12L56 13L57 13L57 12L56 12L56 10L54 10L54 11L53 11L53 10L52 10L52 8L51 8L51 9L50 9L50 10L49 10L49 9L48 9L48 10L47 10L47 11L45 11L45 8L47 8L47 5L48 5L48 0L44 0L44 3L42 3L42 1L43 1L43 0L41 0L41 3L40 3L40 1L39 1L39 0L38 0L38 1L37 1L37 0L35 0L35 1L33 1L33 2L31 2L31 3L30 3L30 2L29 2L29 1L31 1L31 0L29 0L29 1L28 1L28 0L24 0L24 1L27 1L27 3L28 3L28 4L26 4L26 3L25 3L25 2L23 2L23 3L22 3L22 2L18 2L18 0L17 0L17 1L16 1L16 0L14 0L14 2L12 2L12 3L9 3L9 2L11 2L11 1L12 1L12 0L11 0L11 1L10 1L10 0ZM20 0L20 1L23 1L23 0ZM15 1L15 2L14 2L14 5L13 5L13 3L12 3L12 4L10 4L10 5L12 5L12 6L11 6L11 7L10 7L10 6L9 6L9 7L10 7L10 8L11 8L11 7L12 7L12 8L13 8L13 7L14 7L14 8L15 8L15 9L16 9L16 10L18 10L18 11L17 11L17 13L16 13L16 11L15 11L15 12L14 12L14 11L13 11L13 12L12 12L12 13L16 13L16 14L15 14L15 17L14 17L14 16L13 16L13 14L12 14L12 16L7 16L7 15L6 15L6 16L7 16L7 17L9 17L9 18L10 18L10 20L9 20L9 21L6 21L6 22L4 22L4 21L2 21L2 23L3 23L3 26L7 26L7 25L8 25L8 26L9 26L9 28L10 28L10 29L9 29L9 30L10 30L10 31L11 31L11 33L10 33L10 34L9 34L9 36L8 36L8 35L6 35L6 36L8 36L8 37L9 37L9 38L11 38L11 39L12 39L12 35L11 35L11 34L14 34L14 35L13 35L13 37L14 37L14 38L13 38L13 40L12 40L12 43L11 43L11 42L10 42L10 43L9 43L9 41L8 41L8 39L6 39L6 38L7 38L7 37L4 37L4 36L5 36L5 34L4 34L4 36L3 36L3 37L2 37L2 38L1 38L1 39L2 39L2 38L4 38L4 39L6 39L6 40L7 40L7 41L5 41L5 40L4 40L4 41L5 41L5 42L8 42L8 43L9 43L9 46L8 46L8 47L9 47L9 46L10 46L10 47L12 47L12 46L13 46L13 45L14 45L14 44L13 44L13 40L14 40L14 38L15 38L15 39L16 39L16 38L17 38L17 39L18 39L18 40L17 40L17 41L16 41L16 40L15 40L15 41L14 41L14 43L15 43L15 45L16 45L16 43L15 43L15 41L16 41L16 42L18 42L18 43L17 43L17 45L18 45L18 44L20 44L20 45L21 45L21 46L24 46L24 47L22 47L22 49L21 49L21 48L20 48L20 49L21 49L21 50L22 50L22 49L23 49L23 48L24 48L24 49L25 49L25 50L23 50L23 51L22 51L22 53L24 53L24 54L28 54L28 53L26 53L26 48L28 48L28 46L30 46L30 47L29 47L29 48L30 48L30 47L31 47L31 49L32 49L32 50L31 50L31 51L33 51L33 52L34 52L34 51L37 51L37 50L38 50L38 49L37 49L37 50L35 50L35 49L36 49L36 47L38 47L38 45L39 45L39 44L40 44L40 46L41 46L41 43L42 43L42 45L44 45L44 43L45 43L45 42L46 42L46 43L47 43L47 42L48 42L48 41L49 41L49 42L50 42L50 43L49 43L49 44L50 44L50 43L52 43L52 42L51 42L51 41L52 41L52 39L51 39L51 37L50 37L50 38L48 38L48 39L47 39L47 40L46 40L46 39L45 39L45 37L44 37L44 36L43 36L43 35L42 35L42 36L41 36L41 35L39 35L39 34L38 34L38 33L39 33L39 31L40 31L40 30L41 30L41 31L42 31L42 30L41 30L41 29L43 29L43 31L44 31L44 27L46 27L46 28L47 28L47 27L48 27L48 25L49 25L49 26L50 26L50 25L51 25L51 24L52 24L52 25L53 25L53 26L54 26L54 25L55 25L55 23L53 23L53 24L52 24L52 23L50 23L50 18L49 18L49 19L48 19L48 20L47 20L47 18L48 18L48 17L49 17L49 15L50 15L50 13L51 13L51 12L50 12L50 11L52 11L52 10L50 10L50 11L48 11L48 12L47 12L47 13L46 13L46 12L45 12L45 14L44 14L44 13L43 13L43 15L40 15L40 14L41 14L41 12L40 12L40 10L41 10L41 11L42 11L42 12L44 12L44 11L42 11L42 9L41 9L41 7L42 7L42 8L43 8L43 7L44 7L44 6L43 6L43 5L42 5L42 4L40 4L40 3L39 3L39 4L40 4L40 5L38 5L38 4L37 4L37 3L36 3L36 4L34 4L34 5L33 5L33 3L34 3L34 2L33 2L33 3L31 3L31 7L32 7L32 8L33 8L33 7L34 7L34 5L35 5L35 7L36 7L36 9L35 9L35 8L34 8L34 9L33 9L33 10L32 10L32 9L31 9L31 12L30 12L30 9L28 9L28 10L27 10L27 11L26 11L26 10L24 10L24 9L26 9L26 6L25 6L25 7L24 7L24 6L23 6L23 5L24 5L24 4L25 4L25 3L23 3L23 5L21 5L21 3L18 3L18 2L17 2L17 4L16 4L16 3L15 3L15 2L16 2L16 1ZM38 1L38 2L39 2L39 1ZM46 1L46 2L47 2L47 1ZM28 2L28 3L29 3L29 2ZM44 3L44 5L45 5L45 7L46 7L46 5L47 5L47 3ZM45 4L45 5L46 5L46 4ZM14 5L14 7L15 7L15 8L16 8L16 9L17 9L17 8L18 8L18 9L19 9L19 10L23 10L23 12L22 12L22 11L21 11L21 12L20 12L20 14L19 14L19 12L18 12L18 13L17 13L17 14L16 14L16 15L17 15L17 14L19 14L19 16L16 16L16 17L17 17L17 18L18 18L18 17L19 17L19 16L20 16L20 18L19 18L19 20L17 20L17 21L15 21L15 20L16 20L16 18L15 18L15 20L14 20L14 19L13 19L13 18L14 18L14 17L13 17L13 18L11 18L11 21L10 21L10 22L11 22L11 23L10 23L10 24L9 24L9 26L10 26L10 28L11 28L11 29L12 29L12 32L13 32L13 33L14 33L14 34L15 34L15 35L14 35L14 36L15 36L15 37L16 37L16 36L17 36L17 37L21 37L21 36L23 36L23 37L22 37L22 38L20 38L20 39L19 39L19 38L18 38L18 39L19 39L19 40L18 40L18 41L19 41L19 43L21 43L21 45L23 45L23 44L24 44L24 42L26 42L26 41L32 41L32 42L33 42L33 41L34 41L34 40L35 40L35 41L37 41L37 43L36 43L36 42L34 42L34 43L32 43L32 44L31 44L31 43L28 43L28 42L27 42L27 43L26 43L26 45L24 45L24 46L25 46L25 48L26 48L26 47L27 47L27 46L28 46L28 45L29 45L29 44L30 44L30 46L31 46L31 47L32 47L32 49L33 49L33 47L34 47L34 45L33 45L33 44L34 44L34 43L35 43L35 45L37 45L37 44L39 44L39 43L41 43L41 42L40 42L40 41L39 41L39 40L37 40L37 39L41 39L41 40L42 40L42 43L43 43L43 41L44 41L44 42L45 42L45 39L43 39L43 38L44 38L44 37L40 37L40 36L38 36L38 34L37 34L37 33L38 33L38 30L39 30L39 29L40 29L40 26L41 26L41 27L42 27L42 28L43 28L43 25L44 25L44 26L45 26L45 24L46 24L46 25L47 25L47 24L48 24L48 22L49 22L49 21L47 21L47 23L44 23L44 22L46 22L46 21L45 21L45 19L46 19L46 18L45 18L45 15L43 15L43 16L42 16L42 18L41 18L41 17L40 17L40 16L39 16L39 14L40 14L40 12L39 12L39 8L38 8L38 7L39 7L39 6L38 6L38 5L37 5L37 6L36 6L36 7L37 7L37 10L36 10L36 11L35 11L35 10L34 10L34 11L32 11L32 12L31 12L31 14L32 14L32 15L31 15L31 16L30 16L30 17L29 17L29 15L30 15L30 13L29 13L29 15L27 15L27 17L26 17L26 14L25 14L25 13L24 13L24 10L23 10L23 9L24 9L24 7L23 7L23 6L22 6L22 7L21 7L21 6L20 6L20 5L18 5L18 7L17 7L17 6L16 6L16 5ZM27 5L27 8L30 8L30 5ZM40 5L40 7L41 7L41 5ZM12 6L12 7L13 7L13 6ZM15 6L15 7L16 7L16 6ZM19 6L19 7L18 7L18 8L19 8L19 9L23 9L23 7L22 7L22 8L19 8L19 7L20 7L20 6ZM28 6L28 7L29 7L29 6ZM32 6L32 7L33 7L33 6ZM37 6L37 7L38 7L38 6ZM42 6L42 7L43 7L43 6ZM48 6L48 8L49 8L49 6ZM53 8L53 9L57 9L57 8ZM5 9L5 11L6 11L6 12L7 12L7 11L8 11L8 10L7 10L7 9ZM43 9L43 10L44 10L44 9ZM6 10L6 11L7 11L7 10ZM28 10L28 11L27 11L27 12L28 12L28 11L29 11L29 10ZM25 11L25 12L26 12L26 11ZM33 12L33 13L32 13L32 14L33 14L33 15L32 15L32 16L31 16L31 17L32 17L32 16L33 16L33 15L34 15L34 17L33 17L33 18L32 18L32 20L31 20L31 18L28 18L28 17L27 17L27 18L26 18L26 19L24 19L24 20L23 20L23 19L22 19L22 17L23 17L23 18L24 18L24 17L25 17L25 16L24 16L24 17L23 17L23 15L22 15L22 16L21 16L21 18L20 18L20 19L21 19L21 22L20 22L20 23L19 23L19 21L20 21L20 20L19 20L19 21L18 21L18 23L19 23L19 25L18 25L18 24L17 24L17 22L16 22L16 23L15 23L15 22L14 22L14 21L13 21L13 22L12 22L12 21L11 21L11 22L12 22L12 23L11 23L11 25L10 25L10 26L11 26L11 25L12 25L12 26L15 26L15 27L13 27L13 28L12 28L12 27L11 27L11 28L12 28L12 29L13 29L13 32L16 32L16 30L18 30L18 31L17 31L17 32L18 32L18 31L19 31L19 30L20 30L20 29L22 29L22 30L21 30L21 31L23 31L23 30L24 30L24 29L25 29L25 30L26 30L26 29L25 29L25 28L24 28L24 29L23 29L23 28L22 28L22 27L21 27L21 28L20 28L20 26L19 26L19 25L23 25L23 27L26 27L26 25L25 25L25 24L24 24L24 23L23 23L23 24L22 24L22 23L21 23L21 22L22 22L22 21L24 21L24 22L25 22L25 23L26 23L26 22L27 22L27 23L28 23L28 25L27 25L27 26L28 26L28 25L29 25L29 26L30 26L30 25L32 25L32 26L33 26L33 25L34 25L34 24L35 24L35 25L36 25L36 24L38 24L38 25L39 25L39 26L40 26L40 25L41 25L41 26L42 26L42 25L43 25L43 24L44 24L44 23L40 23L40 22L42 22L42 19L40 19L40 21L39 21L39 24L38 24L38 21L36 21L36 19L37 19L37 20L38 20L38 19L37 19L37 18L38 18L38 13L39 13L39 12L37 12L37 13L36 13L36 14L35 14L35 13L34 13L34 12ZM21 13L21 14L20 14L20 15L21 15L21 14L24 14L24 13ZM33 13L33 14L34 14L34 15L35 15L35 17L36 17L36 18L35 18L35 19L34 19L34 18L33 18L33 19L34 19L34 20L32 20L32 21L31 21L31 20L29 20L29 22L28 22L28 23L29 23L29 24L30 24L30 23L34 23L34 20L35 20L35 19L36 19L36 18L37 18L37 14L36 14L36 15L35 15L35 14L34 14L34 13ZM48 13L48 14L47 14L47 15L48 15L48 14L49 14L49 13ZM56 15L56 16L55 16L55 18L53 18L53 20L54 20L54 19L56 19L56 20L57 20L57 19L56 19L56 17L57 17L57 15ZM43 16L43 17L44 17L44 16ZM47 16L47 17L48 17L48 16ZM50 16L50 17L51 17L51 16ZM44 18L44 19L45 19L45 18ZM6 19L6 20L8 20L8 19ZM27 19L27 20L28 20L28 19ZM24 20L24 21L25 21L25 20ZM43 20L43 21L44 21L44 20ZM6 22L6 23L5 23L5 24L4 24L4 25L5 25L5 24L6 24L6 25L7 25L7 24L8 24L8 23L9 23L9 22ZM29 22L29 23L30 23L30 22ZM35 22L35 24L36 24L36 22ZM6 23L6 24L7 24L7 23ZM13 23L13 24L12 24L12 25L14 25L14 24L15 24L15 26L16 26L16 27L15 27L15 28L13 28L13 29L15 29L15 30L14 30L14 31L15 31L15 30L16 30L16 29L18 29L18 30L19 30L19 29L20 29L20 28L19 28L19 26L18 26L18 27L17 27L17 26L16 26L16 25L17 25L17 24L15 24L15 23ZM41 24L41 25L42 25L42 24ZM24 25L24 26L25 26L25 25ZM35 26L35 28L37 28L37 27L36 27L36 26ZM5 27L5 30L8 30L8 27ZM27 27L27 30L30 30L30 27ZM49 27L49 30L52 30L52 27ZM53 27L53 30L54 30L54 29L56 29L56 28L55 28L55 27ZM6 28L6 29L7 29L7 28ZM15 28L15 29L16 29L16 28ZM18 28L18 29L19 29L19 28ZM28 28L28 29L29 29L29 28ZM38 28L38 29L37 29L37 30L35 30L35 29L34 29L34 30L33 30L33 29L32 29L32 30L31 30L31 34L30 34L30 35L29 35L29 33L30 33L30 31L27 31L27 32L26 32L26 31L24 31L24 32L20 32L20 33L15 33L15 34L16 34L16 35L19 35L19 34L20 34L20 33L21 33L21 35L23 35L23 34L24 34L24 33L25 33L25 32L26 32L26 34L28 34L28 35L29 35L29 36L28 36L28 37L26 37L26 39L25 39L25 38L24 38L24 37L23 37L23 38L22 38L22 40L19 40L19 41L23 41L23 42L21 42L21 43L22 43L22 44L23 44L23 42L24 42L24 41L25 41L25 40L27 40L27 39L28 39L28 38L29 38L29 39L31 39L31 37L32 37L32 36L33 36L33 37L34 37L34 38L32 38L32 40L33 40L33 39L35 39L35 40L36 40L36 39L37 39L37 38L38 38L38 36L37 36L37 38L36 38L36 36L35 36L35 37L34 37L34 36L33 36L33 35L32 35L32 31L35 31L35 33L34 33L34 32L33 32L33 34L34 34L34 35L35 35L35 34L36 34L36 35L37 35L37 34L36 34L36 31L37 31L37 30L38 30L38 29L39 29L39 28ZM50 28L50 29L51 29L51 28ZM5 31L5 32L7 32L7 31ZM0 32L0 33L1 33L1 32ZM3 32L3 33L4 33L4 32ZM8 32L8 33L9 33L9 32ZM28 32L28 33L29 33L29 32ZM45 32L45 33L46 33L46 32ZM51 32L51 34L52 34L52 33L53 33L53 32ZM6 33L6 34L7 34L7 33ZM22 33L22 34L23 34L23 33ZM10 35L10 36L9 36L9 37L10 37L10 36L11 36L11 35ZM24 35L24 36L27 36L27 35ZM30 36L30 37L31 37L31 36ZM9 39L9 40L10 40L10 41L11 41L11 40L10 40L10 39ZM23 39L23 41L24 41L24 39ZM42 39L42 40L43 40L43 39ZM49 39L49 41L51 41L51 39ZM2 41L2 42L3 42L3 41ZM6 43L6 44L7 44L7 43ZM27 44L27 45L26 45L26 46L27 46L27 45L28 45L28 44ZM55 44L55 45L54 45L54 46L55 46L55 47L56 47L56 48L57 48L57 47L56 47L56 46L55 46L55 45L56 45L56 44ZM5 45L5 46L3 46L3 47L5 47L5 46L7 46L7 45ZM11 45L11 46L12 46L12 45ZM47 45L47 46L48 46L48 45ZM1 46L1 47L2 47L2 46ZM32 46L32 47L33 47L33 46ZM35 46L35 47L36 47L36 46ZM43 46L43 48L41 48L41 47L40 47L40 49L39 49L39 50L40 50L40 49L41 49L41 50L42 50L42 49L44 49L44 47L45 47L45 46ZM27 49L27 52L30 52L30 49ZM49 49L49 52L52 52L52 49ZM28 50L28 51L29 51L29 50ZM33 50L33 51L34 51L34 50ZM50 50L50 51L51 51L51 50ZM54 50L54 51L53 51L53 53L52 53L52 54L53 54L53 53L54 53L54 54L55 54L55 50ZM8 51L8 53L9 53L9 54L10 54L10 52L9 52L9 51ZM14 51L14 52L15 52L15 53L17 53L17 54L18 54L18 55L19 55L19 53L20 53L20 52L19 52L19 53L17 53L17 52L15 52L15 51ZM38 51L38 52L37 52L37 54L38 54L38 52L39 52L39 51ZM40 51L40 54L41 54L41 53L42 53L42 52L44 52L44 51ZM24 52L24 53L25 53L25 52ZM12 54L12 55L13 55L13 54ZM47 54L47 56L49 56L49 57L50 57L50 55L48 55L48 54ZM23 55L23 56L24 56L24 55ZM14 56L14 57L15 57L15 56ZM56 56L56 57L57 57L57 56ZM0 0L0 7L7 7L7 0ZM1 1L1 6L6 6L6 1ZM2 2L2 5L5 5L5 2ZM50 0L50 7L57 7L57 0ZM51 1L51 6L56 6L56 1ZM52 2L52 5L55 5L55 2ZM0 50L0 57L7 57L7 50ZM1 51L1 56L6 56L6 51ZM2 52L2 55L5 55L5 52Z" fill="#000000"/></g></g></svg>
