<?xml version="1.0" encoding="UTF-8"?>
<svg xmlns="http://www.w3.org/2000/svg" version="1.1" width="100" height="100" viewBox="0 0 100 100"><rect x="0" y="0" width="100" height="100" fill="#ffffff"/><g transform="scale(1.754)"><g transform="translate(0,0)"><path fill-rule="evenodd" d="M10 0L10 2L13 2L13 3L14 3L14 1L15 1L15 2L16 2L16 3L17 3L17 2L16 2L16 1L18 1L18 2L19 2L19 4L20 4L20 3L21 3L21 6L20 6L20 5L19 5L19 6L18 6L18 7L17 7L17 6L16 6L16 7L15 7L15 5L14 5L14 4L12 4L12 3L10 3L10 4L8 4L8 8L6 8L6 9L8 9L8 10L9 10L9 9L8 9L8 8L10 8L10 9L11 9L11 11L12 11L12 9L14 9L14 7L15 7L15 8L17 8L17 10L18 10L18 11L17 11L17 12L18 12L18 13L19 13L19 14L18 14L18 15L20 15L20 18L19 18L19 16L17 16L17 13L16 13L16 14L13 14L13 15L12 15L12 16L13 16L13 15L14 15L14 17L10 17L10 16L11 16L11 14L12 14L12 12L9 12L9 11L7 11L7 10L6 10L6 11L5 11L5 10L1 10L1 11L0 11L0 14L2 14L2 13L3 13L3 12L6 12L6 13L7 13L7 14L5 14L5 13L4 13L4 14L5 14L5 15L2 15L2 17L1 17L1 16L0 16L0 17L1 17L1 18L3 18L3 20L1 20L1 19L0 19L0 20L1 20L1 22L0 22L0 23L1 23L1 24L0 24L0 27L1 27L1 28L0 28L0 31L2 31L2 30L3 30L3 28L2 28L2 27L3 27L3 25L2 25L2 23L3 23L3 24L5 24L5 23L3 23L3 21L4 21L4 22L5 22L5 19L7 19L7 20L6 20L6 21L7 21L7 22L6 22L6 23L7 23L7 24L6 24L6 25L5 25L5 26L4 26L4 31L3 31L3 33L2 33L2 34L0 34L0 35L2 35L2 34L3 34L3 33L4 33L4 35L8 35L8 34L9 34L9 33L8 33L8 34L5 34L5 33L4 33L4 31L5 31L5 32L6 32L6 33L7 33L7 32L8 32L8 31L10 31L10 32L12 32L12 31L11 31L11 30L9 30L9 28L10 28L10 27L11 27L11 28L12 28L12 26L13 26L13 23L14 23L14 24L15 24L15 25L16 25L16 26L14 26L14 27L13 27L13 28L16 28L16 29L18 29L18 28L19 28L19 29L20 29L20 30L18 30L18 33L17 33L17 34L16 34L16 32L17 32L17 30L15 30L15 29L12 29L12 30L14 30L14 31L13 31L13 32L14 32L14 31L16 31L16 32L15 32L15 34L14 34L14 33L12 33L12 34L13 34L13 35L12 35L12 36L11 36L11 35L9 35L9 36L8 36L8 38L11 38L11 39L10 39L10 40L11 40L11 42L12 42L12 43L13 43L13 42L14 42L14 41L15 41L15 40L16 40L16 41L17 41L17 40L18 40L18 43L19 43L19 44L17 44L17 42L16 42L16 44L17 44L17 45L19 45L19 44L20 44L20 45L21 45L21 46L22 46L22 42L23 42L23 41L24 41L24 39L25 39L25 42L24 42L24 43L23 43L23 46L24 46L24 47L21 47L21 50L20 50L20 49L19 49L19 48L18 48L18 47L20 47L20 46L16 46L16 48L17 48L17 49L15 49L15 48L14 48L14 51L12 51L12 53L13 53L13 52L14 52L14 51L15 51L15 52L16 52L16 51L15 51L15 50L17 50L17 49L18 49L18 51L19 51L19 50L20 50L20 53L19 53L19 52L17 52L17 53L16 53L16 54L17 54L17 53L18 53L18 55L17 55L17 56L18 56L18 57L21 57L21 56L19 56L19 55L22 55L22 57L23 57L23 54L25 54L25 55L24 55L24 56L26 56L26 54L25 54L25 52L26 52L26 53L27 53L27 54L28 54L28 55L27 55L27 57L33 57L33 56L31 56L31 55L34 55L34 54L33 54L33 53L34 53L34 52L33 52L33 51L32 51L32 54L31 54L31 49L32 49L32 50L35 50L35 48L36 48L36 49L37 49L37 50L36 50L36 51L35 51L35 54L36 54L36 53L37 53L37 51L39 51L39 52L38 52L38 54L37 54L37 55L35 55L35 57L37 57L37 55L38 55L38 54L39 54L39 53L40 53L40 52L41 52L41 51L42 51L42 49L41 49L41 47L39 47L39 48L38 48L38 49L37 49L37 47L38 47L38 46L37 46L37 45L41 45L41 44L42 44L42 42L40 42L40 43L41 43L41 44L39 44L39 43L38 43L38 42L39 42L39 40L38 40L38 39L39 39L39 38L38 38L38 37L41 37L41 35L42 35L42 29L41 29L41 30L40 30L40 28L41 28L41 27L42 27L42 28L43 28L43 27L42 27L42 25L41 25L41 24L42 24L42 23L40 23L40 21L41 21L41 22L42 22L42 21L43 21L43 22L44 22L44 23L43 23L43 24L44 24L44 25L43 25L43 26L44 26L44 25L45 25L45 27L44 27L44 30L43 30L43 33L44 33L44 32L47 32L47 34L43 34L43 35L47 35L47 36L48 36L48 37L49 37L49 36L48 36L48 35L47 35L47 34L50 34L50 35L52 35L52 36L54 36L54 37L55 37L55 36L54 36L54 35L53 35L53 34L54 34L54 33L55 33L55 34L56 34L56 38L54 38L54 39L55 39L55 40L52 40L52 41L54 41L54 42L49 42L49 43L46 43L46 44L45 44L45 42L46 42L46 41L45 41L45 39L44 39L44 40L42 40L42 38L40 38L40 40L42 40L42 41L44 41L44 44L43 44L43 47L42 47L42 48L43 48L43 49L46 49L46 50L45 50L45 51L44 51L44 50L43 50L43 52L42 52L42 53L41 53L41 54L40 54L40 55L41 55L41 56L40 56L40 57L42 57L42 55L41 55L41 54L42 54L42 53L43 53L43 56L45 56L45 57L48 57L48 56L49 56L49 57L54 57L54 56L53 56L53 55L54 55L54 54L56 54L56 55L57 55L57 53L56 53L56 52L55 52L55 53L53 53L53 50L54 50L54 51L56 51L56 50L57 50L57 49L56 49L56 47L57 47L57 44L56 44L56 47L55 47L55 46L54 46L54 44L52 44L52 45L53 45L53 47L52 47L52 46L51 46L51 45L50 45L50 47L49 47L49 45L48 45L48 44L49 44L49 43L50 43L50 44L51 44L51 43L57 43L57 42L56 42L56 41L57 41L57 40L56 40L56 39L57 39L57 33L56 33L56 32L53 32L53 34L50 34L50 31L53 31L53 27L54 27L54 25L53 25L53 24L54 24L54 23L53 23L53 22L54 22L54 19L53 19L53 20L52 20L52 19L50 19L50 20L49 20L49 21L50 21L50 20L51 20L51 21L53 21L53 22L51 22L51 23L50 23L50 22L47 22L47 24L48 24L48 23L49 23L49 26L48 26L48 25L45 25L45 24L46 24L46 22L44 22L44 20L46 20L46 21L47 21L47 20L48 20L48 19L45 19L45 18L46 18L46 17L45 17L45 15L46 15L46 16L47 16L47 17L48 17L48 16L47 16L47 15L50 15L50 16L49 16L49 18L51 18L51 17L52 17L52 16L54 16L54 14L57 14L57 9L56 9L56 8L54 8L54 9L53 9L53 8L50 8L50 9L53 9L53 11L52 11L52 10L50 10L50 11L49 11L49 14L48 14L48 13L45 13L45 12L46 12L46 11L47 11L47 10L48 10L48 7L49 7L49 6L48 6L48 7L47 7L47 5L48 5L48 0L40 0L40 2L41 2L41 4L42 4L42 7L41 7L41 5L40 5L40 4L39 4L39 0L34 0L34 1L38 1L38 2L37 2L37 3L38 3L38 5L36 5L36 7L35 7L35 5L34 5L34 3L35 3L35 4L36 4L36 2L33 2L33 1L32 1L32 0L26 0L26 1L25 1L25 0L24 0L24 1L22 1L22 0L19 0L19 1L18 1L18 0ZM8 1L8 3L9 3L9 1ZM27 1L27 2L24 2L24 3L23 3L23 2L21 2L21 3L22 3L22 4L23 4L23 5L22 5L22 6L21 6L21 7L22 7L22 8L21 8L21 9L20 9L20 10L22 10L22 8L23 8L23 9L24 9L24 10L23 10L23 12L22 12L22 13L23 13L23 12L24 12L24 15L25 15L25 16L24 16L24 17L23 17L23 16L21 16L21 17L23 17L23 18L21 18L21 19L24 19L24 20L27 20L27 21L28 21L28 23L29 23L29 25L28 25L28 26L29 26L29 25L30 25L30 26L32 26L32 25L33 25L33 27L34 27L34 26L35 26L35 28L38 28L38 29L36 29L36 30L38 30L38 29L39 29L39 28L38 28L38 27L37 27L37 26L39 26L39 27L41 27L41 25L40 25L40 23L39 23L39 20L38 20L38 19L40 19L40 20L42 20L42 19L43 19L43 17L44 17L44 15L45 15L45 14L43 14L43 13L44 13L44 12L45 12L45 9L46 9L46 10L47 10L47 9L46 9L46 8L43 8L43 7L44 7L44 6L43 6L43 7L42 7L42 8L41 8L41 7L40 7L40 6L39 6L39 5L38 5L38 6L37 6L37 7L36 7L36 8L35 8L35 9L34 9L34 12L33 12L33 11L32 11L32 12L29 12L29 14L28 14L28 16L29 16L29 14L30 14L30 13L31 13L31 15L30 15L30 18L28 18L28 20L27 20L27 19L25 19L25 16L26 16L26 17L27 17L27 14L26 14L26 15L25 15L25 12L26 12L26 13L28 13L28 12L26 12L26 11L27 11L27 10L28 10L28 11L29 11L29 9L26 9L26 11L24 11L24 10L25 10L25 8L26 8L26 6L25 6L25 5L24 5L24 4L29 4L29 1ZM41 1L41 2L42 2L42 1ZM44 1L44 2L43 2L43 4L44 4L44 5L45 5L45 3L46 3L46 5L47 5L47 3L46 3L46 2L47 2L47 1ZM31 2L31 5L33 5L33 3L32 3L32 2ZM44 2L44 3L45 3L45 2ZM11 4L11 7L10 7L10 6L9 6L9 7L10 7L10 8L11 8L11 9L12 9L12 8L13 8L13 7L14 7L14 5L13 5L13 7L12 7L12 4ZM23 5L23 6L22 6L22 7L23 7L23 8L24 8L24 7L25 7L25 6L24 6L24 5ZM27 5L27 8L30 8L30 5ZM19 6L19 7L18 7L18 8L19 8L19 7L20 7L20 6ZM23 6L23 7L24 7L24 6ZM28 6L28 7L29 7L29 6ZM31 6L31 7L32 7L32 8L31 8L31 9L30 9L30 11L31 11L31 10L33 10L33 7L34 7L34 6L33 6L33 7L32 7L32 6ZM38 6L38 7L37 7L37 8L38 8L38 7L39 7L39 6ZM45 6L45 7L46 7L46 6ZM0 8L0 9L2 9L2 8ZM3 8L3 9L4 9L4 8ZM40 8L40 9L41 9L41 11L42 11L42 9L43 9L43 8L42 8L42 9L41 9L41 8ZM35 9L35 11L36 11L36 12L35 12L35 13L34 13L34 14L33 14L33 12L32 12L32 15L33 15L33 16L32 16L32 17L31 17L31 20L30 20L30 21L32 21L32 20L33 20L33 21L35 21L35 22L34 22L34 24L35 24L35 22L36 22L36 23L37 23L37 24L36 24L36 25L37 25L37 24L38 24L38 22L37 22L37 19L38 19L38 18L39 18L39 17L40 17L40 19L41 19L41 17L40 17L40 16L41 16L41 15L42 15L42 14L41 14L41 13L43 13L43 12L44 12L44 11L43 11L43 12L39 12L39 13L40 13L40 14L38 14L38 12L37 12L37 11L36 11L36 10L38 10L38 9ZM55 9L55 10L54 10L54 11L53 11L53 14L54 14L54 13L55 13L55 12L56 12L56 9ZM39 10L39 11L40 11L40 10ZM6 11L6 12L7 12L7 13L8 13L8 12L7 12L7 11ZM13 11L13 13L14 13L14 11ZM18 11L18 12L19 12L19 11ZM1 12L1 13L2 13L2 12ZM20 13L20 15L22 15L22 14L21 14L21 13ZM35 13L35 14L34 14L34 15L38 15L38 14L36 14L36 13ZM50 13L50 14L51 14L51 13ZM7 14L7 15L6 15L6 16L3 16L3 18L4 18L4 19L5 19L5 18L7 18L7 17L6 17L6 16L7 16L7 15L8 15L8 16L10 16L10 15L9 15L9 14ZM46 14L46 15L47 15L47 14ZM15 15L15 17L14 17L14 18L12 18L12 20L11 20L11 21L10 21L10 19L11 19L11 18L10 18L10 17L9 17L9 18L8 18L8 19L9 19L9 23L10 23L10 24L7 24L7 25L6 25L6 26L9 26L9 27L10 27L10 26L11 26L11 25L12 25L12 20L13 20L13 22L14 22L14 23L15 23L15 24L16 24L16 25L18 25L18 20L19 20L19 19L17 19L17 17L16 17L16 15ZM39 15L39 16L40 16L40 15ZM55 15L55 17L54 17L54 18L55 18L55 19L56 19L56 20L55 20L55 21L56 21L56 23L57 23L57 18L56 18L56 17L57 17L57 15ZM34 16L34 18L33 18L33 20L34 20L34 19L35 19L35 20L36 20L36 18L38 18L38 16L37 16L37 17L35 17L35 16ZM42 16L42 17L43 17L43 16ZM50 16L50 17L51 17L51 16ZM15 17L15 18L14 18L14 19L13 19L13 20L14 20L14 19L15 19L15 20L16 20L16 24L17 24L17 20L16 20L16 19L15 19L15 18L16 18L16 17ZM9 18L9 19L10 19L10 18ZM20 20L20 22L19 22L19 23L20 23L20 22L21 22L21 24L20 24L20 25L19 25L19 26L17 26L17 27L16 27L16 28L17 28L17 27L20 27L20 26L21 26L21 28L20 28L20 29L21 29L21 30L20 30L20 31L21 31L21 30L22 30L22 31L24 31L24 34L23 34L23 35L22 35L22 36L21 36L21 33L22 33L22 32L21 32L21 33L20 33L20 32L19 32L19 37L20 37L20 36L21 36L21 37L22 37L22 38L21 38L21 39L24 39L24 38L26 38L26 40L27 40L27 38L26 38L26 36L25 36L25 35L28 35L28 36L29 36L29 38L30 38L30 36L31 36L31 40L33 40L33 38L34 38L34 42L35 42L35 43L36 43L36 41L35 41L35 40L36 40L36 38L37 38L37 37L36 37L36 34L37 34L37 36L38 36L38 34L39 34L39 36L40 36L40 35L41 35L41 33L38 33L38 32L39 32L39 31L38 31L38 32L37 32L37 33L36 33L36 34L35 34L35 32L36 32L36 31L35 31L35 29L34 29L34 28L33 28L33 29L32 29L32 30L31 30L31 32L32 32L32 33L29 33L29 32L30 32L30 31L27 31L27 33L28 33L28 34L25 34L25 33L26 33L26 31L25 31L25 30L26 30L26 29L25 29L25 28L26 28L26 26L27 26L27 25L26 25L26 24L27 24L27 22L26 22L26 21L25 21L25 22L24 22L24 21L23 21L23 22L21 22L21 21L22 21L22 20ZM28 20L28 21L29 21L29 20ZM10 22L10 23L11 23L11 22ZM25 22L25 23L23 23L23 24L22 24L22 25L23 25L23 26L22 26L22 27L23 27L23 29L24 29L24 28L25 28L25 26L26 26L26 25L25 25L25 26L24 26L24 25L23 25L23 24L25 24L25 23L26 23L26 22ZM29 22L29 23L30 23L30 22ZM31 22L31 25L32 25L32 24L33 24L33 23L32 23L32 22ZM44 23L44 24L45 24L45 23ZM51 23L51 24L50 24L50 26L53 26L53 25L51 25L51 24L53 24L53 23ZM9 25L9 26L10 26L10 25ZM39 25L39 26L40 26L40 25ZM55 25L55 27L56 27L56 26L57 26L57 25ZM1 26L1 27L2 27L2 26ZM23 26L23 27L24 27L24 26ZM46 26L46 27L48 27L48 26ZM5 27L5 30L8 30L8 27ZM27 27L27 30L30 30L30 27ZM31 27L31 28L32 28L32 27ZM49 27L49 30L52 30L52 27ZM1 28L1 29L2 29L2 28ZM6 28L6 29L7 29L7 28ZM28 28L28 29L29 29L29 28ZM45 28L45 29L46 29L46 31L47 31L47 32L48 32L48 33L49 33L49 32L48 32L48 31L47 31L47 30L48 30L48 29L46 29L46 28ZM50 28L50 29L51 29L51 28ZM56 28L56 29L55 29L55 30L54 30L54 31L55 31L55 30L56 30L56 31L57 31L57 30L56 30L56 29L57 29L57 28ZM32 30L32 32L35 32L35 31L33 31L33 30ZM6 31L6 32L7 32L7 31ZM40 31L40 32L41 32L41 31ZM0 32L0 33L1 33L1 32ZM51 32L51 33L52 33L52 32ZM33 33L33 34L34 34L34 35L33 35L33 36L32 36L32 37L33 37L33 36L34 36L34 35L35 35L35 34L34 34L34 33ZM15 34L15 35L13 35L13 36L12 36L12 38L13 38L13 37L14 37L14 36L15 36L15 35L16 35L16 36L18 36L18 35L16 35L16 34ZM28 34L28 35L29 35L29 36L30 36L30 35L32 35L32 34L30 34L30 35L29 35L29 34ZM2 36L2 38L1 38L1 39L0 39L0 41L1 41L1 42L0 42L0 48L5 48L5 47L8 47L8 48L9 48L9 49L8 49L8 51L9 51L9 53L8 53L8 54L9 54L9 55L8 55L8 57L15 57L15 56L14 56L14 55L15 55L15 53L14 53L14 55L13 55L13 54L12 54L12 56L9 56L9 55L10 55L10 54L11 54L11 53L10 53L10 51L9 51L9 49L12 49L12 50L13 50L13 49L12 49L12 47L15 47L15 46L14 46L14 45L13 45L13 44L11 44L11 43L9 43L9 44L8 44L8 45L7 45L7 44L5 44L5 43L4 43L4 44L5 44L5 45L4 45L4 46L5 46L5 47L3 47L3 45L2 45L2 44L1 44L1 42L2 42L2 43L3 43L3 42L4 42L4 39L5 39L5 41L7 41L7 40L6 40L6 39L7 39L7 38L6 38L6 37L7 37L7 36L5 36L5 38L3 38L3 37L4 37L4 36ZM10 36L10 37L11 37L11 36ZM22 36L22 37L23 37L23 38L24 38L24 37L25 37L25 36ZM43 36L43 37L44 37L44 38L45 38L45 36ZM50 36L50 38L51 38L51 36ZM34 37L34 38L36 38L36 37ZM46 37L46 38L47 38L47 39L48 39L48 41L47 41L47 42L48 42L48 41L51 41L51 39L50 39L50 40L49 40L49 38L47 38L47 37ZM52 37L52 38L53 38L53 37ZM17 38L17 39L16 39L16 40L17 40L17 39L18 39L18 40L19 40L19 41L21 41L21 42L22 42L22 41L23 41L23 40L20 40L20 38ZM1 39L1 40L2 40L2 39ZM12 39L12 40L15 40L15 39ZM28 39L28 40L30 40L30 39ZM8 40L8 42L9 42L9 40ZM2 41L2 42L3 42L3 41ZM12 41L12 42L13 42L13 41ZM26 41L26 42L25 42L25 43L24 43L24 46L25 46L25 47L24 47L24 49L22 49L22 50L21 50L21 51L22 51L22 50L23 50L23 52L22 52L22 53L24 53L24 52L25 52L25 51L26 51L26 50L25 50L25 48L26 48L26 47L27 47L27 48L29 48L29 47L30 47L30 46L31 46L31 47L32 47L32 48L33 48L33 49L34 49L34 47L36 47L36 46L35 46L35 45L36 45L36 44L34 44L34 43L33 43L33 44L32 44L32 41L31 41L31 45L30 45L30 46L29 46L29 44L26 44L26 42L27 42L27 43L29 43L29 42L30 42L30 41L28 41L28 42L27 42L27 41ZM6 42L6 43L7 43L7 42ZM19 42L19 43L20 43L20 44L21 44L21 43L20 43L20 42ZM14 43L14 44L15 44L15 43ZM9 44L9 45L11 45L11 46L10 46L10 47L9 47L9 46L8 46L8 47L9 47L9 48L10 48L10 47L12 47L12 45L11 45L11 44ZM25 44L25 46L27 46L27 47L28 47L28 46L27 46L27 45L26 45L26 44ZM44 44L44 45L45 45L45 44ZM46 44L46 46L45 46L45 47L44 47L44 48L45 48L45 47L46 47L46 49L47 49L47 50L46 50L46 51L48 51L48 48L47 48L47 47L46 47L46 46L48 46L48 45L47 45L47 44ZM5 45L5 46L7 46L7 45ZM31 45L31 46L32 46L32 47L33 47L33 46L32 46L32 45ZM1 46L1 47L2 47L2 46ZM51 47L51 48L52 48L52 47ZM54 47L54 48L53 48L53 49L54 49L54 48L55 48L55 47ZM6 48L6 49L7 49L7 48ZM27 49L27 52L30 52L30 49ZM38 49L38 50L39 50L39 51L40 51L40 50L41 50L41 49L40 49L40 50L39 50L39 49ZM49 49L49 52L52 52L52 49ZM55 49L55 50L56 50L56 49ZM24 50L24 51L25 51L25 50ZM28 50L28 51L29 51L29 50ZM50 50L50 51L51 51L51 50ZM46 52L46 53L45 53L45 54L44 54L44 55L45 55L45 56L47 56L47 55L48 55L48 53L47 53L47 52ZM9 53L9 54L10 54L10 53ZM49 53L49 54L50 54L50 53ZM51 53L51 54L53 54L53 53ZM29 54L29 55L28 55L28 56L30 56L30 55L31 55L31 54ZM50 55L50 56L51 56L51 55ZM55 56L55 57L56 57L56 56ZM0 0L0 7L7 7L7 0ZM1 1L1 6L6 6L6 1ZM2 2L2 5L5 5L5 2ZM50 0L50 7L57 7L57 0ZM51 1L51 6L56 6L56 1ZM52 2L52 5L55 5L55 2ZM0 50L0 57L7 57L7 50ZM1 51L1 56L6 56L6 51ZM2 52L2 55L5 55L5 52Z" fill="#000000"/></g></g></svg>
