<?xml version="1.0" encoding="UTF-8"?>
<svg xmlns="http://www.w3.org/2000/svg" version="1.1" width="100" height="100" viewBox="0 0 100 100"><rect x="0" y="0" width="100" height="100" fill="#ffffff"/><g transform="scale(1.754)"><g transform="translate(0,0)"><path fill-rule="evenodd" d="M8 0L8 4L9 4L9 5L8 5L8 7L9 7L9 9L10 9L10 7L11 7L11 4L12 4L12 5L14 5L14 7L13 7L13 6L12 6L12 7L13 7L13 8L11 8L11 9L13 9L13 8L14 8L14 10L12 10L12 12L11 12L11 10L6 10L6 9L7 9L7 8L4 8L4 9L2 9L2 8L0 8L0 13L2 13L2 14L1 14L1 15L0 15L0 16L1 16L1 17L3 17L3 16L4 16L4 13L5 13L5 16L6 16L6 17L7 17L7 18L6 18L6 19L5 19L5 21L4 21L4 20L3 20L3 23L2 23L2 24L4 24L4 25L3 25L3 26L2 26L2 27L4 27L4 29L3 29L3 28L2 28L2 29L1 29L1 28L0 28L0 29L1 29L1 30L2 30L2 31L3 31L3 32L2 32L2 33L1 33L1 31L0 31L0 34L3 34L3 32L4 32L4 34L6 34L6 35L4 35L4 36L2 36L2 35L1 35L1 37L0 37L0 42L2 42L2 41L5 41L5 40L6 40L6 41L7 41L7 40L8 40L8 43L9 43L9 44L10 44L10 47L12 47L12 45L13 45L13 46L15 46L15 47L13 47L13 50L12 50L12 48L11 48L11 49L10 49L10 48L8 48L8 47L9 47L9 46L8 46L8 44L6 44L6 43L7 43L7 42L6 42L6 43L5 43L5 42L3 42L3 43L5 43L5 44L4 44L4 45L3 45L3 44L2 44L2 45L1 45L1 43L0 43L0 45L1 45L1 46L0 46L0 48L5 48L5 47L7 47L7 48L6 48L6 49L7 49L7 48L8 48L8 50L9 50L9 51L8 51L8 53L9 53L9 55L8 55L8 57L11 57L11 56L9 56L9 55L10 55L10 54L11 54L11 55L12 55L12 57L15 57L15 55L16 55L16 54L17 54L17 56L16 56L16 57L19 57L19 55L20 55L20 54L21 54L21 53L22 53L22 56L23 56L23 57L24 57L24 56L25 56L25 57L27 57L27 56L26 56L26 55L28 55L28 57L29 57L29 55L30 55L30 57L31 57L31 54L30 54L30 53L31 53L31 50L32 50L32 49L33 49L33 47L34 47L34 44L35 44L35 45L37 45L37 44L39 44L39 45L38 45L38 47L36 47L36 46L35 46L35 47L36 47L36 49L35 49L35 50L37 50L37 51L34 51L34 50L33 50L33 51L34 51L34 52L32 52L32 55L33 55L33 54L34 54L34 52L35 52L35 56L34 56L34 57L35 57L35 56L36 56L36 57L39 57L39 56L37 56L37 55L41 55L41 56L42 56L42 55L43 55L43 57L46 57L46 56L45 56L45 55L46 55L46 51L44 51L44 50L46 50L46 49L47 49L47 50L48 50L48 51L47 51L47 53L50 53L50 54L49 54L49 55L48 55L48 54L47 54L47 56L50 56L50 54L52 54L52 55L51 55L51 57L52 57L52 56L53 56L53 54L54 54L54 55L55 55L55 54L57 54L57 53L56 53L56 49L55 49L55 48L54 48L54 49L55 49L55 54L54 54L54 53L53 53L53 48L49 48L49 47L50 47L50 46L49 46L49 47L48 47L48 49L47 49L47 47L46 47L46 46L45 46L45 47L44 47L44 49L42 49L42 50L41 50L41 49L40 49L40 47L41 47L41 48L43 48L43 46L44 46L44 45L45 45L45 43L46 43L46 45L47 45L47 46L48 46L48 45L47 45L47 44L49 44L49 45L51 45L51 46L52 46L52 47L53 47L53 46L52 46L52 45L51 45L51 43L50 43L50 42L49 42L49 41L51 41L51 42L52 42L52 43L53 43L53 42L52 42L52 41L55 41L55 43L56 43L56 41L57 41L57 40L53 40L53 39L52 39L52 37L53 37L53 38L55 38L55 39L57 39L57 38L56 38L56 37L57 37L57 36L56 36L56 33L57 33L57 32L56 32L56 33L55 33L55 32L54 32L54 34L53 34L53 35L55 35L55 36L54 36L54 37L53 37L53 36L52 36L52 37L51 37L51 35L50 35L50 34L52 34L52 33L53 33L53 32L50 32L50 31L54 31L54 30L56 30L56 29L57 29L57 28L56 28L56 26L55 26L55 25L56 25L56 24L57 24L57 23L56 23L56 22L55 22L55 21L54 21L54 22L53 22L53 23L52 23L52 24L51 24L51 25L50 25L50 26L49 26L49 25L48 25L48 27L47 27L47 28L46 28L46 27L43 27L43 25L44 25L44 26L45 26L45 24L46 24L46 25L47 25L47 22L49 22L49 21L48 21L48 19L49 19L49 18L50 18L50 23L51 23L51 22L52 22L52 15L53 15L53 16L54 16L54 15L55 15L55 14L54 14L54 13L53 13L53 14L52 14L52 15L51 15L51 13L52 13L52 11L53 11L53 12L54 12L54 11L55 11L55 12L56 12L56 13L57 13L57 12L56 12L56 10L54 10L54 11L53 11L53 10L52 10L52 8L51 8L51 9L50 9L50 10L49 10L49 9L48 9L48 10L47 10L47 11L45 11L45 8L48 8L48 7L49 7L49 6L48 6L48 7L47 7L47 5L48 5L48 0L44 0L44 3L42 3L42 1L43 1L43 0L41 0L41 3L40 3L40 1L39 1L39 0L38 0L38 1L37 1L37 0L35 0L35 1L33 1L33 2L34 2L34 3L33 3L33 5L32 5L32 7L31 7L31 4L32 4L32 3L30 3L30 2L29 2L29 1L31 1L31 0L29 0L29 1L28 1L28 0L24 0L24 1L27 1L27 3L28 3L28 4L26 4L26 3L25 3L25 2L23 2L23 3L22 3L22 2L18 2L18 0L17 0L17 1L16 1L16 0L14 0L14 2L12 2L12 3L11 3L11 4L9 4L9 3L10 3L10 1L9 1L9 0ZM11 0L11 1L13 1L13 0ZM20 0L20 1L23 1L23 0ZM15 1L15 2L14 2L14 5L16 5L16 6L15 6L15 7L14 7L14 8L15 8L15 9L16 9L16 10L18 10L18 11L17 11L17 13L16 13L16 11L15 11L15 12L14 12L14 11L13 11L13 12L12 12L12 13L11 13L11 12L10 12L10 11L9 11L9 12L7 12L7 11L5 11L5 9L4 9L4 10L2 10L2 9L1 9L1 12L3 12L3 13L4 13L4 12L5 12L5 13L6 13L6 14L7 14L7 15L6 15L6 16L10 16L10 17L12 17L12 18L9 18L9 20L7 20L7 19L6 19L6 20L7 20L7 21L6 21L6 22L7 22L7 23L6 23L6 24L5 24L5 23L4 23L4 24L5 24L5 26L7 26L7 25L6 25L6 24L8 24L8 25L10 25L10 26L12 26L12 28L9 28L9 29L10 29L10 30L9 30L9 31L8 31L8 32L7 32L7 31L6 31L6 32L7 32L7 33L6 33L6 34L7 34L7 35L6 35L6 36L9 36L9 34L7 34L7 33L8 33L8 32L9 32L9 33L10 33L10 34L11 34L11 33L10 33L10 30L13 30L13 31L12 31L12 34L13 34L13 35L15 35L15 34L16 34L16 35L19 35L19 34L20 34L20 33L21 33L21 35L23 35L23 34L24 34L24 33L25 33L25 32L26 32L26 34L28 34L28 35L29 35L29 36L28 36L28 37L26 37L26 39L25 39L25 38L24 38L24 37L23 37L23 36L21 36L21 37L17 37L17 36L16 36L16 37L13 37L13 36L12 36L12 37L8 37L8 38L7 38L7 37L5 37L5 38L7 38L7 39L6 39L6 40L7 40L7 39L8 39L8 40L9 40L9 42L10 42L10 43L12 43L12 44L11 44L11 45L12 45L12 44L14 44L14 41L16 41L16 42L18 42L18 43L17 43L17 45L16 45L16 43L15 43L15 45L16 45L16 47L15 47L15 49L14 49L14 50L13 50L13 54L12 54L12 50L10 50L10 51L11 51L11 52L10 52L10 53L11 53L11 54L12 54L12 55L15 55L15 54L14 54L14 53L17 53L17 54L18 54L18 55L19 55L19 53L20 53L20 52L19 52L19 51L20 51L20 49L21 49L21 50L22 50L22 49L23 49L23 48L24 48L24 49L25 49L25 50L23 50L23 51L22 51L22 53L24 53L24 54L28 54L28 53L26 53L26 48L28 48L28 46L30 46L30 47L29 47L29 48L30 48L30 47L31 47L31 49L32 49L32 47L33 47L33 46L32 46L32 47L31 47L31 46L30 46L30 44L29 44L29 45L28 45L28 44L27 44L27 45L26 45L26 43L27 43L27 42L28 42L28 43L31 43L31 44L32 44L32 43L34 43L34 42L36 42L36 43L37 43L37 41L35 41L35 40L36 40L36 39L37 39L37 40L39 40L39 41L40 41L40 42L41 42L41 43L39 43L39 44L40 44L40 46L41 46L41 43L42 43L42 45L44 45L44 43L45 43L45 42L46 42L46 43L47 43L47 41L48 41L48 39L51 39L51 41L52 41L52 39L51 39L51 37L50 37L50 38L48 38L48 39L47 39L47 37L48 37L48 36L49 36L49 35L47 35L47 34L49 34L49 33L50 33L50 32L48 32L48 29L46 29L46 28L45 28L45 30L44 30L44 28L42 28L42 27L41 27L41 26L42 26L42 25L43 25L43 24L44 24L44 23L46 23L46 22L47 22L47 20L45 20L45 21L46 21L46 22L44 22L44 23L40 23L40 22L42 22L42 19L40 19L40 21L39 21L39 24L38 24L38 21L36 21L36 19L37 19L37 20L38 20L38 19L37 19L37 18L38 18L38 13L39 13L39 12L40 12L40 14L39 14L39 16L40 16L40 17L41 17L41 18L42 18L42 16L43 16L43 17L44 17L44 16L43 16L43 15L45 15L45 18L44 18L44 19L45 19L45 18L46 18L46 19L47 19L47 18L48 18L48 17L49 17L49 14L50 14L50 12L51 12L51 11L52 11L52 10L50 10L50 11L48 11L48 12L47 12L47 13L46 13L46 12L45 12L45 13L43 13L43 15L40 15L40 14L41 14L41 12L40 12L40 10L41 10L41 11L42 11L42 12L44 12L44 11L42 11L42 9L41 9L41 7L42 7L42 8L43 8L43 7L44 7L44 6L43 6L43 5L42 5L42 4L40 4L40 3L39 3L39 4L40 4L40 5L38 5L38 4L37 4L37 3L36 3L36 4L34 4L34 5L33 5L33 7L32 7L32 8L33 8L33 7L34 7L34 5L35 5L35 7L36 7L36 9L35 9L35 8L34 8L34 9L33 9L33 10L32 10L32 9L31 9L31 12L30 12L30 9L28 9L28 10L27 10L27 11L26 11L26 10L24 10L24 9L26 9L26 6L25 6L25 7L24 7L24 6L23 6L23 5L24 5L24 4L25 4L25 3L23 3L23 5L21 5L21 3L18 3L18 2L17 2L17 4L16 4L16 3L15 3L15 2L16 2L16 1ZM38 1L38 2L39 2L39 1ZM46 1L46 2L47 2L47 1ZM28 2L28 3L29 3L29 2ZM12 3L12 4L13 4L13 3ZM44 3L44 5L45 5L45 7L46 7L46 5L47 5L47 3L46 3L46 5L45 5L45 3ZM9 5L9 7L10 7L10 5ZM18 5L18 7L17 7L17 6L16 6L16 7L15 7L15 8L16 8L16 9L17 9L17 8L18 8L18 9L19 9L19 10L23 10L23 12L22 12L22 11L21 11L21 12L20 12L20 14L19 14L19 12L18 12L18 13L17 13L17 14L16 14L16 13L12 13L12 16L14 16L14 17L13 17L13 18L12 18L12 19L10 19L10 20L11 20L11 22L10 22L10 21L9 21L9 22L10 22L10 23L11 23L11 24L10 24L10 25L12 25L12 24L13 24L13 26L14 26L14 28L16 28L16 29L13 29L13 30L16 30L16 32L14 32L14 31L13 31L13 34L15 34L15 33L20 33L20 32L24 32L24 31L26 31L26 32L27 32L27 31L30 31L30 33L29 33L29 32L28 32L28 33L29 33L29 35L30 35L30 34L31 34L31 30L32 30L32 29L33 29L33 30L34 30L34 28L35 28L35 30L37 30L37 31L36 31L36 34L35 34L35 35L34 35L34 34L33 34L33 32L34 32L34 33L35 33L35 31L32 31L32 35L31 35L31 36L29 36L29 38L28 38L28 39L27 39L27 40L25 40L25 41L24 41L24 39L23 39L23 41L19 41L19 40L22 40L22 38L23 38L23 37L22 37L22 38L20 38L20 39L19 39L19 38L18 38L18 39L17 39L17 38L16 38L16 39L15 39L15 38L13 38L13 37L12 37L12 38L10 38L10 39L11 39L11 40L10 40L10 42L12 42L12 43L13 43L13 42L12 42L12 41L11 41L11 40L12 40L12 38L13 38L13 39L14 39L14 40L16 40L16 41L17 41L17 40L18 40L18 41L19 41L19 42L23 42L23 44L22 44L22 43L21 43L21 45L20 45L20 43L19 43L19 44L18 44L18 45L17 45L17 46L19 46L19 45L20 45L20 47L19 47L19 48L16 48L16 49L17 49L17 50L18 50L18 49L20 49L20 48L21 48L21 49L22 49L22 47L24 47L24 46L25 46L25 48L26 48L26 47L27 47L27 46L28 46L28 45L27 45L27 46L26 46L26 45L24 45L24 46L21 46L21 45L23 45L23 44L24 44L24 42L26 42L26 41L32 41L32 42L33 42L33 41L34 41L34 40L35 40L35 39L33 39L33 38L34 38L34 37L35 37L35 36L36 36L36 38L37 38L37 39L41 39L41 40L42 40L42 43L43 43L43 41L44 41L44 42L45 42L45 39L46 39L46 40L47 40L47 39L46 39L46 37L47 37L47 35L46 35L46 37L45 37L45 35L43 35L43 33L42 33L42 35L41 35L41 34L40 34L40 31L41 31L41 32L42 32L42 31L43 31L43 32L44 32L44 34L46 34L46 33L47 33L47 31L44 31L44 30L43 30L43 29L41 29L41 30L40 30L40 31L39 31L39 33L38 33L38 30L39 30L39 29L40 29L40 26L41 26L41 25L40 25L40 26L39 26L39 25L38 25L38 24L36 24L36 22L35 22L35 24L34 24L34 25L33 25L33 26L32 26L32 25L30 25L30 26L29 26L29 25L28 25L28 23L29 23L29 24L30 24L30 23L34 23L34 20L35 20L35 19L36 19L36 18L37 18L37 14L36 14L36 13L37 13L37 12L39 12L39 10L40 10L40 9L39 9L39 8L38 8L38 7L39 7L39 6L38 6L38 5L37 5L37 6L36 6L36 7L37 7L37 10L36 10L36 11L35 11L35 10L34 10L34 11L32 11L32 12L31 12L31 14L32 14L32 15L31 15L31 16L32 16L32 17L29 17L29 15L30 15L30 13L29 13L29 15L27 15L27 17L26 17L26 14L25 14L25 13L24 13L24 10L23 10L23 9L24 9L24 7L23 7L23 6L22 6L22 7L21 7L21 6L20 6L20 5ZM27 5L27 8L30 8L30 5ZM40 5L40 7L41 7L41 5ZM19 6L19 7L18 7L18 8L19 8L19 9L23 9L23 7L22 7L22 8L19 8L19 7L20 7L20 6ZM28 6L28 7L29 7L29 6ZM37 6L37 7L38 7L38 6ZM42 6L42 7L43 7L43 6ZM53 8L53 9L57 9L57 8ZM43 9L43 10L44 10L44 9ZM28 10L28 11L27 11L27 12L28 12L28 11L29 11L29 10ZM3 11L3 12L4 12L4 11ZM25 11L25 12L26 12L26 11ZM6 12L6 13L7 13L7 14L8 14L8 13L7 13L7 12ZM9 12L9 13L10 13L10 12ZM33 12L33 13L32 13L32 14L33 14L33 15L32 15L32 16L33 16L33 15L34 15L34 17L33 17L33 18L32 18L32 19L33 19L33 20L34 20L34 19L35 19L35 18L36 18L36 17L35 17L35 15L36 15L36 14L35 14L35 13L34 13L34 12ZM21 13L21 14L20 14L20 15L21 15L21 14L24 14L24 13ZM33 13L33 14L34 14L34 13ZM48 13L48 14L47 14L47 15L48 15L48 14L49 14L49 13ZM2 14L2 15L3 15L3 14ZM10 14L10 15L11 15L11 14ZM15 14L15 17L14 17L14 18L13 18L13 19L12 19L12 20L13 20L13 19L14 19L14 20L15 20L15 21L17 21L17 20L19 20L19 21L18 21L18 23L19 23L19 25L18 25L18 24L17 24L17 22L16 22L16 23L15 23L15 22L14 22L14 21L12 21L12 23L15 23L15 24L17 24L17 25L16 25L16 26L15 26L15 25L14 25L14 26L15 26L15 27L16 27L16 26L17 26L17 27L18 27L18 26L19 26L19 28L18 28L18 29L16 29L16 30L18 30L18 31L17 31L17 32L18 32L18 31L19 31L19 30L20 30L20 29L22 29L22 30L21 30L21 31L23 31L23 30L24 30L24 29L25 29L25 30L26 30L26 29L25 29L25 28L24 28L24 29L23 29L23 28L22 28L22 27L21 27L21 28L20 28L20 26L19 26L19 25L23 25L23 27L26 27L26 25L25 25L25 24L24 24L24 23L23 23L23 24L22 24L22 23L21 23L21 22L22 22L22 21L24 21L24 22L25 22L25 23L26 23L26 22L27 22L27 23L28 23L28 22L29 22L29 23L30 23L30 22L29 22L29 20L31 20L31 22L33 22L33 21L32 21L32 20L31 20L31 19L30 19L30 18L28 18L28 17L27 17L27 18L26 18L26 19L24 19L24 20L21 20L21 22L20 22L20 23L19 23L19 21L20 21L20 20L19 20L19 18L20 18L20 19L21 19L21 18L22 18L22 19L23 19L23 18L24 18L24 17L25 17L25 16L24 16L24 17L23 17L23 15L22 15L22 16L21 16L21 18L20 18L20 16L19 16L19 14L17 14L17 15L16 15L16 14ZM56 15L56 16L55 16L55 18L53 18L53 20L54 20L54 19L56 19L56 20L57 20L57 19L56 19L56 17L57 17L57 15ZM16 16L16 17L17 17L17 18L18 18L18 17L19 17L19 16ZM47 16L47 17L48 17L48 16ZM50 16L50 17L51 17L51 16ZM22 17L22 18L23 18L23 17ZM0 18L0 20L1 20L1 18ZM2 18L2 19L4 19L4 18ZM15 18L15 20L16 20L16 18ZM33 18L33 19L34 19L34 18ZM27 19L27 20L28 20L28 19ZM24 20L24 21L25 21L25 20ZM43 20L43 21L44 21L44 20ZM0 21L0 22L2 22L2 21ZM7 21L7 22L8 22L8 21ZM53 23L53 24L52 24L52 25L53 25L53 26L54 26L54 25L55 25L55 23ZM0 24L0 25L1 25L1 24ZM35 24L35 25L36 25L36 24ZM24 25L24 26L25 26L25 25ZM27 25L27 26L28 26L28 25ZM35 26L35 28L37 28L37 27L36 27L36 26ZM5 27L5 30L8 30L8 27ZM27 27L27 30L30 30L30 27ZM33 27L33 28L34 28L34 27ZM49 27L49 30L52 30L52 27ZM53 27L53 30L54 30L54 29L56 29L56 28L55 28L55 27ZM6 28L6 29L7 29L7 28ZM19 28L19 29L18 29L18 30L19 30L19 29L20 29L20 28ZM28 28L28 29L29 29L29 28ZM38 28L38 29L37 29L37 30L38 30L38 29L39 29L39 28ZM50 28L50 29L51 29L51 28ZM41 30L41 31L42 31L42 30ZM4 31L4 32L5 32L5 31ZM45 32L45 33L46 33L46 32ZM22 33L22 34L23 34L23 33ZM37 33L37 34L36 34L36 35L37 35L37 34L38 34L38 36L37 36L37 38L38 38L38 36L40 36L40 37L44 37L44 38L43 38L43 39L42 39L42 40L43 40L43 39L45 39L45 37L44 37L44 36L43 36L43 35L42 35L42 36L41 36L41 35L39 35L39 34L38 34L38 33ZM10 35L10 36L11 36L11 35ZM24 35L24 36L27 36L27 35ZM32 35L32 36L31 36L31 37L30 37L30 39L29 39L29 40L30 40L30 39L32 39L32 40L33 40L33 39L32 39L32 38L33 38L33 37L34 37L34 36L33 36L33 35ZM32 36L32 37L31 37L31 38L32 38L32 37L33 37L33 36ZM2 37L2 38L3 38L3 39L4 39L4 38L3 38L3 37ZM18 39L18 40L19 40L19 39ZM23 41L23 42L24 42L24 41ZM49 43L49 44L50 44L50 43ZM5 44L5 45L6 45L6 46L7 46L7 47L8 47L8 46L7 46L7 45L6 45L6 44ZM55 44L55 45L54 45L54 46L55 46L55 47L56 47L56 48L57 48L57 47L56 47L56 46L55 46L55 45L56 45L56 44ZM2 45L2 46L1 46L1 47L2 47L2 46L3 46L3 47L5 47L5 46L3 46L3 45ZM27 49L27 52L30 52L30 49ZM37 49L37 50L38 50L38 49ZM39 49L39 50L40 50L40 49ZM49 49L49 52L52 52L52 49ZM14 50L14 51L15 51L15 52L17 52L17 53L19 53L19 52L17 52L17 51L16 51L16 50ZM28 50L28 51L29 51L29 50ZM50 50L50 51L51 51L51 50ZM38 51L38 52L37 52L37 54L38 54L38 52L39 52L39 51ZM40 51L40 54L41 54L41 53L42 53L42 52L44 52L44 51ZM24 52L24 53L25 53L25 52ZM52 53L52 54L53 54L53 53ZM23 55L23 56L24 56L24 55ZM56 56L56 57L57 57L57 56ZM0 0L0 7L7 7L7 0ZM1 1L1 6L6 6L6 1ZM2 2L2 5L5 5L5 2ZM50 0L50 7L57 7L57 0ZM51 1L51 6L56 6L56 1ZM52 2L52 5L55 5L55 2ZM0 50L0 57L7 57L7 50ZM1 51L1 56L6 56L6 51ZM2 52L2 55L5 55L5 52Z" fill="#000000"/></g></g></svg>
