<?xml version="1.0" encoding="UTF-8"?>
<svg xmlns="http://www.w3.org/2000/svg" version="1.1" width="100" height="100" viewBox="0 0 100 100"><rect x="0" y="0" width="100" height="100" fill="#ffffff"/><g transform="scale(1.887)"><g transform="translate(0,0)"><path fill-rule="evenodd" d="M8 0L8 1L10 1L10 0ZM14 0L14 1L13 1L13 2L12 2L12 4L9 4L9 3L11 3L11 2L8 2L8 5L9 5L9 6L8 6L8 7L9 7L9 6L10 6L10 8L8 8L8 9L7 9L7 8L6 8L6 9L4 9L4 8L0 8L0 13L1 13L1 14L0 14L0 19L1 19L1 20L0 20L0 22L1 22L1 23L0 23L0 24L2 24L2 23L3 23L3 24L4 24L4 25L0 25L0 27L2 27L2 28L0 28L0 32L1 32L1 33L0 33L0 34L1 34L1 36L0 36L0 38L1 38L1 39L0 39L0 40L2 40L2 41L3 41L3 43L2 43L2 42L1 42L1 41L0 41L0 43L1 43L1 44L3 44L3 45L4 45L4 44L3 44L3 43L7 43L7 44L6 44L6 45L8 45L8 46L9 46L9 49L8 49L8 53L10 53L10 52L11 52L11 53L14 53L14 51L15 51L15 52L16 52L16 53L18 53L18 52L19 52L19 51L21 51L21 53L22 53L22 52L23 52L23 53L24 53L24 52L23 52L23 51L25 51L25 53L27 53L27 52L26 52L26 51L25 51L25 50L27 50L27 51L28 51L28 52L29 52L29 53L31 53L31 52L29 52L29 51L28 51L28 50L29 50L29 48L31 48L31 50L30 50L30 51L31 51L31 50L32 50L32 53L33 53L33 50L34 50L34 49L35 49L35 50L37 50L37 51L35 51L35 52L37 52L37 53L39 53L39 52L41 52L41 50L39 50L39 49L40 49L40 48L39 48L39 47L37 47L37 46L38 46L38 45L39 45L39 46L41 46L41 47L42 47L42 48L41 48L41 49L43 49L43 48L44 48L44 49L48 49L48 50L47 50L47 52L46 52L46 53L47 53L47 52L50 52L50 51L51 51L51 53L52 53L52 50L53 50L53 48L52 48L52 50L50 50L50 49L51 49L51 48L50 48L50 49L49 49L49 47L50 47L50 46L51 46L51 47L52 47L52 46L53 46L53 43L50 43L50 42L52 42L52 39L53 39L53 36L52 36L52 35L51 35L51 36L50 36L50 39L47 39L47 38L48 38L48 37L47 37L47 38L44 38L44 37L43 37L43 36L42 36L42 35L41 35L41 34L43 34L43 35L44 35L44 36L45 36L45 35L46 35L46 34L45 34L45 35L44 35L44 32L45 32L45 33L47 33L47 36L48 36L48 35L50 35L50 34L53 34L53 31L52 31L52 29L49 29L49 28L50 28L50 27L51 27L51 28L53 28L53 24L50 24L50 25L49 25L49 23L47 23L47 22L50 22L50 23L51 23L51 22L50 22L50 21L51 21L51 20L52 20L52 19L51 19L51 18L50 18L50 15L51 15L51 14L50 14L50 13L51 13L51 12L50 12L50 11L52 11L52 12L53 12L53 11L52 11L52 10L51 10L51 8L48 8L48 9L47 9L47 10L46 10L46 8L45 8L45 6L44 6L44 7L43 7L43 3L44 3L44 4L45 4L45 3L44 3L44 1L43 1L43 0L42 0L42 2L43 2L43 3L41 3L41 4L42 4L42 7L43 7L43 8L44 8L44 9L41 9L41 5L39 5L39 4L38 4L38 3L37 3L37 2L38 2L38 0L37 0L37 2L36 2L36 1L34 1L34 0L32 0L32 2L31 2L31 0L30 0L30 1L29 1L29 2L31 2L31 3L30 3L30 4L29 4L29 3L28 3L28 1L27 1L27 3L26 3L26 4L24 4L24 7L23 7L23 6L22 6L22 5L23 5L23 4L21 4L21 3L24 3L24 2L21 2L21 1L19 1L19 3L18 3L18 2L16 2L16 3L15 3L15 5L16 5L16 4L17 4L17 3L18 3L18 5L19 5L19 6L18 6L18 7L17 7L17 6L16 6L16 7L15 7L15 6L14 6L14 5L12 5L12 4L14 4L14 3L13 3L13 2L15 2L15 1L16 1L16 0ZM17 0L17 1L18 1L18 0ZM23 0L23 1L25 1L25 0ZM39 0L39 2L40 2L40 0ZM33 1L33 3L31 3L31 4L30 4L30 5L31 5L31 4L33 4L33 5L32 5L32 6L31 6L31 7L30 7L30 6L29 6L29 7L30 7L30 8L29 8L29 10L27 10L27 9L26 9L26 10L27 10L27 11L24 11L24 12L22 12L22 11L23 11L23 10L22 10L22 11L21 11L21 12L20 12L20 11L19 11L19 10L21 10L21 9L20 9L20 8L21 8L21 7L22 7L22 6L21 6L21 5L20 5L20 6L19 6L19 7L20 7L20 8L17 8L17 7L16 7L16 10L14 10L14 11L15 11L15 12L14 12L14 13L13 13L13 14L12 14L12 11L13 11L13 10L12 10L12 9L11 9L11 8L10 8L10 9L8 9L8 10L7 10L7 9L6 9L6 10L7 10L7 11L5 11L5 10L4 10L4 9L2 9L2 11L3 11L3 13L2 13L2 12L1 12L1 13L2 13L2 14L3 14L3 18L2 18L2 17L1 17L1 18L2 18L2 21L3 21L3 23L4 23L4 24L10 24L10 23L11 23L11 26L9 26L9 27L10 27L10 28L9 28L9 29L8 29L8 30L9 30L9 31L10 31L10 33L9 33L9 34L10 34L10 33L11 33L11 34L12 34L12 35L10 35L10 36L11 36L11 37L12 37L12 35L13 35L13 36L14 36L14 37L13 37L13 39L12 39L12 40L14 40L14 42L12 42L12 41L11 41L11 39L10 39L10 37L9 37L9 35L8 35L8 33L5 33L5 31L6 31L6 32L8 32L8 31L6 31L6 30L7 30L7 29L5 29L5 31L4 31L4 27L3 27L3 31L2 31L2 29L1 29L1 31L2 31L2 33L3 33L3 31L4 31L4 33L5 33L5 34L7 34L7 35L4 35L4 34L2 34L2 35L3 35L3 39L2 39L2 40L3 40L3 39L6 39L6 40L5 40L5 41L6 41L6 42L7 42L7 41L8 41L8 45L9 45L9 46L10 46L10 48L11 48L11 49L12 49L12 51L11 51L11 50L9 50L9 51L11 51L11 52L12 52L12 51L14 51L14 50L15 50L15 51L16 51L16 52L18 52L18 51L17 51L17 50L18 50L18 47L19 47L19 44L20 44L20 42L21 42L21 41L22 41L22 42L23 42L23 47L22 47L22 46L21 46L21 45L22 45L22 43L21 43L21 45L20 45L20 46L21 46L21 47L20 47L20 48L22 48L22 49L21 49L21 51L22 51L22 49L23 49L23 50L24 50L24 48L23 48L23 47L24 47L24 44L25 44L25 43L24 43L24 42L26 42L26 43L27 43L27 44L29 44L29 47L30 47L30 45L31 45L31 42L33 42L33 41L34 41L34 40L36 40L36 41L35 41L35 42L36 42L36 43L37 43L37 44L36 44L36 46L35 46L35 43L32 43L32 47L33 47L33 45L34 45L34 46L35 46L35 47L34 47L34 48L35 48L35 49L36 49L36 46L37 46L37 44L38 44L38 43L37 43L37 39L38 39L38 42L40 42L40 43L39 43L39 45L40 45L40 43L44 43L44 44L45 44L45 43L47 43L47 44L49 44L49 46L50 46L50 45L51 45L51 46L52 46L52 44L49 44L49 43L47 43L47 41L48 41L48 42L50 42L50 41L51 41L51 39L52 39L52 37L51 37L51 39L50 39L50 40L49 40L49 41L48 41L48 40L47 40L47 41L44 41L44 40L46 40L46 39L44 39L44 38L43 38L43 37L41 37L41 35L40 35L40 34L39 34L39 33L40 33L40 31L41 31L41 33L42 33L42 31L48 31L48 32L47 32L47 33L48 33L48 32L49 32L49 29L42 29L42 30L41 30L41 28L40 28L40 29L37 29L37 27L38 27L38 28L39 28L39 27L40 27L40 25L41 25L41 27L42 27L42 26L43 26L43 28L44 28L44 26L43 26L43 25L44 25L44 24L46 24L46 22L47 22L47 21L44 21L44 19L45 19L45 18L46 18L46 17L47 17L47 19L50 19L50 18L48 18L48 17L49 17L49 15L50 15L50 14L49 14L49 15L48 15L48 17L47 17L47 16L46 16L46 15L47 15L47 12L48 12L48 11L47 11L47 12L45 12L45 11L46 11L46 10L45 10L45 9L44 9L44 12L43 12L43 13L42 13L42 12L41 12L41 11L40 11L40 12L39 12L39 13L40 13L40 14L39 14L39 15L37 15L37 13L33 13L33 12L35 12L35 11L37 11L37 12L38 12L38 11L39 11L39 10L41 10L41 9L39 9L39 8L40 8L40 6L39 6L39 5L37 5L37 4L36 4L36 2L35 2L35 4L33 4L33 3L34 3L34 1ZM20 2L20 3L21 3L21 2ZM27 3L27 4L28 4L28 3ZM35 4L35 6L34 6L34 5L33 5L33 6L32 6L32 7L31 7L31 8L30 8L30 11L32 11L32 12L33 12L33 11L35 11L35 10L37 10L37 11L38 11L38 9L36 9L36 8L37 8L37 6L36 6L36 4ZM25 5L25 8L28 8L28 5ZM11 6L11 7L12 7L12 6ZM13 6L13 9L15 9L15 7L14 7L14 6ZM20 6L20 7L21 7L21 6ZM26 6L26 7L27 7L27 6ZM33 6L33 7L32 7L32 8L31 8L31 9L32 9L32 10L33 10L33 9L34 9L34 10L35 10L35 8L36 8L36 6L35 6L35 7L34 7L34 6ZM38 6L38 8L39 8L39 6ZM23 8L23 9L24 9L24 8ZM52 8L52 9L53 9L53 8ZM10 9L10 10L11 10L11 9ZM17 10L17 11L16 11L16 13L15 13L15 14L14 14L14 15L13 15L13 16L11 16L11 17L10 17L10 14L8 14L8 13L9 13L9 12L10 12L10 13L11 13L11 11L8 11L8 12L5 12L5 11L4 11L4 14L5 14L5 15L4 15L4 19L3 19L3 21L5 21L5 20L4 20L4 19L5 19L5 17L7 17L7 18L6 18L6 19L7 19L7 20L6 20L6 21L7 21L7 22L5 22L5 23L7 23L7 22L10 22L10 21L8 21L8 20L11 20L11 19L12 19L12 18L11 18L11 17L13 17L13 20L15 20L15 19L16 19L16 20L17 20L17 21L18 21L18 19L19 19L19 20L20 20L20 21L19 21L19 23L18 23L18 22L15 22L15 21L14 21L14 22L11 22L11 23L13 23L13 25L14 25L14 27L13 27L13 29L12 29L12 27L11 27L11 28L10 28L10 31L11 31L11 29L12 29L12 32L11 32L11 33L12 33L12 32L13 32L13 35L15 35L15 38L14 38L14 40L15 40L15 41L16 41L16 42L14 42L14 43L10 43L10 44L11 44L11 45L10 45L10 46L12 46L12 45L13 45L13 46L14 46L14 45L15 45L15 44L14 44L14 43L16 43L16 44L19 44L19 42L20 42L20 40L19 40L19 39L18 39L18 40L17 40L17 38L20 38L20 39L21 39L21 40L23 40L23 37L24 37L24 38L25 38L25 37L26 37L26 35L27 35L27 37L28 37L28 36L30 36L30 37L29 37L29 39L30 39L30 40L31 40L31 41L33 41L33 40L34 40L34 38L33 38L33 37L34 37L34 36L35 36L35 39L36 39L36 37L37 37L37 38L38 38L38 39L40 39L40 40L42 40L42 41L41 41L41 42L42 42L42 41L43 41L43 40L44 40L44 39L43 39L43 38L41 38L41 39L40 39L40 38L39 38L39 37L40 37L40 36L39 36L39 37L38 37L38 36L37 36L37 35L38 35L38 34L37 34L37 35L36 35L36 34L34 34L34 33L36 33L36 32L39 32L39 31L40 31L40 30L36 30L36 29L35 29L35 28L34 28L34 27L32 27L32 29L31 29L31 28L29 28L29 27L30 27L30 26L29 26L29 23L28 23L28 21L29 21L29 20L30 20L30 23L32 23L32 24L31 24L31 26L33 26L33 25L37 25L37 26L38 26L38 27L39 27L39 25L40 25L40 21L41 21L41 22L42 22L42 23L41 23L41 25L42 25L42 24L44 24L44 23L43 23L43 22L44 22L44 21L43 21L43 19L44 19L44 18L43 18L43 19L42 19L42 20L41 20L41 19L40 19L40 17L39 17L39 16L41 16L41 14L40 14L40 15L39 15L39 16L37 16L37 17L35 17L35 15L36 15L36 14L35 14L35 15L32 15L32 14L30 14L30 13L29 13L29 11L28 11L28 13L29 13L29 14L27 14L27 13L26 13L26 12L25 12L25 14L24 14L24 13L20 13L20 12L18 12L18 14L16 14L16 13L17 13L17 11L18 11L18 10ZM49 10L49 11L50 11L50 10ZM44 12L44 13L43 13L43 14L42 14L42 15L43 15L43 16L44 16L44 15L45 15L45 14L46 14L46 13L45 13L45 12ZM49 12L49 13L50 13L50 12ZM6 13L6 14L7 14L7 15L6 15L6 16L7 16L7 17L8 17L8 18L7 18L7 19L8 19L8 18L9 18L9 19L11 19L11 18L10 18L10 17L9 17L9 15L8 15L8 14L7 14L7 13ZM52 13L52 16L53 16L53 13ZM11 14L11 15L12 15L12 14ZM26 14L26 16L25 16L25 17L24 17L24 16L22 16L22 17L21 17L21 15L20 15L20 16L18 16L18 17L20 17L20 18L19 18L19 19L22 19L22 20L24 20L24 21L25 21L25 22L27 22L27 21L28 21L28 19L30 19L30 20L31 20L31 19L32 19L32 23L33 23L33 24L32 24L32 25L33 25L33 24L34 24L34 23L33 23L33 21L34 21L34 22L36 22L36 23L37 23L37 25L38 25L38 24L39 24L39 20L40 20L40 19L39 19L39 17L37 17L37 18L38 18L38 19L37 19L37 20L36 20L36 18L35 18L35 19L34 19L34 16L33 16L33 18L32 18L32 17L27 17L27 16L32 16L32 15L27 15L27 14ZM43 14L43 15L44 15L44 14ZM7 15L7 16L8 16L8 15ZM14 15L14 16L13 16L13 17L14 17L14 19L15 19L15 18L16 18L16 17L14 17L14 16L17 16L17 15ZM25 17L25 20L27 20L27 19L28 19L28 18L26 18L26 17ZM41 17L41 18L42 18L42 17ZM17 18L17 19L18 19L18 18ZM23 18L23 19L24 19L24 18ZM35 20L35 21L36 21L36 20ZM37 20L37 22L38 22L38 20ZM48 20L48 21L49 21L49 20ZM20 21L20 22L21 22L21 23L22 23L22 21ZM52 21L52 22L53 22L53 21ZM14 22L14 23L15 23L15 22ZM23 22L23 23L24 23L24 24L21 24L21 26L22 26L22 25L23 25L23 27L22 27L22 28L21 28L21 27L19 27L19 26L20 26L20 25L19 25L19 26L18 26L18 23L16 23L16 24L15 24L15 27L14 27L14 28L15 28L15 27L16 27L16 29L17 29L17 27L16 27L16 26L18 26L18 27L19 27L19 28L18 28L18 29L19 29L19 31L21 31L21 33L20 33L20 32L17 32L17 31L18 31L18 30L16 30L16 34L15 34L15 32L14 32L14 34L15 34L15 35L17 35L17 34L19 34L19 35L18 35L18 36L17 36L17 37L16 37L16 38L17 38L17 37L18 37L18 36L19 36L19 35L20 35L20 36L22 36L22 37L23 37L23 36L24 36L24 35L25 35L25 34L27 34L27 35L29 35L29 33L28 33L28 32L29 32L29 31L27 31L27 30L28 30L28 29L27 29L27 30L26 30L26 29L25 29L25 30L23 30L23 29L24 29L24 24L27 24L27 23L24 23L24 22ZM16 24L16 25L17 25L17 24ZM5 25L5 28L8 28L8 25ZM25 25L25 28L28 28L28 25ZM45 25L45 28L48 28L48 25ZM50 25L50 26L52 26L52 25ZM6 26L6 27L7 27L7 26ZM26 26L26 27L27 27L27 26ZM35 26L35 27L36 27L36 26ZM46 26L46 27L47 27L47 26ZM33 28L33 30L31 30L31 29L29 29L29 30L30 30L30 31L32 31L32 32L30 32L30 33L34 33L34 32L33 32L33 31L34 31L34 28ZM13 30L13 31L15 31L15 30ZM22 30L22 33L21 33L21 34L20 34L20 35L21 35L21 34L23 34L23 35L24 35L24 34L25 34L25 33L23 33L23 32L26 32L26 31L23 31L23 30ZM50 30L50 31L51 31L51 33L52 33L52 31L51 31L51 30ZM35 31L35 32L36 32L36 31ZM27 33L27 34L28 34L28 33ZM32 34L32 35L30 35L30 36L31 36L31 37L30 37L30 38L31 38L31 37L33 37L33 36L34 36L34 34ZM7 35L7 36L5 36L5 37L8 37L8 35ZM32 35L32 36L33 36L33 35ZM35 35L35 36L36 36L36 35ZM1 36L1 37L2 37L2 36ZM6 38L6 39L9 39L9 40L8 40L8 41L9 41L9 40L10 40L10 39L9 39L9 38ZM21 38L21 39L22 39L22 38ZM26 38L26 39L24 39L24 40L25 40L25 41L27 41L27 40L28 40L28 38ZM32 38L32 40L33 40L33 38ZM42 39L42 40L43 40L43 39ZM6 40L6 41L7 41L7 40ZM18 40L18 41L19 41L19 40ZM23 41L23 42L24 42L24 41ZM28 41L28 42L27 42L27 43L29 43L29 44L30 44L30 43L29 43L29 42L30 42L30 41ZM17 42L17 43L18 43L18 42ZM13 44L13 45L14 45L14 44ZM42 44L42 45L43 45L43 44ZM25 45L25 48L28 48L28 45ZM45 45L45 48L48 48L48 45ZM16 46L16 49L17 49L17 47L18 47L18 46ZM26 46L26 47L27 47L27 46ZM43 46L43 47L44 47L44 46ZM46 46L46 47L47 47L47 46ZM14 47L14 49L13 49L13 48L12 48L12 49L13 49L13 50L14 50L14 49L15 49L15 47ZM32 48L32 50L33 50L33 48ZM37 48L37 50L38 50L38 49L39 49L39 48ZM19 49L19 50L20 50L20 49ZM27 49L27 50L28 50L28 49ZM42 50L42 52L43 52L43 53L45 53L45 52L43 52L43 51L44 51L44 50ZM48 50L48 51L50 51L50 50ZM38 51L38 52L39 52L39 51ZM0 0L0 7L7 7L7 0ZM1 1L1 6L6 6L6 1ZM2 2L2 5L5 5L5 2ZM46 0L46 7L53 7L53 0ZM47 1L47 6L52 6L52 1ZM48 2L48 5L51 5L51 2ZM0 46L0 53L7 53L7 46ZM1 47L1 52L6 52L6 47ZM2 48L2 51L5 51L5 48Z" fill="#000000"/></g></g></svg>
