<?xml version="1.0" encoding="UTF-8"?>
<svg xmlns="http://www.w3.org/2000/svg" version="1.1" width="100" height="100" viewBox="0 0 100 100"><rect x="0" y="0" width="100" height="100" fill="#ffffff"/><g transform="scale(1.887)"><g transform="translate(0,0)"><path fill-rule="evenodd" d="M8 0L8 1L9 1L9 5L10 5L10 3L11 3L11 5L12 5L12 8L11 8L11 9L10 9L10 7L11 7L11 6L10 6L10 7L9 7L9 6L8 6L8 8L9 8L9 9L7 9L7 8L6 8L6 9L5 9L5 8L3 8L3 11L4 11L4 13L3 13L3 12L2 12L2 11L1 11L1 12L2 12L2 13L1 13L1 14L0 14L0 16L2 16L2 13L3 13L3 14L4 14L4 13L5 13L5 14L6 14L6 15L7 15L7 14L6 14L6 13L7 13L7 12L8 12L8 11L10 11L10 12L9 12L9 14L8 14L8 15L9 15L9 14L10 14L10 16L5 16L5 15L4 15L4 16L3 16L3 17L2 17L2 18L1 18L1 19L0 19L0 20L1 20L1 21L2 21L2 28L0 28L0 29L1 29L1 30L0 30L0 31L1 31L1 32L2 32L2 33L3 33L3 34L0 34L0 36L2 36L2 37L3 37L3 36L4 36L4 35L3 35L3 34L6 34L6 35L5 35L5 36L6 36L6 37L7 37L7 38L6 38L6 39L5 39L5 37L4 37L4 38L3 38L3 39L1 39L1 38L0 38L0 40L1 40L1 41L0 41L0 43L1 43L1 44L3 44L3 45L4 45L4 44L3 44L3 43L7 43L7 44L6 44L6 45L7 45L7 44L8 44L8 43L7 43L7 42L3 42L3 43L2 43L2 40L6 40L6 41L8 41L8 42L9 42L9 43L10 43L10 42L9 42L9 41L11 41L11 39L12 39L12 40L14 40L14 41L12 41L12 42L11 42L11 44L10 44L10 45L8 45L8 46L9 46L9 48L8 48L8 50L9 50L9 51L8 51L8 53L10 53L10 52L11 52L11 53L13 53L13 51L12 51L12 45L13 45L13 46L14 46L14 47L13 47L13 48L16 48L16 46L17 46L17 50L18 50L18 51L22 51L22 50L23 50L23 52L24 52L24 53L26 53L26 51L27 51L27 53L28 53L28 51L27 51L27 49L28 49L28 50L32 50L32 51L30 51L30 52L29 52L29 53L31 53L31 52L32 52L32 53L35 53L35 51L34 51L34 48L35 48L35 49L36 49L36 50L37 50L37 49L38 49L38 50L39 50L39 51L38 51L38 52L39 52L39 51L40 51L40 49L41 49L41 50L43 50L43 49L45 49L45 52L46 52L46 53L47 53L47 52L48 52L48 53L51 53L51 51L49 51L49 50L48 50L48 49L50 49L50 46L49 46L49 45L51 45L51 43L50 43L50 44L48 44L48 43L47 43L47 41L48 41L48 42L52 42L52 43L53 43L53 42L52 42L52 41L53 41L53 40L52 40L52 41L48 41L48 40L51 40L51 38L52 38L52 39L53 39L53 37L52 37L52 34L51 34L51 37L50 37L50 35L49 35L49 34L50 34L50 33L51 33L51 31L53 31L53 30L51 30L51 29L52 29L52 28L51 28L51 25L52 25L52 27L53 27L53 24L51 24L51 25L50 25L50 23L52 23L52 19L53 19L53 18L52 18L52 19L51 19L51 17L53 17L53 16L51 16L51 15L53 15L53 11L52 11L52 13L51 13L51 14L50 14L50 15L49 15L49 13L50 13L50 12L48 12L48 11L50 11L50 10L53 10L53 8L52 8L52 9L50 9L50 10L49 10L49 9L47 9L47 8L46 8L46 11L45 11L45 6L44 6L44 8L43 8L43 3L44 3L44 4L45 4L45 3L44 3L44 1L43 1L43 0L42 0L42 1L41 1L41 0L40 0L40 1L39 1L39 0L38 0L38 1L37 1L37 0L36 0L36 1L35 1L35 0L34 0L34 1L33 1L33 0L32 0L32 4L33 4L33 5L34 5L34 4L36 4L36 7L37 7L37 5L38 5L38 8L35 8L35 9L34 9L34 8L33 8L33 9L34 9L34 10L32 10L32 9L30 9L30 10L29 10L29 12L26 12L26 9L29 9L29 6L30 6L30 8L32 8L32 7L33 7L33 6L32 6L32 7L31 7L31 6L30 6L30 5L31 5L31 2L30 2L30 1L31 1L31 0L30 0L30 1L29 1L29 0L27 0L27 1L25 1L25 0L24 0L24 1L25 1L25 2L24 2L24 3L23 3L23 2L22 2L22 0L19 0L19 1L20 1L20 3L19 3L19 2L18 2L18 1L17 1L17 0L15 0L15 1L14 1L14 2L13 2L13 0L12 0L12 3L11 3L11 2L10 2L10 1L11 1L11 0ZM15 1L15 2L17 2L17 3L16 3L16 4L12 4L12 5L13 5L13 7L14 7L14 6L15 6L15 7L16 7L16 8L14 8L14 9L13 9L13 8L12 8L12 9L11 9L11 11L12 11L12 9L13 9L13 10L16 10L16 9L18 9L18 10L17 10L17 11L14 11L14 12L12 12L12 13L14 13L14 15L13 15L13 16L12 16L12 15L11 15L11 16L10 16L10 18L9 18L9 17L6 17L6 18L5 18L5 19L6 19L6 20L4 20L4 19L2 19L2 20L3 20L3 21L4 21L4 22L3 22L3 28L2 28L2 29L4 29L4 23L5 23L5 24L7 24L7 23L8 23L8 22L9 22L9 20L10 20L10 18L11 18L11 19L14 19L14 20L12 20L12 21L13 21L13 22L11 22L11 24L9 24L9 25L13 25L13 22L14 22L14 24L15 24L15 26L12 26L12 27L15 27L15 26L17 26L17 29L18 29L18 30L19 30L19 31L17 31L17 32L16 32L16 30L14 30L14 29L13 29L13 30L12 30L12 32L11 32L11 28L10 28L10 29L5 29L5 30L4 30L4 31L3 31L3 30L1 30L1 31L3 31L3 32L4 32L4 31L6 31L6 32L5 32L5 33L6 33L6 34L7 34L7 33L6 33L6 32L7 32L7 31L8 31L8 34L10 34L10 33L11 33L11 35L10 35L10 36L9 36L9 35L6 35L6 36L7 36L7 37L8 37L8 38L7 38L7 39L6 39L6 40L7 40L7 39L8 39L8 40L10 40L10 39L11 39L11 38L12 38L12 39L13 39L13 38L12 38L12 37L14 37L14 39L15 39L15 41L14 41L14 44L13 44L13 45L14 45L14 44L16 44L16 45L15 45L15 46L16 46L16 45L17 45L17 46L19 46L19 48L20 48L20 49L21 49L21 48L24 48L24 47L23 47L23 45L24 45L24 44L25 44L25 43L26 43L26 42L28 42L28 44L29 44L29 47L31 47L31 49L32 49L32 50L33 50L33 49L32 49L32 47L31 47L31 46L32 46L32 45L33 45L33 48L34 48L34 45L33 45L33 44L35 44L35 42L34 42L34 41L35 41L35 40L37 40L37 41L36 41L36 42L37 42L37 45L39 45L39 44L40 44L40 41L41 41L41 43L42 43L42 41L43 41L43 42L44 42L44 40L43 40L43 38L41 38L41 39L39 39L39 40L37 40L37 39L38 39L38 36L42 36L42 37L43 37L43 36L42 36L42 35L44 35L44 34L42 34L42 35L41 35L41 33L39 33L39 34L36 34L36 32L37 32L37 33L38 33L38 31L42 31L42 33L43 33L43 32L44 32L44 33L47 33L47 32L48 32L48 33L49 33L49 32L50 32L50 29L51 29L51 28L49 28L49 30L48 30L48 31L47 31L47 32L46 32L46 31L45 31L45 30L46 30L46 29L45 29L45 30L42 30L42 29L44 29L44 23L45 23L45 22L44 22L44 21L43 21L43 22L42 22L42 24L41 24L41 21L42 21L42 20L43 20L43 19L45 19L45 18L46 18L46 20L45 20L45 21L46 21L46 20L49 20L49 17L48 17L48 19L47 19L47 18L46 18L46 17L47 17L47 16L46 16L46 15L47 15L47 13L48 13L48 12L47 12L47 11L46 11L46 15L45 15L45 16L44 16L44 15L43 15L43 14L44 14L44 13L45 13L45 11L43 11L43 10L40 10L40 8L38 8L38 9L39 9L39 10L40 10L40 11L38 11L38 10L37 10L37 9L36 9L36 10L37 10L37 11L35 11L35 12L34 12L34 11L33 11L33 12L34 12L34 13L33 13L33 15L32 15L32 13L31 13L31 14L30 14L30 13L27 13L27 15L28 15L28 14L30 14L30 15L29 15L29 16L28 16L28 17L27 17L27 16L24 16L24 17L26 17L26 18L23 18L23 14L20 14L20 13L22 13L22 12L21 12L21 11L20 11L20 9L18 9L18 8L17 8L17 7L18 7L18 6L17 6L17 7L16 7L16 6L15 6L15 5L19 5L19 8L20 8L20 5L19 5L19 4L17 4L17 3L18 3L18 2L17 2L17 1ZM28 1L28 2L26 2L26 3L24 3L24 4L23 4L23 5L24 5L24 4L27 4L27 3L28 3L28 4L29 4L29 3L30 3L30 2L29 2L29 1ZM38 1L38 2L36 2L36 3L37 3L37 4L38 4L38 3L43 3L43 2L41 2L41 1L40 1L40 2L39 2L39 1ZM28 2L28 3L29 3L29 2ZM33 2L33 4L34 4L34 2ZM39 4L39 7L40 7L40 5L42 5L42 4ZM25 5L25 8L28 8L28 5ZM21 6L21 7L22 7L22 8L21 8L21 9L22 9L22 8L23 8L23 7L24 7L24 6L23 6L23 7L22 7L22 6ZM26 6L26 7L27 7L27 6ZM34 6L34 7L35 7L35 6ZM41 6L41 8L42 8L42 9L43 9L43 8L42 8L42 6ZM0 8L0 10L1 10L1 9L2 9L2 8ZM6 9L6 10L7 10L7 9ZM9 9L9 10L10 10L10 9ZM23 9L23 10L22 10L22 11L23 11L23 13L24 13L24 11L25 11L25 10L24 10L24 9ZM4 10L4 11L5 11L5 12L7 12L7 11L5 11L5 10ZM18 10L18 12L17 12L17 14L18 14L18 15L19 15L19 14L18 14L18 13L19 13L19 12L20 12L20 11L19 11L19 10ZM27 10L27 11L28 11L28 10ZM30 10L30 11L32 11L32 10ZM37 11L37 12L36 12L36 13L37 13L37 12L38 12L38 14L39 14L39 12L38 12L38 11ZM42 11L42 13L41 13L41 12L40 12L40 13L41 13L41 14L40 14L40 15L37 15L37 14L36 14L36 15L34 15L34 16L32 16L32 15L30 15L30 16L29 16L29 18L26 18L26 20L27 20L27 21L25 21L25 19L23 19L23 18L22 18L22 19L23 19L23 20L22 20L22 21L21 21L21 19L20 19L20 18L18 18L18 17L20 17L20 16L16 16L16 15L15 15L15 16L13 16L13 17L12 17L12 16L11 16L11 17L12 17L12 18L15 18L15 19L18 19L18 21L17 21L17 20L16 20L16 21L15 21L15 24L17 24L17 26L18 26L18 29L19 29L19 30L20 30L20 28L23 28L23 29L26 29L26 30L23 30L23 31L24 31L24 32L22 32L22 29L21 29L21 31L19 31L19 32L18 32L18 33L16 33L16 34L15 34L15 32L14 32L14 31L13 31L13 32L12 32L12 35L13 35L13 36L14 36L14 37L15 37L15 39L16 39L16 42L15 42L15 43L16 43L16 42L17 42L17 44L18 44L18 45L19 45L19 46L21 46L21 47L22 47L22 45L23 45L23 43L24 43L24 42L25 42L25 41L29 41L29 39L30 39L30 38L31 38L31 37L32 37L32 39L33 39L33 40L30 40L30 42L29 42L29 44L30 44L30 46L31 46L31 45L32 45L32 43L30 43L30 42L33 42L33 43L34 43L34 42L33 42L33 41L34 41L34 39L33 39L33 37L34 37L34 36L36 36L36 37L35 37L35 39L36 39L36 37L37 37L37 36L38 36L38 35L37 35L37 36L36 36L36 35L35 35L35 33L34 33L34 32L33 32L33 30L32 30L32 29L34 29L34 30L36 30L36 31L38 31L38 29L40 29L40 30L41 30L41 29L40 29L40 28L38 28L38 29L37 29L37 28L36 28L36 29L35 29L35 27L34 27L34 28L32 28L32 27L33 27L33 26L32 26L32 27L30 27L30 28L29 28L29 25L30 25L30 26L31 26L31 25L30 25L30 23L28 23L28 24L26 24L26 23L27 23L27 21L28 21L28 22L29 22L29 20L27 20L27 19L29 19L29 18L32 18L32 19L30 19L30 20L31 20L31 21L30 21L30 22L31 22L31 21L32 21L32 19L33 19L33 18L32 18L32 17L34 17L34 18L35 18L35 16L36 16L36 19L37 19L37 18L38 18L38 16L40 16L40 15L41 15L41 17L42 17L42 18L39 18L39 19L40 19L40 21L41 21L41 20L42 20L42 18L44 18L44 17L43 17L43 15L41 15L41 14L43 14L43 11ZM14 12L14 13L15 13L15 14L16 14L16 12ZM25 12L25 13L26 13L26 12ZM10 13L10 14L11 14L11 13ZM24 14L24 15L25 15L25 14ZM21 15L21 16L22 16L22 15ZM36 15L36 16L37 16L37 15ZM48 15L48 16L49 16L49 15ZM4 16L4 17L5 17L5 16ZM15 16L15 18L16 18L16 16ZM30 16L30 17L31 17L31 16ZM45 16L45 17L46 17L46 16ZM50 16L50 17L51 17L51 16ZM6 18L6 19L7 19L7 20L6 20L6 21L7 21L7 22L5 22L5 23L7 23L7 22L8 22L8 21L7 21L7 20L9 20L9 18L8 18L8 19L7 19L7 18ZM34 19L34 20L33 20L33 21L34 21L34 22L32 22L32 23L31 23L31 24L32 24L32 25L34 25L34 24L33 24L33 23L35 23L35 22L36 22L36 23L37 23L37 24L36 24L36 25L37 25L37 24L38 24L38 23L37 23L37 22L39 22L39 23L40 23L40 22L39 22L39 20L38 20L38 21L37 21L37 20L35 20L35 19ZM34 20L34 21L35 21L35 20ZM18 21L18 22L16 22L16 23L17 23L17 24L18 24L18 23L20 23L20 24L19 24L19 25L18 25L18 26L19 26L19 25L21 25L21 26L20 26L20 27L19 27L19 28L20 28L20 27L22 27L22 24L23 24L23 21L22 21L22 22L21 22L21 23L20 23L20 22L19 22L19 21ZM47 21L47 23L46 23L46 24L49 24L49 23L50 23L50 22L49 22L49 21ZM24 22L24 23L26 23L26 22ZM48 22L48 23L49 23L49 22ZM39 24L39 25L38 25L38 27L40 27L40 26L43 26L43 24L42 24L42 25L41 25L41 24ZM5 25L5 28L8 28L8 25ZM23 25L23 26L24 26L24 25ZM25 25L25 28L28 28L28 25ZM39 25L39 26L40 26L40 25ZM45 25L45 28L48 28L48 25ZM6 26L6 27L7 27L7 26ZM10 26L10 27L11 27L11 26ZM26 26L26 27L27 27L27 26ZM36 26L36 27L37 27L37 26ZM46 26L46 27L47 27L47 26ZM41 27L41 28L42 28L42 27ZM30 28L30 29L32 29L32 28ZM27 29L27 31L25 31L25 33L27 33L27 34L28 34L28 33L27 33L27 32L29 32L29 33L33 33L33 34L32 34L32 35L33 35L33 36L34 36L34 35L33 35L33 34L34 34L34 33L33 33L33 32L32 32L32 31L31 31L31 30L28 30L28 29ZM6 30L6 31L7 31L7 30ZM8 30L8 31L9 31L9 32L10 32L10 31L9 31L9 30ZM30 31L30 32L31 32L31 31ZM44 31L44 32L45 32L45 31ZM48 31L48 32L49 32L49 31ZM13 32L13 34L14 34L14 36L16 36L16 39L17 39L17 40L20 40L20 41L18 41L18 43L19 43L19 42L20 42L20 43L21 43L21 44L22 44L22 43L21 43L21 42L24 42L24 40L25 40L25 38L26 38L26 40L28 40L28 39L29 39L29 38L30 38L30 37L31 37L31 35L30 35L30 34L29 34L29 35L30 35L30 37L29 37L29 36L28 36L28 35L26 35L26 34L25 34L25 35L26 35L26 36L25 36L25 37L24 37L24 38L22 38L22 37L21 37L21 36L22 36L22 35L23 35L23 36L24 36L24 35L23 35L23 33L22 33L22 32L21 32L21 34L20 34L20 32L19 32L19 33L18 33L18 34L17 34L17 35L15 35L15 34L14 34L14 32ZM52 32L52 33L53 33L53 32ZM18 34L18 36L17 36L17 38L18 38L18 39L19 39L19 38L18 38L18 37L20 37L20 38L21 38L21 37L20 37L20 36L19 36L19 34ZM39 34L39 35L40 35L40 34ZM45 34L45 36L44 36L44 37L45 37L45 38L44 38L44 39L46 39L46 40L45 40L45 41L47 41L47 39L48 39L48 37L49 37L49 36L48 36L48 34ZM10 36L10 38L9 38L9 39L10 39L10 38L11 38L11 36ZM26 36L26 37L27 37L27 38L29 38L29 37L28 37L28 36ZM45 36L45 37L46 37L46 39L47 39L47 37L48 37L48 36ZM39 37L39 38L40 38L40 37ZM49 38L49 39L50 39L50 38ZM20 39L20 40L21 40L21 41L22 41L22 40L21 40L21 39ZM23 39L23 40L24 40L24 39ZM41 39L41 41L42 41L42 39ZM39 40L39 41L40 41L40 40ZM12 42L12 43L13 43L13 42ZM45 42L45 43L43 43L43 44L46 44L46 42ZM38 43L38 44L39 44L39 43ZM11 44L11 45L10 45L10 46L11 46L11 45L12 45L12 44ZM52 44L52 45L53 45L53 44ZM25 45L25 48L28 48L28 45ZM43 45L43 46L40 46L40 47L39 47L39 46L38 46L38 48L39 48L39 49L40 49L40 48L41 48L41 49L43 49L43 48L44 48L44 47L43 47L43 46L44 46L44 45ZM45 45L45 48L48 48L48 45ZM26 46L26 47L27 47L27 46ZM35 46L35 47L36 47L36 48L37 48L37 47L36 47L36 46ZM46 46L46 47L47 47L47 46ZM10 47L10 48L11 48L11 47ZM51 47L51 48L52 48L52 50L53 50L53 47ZM29 48L29 49L30 49L30 48ZM9 49L9 50L10 50L10 49ZM18 49L18 50L19 50L19 49ZM25 49L25 50L26 50L26 49ZM46 49L46 50L47 50L47 49ZM15 50L15 51L16 51L16 52L14 52L14 53L19 53L19 52L17 52L17 51L16 51L16 50ZM11 51L11 52L12 52L12 51ZM32 51L32 52L34 52L34 51ZM52 51L52 52L53 52L53 51ZM21 52L21 53L22 53L22 52ZM36 52L36 53L37 53L37 52ZM42 52L42 53L44 53L44 52ZM0 0L0 7L7 7L7 0ZM1 1L1 6L6 6L6 1ZM2 2L2 5L5 5L5 2ZM46 0L46 7L53 7L53 0ZM47 1L47 6L52 6L52 1ZM48 2L48 5L51 5L51 2ZM0 46L0 53L7 53L7 46ZM1 47L1 52L6 52L6 47ZM2 48L2 51L5 51L5 48Z" fill="#000000"/></g></g></svg>
