<?xml version="1.0" encoding="UTF-8"?>
<svg xmlns="http://www.w3.org/2000/svg" version="1.1" width="100" height="100" viewBox="0 0 100 100"><rect x="0" y="0" width="100" height="100" fill="#ffffff"/><g transform="scale(1.887)"><g transform="translate(0,0)"><path fill-rule="evenodd" d="M8 0L8 1L10 1L10 2L8 2L8 5L10 5L10 7L9 7L9 6L8 6L8 7L9 7L9 8L8 8L8 9L7 9L7 8L6 8L6 9L5 9L5 10L6 10L6 11L8 11L8 12L9 12L9 14L8 14L8 13L7 13L7 12L6 12L6 13L7 13L7 14L6 14L6 15L5 15L5 12L2 12L2 11L3 11L3 10L4 10L4 8L0 8L0 11L1 11L1 13L0 13L0 15L1 15L1 16L0 16L0 19L1 19L1 16L2 16L2 15L3 15L3 14L2 14L2 13L4 13L4 16L3 16L3 17L2 17L2 18L4 18L4 19L7 19L7 20L6 20L6 21L5 21L5 23L3 23L3 22L4 22L4 21L3 21L3 19L2 19L2 20L1 20L1 21L2 21L2 23L0 23L0 24L2 24L2 25L3 25L3 24L4 24L4 26L3 26L3 27L4 27L4 28L2 28L2 29L1 29L1 28L0 28L0 29L1 29L1 30L0 30L0 31L1 31L1 32L0 32L0 33L2 33L2 34L3 34L3 35L1 35L1 34L0 34L0 35L1 35L1 37L0 37L0 39L1 39L1 41L0 41L0 43L1 43L1 44L3 44L3 45L4 45L4 44L3 44L3 43L7 43L7 44L6 44L6 45L7 45L7 44L9 44L9 45L8 45L8 46L9 46L9 47L10 47L10 48L9 48L9 49L8 49L8 53L10 53L10 52L11 52L11 51L10 51L10 50L11 50L11 49L10 49L10 48L12 48L12 47L13 47L13 46L14 46L14 49L15 49L15 48L16 48L16 49L17 49L17 48L16 48L16 47L18 47L18 46L15 46L15 45L14 45L14 44L15 44L15 43L16 43L16 44L17 44L17 45L18 45L18 44L17 44L17 42L19 42L19 44L20 44L20 45L19 45L19 48L18 48L18 50L17 50L17 51L18 51L18 52L19 52L19 51L21 51L21 53L22 53L22 51L23 51L23 52L24 52L24 50L23 50L23 49L22 49L22 48L24 48L24 49L25 49L25 50L26 50L26 51L27 51L27 52L29 52L29 53L31 53L31 51L30 51L30 52L29 52L29 51L28 51L28 49L31 49L31 50L33 50L33 51L32 51L32 53L34 53L34 49L37 49L37 50L38 50L38 51L37 51L37 53L40 53L40 52L41 52L41 53L43 53L43 50L44 50L44 49L48 49L48 50L47 50L47 52L46 52L46 53L47 53L47 52L50 52L50 51L48 51L48 50L51 50L51 53L52 53L52 50L53 50L53 48L50 48L50 49L49 49L49 47L50 47L50 46L51 46L51 42L52 42L52 40L53 40L53 36L52 36L52 35L51 35L51 34L53 34L53 33L52 33L52 32L51 32L51 31L52 31L52 30L51 30L51 29L49 29L49 28L50 28L50 27L51 27L51 28L53 28L53 25L52 25L52 24L50 24L50 25L49 25L49 22L50 22L50 23L52 23L52 22L53 22L53 21L51 21L51 22L50 22L50 21L48 21L48 20L52 20L52 19L50 19L50 18L51 18L51 17L53 17L53 13L52 13L52 14L50 14L50 13L51 13L51 12L50 12L50 13L49 13L49 11L50 11L50 10L51 10L51 11L52 11L52 12L53 12L53 11L52 11L52 10L51 10L51 8L48 8L48 9L47 9L47 10L46 10L46 8L45 8L45 6L44 6L44 7L43 7L43 3L44 3L44 4L45 4L45 3L44 3L44 1L43 1L43 0L41 0L41 2L43 2L43 3L41 3L41 4L42 4L42 7L43 7L43 8L44 8L44 9L41 9L41 6L40 6L40 7L39 7L39 4L38 4L38 3L37 3L37 2L38 2L38 1L37 1L37 0L35 0L35 1L34 1L34 0L32 0L32 3L33 3L33 4L35 4L35 5L38 5L38 8L37 8L37 6L36 6L36 8L37 8L37 9L39 9L39 8L40 8L40 9L41 9L41 10L40 10L40 11L41 11L41 13L38 13L38 12L37 12L37 11L38 11L38 10L34 10L34 9L35 9L35 6L34 6L34 5L33 5L33 6L32 6L32 4L31 4L31 5L30 5L30 4L28 4L28 0L27 0L27 1L26 1L26 0L21 0L21 1L20 1L20 2L19 2L19 3L18 3L18 2L17 2L17 1L18 1L18 0L16 0L16 2L15 2L15 6L14 6L14 5L11 5L11 3L10 3L10 2L11 2L11 0ZM29 0L29 1L31 1L31 0ZM39 0L39 2L40 2L40 0ZM13 1L13 2L14 2L14 1ZM22 1L22 2L20 2L20 3L19 3L19 4L20 4L20 3L22 3L22 4L21 4L21 5L20 5L20 6L19 6L19 7L18 7L18 3L17 3L17 2L16 2L16 3L17 3L17 4L16 4L16 5L17 5L17 7L16 7L16 6L15 6L15 7L16 7L16 8L14 8L14 10L15 10L15 9L16 9L16 12L17 12L17 13L16 13L16 14L15 14L15 11L12 11L12 13L11 13L11 10L9 10L9 9L8 9L8 11L10 11L10 14L9 14L9 15L8 15L8 14L7 14L7 15L6 15L6 16L5 16L5 18L7 18L7 19L8 19L8 20L9 20L9 19L10 19L10 20L13 20L13 21L15 21L15 22L16 22L16 23L17 23L17 22L18 22L18 24L17 24L17 25L15 25L15 23L14 23L14 22L13 22L13 23L11 23L11 22L10 22L10 21L9 21L9 23L6 23L6 24L10 24L10 26L9 26L9 28L10 28L10 32L9 32L9 33L10 33L10 32L11 32L11 35L10 35L10 34L8 34L8 32L7 32L7 31L5 31L5 30L7 30L7 29L4 29L4 30L3 30L3 29L2 29L2 30L1 30L1 31L2 31L2 32L3 32L3 34L8 34L8 35L6 35L6 36L5 36L5 35L4 35L4 36L5 36L5 37L3 37L3 36L2 36L2 38L3 38L3 39L6 39L6 40L7 40L7 41L6 41L6 42L7 42L7 43L8 43L8 42L7 42L7 41L11 41L11 40L13 40L13 41L12 41L12 42L9 42L9 44L11 44L11 45L13 45L13 44L14 44L14 43L15 43L15 42L16 42L16 41L14 41L14 40L18 40L18 41L20 41L20 43L21 43L21 41L22 41L22 43L23 43L23 45L24 45L24 44L25 44L25 42L23 42L23 40L21 40L21 39L22 39L22 37L23 37L23 39L25 39L25 41L26 41L26 40L27 40L27 41L28 41L28 44L29 44L29 46L30 46L30 45L31 45L31 43L32 43L32 47L29 47L29 48L32 48L32 49L34 49L34 48L35 48L35 47L34 47L34 48L32 48L32 47L33 47L33 45L34 45L34 46L36 46L36 47L38 47L38 48L37 48L37 49L38 49L38 48L40 48L40 49L39 49L39 50L41 50L41 52L42 52L42 50L43 50L43 49L44 49L44 48L43 48L43 49L41 49L41 48L42 48L42 47L41 47L41 46L42 46L42 45L43 45L43 44L42 44L42 43L44 43L44 44L46 44L46 43L47 43L47 44L48 44L48 43L50 43L50 42L51 42L51 39L52 39L52 37L51 37L51 39L50 39L50 37L49 37L49 36L51 36L51 35L49 35L49 34L44 34L44 33L43 33L43 34L41 34L41 35L40 35L40 34L39 34L39 33L40 33L40 31L41 31L41 33L42 33L42 31L44 31L44 32L45 32L45 33L46 33L46 32L45 32L45 31L48 31L48 32L47 32L47 33L48 33L48 32L49 32L49 29L43 29L43 28L44 28L44 26L43 26L43 25L44 25L44 22L45 22L45 24L46 24L46 22L47 22L47 23L48 23L48 22L47 22L47 21L46 21L46 20L47 20L47 19L49 19L49 18L50 18L50 17L51 17L51 15L50 15L50 14L49 14L49 13L46 13L46 15L45 15L45 16L43 16L43 15L44 15L44 14L43 14L43 13L41 13L41 14L40 14L40 15L38 15L38 14L37 14L37 15L36 15L36 14L35 14L35 13L36 13L36 11L35 11L35 12L34 12L34 10L32 10L32 9L34 9L34 8L33 8L33 7L34 7L34 6L33 6L33 7L32 7L32 6L31 6L31 8L30 8L30 9L31 9L31 11L29 11L29 10L28 10L28 9L27 9L27 10L26 10L26 11L24 11L24 12L23 12L23 10L21 10L21 9L22 9L22 6L23 6L23 9L24 9L24 4L26 4L26 3L27 3L27 2L26 2L26 1ZM33 1L33 3L34 3L34 1ZM35 1L35 2L37 2L37 1ZM22 2L22 3L23 3L23 4L22 4L22 5L21 5L21 6L20 6L20 9L21 9L21 6L22 6L22 5L23 5L23 4L24 4L24 3L25 3L25 2L24 2L24 3L23 3L23 2ZM30 2L30 3L31 3L31 2ZM9 3L9 4L10 4L10 3ZM12 3L12 4L14 4L14 3ZM35 3L35 4L36 4L36 3ZM25 5L25 8L28 8L28 5ZM11 6L11 7L10 7L10 9L12 9L12 8L13 8L13 7L14 7L14 6L13 6L13 7L12 7L12 6ZM26 6L26 7L27 7L27 6ZM29 6L29 7L30 7L30 6ZM16 8L16 9L17 9L17 8ZM31 8L31 9L32 9L32 8ZM52 8L52 9L53 9L53 8ZM1 9L1 10L3 10L3 9ZM6 9L6 10L7 10L7 9ZM44 9L44 12L45 12L45 11L46 11L46 12L48 12L48 11L49 11L49 10L48 10L48 11L46 11L46 10L45 10L45 9ZM17 10L17 12L18 12L18 13L17 13L17 14L19 14L19 15L18 15L18 16L17 16L17 15L16 15L16 16L15 16L15 14L14 14L14 16L12 16L12 15L13 15L13 13L14 13L14 12L13 12L13 13L12 13L12 15L10 15L10 16L12 16L12 17L13 17L13 18L11 18L11 17L9 17L9 16L8 16L8 17L7 17L7 16L6 16L6 17L7 17L7 18L8 18L8 19L9 19L9 18L10 18L10 19L17 19L17 20L19 20L19 19L20 19L20 21L21 21L21 22L19 22L19 23L21 23L21 22L22 22L22 23L23 23L23 25L22 25L22 24L18 24L18 26L16 26L16 27L15 27L15 28L14 28L14 29L13 29L13 31L15 31L15 32L14 32L14 33L15 33L15 34L14 34L14 35L13 35L13 34L12 34L12 35L11 35L11 36L12 36L12 37L11 37L11 38L10 38L10 35L8 35L8 36L6 36L6 37L5 37L5 38L6 38L6 39L7 39L7 40L8 40L8 39L9 39L9 40L10 40L10 39L13 39L13 40L14 40L14 37L13 37L13 36L15 36L15 34L16 34L16 31L17 31L17 29L18 29L18 32L20 32L20 33L21 33L21 32L20 32L20 31L19 31L19 29L20 29L20 28L19 28L19 27L20 27L20 26L21 26L21 25L22 25L22 27L21 27L21 29L22 29L22 28L23 28L23 26L24 26L24 30L27 30L27 32L28 32L28 31L30 31L30 34L29 34L29 35L28 35L28 33L26 33L26 32L25 32L25 31L22 31L22 30L21 30L21 31L22 31L22 34L23 34L23 35L21 35L21 34L19 34L19 35L18 35L18 33L17 33L17 35L16 35L16 37L15 37L15 39L17 39L17 38L18 38L18 39L19 39L19 40L20 40L20 39L21 39L21 37L20 37L20 36L23 36L23 35L24 35L24 38L25 38L25 37L26 37L26 35L24 35L24 33L23 33L23 32L25 32L25 33L26 33L26 34L27 34L27 36L28 36L28 37L27 37L27 38L26 38L26 39L27 39L27 40L28 40L28 39L27 39L27 38L29 38L29 39L30 39L30 40L29 40L29 42L30 42L30 43L29 43L29 44L30 44L30 43L31 43L31 42L30 42L30 40L31 40L31 41L32 41L32 42L36 42L36 44L34 44L34 45L36 45L36 44L37 44L37 46L38 46L38 44L39 44L39 47L40 47L40 45L41 45L41 43L40 43L40 42L38 42L38 41L39 41L39 38L40 38L40 40L42 40L42 41L41 41L41 42L42 42L42 41L43 41L43 40L45 40L45 39L46 39L46 41L47 41L47 42L48 42L48 41L49 41L49 40L50 40L50 39L47 39L47 38L48 38L48 37L47 37L47 38L45 38L45 39L43 39L43 38L44 38L44 37L43 37L43 38L42 38L42 37L41 37L41 38L40 38L40 37L39 37L39 36L40 36L40 35L38 35L38 36L37 36L37 35L35 35L35 34L37 34L37 33L39 33L39 31L38 31L38 30L35 30L35 29L36 29L36 28L35 28L35 29L34 29L34 28L33 28L33 27L32 27L32 26L30 26L30 27L32 27L32 29L31 29L31 28L29 28L29 24L33 24L33 26L34 26L34 25L35 25L35 26L37 26L37 29L40 29L40 30L41 30L41 29L40 29L40 28L41 28L41 25L42 25L42 24L43 24L43 22L44 22L44 21L45 21L45 22L46 22L46 21L45 21L45 20L46 20L46 19L47 19L47 17L48 17L48 18L49 18L49 17L50 17L50 15L49 15L49 17L48 17L48 14L47 14L47 15L46 15L46 16L47 16L47 17L46 17L46 18L45 18L45 19L44 19L44 18L43 18L43 19L41 19L41 20L40 20L40 18L38 18L38 17L39 17L39 16L37 16L37 17L36 17L36 15L35 15L35 16L34 16L34 14L33 14L33 13L34 13L34 12L33 12L33 11L32 11L32 12L33 12L33 13L31 13L31 12L30 12L30 13L29 13L29 14L28 14L28 12L29 12L29 11L28 11L28 10L27 10L27 13L26 13L26 12L25 12L25 14L23 14L23 13L22 13L22 12L21 12L21 10ZM18 11L18 12L20 12L20 11ZM42 11L42 12L43 12L43 11ZM19 13L19 14L20 14L20 15L19 15L19 16L18 16L18 17L20 17L20 19L21 19L21 21L22 21L22 19L21 19L21 17L22 17L22 18L23 18L23 20L26 20L26 19L27 19L27 20L31 20L31 19L32 19L32 21L31 21L31 23L32 23L32 22L33 22L33 21L34 21L34 22L36 22L36 23L34 23L34 24L35 24L35 25L36 25L36 23L38 23L38 24L37 24L37 26L38 26L38 24L39 24L39 22L40 22L40 25L39 25L39 27L38 27L38 28L39 28L39 27L40 27L40 25L41 25L41 21L38 21L38 22L37 22L37 20L38 20L38 19L37 19L37 20L36 20L36 17L35 17L35 19L33 19L33 18L31 18L31 17L32 17L32 16L30 16L30 15L29 15L29 16L28 16L28 15L27 15L27 14L25 14L25 15L26 15L26 16L27 16L27 17L25 17L25 16L24 16L24 18L23 18L23 16L21 16L21 15L22 15L22 14L20 14L20 13ZM30 13L30 14L31 14L31 13ZM1 14L1 15L2 15L2 14ZM32 14L32 15L33 15L33 14ZM41 14L41 15L40 15L40 16L41 16L41 15L43 15L43 14ZM14 16L14 18L15 18L15 16ZM33 16L33 17L34 17L34 16ZM29 17L29 18L30 18L30 17ZM41 17L41 18L42 18L42 17ZM17 18L17 19L18 19L18 18ZM25 18L25 19L26 19L26 18ZM43 19L43 20L42 20L42 21L43 21L43 20L44 20L44 19ZM6 21L6 22L8 22L8 21ZM24 21L24 22L23 22L23 23L24 23L24 24L27 24L27 22L28 22L28 23L30 23L30 21L27 21L27 22L26 22L26 23L24 23L24 22L25 22L25 21ZM2 23L2 24L3 24L3 23ZM11 24L11 25L13 25L13 26L12 26L12 27L10 27L10 28L12 28L12 27L13 27L13 26L15 26L15 25L13 25L13 24ZM5 25L5 28L8 28L8 25ZM19 25L19 26L20 26L20 25ZM25 25L25 28L28 28L28 25ZM45 25L45 28L48 28L48 25ZM50 25L50 26L49 26L49 27L50 27L50 26L52 26L52 25ZM0 26L0 27L1 27L1 26ZM6 26L6 27L7 27L7 26ZM26 26L26 27L27 27L27 26ZM42 26L42 28L43 28L43 26ZM46 26L46 27L47 27L47 26ZM16 27L16 28L15 28L15 29L16 29L16 28L18 28L18 29L19 29L19 28L18 28L18 27ZM11 29L11 32L12 32L12 29ZM29 29L29 30L30 30L30 31L31 31L31 29ZM33 29L33 30L32 30L32 32L31 32L31 33L32 33L32 34L33 34L33 35L34 35L34 36L32 36L32 35L29 35L29 37L30 37L30 38L32 38L32 39L31 39L31 40L32 40L32 39L33 39L33 40L34 40L34 41L38 41L38 40L37 40L37 37L35 37L35 35L34 35L34 34L35 34L35 32L36 32L36 33L37 33L37 32L38 32L38 31L37 31L37 32L36 32L36 31L35 31L35 32L34 32L34 33L33 33L33 30L34 30L34 29ZM50 30L50 31L51 31L51 30ZM3 31L3 32L4 32L4 31ZM5 32L5 33L7 33L7 32ZM50 33L50 34L51 34L51 33ZM17 35L17 36L18 36L18 35ZM19 35L19 36L20 36L20 35ZM44 35L44 36L46 36L46 35ZM47 35L47 36L48 36L48 35ZM30 36L30 37L31 37L31 36ZM6 37L6 38L8 38L8 37ZM12 37L12 38L13 38L13 37ZM16 37L16 38L17 38L17 37ZM32 37L32 38L33 38L33 39L34 39L34 40L35 40L35 39L36 39L36 38L35 38L35 39L34 39L34 38L33 38L33 37ZM41 38L41 39L42 39L42 40L43 40L43 39L42 39L42 38ZM2 41L2 43L3 43L3 42L5 42L5 41ZM44 41L44 42L45 42L45 43L46 43L46 42L45 42L45 41ZM12 42L12 43L11 43L11 44L12 44L12 43L14 43L14 42ZM26 42L26 43L27 43L27 42ZM37 42L37 43L38 43L38 42ZM39 43L39 44L40 44L40 43ZM52 44L52 46L53 46L53 44ZM20 45L20 46L21 46L21 48L22 48L22 47L24 47L24 46L22 46L22 45ZM25 45L25 48L28 48L28 45ZM45 45L45 48L48 48L48 45ZM49 45L49 46L50 46L50 45ZM10 46L10 47L11 47L11 46ZM26 46L26 47L27 47L27 46ZM43 46L43 47L44 47L44 46ZM46 46L46 47L47 47L47 46ZM12 49L12 50L13 50L13 51L12 51L12 53L13 53L13 51L14 51L14 52L15 52L15 53L16 53L16 52L15 52L15 51L16 51L16 50L15 50L15 51L14 51L14 50L13 50L13 49ZM19 49L19 50L18 50L18 51L19 51L19 50L20 50L20 49ZM51 49L51 50L52 50L52 49ZM35 50L35 51L36 51L36 50ZM9 51L9 52L10 52L10 51ZM38 51L38 52L39 52L39 51ZM44 51L44 53L45 53L45 51ZM0 0L0 7L7 7L7 0ZM1 1L1 6L6 6L6 1ZM2 2L2 5L5 5L5 2ZM46 0L46 7L53 7L53 0ZM47 1L47 6L52 6L52 1ZM48 2L48 5L51 5L51 2ZM0 46L0 53L7 53L7 46ZM1 47L1 52L6 52L6 47ZM2 48L2 51L5 51L5 48Z" fill="#000000"/></g></g></svg>
