<?xml version="1.0" encoding="UTF-8"?>
<svg xmlns="http://www.w3.org/2000/svg" version="1.1" width="100" height="100" viewBox="0 0 100 100"><rect x="0" y="0" width="100" height="100" fill="#ffffff"/><g transform="scale(1.754)"><g transform="translate(0,0)"><path fill-rule="evenodd" d="M9 0L9 1L8 1L8 2L9 2L9 3L8 3L8 4L9 4L9 5L8 5L8 7L9 7L9 5L10 5L10 7L11 7L11 8L10 8L10 9L9 9L9 8L6 8L6 9L5 9L5 8L0 8L0 11L3 11L3 12L2 12L2 13L1 13L1 14L2 14L2 15L3 15L3 17L4 17L4 16L6 16L6 17L5 17L5 18L6 18L6 19L4 19L4 18L1 18L1 16L0 16L0 18L1 18L1 19L0 19L0 21L1 21L1 19L4 19L4 21L5 21L5 22L3 22L3 20L2 20L2 23L1 23L1 22L0 22L0 23L1 23L1 24L0 24L0 26L1 26L1 31L0 31L0 33L1 33L1 35L0 35L0 38L1 38L1 39L0 39L0 41L1 41L1 43L0 43L0 44L1 44L1 43L2 43L2 42L3 42L3 41L2 41L2 40L1 40L1 39L3 39L3 40L5 40L5 41L4 41L4 42L5 42L5 41L7 41L7 42L6 42L6 43L8 43L8 41L7 41L7 40L6 40L6 39L7 39L7 38L8 38L8 36L6 36L6 37L5 37L5 35L4 35L4 34L3 34L3 33L4 33L4 32L6 32L6 33L10 33L10 32L9 32L9 30L10 30L10 29L11 29L11 30L13 30L13 31L11 31L11 37L12 37L12 38L14 38L14 39L13 39L13 40L12 40L12 39L11 39L11 38L10 38L10 37L9 37L9 38L10 38L10 40L9 40L9 42L11 42L11 43L13 43L13 45L12 45L12 44L11 44L11 45L10 45L10 43L9 43L9 45L8 45L8 44L6 44L6 45L7 45L7 46L5 46L5 43L3 43L3 44L2 44L2 45L0 45L0 48L5 48L5 47L7 47L7 46L9 46L9 47L11 47L11 45L12 45L12 47L16 47L16 48L17 48L17 46L13 46L13 45L14 45L14 44L16 44L16 45L18 45L18 46L19 46L19 48L18 48L18 49L19 49L19 50L15 50L15 49L14 49L14 48L13 48L13 50L12 50L12 48L11 48L11 49L10 49L10 48L6 48L6 49L8 49L8 51L9 51L9 52L8 52L8 57L11 57L11 56L12 56L12 55L9 55L9 54L10 54L10 53L11 53L11 54L13 54L13 55L15 55L15 56L13 56L13 57L22 57L22 56L23 56L23 57L24 57L24 56L25 56L25 54L27 54L27 53L28 53L28 54L29 54L29 55L26 55L26 56L27 56L27 57L28 57L28 56L29 56L29 57L31 57L31 56L32 56L32 54L31 54L31 52L33 52L33 56L34 56L34 55L35 55L35 57L37 57L37 56L36 56L36 55L35 55L35 54L38 54L38 55L40 55L40 56L38 56L38 57L40 57L40 56L41 56L41 57L43 57L43 56L45 56L45 57L46 57L46 55L47 55L47 54L48 54L48 55L49 55L49 54L50 54L50 55L51 55L51 56L50 56L50 57L51 57L51 56L52 56L52 55L51 55L51 53L53 53L53 54L55 54L55 53L57 53L57 51L56 51L56 52L55 52L55 51L54 51L54 49L55 49L55 47L56 47L56 48L57 48L57 47L56 47L56 42L57 42L57 41L55 41L55 42L53 42L53 43L52 43L52 42L51 42L51 41L53 41L53 40L55 40L55 39L57 39L57 37L56 37L56 38L55 38L55 39L54 39L54 37L53 37L53 36L55 36L55 35L56 35L56 34L55 34L55 35L54 35L54 34L52 34L52 36L51 36L51 35L50 35L50 32L52 32L52 33L56 33L56 32L55 32L55 31L56 31L56 30L57 30L57 29L56 29L56 26L57 26L57 23L56 23L56 22L57 22L57 21L53 21L53 25L52 25L52 26L49 26L49 25L50 25L50 23L51 23L51 24L52 24L52 22L50 22L50 20L51 20L51 21L52 21L52 20L56 20L56 18L55 18L55 16L56 16L56 17L57 17L57 16L56 16L56 14L57 14L57 13L56 13L56 14L54 14L54 13L53 13L53 15L51 15L51 14L52 14L52 13L51 13L51 14L50 14L50 13L48 13L48 15L47 15L47 14L46 14L46 13L47 13L47 12L46 12L46 11L48 11L48 12L49 12L49 11L50 11L50 8L49 8L49 9L48 9L48 7L49 7L49 6L48 6L48 7L47 7L47 5L48 5L48 0L46 0L46 1L47 1L47 2L45 2L45 0L44 0L44 3L42 3L42 2L41 2L41 1L40 1L40 0L39 0L39 1L38 1L38 0L36 0L36 1L34 1L34 0L33 0L33 2L32 2L32 0L29 0L29 1L31 1L31 2L30 2L30 3L31 3L31 2L32 2L32 3L33 3L33 2L36 2L36 1L37 1L37 2L38 2L38 3L42 3L42 5L43 5L43 4L44 4L44 5L45 5L45 6L44 6L44 7L43 7L43 6L42 6L42 7L41 7L41 5L38 5L38 4L37 4L37 3L36 3L36 4L37 4L37 5L38 5L38 9L40 9L40 10L37 10L37 6L36 6L36 7L35 7L35 5L33 5L33 6L32 6L32 5L31 5L31 4L27 4L27 2L28 2L28 3L29 3L29 2L28 2L28 0L27 0L27 1L25 1L25 0L21 0L21 1L22 1L22 2L21 2L21 3L23 3L23 1L25 1L25 2L24 2L24 4L21 4L21 6L20 6L20 5L18 5L18 7L19 7L19 6L20 6L20 7L21 7L21 6L22 6L22 7L23 7L23 9L22 9L22 8L20 8L20 9L22 9L22 10L21 10L21 11L22 11L22 10L23 10L23 11L24 11L24 12L25 12L25 13L23 13L23 14L22 14L22 15L21 15L21 16L20 16L20 13L22 13L22 12L20 12L20 13L18 13L18 12L16 12L16 13L15 13L15 14L14 14L14 13L13 13L13 12L14 12L14 11L13 11L13 10L10 10L10 9L11 9L11 8L12 8L12 9L14 9L14 10L15 10L15 9L14 9L14 8L15 8L15 6L16 6L16 8L17 8L17 4L20 4L20 0L19 0L19 3L17 3L17 2L18 2L18 0L17 0L17 1L15 1L15 0L14 0L14 3L15 3L15 4L14 4L14 5L13 5L13 4L11 4L11 5L10 5L10 4L9 4L9 3L10 3L10 2L9 2L9 1L12 1L12 0ZM42 0L42 1L43 1L43 0ZM39 1L39 2L40 2L40 1ZM11 2L11 3L12 3L12 2ZM15 2L15 3L16 3L16 4L15 4L15 5L16 5L16 4L17 4L17 3L16 3L16 2ZM25 3L25 4L24 4L24 5L22 5L22 6L23 6L23 7L24 7L24 9L23 9L23 10L24 10L24 9L26 9L26 12L27 12L27 13L26 13L26 14L23 14L23 16L21 16L21 17L20 17L20 16L19 16L19 15L18 15L18 13L16 13L16 14L17 14L17 15L16 15L16 16L17 16L17 17L15 17L15 15L14 15L14 14L13 14L13 13L12 13L12 12L13 12L13 11L12 11L12 12L11 12L11 14L10 14L10 10L9 10L9 12L7 12L7 11L6 11L6 12L5 12L5 13L4 13L4 14L5 14L5 13L6 13L6 14L7 14L7 15L6 15L6 16L8 16L8 17L9 17L9 18L10 18L10 19L11 19L11 20L10 20L10 21L9 21L9 23L10 23L10 24L11 24L11 25L8 25L8 26L13 26L13 27L14 27L14 28L13 28L13 30L15 30L15 29L14 29L14 28L17 28L17 29L16 29L16 31L13 31L13 33L15 33L15 35L14 35L14 34L13 34L13 35L12 35L12 37L13 37L13 35L14 35L14 37L15 37L15 38L16 38L16 37L17 37L17 40L21 40L21 38L22 38L22 39L24 39L24 40L22 40L22 41L16 41L16 39L14 39L14 40L15 40L15 41L13 41L13 43L14 43L14 42L15 42L15 43L16 43L16 44L18 44L18 45L19 45L19 44L20 44L20 42L22 42L22 43L21 43L21 44L22 44L22 45L20 45L20 48L21 48L21 49L20 49L20 50L21 50L21 52L19 52L19 53L17 53L17 51L16 51L16 52L15 52L15 53L16 53L16 54L15 54L15 55L16 55L16 56L18 56L18 55L17 55L17 54L19 54L19 55L20 55L20 54L19 54L19 53L23 53L23 54L22 54L22 55L21 55L21 56L22 56L22 55L23 55L23 56L24 56L24 55L23 55L23 54L24 54L24 53L23 53L23 52L25 52L25 53L26 53L26 50L24 50L24 49L26 49L26 48L24 48L24 47L22 47L22 46L24 46L24 45L25 45L25 46L26 46L26 47L27 47L27 48L28 48L28 47L30 47L30 48L32 48L32 49L33 49L33 52L34 52L34 54L35 54L35 52L37 52L37 53L38 53L38 54L40 54L40 55L41 55L41 56L42 56L42 55L43 55L43 54L45 54L45 55L46 55L46 54L47 54L47 52L48 52L48 51L46 51L46 50L47 50L47 49L48 49L48 48L50 48L50 47L52 47L52 48L53 48L53 47L52 47L52 46L53 46L53 45L55 45L55 44L52 44L52 43L51 43L51 42L50 42L50 43L49 43L49 45L48 45L48 44L47 44L47 43L48 43L48 40L49 40L49 41L51 41L51 40L50 40L50 39L53 39L53 37L51 37L51 38L50 38L50 35L49 35L49 32L50 32L50 31L48 31L48 32L47 32L47 31L46 31L46 30L48 30L48 28L47 28L47 29L46 29L46 30L45 30L45 28L44 28L44 27L43 27L43 26L42 26L42 23L43 23L43 22L44 22L44 23L45 23L45 24L43 24L43 25L44 25L44 26L45 26L45 25L46 25L46 26L47 26L47 27L48 27L48 26L47 26L47 24L48 24L48 25L49 25L49 24L48 24L48 23L50 23L50 22L48 22L48 23L45 23L45 22L47 22L47 21L49 21L49 20L50 20L50 19L49 19L49 20L48 20L48 17L49 17L49 18L51 18L51 19L52 19L52 18L51 18L51 17L50 17L50 16L51 16L51 15L50 15L50 14L49 14L49 16L48 16L48 17L47 17L47 15L46 15L46 14L44 14L44 13L45 13L45 12L44 12L44 11L46 11L46 10L47 10L47 9L46 9L46 10L44 10L44 9L45 9L45 8L40 8L40 6L39 6L39 8L40 8L40 9L41 9L41 10L40 10L40 11L41 11L41 12L39 12L39 13L38 13L38 14L37 14L37 15L34 15L34 14L36 14L36 13L34 13L34 14L32 14L32 13L33 13L33 12L31 12L31 16L30 16L30 15L29 15L29 14L30 14L30 13L29 13L29 12L30 12L30 11L31 11L31 10L32 10L32 9L31 9L31 10L30 10L30 9L29 9L29 10L30 10L30 11L29 11L29 12L27 12L27 11L28 11L28 10L27 10L27 9L26 9L26 6L25 6L25 4L26 4L26 3ZM44 3L44 4L45 4L45 5L47 5L47 3ZM12 5L12 6L11 6L11 7L12 7L12 8L13 8L13 7L14 7L14 6L13 6L13 5ZM27 5L27 8L30 8L30 5ZM12 6L12 7L13 7L13 6ZM24 6L24 7L25 7L25 6ZM28 6L28 7L29 7L29 6ZM31 6L31 8L34 8L34 6L33 6L33 7L32 7L32 6ZM45 6L45 7L46 7L46 8L47 8L47 7L46 7L46 6ZM18 8L18 9L19 9L19 8ZM35 8L35 9L36 9L36 8ZM51 8L51 9L52 9L52 11L51 11L51 12L53 12L53 11L54 11L54 12L55 12L55 11L56 11L56 12L57 12L57 11L56 11L56 10L57 10L57 9L56 9L56 8L55 8L55 9L56 9L56 10L55 10L55 11L54 11L54 10L53 10L53 9L54 9L54 8L53 8L53 9L52 9L52 8ZM4 9L4 10L3 10L3 11L4 11L4 10L5 10L5 9ZM6 9L6 10L7 10L7 9ZM33 9L33 10L34 10L34 12L37 12L37 11L36 11L36 10L34 10L34 9ZM42 9L42 10L43 10L43 9ZM17 10L17 11L18 11L18 10ZM48 10L48 11L49 11L49 10ZM42 11L42 12L41 12L41 13L40 13L40 15L41 15L41 14L43 14L43 11ZM6 12L6 13L7 13L7 12ZM8 13L8 15L9 15L9 13ZM28 13L28 14L27 14L27 15L28 15L28 14L29 14L29 13ZM12 14L12 15L11 15L11 17L12 17L12 15L13 15L13 14ZM38 14L38 15L37 15L37 16L36 16L36 17L38 17L38 15L39 15L39 14ZM24 15L24 16L25 16L25 15ZM32 15L32 16L31 16L31 17L30 17L30 18L31 18L31 20L33 20L33 21L29 21L29 22L28 22L28 23L27 23L27 24L29 24L29 22L31 22L31 23L30 23L30 26L25 26L25 25L26 25L26 24L25 24L25 23L26 23L26 22L25 22L25 20L24 20L24 19L26 19L26 18L25 18L25 17L24 17L24 19L23 19L23 17L21 17L21 18L20 18L20 17L19 17L19 16L18 16L18 17L19 17L19 18L17 18L17 21L19 21L19 22L20 22L20 23L18 23L18 22L17 22L17 23L18 23L18 25L22 25L22 27L21 27L21 28L20 28L20 29L19 29L19 26L18 26L18 27L17 27L17 28L18 28L18 29L17 29L17 30L18 30L18 31L19 31L19 32L18 32L18 33L17 33L17 32L15 32L15 33L17 33L17 35L15 35L15 37L16 37L16 36L17 36L17 37L20 37L20 33L21 33L21 34L22 34L22 35L23 35L23 33L21 33L21 32L20 32L20 31L21 31L21 30L22 30L22 32L24 32L24 31L29 31L29 32L28 32L28 33L30 33L30 31L31 31L31 35L30 35L30 34L29 34L29 35L30 35L30 36L29 36L29 37L28 37L28 36L27 36L27 35L26 35L26 34L25 34L25 33L26 33L26 32L25 32L25 33L24 33L24 34L25 34L25 35L24 35L24 37L23 37L23 38L24 38L24 37L25 37L25 36L26 36L26 38L25 38L25 41L24 41L24 43L23 43L23 44L25 44L25 45L26 45L26 44L25 44L25 42L26 42L26 43L27 43L27 42L28 42L28 41L29 41L29 43L31 43L31 44L30 44L30 45L31 45L31 44L35 44L35 46L34 46L34 45L32 45L32 46L34 46L34 47L35 47L35 48L36 48L36 49L35 49L35 51L37 51L37 50L38 50L38 51L39 51L39 52L38 52L38 53L39 53L39 52L41 52L41 55L42 55L42 54L43 54L43 51L44 51L44 52L45 52L45 51L44 51L44 48L45 48L45 49L46 49L46 48L45 48L45 47L47 47L47 48L48 48L48 47L49 47L49 46L46 46L46 45L44 45L44 44L46 44L46 43L47 43L47 42L46 42L46 41L45 41L45 42L46 42L46 43L42 43L42 42L44 42L44 41L43 41L43 39L42 39L42 40L41 40L41 39L40 39L40 38L43 38L43 37L44 37L44 38L45 38L45 39L44 39L44 40L45 40L45 39L46 39L46 40L48 40L48 39L49 39L49 35L47 35L47 34L46 34L46 35L44 35L44 34L43 34L43 31L44 31L44 32L46 32L46 31L44 31L44 30L43 30L43 29L41 29L41 31L40 31L40 32L41 32L41 34L37 34L37 32L36 32L36 33L35 33L35 34L33 34L33 35L32 35L32 32L35 32L35 31L36 31L36 29L37 29L37 31L38 31L38 29L39 29L39 27L40 27L40 26L41 26L41 28L42 28L42 26L41 26L41 25L40 25L40 24L41 24L41 23L40 23L40 24L39 24L39 26L37 26L37 28L34 28L34 27L32 27L32 28L33 28L33 29L32 29L32 31L31 31L31 26L32 26L32 25L31 25L31 24L32 24L32 22L33 22L33 21L35 21L35 20L36 20L36 21L37 21L37 22L36 22L36 24L35 24L35 25L36 25L36 24L37 24L37 23L39 23L39 22L40 22L40 21L39 21L39 22L38 22L38 19L39 19L39 20L41 20L41 19L39 19L39 18L43 18L43 17L39 17L39 18L36 18L36 19L35 19L35 18L33 18L33 17L35 17L35 16L34 16L34 15ZM42 15L42 16L45 16L45 17L44 17L44 18L45 18L45 19L42 19L42 20L43 20L43 21L41 21L41 22L43 22L43 21L44 21L44 20L45 20L45 21L47 21L47 18L45 18L45 17L46 17L46 16L45 16L45 15ZM13 16L13 17L14 17L14 18L13 18L13 19L12 19L12 18L11 18L11 19L12 19L12 20L11 20L11 21L12 21L12 22L10 22L10 23L11 23L11 24L12 24L12 25L13 25L13 26L14 26L14 27L16 27L16 26L14 26L14 25L17 25L17 24L16 24L16 23L15 23L15 24L12 24L12 22L13 22L13 23L14 23L14 22L13 22L13 21L15 21L15 22L16 22L16 21L15 21L15 20L16 20L16 19L15 19L15 17L14 17L14 16ZM26 16L26 17L28 17L28 16ZM32 16L32 17L31 17L31 18L32 18L32 19L33 19L33 18L32 18L32 17L33 17L33 16ZM52 16L52 17L53 17L53 18L54 18L54 16ZM6 17L6 18L7 18L7 17ZM21 18L21 19L19 19L19 21L23 21L23 22L24 22L24 21L23 21L23 20L22 20L22 18ZM27 18L27 19L28 19L28 20L26 20L26 21L28 21L28 20L30 20L30 19L28 19L28 18ZM6 19L6 20L9 20L9 19ZM13 19L13 20L12 20L12 21L13 21L13 20L14 20L14 19ZM34 19L34 20L35 20L35 19ZM36 19L36 20L37 20L37 19ZM45 19L45 20L46 20L46 19ZM6 21L6 22L7 22L7 23L6 23L6 24L7 24L7 23L8 23L8 21ZM34 22L34 23L33 23L33 24L34 24L34 23L35 23L35 22ZM3 23L3 24L2 24L2 26L3 26L3 24L5 24L5 23ZM23 23L23 24L22 24L22 25L23 25L23 29L22 29L22 28L21 28L21 29L20 29L20 30L19 30L19 31L20 31L20 30L21 30L21 29L22 29L22 30L23 30L23 31L24 31L24 29L25 29L25 30L26 30L26 27L25 27L25 28L24 28L24 25L25 25L25 24L24 24L24 23ZM55 23L55 25L56 25L56 23ZM23 24L23 25L24 25L24 24ZM4 25L4 26L5 26L5 25ZM6 25L6 26L7 26L7 25ZM33 25L33 26L34 26L34 25ZM53 25L53 27L55 27L55 26L54 26L54 25ZM35 26L35 27L36 27L36 26ZM2 27L2 28L3 28L3 27ZM5 27L5 30L8 30L8 27ZM9 27L9 28L12 28L12 27ZM27 27L27 30L30 30L30 27ZM49 27L49 30L52 30L52 27ZM6 28L6 29L7 29L7 28ZM28 28L28 29L29 29L29 28ZM37 28L37 29L38 29L38 28ZM50 28L50 29L51 29L51 28ZM53 28L53 29L54 29L54 31L55 31L55 30L56 30L56 29L55 29L55 28ZM2 29L2 31L1 31L1 32L2 32L2 33L3 33L3 32L2 32L2 31L3 31L3 29ZM34 29L34 30L33 30L33 31L34 31L34 30L35 30L35 29ZM42 30L42 31L41 31L41 32L42 32L42 31L43 31L43 30ZM6 31L6 32L7 32L7 31ZM52 31L52 32L53 32L53 31ZM18 33L18 35L19 35L19 33ZM6 34L6 35L7 35L7 34ZM8 34L8 35L9 35L9 34ZM35 34L35 35L33 35L33 36L30 36L30 37L29 37L29 40L34 40L34 38L36 38L36 36L37 36L37 34ZM41 34L41 35L43 35L43 34ZM1 35L1 37L2 37L2 36L3 36L3 35ZM38 35L38 38L40 38L40 37L42 37L42 36L40 36L40 35ZM46 35L46 36L44 36L44 37L45 37L45 38L47 38L47 39L48 39L48 38L47 38L47 37L48 37L48 36L47 36L47 35ZM46 36L46 37L47 37L47 36ZM3 37L3 38L4 38L4 39L6 39L6 38L7 38L7 37L6 37L6 38L4 38L4 37ZM27 37L27 38L26 38L26 39L27 39L27 40L28 40L28 39L27 39L27 38L28 38L28 37ZM30 37L30 39L31 39L31 37ZM32 37L32 38L33 38L33 37ZM18 38L18 39L20 39L20 38ZM35 39L35 41L36 41L36 39ZM37 39L37 42L36 42L36 43L38 43L38 42L39 42L39 40L40 40L40 41L41 41L41 42L42 42L42 41L41 41L41 40L40 40L40 39ZM11 41L11 42L12 42L12 41ZM22 41L22 42L23 42L23 41ZM26 41L26 42L27 42L27 41ZM31 41L31 42L32 42L32 41ZM33 41L33 42L34 42L34 43L35 43L35 42L34 42L34 41ZM17 42L17 43L18 43L18 42ZM41 43L41 44L39 44L39 45L38 45L38 46L37 46L37 47L36 47L36 48L37 48L37 49L38 49L38 50L39 50L39 51L41 51L41 52L42 52L42 51L43 51L43 50L42 50L42 51L41 51L41 48L42 48L42 49L43 49L43 48L42 48L42 47L45 47L45 46L44 46L44 45L43 45L43 44L42 44L42 43ZM50 43L50 44L51 44L51 43ZM3 44L3 45L2 45L2 46L1 46L1 47L2 47L2 46L3 46L3 47L5 47L5 46L4 46L4 44ZM27 44L27 45L29 45L29 44ZM41 44L41 46L43 46L43 45L42 45L42 44ZM9 45L9 46L10 46L10 45ZM39 45L39 46L38 46L38 47L39 47L39 48L41 48L41 47L39 47L39 46L40 46L40 45ZM50 45L50 46L51 46L51 45ZM30 46L30 47L31 47L31 46ZM32 47L32 48L33 48L33 49L34 49L34 48L33 48L33 47ZM23 48L23 49L24 49L24 48ZM9 49L9 51L10 51L10 49ZM27 49L27 52L30 52L30 49ZM39 49L39 50L40 50L40 49ZM49 49L49 52L52 52L52 49ZM56 49L56 50L57 50L57 49ZM14 50L14 51L15 51L15 50ZM22 50L22 52L23 52L23 50ZM28 50L28 51L29 51L29 50ZM50 50L50 51L51 51L51 50ZM12 51L12 52L11 52L11 53L13 53L13 51ZM9 52L9 53L10 53L10 52ZM53 52L53 53L55 53L55 52ZM29 53L29 54L30 54L30 53ZM48 53L48 54L49 54L49 53ZM29 55L29 56L30 56L30 55ZM53 55L53 56L55 56L55 57L56 57L56 56L55 56L55 55ZM48 56L48 57L49 57L49 56ZM0 0L0 7L7 7L7 0ZM1 1L1 6L6 6L6 1ZM2 2L2 5L5 5L5 2ZM50 0L50 7L57 7L57 0ZM51 1L51 6L56 6L56 1ZM52 2L52 5L55 5L55 2ZM0 50L0 57L7 57L7 50ZM1 51L1 56L6 56L6 51ZM2 52L2 55L5 55L5 52Z" fill="#000000"/></g></g></svg>
