<?xml version="1.0" encoding="UTF-8"?>
<svg xmlns="http://www.w3.org/2000/svg" version="1.1" width="100" height="100" viewBox="0 0 100 100"><rect x="0" y="0" width="100" height="100" fill="#ffffff"/><g transform="scale(2.439)"><g transform="translate(0,0)"><path fill-rule="evenodd" d="M11 0L11 1L8 1L8 2L9 2L9 3L8 3L8 4L9 4L9 3L11 3L11 4L10 4L10 7L9 7L9 5L8 5L8 7L9 7L9 8L6 8L6 9L9 9L9 10L8 10L8 11L7 11L7 10L6 10L6 11L4 11L4 13L3 13L3 12L2 12L2 13L1 13L1 11L0 11L0 14L2 14L2 15L0 15L0 16L1 16L1 18L0 18L0 19L1 19L1 20L0 20L0 22L1 22L1 23L0 23L0 24L1 24L1 23L2 23L2 24L3 24L3 25L0 25L0 26L1 26L1 27L0 27L0 28L1 28L1 27L2 27L2 29L0 29L0 33L1 33L1 30L2 30L2 31L3 31L3 33L4 33L4 32L6 32L6 33L8 33L8 35L10 35L10 36L8 36L8 41L10 41L10 39L11 39L11 38L10 38L10 37L11 37L11 35L10 35L10 34L12 34L12 35L13 35L13 36L14 36L14 37L15 37L15 39L14 39L14 38L13 38L13 37L12 37L12 38L13 38L13 39L12 39L12 40L13 40L13 41L18 41L18 40L16 40L16 39L19 39L19 37L20 37L20 36L22 36L22 38L20 38L20 40L19 40L19 41L20 41L20 40L21 40L21 41L26 41L26 40L24 40L24 39L26 39L26 38L25 38L25 37L27 37L27 39L28 39L28 38L29 38L29 39L30 39L30 40L29 40L29 41L32 41L32 40L33 40L33 41L35 41L35 40L37 40L37 38L41 38L41 36L40 36L40 35L39 35L39 36L38 36L38 35L37 35L37 34L38 34L38 33L39 33L39 32L38 32L38 33L37 33L37 31L36 31L36 32L35 32L35 30L37 30L37 29L39 29L39 28L38 28L38 27L40 27L40 26L41 26L41 23L40 23L40 22L41 22L41 21L40 21L40 18L41 18L41 17L40 17L40 16L41 16L41 15L39 15L39 16L37 16L37 17L34 17L34 15L33 15L33 13L31 13L31 14L29 14L29 13L30 13L30 12L31 12L31 11L30 11L30 8L29 8L29 9L28 9L28 10L27 10L27 6L28 6L28 7L29 7L29 4L30 4L30 5L32 5L32 8L31 8L31 10L32 10L32 12L33 12L33 9L34 9L34 11L35 11L35 12L38 12L38 13L35 13L35 16L36 16L36 14L37 14L37 15L38 15L38 13L39 13L39 14L41 14L41 13L40 13L40 11L39 11L39 12L38 12L38 10L41 10L41 9L40 9L40 8L39 8L39 9L38 9L38 8L37 8L37 9L36 9L36 8L35 8L35 9L34 9L34 8L33 8L33 4L30 4L30 3L29 3L29 0L25 0L25 2L24 2L24 4L23 4L23 2L21 2L21 1L22 1L22 0L20 0L20 2L18 2L18 0L17 0L17 2L16 2L16 1L14 1L14 0L13 0L13 2L11 2L11 1L12 1L12 0ZM23 0L23 1L24 1L24 0ZM30 0L30 1L32 1L32 2L31 2L31 3L32 3L32 2L33 2L33 0ZM14 2L14 3L12 3L12 4L13 4L13 5L12 5L12 6L11 6L11 9L12 9L12 11L11 11L11 10L9 10L9 11L11 11L11 12L13 12L13 13L11 13L11 14L10 14L10 15L9 15L9 13L10 13L10 12L8 12L8 13L6 13L6 12L7 12L7 11L6 11L6 12L5 12L5 13L4 13L4 14L5 14L5 13L6 13L6 14L8 14L8 15L5 15L5 16L3 16L3 17L4 17L4 18L5 18L5 19L3 19L3 18L1 18L1 19L2 19L2 20L4 20L4 21L1 21L1 22L2 22L2 23L3 23L3 22L4 22L4 25L3 25L3 26L2 26L2 27L4 27L4 30L5 30L5 29L6 29L6 30L7 30L7 29L8 29L8 31L6 31L6 32L8 32L8 33L9 33L9 32L8 32L8 31L10 31L10 30L13 30L13 31L12 31L12 32L14 32L14 31L15 31L15 33L14 33L14 34L16 34L16 35L17 35L17 34L16 34L16 33L17 33L17 32L18 32L18 35L20 35L20 33L19 33L19 32L18 32L18 31L17 31L17 30L20 30L20 31L21 31L21 30L20 30L20 29L22 29L22 31L23 31L23 33L22 33L22 34L21 34L21 35L22 35L22 36L23 36L23 37L24 37L24 36L23 36L23 35L24 35L24 34L23 34L23 33L25 33L25 36L26 36L26 33L25 33L25 32L26 32L26 30L28 30L28 31L29 31L29 32L28 32L28 33L27 33L27 34L28 34L28 35L29 35L29 36L30 36L30 35L29 35L29 32L30 32L30 31L29 31L29 30L28 30L28 29L29 29L29 28L30 28L30 27L29 27L29 26L31 26L31 28L32 28L32 29L33 29L33 30L34 30L34 29L37 29L37 28L36 28L36 27L37 27L37 26L36 26L36 27L35 27L35 26L34 26L34 25L38 25L38 24L40 24L40 23L39 23L39 22L38 22L38 21L39 21L39 18L40 18L40 17L38 17L38 18L36 18L36 19L35 19L35 20L34 20L34 18L30 18L30 17L29 17L29 16L30 16L30 15L28 15L28 17L27 17L27 18L26 18L26 17L25 17L25 16L26 16L26 14L28 14L28 13L29 13L29 12L30 12L30 11L29 11L29 12L28 12L28 11L26 11L26 10L25 10L25 9L24 9L24 10L23 10L23 9L22 9L22 8L23 8L23 7L24 7L24 8L26 8L26 6L25 6L25 7L24 7L24 5L25 5L25 4L24 4L24 5L23 5L23 4L22 4L22 3L21 3L21 4L19 4L19 3L17 3L17 4L16 4L16 5L17 5L17 7L16 7L16 6L15 6L15 4L14 4L14 3L15 3L15 2ZM25 2L25 3L26 3L26 2ZM27 3L27 4L26 4L26 5L28 5L28 4L29 4L29 3ZM18 4L18 5L19 5L19 4ZM13 5L13 6L12 6L12 7L13 7L13 6L14 6L14 7L15 7L15 9L14 9L14 8L12 8L12 9L14 9L14 10L15 10L15 11L14 11L14 12L15 12L15 13L13 13L13 14L11 14L11 15L10 15L10 16L8 16L8 17L7 17L7 16L5 16L5 18L6 18L6 19L5 19L5 20L6 20L6 21L8 21L8 17L10 17L10 18L9 18L9 24L8 24L8 25L11 25L11 26L9 26L9 27L8 27L8 29L9 29L9 30L10 30L10 28L9 28L9 27L11 27L11 26L12 26L12 25L11 25L11 23L10 23L10 18L11 18L11 17L12 17L12 15L14 15L14 14L17 14L17 15L16 15L16 18L14 18L14 16L13 16L13 18L12 18L12 19L11 19L11 20L12 20L12 19L13 19L13 20L14 20L14 21L15 21L15 24L13 24L13 23L14 23L14 22L13 22L13 21L12 21L12 22L13 22L13 23L12 23L12 24L13 24L13 25L16 25L16 26L15 26L15 27L14 27L14 28L15 28L15 29L14 29L14 30L17 30L17 29L16 29L16 27L17 27L17 25L18 25L18 27L19 27L19 23L18 23L18 24L16 24L16 23L17 23L17 22L19 22L19 21L17 21L17 20L20 20L20 21L21 21L21 22L20 22L20 23L21 23L21 24L20 24L20 28L22 28L22 27L23 27L23 30L24 30L24 32L25 32L25 30L24 30L24 29L28 29L28 28L25 28L25 25L27 25L27 24L28 24L28 23L30 23L30 24L29 24L29 25L28 25L28 26L27 26L27 27L28 27L28 26L29 26L29 25L31 25L31 26L32 26L32 24L33 24L33 25L34 25L34 24L36 24L36 23L34 23L34 22L37 22L37 23L38 23L38 22L37 22L37 21L38 21L38 19L37 19L37 21L31 21L31 20L32 20L32 19L30 19L30 20L29 20L29 19L28 19L28 18L29 18L29 17L28 17L28 18L27 18L27 19L26 19L26 20L25 20L25 18L24 18L24 19L23 19L23 20L22 20L22 19L21 19L21 18L22 18L22 17L21 17L21 16L22 16L22 15L23 15L23 17L24 17L24 15L23 15L23 14L24 14L24 13L27 13L27 12L25 12L25 11L24 11L24 12L23 12L23 10L22 10L22 9L20 9L20 11L19 11L19 8L16 8L16 7L15 7L15 6L14 6L14 5ZM20 5L20 7L21 7L21 8L22 8L22 7L23 7L23 5L22 5L22 7L21 7L21 5ZM18 6L18 7L19 7L19 6ZM30 6L30 7L31 7L31 6ZM0 8L0 9L2 9L2 11L3 11L3 9L4 9L4 10L5 10L5 8ZM15 9L15 10L16 10L16 9ZM17 9L17 12L16 12L16 13L17 13L17 14L20 14L20 15L22 15L22 12L21 12L21 11L20 11L20 12L19 12L19 11L18 11L18 9ZM37 9L37 10L38 10L38 9ZM18 12L18 13L19 13L19 12ZM20 13L20 14L21 14L21 13ZM31 14L31 17L32 17L32 14ZM17 15L17 16L18 16L18 15ZM6 17L6 18L7 18L7 17ZM19 17L19 18L18 18L18 19L20 19L20 20L21 20L21 21L22 21L22 20L21 20L21 19L20 19L20 17ZM16 18L16 19L17 19L17 18ZM6 19L6 20L7 20L7 19ZM14 19L14 20L15 20L15 19ZM27 19L27 20L26 20L26 21L24 21L24 20L23 20L23 21L24 21L24 22L22 22L22 24L23 24L23 25L22 25L22 26L23 26L23 27L24 27L24 26L23 26L23 25L24 25L24 24L23 24L23 23L25 23L25 24L26 24L26 23L27 23L27 22L28 22L28 21L29 21L29 22L30 22L30 21L29 21L29 20L28 20L28 19ZM16 21L16 22L17 22L17 21ZM6 22L6 23L5 23L5 25L4 25L4 26L6 26L6 27L7 27L7 26L6 26L6 25L7 25L7 24L6 24L6 23L8 23L8 22ZM25 22L25 23L26 23L26 22ZM31 22L31 23L33 23L33 22ZM39 25L39 26L40 26L40 25ZM12 27L12 28L11 28L11 29L13 29L13 27ZM32 27L32 28L33 28L33 27ZM6 28L6 29L7 29L7 28ZM18 28L18 29L19 29L19 28ZM30 29L30 30L31 30L31 33L30 33L30 34L32 34L32 30L31 30L31 29ZM40 29L40 30L41 30L41 29ZM38 30L38 31L39 31L39 30ZM16 31L16 32L17 32L17 31ZM40 31L40 34L41 34L41 31ZM12 33L12 34L13 34L13 33ZM33 33L33 36L36 36L36 33ZM34 34L34 35L35 35L35 34ZM14 35L14 36L15 36L15 35ZM31 35L31 37L32 37L32 38L31 38L31 40L32 40L32 39L33 39L33 40L35 40L35 39L34 39L34 38L37 38L37 37L38 37L38 36L37 36L37 37L34 37L34 38L33 38L33 37L32 37L32 35ZM17 36L17 37L16 37L16 38L18 38L18 37L19 37L19 36ZM27 36L27 37L28 37L28 36ZM39 36L39 37L40 37L40 36ZM29 37L29 38L30 38L30 37ZM9 38L9 39L10 39L10 38ZM23 38L23 39L24 39L24 38ZM13 39L13 40L14 40L14 39ZM39 39L39 40L38 40L38 41L39 41L39 40L40 40L40 39ZM27 40L27 41L28 41L28 40ZM0 0L0 7L7 7L7 0ZM1 1L1 6L6 6L6 1ZM2 2L2 5L5 5L5 2ZM34 0L34 7L41 7L41 0ZM35 1L35 6L40 6L40 1ZM36 2L36 5L39 5L39 2ZM0 34L0 41L7 41L7 34ZM1 35L1 40L6 40L6 35ZM2 36L2 39L5 39L5 36Z" fill="#000000"/></g></g></svg>
