<?xml version="1.0" encoding="UTF-8"?>
<svg xmlns="http://www.w3.org/2000/svg" version="1.1" width="100" height="100" viewBox="0 0 100 100"><rect x="0" y="0" width="100" height="100" fill="#ffffff"/><g transform="scale(1.538)"><g transform="translate(0,0)"><path fill-rule="evenodd" d="M8 0L8 1L9 1L9 2L10 2L10 3L9 3L9 5L10 5L10 7L11 7L11 8L10 8L10 9L8 9L8 10L5 10L5 8L3 8L3 9L2 9L2 8L0 8L0 11L1 11L1 12L2 12L2 11L5 11L5 12L3 12L3 13L4 13L4 14L2 14L2 13L1 13L1 14L2 14L2 15L0 15L0 16L1 16L1 18L0 18L0 19L1 19L1 20L0 20L0 23L1 23L1 24L0 24L0 25L2 25L2 26L0 26L0 30L2 30L2 29L3 29L3 31L2 31L2 34L1 34L1 31L0 31L0 35L2 35L2 36L3 36L3 37L1 37L1 38L0 38L0 39L1 39L1 40L0 40L0 46L1 46L1 48L0 48L0 54L2 54L2 55L3 55L3 56L1 56L1 55L0 55L0 56L1 56L1 57L3 57L3 56L4 56L4 57L5 57L5 56L4 56L4 53L5 53L5 55L7 55L7 56L6 56L6 57L7 57L7 56L9 56L9 54L11 54L11 55L10 55L10 57L11 57L11 58L12 58L12 59L10 59L10 58L9 58L9 57L8 57L8 58L9 58L9 60L8 60L8 62L9 62L9 60L10 60L10 61L11 61L11 62L12 62L12 64L11 64L11 63L10 63L10 64L9 64L9 63L8 63L8 65L10 65L10 64L11 64L11 65L12 65L12 64L14 64L14 65L20 65L20 64L21 64L21 65L22 65L22 64L21 64L21 62L25 62L25 63L27 63L27 62L28 62L28 61L29 61L29 64L28 64L28 65L29 65L29 64L30 64L30 65L31 65L31 64L32 64L32 63L30 63L30 62L31 62L31 61L33 61L33 62L34 62L34 61L35 61L35 63L34 63L34 65L35 65L35 63L37 63L37 64L36 64L36 65L37 65L37 64L38 64L38 65L40 65L40 63L39 63L39 64L38 64L38 62L39 62L39 61L38 61L38 60L39 60L39 59L38 59L38 58L39 58L39 57L40 57L40 58L43 58L43 59L42 59L42 61L41 61L41 60L40 60L40 62L42 62L42 63L41 63L41 65L42 65L42 64L43 64L43 65L45 65L45 64L44 64L44 63L46 63L46 59L45 59L45 58L47 58L47 59L48 59L48 58L49 58L49 59L50 59L50 60L47 60L47 62L50 62L50 63L53 63L53 62L54 62L54 63L55 63L55 64L53 64L53 65L57 65L57 64L56 64L56 63L55 63L55 62L59 62L59 63L58 63L58 65L59 65L59 64L60 64L60 65L62 65L62 64L63 64L63 63L64 63L64 64L65 64L65 62L63 62L63 63L62 63L62 62L59 62L59 61L61 61L61 60L62 60L62 59L63 59L63 61L65 61L65 60L64 60L64 57L65 57L65 53L64 53L64 57L62 57L62 56L63 56L63 54L62 54L62 53L60 53L60 54L59 54L59 53L58 53L58 52L57 52L57 53L55 53L55 52L56 52L56 51L55 51L55 50L57 50L57 49L58 49L58 51L59 51L59 52L65 52L65 50L64 50L64 49L65 49L65 47L63 47L63 45L62 45L62 46L61 46L61 44L60 44L60 42L61 42L61 43L62 43L62 44L64 44L64 45L65 45L65 42L64 42L64 40L63 40L63 39L65 39L65 36L64 36L64 35L63 35L63 38L62 38L62 34L65 34L65 33L63 33L63 32L65 32L65 30L64 30L64 28L63 28L63 26L61 26L61 27L62 27L62 28L60 28L60 30L59 30L59 29L57 29L57 30L55 30L55 29L56 29L56 28L59 28L59 27L57 27L57 26L58 26L58 25L59 25L59 24L60 24L60 25L61 25L61 24L62 24L62 23L63 23L63 22L62 22L62 21L63 21L63 19L62 19L62 18L60 18L60 17L61 17L61 16L62 16L62 17L65 17L65 16L64 16L64 15L65 15L65 12L62 12L62 11L61 11L61 10L62 10L62 9L61 9L61 10L60 10L60 9L59 9L59 8L58 8L58 9L56 9L56 8L57 8L57 6L56 6L56 7L55 7L55 5L53 5L53 4L56 4L56 5L57 5L57 4L56 4L56 3L57 3L57 1L56 1L56 0L55 0L55 1L56 1L56 3L55 3L55 2L54 2L54 3L52 3L52 2L53 2L53 0L50 0L50 2L48 2L48 3L47 3L47 1L49 1L49 0L46 0L46 1L44 1L44 0L42 0L42 1L41 1L41 0L38 0L38 2L37 2L37 0L34 0L34 1L36 1L36 2L33 2L33 3L31 3L31 0L30 0L30 1L29 1L29 0L28 0L28 1L29 1L29 2L30 2L30 3L31 3L31 4L29 4L29 3L28 3L28 4L29 4L29 5L28 5L28 7L27 7L27 5L26 5L26 4L27 4L27 3L26 3L26 4L24 4L24 3L25 3L25 2L27 2L27 0L24 0L24 1L22 1L22 0L20 0L20 1L19 1L19 2L21 2L21 3L18 3L18 1L17 1L17 3L16 3L16 1L15 1L15 0L14 0L14 1L13 1L13 2L12 2L12 3L11 3L11 2L10 2L10 1L12 1L12 0ZM32 0L32 1L33 1L33 0ZM14 1L14 2L13 2L13 3L12 3L12 4L10 4L10 5L11 5L11 7L12 7L12 8L11 8L11 9L10 9L10 10L8 10L8 11L9 11L9 12L10 12L10 11L11 11L11 13L9 13L9 14L10 14L10 15L9 15L9 16L8 16L8 17L6 17L6 16L7 16L7 15L8 15L8 14L7 14L7 13L5 13L5 14L7 14L7 15L5 15L5 16L4 16L4 15L3 15L3 16L2 16L2 18L1 18L1 19L2 19L2 21L1 21L1 22L2 22L2 21L3 21L3 23L4 23L4 24L2 24L2 25L3 25L3 26L2 26L2 27L1 27L1 29L2 29L2 28L5 28L5 26L7 26L7 27L6 27L6 28L7 28L7 27L8 27L8 30L9 30L9 33L10 33L10 34L9 34L9 35L5 35L5 36L4 36L4 37L5 37L5 38L7 38L7 39L4 39L4 40L3 40L3 38L1 38L1 39L2 39L2 40L1 40L1 41L2 41L2 42L1 42L1 43L2 43L2 42L3 42L3 41L4 41L4 42L7 42L7 43L6 43L6 44L4 44L4 43L3 43L3 44L4 44L4 45L5 45L5 46L3 46L3 45L2 45L2 46L3 46L3 47L4 47L4 48L5 48L5 49L3 49L3 48L1 48L1 53L3 53L3 52L5 52L5 53L6 53L6 54L8 54L8 52L9 52L9 53L10 53L10 52L11 52L11 53L12 53L12 54L13 54L13 55L11 55L11 56L12 56L12 58L13 58L13 59L12 59L12 60L13 60L13 62L14 62L14 63L16 63L16 64L18 64L18 63L19 63L19 64L20 64L20 61L19 61L19 62L18 62L18 60L20 60L20 59L21 59L21 58L22 58L22 60L23 60L23 61L24 61L24 60L25 60L25 61L26 61L26 62L27 62L27 61L28 61L28 60L29 60L29 61L30 61L30 60L29 60L29 59L30 59L30 58L29 58L29 59L28 59L28 58L27 58L27 57L28 57L28 56L26 56L26 57L25 57L25 58L22 58L22 55L23 55L23 57L24 57L24 55L27 55L27 54L28 54L28 53L27 53L27 54L24 54L24 53L25 53L25 51L24 51L24 50L23 50L23 51L22 51L22 48L21 48L21 47L22 47L22 46L23 46L23 45L24 45L24 43L25 43L25 44L26 44L26 46L24 46L24 47L27 47L27 48L29 48L29 47L31 47L31 48L30 48L30 49L28 49L28 50L27 50L27 49L26 49L26 48L25 48L25 50L26 50L26 52L27 52L27 51L29 51L29 50L31 50L31 52L29 52L29 53L30 53L30 55L31 55L31 56L34 56L34 54L35 54L35 55L36 55L36 56L35 56L35 57L36 57L36 56L37 56L37 53L38 53L38 54L39 54L39 55L40 55L40 54L39 54L39 53L41 53L41 54L42 54L42 55L41 55L41 56L42 56L42 57L44 57L44 58L45 58L45 55L44 55L44 53L43 53L43 54L42 54L42 53L41 53L41 52L44 52L44 51L43 51L43 50L42 50L42 51L40 51L40 52L37 52L37 53L36 53L36 52L35 52L35 51L36 51L36 50L38 50L38 49L40 49L40 50L41 50L41 49L44 49L44 50L46 50L46 51L45 51L45 53L46 53L46 52L47 52L47 53L48 53L48 52L49 52L49 53L50 53L50 54L49 54L49 57L50 57L50 54L51 54L51 62L52 62L52 59L53 59L53 57L52 57L52 55L53 55L53 56L54 56L54 57L55 57L55 56L56 56L56 55L55 55L55 54L53 54L53 53L54 53L54 52L52 52L52 51L54 51L54 50L52 50L52 51L51 51L51 50L50 50L50 49L49 49L49 50L50 50L50 51L51 51L51 52L49 52L49 51L47 51L47 50L48 50L48 47L47 47L47 46L49 46L49 47L50 47L50 48L51 48L51 47L50 47L50 46L49 46L49 45L50 45L50 43L51 43L51 46L52 46L52 44L53 44L53 45L54 45L54 44L55 44L55 42L54 42L54 41L53 41L53 39L54 39L54 40L55 40L55 41L56 41L56 42L57 42L57 43L56 43L56 44L57 44L57 45L58 45L58 48L59 48L59 45L60 45L60 44L59 44L59 45L58 45L58 42L60 42L60 41L61 41L61 42L62 42L62 43L63 43L63 40L62 40L62 41L61 41L61 38L59 38L59 40L58 40L58 37L56 37L56 38L57 38L57 41L56 41L56 40L55 40L55 38L53 38L53 37L54 37L54 36L55 36L55 34L54 34L54 36L53 36L53 37L52 37L52 35L53 35L53 34L50 34L50 31L51 31L51 33L52 33L52 31L51 31L51 30L53 30L53 31L55 31L55 33L56 33L56 31L55 31L55 30L54 30L54 29L55 29L55 28L56 28L56 27L55 27L55 26L56 26L56 25L58 25L58 24L59 24L59 23L58 23L58 20L59 20L59 19L60 19L60 20L61 20L61 21L62 21L62 19L60 19L60 18L57 18L57 17L60 17L60 15L59 15L59 14L60 14L60 13L58 13L58 14L57 14L57 15L59 15L59 16L56 16L56 17L55 17L55 16L54 16L54 17L53 17L53 15L54 15L54 14L53 14L53 13L52 13L52 14L51 14L51 15L50 15L50 13L51 13L51 12L50 12L50 11L51 11L51 10L50 10L50 11L49 11L49 13L48 13L48 12L46 12L46 10L45 10L45 13L46 13L46 14L45 14L45 15L44 15L44 14L42 14L42 13L44 13L44 11L43 11L43 12L42 12L42 11L41 11L41 9L46 9L46 8L47 8L47 7L48 7L48 8L49 8L49 7L50 7L50 9L52 9L52 8L51 8L51 7L52 7L52 5L51 5L51 7L50 7L50 6L49 6L49 4L50 4L50 3L51 3L51 2L52 2L52 1L51 1L51 2L50 2L50 3L49 3L49 4L48 4L48 6L47 6L47 7L46 7L46 6L45 6L45 7L46 7L46 8L44 8L44 5L47 5L47 3L45 3L45 2L43 2L43 1L42 1L42 3L41 3L41 1L40 1L40 3L41 3L41 5L40 5L40 4L39 4L39 2L38 2L38 3L37 3L37 2L36 2L36 3L37 3L37 4L36 4L36 6L35 6L35 10L34 10L34 12L33 12L33 13L34 13L34 15L33 15L33 19L32 19L32 17L31 17L31 16L30 16L30 14L31 14L31 13L32 13L32 10L31 10L31 13L29 13L29 12L30 12L30 9L29 9L29 10L26 10L26 9L27 9L27 8L25 8L25 7L26 7L26 5L23 5L23 8L24 8L24 9L22 9L22 10L20 10L20 8L19 8L19 9L17 9L17 8L18 8L18 5L19 5L19 7L20 7L20 6L21 6L21 7L22 7L22 6L21 6L21 5L19 5L19 4L17 4L17 5L16 5L16 4L15 4L15 1ZM21 1L21 2L22 2L22 3L21 3L21 4L22 4L22 3L24 3L24 2L22 2L22 1ZM13 3L13 4L12 4L12 7L13 7L13 4L14 4L14 3ZM33 3L33 4L34 4L34 3ZM42 3L42 5L41 5L41 6L40 6L40 5L39 5L39 4L37 4L37 5L39 5L39 6L38 6L38 9L37 9L37 8L36 8L36 10L37 10L37 12L35 12L35 13L36 13L36 14L35 14L35 15L34 15L34 18L35 18L35 19L36 19L36 18L35 18L35 16L36 16L36 17L37 17L37 20L34 20L34 21L31 21L31 20L32 20L32 19L31 19L31 17L29 17L29 14L28 14L28 12L26 12L26 11L25 11L25 9L24 9L24 10L23 10L23 11L21 11L21 12L22 12L22 13L20 13L20 11L18 11L18 10L15 10L15 11L16 11L16 12L14 12L14 11L13 11L13 12L12 12L12 13L13 13L13 15L10 15L10 16L9 16L9 18L2 18L2 19L3 19L3 21L4 21L4 23L7 23L7 24L4 24L4 25L7 25L7 26L8 26L8 27L9 27L9 29L11 29L11 30L12 30L12 29L13 29L13 31L12 31L12 32L11 32L11 31L10 31L10 32L11 32L11 33L12 33L12 35L9 35L9 36L11 36L11 38L10 38L10 37L8 37L8 38L10 38L10 39L7 39L7 40L5 40L5 41L7 41L7 40L11 40L11 39L12 39L12 37L13 37L13 38L15 38L15 36L16 36L16 35L17 35L17 36L18 36L18 37L20 37L20 38L16 38L16 39L20 39L20 40L18 40L18 41L17 41L17 40L16 40L16 41L14 41L14 39L13 39L13 42L12 42L12 43L11 43L11 42L10 42L10 41L8 41L8 43L10 43L10 44L9 44L9 45L8 45L8 44L6 44L6 45L8 45L8 46L5 46L5 47L7 47L7 48L6 48L6 49L7 49L7 50L6 50L6 51L5 51L5 52L6 52L6 53L7 53L7 52L8 52L8 51L11 51L11 49L12 49L12 50L13 50L13 51L12 51L12 52L14 52L14 53L13 53L13 54L14 54L14 53L15 53L15 55L16 55L16 56L13 56L13 58L14 58L14 57L15 57L15 58L18 58L18 59L19 59L19 58L18 58L18 57L20 57L20 58L21 58L21 55L22 55L22 54L20 54L20 53L21 53L21 52L22 52L22 51L21 51L21 52L18 52L18 51L19 51L19 49L20 49L20 50L21 50L21 48L18 48L18 47L21 47L21 46L22 46L22 45L23 45L23 41L22 41L22 45L19 45L19 44L20 44L20 43L19 43L19 41L20 41L20 40L22 40L22 38L23 38L23 39L24 39L24 42L25 42L25 43L28 43L28 44L30 44L30 46L33 46L33 47L34 47L34 46L35 46L35 48L36 48L36 49L35 49L35 50L33 50L33 49L32 49L32 48L31 48L31 49L32 49L32 50L33 50L33 51L35 51L35 50L36 50L36 49L38 49L38 48L39 48L39 45L40 45L40 47L44 47L44 49L45 49L45 48L47 48L47 47L46 47L46 46L47 46L47 45L49 45L49 44L46 44L46 45L43 45L43 43L49 43L49 42L47 42L47 40L48 40L48 41L51 41L51 42L53 42L53 43L54 43L54 42L53 42L53 41L51 41L51 40L52 40L52 38L51 38L51 36L50 36L50 34L48 34L48 33L49 33L49 32L48 32L48 31L49 31L49 30L50 30L50 29L51 29L51 28L50 28L50 29L49 29L49 28L48 28L48 27L49 27L49 26L48 26L48 25L50 25L50 27L51 27L51 26L52 26L52 28L53 28L53 29L54 29L54 28L53 28L53 26L55 26L55 25L54 25L54 24L55 24L55 23L54 23L54 24L52 24L52 23L51 23L51 24L52 24L52 25L50 25L50 22L51 22L51 21L52 21L52 22L55 22L55 21L56 21L56 22L57 22L57 20L58 20L58 19L57 19L57 18L56 18L56 20L55 20L55 21L53 21L53 20L54 20L54 19L52 19L52 18L53 18L53 17L52 17L52 15L53 15L53 14L52 14L52 15L51 15L51 17L52 17L52 18L51 18L51 19L50 19L50 20L48 20L48 19L49 19L49 18L48 18L48 17L49 17L49 16L48 16L48 15L49 15L49 14L48 14L48 13L47 13L47 15L45 15L45 16L43 16L43 15L42 15L42 14L41 14L41 12L40 12L40 11L39 11L39 10L40 10L40 9L41 9L41 8L40 8L40 7L41 7L41 6L42 6L42 8L43 8L43 6L42 6L42 5L43 5L43 4L45 4L45 3ZM14 5L14 8L12 8L12 9L11 9L11 11L12 11L12 9L13 9L13 10L14 10L14 8L15 8L15 9L16 9L16 7L17 7L17 6L16 6L16 7L15 7L15 5ZM29 5L29 7L28 7L28 8L30 8L30 5ZM31 5L31 8L34 8L34 5ZM8 6L8 8L9 8L9 6ZM24 6L24 7L25 7L25 6ZM32 6L32 7L33 7L33 6ZM36 6L36 7L37 7L37 6ZM39 6L39 7L40 7L40 6ZM48 6L48 7L49 7L49 6ZM53 6L53 7L54 7L54 6ZM6 8L6 9L7 9L7 8ZM39 8L39 9L40 9L40 8ZM53 8L53 9L55 9L55 8ZM64 8L64 10L65 10L65 8ZM52 10L52 12L54 12L54 13L55 13L55 14L56 14L56 13L55 13L55 12L56 12L56 11L58 11L58 10L55 10L55 12L54 12L54 11L53 11L53 10ZM59 10L59 12L61 12L61 11L60 11L60 10ZM6 11L6 12L7 12L7 11ZM24 11L24 13L26 13L26 12L25 12L25 11ZM38 11L38 12L37 12L37 14L36 14L36 15L37 15L37 14L38 14L38 12L39 12L39 14L40 14L40 16L39 16L39 17L38 17L38 16L37 16L37 17L38 17L38 18L39 18L39 19L38 19L38 20L37 20L37 21L36 21L36 22L34 22L34 23L33 23L33 25L31 25L31 24L30 24L30 23L29 23L29 22L31 22L31 23L32 23L32 22L31 22L31 21L29 21L29 19L30 19L30 18L29 18L29 19L28 19L28 18L27 18L27 17L25 17L25 18L24 18L24 17L23 17L23 16L24 16L24 15L22 15L22 16L21 16L21 14L20 14L20 18L18 18L18 19L21 19L21 18L22 18L22 19L23 19L23 21L22 21L22 20L19 20L19 21L21 21L21 22L20 22L20 23L21 23L21 22L22 22L22 23L29 23L29 25L28 25L28 26L27 26L27 25L26 25L26 24L23 24L23 25L22 25L22 24L19 24L19 23L18 23L18 22L16 22L16 21L15 21L15 23L14 23L14 19L11 19L11 18L9 18L9 19L8 19L8 20L7 20L7 19L6 19L6 20L7 20L7 21L5 21L5 22L7 22L7 23L8 23L8 22L9 22L9 23L10 23L10 22L9 22L9 21L8 21L8 20L10 20L10 19L11 19L11 21L13 21L13 23L12 23L12 22L11 22L11 23L12 23L12 24L11 24L11 25L10 25L10 26L9 26L9 25L8 25L8 26L9 26L9 27L11 27L11 28L12 28L12 27L11 27L11 25L13 25L13 29L14 29L14 30L15 30L15 29L16 29L16 28L14 28L14 25L15 25L15 26L18 26L18 27L17 27L17 30L16 30L16 31L15 31L15 33L14 33L14 32L13 32L13 33L14 33L14 34L13 34L13 35L12 35L12 36L13 36L13 35L16 35L16 33L17 33L17 30L19 30L19 29L18 29L18 27L19 27L19 28L21 28L21 29L20 29L20 31L18 31L18 32L19 32L19 33L20 33L20 31L21 31L21 34L20 34L20 37L21 37L21 36L23 36L23 37L24 37L24 36L23 36L23 35L25 35L25 34L26 34L26 35L27 35L27 33L30 33L30 30L28 30L28 31L26 31L26 30L27 30L27 29L25 29L25 28L23 28L23 27L25 27L25 26L26 26L26 27L27 27L27 28L28 28L28 29L31 29L31 28L30 28L30 27L29 27L29 25L31 25L31 26L32 26L32 27L33 27L33 25L34 25L34 27L35 27L35 30L36 30L36 31L35 31L35 33L36 33L36 34L35 34L35 35L38 35L38 34L37 34L37 33L36 33L36 32L38 32L38 31L39 31L39 30L40 30L40 31L43 31L43 34L42 34L42 35L45 35L45 36L46 36L46 39L47 39L47 37L48 37L48 40L51 40L51 39L50 39L50 38L49 38L49 37L48 37L48 34L46 34L46 35L45 35L45 33L46 33L46 31L48 31L48 28L45 28L45 27L43 27L43 28L42 28L42 27L41 27L41 28L39 28L39 27L38 27L38 26L35 26L35 25L36 25L36 23L38 23L38 24L37 24L37 25L40 25L40 24L39 24L39 23L38 23L38 22L37 22L37 21L38 21L38 20L39 20L39 21L40 21L40 17L41 17L41 20L42 20L42 21L47 21L47 22L46 22L46 23L45 23L45 22L43 22L43 23L45 23L45 25L44 25L44 24L42 24L42 22L41 22L41 24L42 24L42 25L43 25L43 26L45 26L45 25L46 25L46 26L47 26L47 27L48 27L48 26L47 26L47 25L48 25L48 23L49 23L49 22L50 22L50 21L49 21L49 22L48 22L48 21L47 21L47 18L45 18L45 17L44 17L44 19L45 19L45 20L42 20L42 19L43 19L43 18L42 18L42 16L41 16L41 14L40 14L40 12L39 12L39 11ZM13 12L13 13L14 13L14 12ZM16 12L16 13L15 13L15 14L16 14L16 13L17 13L17 16L15 16L15 15L14 15L14 16L15 16L15 20L16 20L16 18L17 18L17 17L18 17L18 12ZM22 13L22 14L23 14L23 13ZM62 13L62 14L61 14L61 15L62 15L62 14L64 14L64 13ZM3 16L3 17L4 17L4 16ZM11 16L11 17L12 17L12 16ZM46 16L46 17L47 17L47 16ZM13 17L13 18L14 18L14 17ZM54 17L54 18L55 18L55 17ZM23 18L23 19L24 19L24 21L23 21L23 22L25 22L25 19L24 19L24 18ZM26 18L26 19L27 19L27 18ZM64 18L64 19L65 19L65 18ZM4 19L4 20L5 20L5 19ZM64 20L64 22L65 22L65 20ZM28 21L28 22L29 22L29 21ZM47 22L47 23L46 23L46 25L47 25L47 23L48 23L48 22ZM15 23L15 24L16 24L16 23ZM56 23L56 24L57 24L57 23ZM18 24L18 25L19 25L19 27L20 27L20 26L21 26L21 25L19 25L19 24ZM34 24L34 25L35 25L35 24ZM63 24L63 25L65 25L65 24ZM24 25L24 26L25 26L25 25ZM52 25L52 26L53 26L53 25ZM3 26L3 27L4 27L4 26ZM22 26L22 27L21 27L21 28L22 28L22 27L23 27L23 26ZM64 26L64 27L65 27L65 26ZM28 27L28 28L29 28L29 27ZM36 27L36 30L38 30L38 27ZM33 28L33 29L34 29L34 28ZM41 28L41 29L40 29L40 30L41 30L41 29L42 29L42 30L43 30L43 31L46 31L46 30L47 30L47 29L45 29L45 28L43 28L43 29L42 29L42 28ZM62 28L62 29L63 29L63 28ZM5 29L5 30L7 30L7 29ZM21 29L21 31L22 31L22 33L23 33L23 34L22 34L22 35L23 35L23 34L25 34L25 32L26 32L26 31L24 31L24 30L25 30L25 29L23 29L23 30L22 30L22 29ZM44 29L44 30L45 30L45 29ZM62 30L62 31L64 31L64 30ZM5 31L5 34L8 34L8 31ZM23 31L23 33L24 33L24 31ZM28 31L28 32L29 32L29 31ZM31 31L31 34L34 34L34 31ZM57 31L57 34L60 34L60 31ZM3 32L3 33L4 33L4 32ZM6 32L6 33L7 33L7 32ZM32 32L32 33L33 33L33 32ZM47 32L47 33L48 33L48 32ZM58 32L58 33L59 33L59 32ZM61 32L61 34L62 34L62 32ZM39 33L39 34L40 34L40 33ZM2 34L2 35L4 35L4 34ZM28 34L28 36L27 36L27 37L26 37L26 36L25 36L25 37L26 37L26 38L27 38L27 39L28 39L28 40L27 40L27 41L26 41L26 42L28 42L28 43L29 43L29 42L28 42L28 40L29 40L29 38L30 38L30 37L31 37L31 38L32 38L32 37L33 37L33 39L34 39L34 41L32 41L32 39L31 39L31 41L30 41L30 43L34 43L34 42L35 42L35 44L36 44L36 40L37 40L37 39L38 39L38 38L37 38L37 39L34 39L34 36L33 36L33 35L32 35L32 36L31 36L31 35L30 35L30 34ZM18 35L18 36L19 36L19 35ZM40 35L40 36L41 36L41 37L42 37L42 36L41 36L41 35ZM46 35L46 36L47 36L47 35ZM58 35L58 36L59 36L59 35ZM60 35L60 37L61 37L61 35ZM5 36L5 37L7 37L7 36ZM29 36L29 37L30 37L30 36ZM35 36L35 38L36 38L36 36ZM43 36L43 37L44 37L44 38L43 38L43 39L42 39L42 38L41 38L41 39L40 39L40 40L38 40L38 42L39 42L39 41L41 41L41 42L40 42L40 43L41 43L41 45L42 45L42 40L43 40L43 42L44 42L44 40L45 40L45 41L46 41L46 40L45 40L45 39L44 39L44 38L45 38L45 37L44 37L44 36ZM27 37L27 38L28 38L28 37ZM39 37L39 38L40 38L40 37ZM20 38L20 39L21 39L21 38ZM25 39L25 40L26 40L26 39ZM2 40L2 41L3 41L3 40ZM59 40L59 41L60 41L60 40ZM31 41L31 42L32 42L32 41ZM57 41L57 42L58 42L58 41ZM15 42L15 43L13 43L13 44L12 44L12 45L11 45L11 46L12 46L12 45L13 45L13 44L14 44L14 46L13 46L13 47L12 47L12 49L13 49L13 47L16 47L16 50L15 50L15 51L14 51L14 52L15 52L15 53L16 53L16 52L17 52L17 49L18 49L18 48L17 48L17 47L18 47L18 46L16 46L16 45L17 45L17 42ZM18 43L18 44L19 44L19 43ZM15 44L15 45L16 45L16 44ZM32 44L32 45L34 45L34 44ZM37 44L37 45L35 45L35 46L36 46L36 48L37 48L37 45L38 45L38 44ZM9 45L9 46L8 46L8 47L9 47L9 50L10 50L10 49L11 49L11 48L10 48L10 45ZM27 45L27 47L28 47L28 46L29 46L29 45ZM55 45L55 47L56 47L56 45ZM44 46L44 47L45 47L45 46ZM53 46L53 47L52 47L52 48L53 48L53 49L55 49L55 48L53 48L53 47L54 47L54 46ZM62 47L62 48L63 48L63 47ZM40 48L40 49L41 49L41 48ZM56 48L56 49L57 49L57 48ZM60 48L60 49L61 49L61 48ZM2 49L2 51L3 51L3 49ZM62 49L62 50L60 50L60 51L64 51L64 50L63 50L63 49ZM6 51L6 52L7 52L7 51ZM15 51L15 52L16 52L16 51ZM23 52L23 53L24 53L24 52ZM31 52L31 54L32 54L32 52ZM17 53L17 56L16 56L16 57L17 57L17 56L19 56L19 55L20 55L20 54L19 54L19 53ZM33 53L33 54L34 54L34 53ZM35 53L35 54L36 54L36 53ZM51 53L51 54L52 54L52 53ZM18 54L18 55L19 55L19 54ZM46 54L46 56L47 56L47 55L48 55L48 54ZM57 54L57 56L59 56L59 55L58 55L58 54ZM60 54L60 55L61 55L61 56L62 56L62 54ZM42 55L42 56L44 56L44 55ZM31 57L31 60L34 60L34 57ZM37 57L37 58L36 58L36 59L37 59L37 60L38 60L38 59L37 59L37 58L38 58L38 57ZM47 57L47 58L48 58L48 57ZM57 57L57 60L60 60L60 57ZM61 57L61 59L62 59L62 57ZM26 58L26 59L25 59L25 60L26 60L26 61L27 61L27 60L26 60L26 59L27 59L27 58ZM32 58L32 59L33 59L33 58ZM55 58L55 59L54 59L54 60L53 60L53 61L54 61L54 60L55 60L55 59L56 59L56 58ZM58 58L58 59L59 59L59 58ZM14 59L14 62L15 62L15 59ZM16 59L16 60L17 60L17 59ZM43 59L43 62L45 62L45 61L44 61L44 60L45 60L45 59ZM35 60L35 61L36 61L36 62L38 62L38 61L36 61L36 60ZM16 62L16 63L18 63L18 62ZM48 63L48 65L50 65L50 64L49 64L49 63ZM60 63L60 64L61 64L61 63ZM23 64L23 65L24 65L24 64ZM25 64L25 65L27 65L27 64ZM46 64L46 65L47 65L47 64ZM0 0L0 7L7 7L7 0ZM1 1L1 6L6 6L6 1ZM2 2L2 5L5 5L5 2ZM58 0L58 7L65 7L65 0ZM59 1L59 6L64 6L64 1ZM60 2L60 5L63 5L63 2ZM0 58L0 65L7 65L7 58ZM1 59L1 64L6 64L6 59ZM2 60L2 63L5 63L5 60Z" fill="#000000"/></g></g></svg>
