<?xml version="1.0" encoding="UTF-8"?>
<svg xmlns="http://www.w3.org/2000/svg" version="1.1" width="100" height="100" viewBox="0 0 100 100"><rect x="0" y="0" width="100" height="100" fill="#ffffff"/><g transform="scale(1.538)"><g transform="translate(0,0)"><path fill-rule="evenodd" d="M12 0L12 3L11 3L11 1L10 1L10 2L9 2L9 1L8 1L8 2L9 2L9 3L8 3L8 4L9 4L9 5L8 5L8 7L9 7L9 6L10 6L10 11L11 11L11 9L12 9L12 11L13 11L13 12L14 12L14 13L13 13L13 15L15 15L15 16L13 16L13 17L12 17L12 18L11 18L11 19L12 19L12 18L14 18L14 19L13 19L13 20L12 20L12 22L11 22L11 20L10 20L10 17L11 17L11 14L10 14L10 13L12 13L12 12L10 12L10 13L9 13L9 12L8 12L8 11L9 11L9 10L8 10L8 11L7 11L7 10L6 10L6 9L9 9L9 8L6 8L6 9L5 9L5 8L0 8L0 10L1 10L1 11L2 11L2 12L0 12L0 15L1 15L1 16L3 16L3 15L4 15L4 17L2 17L2 19L1 19L1 20L0 20L0 21L2 21L2 22L0 22L0 23L1 23L1 24L2 24L2 26L3 26L3 27L2 27L2 28L5 28L5 29L2 29L2 30L1 30L1 33L2 33L2 35L1 35L1 34L0 34L0 36L2 36L2 37L0 37L0 40L3 40L3 41L5 41L5 39L7 39L7 38L6 38L6 37L8 37L8 38L9 38L9 36L10 36L10 38L11 38L11 39L10 39L10 40L11 40L11 41L10 41L10 42L12 42L12 43L11 43L11 44L13 44L13 42L14 42L14 41L13 41L13 40L12 40L12 39L13 39L13 38L15 38L15 39L16 39L16 40L15 40L15 41L17 41L17 43L15 43L15 45L12 45L12 46L11 46L11 45L10 45L10 44L8 44L8 43L7 43L7 42L5 42L5 43L4 43L4 42L3 42L3 43L4 43L4 44L2 44L2 46L1 46L1 47L2 47L2 46L3 46L3 47L4 47L4 44L5 44L5 43L7 43L7 44L6 44L6 45L5 45L5 46L6 46L6 47L5 47L5 49L3 49L3 51L2 51L2 49L1 49L1 50L0 50L0 53L1 53L1 51L2 51L2 52L3 52L3 53L2 53L2 55L3 55L3 56L1 56L1 55L0 55L0 56L1 56L1 57L3 57L3 56L4 56L4 57L5 57L5 56L4 56L4 54L3 54L3 53L4 53L4 50L5 50L5 53L7 53L7 54L5 54L5 55L9 55L9 56L6 56L6 57L8 57L8 59L9 59L9 60L8 60L8 65L9 65L9 64L13 64L13 65L16 65L16 63L17 63L17 65L19 65L19 62L20 62L20 61L21 61L21 63L20 63L20 64L22 64L22 62L24 62L24 63L23 63L23 65L24 65L24 64L27 64L27 65L28 65L28 64L27 64L27 63L25 63L25 59L27 59L27 60L28 60L28 59L30 59L30 60L29 60L29 62L28 62L28 63L30 63L30 62L31 62L31 64L29 64L29 65L33 65L33 64L34 64L34 65L39 65L39 64L41 64L41 63L42 63L42 62L43 62L43 63L44 63L44 64L42 64L42 65L44 65L44 64L45 64L45 65L46 65L46 64L45 64L45 63L47 63L47 62L43 62L43 61L44 61L44 60L46 60L46 61L48 61L48 64L47 64L47 65L50 65L50 63L49 63L49 62L50 62L50 59L51 59L51 60L53 60L53 59L54 59L54 58L56 58L56 59L55 59L55 60L54 60L54 62L53 62L53 61L52 61L52 63L51 63L51 64L53 64L53 65L54 65L54 64L55 64L55 65L58 65L58 64L55 64L55 63L54 63L54 62L58 62L58 63L59 63L59 65L61 65L61 64L62 64L62 65L63 65L63 64L64 64L64 61L65 61L65 59L63 59L63 58L64 58L64 57L63 57L63 58L62 58L62 57L61 57L61 56L62 56L62 54L64 54L64 53L63 53L63 52L62 52L62 50L63 50L63 51L64 51L64 50L65 50L65 49L64 49L64 48L63 48L63 49L62 49L62 47L63 47L63 46L65 46L65 44L62 44L62 41L59 41L59 42L61 42L61 44L60 44L60 43L59 43L59 44L58 44L58 43L57 43L57 42L58 42L58 40L59 40L59 39L57 39L57 38L58 38L58 37L55 37L55 36L57 36L57 35L58 35L58 36L62 36L62 37L59 37L59 38L61 38L61 39L60 39L60 40L62 40L62 39L63 39L63 40L64 40L64 38L65 38L65 35L64 35L64 36L62 36L62 35L63 35L63 34L65 34L65 32L64 32L64 33L63 33L63 32L62 32L62 31L63 31L63 30L62 30L62 31L61 31L61 30L56 30L56 32L55 32L55 31L54 31L54 30L55 30L55 29L54 29L54 26L55 26L55 28L56 28L56 29L57 29L57 28L56 28L56 27L58 27L58 26L56 26L56 24L57 24L57 25L59 25L59 27L60 27L60 28L59 28L59 29L61 29L61 28L62 28L62 29L64 29L64 30L65 30L65 29L64 29L64 28L62 28L62 27L63 27L63 25L64 25L64 26L65 26L65 24L64 24L64 23L63 23L63 22L61 22L61 21L63 21L63 20L64 20L64 19L63 19L63 18L65 18L65 15L64 15L64 14L65 14L65 13L63 13L63 12L65 12L65 11L64 11L64 10L65 10L65 9L64 9L64 8L63 8L63 9L64 9L64 10L63 10L63 12L62 12L62 11L61 11L61 10L56 10L56 9L58 9L58 8L56 8L56 9L54 9L54 7L55 7L55 5L54 5L54 7L53 7L53 6L52 6L52 7L53 7L53 11L51 11L51 10L49 10L49 9L50 9L50 8L46 8L46 9L45 9L45 10L43 10L43 9L44 9L44 8L45 8L45 6L44 6L44 5L45 5L45 4L47 4L47 5L48 5L48 7L49 7L49 6L50 6L50 7L51 7L51 5L49 5L49 4L51 4L51 3L52 3L52 2L51 2L51 1L50 1L50 0L49 0L49 1L48 1L48 2L49 2L49 1L50 1L50 2L51 2L51 3L46 3L46 2L45 2L45 4L44 4L44 3L43 3L43 4L42 4L42 3L41 3L41 4L42 4L42 5L40 5L40 7L39 7L39 6L38 6L38 8L40 8L40 7L41 7L41 9L40 9L40 11L39 11L39 10L38 10L38 9L37 9L37 5L38 5L38 2L37 2L37 1L38 1L38 0L36 0L36 1L34 1L34 2L33 2L33 0L32 0L32 3L31 3L31 0L29 0L29 1L30 1L30 2L29 2L29 3L30 3L30 5L27 5L27 4L28 4L28 3L27 3L27 2L26 2L26 3L24 3L24 4L21 4L21 3L18 3L18 2L19 2L19 1L20 1L20 2L22 2L22 1L27 1L27 0L22 0L22 1L20 1L20 0L18 0L18 1L17 1L17 3L16 3L16 4L15 4L15 2L16 2L16 1L15 1L15 2L14 2L14 0ZM41 0L41 1L39 1L39 3L40 3L40 2L42 2L42 1L45 1L45 0ZM53 0L53 1L54 1L54 0ZM55 0L55 1L56 1L56 3L55 3L55 2L54 2L54 3L53 3L53 4L52 4L52 5L53 5L53 4L56 4L56 5L57 5L57 4L56 4L56 3L57 3L57 1L56 1L56 0ZM34 2L34 4L35 4L35 3L36 3L36 2ZM9 3L9 4L10 4L10 3ZM12 3L12 4L13 4L13 3ZM26 3L26 4L25 4L25 5L21 5L21 4L19 4L19 5L20 5L20 6L19 6L19 7L18 7L18 6L17 6L17 7L16 7L16 5L14 5L14 6L13 6L13 8L12 8L12 5L11 5L11 8L12 8L12 9L13 9L13 10L14 10L14 12L15 12L15 11L16 11L16 10L14 10L14 9L13 9L13 8L14 8L14 6L15 6L15 9L16 9L16 8L17 8L17 7L18 7L18 8L19 8L19 9L20 9L20 10L19 10L19 11L20 11L20 12L19 12L19 13L20 13L20 14L18 14L18 13L17 13L17 12L18 12L18 9L17 9L17 12L16 12L16 13L15 13L15 15L18 15L18 16L20 16L20 18L19 18L19 19L20 19L20 20L19 20L19 21L18 21L18 20L15 20L15 19L16 19L16 18L17 18L17 19L18 19L18 17L16 17L16 16L15 16L15 17L14 17L14 18L15 18L15 19L14 19L14 21L13 21L13 22L14 22L14 21L16 21L16 22L15 22L15 23L14 23L14 25L15 25L15 26L13 26L13 25L12 25L12 24L13 24L13 23L12 23L12 24L11 24L11 22L10 22L10 23L8 23L8 22L9 22L9 21L10 21L10 20L9 20L9 19L8 19L8 20L9 20L9 21L6 21L6 20L7 20L7 19L6 19L6 20L3 20L3 19L4 19L4 18L3 18L3 19L2 19L2 20L3 20L3 22L2 22L2 23L3 23L3 22L5 22L5 23L4 23L4 24L3 24L3 26L4 26L4 27L5 27L5 28L8 28L8 27L9 27L9 28L10 28L10 30L9 30L9 33L10 33L10 34L9 34L9 35L12 35L12 38L13 38L13 36L14 36L14 34L13 34L13 35L12 35L12 34L11 34L11 32L10 32L10 30L11 30L11 29L12 29L12 31L14 31L14 30L13 30L13 29L14 29L14 27L15 27L15 28L16 28L16 29L15 29L15 30L16 30L16 29L17 29L17 27L18 27L18 28L19 28L19 29L18 29L18 30L19 30L19 31L18 31L18 32L19 32L19 33L20 33L20 34L18 34L18 33L15 33L15 34L18 34L18 35L20 35L20 34L21 34L21 36L19 36L19 37L18 37L18 36L17 36L17 35L15 35L15 36L16 36L16 37L15 37L15 38L16 38L16 39L17 39L17 40L18 40L18 39L19 39L19 40L20 40L20 38L22 38L22 39L24 39L24 38L22 38L22 37L24 37L24 36L23 36L23 35L25 35L25 36L26 36L26 37L25 37L25 39L26 39L26 41L25 41L25 40L24 40L24 41L25 41L25 42L26 42L26 43L27 43L27 42L28 42L28 43L29 43L29 44L28 44L28 45L27 45L27 44L26 44L26 46L24 46L24 45L25 45L25 44L24 44L24 43L22 43L22 44L20 44L20 43L21 43L21 42L23 42L23 40L21 40L21 41L19 41L19 43L17 43L17 44L16 44L16 46L12 46L12 47L15 47L15 48L13 48L13 49L12 49L12 48L9 48L9 49L11 49L11 51L12 51L12 52L13 52L13 53L11 53L11 52L10 52L10 53L11 53L11 54L9 54L9 53L8 53L8 50L7 50L7 49L8 49L8 47L10 47L10 45L6 45L6 46L8 46L8 47L6 47L6 48L7 48L7 49L5 49L5 50L7 50L7 51L6 51L6 52L7 52L7 53L8 53L8 54L9 54L9 55L11 55L11 57L13 57L13 56L12 56L12 54L15 54L15 55L18 55L18 56L19 56L19 55L18 55L18 54L19 54L19 53L18 53L18 52L17 52L17 53L14 53L14 51L17 51L17 48L18 48L18 47L20 47L20 48L19 48L19 49L20 49L20 50L18 50L18 51L19 51L19 52L20 52L20 55L21 55L21 56L20 56L20 60L19 60L19 61L20 61L20 60L21 60L21 61L24 61L24 60L23 60L23 59L24 59L24 58L22 58L22 59L21 59L21 57L24 57L24 56L25 56L25 54L24 54L24 56L22 56L22 55L23 55L23 51L24 51L24 50L23 50L23 51L22 51L22 52L20 52L20 50L22 50L22 49L25 49L25 50L26 50L26 51L25 51L25 53L27 53L27 54L26 54L26 57L25 57L25 58L26 58L26 57L28 57L28 58L30 58L30 57L28 57L28 56L31 56L31 49L32 49L32 50L33 50L33 51L32 51L32 52L33 52L33 51L34 51L34 53L32 53L32 54L33 54L33 55L35 55L35 54L36 54L36 53L35 53L35 52L36 52L36 51L37 51L37 50L36 50L36 49L35 49L35 48L36 48L36 47L37 47L37 49L38 49L38 50L39 50L39 49L41 49L41 48L42 48L42 49L43 49L43 50L44 50L44 53L45 53L45 54L46 54L46 55L44 55L44 54L40 54L40 53L41 53L41 52L43 52L43 51L41 51L41 52L40 52L40 53L39 53L39 51L38 51L38 54L37 54L37 55L36 55L36 56L35 56L35 57L36 57L36 56L40 56L40 58L39 58L39 57L38 57L38 58L39 58L39 59L40 59L40 60L39 60L39 61L38 61L38 59L36 59L36 60L35 60L35 61L34 61L34 62L32 62L32 64L33 64L33 63L34 63L34 64L37 64L37 63L35 63L35 62L37 62L37 61L38 61L38 62L40 62L40 63L41 63L41 62L40 62L40 61L41 61L41 60L42 60L42 58L41 58L41 56L40 56L40 55L44 55L44 57L43 57L43 58L47 58L47 59L46 59L46 60L47 60L47 59L48 59L48 58L47 58L47 57L45 57L45 56L47 56L47 55L48 55L48 56L49 56L49 58L51 58L51 59L53 59L53 58L54 58L54 56L55 56L55 57L56 57L56 56L60 56L60 55L61 55L61 54L62 54L62 52L61 52L61 51L59 51L59 50L60 50L60 49L61 49L61 50L62 50L62 49L61 49L61 47L62 47L62 44L61 44L61 47L59 47L59 46L58 46L58 44L54 44L54 42L53 42L53 41L56 41L56 42L55 42L55 43L56 43L56 42L57 42L57 39L56 39L56 38L54 38L54 36L55 36L55 35L56 35L56 33L55 33L55 32L54 32L54 31L53 31L53 30L54 30L54 29L53 29L53 26L52 26L52 25L53 25L53 24L56 24L56 22L57 22L57 24L59 24L59 23L60 23L60 24L61 24L61 23L60 23L60 22L59 22L59 21L58 21L58 20L59 20L59 19L58 19L58 18L59 18L59 16L60 16L60 15L58 15L58 14L61 14L61 15L62 15L62 17L61 17L61 18L60 18L60 20L61 20L61 19L62 19L62 20L63 20L63 19L62 19L62 18L63 18L63 16L64 16L64 15L63 15L63 13L62 13L62 12L61 12L61 11L60 11L60 12L59 12L59 11L56 11L56 10L55 10L55 11L54 11L54 12L51 12L51 11L50 11L50 14L49 14L49 13L48 13L48 14L47 14L47 13L46 13L46 10L48 10L48 9L46 9L46 10L45 10L45 12L44 12L44 11L43 11L43 10L42 10L42 9L43 9L43 8L42 8L42 9L41 9L41 10L42 10L42 11L43 11L43 13L46 13L46 14L44 14L44 15L43 15L43 14L41 14L41 13L42 13L42 12L39 12L39 11L38 11L38 10L36 10L36 9L32 9L32 11L31 11L31 12L30 12L30 11L27 11L27 10L26 10L26 11L27 11L27 12L26 12L26 13L25 13L25 14L24 14L24 16L22 16L22 15L23 15L23 12L21 12L21 11L20 11L20 10L21 10L21 9L22 9L22 11L24 11L24 10L23 10L23 8L24 8L24 6L25 6L25 7L26 7L26 6L27 6L27 8L25 8L25 9L28 9L28 10L29 10L29 9L30 9L30 8L29 8L29 9L28 9L28 6L27 6L27 5L26 5L26 4L27 4L27 3ZM32 3L32 4L33 4L33 3ZM36 4L36 5L37 5L37 4ZM31 5L31 8L34 8L34 5ZM42 5L42 6L41 6L41 7L42 7L42 6L43 6L43 7L44 7L44 6L43 6L43 5ZM20 6L20 7L21 7L21 8L22 8L22 7L23 7L23 6L22 6L22 7L21 7L21 6ZM29 6L29 7L30 7L30 6ZM32 6L32 7L33 7L33 6ZM35 6L35 7L36 7L36 6ZM46 6L46 7L47 7L47 6ZM56 6L56 7L57 7L57 6ZM59 8L59 9L60 9L60 8ZM61 8L61 9L62 9L62 8ZM2 9L2 10L3 10L3 11L5 11L5 9ZM33 10L33 11L32 11L32 12L31 12L31 13L32 13L32 12L34 12L34 13L36 13L36 14L35 14L35 15L34 15L34 14L32 14L32 16L31 16L31 14L30 14L30 15L29 15L29 14L28 14L28 15L27 15L27 16L28 16L28 17L31 17L31 18L32 18L32 19L34 19L34 18L32 18L32 16L33 16L33 15L34 15L34 17L37 17L37 18L36 18L36 19L35 19L35 23L37 23L37 24L35 24L35 27L36 27L36 28L34 28L34 26L33 26L33 25L32 25L32 24L31 24L31 23L32 23L32 22L33 22L33 21L32 21L32 20L31 20L31 19L30 19L30 18L29 18L29 20L31 20L31 21L29 21L29 22L27 22L27 21L28 21L28 19L27 19L27 18L25 18L25 17L26 17L26 16L24 16L24 17L22 17L22 16L21 16L21 15L22 15L22 13L21 13L21 12L20 12L20 13L21 13L21 14L20 14L20 16L21 16L21 17L22 17L22 18L23 18L23 21L22 21L22 22L20 22L20 21L21 21L21 20L20 20L20 21L19 21L19 22L18 22L18 21L17 21L17 23L19 23L19 24L17 24L17 25L18 25L18 27L19 27L19 28L20 28L20 29L19 29L19 30L20 30L20 29L22 29L22 30L23 30L23 31L21 31L21 32L23 32L23 33L22 33L22 34L23 34L23 33L24 33L24 34L26 34L26 36L27 36L27 35L30 35L30 36L31 36L31 35L32 35L32 36L33 36L33 35L34 35L34 36L35 36L35 39L33 39L33 40L32 40L32 39L31 39L31 38L32 38L32 37L31 37L31 38L29 38L29 39L28 39L28 38L27 38L27 37L26 37L26 39L27 39L27 41L29 41L29 39L31 39L31 41L33 41L33 42L32 42L32 43L31 43L31 42L29 42L29 43L31 43L31 44L30 44L30 45L31 45L31 46L32 46L32 45L34 45L34 46L38 46L38 45L39 45L39 44L43 44L43 45L42 45L42 46L41 46L41 45L40 45L40 48L41 48L41 47L42 47L42 48L43 48L43 49L44 49L44 50L45 50L45 51L46 51L46 50L45 50L45 49L44 49L44 48L45 48L45 47L42 47L42 46L46 46L46 47L47 47L47 53L48 53L48 54L49 54L49 55L51 55L51 56L50 56L50 57L51 57L51 56L53 56L53 55L51 55L51 54L49 54L49 53L51 53L51 52L53 52L53 53L52 53L52 54L54 54L54 55L55 55L55 56L56 56L56 55L55 55L55 54L56 54L56 53L57 53L57 54L61 54L61 52L59 52L59 51L57 51L57 50L59 50L59 49L60 49L60 48L59 48L59 47L55 47L55 48L54 48L54 49L51 49L51 50L54 50L54 51L50 51L50 48L51 48L51 47L54 47L54 46L56 46L56 45L54 45L54 46L52 46L52 45L51 45L51 44L50 44L50 45L49 45L49 44L46 44L46 43L47 43L47 42L46 42L46 41L45 41L45 42L46 42L46 43L40 43L40 41L39 41L39 42L38 42L38 39L37 39L37 38L38 38L38 37L39 37L39 36L38 36L38 35L40 35L40 34L41 34L41 35L43 35L43 34L45 34L45 35L44 35L44 36L45 36L45 37L46 37L46 36L47 36L47 37L48 37L48 40L47 40L47 41L49 41L49 42L48 42L48 43L49 43L49 42L50 42L50 40L49 40L49 38L50 38L50 35L51 35L51 36L54 36L54 35L55 35L55 33L54 33L54 32L53 32L53 31L52 31L52 30L53 30L53 29L52 29L52 30L50 30L50 29L49 29L49 28L50 28L50 27L51 27L51 28L52 28L52 27L51 27L51 26L48 26L48 28L47 28L47 26L45 26L45 25L46 25L46 24L48 24L48 25L50 25L50 23L51 23L51 22L52 22L52 24L51 24L51 25L52 25L52 24L53 24L53 23L55 23L55 21L54 21L54 20L56 20L56 21L57 21L57 18L56 18L56 17L58 17L58 16L57 16L57 14L56 14L56 11L55 11L55 12L54 12L54 14L55 14L55 15L56 15L56 17L55 17L55 16L54 16L54 15L52 15L52 14L53 14L53 13L52 13L52 14L50 14L50 17L49 17L49 14L48 14L48 15L47 15L47 14L46 14L46 15L47 15L47 16L45 16L45 17L49 17L49 18L50 18L50 19L49 19L49 20L46 20L46 19L47 19L47 18L44 18L44 19L43 19L43 17L44 17L44 16L43 16L43 15L42 15L42 17L39 17L39 15L40 15L40 14L37 14L37 13L38 13L38 12L37 12L37 11L35 11L35 12L34 12L34 10ZM6 11L6 12L4 12L4 14L5 14L5 18L8 18L8 17L10 17L10 16L7 16L7 15L10 15L10 14L7 14L7 13L6 13L6 12L7 12L7 11ZM48 11L48 12L49 12L49 11ZM27 12L27 13L28 13L28 12ZM57 12L57 13L58 13L58 12ZM60 12L60 13L61 13L61 14L62 14L62 13L61 13L61 12ZM16 13L16 14L17 14L17 13ZM1 14L1 15L2 15L2 14ZM6 14L6 15L7 15L7 14ZM25 14L25 15L26 15L26 14ZM36 14L36 16L38 16L38 15L37 15L37 14ZM28 15L28 16L29 16L29 15ZM6 16L6 17L7 17L7 16ZM51 16L51 17L50 17L50 18L52 18L52 19L50 19L50 20L49 20L49 21L50 21L50 22L48 22L48 24L49 24L49 23L50 23L50 22L51 22L51 20L52 20L52 22L53 22L53 20L52 20L52 19L53 19L53 18L52 18L52 17L54 17L54 16ZM0 17L0 18L1 18L1 17ZM38 17L38 18L37 18L37 20L38 20L38 22L40 22L40 24L38 24L38 26L39 26L39 25L40 25L40 28L39 28L39 27L37 27L37 28L38 28L38 30L37 30L37 29L33 29L33 28L32 28L32 29L33 29L33 30L35 30L35 31L36 31L36 32L37 32L37 33L35 33L35 35L36 35L36 36L37 36L37 35L36 35L36 34L37 34L37 33L38 33L38 34L39 34L39 33L43 33L43 31L44 31L44 33L45 33L45 34L46 34L46 35L47 35L47 36L49 36L49 35L50 35L50 34L51 34L51 35L53 35L53 34L52 34L52 33L53 33L53 32L52 32L52 31L50 31L50 34L49 34L49 33L47 33L47 32L46 32L46 31L47 31L47 30L49 30L49 29L47 29L47 28L45 28L45 26L44 26L44 25L45 25L45 24L44 24L44 23L43 23L43 22L40 22L40 21L46 21L46 22L45 22L45 23L46 23L46 22L47 22L47 21L46 21L46 20L42 20L42 19L41 19L41 20L38 20L38 18L39 18L39 17ZM24 18L24 19L25 19L25 20L24 20L24 21L25 21L25 22L23 22L23 23L24 23L24 24L22 24L22 23L21 23L21 25L20 25L20 28L21 28L21 27L22 27L22 29L24 29L24 28L23 28L23 27L26 27L26 26L30 26L30 27L33 27L33 26L31 26L31 24L30 24L30 23L31 23L31 22L30 22L30 23L29 23L29 24L30 24L30 25L27 25L27 23L26 23L26 21L27 21L27 20L26 20L26 19L25 19L25 18ZM25 20L25 21L26 21L26 20ZM36 21L36 22L37 22L37 21ZM64 21L64 22L65 22L65 21ZM6 22L6 23L7 23L7 22ZM19 22L19 23L20 23L20 22ZM15 23L15 25L16 25L16 23ZM25 23L25 25L21 25L21 26L22 26L22 27L23 27L23 26L25 26L25 25L26 25L26 23ZM42 23L42 24L41 24L41 28L42 28L42 27L43 27L43 29L39 29L39 30L40 30L40 31L37 31L37 32L38 32L38 33L39 33L39 32L41 32L41 31L43 31L43 29L44 29L44 30L45 30L45 29L44 29L44 26L43 26L43 25L44 25L44 24L43 24L43 23ZM62 23L62 24L63 24L63 23ZM4 24L4 26L5 26L5 25L7 25L7 26L6 26L6 27L8 27L8 26L10 26L10 28L12 28L12 27L11 27L11 26L12 26L12 25L11 25L11 26L10 26L10 25L9 25L9 24ZM42 24L42 25L43 25L43 24ZM0 25L0 29L1 29L1 25ZM36 25L36 26L37 26L37 25ZM60 25L60 26L61 26L61 27L62 27L62 25ZM15 26L15 27L17 27L17 26ZM28 27L28 28L26 28L26 30L24 30L24 31L27 31L27 32L26 32L26 34L27 34L27 33L28 33L28 34L30 34L30 30L31 30L31 28L29 28L29 27ZM28 28L28 29L29 29L29 30L30 30L30 29L29 29L29 28ZM6 29L6 30L8 30L8 29ZM3 30L3 31L4 31L4 30ZM27 30L27 31L28 31L28 30ZM5 31L5 34L8 34L8 31ZM15 31L15 32L16 32L16 31ZM19 31L19 32L20 32L20 31ZM31 31L31 34L34 34L34 31ZM48 31L48 32L49 32L49 31ZM57 31L57 34L60 34L60 31ZM2 32L2 33L4 33L4 32ZM6 32L6 33L7 33L7 32ZM24 32L24 33L25 33L25 32ZM28 32L28 33L29 33L29 32ZM32 32L32 33L33 33L33 32ZM58 32L58 33L59 33L59 32ZM61 32L61 34L63 34L63 33L62 33L62 32ZM48 34L48 35L49 35L49 34ZM2 35L2 36L3 36L3 37L2 37L2 38L3 38L3 37L6 37L6 36L7 36L7 35L5 35L5 36L3 36L3 35ZM17 37L17 39L18 39L18 37ZM19 37L19 38L20 38L20 37ZM33 37L33 38L34 38L34 37ZM36 37L36 38L37 38L37 37ZM40 37L40 38L39 38L39 39L40 39L40 40L41 40L41 39L42 39L42 41L41 41L41 42L44 42L44 40L46 40L46 38L43 38L43 37L42 37L42 38L41 38L41 37ZM62 37L62 38L64 38L64 37ZM4 38L4 39L3 39L3 40L4 40L4 39L5 39L5 38ZM42 38L42 39L43 39L43 38ZM51 38L51 39L52 39L52 40L56 40L56 39L52 39L52 38ZM8 39L8 40L6 40L6 41L8 41L8 42L9 42L9 39ZM36 39L36 40L37 40L37 39ZM34 40L34 42L33 42L33 43L32 43L32 44L31 44L31 45L32 45L32 44L33 44L33 43L34 43L34 44L35 44L35 43L36 43L36 44L37 44L37 45L38 45L38 44L39 44L39 43L36 43L36 42L37 42L37 41L35 41L35 40ZM0 41L0 42L2 42L2 41ZM64 41L64 42L65 42L65 41ZM52 42L52 44L53 44L53 42ZM0 43L0 44L1 44L1 43ZM17 44L17 45L19 45L19 46L20 46L20 45L19 45L19 44ZM23 44L23 45L24 45L24 44ZM44 44L44 45L46 45L46 46L47 46L47 47L48 47L48 46L49 46L49 45L48 45L48 46L47 46L47 45L46 45L46 44ZM59 44L59 45L60 45L60 44ZM21 45L21 46L22 46L22 45ZM50 45L50 46L51 46L51 45ZM23 46L23 47L24 47L24 48L25 48L25 49L26 49L26 50L27 50L27 51L30 51L30 50L27 50L27 49L26 49L26 47L24 47L24 46ZM27 46L27 48L28 48L28 49L30 49L30 48L31 48L31 47L29 47L29 46ZM16 47L16 48L15 48L15 49L14 49L14 50L15 50L15 49L16 49L16 48L17 48L17 47ZM32 47L32 48L34 48L34 47ZM38 47L38 49L39 49L39 47ZM20 48L20 49L21 49L21 48ZM55 48L55 50L57 50L57 48ZM58 48L58 49L59 49L59 48ZM33 49L33 50L35 50L35 51L36 51L36 50L35 50L35 49ZM48 49L48 50L49 50L49 49ZM9 50L9 51L10 51L10 50ZM12 50L12 51L13 51L13 50ZM54 51L54 53L56 53L56 51ZM45 52L45 53L46 53L46 52ZM57 52L57 53L59 53L59 52ZM21 54L21 55L22 55L22 54ZM28 54L28 55L29 55L29 54ZM63 55L63 56L65 56L65 55ZM9 56L9 58L10 58L10 56ZM14 56L14 57L15 57L15 58L11 58L11 59L13 59L13 60L14 60L14 59L16 59L16 60L15 60L15 61L13 61L13 62L12 62L12 60L11 60L11 62L12 62L12 63L13 63L13 64L14 64L14 63L15 63L15 62L17 62L17 61L16 61L16 60L17 60L17 59L18 59L18 58L19 58L19 57L18 57L18 58L17 58L17 57L15 57L15 56ZM31 57L31 60L34 60L34 57ZM52 57L52 58L53 58L53 57ZM57 57L57 60L60 60L60 57ZM16 58L16 59L17 59L17 58ZM32 58L32 59L33 59L33 58ZM40 58L40 59L41 59L41 58ZM58 58L58 59L59 59L59 58ZM62 59L62 60L61 60L61 61L58 61L58 62L61 62L61 61L62 61L62 62L63 62L63 59ZM36 60L36 61L37 61L37 60ZM55 60L55 61L56 61L56 60ZM26 61L26 62L27 62L27 61ZM13 62L13 63L14 63L14 62ZM38 63L38 64L39 64L39 63ZM60 63L60 64L61 64L61 63ZM62 63L62 64L63 64L63 63ZM0 0L0 7L7 7L7 0ZM1 1L1 6L6 6L6 1ZM2 2L2 5L5 5L5 2ZM58 0L58 7L65 7L65 0ZM59 1L59 6L64 6L64 1ZM60 2L60 5L63 5L63 2ZM0 58L0 65L7 65L7 58ZM1 59L1 64L6 64L6 59ZM2 60L2 63L5 63L5 60Z" fill="#000000"/></g></g></svg>
