<?xml version="1.0" encoding="UTF-8"?>
<svg xmlns="http://www.w3.org/2000/svg" version="1.1" width="100" height="100" viewBox="0 0 100 100"><rect x="0" y="0" width="100" height="100" fill="#ffffff"/><g transform="scale(1.538)"><g transform="translate(0,0)"><path fill-rule="evenodd" d="M11 0L11 1L12 1L12 2L13 2L13 1L14 1L14 4L13 4L13 3L12 3L12 4L10 4L10 7L9 7L9 5L8 5L8 7L9 7L9 8L6 8L6 9L8 9L8 10L6 10L6 11L5 11L5 10L4 10L4 9L5 9L5 8L0 8L0 9L2 9L2 11L3 11L3 12L1 12L1 11L0 11L0 18L1 18L1 17L2 17L2 19L3 19L3 20L2 20L2 22L1 22L1 23L0 23L0 24L2 24L2 23L3 23L3 24L5 24L5 25L1 25L1 26L2 26L2 27L3 27L3 29L4 29L4 30L3 30L3 34L4 34L4 35L2 35L2 34L1 34L1 33L0 33L0 34L1 34L1 35L0 35L0 38L1 38L1 39L0 39L0 41L1 41L1 42L2 42L2 43L3 43L3 45L1 45L1 44L0 44L0 47L1 47L1 48L0 48L0 51L3 51L3 50L4 50L4 48L2 48L2 47L5 47L5 50L6 50L6 51L4 51L4 53L2 53L2 55L3 55L3 56L1 56L1 55L0 55L0 56L1 56L1 57L3 57L3 56L4 56L4 57L5 57L5 56L4 56L4 53L5 53L5 55L8 55L8 56L10 56L10 57L8 57L8 59L10 59L10 57L12 57L12 56L13 56L13 54L14 54L14 53L15 53L15 55L17 55L17 57L18 57L18 58L19 58L19 60L16 60L16 61L15 61L15 60L14 60L14 62L16 62L16 61L17 61L17 62L19 62L19 63L20 63L20 64L17 64L17 63L16 63L16 65L20 65L20 64L21 64L21 62L20 62L20 61L19 61L19 60L22 60L22 59L24 59L24 58L25 58L25 57L26 57L26 59L25 59L25 61L24 61L24 60L23 60L23 61L22 61L22 64L24 64L24 65L26 65L26 64L28 64L28 65L29 65L29 63L26 63L26 62L27 62L27 61L28 61L28 60L29 60L29 62L31 62L31 63L30 63L30 65L32 65L32 64L31 64L31 63L32 63L32 61L33 61L33 63L35 63L35 64L33 64L33 65L35 65L35 64L36 64L36 65L39 65L39 63L40 63L40 62L43 62L43 63L41 63L41 65L44 65L44 64L46 64L46 63L47 63L47 65L50 65L50 64L49 64L49 63L47 63L47 62L46 62L46 63L45 63L45 62L43 62L43 59L44 59L44 60L45 60L45 59L47 59L47 60L46 60L46 61L48 61L48 62L50 62L50 60L49 60L49 58L50 58L50 59L51 59L51 60L52 60L52 57L51 57L51 56L53 56L53 54L55 54L55 51L53 51L53 50L55 50L55 49L53 49L53 50L52 50L52 49L51 49L51 48L50 48L50 47L52 47L52 46L56 46L56 47L54 47L54 48L56 48L56 50L61 50L61 51L60 51L60 52L59 52L59 51L56 51L56 53L60 53L60 55L59 55L59 56L58 56L58 55L57 55L57 56L56 56L56 55L54 55L54 56L56 56L56 57L54 57L54 58L53 58L53 60L54 60L54 58L56 58L56 59L55 59L55 60L56 60L56 61L53 61L53 62L51 62L51 63L55 63L55 64L56 64L56 61L57 61L57 63L58 63L58 62L59 62L59 64L58 64L58 65L61 65L61 64L62 64L62 65L63 65L63 64L64 64L64 61L65 61L65 59L63 59L63 58L65 58L65 55L63 55L63 54L61 54L61 53L60 53L60 52L62 52L62 53L64 53L64 52L65 52L65 51L64 51L64 52L62 52L62 50L63 50L63 49L64 49L64 50L65 50L65 49L64 49L64 48L62 48L62 50L61 50L61 48L60 48L60 46L65 46L65 45L64 45L64 44L65 44L65 43L64 43L64 44L61 44L61 45L60 45L60 43L59 43L59 47L57 47L57 42L58 42L58 41L59 41L59 42L62 42L62 43L63 43L63 42L62 42L62 41L63 41L63 40L65 40L65 39L63 39L63 40L62 40L62 37L63 37L63 36L64 36L64 35L63 35L63 34L65 34L65 31L64 31L64 33L63 33L63 34L61 34L61 33L62 33L62 31L61 31L61 30L56 30L56 27L55 27L55 26L56 26L56 25L57 25L57 24L58 24L58 23L57 23L57 22L56 22L56 24L54 24L54 22L55 22L55 19L56 19L56 17L58 17L58 16L56 16L56 13L54 13L54 12L55 12L55 11L53 11L53 10L55 10L55 9L52 9L52 10L51 10L51 12L52 12L52 11L53 11L53 13L54 13L54 14L53 14L53 15L52 15L52 16L53 16L53 17L54 17L54 18L55 18L55 19L53 19L53 18L51 18L51 19L52 19L52 20L50 20L50 19L49 19L49 18L50 18L50 16L51 16L51 15L49 15L49 14L50 14L50 13L49 13L49 11L48 11L48 12L47 12L47 10L46 10L46 8L47 8L47 9L48 9L48 10L50 10L50 9L51 9L51 8L50 8L50 7L51 7L51 6L52 6L52 8L53 8L53 6L52 6L52 3L53 3L53 4L56 4L56 5L57 5L57 4L56 4L56 3L57 3L57 1L56 1L56 0L55 0L55 1L56 1L56 3L55 3L55 2L54 2L54 3L53 3L53 2L52 2L52 0L51 0L51 2L50 2L50 3L49 3L49 1L50 1L50 0L47 0L47 1L46 1L46 4L47 4L47 5L46 5L46 8L45 8L45 5L43 5L43 4L44 4L44 3L43 3L43 4L40 4L40 7L39 7L39 5L38 5L38 2L39 2L39 1L37 1L37 0L36 0L36 1L37 1L37 3L36 3L36 2L35 2L35 4L34 4L34 2L30 2L30 1L32 1L32 0L29 0L29 1L27 1L27 0L26 0L26 1L25 1L25 0L21 0L21 1L20 1L20 0L19 0L19 1L20 1L20 3L19 3L19 2L18 2L18 3L17 3L17 2L16 2L16 3L15 3L15 1L17 1L17 0L13 0L13 1L12 1L12 0ZM40 0L40 2L43 2L43 0ZM44 0L44 1L45 1L45 0ZM53 0L53 1L54 1L54 0ZM8 1L8 2L9 2L9 1ZM21 1L21 4L18 4L18 5L17 5L17 4L16 4L16 5L17 5L17 7L16 7L16 6L15 6L15 7L14 7L14 6L13 6L13 4L12 4L12 6L11 6L11 8L10 8L10 9L9 9L9 10L8 10L8 11L6 11L6 12L7 12L7 13L6 13L6 14L7 14L7 13L11 13L11 15L12 15L12 16L13 16L13 17L15 17L15 18L16 18L16 19L14 19L14 18L13 18L13 19L14 19L14 20L16 20L16 22L14 22L14 21L13 21L13 20L12 20L12 19L11 19L11 21L10 21L10 20L9 20L9 21L8 21L8 18L9 18L9 19L10 19L10 18L12 18L12 17L11 17L11 16L10 16L10 14L8 14L8 15L9 15L9 16L10 16L10 17L8 17L8 16L7 16L7 15L5 15L5 13L4 13L4 12L3 12L3 13L1 13L1 14L3 14L3 15L5 15L5 16L2 16L2 15L1 15L1 16L2 16L2 17L3 17L3 19L4 19L4 20L3 20L3 21L4 21L4 22L3 22L3 23L5 23L5 21L4 21L4 20L5 20L5 19L6 19L6 20L7 20L7 21L6 21L6 22L7 22L7 21L8 21L8 22L9 22L9 21L10 21L10 23L6 23L6 24L8 24L8 25L6 25L6 26L4 26L4 28L5 28L5 27L6 27L6 28L7 28L7 29L5 29L5 30L8 30L8 29L9 29L9 27L10 27L10 25L12 25L12 26L11 26L11 28L10 28L10 31L11 31L11 32L9 32L9 35L8 35L8 37L6 37L6 36L7 36L7 35L6 35L6 36L5 36L5 35L4 35L4 36L5 36L5 37L6 37L6 38L4 38L4 37L2 37L2 35L1 35L1 38L4 38L4 39L3 39L3 40L4 40L4 41L2 41L2 42L3 42L3 43L6 43L6 44L7 44L7 45L5 45L5 44L4 44L4 45L5 45L5 46L8 46L8 48L7 48L7 47L6 47L6 48L7 48L7 49L6 49L6 50L8 50L8 52L7 52L7 51L6 51L6 52L7 52L7 53L6 53L6 54L8 54L8 55L10 55L10 56L11 56L11 54L12 54L12 53L11 53L11 54L8 54L8 53L10 53L10 52L12 52L12 51L13 51L13 50L10 50L10 52L9 52L9 50L8 50L8 49L11 49L11 48L12 48L12 49L13 49L13 47L15 47L15 48L14 48L14 49L15 49L15 50L14 50L14 51L15 51L15 50L18 50L18 49L16 49L16 47L17 47L17 48L18 48L18 47L19 47L19 48L20 48L20 47L23 47L23 48L21 48L21 49L19 49L19 51L18 51L18 52L17 52L17 53L16 53L16 52L15 52L15 53L16 53L16 54L17 54L17 55L18 55L18 56L20 56L20 54L21 54L21 55L23 55L23 56L21 56L21 57L20 57L20 59L21 59L21 57L22 57L22 58L23 58L23 57L24 57L24 54L21 54L21 53L24 53L24 52L23 52L23 51L24 51L24 50L23 50L23 49L24 49L24 48L25 48L25 47L26 47L26 49L25 49L25 52L26 52L26 53L25 53L25 56L26 56L26 57L27 57L27 58L28 58L28 59L29 59L29 60L30 60L30 59L29 59L29 58L30 58L30 56L34 56L34 55L35 55L35 54L36 54L36 53L35 53L35 52L37 52L37 53L38 53L38 54L37 54L37 55L36 55L36 56L35 56L35 57L36 57L36 56L38 56L38 58L37 58L37 59L38 59L38 58L39 58L39 57L40 57L40 59L39 59L39 60L37 60L37 61L38 61L38 63L37 63L37 62L36 62L36 61L35 61L35 62L36 62L36 64L38 64L38 63L39 63L39 60L40 60L40 61L41 61L41 60L42 60L42 59L43 59L43 58L42 58L42 59L41 59L41 55L42 55L42 54L41 54L41 52L42 52L42 53L43 53L43 54L44 54L44 55L43 55L43 56L44 56L44 59L45 59L45 58L47 58L47 59L48 59L48 58L49 58L49 57L50 57L50 58L51 58L51 57L50 57L50 56L51 56L51 54L53 54L53 53L54 53L54 52L52 52L52 51L50 51L50 50L51 50L51 49L50 49L50 50L49 50L49 51L48 51L48 52L49 52L49 51L50 51L50 52L51 52L51 53L50 53L50 54L49 54L49 55L50 55L50 56L49 56L49 57L48 57L48 58L47 58L47 57L45 57L45 56L46 56L46 55L48 55L48 54L47 54L47 52L44 52L44 50L42 50L42 48L40 48L40 47L43 47L43 46L40 46L40 45L42 45L42 44L39 44L39 43L40 43L40 41L41 41L41 42L42 42L42 43L43 43L43 44L44 44L44 45L45 45L45 48L44 48L44 49L45 49L45 48L46 48L46 50L45 50L45 51L46 51L46 50L47 50L47 48L48 48L48 46L47 46L47 44L49 44L49 43L48 43L48 42L49 42L49 41L48 41L48 40L51 40L51 41L50 41L50 44L52 44L52 45L53 45L53 44L52 44L52 43L53 43L53 42L51 42L51 41L54 41L54 40L55 40L55 41L56 41L56 42L55 42L55 43L54 43L54 44L55 44L55 45L56 45L56 42L57 42L57 39L58 39L58 40L59 40L59 41L61 41L61 40L60 40L60 39L61 39L61 38L59 38L59 36L60 36L60 37L62 37L62 36L63 36L63 35L62 35L62 36L61 36L61 35L59 35L59 36L58 36L58 35L57 35L57 36L56 36L56 35L55 35L55 34L56 34L56 33L55 33L55 32L56 32L56 30L55 30L55 31L54 31L54 30L52 30L52 31L51 31L51 32L50 32L50 30L51 30L51 29L50 29L50 28L49 28L49 27L48 27L48 26L47 26L47 25L46 25L46 23L47 23L47 24L48 24L48 23L49 23L49 25L50 25L50 27L51 27L51 28L52 28L52 29L53 29L53 28L54 28L54 29L55 29L55 28L54 28L54 26L53 26L53 28L52 28L52 27L51 27L51 25L53 25L53 22L51 22L51 21L50 21L50 20L49 20L49 19L46 19L46 21L45 21L45 20L44 20L44 19L43 19L43 18L42 18L42 19L43 19L43 20L44 20L44 21L43 21L43 24L42 24L42 22L41 22L41 20L39 20L39 19L40 19L40 18L41 18L41 16L42 16L42 14L41 14L41 12L42 12L42 11L44 11L44 10L42 10L42 11L41 11L41 10L40 10L40 11L38 11L38 12L37 12L37 13L35 13L35 10L36 10L36 11L37 11L37 10L36 10L36 8L37 8L37 7L38 7L38 10L39 10L39 9L41 9L41 8L42 8L42 6L43 6L43 8L44 8L44 9L45 9L45 8L44 8L44 6L43 6L43 5L41 5L41 7L40 7L40 8L39 8L39 7L38 7L38 5L37 5L37 4L36 4L36 6L35 6L35 7L36 7L36 8L35 8L35 9L33 9L33 11L34 11L34 12L32 12L32 9L31 9L31 12L29 12L29 10L30 10L30 6L29 6L29 7L28 7L28 5L30 5L30 4L31 4L31 3L30 3L30 4L28 4L28 3L29 3L29 2L28 2L28 3L26 3L26 4L25 4L25 7L24 7L24 5L23 5L23 2L24 2L24 3L25 3L25 1ZM26 1L26 2L27 2L27 1ZM47 1L47 2L48 2L48 1ZM51 2L51 3L52 3L52 2ZM8 3L8 4L9 4L9 3ZM32 3L32 4L33 4L33 3ZM27 4L27 5L28 5L28 4ZM48 4L48 5L47 5L47 7L48 7L48 6L49 6L49 7L50 7L50 6L49 6L49 5L51 5L51 4ZM20 5L20 7L19 7L19 6L18 6L18 7L17 7L17 8L16 8L16 7L15 7L15 9L14 9L14 10L16 10L16 9L17 9L17 11L16 11L16 12L14 12L14 11L13 11L13 9L12 9L12 8L11 8L11 9L10 9L10 10L12 10L12 11L10 11L10 12L13 12L13 14L12 14L12 15L13 15L13 16L14 16L14 15L18 15L18 16L15 16L15 17L17 17L17 23L16 23L16 24L15 24L15 23L13 23L13 24L15 24L15 25L14 25L14 26L15 26L15 27L16 27L16 29L17 29L17 30L15 30L15 28L14 28L14 27L12 27L12 29L11 29L11 31L12 31L12 32L13 32L13 31L15 31L15 32L14 32L14 33L13 33L13 34L12 34L12 33L10 33L10 35L11 35L11 34L12 34L12 36L11 36L11 37L12 37L12 38L13 38L13 41L12 41L12 42L13 42L13 43L14 43L14 44L12 44L12 43L10 43L10 42L9 42L9 41L11 41L11 40L12 40L12 39L11 39L11 38L10 38L10 37L9 37L9 38L10 38L10 39L9 39L9 40L8 40L8 38L6 38L6 39L7 39L7 40L5 40L5 39L4 39L4 40L5 40L5 42L6 42L6 43L7 43L7 42L6 42L6 41L7 41L7 40L8 40L8 46L9 46L9 47L10 47L10 46L9 46L9 44L10 44L10 45L11 45L11 44L12 44L12 45L13 45L13 46L11 46L11 47L13 47L13 46L14 46L14 45L15 45L15 46L16 46L16 45L19 45L19 46L20 46L20 44L21 44L21 45L22 45L22 46L23 46L23 47L25 47L25 46L27 46L27 47L28 47L28 48L30 48L30 49L31 49L31 50L32 50L32 51L33 51L33 52L31 52L31 53L30 53L30 52L29 52L29 53L30 53L30 54L29 54L29 55L32 55L32 53L33 53L33 52L34 52L34 51L33 51L33 50L32 50L32 48L33 48L33 47L31 47L31 48L30 48L30 47L29 47L29 46L27 46L27 45L29 45L29 44L30 44L30 45L34 45L34 44L33 44L33 43L29 43L29 42L28 42L28 43L25 43L25 42L26 42L26 40L27 40L27 41L29 41L29 40L27 40L27 39L30 39L30 40L32 40L32 41L33 41L33 40L34 40L34 42L35 42L35 41L37 41L37 42L36 42L36 43L35 43L35 44L36 44L36 45L35 45L35 46L38 46L38 45L39 45L39 44L36 44L36 43L38 43L38 40L36 40L36 39L37 39L37 38L38 38L38 37L40 37L40 36L42 36L42 37L41 37L41 38L39 38L39 40L40 40L40 39L41 39L41 38L42 38L42 39L43 39L43 40L41 40L41 41L42 41L42 42L43 42L43 40L45 40L45 39L47 39L47 40L46 40L46 41L47 41L47 42L48 42L48 41L47 41L47 40L48 40L48 39L47 39L47 38L45 38L45 37L43 37L43 36L45 36L45 34L46 34L46 35L49 35L49 36L47 36L47 37L49 37L49 38L50 38L50 37L51 37L51 39L53 39L53 40L54 40L54 39L55 39L55 40L56 40L56 39L57 39L57 38L55 38L55 35L54 35L54 34L55 34L55 33L54 33L54 32L53 32L53 31L52 31L52 32L53 32L53 33L54 33L54 34L50 34L50 33L49 33L49 32L48 32L48 31L47 31L47 30L46 30L46 31L45 31L45 30L43 30L43 29L44 29L44 28L45 28L45 27L46 27L46 29L47 29L47 28L48 28L48 29L49 29L49 30L50 30L50 29L49 29L49 28L48 28L48 27L47 27L47 26L45 26L45 27L44 27L44 28L43 28L43 27L42 27L42 28L43 28L43 29L40 29L40 28L41 28L41 26L44 26L44 24L43 24L43 25L41 25L41 26L38 26L38 25L39 25L39 24L38 24L38 21L39 21L39 23L40 23L40 21L39 21L39 20L36 20L36 22L35 22L35 23L34 23L34 22L33 22L33 21L35 21L35 20L33 20L33 21L32 21L32 20L31 20L31 19L32 19L32 18L31 18L31 17L32 17L32 16L33 16L33 17L34 17L34 16L36 16L36 17L38 17L38 15L39 15L39 16L40 16L40 12L41 12L41 11L40 11L40 12L39 12L39 14L38 14L38 13L37 13L37 14L38 14L38 15L37 15L37 16L36 16L36 15L33 15L33 13L32 13L32 12L31 12L31 13L32 13L32 16L31 16L31 14L30 14L30 15L29 15L29 14L28 14L28 15L27 15L27 14L26 14L26 12L27 12L27 13L28 13L28 12L27 12L27 11L26 11L26 10L25 10L25 9L26 9L26 8L24 8L24 7L23 7L23 6L22 6L22 5ZM31 5L31 8L34 8L34 5ZM54 5L54 8L55 8L55 5ZM12 6L12 7L13 7L13 6ZM21 6L21 7L20 7L20 8L21 8L21 9L18 9L18 8L17 8L17 9L18 9L18 10L21 10L21 11L19 11L19 12L20 12L20 14L19 14L19 13L17 13L17 12L18 12L18 11L17 11L17 12L16 12L16 13L15 13L15 14L16 14L16 13L17 13L17 14L19 14L19 15L22 15L22 16L21 16L21 17L20 17L20 19L18 19L18 20L20 20L20 22L19 22L19 23L20 23L20 24L19 24L19 25L18 25L18 24L16 24L16 25L15 25L15 26L16 26L16 27L17 27L17 28L19 28L19 29L18 29L18 30L17 30L17 31L16 31L16 33L14 33L14 34L13 34L13 36L12 36L12 37L13 37L13 38L14 38L14 36L15 36L15 34L17 34L17 35L16 35L16 36L17 36L17 35L19 35L19 37L15 37L15 38L17 38L17 39L16 39L16 40L15 40L15 42L16 42L16 43L15 43L15 44L16 44L16 43L17 43L17 44L18 44L18 43L17 43L17 41L18 41L18 42L19 42L19 44L20 44L20 42L21 42L21 41L22 41L22 42L23 42L23 43L22 43L22 45L23 45L23 46L24 46L24 45L25 45L25 43L24 43L24 41L25 41L25 40L24 40L24 41L23 41L23 40L22 40L22 39L21 39L21 37L22 37L22 38L23 38L23 39L27 39L27 38L30 38L30 39L31 39L31 38L30 38L30 37L27 37L27 35L26 35L26 37L25 37L25 38L23 38L23 37L24 37L24 36L25 36L25 35L24 35L24 34L23 34L23 35L22 35L22 34L21 34L21 33L24 33L24 32L23 32L23 31L26 31L26 30L27 30L27 32L26 32L26 34L29 34L29 33L30 33L30 31L29 31L29 32L28 32L28 30L35 30L35 32L36 32L36 29L35 29L35 27L36 27L36 26L35 26L35 24L37 24L37 25L38 25L38 24L37 24L37 22L36 22L36 23L35 23L35 24L32 24L32 23L31 23L31 21L30 21L30 20L29 20L29 19L28 19L28 21L27 21L27 19L26 19L26 21L25 21L25 18L26 18L26 17L27 17L27 18L29 18L29 17L31 17L31 16L29 16L29 15L28 15L28 17L27 17L27 16L26 16L26 17L25 17L25 18L23 18L23 17L24 17L24 16L25 16L25 14L24 14L24 13L25 13L25 12L26 12L26 11L25 11L25 12L24 12L24 13L23 13L23 11L22 11L22 10L21 10L21 9L24 9L24 8L23 8L23 7L22 7L22 6ZM26 6L26 7L27 7L27 6ZM32 6L32 7L33 7L33 6ZM36 6L36 7L37 7L37 6ZM56 6L56 7L57 7L57 6ZM56 8L56 9L58 9L58 8ZM59 8L59 9L60 9L60 8ZM61 8L61 10L59 10L59 12L60 12L60 13L59 13L59 14L58 14L58 15L59 15L59 14L60 14L60 16L59 16L59 17L60 17L60 18L61 18L61 17L62 17L62 15L64 15L64 16L63 16L63 17L65 17L65 15L64 15L64 14L65 14L65 12L62 12L62 11L63 11L63 10L62 10L62 8ZM63 8L63 9L64 9L64 8ZM21 11L21 14L23 14L23 13L22 13L22 11ZM45 11L45 12L44 12L44 13L45 13L45 12L46 12L46 14L47 14L47 12L46 12L46 11ZM56 11L56 12L57 12L57 13L58 13L58 12L57 12L57 11ZM60 11L60 12L61 12L61 13L60 13L60 14L63 14L63 13L62 13L62 12L61 12L61 11ZM54 14L54 15L53 15L53 16L54 16L54 17L56 17L56 16L55 16L55 14ZM23 15L23 16L24 16L24 15ZM43 15L43 16L44 16L44 17L46 17L46 18L48 18L48 17L47 17L47 15ZM6 16L6 17L7 17L7 16ZM4 17L4 19L5 19L5 17ZM18 17L18 18L19 18L19 17ZM6 18L6 19L7 19L7 18ZM21 18L21 20L23 20L23 18ZM35 18L35 19L39 19L39 18ZM58 18L58 19L59 19L59 20L58 20L58 21L59 21L59 22L60 22L60 23L59 23L59 25L60 25L60 27L59 27L59 26L57 26L57 27L59 27L59 28L60 28L60 29L62 29L62 30L63 30L63 28L60 28L60 27L62 27L62 26L61 26L61 25L62 25L62 23L63 23L63 24L65 24L65 23L63 23L63 22L62 22L62 21L64 21L64 22L65 22L65 20L64 20L64 19L63 19L63 18L62 18L62 19L61 19L61 20L60 20L60 19L59 19L59 18ZM62 19L62 20L63 20L63 19ZM47 20L47 23L48 23L48 22L50 22L50 21L49 21L49 20ZM52 20L52 21L53 21L53 20ZM56 20L56 21L57 21L57 20ZM12 21L12 22L11 22L11 24L12 24L12 22L13 22L13 21ZM21 21L21 22L20 22L20 23L22 23L22 21ZM23 21L23 22L24 22L24 23L23 23L23 24L25 24L25 25L22 25L22 24L20 24L20 25L19 25L19 26L18 26L18 25L17 25L17 26L18 26L18 27L20 27L20 25L21 25L21 26L22 26L22 28L23 28L23 27L25 27L25 28L24 28L24 29L21 29L21 28L20 28L20 29L19 29L19 31L20 31L20 29L21 29L21 30L26 30L26 26L27 26L27 25L28 25L28 24L30 24L30 26L31 26L31 27L27 27L27 29L29 29L29 28L30 28L30 29L32 29L32 26L33 26L33 25L32 25L32 24L31 24L31 23L30 23L30 22L27 22L27 21L26 21L26 23L25 23L25 21ZM44 22L44 23L46 23L46 22ZM61 22L61 23L60 23L60 24L61 24L61 23L62 23L62 22ZM26 23L26 25L25 25L25 26L26 26L26 25L27 25L27 23ZM51 23L51 24L50 24L50 25L51 25L51 24L52 24L52 23ZM31 25L31 26L32 26L32 25ZM63 25L63 26L65 26L65 25ZM6 26L6 27L7 27L7 26ZM8 26L8 27L9 27L9 26ZM37 26L37 27L38 27L38 29L37 29L37 30L39 30L39 28L40 28L40 27L38 27L38 26ZM0 27L0 28L1 28L1 30L0 30L0 31L1 31L1 32L2 32L2 31L1 31L1 30L2 30L2 28L1 28L1 27ZM33 27L33 28L34 28L34 27ZM64 29L64 30L65 30L65 29ZM40 30L40 31L41 31L41 32L39 32L39 31L37 31L37 33L38 33L38 36L37 36L37 37L35 37L35 36L34 36L34 37L33 37L33 36L32 36L32 35L31 35L31 37L32 37L32 40L33 40L33 39L34 39L34 40L35 40L35 39L36 39L36 38L37 38L37 37L38 37L38 36L40 36L40 35L41 35L41 33L43 33L43 32L44 32L44 34L43 34L43 35L44 35L44 34L45 34L45 33L46 33L46 34L48 34L48 32L47 32L47 33L46 33L46 32L44 32L44 31L43 31L43 30L42 30L42 31L41 31L41 30ZM5 31L5 34L8 34L8 31ZM31 31L31 34L34 34L34 31ZM57 31L57 34L60 34L60 31ZM6 32L6 33L7 33L7 32ZM17 32L17 33L18 33L18 34L19 34L19 33L21 33L21 32ZM32 32L32 33L33 33L33 32ZM38 32L38 33L39 33L39 32ZM58 32L58 33L59 33L59 32ZM35 33L35 34L36 34L36 33ZM39 34L39 35L40 35L40 34ZM49 34L49 35L50 35L50 34ZM28 35L28 36L30 36L30 35ZM51 35L51 37L54 37L54 36L53 36L53 35ZM19 37L19 39L17 39L17 40L18 40L18 41L19 41L19 42L20 42L20 37ZM34 37L34 38L35 38L35 37ZM43 38L43 39L44 39L44 38ZM1 39L1 40L2 40L2 39ZM30 41L30 42L31 42L31 41ZM44 41L44 43L46 43L46 42L45 42L45 41ZM23 43L23 45L24 45L24 43ZM28 43L28 44L29 44L29 43ZM26 44L26 45L27 45L27 44ZM49 45L49 46L51 46L51 45ZM1 46L1 47L2 47L2 46ZM17 46L17 47L18 47L18 46ZM39 46L39 47L40 47L40 46ZM34 47L34 50L35 50L35 51L37 51L37 52L38 52L38 51L37 51L37 50L38 50L38 49L37 49L37 48L38 48L38 47L36 47L36 48L35 48L35 47ZM56 47L56 48L57 48L57 47ZM39 48L39 49L40 49L40 50L41 50L41 51L39 51L39 52L41 52L41 51L42 51L42 52L43 52L43 51L42 51L42 50L41 50L41 49L40 49L40 48ZM58 48L58 49L59 49L59 48ZM2 49L2 50L3 50L3 49ZM21 49L21 50L22 50L22 49ZM26 50L26 52L27 52L27 53L26 53L26 54L27 54L27 53L28 53L28 51L30 51L30 50ZM19 51L19 52L18 52L18 53L17 53L17 54L18 54L18 55L19 55L19 54L18 54L18 53L21 53L21 52L20 52L20 51ZM13 52L13 53L14 53L14 52ZM44 53L44 54L45 54L45 53ZM40 54L40 55L39 55L39 56L40 56L40 55L41 55L41 54ZM27 55L27 56L28 56L28 55ZM44 55L44 56L45 56L45 55ZM62 55L62 56L61 56L61 58L63 58L63 55ZM6 56L6 57L7 57L7 56ZM15 56L15 57L14 57L14 58L13 58L13 59L11 59L11 60L8 60L8 65L14 65L14 64L15 64L15 63L13 63L13 59L14 59L14 58L15 58L15 59L17 59L17 58L15 58L15 57L16 57L16 56ZM31 57L31 60L34 60L34 57ZM57 57L57 60L60 60L60 57ZM32 58L32 59L33 59L33 58ZM35 58L35 59L36 59L36 58ZM58 58L58 59L59 59L59 58ZM26 59L26 61L27 61L27 59ZM40 59L40 60L41 60L41 59ZM62 59L62 60L61 60L61 61L59 61L59 62L61 62L61 61L62 61L62 60L63 60L63 59ZM11 60L11 61L12 61L12 60ZM9 61L9 63L10 63L10 61ZM11 62L11 63L12 63L12 62ZM23 62L23 63L24 63L24 64L25 64L25 63L24 63L24 62ZM43 63L43 64L44 64L44 63ZM60 63L60 64L61 64L61 63ZM62 63L62 64L63 64L63 63ZM53 64L53 65L54 65L54 64ZM0 0L0 7L7 7L7 0ZM1 1L1 6L6 6L6 1ZM2 2L2 5L5 5L5 2ZM58 0L58 7L65 7L65 0ZM59 1L59 6L64 6L64 1ZM60 2L60 5L63 5L63 2ZM0 58L0 65L7 65L7 58ZM1 59L1 64L6 64L6 59ZM2 60L2 63L5 63L5 60Z" fill="#000000"/></g></g></svg>
