<?xml version="1.0" encoding="UTF-8"?>
<svg xmlns="http://www.w3.org/2000/svg" version="1.1" width="100" height="100" viewBox="0 0 100 100"><rect x="0" y="0" width="100" height="100" fill="#ffffff"/><g transform="scale(1.538)"><g transform="translate(0,0)"><path fill-rule="evenodd" d="M9 0L9 1L8 1L8 2L11 2L11 3L8 3L8 4L11 4L11 5L10 5L10 7L11 7L11 8L12 8L12 9L13 9L13 10L16 10L16 11L17 11L17 12L16 12L16 13L15 13L15 11L14 11L14 13L15 13L15 14L14 14L14 15L13 15L13 13L12 13L12 12L11 12L11 10L10 10L10 8L6 8L6 9L7 9L7 10L6 10L6 11L7 11L7 10L8 10L8 12L6 12L6 13L7 13L7 14L6 14L6 15L5 15L5 14L3 14L3 13L4 13L4 12L3 12L3 13L2 13L2 12L0 12L0 13L2 13L2 14L1 14L1 15L2 15L2 18L1 18L1 16L0 16L0 18L1 18L1 19L2 19L2 18L3 18L3 17L4 17L4 15L5 15L5 17L7 17L7 18L6 18L6 19L5 19L5 21L4 21L4 19L3 19L3 20L1 20L1 22L0 22L0 24L1 24L1 26L0 26L0 28L1 28L1 29L2 29L2 30L3 30L3 27L4 27L4 28L5 28L5 27L7 27L7 28L6 28L6 29L4 29L4 31L3 31L3 32L4 32L4 36L2 36L2 38L1 38L1 34L3 34L3 33L1 33L1 32L0 32L0 33L1 33L1 34L0 34L0 39L2 39L2 38L3 38L3 37L4 37L4 40L5 40L5 41L3 41L3 40L1 40L1 41L0 41L0 42L2 42L2 43L1 43L1 45L0 45L0 47L1 47L1 48L0 48L0 49L1 49L1 51L2 51L2 53L0 53L0 54L2 54L2 55L3 55L3 56L1 56L1 55L0 55L0 56L1 56L1 57L3 57L3 56L4 56L4 57L5 57L5 56L4 56L4 54L5 54L5 55L7 55L7 56L6 56L6 57L7 57L7 56L9 56L9 57L8 57L8 59L9 59L9 58L10 58L10 56L11 56L11 59L10 59L10 60L8 60L8 65L9 65L9 64L10 64L10 65L11 65L11 64L10 64L10 62L11 62L11 63L13 63L13 62L15 62L15 63L14 63L14 64L13 64L13 65L15 65L15 64L16 64L16 65L17 65L17 64L18 64L18 65L20 65L20 64L22 64L22 63L23 63L23 62L24 62L24 63L25 63L25 61L26 61L26 60L28 60L28 59L30 59L30 60L29 60L29 61L31 61L31 62L30 62L30 63L29 63L29 62L26 62L26 63L29 63L29 64L28 64L28 65L31 65L31 64L30 64L30 63L32 63L32 62L33 62L33 61L34 61L34 63L35 63L35 65L38 65L38 61L37 61L37 60L38 60L38 57L39 57L39 55L40 55L40 56L41 56L41 57L40 57L40 58L41 58L41 59L39 59L39 60L41 60L41 62L39 62L39 63L41 63L41 62L42 62L42 63L43 63L43 64L42 64L42 65L44 65L44 64L45 64L45 65L46 65L46 63L48 63L48 64L47 64L47 65L49 65L49 63L50 63L50 61L51 61L51 62L52 62L52 61L51 61L51 59L53 59L53 57L54 57L54 58L56 58L56 59L54 59L54 60L53 60L53 62L54 62L54 64L53 64L53 65L56 65L56 64L55 64L55 63L56 63L56 61L61 61L61 60L62 60L62 59L63 59L63 60L64 60L64 61L62 61L62 62L63 62L63 64L64 64L64 61L65 61L65 59L63 59L63 57L64 57L64 58L65 58L65 57L64 57L64 56L65 56L65 55L64 55L64 56L63 56L63 57L62 57L62 59L61 59L61 56L62 56L62 53L63 53L63 54L64 54L64 53L65 53L65 51L63 51L63 52L62 52L62 50L65 50L65 49L64 49L64 48L63 48L63 49L62 49L62 50L61 50L61 49L60 49L60 48L62 48L62 47L63 47L63 46L65 46L65 43L63 43L63 46L62 46L62 47L60 47L60 46L61 46L61 45L62 45L62 43L61 43L61 45L58 45L58 46L59 46L59 47L60 47L60 48L59 48L59 49L58 49L58 48L57 48L57 45L56 45L56 49L53 49L53 50L50 50L50 48L53 48L53 47L55 47L55 44L57 44L57 43L58 43L58 44L60 44L60 43L58 43L58 41L59 41L59 42L62 42L62 41L65 41L65 39L63 39L63 38L62 38L62 37L63 37L63 36L62 36L62 35L63 35L63 34L65 34L65 32L64 32L64 33L63 33L63 34L61 34L61 33L62 33L62 31L61 31L61 30L63 30L63 29L64 29L64 30L65 30L65 29L64 29L64 27L63 27L63 28L62 28L62 26L65 26L65 25L64 25L64 24L60 24L60 25L59 25L59 26L58 26L58 27L59 27L59 30L56 30L56 29L57 29L57 27L55 27L55 28L53 28L53 27L54 27L54 26L56 26L56 24L57 24L57 25L58 25L58 24L57 24L57 22L56 22L56 24L55 24L55 20L53 20L53 18L54 18L54 19L55 19L55 18L56 18L56 17L54 17L54 15L57 15L57 14L56 14L56 13L58 13L58 12L57 12L57 11L55 11L55 8L54 8L54 7L55 7L55 5L54 5L54 7L53 7L53 6L52 6L52 7L51 7L51 5L52 5L52 4L51 4L51 3L50 3L50 2L53 2L53 1L54 1L54 0L53 0L53 1L50 1L50 0L49 0L49 1L48 1L48 0L47 0L47 1L45 1L45 0L39 0L39 1L40 1L40 2L39 2L39 3L41 3L41 1L45 1L45 2L47 2L47 1L48 1L48 2L49 2L49 3L47 3L47 5L45 5L45 4L44 4L44 2L42 2L42 3L43 3L43 4L40 4L40 5L41 5L41 6L40 6L40 8L41 8L41 9L39 9L39 10L36 10L36 9L38 9L38 8L39 8L39 6L38 6L38 8L37 8L37 5L38 5L38 0L37 0L37 1L35 1L35 4L32 4L32 3L31 3L31 2L34 2L34 1L33 1L33 0L32 0L32 1L31 1L31 0L29 0L29 1L27 1L27 3L28 3L28 4L30 4L30 5L29 5L29 6L28 6L28 5L27 5L27 6L26 6L26 5L25 5L25 4L26 4L26 1L25 1L25 0L24 0L24 1L23 1L23 0L21 0L21 1L22 1L22 3L23 3L23 4L22 4L22 5L21 5L21 6L20 6L20 7L19 7L19 6L18 6L18 7L17 7L17 5L18 5L18 4L19 4L19 3L20 3L20 4L21 4L21 2L20 2L20 0L19 0L19 3L17 3L17 4L16 4L16 2L15 2L15 3L14 3L14 1L15 1L15 0L14 0L14 1L13 1L13 0L11 0L11 1L10 1L10 0ZM16 0L16 1L18 1L18 0ZM55 0L55 1L56 1L56 3L55 3L55 2L54 2L54 3L53 3L53 4L56 4L56 5L57 5L57 4L56 4L56 3L57 3L57 1L56 1L56 0ZM24 1L24 4L23 4L23 5L24 5L24 6L23 6L23 7L24 7L24 6L25 6L25 8L26 8L26 9L25 9L25 11L27 11L27 12L26 12L26 13L27 13L27 14L26 14L26 15L27 15L27 14L29 14L29 16L28 16L28 17L27 17L27 16L25 16L25 15L24 15L24 16L22 16L22 15L21 15L21 14L22 14L22 13L24 13L24 12L22 12L22 11L24 11L24 10L21 10L21 9L24 9L24 8L22 8L22 6L21 6L21 8L19 8L19 7L18 7L18 8L17 8L17 9L16 9L16 10L17 10L17 9L18 9L18 12L20 12L20 11L21 11L21 13L20 13L20 14L19 14L19 13L18 13L18 14L17 14L17 13L16 13L16 14L15 14L15 15L14 15L14 16L13 16L13 15L12 15L12 14L11 14L11 12L10 12L10 10L9 10L9 9L8 9L8 10L9 10L9 12L10 12L10 15L12 15L12 16L9 16L9 14L8 14L8 15L6 15L6 16L9 16L9 17L11 17L11 18L9 18L9 20L8 20L8 19L6 19L6 20L8 20L8 21L9 21L9 23L8 23L8 24L7 24L7 23L6 23L6 22L7 22L7 21L6 21L6 22L4 22L4 21L2 21L2 22L1 22L1 23L4 23L4 24L3 24L3 26L4 26L4 27L5 27L5 25L4 25L4 24L5 24L5 23L6 23L6 24L7 24L7 25L6 25L6 26L7 26L7 27L10 27L10 26L11 26L11 28L10 28L10 30L9 30L9 28L8 28L8 30L9 30L9 32L10 32L10 33L9 33L9 34L10 34L10 36L12 36L12 38L7 38L7 37L9 37L9 35L5 35L5 36L4 36L4 37L5 37L5 38L7 38L7 39L6 39L6 40L8 40L8 42L9 42L9 43L5 43L5 42L7 42L7 41L5 41L5 42L4 42L4 44L3 44L3 45L2 45L2 46L4 46L4 49L3 49L3 47L2 47L2 49L3 49L3 50L2 50L2 51L3 51L3 50L4 50L4 51L6 51L6 52L5 52L5 53L6 53L6 54L7 54L7 55L8 55L8 54L7 54L7 53L8 53L8 52L9 52L9 53L10 53L10 52L11 52L11 53L12 53L12 54L13 54L13 55L11 55L11 56L14 56L14 57L13 57L13 60L14 60L14 59L15 59L15 58L17 58L17 59L16 59L16 60L15 60L15 62L17 62L17 63L16 63L16 64L17 64L17 63L18 63L18 64L20 64L20 62L21 62L21 61L23 61L23 60L25 60L25 59L24 59L24 58L22 58L22 57L27 57L27 59L28 59L28 58L30 58L30 56L28 56L28 55L26 55L26 54L30 54L30 55L31 55L31 56L32 56L32 54L33 54L33 56L35 56L35 59L36 59L36 60L35 60L35 61L36 61L36 62L37 62L37 61L36 61L36 60L37 60L37 59L36 59L36 58L37 58L37 57L36 57L36 56L38 56L38 55L37 55L37 53L38 53L38 54L39 54L39 53L42 53L42 52L44 52L44 53L45 53L45 55L46 55L46 54L47 54L47 55L48 55L48 56L47 56L47 57L45 57L45 56L42 56L42 57L41 57L41 58L42 58L42 60L44 60L44 61L43 61L43 62L44 62L44 63L45 63L45 62L44 62L44 61L45 61L45 60L44 60L44 58L42 58L42 57L45 57L45 58L47 58L47 60L46 60L46 62L47 62L47 60L48 60L48 59L49 59L49 61L50 61L50 59L51 59L51 58L52 58L52 57L53 57L53 56L52 56L52 55L53 55L53 54L54 54L54 55L56 55L56 56L55 56L55 57L56 57L56 56L57 56L57 55L59 55L59 56L61 56L61 54L59 54L59 53L62 53L62 52L61 52L61 51L60 51L60 50L57 50L57 51L56 51L56 50L54 50L54 51L56 51L56 52L53 52L53 51L50 51L50 50L49 50L49 49L45 49L45 48L50 48L50 47L53 47L53 46L52 46L52 45L54 45L54 44L53 44L53 42L54 42L54 43L57 43L57 39L60 39L60 40L59 40L59 41L62 41L62 40L63 40L63 39L62 39L62 38L61 38L61 39L60 39L60 38L59 38L59 37L62 37L62 36L61 36L61 35L59 35L59 37L58 37L58 38L57 38L57 39L56 39L56 38L55 38L55 39L54 39L54 38L53 38L53 37L54 37L54 36L55 36L55 37L57 37L57 36L58 36L58 35L57 35L57 36L56 36L56 31L55 31L55 30L52 30L52 29L53 29L53 28L52 28L52 27L53 27L53 25L54 25L54 23L53 23L53 24L52 24L52 26L51 26L51 23L52 23L52 22L53 22L53 20L51 20L51 21L50 21L50 20L49 20L49 19L48 19L48 18L49 18L49 17L48 17L48 16L49 16L49 15L48 15L48 16L47 16L47 17L45 17L45 16L44 16L44 17L43 17L43 18L44 18L44 19L45 19L45 20L44 20L44 21L43 21L43 22L41 22L41 20L43 20L43 19L42 19L42 18L40 18L40 19L39 19L39 20L38 20L38 18L39 18L39 17L41 17L41 16L39 16L39 15L40 15L40 14L41 14L41 15L42 15L42 16L43 16L43 14L44 14L44 15L47 15L47 13L46 13L46 12L40 12L40 11L44 11L44 10L45 10L45 11L47 11L47 12L49 12L49 13L48 13L48 14L49 14L49 13L50 13L50 19L51 19L51 17L52 17L52 18L53 18L53 15L52 15L52 16L51 16L51 14L53 14L53 13L54 13L54 12L51 12L51 13L50 13L50 11L47 11L47 8L45 8L45 7L46 7L46 6L45 6L45 5L44 5L44 6L43 6L43 5L42 5L42 6L41 6L41 7L42 7L42 9L43 9L43 8L44 8L44 10L40 10L40 11L39 11L39 12L40 12L40 13L38 13L38 18L37 18L37 17L36 17L36 20L37 20L37 21L38 21L38 22L37 22L37 23L38 23L38 24L37 24L37 25L38 25L38 26L39 26L39 27L40 27L40 28L37 28L37 29L36 29L36 31L35 31L35 32L36 32L36 31L38 31L38 34L37 34L37 35L36 35L36 33L35 33L35 35L33 35L33 37L32 37L32 38L30 38L30 37L31 37L31 36L30 36L30 37L29 37L29 35L30 35L30 34L29 34L29 33L30 33L30 31L27 31L27 30L30 30L30 29L29 29L29 28L28 28L28 29L27 29L27 27L31 27L31 28L32 28L32 30L35 30L35 29L33 29L33 26L34 26L34 27L35 27L35 28L36 28L36 27L37 27L37 26L36 26L36 27L35 27L35 24L34 24L34 23L33 23L33 22L35 22L35 21L34 21L34 20L35 20L35 16L37 16L37 13L33 13L33 12L38 12L38 11L33 11L33 10L35 10L35 9L32 9L32 10L31 10L31 11L33 11L33 12L30 12L30 9L28 9L28 8L29 8L29 7L30 7L30 6L29 6L29 7L28 7L28 6L27 6L27 7L28 7L28 8L26 8L26 6L25 6L25 5L24 5L24 4L25 4L25 1ZM29 1L29 2L28 2L28 3L30 3L30 2L31 2L31 1ZM49 1L49 2L50 2L50 1ZM12 2L12 3L11 3L11 4L14 4L14 3L13 3L13 2ZM36 2L36 3L37 3L37 2ZM49 3L49 4L50 4L50 5L49 5L49 7L48 7L48 6L47 6L47 7L48 7L48 8L50 8L50 5L51 5L51 4L50 4L50 3ZM8 5L8 7L9 7L9 5ZM12 5L12 6L11 6L11 7L12 7L12 6L13 6L13 8L14 8L14 9L15 9L15 7L16 7L16 5L15 5L15 7L14 7L14 6L13 6L13 5ZM31 5L31 8L34 8L34 5ZM32 6L32 7L33 7L33 6ZM35 6L35 8L36 8L36 6ZM42 6L42 7L43 7L43 6ZM44 6L44 7L45 7L45 6ZM56 6L56 7L57 7L57 6ZM0 8L0 10L1 10L1 11L5 11L5 10L3 10L3 9L5 9L5 8ZM18 8L18 9L19 9L19 11L20 11L20 9L19 9L19 8ZM52 8L52 9L49 9L49 10L52 10L52 9L53 9L53 8ZM56 8L56 9L58 9L58 8ZM59 8L59 10L60 10L60 8ZM61 8L61 9L62 9L62 10L65 10L65 9L64 9L64 8L63 8L63 9L62 9L62 8ZM26 9L26 10L28 10L28 9ZM59 11L59 12L60 12L60 13L59 13L59 14L58 14L58 15L61 15L61 16L59 16L59 18L58 18L58 19L56 19L56 21L58 21L58 20L59 20L59 22L60 22L60 23L63 23L63 22L61 22L61 21L64 21L64 22L65 22L65 20L62 20L62 19L64 19L64 18L65 18L65 15L64 15L64 14L65 14L65 13L64 13L64 12L65 12L65 11L64 11L64 12L60 12L60 11ZM27 12L27 13L28 13L28 12ZM29 12L29 13L30 13L30 14L31 14L31 13L30 13L30 12ZM55 12L55 13L56 13L56 12ZM41 13L41 14L43 14L43 13ZM44 13L44 14L45 14L45 13ZM62 13L62 16L61 16L61 18L59 18L59 19L60 19L60 20L61 20L61 19L62 19L62 18L64 18L64 17L63 17L63 16L64 16L64 15L63 15L63 13ZM2 14L2 15L3 15L3 14ZM16 14L16 15L17 15L17 16L16 16L16 17L15 17L15 16L14 16L14 17L13 17L13 16L12 16L12 18L11 18L11 19L10 19L10 20L9 20L9 21L10 21L10 20L11 20L11 23L12 23L12 21L14 21L14 22L13 22L13 23L14 23L14 24L13 24L13 25L12 25L12 24L10 24L10 25L9 25L9 24L8 24L8 25L9 25L9 26L10 26L10 25L12 25L12 26L13 26L13 28L11 28L11 29L13 29L13 30L14 30L14 31L13 31L13 32L15 32L15 31L16 31L16 33L17 33L17 35L16 35L16 34L15 34L15 33L14 33L14 34L15 34L15 35L14 35L14 36L15 36L15 35L16 35L16 37L15 37L15 39L17 39L17 41L19 41L19 42L17 42L17 43L18 43L18 44L17 44L17 46L18 46L18 47L16 47L16 48L15 48L15 47L14 47L14 46L16 46L16 44L15 44L15 43L14 43L14 42L12 42L12 41L14 41L14 37L13 37L13 38L12 38L12 39L10 39L10 40L9 40L9 41L10 41L10 43L11 43L11 42L12 42L12 44L13 44L13 45L14 45L14 46L13 46L13 47L12 47L12 50L13 50L13 51L15 51L15 52L12 52L12 53L13 53L13 54L14 54L14 55L18 55L18 54L14 54L14 53L16 53L16 52L18 52L18 53L21 53L21 52L22 52L22 51L23 51L23 55L22 55L22 54L20 54L20 55L21 55L21 56L17 56L17 57L19 57L19 58L18 58L18 59L17 59L17 60L16 60L16 61L17 61L17 62L18 62L18 63L19 63L19 62L18 62L18 61L21 61L21 60L23 60L23 59L21 59L21 58L20 58L20 57L22 57L22 56L23 56L23 55L24 55L24 56L25 56L25 53L26 53L26 51L27 51L27 50L26 50L26 48L25 48L25 47L26 47L26 46L25 46L25 45L26 45L26 44L27 44L27 45L28 45L28 43L30 43L30 44L29 44L29 45L30 45L30 46L31 46L31 47L32 47L32 46L31 46L31 45L33 45L33 44L34 44L34 46L35 46L35 45L36 45L36 46L38 46L38 48L36 48L36 47L35 47L35 48L36 48L36 49L35 49L35 50L36 50L36 51L35 51L35 52L34 52L34 53L37 53L37 52L36 52L36 51L39 51L39 52L41 52L41 51L43 51L43 49L44 49L44 50L45 50L45 49L44 49L44 48L43 48L43 49L42 49L42 47L41 47L41 46L43 46L43 47L44 47L44 46L45 46L45 47L46 47L46 46L45 46L45 45L44 45L44 40L45 40L45 38L46 38L46 39L47 39L47 40L48 40L48 42L46 42L46 45L48 45L48 46L47 46L47 47L48 47L48 46L50 46L50 45L49 45L49 42L50 42L50 44L52 44L52 43L51 43L51 42L50 42L50 41L51 41L51 40L53 40L53 41L54 41L54 42L56 42L56 41L55 41L55 40L56 40L56 39L55 39L55 40L53 40L53 38L51 38L51 40L50 40L50 41L49 41L49 40L48 40L48 38L50 38L50 35L51 35L51 36L53 36L53 34L55 34L55 31L52 31L52 30L51 30L51 31L52 31L52 32L54 32L54 33L53 33L53 34L52 34L52 33L51 33L51 34L50 34L50 29L51 29L51 27L50 27L50 24L49 24L49 23L50 23L50 21L49 21L49 20L47 20L47 18L45 18L45 19L46 19L46 21L47 21L47 22L45 22L45 23L44 23L44 24L41 24L41 22L40 22L40 21L39 21L39 22L40 22L40 24L41 24L41 25L39 25L39 24L38 24L38 25L39 25L39 26L41 26L41 25L42 25L42 26L43 26L43 27L41 27L41 32L42 32L42 33L39 33L39 34L43 34L43 33L44 33L44 32L45 32L45 34L44 34L44 35L42 35L42 36L41 36L41 37L40 37L40 38L37 38L37 36L38 36L38 37L39 37L39 36L40 36L40 35L37 35L37 36L36 36L36 35L35 35L35 38L36 38L36 39L37 39L37 40L34 40L34 39L33 39L33 38L32 38L32 41L31 41L31 39L29 39L29 38L27 38L27 37L26 37L26 34L25 34L25 33L26 33L26 32L25 32L25 33L22 33L22 34L21 34L21 35L20 35L20 36L19 36L19 35L18 35L18 33L19 33L19 34L20 34L20 33L21 33L21 31L24 31L24 30L25 30L25 29L26 29L26 27L25 27L25 26L26 26L26 22L28 22L28 23L29 23L29 24L28 24L28 25L30 25L30 26L31 26L31 27L32 27L32 26L33 26L33 25L32 25L32 26L31 26L31 25L30 25L30 24L33 24L33 23L32 23L32 22L33 22L33 21L32 21L32 20L31 20L31 18L27 18L27 17L23 17L23 19L24 19L24 18L25 18L25 19L26 19L26 20L25 20L25 21L21 21L21 22L23 22L23 23L24 23L24 24L23 24L23 25L22 25L22 24L20 24L20 25L19 25L19 23L20 23L20 19L21 19L21 20L22 20L22 19L21 19L21 18L22 18L22 17L21 17L21 18L20 18L20 17L19 17L19 15L17 15L17 14ZM32 14L32 16L31 16L31 15L30 15L30 16L29 16L29 17L30 17L30 16L31 16L31 17L32 17L32 18L33 18L33 20L34 20L34 18L33 18L33 17L32 17L32 16L35 16L35 14ZM57 16L57 17L58 17L58 16ZM14 17L14 18L12 18L12 19L11 19L11 20L12 20L12 19L14 19L14 20L15 20L15 21L16 21L16 22L15 22L15 23L16 23L16 24L15 24L15 25L13 25L13 26L16 26L16 29L15 29L15 28L14 28L14 29L15 29L15 30L16 30L16 29L17 29L17 31L19 31L19 32L20 32L20 30L21 30L21 29L25 29L25 28L24 28L24 26L22 26L22 25L20 25L20 26L19 26L19 25L16 25L16 24L18 24L18 23L19 23L19 21L18 21L18 20L19 20L19 19L18 19L18 20L17 20L17 18L19 18L19 17L16 17L16 18L15 18L15 17ZM26 18L26 19L27 19L27 18ZM28 19L28 20L26 20L26 21L28 21L28 22L29 22L29 21L30 21L30 20L29 20L29 19ZM40 19L40 20L41 20L41 19ZM28 20L28 21L29 21L29 20ZM17 21L17 22L18 22L18 21ZM31 21L31 22L30 22L30 23L31 23L31 22L32 22L32 21ZM48 21L48 23L45 23L45 24L44 24L44 25L43 25L43 26L47 26L47 28L46 28L46 27L45 27L45 28L44 28L44 27L43 27L43 28L44 28L44 29L43 29L43 30L42 30L42 32L44 32L44 31L45 31L45 32L46 32L46 34L45 34L45 35L44 35L44 37L43 37L43 38L42 38L42 37L41 37L41 38L42 38L42 39L40 39L40 40L39 40L39 39L38 39L38 40L39 40L39 41L36 41L36 42L35 42L35 41L34 41L34 42L33 42L33 41L32 41L32 42L33 42L33 43L32 43L32 44L33 44L33 43L34 43L34 44L36 44L36 42L37 42L37 43L38 43L38 42L41 42L41 40L42 40L42 41L43 41L43 40L44 40L44 38L45 38L45 36L46 36L46 38L48 38L48 36L49 36L49 33L47 33L47 32L49 32L49 31L48 31L48 29L47 29L47 28L49 28L49 29L50 29L50 27L48 27L48 26L49 26L49 25L48 25L48 26L47 26L47 25L45 25L45 24L48 24L48 23L49 23L49 21ZM51 21L51 22L52 22L52 21ZM24 22L24 23L25 23L25 22ZM60 25L60 26L62 26L62 25ZM1 26L1 28L2 28L2 26ZM18 26L18 27L17 27L17 29L21 29L21 28L20 28L20 27L22 27L22 26L20 26L20 27L19 27L19 26ZM45 28L45 29L44 29L44 30L43 30L43 31L44 31L44 30L45 30L45 31L46 31L46 32L47 32L47 30L46 30L46 28ZM61 28L61 29L62 29L62 28ZM6 29L6 30L7 30L7 29ZM0 30L0 31L1 31L1 30ZM38 30L38 31L39 31L39 30ZM5 31L5 34L8 34L8 31ZM10 31L10 32L11 32L11 31ZM31 31L31 34L34 34L34 31ZM57 31L57 34L60 34L60 31ZM6 32L6 33L7 33L7 32ZM17 32L17 33L18 33L18 32ZM27 32L27 33L29 33L29 32ZM32 32L32 33L33 33L33 32ZM58 32L58 33L59 33L59 32ZM10 33L10 34L12 34L12 35L13 35L13 34L12 34L12 33ZM22 34L22 35L21 35L21 37L20 37L20 39L19 39L19 40L20 40L20 39L21 39L21 41L20 41L20 42L19 42L19 43L20 43L20 44L19 44L19 45L18 45L18 46L19 46L19 47L18 47L18 48L20 48L20 50L19 50L19 49L15 49L15 48L14 48L14 47L13 47L13 50L15 50L15 51L17 51L17 50L18 50L18 51L19 51L19 52L21 52L21 51L22 51L22 50L21 50L21 49L24 49L24 48L23 48L23 47L24 47L24 46L23 46L23 45L25 45L25 44L21 44L21 43L20 43L20 42L21 42L21 41L23 41L23 40L24 40L24 39L26 39L26 41L25 41L25 42L26 42L26 41L27 41L27 43L28 43L28 42L30 42L30 43L31 43L31 42L30 42L30 41L28 41L28 40L27 40L27 39L26 39L26 37L25 37L25 34ZM27 34L27 35L28 35L28 34ZM46 34L46 35L47 35L47 34ZM51 34L51 35L52 35L52 34ZM22 35L22 36L24 36L24 35ZM64 35L64 38L65 38L65 35ZM5 36L5 37L7 37L7 36ZM17 36L17 37L16 37L16 38L17 38L17 39L18 39L18 38L19 38L19 37L18 37L18 36ZM17 37L17 38L18 38L18 37ZM21 37L21 38L22 38L22 37ZM23 37L23 39L24 39L24 38L25 38L25 37ZM61 39L61 40L62 40L62 39ZM11 40L11 41L12 41L12 40ZM15 40L15 41L16 41L16 40ZM2 41L2 42L3 42L3 41ZM23 42L23 43L24 43L24 42ZM42 42L42 43L43 43L43 42ZM13 43L13 44L14 44L14 45L15 45L15 44L14 44L14 43ZM6 44L6 45L7 45L7 46L5 46L5 45L4 45L4 46L5 46L5 48L6 48L6 49L7 49L7 48L6 48L6 47L7 47L7 46L8 46L8 48L9 48L9 49L10 49L10 48L11 48L11 47L10 47L10 48L9 48L9 46L8 46L8 44ZM9 44L9 45L11 45L11 44ZM30 44L30 45L31 45L31 44ZM39 44L39 45L38 45L38 46L39 46L39 47L40 47L40 48L38 48L38 49L37 49L37 50L39 50L39 51L41 51L41 50L40 50L40 49L41 49L41 47L40 47L40 45L41 45L41 44ZM19 45L19 46L20 46L20 45ZM43 45L43 46L44 46L44 45ZM21 46L21 48L22 48L22 46ZM27 46L27 47L29 47L29 46ZM33 47L33 48L32 48L32 49L31 49L31 50L32 50L32 49L33 49L33 50L34 50L34 49L33 49L33 48L34 48L34 47ZM29 48L29 49L30 49L30 48ZM4 49L4 50L5 50L5 49ZM6 50L6 51L7 51L7 50ZM8 50L8 51L9 51L9 52L10 52L10 50ZM20 50L20 51L21 51L21 50ZM23 50L23 51L26 51L26 50ZM28 50L28 51L29 51L29 52L28 52L28 53L30 53L30 54L32 54L32 51L30 51L30 50ZM46 50L46 51L47 51L47 54L48 54L48 55L52 55L52 54L53 54L53 53L52 53L52 54L50 54L50 51L49 51L49 50ZM57 51L57 52L56 52L56 54L57 54L57 52L58 52L58 53L59 53L59 52L60 52L60 51ZM6 52L6 53L7 53L7 52ZM24 52L24 53L25 53L25 52ZM30 52L30 53L31 53L31 52ZM45 52L45 53L46 53L46 52ZM54 53L54 54L55 54L55 53ZM9 54L9 55L10 55L10 54ZM41 54L41 55L42 55L42 54ZM43 54L43 55L44 55L44 54ZM35 55L35 56L36 56L36 55ZM27 56L27 57L28 57L28 56ZM48 56L48 57L47 57L47 58L50 58L50 57L52 57L52 56L50 56L50 57L49 57L49 56ZM14 57L14 58L15 58L15 57ZM31 57L31 60L34 60L34 57ZM57 57L57 60L60 60L60 57ZM32 58L32 59L33 59L33 58ZM58 58L58 59L59 59L59 58ZM11 59L11 60L12 60L12 59ZM18 59L18 60L17 60L17 61L18 61L18 60L21 60L21 59ZM55 60L55 61L56 61L56 60ZM9 61L9 62L10 62L10 61ZM11 61L11 62L13 62L13 61ZM58 62L58 63L57 63L57 64L58 64L58 65L61 65L61 64L62 64L62 63L61 63L61 62ZM36 63L36 64L37 64L37 63ZM58 63L58 64L59 64L59 63ZM60 63L60 64L61 64L61 63ZM25 64L25 65L26 65L26 64ZM32 64L32 65L34 65L34 64ZM50 64L50 65L51 65L51 64ZM0 0L0 7L7 7L7 0ZM1 1L1 6L6 6L6 1ZM2 2L2 5L5 5L5 2ZM58 0L58 7L65 7L65 0ZM59 1L59 6L64 6L64 1ZM60 2L60 5L63 5L63 2ZM0 58L0 65L7 65L7 58ZM1 59L1 64L6 64L6 59ZM2 60L2 63L5 63L5 60Z" fill="#000000"/></g></g></svg>
