<?xml version="1.0" encoding="UTF-8"?>
<svg xmlns="http://www.w3.org/2000/svg" version="1.1" width="100" height="100" viewBox="0 0 100 100"><rect x="0" y="0" width="100" height="100" fill="#ffffff"/><g transform="scale(1.538)"><g transform="translate(0,0)"><path fill-rule="evenodd" d="M9 0L9 1L8 1L8 2L9 2L9 3L8 3L8 4L9 4L9 5L8 5L8 7L9 7L9 6L10 6L10 7L11 7L11 8L6 8L6 9L8 9L8 10L6 10L6 11L4 11L4 10L5 10L5 8L0 8L0 9L1 9L1 12L0 12L0 15L1 15L1 16L2 16L2 13L3 13L3 15L7 15L7 16L5 16L5 17L1 17L1 18L0 18L0 19L1 19L1 21L0 21L0 23L2 23L2 22L1 22L1 21L3 21L3 23L7 23L7 22L4 22L4 21L8 21L8 22L9 22L9 23L10 23L10 24L8 24L8 25L7 25L7 24L5 24L5 25L7 25L7 26L4 26L4 28L3 28L3 27L1 27L1 28L2 28L2 33L0 33L0 34L2 34L2 35L0 35L0 37L1 37L1 39L2 39L2 36L4 36L4 35L5 35L5 36L6 36L6 37L8 37L8 38L5 38L5 39L3 39L3 41L1 41L1 40L0 40L0 41L1 41L1 42L0 42L0 44L1 44L1 45L0 45L0 48L3 48L3 47L2 47L2 44L3 44L3 45L4 45L4 44L3 44L3 43L2 43L2 42L3 42L3 41L4 41L4 40L5 40L5 39L7 39L7 40L6 40L6 41L8 41L8 42L9 42L9 43L8 43L8 44L6 44L6 45L7 45L7 46L6 46L6 47L7 47L7 46L8 46L8 48L5 48L5 47L4 47L4 49L7 49L7 50L6 50L6 51L7 51L7 52L5 52L5 50L3 50L3 49L1 49L1 50L0 50L0 52L1 52L1 50L2 50L2 51L4 51L4 53L8 53L8 54L5 54L5 55L7 55L7 56L6 56L6 57L7 57L7 56L8 56L8 59L10 59L10 60L8 60L8 65L9 65L9 64L10 64L10 65L13 65L13 64L14 64L14 65L15 65L15 64L14 64L14 63L11 63L11 62L13 62L13 61L14 61L14 60L15 60L15 62L16 62L16 60L17 60L17 62L18 62L18 63L16 63L16 64L17 64L17 65L19 65L19 64L20 64L20 63L19 63L19 62L20 62L20 60L19 60L19 59L20 59L20 57L19 57L19 55L21 55L21 54L22 54L22 56L23 56L23 55L24 55L24 56L25 56L25 57L23 57L23 58L21 58L21 59L22 59L22 60L23 60L23 58L24 58L24 59L25 59L25 57L26 57L26 58L27 58L27 57L28 57L28 56L27 56L27 55L28 55L28 54L27 54L27 53L29 53L29 52L30 52L30 50L29 50L29 51L28 51L28 49L30 49L30 48L31 48L31 50L32 50L32 52L33 52L33 54L32 54L32 53L30 53L30 54L29 54L29 55L30 55L30 57L29 57L29 58L28 58L28 60L27 60L27 59L26 59L26 60L25 60L25 61L23 61L23 63L22 63L22 61L21 61L21 63L22 63L22 64L25 64L25 65L26 65L26 63L24 63L24 62L25 62L25 61L26 61L26 62L27 62L27 61L29 61L29 64L27 64L27 65L31 65L31 64L32 64L32 65L33 65L33 64L32 64L32 62L33 62L33 61L35 61L35 62L34 62L34 63L35 63L35 65L37 65L37 64L38 64L38 65L39 65L39 63L40 63L40 62L41 62L41 63L42 63L42 62L43 62L43 63L44 63L44 62L45 62L45 64L48 64L48 65L51 65L51 63L50 63L50 60L48 60L48 59L47 59L47 58L46 58L46 57L48 57L48 58L50 58L50 59L51 59L51 60L52 60L52 59L51 59L51 58L50 58L50 57L49 57L49 56L50 56L50 52L53 52L53 51L52 51L52 50L55 50L55 51L54 51L54 52L56 52L56 53L58 53L58 52L59 52L59 55L57 55L57 56L56 56L56 54L55 54L55 53L53 53L53 54L54 54L54 55L52 55L52 54L51 54L51 55L52 55L52 56L56 56L56 57L53 57L53 58L54 58L54 59L55 59L55 60L53 60L53 61L51 61L51 62L52 62L52 64L54 64L54 63L53 63L53 62L55 62L55 65L58 65L58 64L57 64L57 63L59 63L59 65L61 65L61 64L62 64L62 65L63 65L63 64L64 64L64 61L63 61L63 60L62 60L62 57L63 57L63 56L65 56L65 55L63 55L63 56L62 56L62 53L63 53L63 54L65 54L65 53L63 53L63 52L65 52L65 51L63 51L63 52L62 52L62 50L63 50L63 49L64 49L64 48L63 48L63 49L62 49L62 50L61 50L61 48L62 48L62 47L63 47L63 46L65 46L65 45L64 45L64 43L63 43L63 42L62 42L62 39L61 39L61 38L62 38L62 37L64 37L64 38L65 38L65 37L64 37L64 35L63 35L63 34L61 34L61 32L62 32L62 33L63 33L63 32L64 32L64 34L65 34L65 32L64 32L64 31L63 31L63 32L62 32L62 30L60 30L60 29L61 29L61 28L62 28L62 27L63 27L63 28L64 28L64 27L63 27L63 25L65 25L65 24L64 24L64 23L63 23L63 25L62 25L62 23L61 23L61 21L62 21L62 22L65 22L65 19L64 19L64 18L65 18L65 15L64 15L64 14L65 14L65 13L64 13L64 12L65 12L65 11L63 11L63 10L65 10L65 9L64 9L64 8L63 8L63 9L62 9L62 8L61 8L61 10L59 10L59 13L60 13L60 14L58 14L58 15L57 15L57 16L56 16L56 17L52 17L52 18L50 18L50 21L49 21L49 20L46 20L46 21L44 21L44 23L42 23L42 22L43 22L43 20L45 20L45 19L44 19L44 18L46 18L46 19L47 19L47 18L49 18L49 16L55 16L55 15L56 15L56 14L55 14L55 13L58 13L58 12L56 12L56 11L57 11L57 10L56 10L56 9L58 9L58 8L54 8L54 9L53 9L53 10L54 10L54 13L53 13L53 14L52 14L52 12L53 12L53 11L52 11L52 12L50 12L50 13L49 13L49 12L47 12L47 10L48 10L48 9L49 9L49 8L47 8L47 6L46 6L46 7L45 7L45 6L44 6L44 5L45 5L45 4L44 4L44 3L43 3L43 4L41 4L41 6L40 6L40 4L39 4L39 6L38 6L38 7L39 7L39 6L40 6L40 7L41 7L41 6L42 6L42 8L41 8L41 10L40 10L40 9L39 9L39 8L38 8L38 9L37 9L37 8L36 8L36 7L37 7L37 5L38 5L38 3L41 3L41 2L43 2L43 1L44 1L44 2L50 2L50 0L49 0L49 1L45 1L45 0L41 0L41 1L40 1L40 2L38 2L38 3L37 3L37 2L36 2L36 0L35 0L35 2L36 2L36 3L35 3L35 4L34 4L34 3L33 3L33 1L32 1L32 3L31 3L31 0L29 0L29 1L30 1L30 2L29 2L29 3L31 3L31 4L30 4L30 5L27 5L27 4L28 4L28 3L27 3L27 0L26 0L26 3L23 3L23 5L22 5L22 4L21 4L21 3L20 3L20 4L19 4L19 1L20 1L20 2L22 2L22 0L21 0L21 1L20 1L20 0L19 0L19 1L18 1L18 0L17 0L17 1L18 1L18 2L17 2L17 3L18 3L18 4L16 4L16 3L15 3L15 4L13 4L13 3L14 3L14 2L16 2L16 1L14 1L14 2L12 2L12 0ZM23 0L23 1L24 1L24 2L25 2L25 0ZM37 0L37 1L38 1L38 0ZM52 0L52 2L51 2L51 3L52 3L52 2L53 2L53 1L54 1L54 0ZM55 0L55 1L56 1L56 3L55 3L55 2L54 2L54 3L53 3L53 4L51 4L51 5L50 5L50 4L49 4L49 3L47 3L47 4L48 4L48 5L50 5L50 7L51 7L51 8L50 8L50 9L51 9L51 8L52 8L52 7L53 7L53 6L52 6L52 7L51 7L51 5L53 5L53 4L56 4L56 5L57 5L57 4L56 4L56 3L57 3L57 1L56 1L56 0ZM10 1L10 2L11 2L11 4L10 4L10 6L11 6L11 7L12 7L12 8L11 8L11 9L10 9L10 10L13 10L13 9L14 9L14 10L17 10L17 12L16 12L16 13L18 13L18 14L15 14L15 13L14 13L14 14L13 14L13 13L9 13L9 12L11 12L11 11L9 11L9 10L8 10L8 11L6 11L6 12L4 12L4 14L7 14L7 13L8 13L8 14L9 14L9 15L8 15L8 16L9 16L9 17L8 17L8 19L5 19L5 20L9 20L9 19L10 19L10 22L11 22L11 20L12 20L12 19L11 19L11 18L13 18L13 17L10 17L10 16L11 16L11 15L12 15L12 14L13 14L13 16L14 16L14 15L15 15L15 17L14 17L14 18L16 18L16 16L17 16L17 15L18 15L18 14L19 14L19 13L18 13L18 11L19 11L19 12L20 12L20 14L21 14L21 15L19 15L19 16L21 16L21 17L17 17L17 18L18 18L18 19L19 19L19 21L18 21L18 20L16 20L16 19L13 19L13 21L12 21L12 22L14 22L14 24L13 24L13 23L12 23L12 24L10 24L10 25L8 25L8 26L7 26L7 27L6 27L6 28L7 28L7 27L9 27L9 26L10 26L10 25L11 25L11 27L10 27L10 28L11 28L11 29L10 29L10 30L11 30L11 31L12 31L12 32L10 32L10 33L9 33L9 34L10 34L10 35L9 35L9 39L8 39L8 40L10 40L10 41L9 41L9 42L10 42L10 41L11 41L11 43L13 43L13 44L16 44L16 45L13 45L13 46L12 46L12 45L10 45L10 47L11 47L11 46L12 46L12 48L13 48L13 51L11 51L11 49L10 49L10 51L9 51L9 50L8 50L8 53L9 53L9 54L10 54L10 55L12 55L12 57L10 57L10 56L9 56L9 55L8 55L8 56L9 56L9 57L10 57L10 59L13 59L13 60L14 60L14 58L13 58L13 55L14 55L14 57L16 57L16 58L15 58L15 60L16 60L16 58L17 58L17 60L18 60L18 59L19 59L19 57L16 57L16 56L15 56L15 54L17 54L17 55L19 55L19 53L18 53L18 54L17 54L17 52L20 52L20 51L18 51L18 50L17 50L17 48L16 48L16 47L15 47L15 46L16 46L16 45L18 45L18 47L19 47L19 48L20 48L20 47L21 47L21 49L19 49L19 50L21 50L21 51L22 51L22 52L21 52L21 53L20 53L20 54L21 54L21 53L23 53L23 54L24 54L24 55L25 55L25 54L26 54L26 55L27 55L27 54L26 54L26 53L27 53L27 52L28 52L28 51L26 51L26 50L27 50L27 49L28 49L28 48L30 48L30 47L31 47L31 48L33 48L33 49L32 49L32 50L33 50L33 52L34 52L34 51L35 51L35 52L36 52L36 51L38 51L38 52L37 52L37 53L36 53L36 54L39 54L39 53L40 53L40 54L41 54L41 55L40 55L40 56L39 56L39 55L36 55L36 56L37 56L37 57L38 57L38 58L40 58L40 57L43 57L43 58L44 58L44 59L45 59L45 60L43 60L43 62L44 62L44 61L45 61L45 62L47 62L47 63L48 63L48 64L50 64L50 63L48 63L48 62L47 62L47 61L48 61L48 60L47 60L47 59L46 59L46 58L45 58L45 57L46 57L46 54L47 54L47 55L49 55L49 54L47 54L47 52L48 52L48 51L49 51L49 52L50 52L50 51L51 51L51 50L52 50L52 49L54 49L54 47L55 47L55 46L54 46L54 47L53 47L53 41L56 41L56 42L54 42L54 43L55 43L55 45L56 45L56 47L58 47L58 49L60 49L60 48L61 48L61 47L62 47L62 45L63 45L63 43L62 43L62 42L57 42L57 41L61 41L61 40L60 40L60 38L57 38L57 36L58 36L58 37L62 37L62 36L63 36L63 35L62 35L62 36L61 36L61 35L60 35L60 36L58 36L58 35L57 35L57 36L55 36L55 35L56 35L56 32L55 32L55 34L54 34L54 35L53 35L53 33L54 33L54 32L52 32L52 31L53 31L53 28L54 28L54 27L55 27L55 29L56 29L56 30L54 30L54 31L56 31L56 30L59 30L59 28L60 28L60 26L61 26L61 27L62 27L62 25L59 25L59 24L60 24L60 22L59 22L59 20L58 20L58 21L56 21L56 20L55 20L55 23L52 23L52 24L51 24L51 21L50 21L50 22L49 22L49 21L48 21L48 22L49 22L49 23L47 23L47 24L46 24L46 25L45 25L45 24L42 24L42 23L41 23L41 24L39 24L39 23L40 23L40 21L41 21L41 20L40 20L40 19L39 19L39 17L43 17L43 18L41 18L41 19L43 19L43 18L44 18L44 17L46 17L46 18L47 18L47 15L48 15L48 16L49 16L49 15L50 15L50 14L51 14L51 13L50 13L50 14L48 14L48 13L47 13L47 12L44 12L44 11L46 11L46 10L47 10L47 8L46 8L46 9L45 9L45 8L43 8L43 10L41 10L41 11L39 11L39 9L38 9L38 12L37 12L37 10L36 10L36 9L32 9L32 10L31 10L31 11L33 11L33 12L29 12L29 11L30 11L30 10L29 10L29 9L30 9L30 8L29 8L29 7L30 7L30 6L29 6L29 7L28 7L28 6L27 6L27 5L26 5L26 4L27 4L27 3L26 3L26 4L25 4L25 5L26 5L26 6L25 6L25 7L24 7L24 6L23 6L23 8L20 8L20 5L21 5L21 4L20 4L20 5L19 5L19 4L18 4L18 5L15 5L15 9L14 9L14 8L13 8L13 7L14 7L14 6L13 6L13 7L12 7L12 6L11 6L11 4L12 4L12 2L11 2L11 1ZM32 3L32 4L33 4L33 3ZM36 4L36 5L35 5L35 7L36 7L36 5L37 5L37 4ZM43 4L43 5L44 5L44 4ZM31 5L31 8L34 8L34 5ZM54 5L54 7L55 7L55 5ZM16 6L16 7L17 7L17 8L18 8L18 9L17 9L17 10L18 10L18 9L19 9L19 11L21 11L21 12L23 12L23 13L21 13L21 14L23 14L23 13L24 13L24 14L25 14L25 13L26 13L26 14L27 14L27 15L28 15L28 14L27 14L27 13L26 13L26 12L27 12L27 10L26 10L26 7L27 7L27 6L26 6L26 7L25 7L25 8L24 8L24 9L23 9L23 10L22 10L22 9L21 9L21 10L20 10L20 8L19 8L19 6L18 6L18 7L17 7L17 6ZM21 6L21 7L22 7L22 6ZM32 6L32 7L33 7L33 6ZM43 6L43 7L44 7L44 6ZM48 6L48 7L49 7L49 6ZM56 6L56 7L57 7L57 6ZM28 8L28 9L29 9L29 8ZM59 8L59 9L60 9L60 8ZM44 9L44 10L43 10L43 11L44 11L44 10L45 10L45 9ZM2 10L2 11L3 11L3 10ZM23 10L23 11L25 11L25 10ZM33 10L33 11L35 11L35 13L37 13L37 12L36 12L36 11L35 11L35 10ZM49 10L49 11L51 11L51 10ZM41 11L41 12L42 12L42 11ZM62 11L62 12L61 12L61 13L62 13L62 14L61 14L61 15L62 15L62 16L61 16L61 19L60 19L60 20L61 20L61 19L62 19L62 20L63 20L63 19L62 19L62 18L64 18L64 17L63 17L63 16L64 16L64 15L62 15L62 14L63 14L63 13L62 13L62 12L63 12L63 11ZM6 12L6 13L7 13L7 12ZM24 12L24 13L25 13L25 12ZM28 12L28 13L29 13L29 12ZM38 12L38 13L39 13L39 12ZM43 12L43 13L41 13L41 14L33 14L33 13L31 13L31 15L29 15L29 17L30 17L30 18L29 18L29 20L31 20L31 22L33 22L33 23L29 23L29 22L27 22L27 23L29 23L29 24L28 24L28 25L31 25L31 26L30 26L30 27L29 27L29 26L27 26L27 27L26 27L26 24L25 24L25 25L24 25L24 22L25 22L25 23L26 23L26 20L28 20L28 19L27 19L27 18L25 18L25 17L26 17L26 15L25 15L25 17L24 17L24 15L23 15L23 17L22 17L22 18L21 18L21 19L22 19L22 20L23 20L23 21L22 21L22 24L23 24L23 25L24 25L24 26L23 26L23 27L22 27L22 26L20 26L20 21L21 21L21 20L20 20L20 21L19 21L19 23L18 23L18 24L17 24L17 22L18 22L18 21L16 21L16 20L14 20L14 22L15 22L15 23L16 23L16 24L15 24L15 25L16 25L16 24L17 24L17 25L18 25L18 26L17 26L17 27L16 27L16 28L17 28L17 31L18 31L18 32L17 32L17 33L19 33L19 34L20 34L20 33L19 33L19 32L20 32L20 31L22 31L22 32L23 32L23 33L21 33L21 34L24 34L24 35L25 35L25 33L26 33L26 32L25 32L25 31L24 31L24 32L23 32L23 31L22 31L22 29L21 29L21 28L20 28L20 27L22 27L22 28L23 28L23 27L25 27L25 28L24 28L24 29L23 29L23 30L25 30L25 29L26 29L26 28L28 28L28 29L29 29L29 28L31 28L31 29L32 29L32 27L34 27L34 26L32 26L32 24L33 24L33 25L36 25L36 27L35 27L35 28L33 28L33 29L35 29L35 30L30 30L30 33L29 33L29 34L26 34L26 36L24 36L24 37L21 37L21 36L22 36L22 35L20 35L20 36L19 36L19 35L18 35L18 34L17 34L17 36L16 36L16 37L17 37L17 36L18 36L18 37L21 37L21 38L22 38L22 39L21 39L21 42L23 42L23 43L24 43L24 44L23 44L23 45L22 45L22 44L20 44L20 43L19 43L19 42L20 42L20 41L19 41L19 40L20 40L20 39L18 39L18 38L16 38L16 39L18 39L18 40L17 40L17 43L18 43L18 45L21 45L21 47L22 47L22 48L24 48L24 49L21 49L21 50L25 50L25 49L26 49L26 48L27 48L27 47L26 47L26 48L25 48L25 47L24 47L24 46L28 46L28 45L29 45L29 42L28 42L28 43L27 43L27 41L24 41L24 40L26 40L26 39L29 39L29 38L28 38L28 37L30 37L30 35L31 35L31 36L32 36L32 35L34 35L34 36L36 36L36 37L35 37L35 39L34 39L34 37L33 37L33 38L32 38L32 37L31 37L31 38L32 38L32 39L31 39L31 40L30 40L30 41L31 41L31 42L32 42L32 41L31 41L31 40L32 40L32 39L34 39L34 40L33 40L33 41L34 41L34 42L35 42L35 40L36 40L36 42L37 42L37 43L36 43L36 44L34 44L34 43L32 43L32 45L31 45L31 46L32 46L32 45L35 45L35 46L36 46L36 47L33 47L33 48L35 48L35 49L33 49L33 50L35 50L35 49L37 49L37 50L38 50L38 49L40 49L40 48L41 48L41 47L42 47L42 48L43 48L43 49L41 49L41 50L44 50L44 48L46 48L46 49L47 49L47 50L50 50L50 49L49 49L49 48L50 48L50 47L51 47L51 46L50 46L50 44L48 44L48 42L49 42L49 43L51 43L51 44L52 44L52 41L51 41L51 42L50 42L50 40L51 40L51 38L50 38L50 37L51 37L51 36L53 36L53 35L52 35L52 34L50 34L50 33L51 33L51 31L50 31L50 29L49 29L49 28L47 28L47 27L48 27L48 25L49 25L49 26L50 26L50 28L52 28L52 26L53 26L53 27L54 27L54 26L56 26L56 25L57 25L57 24L59 24L59 23L58 23L58 22L56 22L56 25L55 25L55 24L54 24L54 25L51 25L51 26L50 26L50 24L48 24L48 25L47 25L47 26L46 26L46 28L45 28L45 29L44 29L44 27L43 27L43 29L39 29L39 28L41 28L41 26L43 26L43 25L39 25L39 26L37 26L37 24L38 24L38 23L39 23L39 22L37 22L37 21L38 21L38 20L39 20L39 21L40 21L40 20L39 20L39 19L38 19L38 17L37 17L37 15L38 15L38 16L41 16L41 14L42 14L42 16L43 16L43 13L44 13L44 14L45 14L45 15L44 15L44 16L46 16L46 15L47 15L47 14L45 14L45 13L44 13L44 12ZM32 14L32 15L33 15L33 16L31 16L31 20L32 20L32 21L33 21L33 20L32 20L32 18L33 18L33 19L34 19L34 20L35 20L35 18L36 18L36 20L37 20L37 18L36 18L36 17L35 17L35 16L36 16L36 15L35 15L35 16L34 16L34 15L33 15L33 14ZM9 15L9 16L10 16L10 15ZM58 15L58 16L57 16L57 17L56 17L56 18L55 18L55 19L59 19L59 16L60 16L60 15ZM27 16L27 17L28 17L28 16ZM6 17L6 18L7 18L7 17ZM9 17L9 18L10 18L10 17ZM23 17L23 18L22 18L22 19L23 19L23 20L24 20L24 21L25 21L25 20L24 20L24 19L23 19L23 18L24 18L24 17ZM1 18L1 19L2 19L2 20L3 20L3 19L4 19L4 18ZM19 18L19 19L20 19L20 18ZM52 18L52 19L51 19L51 20L52 20L52 22L53 22L53 21L54 21L54 20L52 20L52 19L54 19L54 18ZM15 21L15 22L16 22L16 21ZM34 21L34 22L35 22L35 23L33 23L33 24L36 24L36 21ZM46 21L46 22L47 22L47 21ZM1 24L1 26L2 26L2 24ZM3 24L3 25L4 25L4 24ZM12 24L12 26L14 26L14 25L13 25L13 24ZM44 25L44 26L45 26L45 25ZM31 26L31 27L32 27L32 26ZM57 26L57 27L56 27L56 28L57 28L57 27L58 27L58 26ZM12 27L12 31L13 31L13 32L14 32L14 34L15 34L15 35L16 35L16 34L15 34L15 33L16 33L16 31L15 31L15 30L16 30L16 29L14 29L14 28L15 28L15 27L14 27L14 28L13 28L13 27ZM17 27L17 28L19 28L19 29L18 29L18 30L19 30L19 31L20 31L20 30L21 30L21 29L20 29L20 28L19 28L19 27ZM36 27L36 28L39 28L39 27ZM8 28L8 29L9 29L9 28ZM46 28L46 29L45 29L45 30L44 30L44 31L43 31L43 32L42 32L42 33L43 33L43 36L44 36L44 37L45 37L45 38L44 38L44 39L43 39L43 38L39 38L39 37L41 37L41 36L42 36L42 35L41 35L41 32L40 32L40 30L39 30L39 29L38 29L38 30L37 30L37 29L36 29L36 30L35 30L35 32L36 32L36 30L37 30L37 33L38 33L38 34L39 34L39 35L36 35L36 36L37 36L37 37L36 37L36 40L37 40L37 41L38 41L38 42L39 42L39 43L41 43L41 44L39 44L39 45L38 45L38 43L37 43L37 45L38 45L38 47L37 47L37 49L38 49L38 47L39 47L39 48L40 48L40 47L39 47L39 45L42 45L42 43L43 43L43 44L44 44L44 46L43 46L43 47L44 47L44 46L46 46L46 48L47 48L47 49L48 49L48 48L49 48L49 46L47 46L47 42L48 42L48 40L49 40L49 39L50 39L50 38L48 38L48 37L46 37L46 36L45 36L45 35L47 35L47 34L48 34L48 32L49 32L49 31L48 31L48 29L47 29L47 28ZM5 29L5 30L7 30L7 29ZM13 29L13 31L14 31L14 29ZM19 29L19 30L20 30L20 29ZM51 29L51 30L52 30L52 29ZM64 29L64 30L65 30L65 29ZM3 30L3 33L4 33L4 30ZM26 30L26 31L27 31L27 32L29 32L29 31L28 31L28 30ZM45 30L45 31L47 31L47 32L45 32L45 33L44 33L44 32L43 32L43 33L44 33L44 34L45 34L45 33L47 33L47 32L48 32L48 31L47 31L47 30ZM5 31L5 34L8 34L8 31ZM31 31L31 34L34 34L34 31ZM38 31L38 32L39 32L39 31ZM57 31L57 34L60 34L60 31ZM6 32L6 33L7 33L7 32ZM24 32L24 33L25 33L25 32ZM32 32L32 33L33 33L33 32ZM58 32L58 33L59 33L59 32ZM11 33L11 34L12 34L12 33ZM35 33L35 34L36 34L36 33ZM39 33L39 34L40 34L40 33ZM29 34L29 35L28 35L28 36L26 36L26 38L25 38L25 39L26 39L26 38L27 38L27 37L28 37L28 36L29 36L29 35L30 35L30 34ZM6 35L6 36L8 36L8 35ZM10 35L10 36L11 36L11 35ZM13 35L13 36L12 36L12 38L10 38L10 39L13 39L13 40L12 40L12 41L13 41L13 42L14 42L14 41L16 41L16 40L15 40L15 39L14 39L14 38L15 38L15 37L14 37L14 38L13 38L13 36L14 36L14 35ZM39 35L39 36L41 36L41 35ZM48 35L48 36L51 36L51 35ZM54 36L54 37L53 37L53 39L52 39L52 40L53 40L53 39L54 39L54 40L56 40L56 39L57 39L57 40L58 40L58 39L57 39L57 38L56 38L56 39L55 39L55 36ZM37 37L37 38L38 38L38 39L39 39L39 40L38 40L38 41L39 41L39 42L40 42L40 41L39 41L39 40L40 40L40 39L39 39L39 38L38 38L38 37ZM22 39L22 41L23 41L23 42L24 42L24 41L23 41L23 40L24 40L24 39ZM44 39L44 40L43 40L43 41L42 41L42 40L41 40L41 41L42 41L42 42L41 42L41 43L42 43L42 42L43 42L43 41L44 41L44 44L46 44L46 42L45 42L45 41L46 41L46 39ZM63 39L63 41L65 41L65 40L64 40L64 39ZM28 40L28 41L29 41L29 40ZM44 40L44 41L45 41L45 40ZM18 41L18 42L19 42L19 41ZM5 42L5 43L7 43L7 42ZM1 43L1 44L2 44L2 43ZM9 43L9 44L8 44L8 46L9 46L9 44L10 44L10 43ZM26 43L26 45L28 45L28 44L27 44L27 43ZM56 43L56 44L57 44L57 45L58 45L58 46L59 46L59 48L60 48L60 46L61 46L61 45L62 45L62 43L61 43L61 44L60 44L60 43L59 43L59 44L60 44L60 45L58 45L58 44L57 44L57 43ZM24 44L24 45L23 45L23 46L22 46L22 47L23 47L23 46L24 46L24 45L25 45L25 44ZM19 46L19 47L20 47L20 46ZM29 46L29 47L30 47L30 46ZM13 47L13 48L14 48L14 49L15 49L15 47ZM47 47L47 48L48 48L48 47ZM52 47L52 48L51 48L51 49L52 49L52 48L53 48L53 47ZM55 48L55 49L57 49L57 48ZM14 50L14 51L13 51L13 52L12 52L12 53L10 53L10 54L12 54L12 55L13 55L13 54L12 54L12 53L14 53L14 54L15 54L15 52L16 52L16 50ZM39 50L39 51L40 51L40 52L41 52L41 54L43 54L43 55L41 55L41 56L43 56L43 57L44 57L44 51L43 51L43 53L42 53L42 52L41 52L41 51L40 51L40 50ZM45 50L45 52L46 52L46 50ZM57 50L57 51L59 51L59 50ZM60 50L60 51L61 51L61 50ZM10 51L10 52L11 52L11 51ZM23 51L23 53L24 53L24 54L25 54L25 53L26 53L26 51L25 51L25 53L24 53L24 51ZM2 52L2 53L0 53L0 54L2 54L2 55L3 55L3 56L1 56L1 55L0 55L0 56L1 56L1 57L3 57L3 56L4 56L4 57L5 57L5 56L4 56L4 54L2 54L2 53L3 53L3 52ZM38 52L38 53L39 53L39 52ZM60 52L60 53L62 53L62 52ZM34 53L34 54L33 54L33 55L31 55L31 56L34 56L34 55L35 55L35 53ZM60 55L60 56L61 56L61 57L62 57L62 56L61 56L61 55ZM26 56L26 57L27 57L27 56ZM38 56L38 57L39 57L39 56ZM31 57L31 60L34 60L34 57ZM57 57L57 60L60 60L60 57ZM64 57L64 58L63 58L63 59L64 59L64 60L65 60L65 59L64 59L64 58L65 58L65 57ZM29 58L29 61L30 61L30 62L32 62L32 61L30 61L30 58ZM32 58L32 59L33 59L33 58ZM35 58L35 59L36 59L36 60L37 60L37 61L36 61L36 62L35 62L35 63L36 63L36 64L37 64L37 63L36 63L36 62L40 62L40 61L42 61L42 60L41 60L41 59L42 59L42 58L41 58L41 59L36 59L36 58ZM55 58L55 59L56 59L56 58ZM58 58L58 59L59 59L59 58ZM10 60L10 61L9 61L9 62L11 62L11 60ZM26 60L26 61L27 61L27 60ZM38 60L38 61L39 61L39 60ZM45 60L45 61L47 61L47 60ZM55 60L55 62L56 62L56 63L57 63L57 61L56 61L56 60ZM61 60L61 61L58 61L58 62L61 62L61 61L62 61L62 60ZM18 63L18 64L19 64L19 63ZM60 63L60 64L61 64L61 63ZM62 63L62 64L63 64L63 63ZM41 64L41 65L42 65L42 64ZM43 64L43 65L44 65L44 64ZM0 0L0 7L7 7L7 0ZM1 1L1 6L6 6L6 1ZM2 2L2 5L5 5L5 2ZM58 0L58 7L65 7L65 0ZM59 1L59 6L64 6L64 1ZM60 2L60 5L63 5L63 2ZM0 58L0 65L7 65L7 58ZM1 59L1 64L6 64L6 59ZM2 60L2 63L5 63L5 60Z" fill="#000000"/></g></g></svg>
