<?xml version="1.0" encoding="UTF-8"?>
<svg xmlns="http://www.w3.org/2000/svg" version="1.1" width="100" height="100" viewBox="0 0 100 100"><rect x="0" y="0" width="100" height="100" fill="#ffffff"/><g transform="scale(1.538)"><g transform="translate(0,0)"><path fill-rule="evenodd" d="M9 0L9 1L8 1L8 3L9 3L9 4L8 4L8 8L6 8L6 9L4 9L4 8L3 8L3 9L4 9L4 10L3 10L3 11L2 11L2 10L1 10L1 9L2 9L2 8L0 8L0 12L3 12L3 13L5 13L5 14L6 14L6 15L3 15L3 14L2 14L2 15L3 15L3 16L1 16L1 13L0 13L0 16L1 16L1 17L0 17L0 24L1 24L1 26L2 26L2 25L3 25L3 26L4 26L4 27L2 27L2 28L3 28L3 29L2 29L2 31L0 31L0 32L2 32L2 33L1 33L1 35L0 35L0 38L1 38L1 39L2 39L2 40L0 40L0 42L1 42L1 41L3 41L3 40L4 40L4 42L3 42L3 43L1 43L1 44L0 44L0 45L1 45L1 46L0 46L0 47L1 47L1 48L0 48L0 49L2 49L2 50L0 50L0 54L1 54L1 52L2 52L2 55L3 55L3 56L1 56L1 55L0 55L0 56L1 56L1 57L3 57L3 56L4 56L4 57L5 57L5 56L4 56L4 54L3 54L3 53L4 53L4 52L3 52L3 51L5 51L5 53L7 53L7 54L5 54L5 55L7 55L7 56L6 56L6 57L8 57L8 59L9 59L9 57L10 57L10 58L11 58L11 57L12 57L12 59L15 59L15 60L14 60L14 61L11 61L11 62L10 62L10 61L8 61L8 62L9 62L9 63L8 63L8 65L9 65L9 64L10 64L10 63L12 63L12 62L15 62L15 63L13 63L13 64L11 64L11 65L13 65L13 64L14 64L14 65L15 65L15 64L16 64L16 65L22 65L22 64L23 64L23 63L25 63L25 62L23 62L23 63L21 63L21 64L19 64L19 63L17 63L17 61L18 61L18 62L20 62L20 60L21 60L21 62L22 62L22 61L24 61L24 60L23 60L23 59L25 59L25 61L27 61L27 60L28 60L28 62L26 62L26 63L27 63L27 64L26 64L26 65L27 65L27 64L28 64L28 65L32 65L32 62L31 62L31 61L33 61L33 62L34 62L34 63L33 63L33 65L38 65L38 64L37 64L37 62L38 62L38 61L43 61L43 62L44 62L44 61L45 61L45 64L44 64L44 65L46 65L46 62L47 62L47 63L48 63L48 65L50 65L50 61L51 61L51 58L49 58L49 60L47 60L47 61L46 61L46 59L48 59L48 58L45 58L45 57L44 57L44 56L43 56L43 57L44 57L44 58L43 58L43 59L42 59L42 60L41 60L41 58L39 58L39 59L38 59L38 58L37 58L37 57L42 57L42 55L46 55L46 56L48 56L48 57L50 57L50 56L48 56L48 55L50 55L50 54L53 54L53 55L51 55L51 57L55 57L55 56L56 56L56 58L52 58L52 61L53 61L53 60L54 60L54 59L56 59L56 62L57 62L57 63L56 63L56 64L55 64L55 62L51 62L51 63L52 63L52 64L51 64L51 65L52 65L52 64L53 64L53 65L54 65L54 64L55 64L55 65L56 65L56 64L57 64L57 65L58 65L58 64L57 64L57 63L58 63L58 62L57 62L57 61L59 61L59 62L60 62L60 64L59 64L59 65L64 65L64 63L65 63L65 59L64 59L64 61L63 61L63 62L61 62L61 61L62 61L62 60L63 60L63 59L62 59L62 58L61 58L61 56L62 56L62 57L64 57L64 58L65 58L65 54L64 54L64 53L62 53L62 52L59 52L59 50L58 50L58 49L59 49L59 48L60 48L60 47L62 47L62 50L61 50L61 51L62 51L62 50L63 50L63 47L64 47L64 46L65 46L65 44L64 44L64 43L65 43L65 40L63 40L63 41L62 41L62 40L61 40L61 41L62 41L62 43L60 43L60 44L59 44L59 45L60 45L60 44L62 44L62 45L61 45L61 46L59 46L59 47L57 47L57 46L56 46L56 47L55 47L55 48L56 48L56 49L57 49L57 51L56 51L56 50L53 50L53 49L54 49L54 46L53 46L53 48L51 48L51 50L49 50L49 49L50 49L50 47L49 47L49 46L50 46L50 43L52 43L52 44L51 44L51 45L53 45L53 44L54 44L54 45L55 45L55 44L56 44L56 45L58 45L58 43L59 43L59 42L60 42L60 41L58 41L58 39L59 39L59 40L60 40L60 39L61 39L61 38L60 38L60 39L59 39L59 36L60 36L60 37L61 37L61 36L60 36L60 35L61 35L61 34L62 34L62 33L63 33L63 35L62 35L62 36L63 36L63 37L64 37L64 38L63 38L63 39L65 39L65 35L64 35L64 33L63 33L63 32L64 32L64 31L65 31L65 29L64 29L64 27L65 27L65 26L64 26L64 25L65 25L65 23L64 23L64 21L65 21L65 14L64 14L64 13L63 13L63 11L64 11L64 12L65 12L65 11L64 11L64 10L65 10L65 9L64 9L64 8L62 8L62 9L61 9L61 8L58 8L58 9L60 9L60 10L58 10L58 11L61 11L61 10L62 10L62 9L63 9L63 11L62 11L62 14L64 14L64 20L62 20L62 19L61 19L61 18L63 18L63 17L62 17L62 15L60 15L60 16L56 16L56 15L58 15L58 14L59 14L59 13L60 13L60 14L61 14L61 12L58 12L58 14L56 14L56 13L55 13L55 14L54 14L54 15L49 15L49 16L48 16L48 14L47 14L47 13L49 13L49 14L50 14L50 13L49 13L49 12L50 12L50 11L52 11L52 14L53 14L53 13L54 13L54 12L57 12L57 10L56 10L56 11L55 11L55 10L53 10L53 11L52 11L52 10L50 10L50 11L48 11L48 12L47 12L47 11L46 11L46 10L45 10L45 9L44 9L44 11L45 11L45 12L43 12L43 11L42 11L42 12L43 12L43 14L40 14L40 13L41 13L41 8L42 8L42 9L43 9L43 8L45 8L45 6L44 6L44 5L46 5L46 7L47 7L47 8L46 8L46 9L47 9L47 8L48 8L48 10L49 10L49 8L48 8L48 7L49 7L49 6L50 6L50 8L51 8L51 9L53 9L53 8L54 8L54 9L55 9L55 5L54 5L54 4L56 4L56 5L57 5L57 4L56 4L56 3L57 3L57 1L56 1L56 0L55 0L55 1L56 1L56 3L55 3L55 2L54 2L54 0L53 0L53 5L52 5L52 7L51 7L51 6L50 6L50 5L51 5L51 4L50 4L50 3L49 3L49 4L50 4L50 5L48 5L48 7L47 7L47 5L46 5L46 3L47 3L47 2L48 2L48 1L50 1L50 2L52 2L52 1L51 1L51 0L46 0L46 1L47 1L47 2L45 2L45 4L44 4L44 5L43 5L43 4L42 4L42 2L41 2L41 1L43 1L43 3L44 3L44 1L43 1L43 0L37 0L37 1L36 1L36 0L33 0L33 2L32 2L32 3L33 3L33 2L34 2L34 3L36 3L36 2L38 2L38 3L37 3L37 6L36 6L36 7L35 7L35 4L31 4L31 3L30 3L30 2L31 2L31 0L28 0L28 2L27 2L27 4L26 4L26 5L27 5L27 6L26 6L26 7L27 7L27 8L28 8L28 9L29 9L29 12L28 12L28 11L25 11L25 13L26 13L26 14L25 14L25 15L24 15L24 12L23 12L23 11L24 11L24 10L23 10L23 11L22 11L22 13L23 13L23 14L21 14L21 15L20 15L20 14L19 14L19 15L20 15L20 16L21 16L21 17L20 17L20 18L19 18L19 16L18 16L18 13L20 13L20 12L21 12L21 10L22 10L22 9L23 9L23 6L22 6L22 7L21 7L21 6L20 6L20 5L21 5L21 4L20 4L20 5L19 5L19 6L18 6L18 5L17 5L17 6L16 6L16 8L15 8L15 9L14 9L14 8L13 8L13 6L14 6L14 7L15 7L15 4L13 4L13 3L17 3L17 4L18 4L18 3L19 3L19 2L20 2L20 3L23 3L23 4L22 4L22 5L25 5L25 3L26 3L26 2L25 2L25 1L26 1L26 0L23 0L23 1L24 1L24 2L25 2L25 3L23 3L23 2L22 2L22 0L20 0L20 1L18 1L18 0L17 0L17 1L15 1L15 0L14 0L14 1L12 1L12 0L11 0L11 1L10 1L10 0ZM9 1L9 2L10 2L10 1ZM14 1L14 2L15 2L15 1ZM17 1L17 3L18 3L18 1ZM20 1L20 2L21 2L21 1ZM35 1L35 2L36 2L36 1ZM38 1L38 2L40 2L40 4L41 4L41 2L40 2L40 1ZM11 2L11 4L9 4L9 5L10 5L10 6L9 6L9 8L8 8L8 9L6 9L6 10L8 10L8 11L9 11L9 10L8 10L8 9L10 9L10 12L8 12L8 13L9 13L9 14L8 14L8 15L9 15L9 16L11 16L11 14L10 14L10 13L11 13L11 12L13 12L13 13L12 13L12 14L14 14L14 15L15 15L15 16L14 16L14 17L13 17L13 16L12 16L12 17L10 17L10 18L9 18L9 17L8 17L8 18L7 18L7 17L6 17L6 18L5 18L5 17L4 17L4 16L3 16L3 17L1 17L1 18L4 18L4 19L3 19L3 20L2 20L2 21L1 21L1 23L2 23L2 24L3 24L3 20L4 20L4 22L5 22L5 23L4 23L4 24L5 24L5 23L6 23L6 24L8 24L8 25L6 25L6 26L5 26L5 27L4 27L4 29L5 29L5 30L7 30L7 29L8 29L8 30L9 30L9 31L11 31L11 33L9 33L9 35L10 35L10 36L9 36L9 37L10 37L10 38L8 38L8 36L7 36L7 35L4 35L4 34L3 34L3 33L2 33L2 34L3 34L3 35L4 35L4 36L3 36L3 37L2 37L2 39L4 39L4 40L5 40L5 38L8 38L8 39L6 39L6 40L7 40L7 41L5 41L5 42L7 42L7 43L3 43L3 44L1 44L1 45L3 45L3 46L1 46L1 47L2 47L2 49L6 49L6 50L9 50L9 51L10 51L10 52L11 52L11 53L9 53L9 52L8 52L8 51L6 51L6 52L7 52L7 53L9 53L9 54L11 54L11 55L12 55L12 56L13 56L13 54L14 54L14 51L15 51L15 52L16 52L16 53L15 53L15 55L14 55L14 56L15 56L15 55L16 55L16 56L18 56L18 55L19 55L19 54L20 54L20 56L22 56L22 55L21 55L21 54L23 54L23 55L25 55L25 54L27 54L27 56L25 56L25 57L23 57L23 58L26 58L26 57L27 57L27 56L28 56L28 59L29 59L29 60L30 60L30 55L31 55L31 56L35 56L35 59L36 59L36 60L38 60L38 59L37 59L37 58L36 58L36 56L38 56L38 55L37 55L37 54L38 54L38 53L39 53L39 52L40 52L40 53L42 53L42 54L41 54L41 55L40 55L40 54L39 54L39 56L41 56L41 55L42 55L42 54L44 54L44 51L45 51L45 50L46 50L46 49L47 49L47 50L48 50L48 49L47 49L47 48L49 48L49 47L47 47L47 46L48 46L48 44L47 44L47 45L46 45L46 44L44 44L44 43L45 43L45 41L44 41L44 40L46 40L46 43L50 43L50 39L49 39L49 41L47 41L47 40L46 40L46 39L47 39L47 38L52 38L52 41L53 41L53 40L54 40L54 42L52 42L52 43L54 43L54 44L55 44L55 43L57 43L57 42L56 42L56 41L55 41L55 40L57 40L57 39L53 39L53 38L57 38L57 37L58 37L58 35L57 35L57 36L56 36L56 32L55 32L55 33L52 33L52 35L50 35L50 36L49 36L49 35L48 35L48 36L49 36L49 37L47 37L47 38L46 38L46 39L45 39L45 37L43 37L43 36L42 36L42 37L40 37L40 38L39 38L39 36L41 36L41 35L42 35L42 34L43 34L43 31L40 31L40 30L41 30L41 29L42 29L42 30L43 30L43 29L44 29L44 28L45 28L45 27L48 27L48 28L50 28L50 26L51 26L51 30L53 30L53 31L55 31L55 30L56 30L56 29L57 29L57 30L61 30L61 29L62 29L62 32L61 32L61 33L62 33L62 32L63 32L63 30L64 30L64 29L63 29L63 27L62 27L62 26L60 26L60 25L59 25L59 26L58 26L58 25L56 25L56 24L58 24L58 23L60 23L60 24L61 24L61 23L63 23L63 21L62 21L62 22L61 22L61 21L60 21L60 19L58 19L58 21L56 21L56 20L57 20L57 19L56 19L56 17L54 17L54 16L52 16L52 17L54 17L54 18L53 18L53 19L52 19L52 20L53 20L53 22L51 22L51 20L49 20L49 22L51 22L51 23L50 23L50 24L51 24L51 23L52 23L52 24L53 24L53 23L54 23L54 24L55 24L55 25L50 25L50 26L49 26L49 27L48 27L48 26L46 26L46 25L45 25L45 27L44 27L44 25L43 25L43 24L44 24L44 22L45 22L45 23L47 23L47 25L48 25L48 20L47 20L47 21L46 21L46 18L47 18L47 19L48 19L48 18L50 18L50 17L51 17L51 16L50 16L50 17L47 17L47 14L46 14L46 15L45 15L45 13L47 13L47 12L45 12L45 13L44 13L44 14L43 14L43 16L44 16L44 15L45 15L45 16L46 16L46 17L45 17L45 19L44 19L44 17L42 17L42 18L41 18L41 15L40 15L40 17L39 17L39 18L41 18L41 19L42 19L42 18L43 18L43 20L44 20L44 21L42 21L42 20L41 20L41 21L36 21L36 19L37 19L37 20L38 20L38 19L37 19L37 18L38 18L38 17L35 17L35 16L33 16L33 15L36 15L36 16L37 16L37 15L38 15L38 14L39 14L39 13L38 13L38 14L37 14L37 15L36 15L36 13L35 13L35 12L36 12L36 11L37 11L37 10L39 10L39 12L40 12L40 10L39 10L39 7L40 7L40 6L41 6L41 7L42 7L42 8L43 8L43 7L44 7L44 6L43 6L43 5L40 5L40 6L39 6L39 5L38 5L38 6L37 6L37 8L38 8L38 9L37 9L37 10L36 10L36 8L35 8L35 9L32 9L32 11L30 11L30 12L33 12L33 15L32 15L32 16L31 16L31 14L30 14L30 17L28 17L28 18L30 18L30 19L29 19L29 20L28 20L28 19L27 19L27 18L25 18L25 17L26 17L26 16L23 16L23 15L21 15L21 16L22 16L22 19L23 19L23 21L20 21L20 19L21 19L21 18L20 18L20 19L19 19L19 23L18 23L18 20L17 20L17 19L18 19L18 18L16 18L16 17L17 17L17 16L16 16L16 14L17 14L17 11L16 11L16 10L19 10L19 9L18 9L18 8L19 8L19 7L20 7L20 8L21 8L21 7L20 7L20 6L19 6L19 7L18 7L18 6L17 6L17 8L16 8L16 10L14 10L14 9L13 9L13 10L12 10L12 11L11 11L11 8L12 8L12 6L11 6L11 5L12 5L12 3L13 3L13 2ZM28 3L28 6L27 6L27 7L28 7L28 8L29 8L29 9L30 9L30 10L31 10L31 9L30 9L30 4L29 4L29 3ZM31 5L31 8L34 8L34 5ZM10 6L10 7L11 7L11 6ZM24 6L24 7L25 7L25 6ZM28 6L28 7L29 7L29 6ZM32 6L32 7L33 7L33 6ZM38 6L38 7L39 7L39 6ZM42 6L42 7L43 7L43 6ZM53 6L53 7L54 7L54 6ZM56 6L56 7L57 7L57 6ZM24 8L24 9L25 9L25 10L26 10L26 8ZM56 8L56 9L57 9L57 8ZM20 9L20 10L21 10L21 9ZM35 10L35 11L36 11L36 10ZM5 11L5 13L6 13L6 14L7 14L7 13L6 13L6 12L7 12L7 11ZM15 11L15 12L14 12L14 14L16 14L16 11ZM19 11L19 12L20 12L20 11ZM53 11L53 12L54 12L54 11ZM27 12L27 14L26 14L26 15L27 15L27 16L29 16L29 14L28 14L28 12ZM34 13L34 14L35 14L35 13ZM55 14L55 15L56 15L56 14ZM6 15L6 16L7 16L7 15ZM32 16L32 17L31 17L31 19L32 19L32 20L31 20L31 22L30 22L30 20L29 20L29 22L28 22L28 20L27 20L27 21L26 21L26 22L28 22L28 23L29 23L29 24L27 24L27 23L25 23L25 24L21 24L21 23L22 23L22 22L20 22L20 23L19 23L19 24L17 24L17 20L16 20L16 18L15 18L15 19L14 19L14 18L10 18L10 19L7 19L7 18L6 18L6 19L7 19L7 20L6 20L6 21L7 21L7 22L6 22L6 23L8 23L8 24L11 24L11 22L14 22L14 24L13 24L13 25L12 25L12 26L11 26L11 25L10 25L10 26L11 26L11 27L10 27L10 28L9 28L9 27L8 27L8 26L9 26L9 25L8 25L8 26L6 26L6 27L8 27L8 28L9 28L9 30L10 30L10 29L11 29L11 27L12 27L12 26L13 26L13 25L15 25L15 22L14 22L14 21L15 21L15 20L16 20L16 24L17 24L17 25L16 25L16 26L15 26L15 27L14 27L14 29L13 29L13 28L12 28L12 29L13 29L13 30L12 30L12 31L13 31L13 32L12 32L12 33L13 33L13 34L11 34L11 36L12 36L12 37L11 37L11 38L10 38L10 39L11 39L11 38L12 38L12 44L13 44L13 43L16 43L16 48L15 48L15 47L14 47L14 46L13 46L13 45L12 45L12 47L11 47L11 44L8 44L8 43L9 43L9 40L8 40L8 41L7 41L7 42L8 42L8 43L7 43L7 44L6 44L6 45L9 45L9 46L10 46L10 47L11 47L11 48L10 48L10 49L11 49L11 48L13 48L13 47L14 47L14 48L15 48L15 49L16 49L16 50L15 50L15 51L16 51L16 52L17 52L17 53L18 53L18 52L20 52L20 51L22 51L22 52L21 52L21 53L20 53L20 54L21 54L21 53L22 53L22 52L23 52L23 54L24 54L24 53L25 53L25 52L23 52L23 51L22 51L22 49L23 49L23 48L24 48L24 49L25 49L25 50L26 50L26 53L27 53L27 50L28 50L28 51L29 51L29 53L30 53L30 54L31 54L31 52L32 52L32 54L33 54L33 53L35 53L35 54L34 54L34 55L36 55L36 53L38 53L38 52L39 52L39 51L40 51L40 52L42 52L42 51L43 51L43 50L41 50L41 49L42 49L42 48L43 48L43 49L46 49L46 48L45 48L45 47L46 47L46 46L45 46L45 45L44 45L44 44L43 44L43 45L44 45L44 47L42 47L42 45L41 45L41 43L40 43L40 44L39 44L39 43L37 43L37 44L36 44L36 43L35 43L35 42L36 42L36 41L38 41L38 42L42 42L42 43L43 43L43 42L44 42L44 41L43 41L43 42L42 42L42 40L44 40L44 38L42 38L42 39L41 39L41 38L40 38L40 40L41 40L41 41L38 41L38 40L39 40L39 39L37 39L37 40L34 40L34 39L35 39L35 38L34 38L34 37L37 37L37 38L38 38L38 37L37 37L37 36L33 36L33 41L30 41L30 40L32 40L32 37L31 37L31 39L29 39L29 38L30 38L30 37L28 37L28 34L26 34L26 32L27 32L27 31L28 31L28 32L29 32L29 33L30 33L30 35L29 35L29 36L32 36L32 35L37 35L37 34L35 34L35 32L36 32L36 33L39 33L39 32L38 32L38 31L37 31L37 30L36 30L36 29L37 29L37 27L38 27L38 24L39 24L39 25L41 25L41 23L40 23L40 22L38 22L38 24L37 24L37 23L36 23L36 25L35 25L35 23L33 23L33 22L32 22L32 20L34 20L34 18L33 18L33 19L32 19L32 17L33 17L33 16ZM57 17L57 18L59 18L59 17ZM60 17L60 18L61 18L61 17ZM24 18L24 21L25 21L25 20L26 20L26 19L25 19L25 18ZM54 18L54 19L53 19L53 20L54 20L54 21L55 21L55 24L56 24L56 21L55 21L55 20L54 20L54 19L55 19L55 18ZM4 19L4 20L5 20L5 19ZM13 19L13 20L10 20L10 21L9 21L9 20L7 20L7 21L9 21L9 23L10 23L10 21L14 21L14 19ZM35 21L35 22L36 22L36 21ZM29 22L29 23L30 23L30 25L29 25L29 27L28 27L28 25L20 25L20 27L22 27L22 29L24 29L24 30L23 30L23 31L25 31L25 32L26 32L26 31L27 31L27 30L29 30L29 31L30 31L30 30L35 30L35 31L36 31L36 32L37 32L37 31L36 31L36 30L35 30L35 29L34 29L34 24L33 24L33 23L32 23L32 22L31 22L31 23L30 23L30 22ZM57 22L57 23L58 23L58 22ZM60 22L60 23L61 23L61 22ZM39 23L39 24L40 24L40 23ZM31 24L31 25L33 25L33 24ZM62 24L62 25L63 25L63 24ZM17 25L17 26L16 26L16 30L17 30L17 31L19 31L19 34L18 34L18 32L17 32L17 33L15 33L15 32L13 32L13 33L15 33L15 34L13 34L13 35L12 35L12 36L13 36L13 37L12 37L12 38L13 38L13 39L15 39L15 36L16 36L16 37L18 37L18 40L19 40L19 42L20 42L20 43L19 43L19 46L20 46L20 47L21 47L21 48L23 48L23 46L25 46L25 47L24 47L24 48L28 48L28 49L30 49L30 50L29 50L29 51L31 51L31 49L32 49L32 52L33 52L33 50L36 50L36 52L37 52L37 51L39 51L39 50L40 50L40 51L41 51L41 50L40 50L40 49L38 49L38 47L39 47L39 48L40 48L40 47L41 47L41 48L42 48L42 47L41 47L41 46L40 46L40 45L36 45L36 44L35 44L35 43L32 43L32 42L30 42L30 41L26 41L26 40L25 40L25 39L24 39L24 38L27 38L27 37L25 37L25 36L27 36L27 35L26 35L26 34L25 34L25 33L24 33L24 32L23 32L23 34L22 34L22 33L20 33L20 32L22 32L22 30L21 30L21 31L19 31L19 29L21 29L21 28L19 28L19 29L18 29L18 30L17 30L17 28L18 28L18 26L19 26L19 25ZM36 25L36 26L35 26L35 28L36 28L36 27L37 27L37 25ZM55 25L55 26L54 26L54 27L52 27L52 28L53 28L53 30L54 30L54 27L55 27L55 28L56 28L56 25ZM22 26L22 27L23 27L23 26ZM24 26L24 27L25 27L25 28L26 28L26 29L25 29L25 31L26 31L26 29L27 29L27 28L28 28L28 29L29 29L29 30L30 30L30 29L29 29L29 28L28 28L28 27L27 27L27 26ZM30 26L30 27L31 27L31 28L32 28L32 29L33 29L33 26ZM39 26L39 27L40 27L40 28L41 28L41 27L43 27L43 26ZM59 26L59 29L61 29L61 27L60 27L60 26ZM0 27L0 28L1 28L1 27ZM26 27L26 28L27 28L27 27ZM5 28L5 29L7 29L7 28ZM38 28L38 30L39 30L39 28ZM46 28L46 31L45 31L45 30L44 30L44 31L45 31L45 32L44 32L44 35L46 35L46 34L51 34L51 33L48 33L48 31L49 31L49 32L52 32L52 31L50 31L50 29L49 29L49 30L47 30L47 28ZM57 28L57 29L58 29L58 28ZM0 29L0 30L1 30L1 29ZM3 31L3 32L4 32L4 31ZM5 31L5 34L8 34L8 31ZM31 31L31 34L34 34L34 31ZM46 31L46 32L45 32L45 33L46 33L46 32L47 32L47 31ZM57 31L57 34L60 34L60 31ZM6 32L6 33L7 33L7 32ZM32 32L32 33L33 33L33 32ZM40 32L40 33L41 33L41 32ZM58 32L58 33L59 33L59 32ZM16 34L16 35L17 35L17 36L18 36L18 37L19 37L19 40L21 40L21 41L20 41L20 42L21 42L21 41L22 41L22 39L23 39L23 38L22 38L22 37L24 37L24 35L25 35L25 34L23 34L23 36L22 36L22 34L19 34L19 36L18 36L18 34ZM38 34L38 36L39 36L39 34ZM54 34L54 35L52 35L52 36L50 36L50 37L52 37L52 38L53 38L53 37L55 37L55 34ZM14 35L14 36L15 36L15 35ZM20 35L20 39L22 39L22 38L21 38L21 35ZM4 36L4 38L5 38L5 37L7 37L7 36ZM13 37L13 38L14 38L14 37ZM16 39L16 41L13 41L13 42L16 42L16 43L17 43L17 45L18 45L18 43L17 43L17 42L18 42L18 41L17 41L17 39ZM27 39L27 40L29 40L29 39ZM10 40L10 41L11 41L11 40ZM23 41L23 42L24 42L24 43L23 43L23 44L22 44L22 43L21 43L21 46L23 46L23 44L24 44L24 45L26 45L26 46L27 46L27 45L29 45L29 48L30 48L30 49L31 49L31 47L32 47L32 48L33 48L33 49L37 49L37 50L38 50L38 49L37 49L37 47L38 47L38 46L36 46L36 48L35 48L35 47L34 47L34 46L33 46L33 47L32 47L32 46L31 46L31 44L32 44L32 45L33 45L33 44L32 44L32 43L31 43L31 44L30 44L30 42L28 42L28 43L27 43L27 45L26 45L26 43L25 43L25 42L26 42L26 41L25 41L25 42L24 42L24 41ZM34 41L34 42L35 42L35 41ZM63 41L63 43L62 43L62 44L63 44L63 45L64 45L64 44L63 44L63 43L64 43L64 41ZM54 42L54 43L55 43L55 42ZM28 43L28 44L29 44L29 43ZM3 44L3 45L4 45L4 46L5 46L5 47L4 47L4 48L5 48L5 47L7 47L7 48L6 48L6 49L8 49L8 46L5 46L5 45L4 45L4 44ZM34 44L34 45L35 45L35 44ZM30 46L30 47L31 47L31 46ZM39 46L39 47L40 47L40 46ZM62 46L62 47L63 47L63 46ZM33 47L33 48L34 48L34 47ZM56 47L56 48L57 48L57 49L58 49L58 48L57 48L57 47ZM64 48L64 49L65 49L65 48ZM12 49L12 50L10 50L10 51L12 51L12 50L13 50L13 51L14 51L14 50L13 50L13 49ZM18 49L18 50L17 50L17 51L20 51L20 50L21 50L21 49L20 49L20 50L19 50L19 49ZM51 50L51 51L50 51L50 53L51 53L51 51L53 51L53 52L52 52L52 53L54 53L54 54L55 54L55 55L56 55L56 56L58 56L58 55L56 55L56 54L55 54L55 52L56 52L56 53L57 53L57 52L56 52L56 51L53 51L53 50ZM64 50L64 52L65 52L65 50ZM46 51L46 52L45 52L45 54L46 54L46 55L48 55L48 54L47 54L47 51ZM48 51L48 52L49 52L49 51ZM58 52L58 54L59 54L59 52ZM60 53L60 54L61 54L61 55L62 55L62 56L63 56L63 55L62 55L62 53ZM7 54L7 55L8 55L8 57L9 57L9 56L10 56L10 55L8 55L8 54ZM17 54L17 55L18 55L18 54ZM28 54L28 55L29 55L29 54ZM53 55L53 56L54 56L54 55ZM13 57L13 58L16 58L16 60L18 60L18 59L19 59L19 60L20 60L20 59L21 59L21 60L22 60L22 59L21 59L21 58L22 58L22 57L20 57L20 58L18 58L18 57ZM31 57L31 60L34 60L34 57ZM57 57L57 60L60 60L60 57ZM17 58L17 59L18 59L18 58ZM32 58L32 59L33 59L33 58ZM58 58L58 59L59 59L59 58ZM26 59L26 60L27 60L27 59ZM39 59L39 60L40 60L40 59ZM43 59L43 61L44 61L44 60L45 60L45 59ZM49 60L49 61L47 61L47 62L48 62L48 63L49 63L49 61L50 61L50 60ZM34 61L34 62L35 62L35 63L34 63L34 64L35 64L35 63L36 63L36 61ZM28 62L28 64L29 64L29 63L30 63L30 64L31 64L31 63L30 63L30 62ZM39 62L39 65L40 65L40 64L41 64L41 65L43 65L43 64L41 64L41 63L42 63L42 62L41 62L41 63L40 63L40 62ZM63 62L63 63L61 63L61 64L63 64L63 63L64 63L64 62ZM16 63L16 64L17 64L17 63ZM53 63L53 64L54 64L54 63ZM24 64L24 65L25 65L25 64ZM0 0L0 7L7 7L7 0ZM1 1L1 6L6 6L6 1ZM2 2L2 5L5 5L5 2ZM58 0L58 7L65 7L65 0ZM59 1L59 6L64 6L64 1ZM60 2L60 5L63 5L63 2ZM0 58L0 65L7 65L7 58ZM1 59L1 64L6 64L6 59ZM2 60L2 63L5 63L5 60Z" fill="#000000"/></g></g></svg>
