<?xml version="1.0" encoding="UTF-8"?>
<svg xmlns="http://www.w3.org/2000/svg" version="1.1" width="100" height="100" viewBox="0 0 100 100"><rect x="0" y="0" width="100" height="100" fill="#ffffff"/><g transform="scale(1.538)"><g transform="translate(0,0)"><path fill-rule="evenodd" d="M9 0L9 1L8 1L8 2L9 2L9 3L8 3L8 4L9 4L9 3L10 3L10 7L9 7L9 5L8 5L8 7L9 7L9 8L6 8L6 9L7 9L7 10L4 10L4 9L5 9L5 8L0 8L0 9L2 9L2 10L1 10L1 11L0 11L0 12L1 12L1 13L0 13L0 18L1 18L1 16L6 16L6 17L5 17L5 18L3 18L3 17L2 17L2 18L3 18L3 19L2 19L2 20L1 20L1 19L0 19L0 21L1 21L1 22L0 22L0 24L2 24L2 25L1 25L1 27L0 27L0 28L1 28L1 29L0 29L0 32L1 32L1 31L3 31L3 32L4 32L4 34L3 34L3 33L0 33L0 34L1 34L1 35L0 35L0 36L1 36L1 35L3 35L3 36L2 36L2 39L0 39L0 40L1 40L1 41L0 41L0 42L1 42L1 43L2 43L2 44L1 44L1 46L0 46L0 47L1 47L1 49L2 49L2 50L0 50L0 52L2 52L2 53L1 53L1 54L2 54L2 55L3 55L3 56L1 56L1 55L0 55L0 56L1 56L1 57L3 57L3 56L4 56L4 57L5 57L5 56L4 56L4 54L5 54L5 55L7 55L7 56L6 56L6 57L8 57L8 59L9 59L9 60L8 60L8 65L10 65L10 64L12 64L12 65L16 65L16 64L17 64L17 65L19 65L19 64L18 64L18 63L20 63L20 61L19 61L19 60L18 60L18 59L19 59L19 58L18 58L18 59L17 59L17 58L16 58L16 57L17 57L17 56L18 56L18 57L21 57L21 58L20 58L20 59L21 59L21 58L25 58L25 59L27 59L27 57L26 57L26 56L28 56L28 57L29 57L29 55L30 55L30 60L27 60L27 61L29 61L29 65L32 65L32 64L33 64L33 63L32 63L32 61L34 61L34 63L36 63L36 64L34 64L34 65L37 65L37 63L38 63L38 64L39 64L39 62L38 62L38 61L39 61L39 60L37 60L37 59L36 59L36 57L37 57L37 58L38 58L38 57L40 57L40 58L39 58L39 59L40 59L40 60L41 60L41 61L40 61L40 64L41 64L41 65L42 65L42 64L43 64L43 65L44 65L44 64L45 64L45 65L46 65L46 62L45 62L45 61L44 61L44 63L42 63L42 64L41 64L41 62L43 62L43 61L42 61L42 60L43 60L43 57L44 57L44 58L45 58L45 59L44 59L44 60L46 60L46 61L47 61L47 59L46 59L46 58L45 58L45 57L44 57L44 55L42 55L42 56L43 56L43 57L40 57L40 56L41 56L41 53L39 53L39 54L38 54L38 55L37 55L37 56L36 56L36 55L34 55L34 54L35 54L35 53L37 53L37 52L42 52L42 54L43 54L43 53L44 53L44 54L45 54L45 56L46 56L46 55L47 55L47 58L48 58L48 57L50 57L50 56L53 56L53 57L54 57L54 58L53 58L53 59L54 59L54 58L56 58L56 59L55 59L55 60L56 60L56 61L53 61L53 62L54 62L54 63L55 63L55 64L54 64L54 65L56 65L56 62L58 62L58 63L59 63L59 65L63 65L63 64L64 64L64 60L65 60L65 59L63 59L63 58L65 58L65 55L63 55L63 54L64 54L64 52L65 52L65 51L63 51L63 52L62 52L62 50L65 50L65 49L64 49L64 48L61 48L61 47L58 47L58 48L57 48L57 47L56 47L56 45L55 45L55 44L57 44L57 46L58 46L58 44L59 44L59 45L60 45L60 46L61 46L61 45L60 45L60 43L54 43L54 42L56 42L56 41L54 41L54 40L53 40L53 39L54 39L54 38L56 38L56 39L55 39L55 40L56 40L56 39L58 39L58 40L57 40L57 41L58 41L58 42L61 42L61 41L58 41L58 40L59 40L59 39L60 39L60 40L62 40L62 42L63 42L63 43L64 43L64 42L65 42L65 41L63 41L63 40L65 40L65 39L64 39L64 38L65 38L65 37L64 37L64 36L65 36L65 35L64 35L64 36L62 36L62 35L63 35L63 34L61 34L61 33L63 33L63 32L64 32L64 34L65 34L65 32L64 32L64 31L63 31L63 30L61 30L61 29L62 29L62 27L63 27L63 26L64 26L64 23L63 23L63 21L64 21L64 22L65 22L65 21L64 21L64 19L63 19L63 18L62 18L62 19L61 19L61 17L62 17L62 15L64 15L64 16L63 16L63 17L64 17L64 18L65 18L65 15L64 15L64 14L65 14L65 13L63 13L63 14L61 14L61 16L60 16L60 15L59 15L59 14L58 14L58 15L56 15L56 13L58 13L58 12L56 12L56 13L53 13L53 14L54 14L54 15L55 15L55 17L52 17L52 16L53 16L53 15L52 15L52 16L51 16L51 18L50 18L50 15L51 15L51 14L52 14L52 13L51 13L51 14L50 14L50 11L52 11L52 10L53 10L53 12L55 12L55 11L56 11L56 9L58 9L58 8L55 8L55 5L54 5L54 7L53 7L53 5L52 5L52 4L51 4L51 5L50 5L50 0L47 0L47 2L46 2L46 3L45 3L45 2L44 2L44 3L41 3L41 1L45 1L45 0L41 0L41 1L40 1L40 0L39 0L39 1L38 1L38 0L35 0L35 1L34 1L34 0L33 0L33 1L34 1L34 2L35 2L35 1L36 1L36 2L37 2L37 1L38 1L38 3L35 3L35 4L32 4L32 3L33 3L33 2L32 2L32 3L31 3L31 2L29 2L29 1L32 1L32 0L29 0L29 1L27 1L27 0L26 0L26 1L25 1L25 0L23 0L23 1L22 1L22 0L21 0L21 1L20 1L20 0L19 0L19 1L18 1L18 2L16 2L16 0L15 0L15 1L14 1L14 0L13 0L13 1L12 1L12 0L11 0L11 1L10 1L10 0ZM51 0L51 1L54 1L54 0ZM55 0L55 1L56 1L56 3L55 3L55 2L54 2L54 3L53 3L53 2L51 2L51 3L53 3L53 4L56 4L56 5L57 5L57 4L56 4L56 3L57 3L57 1L56 1L56 0ZM24 1L24 2L23 2L23 3L20 3L20 2L19 2L19 3L20 3L20 6L19 6L19 7L18 7L18 5L19 5L19 4L18 4L18 3L16 3L16 2L15 2L15 3L14 3L14 2L10 2L10 3L12 3L12 6L11 6L11 7L10 7L10 8L9 8L9 9L8 9L8 10L7 10L7 11L4 11L4 12L3 12L3 11L2 11L2 12L3 12L3 14L2 14L2 13L1 13L1 15L3 15L3 14L4 14L4 15L6 15L6 16L7 16L7 17L6 17L6 18L5 18L5 19L4 19L4 22L3 22L3 21L2 21L2 24L3 24L3 25L4 25L4 24L5 24L5 25L6 25L6 26L5 26L5 27L4 27L4 26L3 26L3 28L2 28L2 29L4 29L4 28L8 28L8 29L6 29L6 30L8 30L8 29L9 29L9 32L10 32L10 34L9 34L9 35L4 35L4 36L3 36L3 38L5 38L5 40L8 40L8 41L4 41L4 39L3 39L3 40L2 40L2 43L3 43L3 44L7 44L7 43L6 43L6 42L8 42L8 41L9 41L9 45L8 45L8 47L11 47L11 44L14 44L14 47L15 47L15 48L14 48L14 49L13 49L13 48L7 48L7 47L6 47L6 48L5 48L5 47L3 47L3 46L4 46L4 45L2 45L2 46L1 46L1 47L2 47L2 48L5 48L5 49L3 49L3 50L4 50L4 51L2 51L2 52L3 52L3 53L4 53L4 51L5 51L5 49L6 49L6 50L7 50L7 49L8 49L8 50L9 50L9 49L12 49L12 50L13 50L13 51L12 51L12 52L13 52L13 51L14 51L14 50L15 50L15 51L16 51L16 50L17 50L17 52L19 52L19 53L18 53L18 54L19 54L19 55L18 55L18 56L21 56L21 57L23 57L23 55L22 55L22 56L21 56L21 55L20 55L20 54L21 54L21 53L22 53L22 54L23 54L23 52L22 52L22 51L24 51L24 50L22 50L22 49L25 49L25 51L27 51L27 50L28 50L28 52L25 52L25 53L28 53L28 54L30 54L30 55L31 55L31 54L30 54L30 52L31 52L31 53L32 53L32 54L34 54L34 53L35 53L35 52L33 52L33 51L30 51L30 52L29 52L29 50L30 50L30 48L31 48L31 49L32 49L32 50L33 50L33 49L34 49L34 51L36 51L36 50L37 50L37 49L38 49L38 50L40 50L40 51L41 51L41 50L40 50L40 49L41 49L41 48L42 48L42 49L43 49L43 50L42 50L42 52L43 52L43 50L44 50L44 53L45 53L45 54L47 54L47 55L49 55L49 54L53 54L53 52L54 52L54 51L55 51L55 54L54 54L54 55L53 55L53 56L54 56L54 57L56 57L56 56L58 56L58 55L62 55L62 56L61 56L61 58L62 58L62 57L64 57L64 56L63 56L63 55L62 55L62 52L61 52L61 54L59 54L59 52L58 52L58 54L56 54L56 50L57 50L57 51L60 51L60 49L61 49L61 50L62 50L62 49L61 49L61 48L60 48L60 49L59 49L59 48L58 48L58 49L59 49L59 50L57 50L57 48L56 48L56 47L55 47L55 46L54 46L54 47L53 47L53 46L52 46L52 45L53 45L53 44L54 44L54 43L53 43L53 42L54 42L54 41L53 41L53 40L50 40L50 42L48 42L48 41L46 41L46 40L49 40L49 38L47 38L47 37L45 37L45 34L46 34L46 35L48 35L48 36L49 36L49 37L50 37L50 39L53 39L53 38L54 38L54 37L53 37L53 36L54 36L54 35L55 35L55 37L56 37L56 38L58 38L58 39L59 39L59 36L61 36L61 38L60 38L60 39L62 39L62 40L63 40L63 39L62 39L62 36L61 36L61 35L59 35L59 36L58 36L58 35L57 35L57 37L56 37L56 32L55 32L55 34L54 34L54 35L52 35L52 36L51 36L51 35L50 35L50 34L53 34L53 33L54 33L54 32L52 32L52 30L51 30L51 29L53 29L53 28L52 28L52 27L54 27L54 29L56 29L56 30L59 30L59 27L61 27L61 26L62 26L62 24L63 24L63 23L62 23L62 21L61 21L61 23L60 23L60 22L59 22L59 21L56 21L56 20L59 20L59 19L60 19L60 20L61 20L61 19L60 19L60 18L59 18L59 17L60 17L60 16L59 16L59 15L58 15L58 17L55 17L55 18L54 18L54 21L55 21L55 24L53 24L53 23L52 23L52 24L51 24L51 21L53 21L53 18L51 18L51 19L50 19L50 18L49 18L49 19L48 19L48 20L47 20L47 21L46 21L46 19L47 19L47 18L48 18L48 17L47 17L47 16L45 16L45 15L46 15L46 14L48 14L48 16L49 16L49 14L48 14L48 13L47 13L47 12L46 12L46 10L48 10L48 8L49 8L49 9L50 9L50 10L49 10L49 11L50 11L50 10L51 10L51 9L53 9L53 8L52 8L52 6L51 6L51 7L50 7L50 5L49 5L49 7L48 7L48 5L47 5L47 3L49 3L49 2L47 2L47 3L46 3L46 5L47 5L47 7L46 7L46 6L45 6L45 7L46 7L46 9L45 9L45 8L42 8L42 6L43 6L43 7L44 7L44 5L41 5L41 8L38 8L38 6L39 6L39 7L40 7L40 6L39 6L39 5L40 5L40 4L41 4L41 3L40 3L40 1L39 1L39 4L38 4L38 5L35 5L35 8L36 8L36 6L37 6L37 8L38 8L38 11L37 11L37 12L38 12L38 14L37 14L37 13L34 13L34 12L35 12L35 11L36 11L36 10L35 10L35 9L33 9L33 10L32 10L32 11L33 11L33 10L35 10L35 11L34 11L34 12L31 12L31 13L33 13L33 14L30 14L30 15L35 15L35 14L36 14L36 15L37 15L37 16L38 16L38 19L39 19L39 17L40 17L40 18L42 18L42 20L41 20L41 19L40 19L40 20L38 20L38 22L35 22L35 19L36 19L36 20L37 20L37 17L36 17L36 18L35 18L35 16L31 16L31 17L30 17L30 16L29 16L29 15L28 15L28 16L29 16L29 17L27 17L27 16L26 16L26 13L28 13L28 14L29 14L29 13L30 13L30 12L29 12L29 13L28 13L28 12L27 12L27 11L29 11L29 10L30 10L30 11L31 11L31 10L30 10L30 9L28 9L28 8L29 8L29 7L30 7L30 6L29 6L29 7L28 7L28 5L30 5L30 4L31 4L31 3L29 3L29 2L28 2L28 4L27 4L27 3L26 3L26 4L25 4L25 3L24 3L24 2L25 2L25 1ZM26 1L26 2L27 2L27 1ZM15 3L15 4L14 4L14 5L13 5L13 6L12 6L12 8L11 8L11 9L9 9L9 10L11 10L11 11L10 11L10 12L8 12L8 11L7 11L7 12L4 12L4 14L6 14L6 15L9 15L9 16L8 16L8 17L7 17L7 18L6 18L6 19L8 19L8 18L11 18L11 22L10 22L10 23L9 23L9 22L8 22L8 23L7 23L7 22L6 22L6 23L7 23L7 24L6 24L6 25L7 25L7 26L6 26L6 27L8 27L8 28L9 28L9 29L11 29L11 30L10 30L10 31L11 31L11 32L12 32L12 33L14 33L14 37L12 37L12 38L10 38L10 39L9 39L9 38L8 38L8 39L9 39L9 41L10 41L10 44L11 44L11 42L12 42L12 43L14 43L14 44L15 44L15 45L16 45L16 46L15 46L15 47L16 47L16 48L15 48L15 49L17 49L17 50L18 50L18 51L19 51L19 52L20 52L20 51L22 51L22 50L20 50L20 49L19 49L19 48L22 48L22 47L23 47L23 46L25 46L25 45L26 45L26 40L27 40L27 39L28 39L28 38L27 38L27 37L29 37L29 35L35 35L35 37L34 37L34 38L35 38L35 43L33 43L33 44L34 44L34 46L35 46L35 48L34 48L34 47L33 47L33 48L32 48L32 49L33 49L33 48L34 48L34 49L37 49L37 46L38 46L38 45L39 45L39 46L40 46L40 45L39 45L39 43L40 43L40 41L39 41L39 42L37 42L37 40L38 40L38 37L39 37L39 38L40 38L40 37L39 37L39 36L41 36L41 35L39 35L39 34L43 34L43 35L44 35L44 32L45 32L45 33L46 33L46 31L47 31L47 34L50 34L50 28L49 28L49 27L48 27L48 26L50 26L50 27L52 27L52 26L50 26L50 25L51 25L51 24L50 24L50 25L49 25L49 24L48 24L48 23L49 23L49 22L50 22L50 21L51 21L51 20L52 20L52 19L51 19L51 20L50 20L50 21L49 21L49 20L48 20L48 21L47 21L47 22L45 22L45 24L46 24L46 25L48 25L48 26L46 26L46 27L44 27L44 26L43 26L43 25L44 25L44 22L43 22L43 21L41 21L41 22L42 22L42 24L43 24L43 25L42 25L42 26L40 26L40 27L38 27L38 28L37 28L37 26L38 26L38 24L39 24L39 23L40 23L40 24L41 24L41 23L40 23L40 22L39 22L39 23L38 23L38 24L36 24L36 23L34 23L34 22L32 22L32 19L34 19L34 18L31 18L31 19L29 19L29 18L30 18L30 17L29 17L29 18L25 18L25 17L26 17L26 16L25 16L25 13L26 13L26 12L25 12L25 9L26 9L26 8L24 8L24 7L25 7L25 6L26 6L26 7L27 7L27 8L28 8L28 7L27 7L27 6L26 6L26 5L27 5L27 4L26 4L26 5L25 5L25 4L24 4L24 5L25 5L25 6L24 6L24 7L23 7L23 4L22 4L22 7L21 7L21 6L20 6L20 7L19 7L19 8L18 8L18 7L17 7L17 6L16 6L16 7L15 7L15 4L16 4L16 5L18 5L18 4L16 4L16 3ZM44 3L44 4L45 4L45 3ZM31 5L31 8L34 8L34 5ZM13 6L13 8L12 8L12 9L11 9L11 10L12 10L12 12L10 12L10 15L11 15L11 17L12 17L12 18L14 18L14 19L13 19L13 22L12 22L12 24L13 24L13 25L11 25L11 23L10 23L10 25L8 25L8 24L7 24L7 25L8 25L8 27L9 27L9 28L10 28L10 27L12 27L12 28L13 28L13 26L14 26L14 25L15 25L15 26L18 26L18 25L17 25L17 24L18 24L18 23L19 23L19 21L20 21L20 24L19 24L19 25L20 25L20 27L19 27L19 29L17 29L17 28L18 28L18 27L15 27L15 29L13 29L13 30L12 30L12 32L13 32L13 31L14 31L14 30L15 30L15 31L16 31L16 32L17 32L17 33L15 33L15 32L14 32L14 33L15 33L15 34L16 34L16 35L15 35L15 36L16 36L16 37L14 37L14 38L12 38L12 39L16 39L16 38L19 38L19 39L18 39L18 40L19 40L19 39L20 39L20 40L21 40L21 41L19 41L19 42L17 42L17 41L15 41L15 40L12 40L12 42L13 42L13 41L14 41L14 43L16 43L16 45L17 45L17 43L18 43L18 44L21 44L21 45L20 45L20 46L19 46L19 45L18 45L18 46L17 46L17 49L18 49L18 50L19 50L19 51L20 51L20 50L19 50L19 49L18 49L18 48L19 48L19 47L21 47L21 45L22 45L22 46L23 46L23 45L25 45L25 44L21 44L21 43L22 43L22 42L23 42L23 43L25 43L25 42L23 42L23 41L24 41L24 40L21 40L21 39L20 39L20 38L22 38L22 37L23 37L23 35L24 35L24 34L23 34L23 35L22 35L22 37L21 37L21 33L25 33L25 32L21 32L21 31L22 31L22 30L21 30L21 29L23 29L23 27L24 27L24 28L25 28L25 29L27 29L27 30L26 30L26 35L27 35L27 34L29 34L29 33L30 33L30 30L31 30L31 29L30 29L30 30L29 30L29 29L28 29L28 28L29 28L29 27L30 27L30 26L31 26L31 28L32 28L32 30L35 30L35 35L36 35L36 34L37 34L37 37L35 37L35 38L37 38L37 37L38 37L38 34L39 34L39 33L42 33L42 32L41 32L41 31L43 31L43 30L41 30L41 29L43 29L43 28L44 28L44 31L46 31L46 30L47 30L47 28L48 28L48 27L47 27L47 28L46 28L46 30L45 30L45 28L44 28L44 27L43 27L43 26L42 26L42 27L40 27L40 28L39 28L39 29L38 29L38 30L36 30L36 29L34 29L34 28L36 28L36 26L35 26L35 24L33 24L33 23L31 23L31 24L28 24L28 23L27 23L27 24L26 24L26 22L29 22L29 23L30 23L30 22L29 22L29 21L27 21L27 20L26 20L26 19L24 19L24 18L23 18L23 17L25 17L25 16L22 16L22 14L23 14L23 15L24 15L24 14L23 14L23 12L22 12L22 11L21 11L21 8L19 8L19 9L18 9L18 10L19 10L19 9L20 9L20 11L19 11L19 13L20 13L20 14L21 14L21 17L20 17L20 16L19 16L19 14L17 14L17 13L16 13L16 12L18 12L18 11L16 11L16 12L14 12L14 13L13 13L13 14L14 14L14 13L15 13L15 14L16 14L16 15L15 15L15 16L14 16L14 15L13 15L13 16L12 16L12 15L11 15L11 14L12 14L12 12L13 12L13 11L15 11L15 9L16 9L16 10L17 10L17 7L16 7L16 8L14 8L14 6ZM32 6L32 7L33 7L33 6ZM56 6L56 7L57 7L57 6ZM22 7L22 9L24 9L24 8L23 8L23 7ZM47 7L47 8L48 8L48 7ZM41 8L41 11L38 11L38 12L39 12L39 13L40 13L40 12L41 12L41 14L38 14L38 15L39 15L39 16L40 16L40 15L42 15L42 16L41 16L41 17L42 17L42 18L43 18L43 19L44 19L44 20L45 20L45 19L44 19L44 18L45 18L45 17L44 17L44 16L43 16L43 14L44 14L44 15L45 15L45 14L44 14L44 10L43 10L43 9L42 9L42 8ZM59 8L59 9L60 9L60 11L59 11L59 13L61 13L61 12L62 12L62 11L63 11L63 12L64 12L64 11L63 11L63 10L62 10L62 8L61 8L61 9L60 9L60 8ZM63 8L63 9L64 9L64 10L65 10L65 9L64 9L64 8ZM13 9L13 10L14 10L14 9ZM39 9L39 10L40 10L40 9ZM23 10L23 11L24 11L24 10ZM26 10L26 11L27 11L27 10ZM42 10L42 11L41 11L41 12L43 12L43 10ZM54 10L54 11L55 11L55 10ZM57 10L57 11L58 11L58 10ZM61 10L61 11L62 11L62 10ZM20 11L20 12L21 12L21 11ZM7 12L7 13L6 13L6 14L7 14L7 13L8 13L8 14L9 14L9 13L8 13L8 12ZM24 12L24 13L25 13L25 12ZM45 12L45 13L46 13L46 12ZM21 13L21 14L22 14L22 13ZM13 16L13 17L14 17L14 16ZM17 16L17 17L16 17L16 18L15 18L15 20L14 20L14 21L16 21L16 22L14 22L14 23L16 23L16 24L15 24L15 25L16 25L16 24L17 24L17 22L18 22L18 21L19 21L19 20L20 20L20 19L18 19L18 18L20 18L20 17L19 17L19 16ZM42 16L42 17L43 17L43 16ZM21 17L21 18L22 18L22 17ZM56 18L56 19L55 19L55 20L56 20L56 19L57 19L57 18ZM23 19L23 20L24 20L24 21L23 21L23 22L22 22L22 21L21 21L21 23L22 23L22 24L23 24L23 26L22 26L22 27L21 27L21 28L20 28L20 29L19 29L19 32L18 32L18 33L17 33L17 35L16 35L16 36L18 36L18 37L19 37L19 38L20 38L20 37L19 37L19 36L20 36L20 33L21 33L21 32L20 32L20 29L21 29L21 28L22 28L22 27L23 27L23 26L25 26L25 27L27 27L27 26L25 26L25 25L26 25L26 24L25 24L25 23L24 23L24 24L23 24L23 22L25 22L25 21L26 21L26 20L24 20L24 19ZM62 19L62 20L63 20L63 19ZM5 20L5 21L10 21L10 20ZM16 20L16 21L18 21L18 20ZM30 20L30 21L31 21L31 20ZM33 20L33 21L34 21L34 20ZM4 22L4 23L5 23L5 22ZM47 22L47 23L46 23L46 24L47 24L47 23L48 23L48 22ZM56 22L56 24L60 24L60 25L59 25L59 26L58 26L58 25L57 25L57 26L56 26L56 25L53 25L53 26L56 26L56 29L57 29L57 26L58 26L58 27L59 27L59 26L61 26L61 24L62 24L62 23L61 23L61 24L60 24L60 23L57 23L57 22ZM20 24L20 25L21 25L21 24ZM27 24L27 25L28 25L28 24ZM31 24L31 26L32 26L32 28L34 28L34 27L35 27L35 26L32 26L32 24ZM10 25L10 26L9 26L9 27L10 27L10 26L11 26L11 25ZM29 25L29 26L28 26L28 27L29 27L29 26L30 26L30 25ZM42 27L42 28L43 28L43 27ZM64 27L64 28L63 28L63 29L64 29L64 30L65 30L65 27ZM15 29L15 30L16 30L16 29ZM39 29L39 30L38 30L38 32L36 32L36 33L37 33L37 34L38 34L38 32L39 32L39 30L40 30L40 29ZM24 30L24 31L25 31L25 30ZM28 30L28 31L27 31L27 33L28 33L28 31L29 31L29 30ZM48 30L48 32L49 32L49 30ZM53 30L53 31L54 31L54 30ZM5 31L5 34L8 34L8 31ZM31 31L31 34L34 34L34 31ZM57 31L57 34L60 34L60 31ZM61 31L61 32L63 32L63 31ZM6 32L6 33L7 33L7 32ZM32 32L32 33L33 33L33 32ZM51 32L51 33L52 33L52 32ZM58 32L58 33L59 33L59 32ZM18 33L18 35L19 35L19 33ZM49 35L49 36L50 36L50 35ZM4 36L4 37L5 37L5 38L6 38L6 39L7 39L7 38L6 38L6 37L11 37L11 36ZM24 36L24 37L27 37L27 36ZM30 36L30 37L31 37L31 39L30 39L30 40L28 40L28 41L30 41L30 42L29 42L29 43L28 43L28 42L27 42L27 45L28 45L28 44L30 44L30 46L29 46L29 47L28 47L28 48L27 48L27 47L25 47L25 49L26 49L26 50L27 50L27 49L29 49L29 48L30 48L30 47L32 47L32 41L33 41L33 40L32 40L32 41L30 41L30 40L31 40L31 39L33 39L33 38L32 38L32 37L33 37L33 36L32 36L32 37L31 37L31 36ZM43 36L43 37L41 37L41 39L42 39L42 40L43 40L43 41L41 41L41 42L42 42L42 44L41 44L41 45L42 45L42 46L41 46L41 47L40 47L40 48L38 48L38 49L40 49L40 48L41 48L41 47L42 47L42 46L44 46L44 47L43 47L43 48L47 48L47 49L49 49L49 50L50 50L50 47L52 47L52 46L50 46L50 43L49 43L49 44L47 44L47 42L46 42L46 41L45 41L45 42L46 42L46 43L44 43L44 40L43 40L43 38L45 38L45 39L46 39L46 38L45 38L45 37L44 37L44 36ZM52 37L52 38L53 38L53 37ZM63 37L63 38L64 38L64 37ZM23 38L23 39L25 39L25 40L26 40L26 38ZM10 39L10 41L11 41L11 39ZM36 39L36 40L37 40L37 39ZM39 39L39 40L40 40L40 39ZM51 41L51 44L52 44L52 42L53 42L53 41ZM4 42L4 43L5 43L5 42ZM19 42L19 43L20 43L20 42ZM30 42L30 44L31 44L31 42ZM37 43L37 44L38 44L38 43ZM43 43L43 44L44 44L44 45L45 45L45 44L44 44L44 43ZM61 43L61 44L62 44L62 45L63 45L63 46L62 46L62 47L63 47L63 46L65 46L65 45L64 45L64 44L62 44L62 43ZM46 44L46 46L47 46L47 47L49 47L49 45L48 45L48 46L47 46L47 44ZM6 45L6 46L7 46L7 45ZM35 45L35 46L37 46L37 45ZM18 46L18 47L19 47L19 46ZM6 48L6 49L7 49L7 48ZM26 48L26 49L27 49L27 48ZM45 49L45 50L46 50L46 53L47 53L47 54L49 54L49 53L51 53L51 52L53 52L53 51L54 51L54 50L56 50L56 49L52 49L52 51L51 51L51 52L49 52L49 51L48 51L48 50L46 50L46 49ZM6 51L6 52L7 52L7 51ZM47 51L47 52L48 52L48 51ZM9 52L9 53L8 53L8 54L10 54L10 55L9 55L9 56L8 56L8 57L9 57L9 56L11 56L11 53L10 53L10 52ZM14 52L14 54L12 54L12 55L15 55L15 56L12 56L12 57L10 57L10 58L12 58L12 59L10 59L10 60L11 60L11 61L12 61L12 62L10 62L10 63L12 63L12 64L14 64L14 63L13 63L13 61L14 61L14 59L13 59L13 57L16 57L16 56L17 56L17 53L15 53L15 52ZM28 52L28 53L29 53L29 52ZM32 52L32 53L33 53L33 52ZM6 53L6 54L7 54L7 53ZM19 53L19 54L20 54L20 53ZM24 54L24 55L25 55L25 54ZM26 54L26 55L27 55L27 54ZM33 55L33 56L34 56L34 55ZM38 55L38 56L37 56L37 57L38 57L38 56L40 56L40 55ZM54 55L54 56L56 56L56 55ZM31 57L31 60L34 60L34 57ZM57 57L57 60L60 60L60 57ZM15 58L15 59L16 59L16 58ZM32 58L32 59L33 59L33 58ZM41 58L41 59L42 59L42 58ZM50 58L50 59L49 59L49 60L48 60L48 64L47 64L47 65L49 65L49 64L50 64L50 65L51 65L51 64L52 64L52 63L51 63L51 62L52 62L52 61L51 61L51 62L49 62L49 61L50 61L50 59L51 59L51 60L52 60L52 59L51 59L51 58ZM58 58L58 59L59 59L59 58ZM35 59L35 60L36 60L36 59ZM62 59L62 60L63 60L63 59ZM12 60L12 61L13 61L13 60ZM16 60L16 62L15 62L15 64L16 64L16 63L17 63L17 62L18 62L18 61L17 61L17 60ZM23 60L23 61L21 61L21 63L23 63L23 64L24 64L24 65L26 65L26 64L28 64L28 62L26 62L26 60L25 60L25 61L24 61L24 60ZM30 61L30 62L31 62L31 61ZM36 61L36 63L37 63L37 61ZM59 61L59 62L61 62L61 61ZM62 61L62 63L60 63L60 64L63 64L63 61ZM23 62L23 63L24 63L24 62ZM25 63L25 64L26 64L26 63ZM30 63L30 64L32 64L32 63ZM0 0L0 7L7 7L7 0ZM1 1L1 6L6 6L6 1ZM2 2L2 5L5 5L5 2ZM58 0L58 7L65 7L65 0ZM59 1L59 6L64 6L64 1ZM60 2L60 5L63 5L63 2ZM0 58L0 65L7 65L7 58ZM1 59L1 64L6 64L6 59ZM2 60L2 63L5 63L5 60Z" fill="#000000"/></g></g></svg>
