<?xml version="1.0" encoding="UTF-8"?>
<svg xmlns="http://www.w3.org/2000/svg" version="1.1" width="100" height="100" viewBox="0 0 100 100"><rect x="0" y="0" width="100" height="100" fill="#ffffff"/><g transform="scale(1.538)"><g transform="translate(0,0)"><path fill-rule="evenodd" d="M9 0L9 1L13 1L13 2L12 2L12 3L13 3L13 6L12 6L12 4L11 4L11 5L10 5L10 7L11 7L11 6L12 6L12 8L11 8L11 9L10 9L10 8L9 8L9 9L10 9L10 11L8 11L8 10L6 10L6 9L8 9L8 8L5 8L5 11L4 11L4 13L5 13L5 14L6 14L6 15L4 15L4 16L3 16L3 15L2 15L2 14L1 14L1 16L2 16L2 17L3 17L3 18L2 18L2 20L3 20L3 21L2 21L2 23L1 23L1 19L0 19L0 25L1 25L1 27L0 27L0 28L1 28L1 29L2 29L2 30L3 30L3 31L4 31L4 36L3 36L3 34L2 34L2 36L3 36L3 37L4 37L4 36L5 36L5 39L2 39L2 37L1 37L1 39L2 39L2 40L0 40L0 42L2 42L2 43L5 43L5 42L6 42L6 43L7 43L7 44L6 44L6 45L7 45L7 46L4 46L4 48L5 48L5 49L3 49L3 48L2 48L2 49L3 49L3 50L2 50L2 51L1 51L1 52L0 52L0 54L1 54L1 52L2 52L2 55L3 55L3 56L1 56L1 55L0 55L0 56L1 56L1 57L3 57L3 56L4 56L4 57L5 57L5 56L4 56L4 54L5 54L5 55L7 55L7 56L6 56L6 57L7 57L7 56L8 56L8 60L9 60L9 61L11 61L11 60L10 60L10 59L12 59L12 58L9 58L9 55L7 55L7 54L8 54L8 52L11 52L11 51L13 51L13 53L12 53L12 54L11 54L11 55L10 55L10 57L13 57L13 56L11 56L11 55L12 55L12 54L13 54L13 55L14 55L14 56L15 56L15 55L14 55L14 54L16 54L16 51L17 51L17 52L18 52L18 53L19 53L19 56L18 56L18 54L17 54L17 55L16 55L16 57L14 57L14 58L13 58L13 60L12 60L12 62L9 62L9 63L8 63L8 65L9 65L9 64L10 64L10 65L12 65L12 63L14 63L14 64L13 64L13 65L14 65L14 64L15 64L15 65L20 65L20 64L21 64L21 63L22 63L22 64L24 64L24 65L26 65L26 63L25 63L25 62L27 62L27 63L28 63L28 64L27 64L27 65L31 65L31 64L32 64L32 62L33 62L33 64L35 64L35 65L39 65L39 63L41 63L41 64L42 64L42 65L44 65L44 64L45 64L45 65L46 65L46 64L48 64L48 65L49 65L49 64L48 64L48 62L49 62L49 63L50 63L50 61L53 61L53 62L55 62L55 63L53 63L53 65L54 65L54 64L55 64L55 63L56 63L56 65L61 65L61 64L62 64L62 65L63 65L63 63L64 63L64 64L65 64L65 63L64 63L64 62L63 62L63 61L64 61L64 59L63 59L63 60L62 60L62 58L64 58L64 57L63 57L63 56L62 56L62 55L61 55L61 54L62 54L62 53L64 53L64 55L65 55L65 53L64 53L64 51L62 51L62 50L63 50L63 49L64 49L64 50L65 50L65 48L64 48L64 47L63 47L63 46L62 46L62 43L61 43L61 45L60 45L60 42L61 42L61 41L59 41L59 40L58 40L58 39L57 39L57 37L58 37L58 36L59 36L59 35L60 35L60 36L61 36L61 37L59 37L59 39L60 39L60 38L61 38L61 40L62 40L62 41L64 41L64 43L65 43L65 39L62 39L62 38L65 38L65 37L62 37L62 35L63 35L63 36L64 36L64 35L63 35L63 32L64 32L64 34L65 34L65 32L64 32L64 31L65 31L65 28L64 28L64 29L63 29L63 27L61 27L61 25L62 25L62 23L63 23L63 22L65 22L65 21L63 21L63 20L64 20L64 19L65 19L65 16L64 16L64 14L65 14L65 13L64 13L64 12L65 12L65 11L64 11L64 12L63 12L63 13L64 13L64 14L63 14L63 15L62 15L62 13L61 13L61 11L63 11L63 10L65 10L65 9L62 9L62 8L60 8L60 9L57 9L57 8L56 8L56 9L54 9L54 8L53 8L53 6L52 6L52 4L56 4L56 5L57 5L57 4L56 4L56 3L57 3L57 1L56 1L56 0L55 0L55 1L56 1L56 3L55 3L55 2L54 2L54 3L53 3L53 0L50 0L50 1L49 1L49 0L48 0L48 1L49 1L49 2L48 2L48 3L47 3L47 4L49 4L49 5L50 5L50 7L49 7L49 6L48 6L48 7L47 7L47 6L46 6L46 5L44 5L44 4L45 4L45 2L46 2L46 1L47 1L47 0L46 0L46 1L45 1L45 2L44 2L44 3L43 3L43 2L42 2L42 3L43 3L43 4L42 4L42 5L40 5L40 8L41 8L41 9L39 9L39 8L38 8L38 7L39 7L39 5L38 5L38 4L39 4L39 2L40 2L40 4L41 4L41 2L40 2L40 0L38 0L38 2L37 2L37 1L35 1L35 0L33 0L33 1L32 1L32 0L30 0L30 2L29 2L29 0L28 0L28 1L26 1L26 0L24 0L24 1L26 1L26 2L29 2L29 3L30 3L30 5L29 5L29 6L28 6L28 7L27 7L27 6L26 6L26 7L25 7L25 6L24 6L24 5L26 5L26 4L27 4L27 5L28 5L28 3L25 3L25 2L24 2L24 4L23 4L23 3L22 3L22 2L21 2L21 3L20 3L20 1L22 1L22 0L20 0L20 1L18 1L18 3L15 3L15 5L14 5L14 2L15 2L15 0L14 0L14 1L13 1L13 0ZM42 0L42 1L43 1L43 0ZM50 1L50 5L51 5L51 2L52 2L52 1ZM32 2L32 3L33 3L33 2ZM34 2L34 3L35 3L35 2ZM8 3L8 5L9 5L9 3ZM19 3L19 4L18 4L18 6L17 6L17 7L16 7L16 5L17 5L17 4L16 4L16 5L15 5L15 7L14 7L14 6L13 6L13 7L14 7L14 9L11 9L11 10L12 10L12 11L10 11L10 12L9 12L9 14L12 14L12 13L11 13L11 12L13 12L13 13L14 13L14 15L13 15L13 17L14 17L14 18L13 18L13 19L15 19L15 21L10 21L10 20L11 20L11 19L12 19L12 16L11 16L11 17L10 17L10 18L9 18L9 15L8 15L8 17L6 17L6 16L7 16L7 15L6 15L6 16L4 16L4 17L5 17L5 18L7 18L7 19L4 19L4 20L5 20L5 21L3 21L3 22L5 22L5 21L6 21L6 22L7 22L7 23L6 23L6 24L4 24L4 28L8 28L8 27L9 27L9 29L10 29L10 30L9 30L9 31L10 31L10 30L14 30L14 29L15 29L15 28L16 28L16 29L17 29L17 27L16 27L16 26L18 26L18 24L20 24L20 26L21 26L21 27L22 27L22 29L21 29L21 28L19 28L19 27L18 27L18 28L19 28L19 29L18 29L18 31L20 31L20 32L19 32L19 33L20 33L20 32L21 32L21 33L22 33L22 34L23 34L23 35L20 35L20 34L18 34L18 33L17 33L17 32L16 32L16 33L17 33L17 34L16 34L16 36L15 36L15 35L13 35L13 36L15 36L15 37L12 37L12 39L15 39L15 40L14 40L14 42L12 42L12 41L13 41L13 40L12 40L12 41L9 41L9 42L7 42L7 41L6 41L6 42L7 42L7 43L9 43L9 42L11 42L11 43L13 43L13 45L11 45L11 46L9 46L9 45L10 45L10 44L9 44L9 45L8 45L8 46L7 46L7 47L5 47L5 48L7 48L7 49L5 49L5 51L2 51L2 52L3 52L3 53L4 53L4 52L5 52L5 54L7 54L7 53L6 53L6 52L7 52L7 51L9 51L9 50L10 50L10 49L9 49L9 48L10 48L10 47L11 47L11 50L13 50L13 51L14 51L14 53L15 53L15 51L14 51L14 49L12 49L12 47L13 47L13 45L15 45L15 46L14 46L14 48L15 48L15 50L17 50L17 49L18 49L18 47L19 47L19 49L20 49L20 51L21 51L21 50L22 50L22 48L23 48L23 50L24 50L24 49L26 49L26 50L25 50L25 51L23 51L23 52L21 52L21 53L20 53L20 52L19 52L19 53L20 53L20 55L21 55L21 58L23 58L23 61L22 61L22 59L20 59L20 58L19 58L19 60L20 60L20 62L23 62L23 63L24 63L24 62L23 62L23 61L25 61L25 60L24 60L24 58L23 58L23 55L21 55L21 54L23 54L23 52L24 52L24 53L27 53L27 52L26 52L26 51L27 51L27 49L26 49L26 48L27 48L27 47L28 47L28 48L29 48L29 47L28 47L28 44L29 44L29 43L27 43L27 44L26 44L26 45L25 45L25 46L26 46L26 48L25 48L25 47L23 47L23 46L22 46L22 45L24 45L24 43L25 43L25 42L22 42L22 43L23 43L23 44L21 44L21 43L20 43L20 42L21 42L21 41L24 41L24 40L23 40L23 39L25 39L25 40L26 40L26 42L27 42L27 41L28 41L28 42L30 42L30 43L31 43L31 45L32 45L32 44L34 44L34 42L35 42L35 41L33 41L33 40L34 40L34 39L35 39L35 40L37 40L37 41L38 41L38 43L37 43L37 42L36 42L36 43L37 43L37 44L39 44L39 45L40 45L40 46L37 46L37 45L36 45L36 46L37 46L37 47L35 47L35 45L34 45L34 46L33 46L33 47L32 47L32 49L31 49L31 50L30 50L30 49L28 49L28 54L29 54L29 55L28 55L28 56L26 56L26 54L25 54L25 56L24 56L24 57L25 57L25 56L26 56L26 57L28 57L28 56L29 56L29 55L30 55L30 56L39 56L39 57L40 57L40 58L41 58L41 59L43 59L43 58L42 58L42 57L41 57L41 55L43 55L43 56L44 56L44 58L45 58L45 56L46 56L46 57L47 57L47 58L46 58L46 62L48 62L48 61L47 61L47 60L49 60L49 61L50 61L50 60L51 60L51 59L52 59L52 58L53 58L53 59L56 59L56 58L54 58L54 56L55 56L55 57L56 57L56 56L57 56L57 55L58 55L58 56L60 56L60 54L59 54L59 53L60 53L60 52L61 52L61 53L62 53L62 52L61 52L61 51L60 51L60 49L61 49L61 50L62 50L62 49L63 49L63 47L62 47L62 46L60 46L60 45L59 45L59 46L58 46L58 44L59 44L59 43L58 43L58 42L59 42L59 41L58 41L58 40L55 40L55 41L56 41L56 42L57 42L57 43L58 43L58 44L57 44L57 46L58 46L58 47L59 47L59 50L58 50L58 49L57 49L57 48L56 48L56 47L55 47L55 46L56 46L56 44L55 44L55 46L54 46L54 47L53 47L53 45L54 45L54 42L53 42L53 44L52 44L52 46L49 46L49 45L48 45L48 44L50 44L50 43L51 43L51 41L53 41L53 40L54 40L54 38L53 38L53 37L50 37L50 39L51 39L51 38L52 38L52 39L53 39L53 40L51 40L51 41L50 41L50 40L49 40L49 41L47 41L47 40L48 40L48 38L47 38L47 37L48 37L48 36L49 36L49 35L47 35L47 34L45 34L45 33L46 33L46 32L44 32L44 31L48 31L48 32L51 32L51 33L54 33L54 32L55 32L55 31L56 31L56 30L57 30L57 29L58 29L58 30L59 30L59 28L60 28L60 24L61 24L61 23L60 23L60 22L58 22L58 23L57 23L57 24L58 24L58 23L60 23L60 24L59 24L59 25L58 25L58 27L59 27L59 28L56 28L56 30L55 30L55 31L54 31L54 30L53 30L53 28L54 28L54 29L55 29L55 27L56 27L56 26L57 26L57 25L56 25L56 26L52 26L52 23L50 23L50 22L49 22L49 21L48 21L48 22L49 22L49 23L47 23L47 22L46 22L46 23L45 23L45 21L46 21L46 20L48 20L48 18L47 18L47 17L46 17L46 16L44 16L44 15L47 15L47 16L49 16L49 14L48 14L48 10L46 10L46 11L47 11L47 12L45 12L45 13L46 13L46 14L44 14L44 13L43 13L43 15L42 15L42 14L41 14L41 13L42 13L42 12L43 12L43 11L44 11L44 10L45 10L45 9L47 9L47 8L46 8L46 6L45 6L45 7L44 7L44 5L42 5L42 6L41 6L41 8L43 8L43 7L44 7L44 9L43 9L43 10L40 10L40 11L39 11L39 10L37 10L37 9L38 9L38 8L37 8L37 7L38 7L38 6L37 6L37 5L36 5L36 4L35 4L35 8L37 8L37 9L36 9L36 10L37 10L37 11L35 11L35 10L34 10L34 11L33 11L33 10L32 10L32 9L31 9L31 11L32 11L32 12L29 12L29 10L30 10L30 6L29 6L29 7L28 7L28 9L29 9L29 10L28 10L28 11L27 11L27 7L26 7L26 8L25 8L25 7L24 7L24 6L23 6L23 4L20 4L20 3ZM19 4L19 6L18 6L18 9L19 9L19 12L18 12L18 11L17 11L17 13L16 13L16 15L14 15L14 17L15 17L15 18L16 18L16 15L17 15L17 16L18 16L18 17L17 17L17 18L18 18L18 19L16 19L16 20L18 20L18 21L16 21L16 22L17 22L17 24L18 24L18 21L19 21L19 22L21 22L21 23L23 23L23 22L24 22L24 23L26 23L26 21L23 21L23 22L22 22L22 21L19 21L19 20L18 20L18 19L19 19L19 18L20 18L20 20L21 20L21 19L22 19L22 20L23 20L23 19L25 19L25 18L26 18L26 19L27 19L27 20L28 20L28 21L27 21L27 24L26 24L26 25L24 25L24 24L22 24L22 25L21 25L21 26L22 26L22 25L23 25L23 28L25 28L25 29L22 29L22 30L20 30L20 29L19 29L19 30L20 30L20 31L23 31L23 32L28 32L28 34L27 34L27 35L26 35L26 33L23 33L23 34L24 34L24 36L22 36L22 38L26 38L26 40L28 40L28 41L29 41L29 40L30 40L30 41L31 41L31 42L32 42L32 43L33 43L33 42L32 42L32 41L31 41L31 39L33 39L33 38L35 38L35 39L36 39L36 38L38 38L38 37L39 37L39 38L40 38L40 37L41 37L41 38L42 38L42 39L41 39L41 41L40 41L40 39L39 39L39 40L38 40L38 39L37 39L37 40L38 40L38 41L40 41L40 42L39 42L39 44L41 44L41 46L42 46L42 47L41 47L41 48L40 48L40 47L39 47L39 48L40 48L40 49L39 49L39 50L44 50L44 51L41 51L41 52L42 52L42 54L43 54L43 53L44 53L44 51L45 51L45 52L47 52L47 54L46 54L46 53L45 53L45 54L44 54L44 55L46 55L46 56L47 56L47 57L49 57L49 58L47 58L47 59L50 59L50 58L52 58L52 57L51 57L51 56L49 56L49 55L48 55L48 54L50 54L50 55L51 55L51 54L52 54L52 53L51 53L51 52L53 52L53 54L54 54L54 55L53 55L53 56L54 56L54 55L55 55L55 56L56 56L56 55L57 55L57 54L58 54L58 55L59 55L59 54L58 54L58 52L57 52L57 51L55 51L55 52L53 52L53 51L54 51L54 50L56 50L56 48L55 48L55 47L54 47L54 50L53 50L53 48L52 48L52 50L51 50L51 51L48 51L48 52L47 52L47 50L46 50L46 51L45 51L45 49L47 49L47 48L45 48L45 47L44 47L44 46L45 46L45 45L46 45L46 47L48 47L48 45L46 45L46 44L48 44L48 42L46 42L46 40L47 40L47 38L46 38L46 40L45 40L45 37L47 37L47 36L46 36L46 35L45 35L45 36L44 36L44 35L43 35L43 36L41 36L41 35L42 35L42 34L44 34L44 32L43 32L43 31L42 31L42 30L45 30L45 29L44 29L44 28L46 28L46 29L47 29L47 30L48 30L48 31L50 31L50 30L49 30L49 28L47 28L47 27L48 27L48 26L47 26L47 27L45 27L45 26L46 26L46 25L47 25L47 23L46 23L46 25L45 25L45 24L44 24L44 21L43 21L43 20L46 20L46 17L44 17L44 16L43 16L43 17L42 17L42 15L41 15L41 14L39 14L39 16L40 16L40 15L41 15L41 17L40 17L40 18L39 18L39 19L40 19L40 18L41 18L41 19L42 19L42 18L43 18L43 20L41 20L41 24L40 24L40 23L39 23L39 22L40 22L40 21L38 21L38 19L37 19L37 18L36 18L36 17L37 17L37 15L38 15L38 13L37 13L37 12L36 12L36 14L35 14L35 15L36 15L36 16L35 16L35 18L36 18L36 19L34 19L34 18L33 18L33 17L34 17L34 12L32 12L32 15L31 15L31 13L29 13L29 15L28 15L28 17L26 17L26 15L27 15L27 14L28 14L28 13L27 13L27 11L25 11L25 10L26 10L26 9L24 9L24 7L23 7L23 6L22 6L22 7L23 7L23 9L22 9L22 10L21 10L21 9L20 9L20 8L19 8L19 6L20 6L20 7L21 7L21 5L20 5L20 4ZM31 5L31 8L34 8L34 5ZM54 5L54 7L55 7L55 5ZM8 6L8 7L9 7L9 6ZM32 6L32 7L33 7L33 6ZM36 6L36 7L37 7L37 6ZM42 6L42 7L43 7L43 6ZM51 6L51 9L52 9L52 12L50 12L50 14L51 14L51 15L52 15L52 16L50 16L50 18L49 18L49 19L50 19L50 21L52 21L52 22L53 22L53 19L52 19L52 18L53 18L53 17L54 17L54 16L55 16L55 17L56 17L56 18L57 18L57 17L58 17L58 19L56 19L56 20L55 20L55 23L53 23L53 25L54 25L54 24L56 24L56 20L59 20L59 19L60 19L60 20L61 20L61 19L60 19L60 17L59 17L59 16L58 16L58 14L60 14L60 16L61 16L61 14L60 14L60 11L61 11L61 10L62 10L62 9L61 9L61 10L59 10L59 11L58 11L58 12L59 12L59 13L58 13L58 14L57 14L57 12L56 12L56 11L54 11L54 10L53 10L53 8L52 8L52 6ZM56 6L56 7L57 7L57 6ZM48 7L48 8L49 8L49 9L50 9L50 8L49 8L49 7ZM0 8L0 9L1 9L1 10L0 10L0 12L1 12L1 13L3 13L3 12L1 12L1 10L2 10L2 11L3 11L3 9L2 9L2 8ZM15 8L15 9L16 9L16 10L14 10L14 11L13 11L13 12L14 12L14 13L15 13L15 12L16 12L16 10L17 10L17 9L16 9L16 8ZM22 10L22 11L21 11L21 13L20 13L20 12L19 12L19 13L18 13L18 14L17 14L17 15L19 15L19 13L20 13L20 18L21 18L21 17L22 17L22 19L23 19L23 17L25 17L25 14L24 14L24 15L22 15L22 14L23 14L23 13L26 13L26 12L25 12L25 11L23 11L23 10ZM49 10L49 11L51 11L51 10ZM6 11L6 12L5 12L5 13L6 13L6 14L8 14L8 11ZM22 11L22 13L23 13L23 11ZM40 11L40 13L41 13L41 12L42 12L42 11ZM6 12L6 13L7 13L7 12ZM52 12L52 13L51 13L51 14L52 14L52 13L53 13L53 12ZM55 12L55 13L54 13L54 14L55 14L55 16L56 16L56 17L57 17L57 14L56 14L56 12ZM47 14L47 15L48 15L48 14ZM21 15L21 16L22 16L22 15ZM32 15L32 17L30 17L30 16L29 16L29 17L28 17L28 18L27 18L27 19L28 19L28 20L29 20L29 21L30 21L30 20L29 20L29 18L32 18L32 19L31 19L31 20L32 20L32 21L31 21L31 23L32 23L32 21L33 21L33 20L34 20L34 21L35 21L35 22L34 22L34 23L33 23L33 24L34 24L34 23L35 23L35 25L32 25L32 24L29 24L29 23L28 23L28 24L27 24L27 26L26 26L26 27L25 27L25 28L26 28L26 29L25 29L25 30L24 30L24 31L26 31L26 29L28 29L28 32L29 32L29 33L30 33L30 32L29 32L29 31L30 31L30 30L29 30L29 29L30 29L30 28L29 28L29 27L30 27L30 26L31 26L31 25L32 25L32 26L35 26L35 27L36 27L36 28L35 28L35 29L34 29L34 30L36 30L36 32L35 32L35 33L36 33L36 34L35 34L35 36L33 36L33 37L32 37L32 35L31 35L31 37L30 37L30 34L28 34L28 35L27 35L27 38L29 38L29 39L28 39L28 40L29 40L29 39L31 39L31 37L32 37L32 38L33 38L33 37L35 37L35 38L36 38L36 34L37 34L37 33L41 33L41 32L40 32L40 31L41 31L41 29L43 29L43 28L41 28L41 27L42 27L42 26L41 26L41 25L43 25L43 27L44 27L44 24L41 24L41 25L40 25L40 24L39 24L39 25L38 25L38 26L37 26L37 25L36 25L36 23L37 23L37 21L35 21L35 20L34 20L34 19L33 19L33 18L32 18L32 17L33 17L33 15ZM0 17L0 18L1 18L1 17ZM18 17L18 18L19 18L19 17ZM51 17L51 18L50 18L50 19L51 19L51 18L52 18L52 17ZM61 17L61 18L62 18L62 20L63 20L63 19L64 19L64 18L63 18L63 17ZM10 18L10 19L11 19L11 18ZM54 18L54 19L55 19L55 18ZM7 19L7 20L6 20L6 21L7 21L7 22L8 22L8 21L9 21L9 20L8 20L8 19ZM32 19L32 20L33 20L33 19ZM9 22L9 23L8 23L8 24L6 24L6 25L7 25L7 26L6 26L6 27L8 27L8 26L11 26L11 28L10 28L10 29L11 29L11 28L12 28L12 29L13 29L13 27L14 27L14 26L16 26L16 25L14 25L14 24L15 24L15 23L14 23L14 22L13 22L13 27L12 27L12 26L11 26L11 25L12 25L12 23L11 23L11 25L10 25L10 22ZM42 22L42 23L43 23L43 22ZM49 23L49 24L48 24L48 25L49 25L49 26L50 26L50 29L51 29L51 30L52 30L52 31L51 31L51 32L53 32L53 30L52 30L52 26L50 26L50 25L51 25L51 24L50 24L50 23ZM1 24L1 25L2 25L2 24ZM8 24L8 25L9 25L9 24ZM49 24L49 25L50 25L50 24ZM64 24L64 25L63 25L63 26L64 26L64 25L65 25L65 24ZM39 25L39 27L40 27L40 25ZM27 26L27 27L29 27L29 26ZM36 26L36 27L37 27L37 26ZM2 27L2 28L3 28L3 27ZM32 27L32 29L33 29L33 28L34 28L34 27ZM28 28L28 29L29 29L29 28ZM36 28L36 30L38 30L38 32L39 32L39 31L40 31L40 30L38 30L38 29L39 29L39 28L38 28L38 29L37 29L37 28ZM61 28L61 29L60 29L60 30L61 30L61 31L62 31L62 32L61 32L61 34L62 34L62 32L63 32L63 31L64 31L64 30L63 30L63 29L62 29L62 28ZM3 29L3 30L7 30L7 29ZM0 30L0 33L1 33L1 32L2 32L2 33L3 33L3 32L2 32L2 31L1 31L1 30ZM16 30L16 31L17 31L17 30ZM5 31L5 34L8 34L8 31ZM11 31L11 32L10 32L10 33L9 33L9 34L10 34L10 36L8 36L8 35L6 35L6 36L7 36L7 37L6 37L6 38L7 38L7 39L5 39L5 40L7 40L7 39L9 39L9 38L10 38L10 39L11 39L11 38L10 38L10 36L11 36L11 34L12 34L12 33L13 33L13 34L14 34L14 33L15 33L15 32L13 32L13 31ZM31 31L31 34L34 34L34 31ZM57 31L57 34L60 34L60 31ZM6 32L6 33L7 33L7 32ZM32 32L32 33L33 33L33 32ZM36 32L36 33L37 33L37 32ZM58 32L58 33L59 33L59 32ZM48 33L48 34L50 34L50 33ZM55 33L55 34L54 34L54 35L53 35L53 34L51 34L51 35L50 35L50 36L52 36L52 35L53 35L53 36L56 36L56 37L57 37L57 36L56 36L56 33ZM0 34L0 36L1 36L1 34ZM17 34L17 38L16 38L16 39L17 39L17 40L16 40L16 41L15 41L15 42L14 42L14 43L15 43L15 45L16 45L16 46L17 46L17 47L15 47L15 48L17 48L17 47L18 47L18 45L19 45L19 47L20 47L20 46L21 46L21 45L19 45L19 44L17 44L17 45L16 45L16 41L17 41L17 40L18 40L18 41L21 41L21 40L22 40L22 39L21 39L21 40L18 40L18 39L17 39L17 38L18 38L18 37L19 37L19 39L20 39L20 37L19 37L19 35L18 35L18 34ZM38 34L38 36L37 36L37 37L38 37L38 36L39 36L39 37L40 37L40 35L41 35L41 34L40 34L40 35L39 35L39 34ZM28 35L28 36L29 36L29 35ZM24 36L24 37L26 37L26 36ZM43 36L43 39L44 39L44 36ZM7 37L7 38L9 38L9 37ZM61 37L61 38L62 38L62 37ZM2 40L2 42L3 42L3 41L4 41L4 42L5 42L5 41L4 41L4 40ZM44 40L44 41L43 41L43 42L41 42L41 43L42 43L42 45L43 45L43 46L44 46L44 45L45 45L45 44L46 44L46 42L45 42L45 40ZM49 41L49 42L50 42L50 41ZM17 42L17 43L19 43L19 42ZM44 42L44 43L45 43L45 42ZM0 43L0 44L1 44L1 45L0 45L0 47L3 47L3 46L2 46L2 45L5 45L5 44L1 44L1 43ZM43 44L43 45L44 45L44 44ZM63 44L63 45L64 45L64 44ZM29 45L29 46L30 46L30 45ZM59 46L59 47L60 47L60 46ZM7 47L7 48L9 48L9 47ZM30 47L30 48L31 48L31 47ZM33 47L33 49L35 49L35 50L36 50L36 49L37 49L37 50L38 50L38 48L36 48L36 49L35 49L35 48L34 48L34 47ZM43 47L43 49L44 49L44 47ZM49 47L49 48L48 48L48 50L50 50L50 49L51 49L51 48L50 48L50 47ZM61 47L61 49L62 49L62 47ZM0 48L0 49L1 49L1 48ZM20 48L20 49L21 49L21 48ZM7 49L7 50L6 50L6 51L5 51L5 52L6 52L6 51L7 51L7 50L9 50L9 49ZM18 50L18 51L19 51L19 50ZM29 50L29 51L30 51L30 50ZM32 50L32 51L31 51L31 52L32 52L32 51L33 51L33 50ZM34 51L34 52L35 52L35 53L34 53L34 55L37 55L37 54L38 54L38 53L37 53L37 52L35 52L35 51ZM29 52L29 53L30 53L30 52ZM49 52L49 53L50 53L50 54L51 54L51 53L50 53L50 52ZM55 52L55 55L56 55L56 53L57 53L57 52ZM9 53L9 54L10 54L10 53ZM31 53L31 54L30 54L30 55L32 55L32 53ZM35 53L35 54L37 54L37 53ZM40 53L40 54L39 54L39 55L41 55L41 53ZM47 55L47 56L48 56L48 55ZM17 57L17 59L16 59L16 58L14 58L14 60L15 60L15 61L13 61L13 62L15 62L15 61L16 61L16 62L18 62L18 57ZM31 57L31 60L34 60L34 57ZM36 57L36 58L35 58L35 59L36 59L36 58L37 58L37 57ZM57 57L57 60L60 60L60 57ZM61 57L61 58L62 58L62 57ZM25 58L25 59L26 59L26 58ZM27 58L27 60L29 60L29 61L28 61L28 62L29 62L29 61L30 61L30 62L32 62L32 61L30 61L30 59L29 59L29 58ZM32 58L32 59L33 59L33 58ZM38 58L38 59L37 59L37 60L38 60L38 62L36 62L36 60L35 60L35 62L34 62L34 63L35 63L35 64L36 64L36 63L38 63L38 62L39 62L39 58ZM58 58L58 59L59 59L59 58ZM42 60L42 61L40 61L40 62L42 62L42 63L43 63L43 64L44 64L44 62L45 62L45 61L44 61L44 62L42 62L42 61L43 61L43 60ZM53 60L53 61L54 61L54 60ZM61 60L61 61L58 61L58 62L57 62L57 61L55 61L55 62L56 62L56 63L59 63L59 62L61 62L61 61L62 61L62 60ZM15 63L15 64L16 64L16 63ZM17 63L17 64L18 64L18 63ZM19 63L19 64L20 64L20 63ZM29 63L29 64L30 64L30 63ZM60 63L60 64L61 64L61 63ZM50 64L50 65L51 65L51 64ZM0 0L0 7L7 7L7 0ZM1 1L1 6L6 6L6 1ZM2 2L2 5L5 5L5 2ZM58 0L58 7L65 7L65 0ZM59 1L59 6L64 6L64 1ZM60 2L60 5L63 5L63 2ZM0 58L0 65L7 65L7 58ZM1 59L1 64L6 64L6 59ZM2 60L2 63L5 63L5 60Z" fill="#000000"/></g></g></svg>
