<?xml version="1.0" encoding="UTF-8"?>
<svg xmlns="http://www.w3.org/2000/svg" version="1.1" width="100" height="100" viewBox="0 0 100 100"><rect x="0" y="0" width="100" height="100" fill="#ffffff"/><g transform="scale(1.538)"><g transform="translate(0,0)"><path fill-rule="evenodd" d="M8 0L8 4L9 4L9 5L8 5L8 7L9 7L9 6L10 6L10 9L9 9L9 10L8 10L8 9L7 9L7 8L4 8L4 9L3 9L3 11L4 11L4 10L5 10L5 9L7 9L7 10L6 10L6 11L5 11L5 12L6 12L6 13L4 13L4 15L5 15L5 17L8 17L8 18L4 18L4 19L3 19L3 17L2 17L2 16L3 16L3 13L2 13L2 12L1 12L1 13L0 13L0 14L1 14L1 13L2 13L2 15L0 15L0 16L1 16L1 17L0 17L0 22L1 22L1 20L2 20L2 21L3 21L3 22L2 22L2 24L3 24L3 22L4 22L4 20L5 20L5 19L7 19L7 20L6 20L6 21L7 21L7 22L5 22L5 23L7 23L7 22L8 22L8 23L10 23L10 24L11 24L11 25L12 25L12 26L13 26L13 25L12 25L12 24L13 24L13 23L12 23L12 22L14 22L14 24L15 24L15 26L14 26L14 27L13 27L13 28L11 28L11 27L9 27L9 26L10 26L10 25L9 25L9 24L6 24L6 25L7 25L7 26L6 26L6 27L7 27L7 28L5 28L5 24L4 24L4 25L2 25L2 26L1 26L1 27L2 27L2 28L1 28L1 29L2 29L2 33L0 33L0 34L2 34L2 33L4 33L4 34L3 34L3 35L4 35L4 36L5 36L5 37L7 37L7 36L8 36L8 35L9 35L9 37L8 37L8 38L6 38L6 39L8 39L8 41L9 41L9 42L6 42L6 43L4 43L4 39L5 39L5 38L4 38L4 37L2 37L2 38L3 38L3 39L2 39L2 40L3 40L3 42L2 42L2 41L1 41L1 42L2 42L2 43L1 43L1 44L0 44L0 45L2 45L2 46L1 46L1 47L0 47L0 49L1 49L1 50L0 50L0 51L1 51L1 52L0 52L0 53L1 53L1 52L2 52L2 53L3 53L3 52L5 52L5 53L7 53L7 52L6 52L6 51L7 51L7 50L5 50L5 49L9 49L9 50L11 50L11 49L13 49L13 48L14 48L14 47L15 47L15 49L14 49L14 50L13 50L13 51L12 51L12 53L11 53L11 51L10 51L10 52L9 52L9 53L8 53L8 54L5 54L5 55L7 55L7 56L6 56L6 57L8 57L8 58L9 58L9 57L10 57L10 58L11 58L11 59L12 59L12 60L9 60L9 59L8 59L8 61L9 61L9 62L12 62L12 63L13 63L13 64L9 64L9 63L8 63L8 65L13 65L13 64L14 64L14 63L15 63L15 62L14 62L14 61L13 61L13 59L12 59L12 58L14 58L14 59L15 59L15 60L16 60L16 61L17 61L17 62L16 62L16 63L17 63L17 64L16 64L16 65L19 65L19 63L20 63L20 62L21 62L21 65L22 65L22 62L21 62L21 61L22 61L22 58L21 58L21 57L22 57L22 56L21 56L21 57L20 57L20 56L19 56L19 55L21 55L21 53L22 53L22 51L23 51L23 52L24 52L24 50L25 50L25 49L27 49L27 50L26 50L26 53L27 53L27 54L26 54L26 55L27 55L27 56L26 56L26 57L24 57L24 56L23 56L23 57L24 57L24 58L25 58L25 59L23 59L23 60L25 60L25 61L23 61L23 63L24 63L24 62L25 62L25 65L33 65L33 64L31 64L31 63L32 63L32 62L33 62L33 61L34 61L34 62L36 62L36 65L38 65L38 64L39 64L39 65L40 65L40 64L41 64L41 63L44 63L44 65L45 65L45 63L47 63L47 62L46 62L46 59L44 59L44 58L43 58L43 56L44 56L44 57L45 57L45 58L46 58L46 57L48 57L48 58L49 58L49 59L48 59L48 60L47 60L47 61L49 61L49 60L50 60L50 62L49 62L49 63L50 63L50 62L51 62L51 61L52 61L52 63L51 63L51 64L50 64L50 65L52 65L52 64L53 64L53 65L56 65L56 64L53 64L53 62L54 62L54 63L56 63L56 62L55 62L55 61L61 61L61 60L62 60L62 59L64 59L64 61L65 61L65 57L64 57L64 56L65 56L65 53L64 53L64 52L65 52L65 49L64 49L64 51L63 51L63 54L62 54L62 47L61 47L61 46L62 46L62 45L63 45L63 44L64 44L64 48L65 48L65 42L64 42L64 41L65 41L65 38L64 38L64 39L63 39L63 38L62 38L62 35L63 35L63 33L65 33L65 32L64 32L64 31L65 31L65 29L62 29L62 27L63 27L63 26L64 26L64 28L65 28L65 26L64 26L64 25L65 25L65 24L64 24L64 23L65 23L65 21L64 21L64 20L65 20L65 16L64 16L64 20L63 20L63 21L62 21L62 22L63 22L63 21L64 21L64 23L63 23L63 24L64 24L64 25L62 25L62 23L61 23L61 24L60 24L60 22L61 22L61 20L62 20L62 19L63 19L63 17L62 17L62 14L61 14L61 16L60 16L60 15L59 15L59 16L57 16L57 14L58 14L58 13L56 13L56 12L57 12L57 11L58 11L58 12L59 12L59 13L62 13L62 10L63 10L63 9L64 9L64 12L63 12L63 13L64 13L64 14L63 14L63 15L65 15L65 13L64 13L64 12L65 12L65 8L61 8L61 9L60 9L60 8L59 8L59 10L58 10L58 9L57 9L57 8L54 8L54 9L52 9L52 8L53 8L53 6L54 6L54 7L55 7L55 5L53 5L53 3L54 3L54 4L56 4L56 5L57 5L57 4L56 4L56 3L57 3L57 1L56 1L56 0L55 0L55 1L56 1L56 3L55 3L55 2L53 2L53 1L54 1L54 0L52 0L52 2L49 2L49 1L48 1L48 3L47 3L47 2L46 2L46 0L44 0L44 1L43 1L43 0L40 0L40 1L39 1L39 0L38 0L38 2L40 2L40 1L42 1L42 2L43 2L43 3L40 3L40 4L41 4L41 5L42 5L42 7L43 7L43 9L42 9L42 11L43 11L43 12L44 12L44 14L43 14L43 13L42 13L42 12L41 12L41 13L38 13L38 12L37 12L37 11L39 11L39 9L40 9L40 7L41 7L41 6L40 6L40 7L39 7L39 3L37 3L37 4L38 4L38 5L37 5L37 6L36 6L36 7L35 7L35 3L36 3L36 2L37 2L37 1L35 1L35 2L34 2L34 0L33 0L33 1L31 1L31 0L30 0L30 1L28 1L28 0L23 0L23 1L21 1L21 0L20 0L20 1L21 1L21 3L20 3L20 2L19 2L19 1L18 1L18 2L17 2L17 1L16 1L16 2L15 2L15 4L16 4L16 3L18 3L18 2L19 2L19 4L17 4L17 5L19 5L19 6L18 6L18 7L17 7L17 6L16 6L16 5L14 5L14 3L13 3L13 0L12 0L12 2L11 2L11 0ZM50 0L50 1L51 1L51 0ZM9 1L9 3L10 3L10 5L11 5L11 8L12 8L12 9L13 9L13 10L9 10L9 12L8 12L8 11L6 11L6 12L7 12L7 13L6 13L6 14L5 14L5 15L6 15L6 16L9 16L9 14L7 14L7 13L9 13L9 12L10 12L10 15L11 15L11 12L12 12L12 13L15 13L15 12L16 12L16 11L17 11L17 12L19 12L19 13L16 13L16 14L15 14L15 16L14 16L14 14L12 14L12 17L13 17L13 18L12 18L12 19L11 19L11 18L10 18L10 20L12 20L12 19L13 19L13 21L14 21L14 22L15 22L15 21L17 21L17 22L16 22L16 23L15 23L15 24L16 24L16 26L17 26L17 27L18 27L18 28L20 28L20 29L19 29L19 30L18 30L18 29L17 29L17 28L16 28L16 27L14 27L14 29L15 29L15 30L14 30L14 31L15 31L15 32L17 32L17 31L18 31L18 32L20 32L20 33L19 33L19 34L18 34L18 35L17 35L17 33L15 33L15 34L16 34L16 35L14 35L14 34L13 34L13 35L11 35L11 34L9 34L9 35L11 35L11 36L10 36L10 37L9 37L9 38L8 38L8 39L9 39L9 38L11 38L11 39L10 39L10 40L9 40L9 41L10 41L10 42L9 42L9 43L6 43L6 44L3 44L3 45L4 45L4 46L3 46L3 48L4 48L4 46L5 46L5 47L6 47L6 48L7 48L7 47L6 47L6 46L8 46L8 47L9 47L9 46L8 46L8 45L10 45L10 46L12 46L12 48L13 48L13 47L14 47L14 46L15 46L15 45L13 45L13 46L12 46L12 45L11 45L11 43L12 43L12 42L15 42L15 43L17 43L17 45L16 45L16 47L17 47L17 48L16 48L16 52L17 52L17 53L14 53L14 52L13 52L13 53L12 53L12 54L11 54L11 53L9 53L9 54L10 54L10 56L13 56L13 57L14 57L14 58L15 58L15 59L16 59L16 58L17 58L17 61L18 61L18 63L19 63L19 62L20 62L20 61L18 61L18 59L20 59L20 60L21 60L21 59L20 59L20 57L19 57L19 58L18 58L18 57L16 57L16 55L17 55L17 53L18 53L18 54L20 54L20 53L18 53L18 52L21 52L21 51L22 51L22 50L20 50L20 49L21 49L21 48L22 48L22 49L23 49L23 47L24 47L24 49L25 49L25 48L26 48L26 47L27 47L27 48L28 48L28 50L27 50L27 52L28 52L28 50L32 50L32 53L33 53L33 54L34 54L34 53L35 53L35 55L33 55L33 56L36 56L36 52L34 52L34 53L33 53L33 51L34 51L34 50L35 50L35 51L37 51L37 52L38 52L38 51L39 51L39 52L40 52L40 53L39 53L39 56L40 56L40 58L41 58L41 60L40 60L40 59L39 59L39 58L38 58L38 57L36 57L36 58L35 58L35 60L36 60L36 59L37 59L37 62L38 62L38 63L39 63L39 64L40 64L40 63L41 63L41 60L42 60L42 61L43 61L43 62L44 62L44 59L43 59L43 58L41 58L41 56L40 56L40 55L42 55L42 56L43 56L43 55L42 55L42 53L41 53L41 52L40 52L40 51L42 51L42 49L44 49L44 50L43 50L43 53L44 53L44 56L46 56L46 55L45 55L45 53L44 53L44 50L45 50L45 49L46 49L46 50L48 50L48 51L50 51L50 49L49 49L49 50L48 50L48 49L47 49L47 48L48 48L48 47L47 47L47 45L46 45L46 44L45 44L45 45L44 45L44 43L47 43L47 42L49 42L49 43L50 43L50 44L49 44L49 46L50 46L50 48L51 48L51 46L50 46L50 44L52 44L52 46L53 46L53 44L54 44L54 45L55 45L55 46L54 46L54 49L55 49L55 50L53 50L53 48L52 48L52 50L51 50L51 52L49 52L49 54L50 54L50 55L49 55L49 57L51 57L51 58L52 58L52 57L53 57L53 56L54 56L54 57L55 57L55 58L54 58L54 61L55 61L55 59L56 59L56 57L55 57L55 56L54 56L54 55L52 55L52 54L50 54L50 53L53 53L53 52L55 52L55 50L57 50L57 51L58 51L58 52L59 52L59 51L58 51L58 49L59 49L59 47L60 47L60 48L61 48L61 47L60 47L60 46L59 46L59 47L58 47L58 45L57 45L57 46L56 46L56 45L55 45L55 44L56 44L56 43L57 43L57 44L60 44L60 43L57 43L57 42L56 42L56 41L55 41L55 43L53 43L53 42L54 42L54 38L53 38L53 39L50 39L50 38L49 38L49 37L48 37L48 38L47 38L47 37L46 37L46 38L45 38L45 37L44 37L44 36L42 36L42 35L46 35L46 36L47 36L47 35L48 35L48 36L49 36L49 34L50 34L50 33L51 33L51 31L52 31L52 33L53 33L53 34L52 34L52 35L51 35L51 36L52 36L52 37L51 37L51 38L52 38L52 37L55 37L55 39L56 39L56 40L57 40L57 39L58 39L58 41L61 41L61 43L62 43L62 44L61 44L61 45L62 45L62 44L63 44L63 43L64 43L64 42L63 42L63 41L64 41L64 40L63 40L63 39L62 39L62 41L61 41L61 39L60 39L60 40L59 40L59 39L58 39L58 38L59 38L59 37L61 37L61 36L59 36L59 35L57 35L57 37L55 37L55 36L56 36L56 33L55 33L55 35L54 35L54 32L53 32L53 31L52 31L52 30L50 30L50 29L54 29L54 28L56 28L56 29L55 29L55 31L56 31L56 29L57 29L57 28L58 28L58 30L59 30L59 28L60 28L60 27L61 27L61 26L62 26L62 25L60 25L60 27L59 27L59 25L58 25L58 27L56 27L56 25L57 25L57 24L58 24L58 23L59 23L59 21L58 21L58 20L60 20L60 19L59 19L59 17L58 17L58 18L57 18L57 19L58 19L58 20L56 20L56 19L55 19L55 18L56 18L56 16L55 16L55 15L56 15L56 13L55 13L55 12L56 12L56 11L57 11L57 10L56 10L56 9L55 9L55 10L54 10L54 11L55 11L55 12L53 12L53 10L52 10L52 13L53 13L53 15L54 15L54 16L55 16L55 18L54 18L54 21L55 21L55 20L56 20L56 21L57 21L57 24L56 24L56 22L55 22L55 24L54 24L54 25L55 25L55 26L53 26L53 27L49 27L49 26L50 26L50 25L51 25L51 22L50 22L50 21L51 21L51 20L50 20L50 21L46 21L46 20L48 20L48 18L49 18L49 17L47 17L47 16L46 16L46 15L48 15L48 16L49 16L49 15L50 15L50 16L52 16L52 17L51 17L51 18L52 18L52 22L53 22L53 23L52 23L52 25L53 25L53 23L54 23L54 22L53 22L53 16L52 16L52 14L51 14L51 15L50 15L50 13L51 13L51 11L50 11L50 9L47 9L47 8L46 8L46 6L47 6L47 7L48 7L48 8L49 8L49 7L50 7L50 8L51 8L51 7L52 7L52 6L53 6L53 5L52 5L52 3L48 3L48 4L49 4L49 5L50 5L50 4L51 4L51 5L52 5L52 6L51 6L51 7L50 7L50 6L49 6L49 7L48 7L48 5L47 5L47 3L46 3L46 2L45 2L45 3L44 3L44 4L43 4L43 7L44 7L44 4L46 4L46 5L45 5L45 9L46 9L46 10L45 10L45 11L44 11L44 10L43 10L43 11L44 11L44 12L45 12L45 11L46 11L46 14L44 14L44 15L45 15L45 16L46 16L46 18L45 18L45 21L43 21L43 20L42 20L42 19L39 19L39 20L37 20L37 21L34 21L34 22L38 22L38 21L40 21L40 22L41 22L41 20L42 20L42 21L43 21L43 23L39 23L39 24L40 24L40 25L39 25L39 27L37 27L37 26L38 26L38 25L37 25L37 26L36 26L36 25L34 25L34 27L33 27L33 28L34 28L34 29L33 29L33 30L36 30L36 31L35 31L35 32L38 32L38 33L37 33L37 34L35 34L35 35L32 35L32 36L36 36L36 35L37 35L37 36L38 36L38 37L36 37L36 38L35 38L35 39L36 39L36 40L37 40L37 41L35 41L35 43L34 43L34 44L33 44L33 45L34 45L34 46L33 46L33 47L30 47L30 48L28 48L28 47L29 47L29 46L32 46L32 45L29 45L29 43L30 43L30 44L32 44L32 43L33 43L33 42L32 42L32 43L30 43L30 41L28 41L28 39L29 39L29 38L30 38L30 36L27 36L27 35L30 35L30 34L29 34L29 33L30 33L30 32L29 32L29 33L26 33L26 30L28 30L28 31L29 31L29 29L25 29L25 27L29 27L29 28L30 28L30 30L31 30L31 29L32 29L32 28L31 28L31 27L32 27L32 26L33 26L33 25L32 25L32 24L34 24L34 23L33 23L33 21L32 21L32 19L31 19L31 18L32 18L32 16L33 16L33 14L31 14L31 15L29 15L29 16L28 16L28 15L27 15L27 14L29 14L29 13L32 13L32 12L33 12L33 13L34 13L34 14L35 14L35 15L38 15L38 16L37 16L37 17L35 17L35 16L34 16L34 19L35 19L35 18L36 18L36 19L37 19L37 17L39 17L39 15L40 15L40 14L39 14L39 15L38 15L38 13L37 13L37 14L36 14L36 11L37 11L37 10L36 10L36 11L35 11L35 9L34 9L34 10L32 10L32 12L31 12L31 9L30 9L30 6L29 6L29 5L30 5L30 4L28 4L28 6L27 6L27 3L29 3L29 2L28 2L28 1L26 1L26 3L25 3L25 5L24 5L24 2L25 2L25 1L23 1L23 4L22 4L22 3L21 3L21 5L22 5L22 6L21 6L21 7L20 7L20 6L19 6L19 7L18 7L18 8L19 8L19 10L20 10L20 11L17 11L17 10L16 10L16 9L17 9L17 8L15 8L15 7L16 7L16 6L15 6L15 7L14 7L14 6L13 6L13 7L12 7L12 5L13 5L13 4L11 4L11 2L10 2L10 1ZM30 1L30 2L31 2L31 1ZM32 2L32 4L33 4L33 2ZM31 5L31 8L34 8L34 5ZM22 6L22 7L21 7L21 8L24 8L24 9L20 9L20 10L21 10L21 11L22 11L22 12L23 12L23 10L24 10L24 11L25 11L25 12L26 12L26 13L21 13L21 12L20 12L20 16L21 16L21 17L19 17L19 15L18 15L18 16L17 16L17 15L16 15L16 16L17 16L17 17L19 17L19 19L17 19L17 18L16 18L16 19L15 19L15 18L13 18L13 19L14 19L14 21L15 21L15 20L16 20L16 19L17 19L17 21L18 21L18 22L17 22L17 23L18 23L18 24L17 24L17 25L20 25L20 26L19 26L19 27L20 27L20 28L21 28L21 29L20 29L20 31L21 31L21 33L20 33L20 34L19 34L19 35L20 35L20 36L18 36L18 37L17 37L17 35L16 35L16 36L15 36L15 38L14 38L14 37L13 37L13 38L12 38L12 36L11 36L11 38L12 38L12 39L11 39L11 40L10 40L10 41L11 41L11 42L12 42L12 41L11 41L11 40L12 40L12 39L13 39L13 38L14 38L14 40L13 40L13 41L18 41L18 45L17 45L17 47L18 47L18 48L17 48L17 50L18 50L18 51L20 51L20 50L18 50L18 49L19 49L19 48L20 48L20 47L21 47L21 46L22 46L22 47L23 47L23 46L25 46L25 47L26 47L26 46L25 46L25 45L23 45L23 46L22 46L22 44L20 44L20 43L21 43L21 42L22 42L22 40L21 40L21 41L20 41L20 43L19 43L19 40L18 40L18 39L17 39L17 38L18 38L18 37L20 37L20 39L22 39L22 36L24 36L24 37L23 37L23 38L25 38L25 36L24 36L24 35L25 35L25 34L26 34L26 33L24 33L24 32L25 32L25 29L23 29L23 30L21 30L21 29L22 29L22 28L24 28L24 26L28 26L28 25L29 25L29 26L30 26L30 27L31 27L31 26L30 26L30 24L29 24L29 22L30 22L30 23L31 23L31 24L32 24L32 22L30 22L30 20L29 20L29 19L28 19L28 21L27 21L27 20L24 20L24 19L25 19L25 18L26 18L26 19L27 19L27 18L28 18L28 17L27 17L27 15L26 15L26 13L29 13L29 12L30 12L30 9L29 9L29 12L27 12L27 11L28 11L28 9L27 9L27 8L29 8L29 6L28 6L28 7L27 7L27 6L26 6L26 7L25 7L25 6L24 6L24 7L23 7L23 6ZM32 6L32 7L33 7L33 6ZM37 6L37 7L36 7L36 8L38 8L38 6ZM56 6L56 7L57 7L57 6ZM13 7L13 8L14 8L14 7ZM24 7L24 8L25 8L25 11L26 11L26 8L25 8L25 7ZM0 8L0 11L1 11L1 10L2 10L2 8ZM61 9L61 10L59 10L59 11L61 11L61 10L62 10L62 9ZM14 10L14 12L15 12L15 10ZM40 10L40 11L41 11L41 10ZM46 10L46 11L48 11L48 13L47 13L47 14L48 14L48 13L49 13L49 11L48 11L48 10ZM12 11L12 12L13 12L13 11ZM34 12L34 13L35 13L35 12ZM54 13L54 15L55 15L55 13ZM6 14L6 15L7 15L7 14ZM22 14L22 18L20 18L20 19L19 19L19 22L18 22L18 23L21 23L21 24L20 24L20 25L21 25L21 26L20 26L20 27L21 27L21 26L22 26L22 27L23 27L23 26L22 26L22 25L23 25L23 24L22 24L22 23L21 23L21 22L23 22L23 23L24 23L24 22L23 22L23 20L22 20L22 21L21 21L21 19L22 19L22 18L23 18L23 17L26 17L26 16L23 16L23 14ZM24 14L24 15L25 15L25 14ZM41 14L41 15L42 15L42 14ZM10 16L10 17L11 17L11 16ZM30 16L30 18L31 18L31 16ZM40 16L40 18L41 18L41 17L43 17L43 19L44 19L44 16ZM1 17L1 18L2 18L2 17ZM60 17L60 18L61 18L61 19L62 19L62 18L61 18L61 17ZM8 18L8 20L9 20L9 18ZM46 18L46 19L47 19L47 18ZM9 21L9 22L11 22L11 21ZM20 21L20 22L21 22L21 21ZM25 21L25 22L26 22L26 24L24 24L24 25L26 25L26 24L27 24L27 25L28 25L28 23L27 23L27 21ZM28 21L28 22L29 22L29 21ZM45 21L45 23L43 23L43 25L40 25L40 27L39 27L39 29L37 29L37 27L34 27L34 28L35 28L35 29L37 29L37 31L41 31L41 30L43 30L43 31L42 31L42 32L41 32L41 35L42 35L42 34L43 34L43 31L44 31L44 34L45 34L45 33L47 33L47 34L49 34L49 33L50 33L50 32L49 32L49 31L50 31L50 30L49 30L49 28L47 28L47 27L48 27L48 26L49 26L49 24L48 24L48 23L50 23L50 22L48 22L48 23L47 23L47 22L46 22L46 21ZM0 23L0 25L1 25L1 23ZM11 23L11 24L12 24L12 23ZM37 23L37 24L38 24L38 23ZM21 24L21 25L22 25L22 24ZM46 24L46 26L47 26L47 24ZM44 25L44 26L41 26L41 27L40 27L40 29L39 29L39 30L40 30L40 29L42 29L42 28L43 28L43 29L44 29L44 28L46 28L46 27L45 27L45 25ZM3 26L3 28L4 28L4 26ZM7 26L7 27L8 27L8 30L9 30L9 29L11 29L11 30L10 30L10 32L9 32L9 33L11 33L11 32L12 32L12 33L13 33L13 32L12 32L12 31L13 31L13 29L11 29L11 28L9 28L9 27L8 27L8 26ZM41 27L41 28L42 28L42 27ZM53 27L53 28L54 28L54 27ZM58 27L58 28L59 28L59 27ZM5 29L5 30L7 30L7 29ZM46 29L46 31L45 31L45 30L44 30L44 31L45 31L45 32L46 32L46 31L47 31L47 30L48 30L48 29ZM61 29L61 30L62 30L62 32L61 32L61 33L63 33L63 31L64 31L64 30L62 30L62 29ZM0 30L0 32L1 32L1 30ZM16 30L16 31L17 31L17 30ZM5 31L5 34L8 34L8 31ZM22 31L22 33L21 33L21 34L20 34L20 35L24 35L24 33L23 33L23 31ZM31 31L31 34L34 34L34 31ZM57 31L57 34L60 34L60 31ZM6 32L6 33L7 33L7 32ZM32 32L32 33L33 33L33 32ZM58 32L58 33L59 33L59 32ZM38 33L38 34L37 34L37 35L40 35L40 34L39 34L39 33ZM64 34L64 35L65 35L65 34ZM5 35L5 36L7 36L7 35ZM26 36L26 39L23 39L23 42L27 42L27 43L26 43L26 45L27 45L27 47L28 47L28 45L27 45L27 44L28 44L28 41L27 41L27 38L28 38L28 37L27 37L27 36ZM39 36L39 37L38 37L38 38L39 38L39 39L40 39L40 40L39 40L39 41L38 41L38 42L37 42L37 43L36 43L36 44L34 44L34 45L38 45L38 46L34 46L34 47L35 47L35 48L34 48L34 49L35 49L35 50L37 50L37 47L38 47L38 50L39 50L39 51L40 51L40 50L41 50L41 49L40 49L40 48L42 48L42 47L43 47L43 48L44 48L44 49L45 49L45 48L47 48L47 47L44 47L44 46L43 46L43 41L42 41L42 40L41 40L41 39L40 39L40 36ZM64 36L64 37L65 37L65 36ZM0 37L0 39L1 39L1 37ZM16 37L16 38L15 38L15 40L16 40L16 38L17 38L17 37ZM31 37L31 38L32 38L32 37ZM41 37L41 38L43 38L43 39L45 39L45 40L44 40L44 42L46 42L46 41L45 41L45 40L46 40L46 39L47 39L47 38L46 38L46 39L45 39L45 38L43 38L43 37ZM57 37L57 38L56 38L56 39L57 39L57 38L58 38L58 37ZM33 38L33 40L32 40L32 39L31 39L31 41L34 41L34 38ZM36 38L36 39L37 39L37 40L38 40L38 39L37 39L37 38ZM48 38L48 39L49 39L49 40L47 40L47 41L50 41L50 43L52 43L52 40L51 40L51 41L50 41L50 39L49 39L49 38ZM5 40L5 41L7 41L7 40ZM25 40L25 41L26 41L26 40ZM40 40L40 41L39 41L39 42L41 42L41 44L40 44L40 45L39 45L39 43L38 43L38 45L39 45L39 46L40 46L40 45L41 45L41 46L42 46L42 42L41 42L41 40ZM62 42L62 43L63 43L63 42ZM9 43L9 44L10 44L10 43ZM13 43L13 44L14 44L14 43ZM23 43L23 44L25 44L25 43ZM6 44L6 45L5 45L5 46L6 46L6 45L7 45L7 44ZM18 45L18 47L20 47L20 45ZM45 45L45 46L46 46L46 45ZM1 47L1 48L2 48L2 47ZM10 47L10 49L11 49L11 47ZM39 47L39 48L40 48L40 47ZM56 47L56 48L55 48L55 49L57 49L57 48L58 48L58 47ZM30 48L30 49L32 49L32 50L33 50L33 49L32 49L32 48ZM2 49L2 50L1 50L1 51L2 51L2 52L3 52L3 51L4 51L4 49ZM39 49L39 50L40 50L40 49ZM52 50L52 51L53 51L53 50ZM60 50L60 53L59 53L59 55L58 55L58 54L56 54L56 56L61 56L61 54L60 54L60 53L61 53L61 50ZM30 51L30 52L31 52L31 51ZM46 52L46 54L47 54L47 55L48 55L48 52ZM23 53L23 54L22 54L22 55L23 55L23 54L24 54L24 55L25 55L25 53ZM28 53L28 54L27 54L27 55L28 55L28 56L27 56L27 57L28 57L28 59L27 59L27 58L26 58L26 60L28 60L28 59L30 59L30 57L28 57L28 56L29 56L29 55L30 55L30 53ZM37 53L37 56L38 56L38 53ZM2 54L2 55L3 55L3 56L1 56L1 55L0 55L0 56L1 56L1 57L3 57L3 56L4 56L4 57L5 57L5 56L4 56L4 54ZM12 54L12 55L13 55L13 56L14 56L14 57L15 57L15 58L16 58L16 57L15 57L15 55L13 55L13 54ZM28 54L28 55L29 55L29 54ZM63 54L63 55L62 55L62 56L64 56L64 54ZM8 55L8 57L9 57L9 55ZM31 55L31 56L32 56L32 55ZM50 55L50 56L51 56L51 57L52 57L52 55ZM31 57L31 60L34 60L34 57ZM57 57L57 60L60 60L60 57ZM61 57L61 59L62 59L62 57ZM32 58L32 59L33 59L33 58ZM58 58L58 59L59 59L59 58ZM42 59L42 60L43 60L43 59ZM50 59L50 60L52 60L52 61L53 61L53 60L52 60L52 59ZM38 60L38 62L39 62L39 63L40 63L40 60ZM25 61L25 62L26 62L26 63L27 63L27 64L29 64L29 63L31 63L31 62L32 62L32 61L31 61L31 62L29 62L29 61L28 61L28 62L27 62L27 61ZM57 62L57 63L58 63L58 65L64 65L64 64L65 64L65 62L62 62L62 63L60 63L60 64L59 64L59 63L58 63L58 62ZM34 63L34 65L35 65L35 63ZM62 63L62 64L63 64L63 63ZM23 64L23 65L24 65L24 64ZM42 64L42 65L43 65L43 64ZM47 64L47 65L49 65L49 64ZM0 0L0 7L7 7L7 0ZM1 1L1 6L6 6L6 1ZM2 2L2 5L5 5L5 2ZM58 0L58 7L65 7L65 0ZM59 1L59 6L64 6L64 1ZM60 2L60 5L63 5L63 2ZM0 58L0 65L7 65L7 58ZM1 59L1 64L6 64L6 59ZM2 60L2 63L5 63L5 60Z" fill="#000000"/></g></g></svg>
