<?xml version="1.0" encoding="UTF-8"?>
<svg xmlns="http://www.w3.org/2000/svg" version="1.1" width="100" height="100" viewBox="0 0 100 100"><rect x="0" y="0" width="100" height="100" fill="#ffffff"/><g transform="scale(1.538)"><g transform="translate(0,0)"><path fill-rule="evenodd" d="M9 0L9 1L8 1L8 3L9 3L9 4L8 4L8 8L6 8L6 9L7 9L7 10L6 10L6 11L7 11L7 12L6 12L6 13L5 13L5 14L4 14L4 15L7 15L7 16L6 16L6 17L7 17L7 18L4 18L4 16L1 16L1 13L0 13L0 16L1 16L1 17L2 17L2 18L1 18L1 19L2 19L2 20L1 20L1 21L0 21L0 23L1 23L1 21L3 21L3 23L2 23L2 25L1 25L1 24L0 24L0 26L1 26L1 28L0 28L0 30L1 30L1 31L0 31L0 33L1 33L1 32L2 32L2 34L3 34L3 37L2 37L2 36L0 36L0 39L2 39L2 40L1 40L1 42L0 42L0 43L1 43L1 44L0 44L0 50L2 50L2 51L0 51L0 52L1 52L1 53L0 53L0 54L2 54L2 55L3 55L3 56L1 56L1 55L0 55L0 56L1 56L1 57L3 57L3 56L4 56L4 57L5 57L5 56L4 56L4 54L5 54L5 55L8 55L8 56L6 56L6 57L8 57L8 59L10 59L10 60L9 60L9 61L8 61L8 62L9 62L9 61L11 61L11 62L12 62L12 63L11 63L11 64L9 64L9 63L8 63L8 65L11 65L11 64L12 64L12 65L13 65L13 63L16 63L16 64L17 64L17 65L19 65L19 64L20 64L20 63L21 63L21 65L22 65L22 63L23 63L23 65L24 65L24 63L25 63L25 62L27 62L27 64L25 64L25 65L27 65L27 64L28 64L28 63L29 63L29 65L31 65L31 64L32 64L32 65L34 65L34 64L33 64L33 63L35 63L35 62L36 62L36 63L38 63L38 64L35 64L35 65L40 65L40 64L39 64L39 63L38 63L38 61L44 61L44 62L40 62L40 63L44 63L44 64L43 64L43 65L49 65L49 64L48 64L48 63L51 63L51 64L50 64L50 65L52 65L52 63L53 63L53 62L52 62L52 61L53 61L53 60L54 60L54 59L56 59L56 61L55 61L55 62L54 62L54 64L55 64L55 65L64 65L64 63L65 63L65 59L64 59L64 58L65 58L65 56L64 56L64 58L63 58L63 56L62 56L62 55L63 55L63 54L62 54L62 52L61 52L61 51L62 51L62 50L63 50L63 53L64 53L64 55L65 55L65 53L64 53L64 51L65 51L65 50L63 50L63 49L62 49L62 48L63 48L63 47L64 47L64 46L65 46L65 44L64 44L64 43L65 43L65 41L64 41L64 40L65 40L65 38L63 38L63 37L62 37L62 39L64 39L64 40L63 40L63 41L61 41L61 42L63 42L63 44L64 44L64 45L63 45L63 46L62 46L62 45L61 45L61 46L59 46L59 45L60 45L60 44L62 44L62 43L60 43L60 44L58 44L58 43L59 43L59 42L60 42L60 41L59 41L59 39L60 39L60 40L61 40L61 38L57 38L57 37L56 37L56 39L58 39L58 42L57 42L57 40L55 40L55 41L56 41L56 43L55 43L55 42L54 42L54 39L55 39L55 38L54 38L54 39L53 39L53 44L52 44L52 45L51 45L51 44L48 44L48 43L46 43L46 42L45 42L45 39L46 39L46 38L47 38L47 39L48 39L48 37L49 37L49 35L50 35L50 36L51 36L51 37L52 37L52 38L53 38L53 35L54 35L54 34L52 34L52 33L54 33L54 29L56 29L56 32L55 32L55 33L56 33L56 35L58 35L58 37L61 37L61 36L59 36L59 35L61 35L61 34L62 34L62 33L64 33L64 34L63 34L63 35L62 35L62 36L64 36L64 37L65 37L65 35L64 35L64 34L65 34L65 33L64 33L64 32L62 32L62 30L63 30L63 31L65 31L65 28L64 28L64 27L65 27L65 26L64 26L64 25L62 25L62 27L63 27L63 28L62 28L62 30L61 30L61 28L60 28L60 27L61 27L61 26L59 26L59 25L61 25L61 24L59 24L59 22L58 22L58 23L57 23L57 24L56 24L56 21L59 21L59 19L60 19L60 21L61 21L61 22L60 22L60 23L62 23L62 24L64 24L64 21L63 21L63 20L65 20L65 18L64 18L64 17L65 17L65 14L64 14L64 13L65 13L65 11L64 11L64 10L63 10L63 11L62 11L62 10L61 10L61 8L58 8L58 9L59 9L59 10L60 10L60 11L59 11L59 12L58 12L58 14L57 14L57 15L58 15L58 16L57 16L57 17L55 17L55 15L56 15L56 13L57 13L57 10L56 10L56 13L55 13L55 11L54 11L54 12L53 12L53 8L54 8L54 9L57 9L57 8L54 8L54 7L55 7L55 5L54 5L54 4L56 4L56 5L57 5L57 4L56 4L56 3L57 3L57 1L56 1L56 0L55 0L55 1L56 1L56 3L55 3L55 2L54 2L54 0L53 0L53 1L51 1L51 0L49 0L49 1L50 1L50 2L49 2L49 3L50 3L50 2L51 2L51 4L50 4L50 5L49 5L49 6L48 6L48 5L46 5L46 8L48 8L48 9L47 9L47 10L46 10L46 11L45 11L45 9L44 9L44 7L45 7L45 6L44 6L44 5L45 5L45 4L44 4L44 5L43 5L43 0L42 0L42 2L41 2L41 1L40 1L40 0L32 0L32 1L34 1L34 2L31 2L31 0L26 0L26 1L25 1L25 0L24 0L24 1L22 1L22 0L18 0L18 1L20 1L20 2L19 2L19 3L20 3L20 4L19 4L19 5L23 5L23 6L22 6L22 7L21 7L21 6L20 6L20 7L21 7L21 10L19 10L19 9L20 9L20 8L19 8L19 6L18 6L18 4L17 4L17 6L16 6L16 5L15 5L15 6L14 6L14 8L12 8L12 7L13 7L13 5L12 5L12 7L11 7L11 6L10 6L10 7L9 7L9 5L11 5L11 4L14 4L14 3L18 3L18 2L14 2L14 3L11 3L11 0ZM12 0L12 1L13 1L13 0ZM16 0L16 1L17 1L17 0ZM44 0L44 3L46 3L46 4L47 4L47 3L48 3L48 2L46 2L46 1L47 1L47 0ZM9 1L9 2L10 2L10 1ZM27 1L27 3L26 3L26 2L24 2L24 3L25 3L25 5L26 5L26 6L25 6L25 7L24 7L24 6L23 6L23 9L22 9L22 10L21 10L21 11L19 11L19 12L20 12L20 13L18 13L18 14L16 14L16 15L15 15L15 16L16 16L16 17L14 17L14 16L13 16L13 14L15 14L15 9L18 9L18 8L17 8L17 7L18 7L18 6L17 6L17 7L16 7L16 6L15 6L15 8L14 8L14 11L13 11L13 9L12 9L12 8L11 8L11 7L10 7L10 8L11 8L11 10L10 10L10 9L9 9L9 8L8 8L8 12L7 12L7 13L6 13L6 14L9 14L9 16L8 16L8 17L11 17L11 18L7 18L7 19L6 19L6 20L7 20L7 21L5 21L5 22L7 22L7 23L6 23L6 24L8 24L8 25L5 25L5 23L3 23L3 24L4 24L4 25L3 25L3 26L2 26L2 27L5 27L5 26L7 26L7 27L6 27L6 28L5 28L5 29L3 29L3 28L1 28L1 29L3 29L3 30L2 30L2 31L3 31L3 34L4 34L4 30L5 30L5 29L6 29L6 30L7 30L7 29L8 29L8 30L9 30L9 31L10 31L10 30L11 30L11 34L12 34L12 29L13 29L13 27L12 27L12 26L13 26L13 25L12 25L12 26L11 26L11 28L10 28L10 27L9 27L9 26L10 26L10 25L11 25L11 22L9 22L9 23L10 23L10 25L9 25L9 24L8 24L8 22L7 22L7 21L8 21L8 20L9 20L9 19L10 19L10 21L12 21L12 19L11 19L11 18L12 18L12 17L14 17L14 18L13 18L13 20L14 20L14 21L13 21L13 22L12 22L12 23L13 23L13 22L14 22L14 27L17 27L17 29L15 29L15 30L13 30L13 31L14 31L14 32L13 32L13 34L17 34L17 35L14 35L14 36L12 36L12 35L11 35L11 36L12 36L12 37L10 37L10 32L9 32L9 38L8 38L8 39L9 39L9 38L10 38L10 41L11 41L11 38L12 38L12 37L13 37L13 38L14 38L14 39L17 39L17 40L16 40L16 41L15 41L15 40L14 40L14 42L15 42L15 43L16 43L16 44L15 44L15 45L16 45L16 47L15 47L15 46L14 46L14 45L13 45L13 41L12 41L12 42L11 42L11 46L10 46L10 47L9 47L9 48L8 48L8 46L9 46L9 45L8 45L8 44L7 44L7 43L5 43L5 41L6 41L6 42L7 42L7 41L8 41L8 42L9 42L9 44L10 44L10 42L9 42L9 40L7 40L7 39L5 39L5 38L7 38L7 37L8 37L8 35L5 35L5 36L4 36L4 37L3 37L3 38L2 38L2 37L1 37L1 38L2 38L2 39L3 39L3 38L4 38L4 39L5 39L5 40L3 40L3 42L1 42L1 43L2 43L2 44L1 44L1 46L2 46L2 47L1 47L1 48L2 48L2 47L3 47L3 48L4 48L4 49L5 49L5 48L7 48L7 49L6 49L6 50L5 50L5 51L4 51L4 52L3 52L3 51L2 51L2 52L3 52L3 53L2 53L2 54L3 54L3 53L4 53L4 52L8 52L8 50L7 50L7 49L9 49L9 51L10 51L10 54L12 54L12 55L9 55L9 56L12 56L12 57L10 57L10 58L12 58L12 60L11 60L11 61L12 61L12 60L13 60L13 62L15 62L15 61L14 61L14 60L13 60L13 58L14 58L14 57L15 57L15 60L16 60L16 61L17 61L17 63L18 63L18 64L19 64L19 63L18 63L18 62L19 62L19 61L20 61L20 62L21 62L21 61L20 61L20 59L21 59L21 60L24 60L24 61L23 61L23 62L25 62L25 60L24 60L24 59L26 59L26 58L25 58L25 57L23 57L23 59L21 59L21 56L23 56L23 52L24 52L24 56L25 56L25 54L26 54L26 57L27 57L27 59L29 59L29 60L28 60L28 61L27 61L27 62L28 62L28 61L30 61L30 58L29 58L29 57L30 57L30 55L31 55L31 56L33 56L33 54L37 54L37 55L36 55L36 56L35 56L35 58L39 58L39 60L40 60L40 59L41 59L41 60L43 60L43 59L46 59L46 60L45 60L45 62L44 62L44 63L45 63L45 62L46 62L46 64L47 64L47 62L49 62L49 61L47 61L47 62L46 62L46 60L47 60L47 59L46 59L46 58L47 58L47 57L48 57L48 58L49 58L49 59L50 59L50 58L51 58L51 60L50 60L50 62L51 62L51 63L52 63L52 62L51 62L51 61L52 61L52 59L54 59L54 58L56 58L56 56L57 56L57 55L56 55L56 56L54 56L54 57L53 57L53 58L51 58L51 55L53 55L53 54L50 54L50 53L51 53L51 52L52 52L52 53L54 53L54 54L56 54L56 53L57 53L57 52L56 52L56 51L57 51L57 49L58 49L58 50L59 50L59 51L60 51L60 50L62 50L62 49L61 49L61 47L62 47L62 46L61 46L61 47L60 47L60 50L59 50L59 49L58 49L58 47L59 47L59 46L58 46L58 45L57 45L57 43L56 43L56 44L55 44L55 43L54 43L54 44L53 44L53 45L54 45L54 47L53 47L53 46L52 46L52 48L55 48L55 49L52 49L52 50L54 50L54 51L55 51L55 52L52 52L52 51L51 51L51 48L50 48L50 47L51 47L51 45L50 45L50 46L49 46L49 47L48 47L48 48L50 48L50 50L49 50L49 49L47 49L47 50L46 50L46 48L45 48L45 50L44 50L44 51L45 51L45 50L46 50L46 52L45 52L45 54L46 54L46 55L49 55L49 54L50 54L50 56L49 56L49 57L48 57L48 56L46 56L46 57L45 57L45 56L44 56L44 55L43 55L43 53L44 53L44 52L41 52L41 51L43 51L43 49L42 49L42 48L43 48L43 47L44 47L44 46L43 46L43 44L44 44L44 45L45 45L45 46L46 46L46 47L47 47L47 45L48 45L48 44L47 44L47 45L45 45L45 44L46 44L46 43L45 43L45 42L44 42L44 41L42 41L42 40L40 40L40 38L42 38L42 39L44 39L44 37L43 37L43 36L44 36L44 35L45 35L45 34L47 34L47 32L46 32L46 30L47 30L47 31L48 31L48 29L47 29L47 26L48 26L48 25L47 25L47 26L46 26L46 24L45 24L45 26L46 26L46 27L45 27L45 29L44 29L44 28L43 28L43 29L42 29L42 27L44 27L44 26L43 26L43 22L44 22L44 21L45 21L45 23L46 23L46 22L47 22L47 21L48 21L48 23L47 23L47 24L48 24L48 23L49 23L49 22L50 22L50 24L53 24L53 25L52 25L52 26L54 26L54 27L49 27L49 28L50 28L50 29L51 29L51 28L52 28L52 30L53 30L53 28L56 28L56 27L55 27L55 25L56 25L56 26L57 26L57 28L58 28L58 29L57 29L57 30L59 30L59 26L58 26L58 25L59 25L59 24L58 24L58 25L56 25L56 24L54 24L54 23L53 23L53 22L55 22L55 21L56 21L56 20L57 20L57 19L58 19L58 18L60 18L60 19L62 19L62 20L63 20L63 18L61 18L61 17L60 17L60 16L59 16L59 17L57 17L57 19L56 19L56 18L55 18L55 17L54 17L54 19L53 19L53 16L52 16L52 13L51 13L51 12L50 12L50 10L51 10L51 11L52 11L52 10L51 10L51 8L50 8L50 6L51 6L51 7L52 7L52 8L53 8L53 7L54 7L54 5L53 5L53 7L52 7L52 6L51 6L51 5L52 5L52 4L54 4L54 3L53 3L53 2L52 2L52 4L51 4L51 5L50 5L50 6L49 6L49 7L48 7L48 6L47 6L47 7L48 7L48 8L49 8L49 10L48 10L48 11L46 11L46 12L48 12L48 11L49 11L49 12L50 12L50 14L51 14L51 16L50 16L50 15L45 15L45 17L44 17L44 16L43 16L43 17L42 17L42 16L40 16L40 15L42 15L42 14L43 14L43 15L44 15L44 13L43 13L43 11L44 11L44 12L45 12L45 11L44 11L44 9L41 9L41 10L40 10L40 11L39 11L39 8L40 8L40 6L39 6L39 8L38 8L38 6L37 6L37 5L38 5L38 4L42 4L42 3L41 3L41 2L40 2L40 3L39 3L39 2L38 2L38 4L37 4L37 1L35 1L35 2L36 2L36 3L35 3L35 9L30 9L30 1ZM28 2L28 3L27 3L27 4L26 4L26 5L27 5L27 6L26 6L26 7L25 7L25 12L23 12L23 11L24 11L24 10L22 10L22 12L21 12L21 14L20 14L20 15L19 15L19 14L18 14L18 15L17 15L17 17L20 17L20 18L18 18L18 19L17 19L17 18L14 18L14 19L15 19L15 20L16 20L16 21L14 21L14 22L15 22L15 23L16 23L16 24L17 24L17 25L16 25L16 26L17 26L17 27L19 27L19 28L18 28L18 29L17 29L17 31L15 31L15 32L14 32L14 33L15 33L15 32L16 32L16 33L17 33L17 31L18 31L18 33L19 33L19 31L18 31L18 30L19 30L19 29L20 29L20 32L21 32L21 34L22 34L22 33L24 33L24 32L25 32L25 31L26 31L26 32L27 32L27 33L26 33L26 34L25 34L25 35L22 35L22 36L19 36L19 35L18 35L18 36L16 36L16 38L17 38L17 39L19 39L19 40L17 40L17 41L19 41L19 40L20 40L20 39L21 39L21 38L23 38L23 39L22 39L22 40L21 40L21 41L20 41L20 42L16 42L16 43L17 43L17 44L18 44L18 46L17 46L17 47L16 47L16 48L14 48L14 50L12 50L12 51L15 51L15 53L14 53L14 52L12 52L12 54L13 54L13 57L12 57L12 58L13 58L13 57L14 57L14 56L16 56L16 57L17 57L17 58L18 58L18 59L19 59L19 58L18 58L18 57L19 57L19 56L18 56L18 57L17 57L17 54L19 54L19 52L18 52L18 53L17 53L17 52L16 52L16 50L17 50L17 51L20 51L20 49L21 49L21 52L20 52L20 54L21 54L21 55L22 55L22 50L23 50L23 51L24 51L24 50L23 50L23 48L20 48L20 46L19 46L19 45L20 45L20 43L21 43L21 42L22 42L22 44L21 44L21 46L22 46L22 45L24 45L24 44L23 44L23 43L24 43L24 41L25 41L25 45L26 45L26 46L24 46L24 49L25 49L25 50L27 50L27 51L25 51L25 52L26 52L26 53L27 53L27 52L28 52L28 53L29 53L29 51L28 51L28 50L30 50L30 49L28 49L28 48L29 48L29 47L30 47L30 45L31 45L31 46L32 46L32 47L31 47L31 51L30 51L30 53L31 53L31 51L32 51L32 52L34 52L34 53L37 53L37 52L38 52L38 51L37 51L37 52L35 52L35 50L36 50L36 49L37 49L37 50L38 50L38 48L39 48L39 49L40 49L40 51L39 51L39 53L38 53L38 55L41 55L41 56L39 56L39 57L40 57L40 58L41 58L41 59L43 59L43 58L45 58L45 57L44 57L44 56L42 56L42 55L41 55L41 54L42 54L42 53L41 53L41 54L39 54L39 53L40 53L40 51L41 51L41 50L42 50L42 49L41 49L41 48L42 48L42 47L43 47L43 46L41 46L41 43L42 43L42 44L43 44L43 43L44 43L44 42L43 42L43 43L42 43L42 41L38 41L38 40L35 40L35 39L38 39L38 37L39 37L39 38L40 38L40 37L41 37L41 36L42 36L42 33L43 33L43 34L45 34L45 33L44 33L44 32L45 32L45 31L44 31L44 30L43 30L43 31L41 31L41 32L40 32L40 33L39 33L39 34L38 34L38 35L36 35L36 34L37 34L37 33L38 33L38 31L39 31L39 30L40 30L40 29L39 29L39 28L38 28L38 31L35 31L35 30L33 30L33 29L37 29L37 28L35 28L35 27L34 27L34 26L35 26L35 25L36 25L36 27L38 27L38 24L39 24L39 23L38 23L38 24L36 24L36 23L37 23L37 22L38 22L38 21L37 21L37 20L39 20L39 22L41 22L41 23L40 23L40 25L39 25L39 26L41 26L41 23L42 23L42 22L41 22L41 18L42 18L42 17L41 17L41 18L40 18L40 19L39 19L39 17L38 17L38 16L34 16L34 15L33 15L33 16L32 16L32 17L31 17L31 18L26 18L26 19L25 19L25 20L24 20L24 17L25 17L25 16L26 16L26 17L27 17L27 16L26 16L26 15L28 15L28 17L30 17L30 16L29 16L29 15L28 15L28 14L30 14L30 15L32 15L32 14L35 14L35 15L37 15L37 14L38 14L38 15L39 15L39 14L38 14L38 13L37 13L37 12L38 12L38 10L36 10L36 9L37 9L37 8L36 8L36 9L35 9L35 10L36 10L36 11L34 11L34 10L32 10L32 11L34 11L34 13L33 13L33 12L32 12L32 14L30 14L30 13L31 13L31 12L30 12L30 11L31 11L31 10L28 10L28 8L29 8L29 5L28 5L28 4L29 4L29 2ZM21 3L21 4L23 4L23 5L24 5L24 4L23 4L23 3ZM31 3L31 4L33 4L33 3ZM36 4L36 5L37 5L37 4ZM31 5L31 8L34 8L34 5ZM42 5L42 6L41 6L41 7L42 7L42 8L43 8L43 7L44 7L44 6L43 6L43 5ZM27 6L27 7L26 7L26 12L27 12L27 14L28 14L28 12L29 12L29 11L27 11L27 7L28 7L28 6ZM32 6L32 7L33 7L33 6ZM36 6L36 7L37 7L37 6ZM42 6L42 7L43 7L43 6ZM56 6L56 7L57 7L57 6ZM0 8L0 9L1 9L1 11L0 11L0 12L2 12L2 8ZM3 8L3 11L4 11L4 12L5 12L5 9L4 9L4 8ZM62 8L62 9L64 9L64 8ZM9 10L9 14L10 14L10 13L11 13L11 12L12 12L12 10L11 10L11 11L10 11L10 10ZM41 10L41 11L40 11L40 14L41 14L41 11L42 11L42 10ZM17 11L17 12L16 12L16 13L17 13L17 12L18 12L18 11ZM60 11L60 12L61 12L61 13L60 13L60 14L58 14L58 15L60 15L60 14L61 14L61 16L62 16L62 17L64 17L64 14L63 14L63 12L64 12L64 11L63 11L63 12L62 12L62 11ZM13 12L13 13L12 13L12 14L11 14L11 16L12 16L12 14L13 14L13 13L14 13L14 12ZM23 13L23 14L24 14L24 15L20 15L20 16L22 16L22 18L20 18L20 19L22 19L22 20L21 20L21 21L20 21L20 22L22 22L22 23L21 23L21 24L24 24L24 27L23 27L23 26L21 26L21 25L20 25L20 24L19 24L19 25L20 25L20 26L19 26L19 27L20 27L20 26L21 26L21 27L23 27L23 28L20 28L20 29L21 29L21 30L22 30L22 29L24 29L24 31L25 31L25 29L26 29L26 30L27 30L27 32L28 32L28 30L29 30L29 31L30 31L30 30L32 30L32 28L31 28L31 27L29 27L29 26L28 26L28 24L29 24L29 25L30 25L30 24L31 24L31 23L30 23L30 24L29 24L29 22L32 22L32 23L33 23L33 22L35 22L35 23L36 23L36 21L34 21L34 20L36 20L36 19L37 19L37 18L38 18L38 17L37 17L37 18L36 18L36 19L34 19L34 20L33 20L33 19L32 19L32 21L31 21L31 19L30 19L30 20L29 20L29 21L28 21L28 20L25 20L25 21L24 21L24 20L23 20L23 16L24 16L24 15L26 15L26 13ZM45 13L45 14L46 14L46 13ZM47 13L47 14L49 14L49 13ZM53 13L53 14L54 14L54 15L55 15L55 13ZM61 13L61 14L62 14L62 13ZM2 14L2 15L3 15L3 14ZM18 15L18 16L19 16L19 15ZM33 16L33 18L35 18L35 17L34 17L34 16ZM46 16L46 17L45 17L45 18L44 18L44 19L43 19L43 20L42 20L42 21L43 21L43 20L46 20L46 21L47 21L47 19L48 19L48 18L49 18L49 20L48 20L48 21L49 21L49 20L51 20L51 21L54 21L54 20L52 20L52 17L50 17L50 18L49 18L49 16ZM46 17L46 19L47 19L47 17ZM2 18L2 19L3 19L3 20L4 20L4 18ZM50 18L50 19L51 19L51 18ZM7 19L7 20L8 20L8 19ZM17 20L17 21L16 21L16 23L18 23L18 20ZM22 20L22 22L23 22L23 20ZM26 21L26 22L27 22L27 21ZM62 21L62 22L63 22L63 21ZM51 22L51 23L52 23L52 22ZM27 23L27 24L26 24L26 25L25 25L25 26L26 26L26 27L27 27L27 28L26 28L26 29L27 29L27 28L28 28L28 29L29 29L29 30L30 30L30 29L31 29L31 28L29 28L29 27L28 27L28 26L27 26L27 24L28 24L28 23ZM4 25L4 26L5 26L5 25ZM8 25L8 26L9 26L9 25ZM32 25L32 27L33 27L33 28L34 28L34 27L33 27L33 25ZM50 25L50 26L51 26L51 25ZM7 27L7 28L6 28L6 29L7 29L7 28L8 28L8 27ZM24 27L24 28L25 28L25 27ZM40 27L40 28L41 28L41 27ZM9 28L9 29L10 29L10 28ZM63 28L63 30L64 30L64 28ZM50 30L50 31L49 31L49 32L51 32L51 30ZM5 31L5 34L8 34L8 31ZM21 31L21 32L23 32L23 31ZM31 31L31 34L34 34L34 31ZM43 31L43 32L44 32L44 31ZM52 31L52 32L53 32L53 31ZM57 31L57 34L60 34L60 31ZM6 32L6 33L7 33L7 32ZM32 32L32 33L33 33L33 32ZM35 32L35 34L36 34L36 32ZM58 32L58 33L59 33L59 32ZM27 33L27 35L26 35L26 36L28 36L28 37L30 37L30 38L29 38L29 40L27 40L27 41L26 41L26 39L27 39L27 37L23 37L23 38L25 38L25 39L24 39L24 40L22 40L22 41L24 41L24 40L25 40L25 41L26 41L26 42L27 42L27 43L28 43L28 44L26 44L26 45L27 45L27 46L26 46L26 47L25 47L25 48L26 48L26 47L28 47L28 46L29 46L29 44L30 44L30 43L31 43L31 44L32 44L32 43L33 43L33 45L32 45L32 46L34 46L34 48L35 48L35 49L36 49L36 47L35 47L35 46L36 46L36 44L37 44L37 46L39 46L39 47L41 47L41 46L40 46L40 45L39 45L39 44L40 44L40 43L39 43L39 42L38 42L38 41L37 41L37 43L36 43L36 41L35 41L35 40L34 40L34 41L33 41L33 39L32 39L32 40L31 40L31 36L30 36L30 35L29 35L29 33ZM48 33L48 35L47 35L47 36L45 36L45 38L46 38L46 37L47 37L47 36L48 36L48 35L49 35L49 34L51 34L51 33ZM0 34L0 35L1 35L1 34ZM32 35L32 38L33 38L33 35ZM34 35L34 36L35 36L35 35ZM39 35L39 37L40 37L40 35ZM5 36L5 37L4 37L4 38L5 38L5 37L7 37L7 36ZM14 36L14 37L15 37L15 36ZM54 36L54 37L55 37L55 36ZM18 37L18 38L19 38L19 37ZM20 37L20 38L21 38L21 37ZM36 37L36 38L37 38L37 37ZM49 38L49 40L47 40L47 41L48 41L48 42L49 42L49 43L52 43L52 42L51 42L51 41L52 41L52 40L51 40L51 38ZM6 40L6 41L7 41L7 40ZM29 40L29 41L31 41L31 40ZM32 41L32 42L33 42L33 41ZM49 41L49 42L50 42L50 41ZM63 41L63 42L64 42L64 41ZM3 42L3 46L4 46L4 47L7 47L7 46L6 46L6 45L7 45L7 44L5 44L5 43L4 43L4 42ZM28 42L28 43L29 43L29 42ZM34 42L34 43L35 43L35 42ZM37 43L37 44L38 44L38 43ZM4 44L4 45L5 45L5 44ZM12 45L12 46L11 46L11 47L12 47L12 46L13 46L13 47L14 47L14 46L13 46L13 45ZM55 45L55 46L56 46L56 47L58 47L58 46L57 46L57 45ZM17 47L17 48L16 48L16 49L15 49L15 50L16 50L16 49L17 49L17 50L18 50L18 49L17 49L17 48L19 48L19 49L20 49L20 48L19 48L19 47ZM32 47L32 51L33 51L33 47ZM37 47L37 48L38 48L38 47ZM12 48L12 49L13 49L13 48ZM56 48L56 49L55 49L55 50L56 50L56 49L57 49L57 48ZM64 48L64 49L65 49L65 48ZM2 49L2 50L3 50L3 49ZM27 49L27 50L28 50L28 49ZM6 50L6 51L7 51L7 50ZM48 51L48 52L46 52L46 53L48 53L48 54L49 54L49 53L50 53L50 51ZM55 52L55 53L56 53L56 52ZM58 52L58 53L60 53L60 54L59 54L59 55L58 55L58 56L59 56L59 55L62 55L62 54L61 54L61 53L60 53L60 52ZM5 53L5 54L7 54L7 53ZM8 53L8 54L9 54L9 53ZM15 53L15 54L14 54L14 55L15 55L15 54L17 54L17 53ZM32 53L32 54L31 54L31 55L32 55L32 54L33 54L33 53ZM27 54L27 55L28 55L28 54ZM28 56L28 57L29 57L29 56ZM36 56L36 57L38 57L38 56ZM41 56L41 58L43 58L43 57L42 57L42 56ZM31 57L31 60L34 60L34 57ZM57 57L57 60L60 60L60 57ZM61 57L61 59L63 59L63 60L62 60L62 61L61 61L61 64L63 64L63 63L64 63L64 62L63 62L63 60L64 60L64 59L63 59L63 58L62 58L62 57ZM32 58L32 59L33 59L33 58ZM58 58L58 59L59 59L59 58ZM35 59L35 60L37 60L37 59ZM17 60L17 61L19 61L19 60ZM31 61L31 62L29 62L29 63L31 63L31 62L32 62L32 63L33 63L33 62L34 62L34 61ZM36 61L36 62L37 62L37 61ZM56 61L56 63L55 63L55 64L56 64L56 63L57 63L57 64L60 64L60 62L59 62L59 63L58 63L58 61ZM41 64L41 65L42 65L42 64ZM0 0L0 7L7 7L7 0ZM1 1L1 6L6 6L6 1ZM2 2L2 5L5 5L5 2ZM58 0L58 7L65 7L65 0ZM59 1L59 6L64 6L64 1ZM60 2L60 5L63 5L63 2ZM0 58L0 65L7 65L7 58ZM1 59L1 64L6 64L6 59ZM2 60L2 63L5 63L5 60Z" fill="#000000"/></g></g></svg>
